#N canvas 0 57 1920 1023 10;
#X declare -path ../../../core;
#X declare -path ../../../core/stuff;
#X declare -path ../../../core/rj;
#N canvas 172 83 586 377 LICENSE-GPL 0;
#X text 57 88 This program is free software: you can redistribute it
and/or modify it under the terms of the GNU General Public License
as published by the Free Software Foundation \, either version 3 of
the License \, or (at your option) any later version.;
#X text 58 168 This program is distributed in the hope that it will
be useful \, but WITHOUT ANY WARRANTY \; without even the implied warranty
of MERCHANTABILITY or FITNESS FOR A PARTICULAR PURPOSE. See the GNU
General Public License for more details.;
#X text 57 261 You should have received a copy of the GNU General Public
License along with this program. If not \, see <http://www.gnu.org/licenses/>.
;
#X text 61 54 Copyright (C) 2009 \, Reality Jockey Ltd.;
#X text 60 325 See the file LICENSE.txt for the full license text.
;
#X restore 298 15 pd LICENSE-GPL;
#X obj 101 101 cnv 15 188 68 \$0-background \$0-background-rcv midi_notein-0
0 7 0 14 -262144 -1 0;
#X obj 29 340 inlet~;
#X obj 80 342 inlet~;
#X obj 20 644 outlet~;
#X obj 78 645 outlet~;
#X obj 132 339 inlet data;
#X obj 215 679 outlet data;
#X obj 633 285 module_loader midi_notein \$0 \$1;
#X obj 100 155 hradio 15 1 0 4 \$0-device \$0-device-rcv midiport 0
-8 0 10 -262144 -1 -1 1;
#X obj 633 357 u_parameter \$0 device;
#X obj 576 210 r \$0-device;
#X obj 579 240 * 16;
#X floatatom 313 172 5 0 0 0 - - -;
#X obj 218 607 pack f f;
#X obj 249 382 spigot;
#X msg 218 629 note \$1 \$2;
#X floatatom 100 128 5 0 0 2 key - -;
#X obj 136 128 bng 15 250 50 0 empty empty empty 17 7 0 10 -262144
-1 -1;
#X obj 313 464 select 0;
#X msg 304 534 0;
#X obj 358 526 expr pow($f1 \, $f2);
#X obj 218 113 vsl 20 50 0.1 10 1 0 \$0-power \$0-power-rcv power -7
-9 0 10 -262144 -1 -1 2450 1;
#X obj 238 113 vsl 20 50 64 256 1 0 \$0-factor \$0-factor-rcv factor
4 -9 0 10 -262144 -1 -1 2422 1;
#X obj 362 493 / 127;
#X obj 358 548 *;
#X obj 358 570 max 1;
#X obj 358 592 min 127;
#X obj 759 642 expr pow($f1 \, $f2);
#X obj 759 664 *;
#X obj 759 686 max 1;
#X obj 759 708 min 127;
#X obj 678 660 f;
#X obj 719 660 + 1;
#X obj 665 633 until;
#X msg 661 613 128;
#X obj 646 588 t b b;
#X msg 722 627 0;
#X obj 645 563 bng 15 250 50 0 empty empty empty 17 7 0 10 -262144
-1 -1;
#X obj 678 682 t f f;
#X obj 687 733 tabwrite \$0-curve;
#X obj 678 704 / 127;
#X obj 449 472 r \$0-power;
#X obj 912 596 r \$0-power;
#X obj 779 614 r \$0-factor;
#X obj 428 568 r \$0-factor;
#X obj 912 618 t b;
#X obj 912 640 delay 20;
#X msg 237 58 1;
#X msg 277 57 127;
#X obj 272 111 bng 15 250 50 0 empty empty empty 17 7 0 10 -262144
-1 -1;
#X obj 633 379 u_parameter \$0 power;
#X obj 633 401 u_parameter \$0 factor;
#X text 158 151 velocity;
#X text 913 563 credits : http://www.norduserforum.com/viewtopic.php?t=5523&p=35119
;
#X obj 358 58 loadbang;
#X obj 156 123 hsl 60 32 0 127 0 0 empty empty empty -2 -8 0 10 -262144
-1 -1 0 1;
#N canvas 0 50 450 250 (subpatch) 0;
#X array \$0-curve 128 float 0;
#X coords 0 127 127 0 64 32 1 0 0;
#X restore 155 123 graph;
#X obj 326 391 spigot;
#X obj 210 272 spigot;
#X obj 242 244 r \$0-busy;
#X obj 239 301 unpack f f f;
#X obj 198 191 notein;
#X obj 201 220 pack f f f;
#X floatatom 274 155 2 1 16 0 - #0-midi_chan-rcv #0-midi_chan;
#X obj 633 423 u_parameter \$0 midi_chan;
#X msg 589 174 midi_chan 1;
#X obj 584 133 loadbang;
#X floatatom 252 197 5 0 0 0 - - -;
#X obj 438 170 mod 16;
#X obj 432 145 - 1;
#X obj 370 214 t f f;
#X obj 365 254 expr ($f1> $f2)&&($f1<=$f2+16);
#X obj 438 192 + 1;
#X obj 437 225 == 1;
#X obj 468 195 r \$0-midi_chan;
#X obj 355 357 &&;
#X text 258 128 midi;
#X text 258 138 chan;
#X obj 771 99 namecanvas \$0-this;
#X obj 769 76 triggered_loadbang \$0-this;
#X text 764 26 manually trigger loadbang if the instance of abstraction
is created dynamically, f 29;
#X obj 793 253 savestate;
#X obj 129 376 route note;
#X obj 251 426 t a a a;
#X obj 318 429 t a a;
#X obj 129 399 unpack f f;
#X obj 773 151 declare -path ../../../core;
#X obj 773 171 declare -path ../../../core/stuff;
#X obj 773 191 declare -path ../../../core/rj;
#X connect 2 0 4 0;
#X connect 3 0 5 0;
#X connect 6 0 83 0;
#X connect 8 0 10 0;
#X connect 8 1 82 0;
#X connect 10 0 51 0;
#X connect 11 0 12 0;
#X connect 12 0 72 1;
#X connect 13 0 72 0;
#X connect 14 0 16 0;
#X connect 15 0 84 0;
#X connect 16 0 7 0;
#X connect 19 0 20 0;
#X connect 19 1 24 0;
#X connect 20 0 14 1;
#X connect 21 0 25 0;
#X connect 24 0 21 0;
#X connect 25 0 26 0;
#X connect 26 0 27 0;
#X connect 27 0 14 1;
#X connect 28 0 29 0;
#X connect 29 0 30 0;
#X connect 30 0 31 0;
#X connect 31 0 40 0;
#X connect 32 0 33 0;
#X connect 32 0 39 0;
#X connect 33 0 32 1;
#X connect 34 0 32 0;
#X connect 35 0 34 0;
#X connect 36 0 35 0;
#X connect 36 1 37 0;
#X connect 37 0 32 1;
#X connect 38 0 36 0;
#X connect 39 0 41 0;
#X connect 39 1 40 1;
#X connect 41 0 28 0;
#X connect 42 0 21 1;
#X connect 43 0 28 1;
#X connect 43 0 46 0;
#X connect 44 0 29 1;
#X connect 44 0 46 0;
#X connect 45 0 25 1;
#X connect 46 0 47 0;
#X connect 47 0 36 0;
#X connect 48 0 22 0;
#X connect 49 0 23 0;
#X connect 50 0 49 0;
#X connect 50 0 48 0;
#X connect 51 0 52 0;
#X connect 52 0 65 0;
#X connect 55 0 50 0;
#X connect 58 0 85 0;
#X connect 59 0 61 0;
#X connect 60 0 59 1;
#X connect 61 0 15 0;
#X connect 61 1 58 0;
#X connect 61 2 71 0;
#X connect 62 0 63 0;
#X connect 62 1 63 1;
#X connect 62 2 63 2;
#X connect 62 2 68 0;
#X connect 63 0 59 0;
#X connect 66 0 8 0;
#X connect 67 0 66 0;
#X connect 69 0 73 0;
#X connect 70 0 69 0;
#X connect 71 0 72 0;
#X connect 71 1 70 0;
#X connect 72 0 76 0;
#X connect 73 0 74 0;
#X connect 74 0 76 1;
#X connect 75 0 74 1;
#X connect 76 0 15 1;
#X connect 76 0 58 1;
#X connect 82 0 8 1;
#X connect 82 1 8 2;
#X connect 83 0 86 0;
#X connect 83 1 7 0;
#X connect 84 0 18 0;
#X connect 84 1 17 0;
#X connect 84 2 14 0;
#X connect 85 0 56 0;
#X connect 85 1 19 0;
#X connect 86 0 84 0;
#X connect 86 1 85 0;
#X coords 0 0 1 1 190 70 1 100 100;
