#N canvas 515 98 653 438 16;
#X obj 98 179 midi_notein;
#A saved midi_chan 1;
#A saved factor 127;
#A saved power 0.145635;
#A saved SID 0;
#X obj 102 284 hradio 15 1 0 4 \$0-device \$0-device-rcv midiport 0
-8 0 10 -262144 -1 -1 0;
#X obj 102 318 vsl 20 50 0.1 10 1 0 \$0-power \$0-power-rcv power 0
-9 0 10 -262144 -1 -1 0 1;
#X obj 131 318 vsl 20 50 64 256 1 0 \$0-factor \$0-factor-rcv factor
0 -9 0 10 -262144 -1 -1 0 1;
#X obj 155 380 bng 15 250 50 0 empty empty empty 17 7 0 10 -262144
-1 -1;
#X text 182 283 pour sélectioner le port midi d'entrée;
#X text 182 308 pour ajuster la courbe de vélocité;
#X text 188 379 <- linéaire;
#X text 256 406 voir aussi data_azerty2midi;
#X msg 287 122 note 64 64;
#X msg 307 149 note 64 0;
#X text 58 56 midi note in receiver + velocity mapping;
#X obj 320 241 print;
#X connect 0 2 12 0;
#X connect 9 0 0 2;
#X connect 10 0 0 2;
#X coords 0 438 1 437 190 70 0;
