#N canvas 0 57 1920 1023 10;
#X obj 202 275 line~;
#X obj 384 259 del 3;
#X obj 354 301 line~;
#X obj 164 289 +~;
#X obj 339 545 *~;
#X obj 354 103 > 0;
#X obj 354 124 sel 1 0;
#X obj 354 237 bang;
#X obj 339 587 outlet~;
#X obj 164 268 *~ 1;
#X msg 354 280 0 1;
#X msg 134 224 1000 \$1;
#X obj 134 245 /;
#X obj 12 144 pack f f;
#X obj 12 186 vline~;
#N canvas 4 83 162 227 hv.tanh 0;
#X obj 12 12 inlet~;
#X obj 12 38 clip~ -3 3;
#X obj 27 64 *~;
#X obj 12 192 outlet~;
#X obj 27 140 /~;
#X obj 12 166 *~;
#X obj 67 90 *~ 9;
#X obj 27 90 +~ 27;
#X obj 67 116 +~ 27;
#X connect 0 0 1 0;
#X connect 1 0 2 0;
#X connect 1 0 2 1;
#X connect 1 0 5 0;
#X connect 2 0 7 0;
#X connect 2 0 6 0;
#X connect 4 0 5 1;
#X connect 5 0 3 0;
#X connect 6 0 8 0;
#X connect 7 0 4 0;
#X connect 8 0 4 1;
#X restore 142 459 pd hv.tanh;
#X msg 384 280 1 0;
#X obj 79 68 / 126;
#X obj 52 26 sel 0;
#X obj 79 47 - 1;
#X obj 564 289 +~;
#X obj 564 268 *~ 17;
#X obj 474 206 pack f f;
#X msg 474 227 1 \, 0 \$2;
#X obj 474 248 vline~;
#X msg 569 164 1000 \$1;
#X obj 569 185 /;
#X obj 569 143 * 17;
#X obj 587 315 *~ 800;
#X obj 542 446 *~;
#X obj 373 190 pack f f;
#X msg 557 404 \$1 20;
#X obj 557 425 line~;
#X obj 474 301 hip~ 4000;
#X obj 474 322 hip~ 4000;
#X msg 204 361 \$1 20;
#X obj 204 382 line~;
#X obj 142 396 *~;
#X obj 142 417 -~;
#X msg 249 382 \$1 20;
#X obj 249 403 line~;
#X obj 406 124 r \$1-pdl;
#X obj 373 162 spigot;
#X obj 297 459 *~;
#X msg 353 424 \$1 20;
#X obj 353 445 line~;
#X obj 310 507 hip~ 50;
#X msg 119 82 1 \$1;
#X obj 119 103 -;
#X msg 119 145 2 \$1;
#X obj 119 166 pow;
#X obj 165 4 inlet;
#X obj 166 130 t f b;
#X msg 193 151 clear;
#X obj 542 357 lop~ 500;
#X obj 339 566 *~ 0.5;
#X obj 12 81 t b b;
#X msg 39 102 stop;
#X obj 166 172 pipe 2;
#X obj 202 191 t b b;
#X msg 229 212 stop;
#X obj 202 233 del 2;
#X obj 474 185 del 3;
#X obj 474 143 t b b;
#X msg 501 164 stop;
#X obj 419 145 sel 1;
#X msg 373 211 0 \$2;
#X obj 12 371 *~;
#X obj 474 269 *~;
#X obj 12 266 noise~;
#X msg 12 245 seed 123;
#X obj 12 287 *~ 2;
#X obj 12 308 +~ 0.5;
#X msg 202 254 20000 \, 0 1;
#X obj 57 315 *~;
#X msg 12 166 1 \, 0 \$2;
#X obj 12 123 del 3;
#X obj 12 207 pow~ 0.5;
#X obj 12 329 *~;
#X obj 12 392 lop~;
#X obj 79 378 mtof;
#X obj 296 437 pow~ 10;
#X obj 297 479 *~ -1;
#X obj 74 193 + 0.5;
#X obj 75 173 * 0.5;
#X obj 12 350 *~ 0.5;
#X obj 79 336 * 100;
#X obj 119 124 * -4;
#X obj 353 403 r \$1-buz-lvl;
#X obj 249 361 r \$1-pic-sym;
#X obj 204 340 r \$1-pic-gan;
#X obj 557 383 r \$1-bel-lvl;
#X obj 142 438 lop~;
#X obj 169 418 r \$1-pic-ton;
#X obj 142 480 hip~ 250;
#X obj 142 501 *~;
#X msg 216 466 \$1 20;
#X obj 216 487 line~;
#X obj 216 445 r \$1-pic-lvl;
#X obj 187 315 *~;
#X obj 202 295 r \$1-ton-dec;
#X obj 339 377 *~;
#X obj 388 321 r \$1-ton-lvl;
#X msg 388 342 \$1 20;
#X obj 388 363 line~;
#X obj 418 169 r \$1-snd-ton-rel;
#X obj 79 357 + 20;
#N canvas 900 133 235 129 rbpf~ 0;
#X obj 12 93 outlet~;
#N canvas 674 217 405 205 @hv_obj 0;
#X obj 62 12 inlet~ b0;
#X obj 132 12 inlet~ b1;
#X obj 202 12 inlet~ b2;
#X obj 272 12 inlet~ a1;
#X obj 332 12 inlet~ a2;
#X obj 12 12 inlet~;
#N canvas 677 410 306 397 zeros 0;
#X obj 12 282 czero~;
#X obj 12 329 czero~;
#X obj 12 356 outlet~;
#X obj 75 356 outlet~;
#X obj 62 12 inlet~ b0;
#X obj 132 12 inlet~ b1;
#X obj 202 12 inlet~ b2;
#X obj 12 12 inlet~;
#X obj 47 89 *~ -1;
#X obj 47 111 *~ 0.5;
#X obj 132 117 *~;
#X obj 132 155 -~;
#X obj 187 138 *~ 4;
#X obj 187 116 *~;
#X obj 228 172 abs~;
#X obj 228 216 *~ 0.5;
#X obj 228 238 /~;
#N canvas 773 265 262 212 location 0;
#X obj 12 12 inlet~;
#X obj 62 12 inlet~;
#X obj 207 12 inlet~;
#X obj 12 174 outlet~;
#X obj 72 174 outlet~;
#X obj 132 174 outlet~;
#X obj 192 174 outlet~;
#N canvas 725 189 180 137 gte 0;
#X obj 117 12 inlet~;
#X obj 12 12 inlet~;
#X obj 12 100 outlet~;
#N canvas 758 270 144 76 @hv_obj 0;
#X obj 62 12 inlet~;
#X obj 12 12 inlet~;
#X obj 12 34 outlet~;
#X connect 1 0 2 0;
#X restore 12 78 pd @hv_obj __and~f;
#X obj 117 56 sig~ 1;
#N canvas 945 362 136 178 @hv_obj 0;
#X obj 12 56 -~;
#X obj 12 78 clip~ -1e-37 0;
#X obj 12 12 inlet~;
#X obj 62 12 inlet~;
#X obj 12 144 outlet~;
#X obj 12 122 *~ 1e+37;
#X obj 12 34 min~;
#X obj 12 100 +~ 1e-37;
#X connect 0 0 1 0;
#X connect 1 0 7 0;
#X connect 2 0 6 0;
#X connect 3 0 6 1;
#X connect 3 0 0 1;
#X connect 5 0 4 0;
#X connect 6 0 0 0;
#X connect 7 0 5 0;
#X restore 12 34 pd @hv_obj __gte~f;
#X connect 0 0 5 1;
#X connect 1 0 5 0;
#X connect 3 0 2 0;
#X connect 4 0 3 1;
#X connect 5 0 3 0;
#X restore 62 49 pd gte;
#N canvas 845 375 187 138 lte 0;
#X obj 117 12 inlet~;
#X obj 12 12 inlet~;
#X obj 12 100 outlet~;
#N canvas 467 216 140 82 @hv_obj 0;
#X obj 72 12 inlet~;
#X obj 12 12 inlet~;
#X obj 12 39 outlet~;
#X connect 1 0 2 0;
#X restore 12 78 pd @hv_obj __and~f;
#X obj 117 56 sig~ 1;
#N canvas 715 101 137 184 @hv_obj 0;
#X obj 12 56 -~;
#X obj 12 78 clip~ -1e-37 0;
#X obj 12 12 inlet~;
#X obj 62 12 inlet~;
#X obj 12 144 outlet~;
#X obj 12 122 *~ 1e+37;
#X obj 12 34 min~;
#X obj 12 100 +~ 1e-37;
#X connect 0 0 1 0;
#X connect 1 0 7 0;
#X connect 2 0 6 0;
#X connect 2 0 0 1;
#X connect 3 0 6 1;
#X connect 5 0 4 0;
#X connect 6 0 0 0;
#X connect 7 0 5 0;
#X restore 12 34 pd @hv_obj __lte~f;
#X connect 0 0 5 1;
#X connect 1 0 5 0;
#X connect 3 0 2 0;
#X connect 4 0 3 1;
#X connect 5 0 3 0;
#X restore 127 49 pd lte;
#X obj 12 152 +~;
#X obj 160 22 sig~ 0;
#X obj 147 125 *~;
#X obj 192 125 *~;
#X obj 132 152 -~;
#X obj 192 152 *~ -1;
#X connect 0 0 9 0;
#X connect 0 0 13 0;
#X connect 1 0 7 0;
#X connect 1 0 8 0;
#X connect 2 0 11 1;
#X connect 2 0 12 1;
#X connect 7 0 11 0;
#X connect 8 0 12 0;
#X connect 9 0 3 0;
#X connect 10 0 7 1;
#X connect 10 0 8 1;
#X connect 11 0 9 1;
#X connect 11 0 13 1;
#X connect 12 0 4 0;
#X connect 12 0 14 0;
#X connect 13 0 5 0;
#X connect 14 0 6 0;
#X restore 34 255 pd location;
#X obj 228 194 sqrt~;
#X obj 47 133 /~;
#X connect 0 0 1 0;
#X connect 0 1 1 1;
#X connect 1 0 2 0;
#X connect 1 1 3 0;
#X connect 4 0 13 0;
#X connect 4 0 16 1;
#X connect 4 0 19 1;
#X connect 5 0 8 0;
#X connect 5 0 10 1;
#X connect 5 0 10 0;
#X connect 6 0 13 1;
#X connect 7 0 0 0;
#X connect 8 0 9 0;
#X connect 9 0 19 0;
#X connect 10 0 11 0;
#X connect 11 0 14 0;
#X connect 11 0 17 1;
#X connect 12 0 11 1;
#X connect 13 0 12 0;
#X connect 14 0 18 0;
#X connect 15 0 16 0;
#X connect 16 0 17 2;
#X connect 17 0 0 2;
#X connect 17 1 0 3;
#X connect 17 2 1 2;
#X connect 17 3 1 3;
#X connect 18 0 15 0;
#X connect 19 0 17 0;
#X restore 12 86 pd zeros;
#X obj 12 49 *~;
#N canvas 744 202 254 278 poles 0;
#X obj 12 170 cpole~;
#X obj 12 217 cpole~;
#X obj 12 244 outlet~;
#X obj 12 12 inlet~;
#X obj 62 12 inlet~;
#X obj 112 12 inlet~ a1;
#X obj 182 12 inlet~ a2;
#N canvas 739 258 279 198 location 0;
#X obj 12 12 inlet~;
#X obj 127 12 inlet~;
#X obj 222 49 inlet~;
#X obj 12 155 outlet~;
#X obj 62 155 outlet~;
#X obj 112 155 outlet~;
#X obj 172 155 outlet~;
#N canvas 796 341 183 142 gte 0;
#X obj 117 12 inlet~;
#X obj 12 12 inlet~;
#X obj 12 100 outlet~;
#N canvas 679 326 140 75 @hv_obj 0;
#X obj 72 12 inlet~;
#X obj 12 12 inlet~;
#X obj 12 34 outlet~;
#X connect 1 0 2 0;
#X restore 12 78 pd @hv_obj __and~f;
#X obj 117 56 sig~ 1;
#N canvas 754 439 132 184 @hv_obj 0;
#X obj 12 56 -~;
#X obj 12 78 clip~ -1e-37 0;
#X obj 12 12 inlet~;
#X obj 62 12 inlet~;
#X obj 12 144 outlet~;
#X obj 12 122 *~ 1e+37;
#X obj 12 34 min~;
#X obj 12 100 +~ 1e-37;
#X connect 0 0 1 0;
#X connect 1 0 7 0;
#X connect 2 0 6 0;
#X connect 3 0 6 1;
#X connect 3 0 0 1;
#X connect 5 0 4 0;
#X connect 6 0 0 0;
#X connect 7 0 5 0;
#X restore 12 34 pd @hv_obj __gte~f;
#X connect 0 0 5 1;
#X connect 1 0 5 0;
#X connect 3 0 2 0;
#X connect 4 0 3 1;
#X connect 5 0 3 0;
#X restore 127 39 pd gte;
#N canvas 816 493 187 138 lte 0;
#X obj 117 12 inlet~;
#X obj 12 12 inlet~;
#X obj 12 100 outlet~;
#N canvas 467 216 142 76 @hv_obj 0;
#X obj 72 12 inlet~;
#X obj 12 12 inlet~;
#X obj 12 34 outlet~;
#X connect 1 0 2 0;
#X restore 12 78 pd @hv_obj __and~f;
#X obj 117 56 sig~ 1;
#N canvas 715 101 131 178 @hv_obj 0;
#X obj 12 56 -~;
#X obj 12 78 clip~ -1e-37 0;
#X obj 12 12 inlet~;
#X obj 62 12 inlet~;
#X obj 12 144 outlet~;
#X obj 12 122 *~ 1e+37;
#X obj 12 34 min~;
#X obj 12 100 +~ 1e-37;
#X connect 0 0 1 0;
#X connect 1 0 7 0;
#X connect 2 0 6 0;
#X connect 2 0 0 1;
#X connect 3 0 6 1;
#X connect 5 0 4 0;
#X connect 6 0 0 0;
#X connect 7 0 5 0;
#X restore 12 34 pd @hv_obj __lte~f;
#X connect 0 0 5 1;
#X connect 1 0 5 0;
#X connect 3 0 2 0;
#X connect 4 0 3 1;
#X connect 5 0 3 0;
#X restore 172 39 pd lte;
#X obj 12 83 +~;
#X obj 205 12 sig~ 0;
#X obj 127 66 *~;
#X obj 172 66 *~;
#X obj 112 133 -~;
#X obj 172 133 *~ -1;
#X connect 0 0 9 0;
#X connect 0 0 13 0;
#X connect 1 0 7 0;
#X connect 1 0 8 0;
#X connect 2 0 11 1;
#X connect 2 0 12 1;
#X connect 7 0 11 0;
#X connect 8 0 12 0;
#X connect 9 0 3 0;
#X connect 10 0 7 1;
#X connect 10 0 8 1;
#X connect 11 0 9 1;
#X connect 11 0 13 1;
#X connect 12 0 4 0;
#X connect 12 0 14 0;
#X connect 13 0 5 0;
#X connect 14 0 6 0;
#X restore 34 144 pd location;
#X obj 54 77 *~ 0.5;
#X obj 112 39 *~;
#X obj 112 61 +~;
#X obj 182 44 *~ 4;
#X obj 112 83 abs~;
#X obj 112 127 *~ 0.5;
#X obj 112 105 sqrt~;
#X connect 0 0 1 0;
#X connect 0 1 1 1;
#X connect 1 0 2 0;
#X connect 3 0 0 0;
#X connect 4 0 0 1;
#X connect 5 0 8 0;
#X connect 5 0 9 0;
#X connect 5 0 9 1;
#X connect 6 0 11 0;
#X connect 7 0 0 2;
#X connect 7 1 0 3;
#X connect 7 2 1 2;
#X connect 7 3 1 3;
#X connect 8 0 7 0;
#X connect 9 0 10 0;
#X connect 10 0 7 1;
#X connect 10 0 12 0;
#X connect 11 0 10 1;
#X connect 12 0 14 0;
#X connect 13 0 7 2;
#X connect 14 0 13 0;
#X restore 12 133 pd poles;
#X obj 12 160 outlet~;
#X obj 272 116 *~ -1;
#X obj 332 116 *~ -1;
#X connect 0 0 6 1;
#X connect 0 0 7 1;
#X connect 1 0 6 2;
#X connect 2 0 6 3;
#X connect 3 0 10 0;
#X connect 4 0 11 0;
#X connect 5 0 7 0;
#X connect 6 0 8 0;
#X connect 6 1 8 1;
#X connect 7 0 6 0;
#X connect 8 0 9 0;
#X connect 10 0 8 2;
#X connect 11 0 8 3;
#X restore 12 71 pd @hv_obj biquad;
#X obj 62 12 inlet~ freq;
#X obj 161 12 inlet~ q;
#X obj 12 12 inlet~;
#N canvas 369 210 706 367 bandpass1.coeffs 0;
#X obj 136 19 inlet~ freq;
#X obj 297 57 inlet~ q;
#X obj 136 41 clip~ 20 20000;
#X obj 282 101 sig~ 1;
#X obj 282 123 /~;
#X obj 282 145 *~;
#X obj 282 167 *~ 0.5;
#X obj 11 265 sig~ 1;
#X obj 11 287 /~;
#X obj 121 304 *~;
#X obj 121 326 outlet~ b0;
#X obj 191 326 outlet~ b1;
#X obj 261 304 *~;
#X obj 261 326 outlet~ b2;
#X obj 346 304 *~;
#X obj 361 238 *~ -2;
#X obj 346 326 outlet~ a1;
#X obj 431 238 sig~ 1;
#X obj 431 260 -~;
#X obj 416 304 *~;
#X obj 416 326 outlet~ a2;
#X text 362 169 w0 = 2*pi*f0*Fs;
#X text 362 189 alpha = sin(w0)/(2*Q);
#X text 391 79 H(z) = -----------------------------------------;
#X text 391 39 Audio-Cookbook:;
#X text 391 119 http://musicdsp.org/files/Audio-EQ-Cookbook.txt;
#X text 433 94 1 + (a1/a0)*z^(-1) + (a2/a0)*z^(-2);
#X text 433 64 (b0/a0) + (b1/a0)*z^(-1) + (b2/a0)*z^(-2);
#X obj 191 304 sig~ 0;
#X text 487 235 a0 = 1 + alpha;
#X text 487 315 b1 = 0;
#X text 487 275 a2 = 1 - alpha;
#X text 487 255 a1 = -2*cos(w0);
#X text 487 295 b0 = sin(w0)/2 = Q*alpha;
#X text 487 335 b2 = -sin(w0)/2 = -Q*alpha;
#X text 476 215 BPF: (constant skirt gain);
#X obj 136 270 *~ 0.5;
#X obj 276 260 *~ -0.5;
#X obj 61 273 +~ 1;
#X obj 136 62 /~ 44100;
#X obj 136 83 *~ 65536;
#X obj 297 79 max~ 0.1;
#X obj 36 128 tabread4~ \$1-coswave;
#X obj 156 127 tabread4~ \$1-sinewave;
#X connect 0 0 2 0;
#X connect 1 0 41 0;
#X connect 2 0 39 0;
#X connect 3 0 4 0;
#X connect 4 0 5 0;
#X connect 5 0 6 0;
#X connect 6 0 18 1;
#X connect 6 0 38 0;
#X connect 7 0 8 0;
#X connect 8 0 9 0;
#X connect 8 0 12 0;
#X connect 8 0 14 0;
#X connect 8 0 19 0;
#X connect 9 0 10 0;
#X connect 12 0 13 0;
#X connect 14 0 16 0;
#X connect 15 0 14 1;
#X connect 17 0 18 0;
#X connect 18 0 19 1;
#X connect 19 0 20 0;
#X connect 28 0 11 0;
#X connect 36 0 9 1;
#X connect 37 0 12 1;
#X connect 38 0 8 1;
#X connect 39 0 40 0;
#X connect 40 0 42 0;
#X connect 40 0 43 0;
#X connect 41 0 4 1;
#X connect 42 0 15 0;
#X connect 43 0 5 1;
#X connect 43 0 36 0;
#X connect 43 0 37 0;
#X restore 62 34 pd bandpass1.coeffs;
#X connect 1 0 0 0;
#X connect 2 0 5 0;
#X connect 3 0 5 1;
#X connect 4 0 1 0;
#X connect 5 0 1 1;
#X connect 5 1 1 2;
#X connect 5 2 1 3;
#X connect 5 3 1 4;
#X connect 5 4 1 5;
#X restore 142 336 pd rbpf~;
#N canvas 900 103 235 129 rbpf~ 0;
#X obj 12 93 outlet~;
#N canvas 674 217 405 205 @hv_obj 0;
#X obj 62 12 inlet~ b0;
#X obj 132 12 inlet~ b1;
#X obj 202 12 inlet~ b2;
#X obj 272 12 inlet~ a1;
#X obj 332 12 inlet~ a2;
#X obj 12 12 inlet~;
#N canvas 677 410 306 397 zeros 0;
#X obj 12 282 czero~;
#X obj 12 329 czero~;
#X obj 12 356 outlet~;
#X obj 75 356 outlet~;
#X obj 62 12 inlet~ b0;
#X obj 132 12 inlet~ b1;
#X obj 202 12 inlet~ b2;
#X obj 12 12 inlet~;
#X obj 47 89 *~ -1;
#X obj 47 111 *~ 0.5;
#X obj 132 117 *~;
#X obj 132 155 -~;
#X obj 187 138 *~ 4;
#X obj 187 116 *~;
#X obj 228 172 abs~;
#X obj 228 216 *~ 0.5;
#X obj 228 238 /~;
#N canvas 773 235 262 212 location 0;
#X obj 12 12 inlet~;
#X obj 62 12 inlet~;
#X obj 207 12 inlet~;
#X obj 12 174 outlet~;
#X obj 72 174 outlet~;
#X obj 132 174 outlet~;
#X obj 192 174 outlet~;
#N canvas 725 189 180 137 gte 0;
#X obj 117 12 inlet~;
#X obj 12 12 inlet~;
#X obj 12 100 outlet~;
#N canvas 758 270 144 76 @hv_obj 0;
#X obj 62 12 inlet~;
#X obj 12 12 inlet~;
#X obj 12 34 outlet~;
#X connect 1 0 2 0;
#X restore 12 78 pd @hv_obj __and~f;
#X obj 117 56 sig~ 1;
#N canvas 945 362 136 178 @hv_obj 0;
#X obj 12 56 -~;
#X obj 12 78 clip~ -1e-37 0;
#X obj 12 12 inlet~;
#X obj 62 12 inlet~;
#X obj 12 144 outlet~;
#X obj 12 122 *~ 1e+37;
#X obj 12 34 min~;
#X obj 12 100 +~ 1e-37;
#X connect 0 0 1 0;
#X connect 1 0 7 0;
#X connect 2 0 6 0;
#X connect 3 0 6 1;
#X connect 3 0 0 1;
#X connect 5 0 4 0;
#X connect 6 0 0 0;
#X connect 7 0 5 0;
#X restore 12 34 pd @hv_obj __gte~f;
#X connect 0 0 5 1;
#X connect 1 0 5 0;
#X connect 3 0 2 0;
#X connect 4 0 3 1;
#X connect 5 0 3 0;
#X restore 62 49 pd gte;
#N canvas 845 375 187 138 lte 0;
#X obj 117 12 inlet~;
#X obj 12 12 inlet~;
#X obj 12 100 outlet~;
#N canvas 467 216 140 82 @hv_obj 0;
#X obj 72 12 inlet~;
#X obj 12 12 inlet~;
#X obj 12 39 outlet~;
#X connect 1 0 2 0;
#X restore 12 78 pd @hv_obj __and~f;
#X obj 117 56 sig~ 1;
#N canvas 715 101 137 184 @hv_obj 0;
#X obj 12 56 -~;
#X obj 12 78 clip~ -1e-37 0;
#X obj 12 12 inlet~;
#X obj 62 12 inlet~;
#X obj 12 144 outlet~;
#X obj 12 122 *~ 1e+37;
#X obj 12 34 min~;
#X obj 12 100 +~ 1e-37;
#X connect 0 0 1 0;
#X connect 1 0 7 0;
#X connect 2 0 6 0;
#X connect 2 0 0 1;
#X connect 3 0 6 1;
#X connect 5 0 4 0;
#X connect 6 0 0 0;
#X connect 7 0 5 0;
#X restore 12 34 pd @hv_obj __lte~f;
#X connect 0 0 5 1;
#X connect 1 0 5 0;
#X connect 3 0 2 0;
#X connect 4 0 3 1;
#X connect 5 0 3 0;
#X restore 127 49 pd lte;
#X obj 12 152 +~;
#X obj 160 22 sig~ 0;
#X obj 147 125 *~;
#X obj 192 125 *~;
#X obj 132 152 -~;
#X obj 192 152 *~ -1;
#X connect 0 0 9 0;
#X connect 0 0 13 0;
#X connect 1 0 7 0;
#X connect 1 0 8 0;
#X connect 2 0 11 1;
#X connect 2 0 12 1;
#X connect 7 0 11 0;
#X connect 8 0 12 0;
#X connect 9 0 3 0;
#X connect 10 0 7 1;
#X connect 10 0 8 1;
#X connect 11 0 9 1;
#X connect 11 0 13 1;
#X connect 12 0 4 0;
#X connect 12 0 14 0;
#X connect 13 0 5 0;
#X connect 14 0 6 0;
#X restore 34 255 pd location;
#X obj 228 194 sqrt~;
#X obj 47 133 /~;
#X connect 0 0 1 0;
#X connect 0 1 1 1;
#X connect 1 0 2 0;
#X connect 1 1 3 0;
#X connect 4 0 13 0;
#X connect 4 0 16 1;
#X connect 4 0 19 1;
#X connect 5 0 8 0;
#X connect 5 0 10 1;
#X connect 5 0 10 0;
#X connect 6 0 13 1;
#X connect 7 0 0 0;
#X connect 8 0 9 0;
#X connect 9 0 19 0;
#X connect 10 0 11 0;
#X connect 11 0 14 0;
#X connect 11 0 17 1;
#X connect 12 0 11 1;
#X connect 13 0 12 0;
#X connect 14 0 18 0;
#X connect 15 0 16 0;
#X connect 16 0 17 2;
#X connect 17 0 0 2;
#X connect 17 1 0 3;
#X connect 17 2 1 2;
#X connect 17 3 1 3;
#X connect 18 0 15 0;
#X connect 19 0 17 0;
#X restore 12 86 pd zeros;
#X obj 12 49 *~;
#N canvas 744 232 254 278 poles 0;
#X obj 12 170 cpole~;
#X obj 12 217 cpole~;
#X obj 12 244 outlet~;
#X obj 12 12 inlet~;
#X obj 62 12 inlet~;
#X obj 112 12 inlet~ a1;
#X obj 182 12 inlet~ a2;
#N canvas 739 288 279 198 location 0;
#X obj 12 12 inlet~;
#X obj 127 12 inlet~;
#X obj 222 49 inlet~;
#X obj 12 155 outlet~;
#X obj 62 155 outlet~;
#X obj 112 155 outlet~;
#X obj 172 155 outlet~;
#N canvas 796 371 183 142 gte 0;
#X obj 117 12 inlet~;
#X obj 12 12 inlet~;
#X obj 12 100 outlet~;
#N canvas 679 326 140 75 @hv_obj 0;
#X obj 72 12 inlet~;
#X obj 12 12 inlet~;
#X obj 12 34 outlet~;
#X connect 1 0 2 0;
#X restore 12 78 pd @hv_obj __and~f;
#X obj 117 56 sig~ 1;
#N canvas 754 499 132 184 @hv_obj 0;
#X obj 12 56 -~;
#X obj 12 78 clip~ -1e-37 0;
#X obj 12 12 inlet~;
#X obj 62 12 inlet~;
#X obj 12 144 outlet~;
#X obj 12 122 *~ 1e+37;
#X obj 12 34 min~;
#X obj 12 100 +~ 1e-37;
#X connect 0 0 1 0;
#X connect 1 0 7 0;
#X connect 2 0 6 0;
#X connect 3 0 6 1;
#X connect 3 0 0 1;
#X connect 5 0 4 0;
#X connect 6 0 0 0;
#X connect 7 0 5 0;
#X restore 12 34 pd @hv_obj __gte~f;
#X connect 0 0 5 1;
#X connect 1 0 5 0;
#X connect 3 0 2 0;
#X connect 4 0 3 1;
#X connect 5 0 3 0;
#X restore 127 39 pd gte;
#N canvas 816 493 187 138 lte 0;
#X obj 117 12 inlet~;
#X obj 12 12 inlet~;
#X obj 12 100 outlet~;
#N canvas 467 216 142 76 @hv_obj 0;
#X obj 72 12 inlet~;
#X obj 12 12 inlet~;
#X obj 12 34 outlet~;
#X connect 1 0 2 0;
#X restore 12 78 pd @hv_obj __and~f;
#X obj 117 56 sig~ 1;
#N canvas 715 101 131 178 @hv_obj 0;
#X obj 12 56 -~;
#X obj 12 78 clip~ -1e-37 0;
#X obj 12 12 inlet~;
#X obj 62 12 inlet~;
#X obj 12 144 outlet~;
#X obj 12 122 *~ 1e+37;
#X obj 12 34 min~;
#X obj 12 100 +~ 1e-37;
#X connect 0 0 1 0;
#X connect 1 0 7 0;
#X connect 2 0 6 0;
#X connect 2 0 0 1;
#X connect 3 0 6 1;
#X connect 5 0 4 0;
#X connect 6 0 0 0;
#X connect 7 0 5 0;
#X restore 12 34 pd @hv_obj __lte~f;
#X connect 0 0 5 1;
#X connect 1 0 5 0;
#X connect 3 0 2 0;
#X connect 4 0 3 1;
#X connect 5 0 3 0;
#X restore 172 39 pd lte;
#X obj 12 83 +~;
#X obj 205 12 sig~ 0;
#X obj 127 66 *~;
#X obj 172 66 *~;
#X obj 112 133 -~;
#X obj 172 133 *~ -1;
#X connect 0 0 9 0;
#X connect 0 0 13 0;
#X connect 1 0 7 0;
#X connect 1 0 8 0;
#X connect 2 0 11 1;
#X connect 2 0 12 1;
#X connect 7 0 11 0;
#X connect 8 0 12 0;
#X connect 9 0 3 0;
#X connect 10 0 7 1;
#X connect 10 0 8 1;
#X connect 11 0 9 1;
#X connect 11 0 13 1;
#X connect 12 0 4 0;
#X connect 12 0 14 0;
#X connect 13 0 5 0;
#X connect 14 0 6 0;
#X restore 34 144 pd location;
#X obj 54 77 *~ 0.5;
#X obj 112 39 *~;
#X obj 112 61 +~;
#X obj 182 44 *~ 4;
#X obj 112 83 abs~;
#X obj 112 127 *~ 0.5;
#X obj 112 105 sqrt~;
#X connect 0 0 1 0;
#X connect 0 1 1 1;
#X connect 1 0 2 0;
#X connect 3 0 0 0;
#X connect 4 0 0 1;
#X connect 5 0 8 0;
#X connect 5 0 9 0;
#X connect 5 0 9 1;
#X connect 6 0 11 0;
#X connect 7 0 0 2;
#X connect 7 1 0 3;
#X connect 7 2 1 2;
#X connect 7 3 1 3;
#X connect 8 0 7 0;
#X connect 9 0 10 0;
#X connect 10 0 7 1;
#X connect 10 0 12 0;
#X connect 11 0 10 1;
#X connect 12 0 14 0;
#X connect 13 0 7 2;
#X connect 14 0 13 0;
#X restore 12 133 pd poles;
#X obj 12 160 outlet~;
#X obj 272 116 *~ -1;
#X obj 332 116 *~ -1;
#X connect 0 0 6 1;
#X connect 0 0 7 1;
#X connect 1 0 6 2;
#X connect 2 0 6 3;
#X connect 3 0 10 0;
#X connect 4 0 11 0;
#X connect 5 0 7 0;
#X connect 6 0 8 0;
#X connect 6 1 8 1;
#X connect 7 0 6 0;
#X connect 8 0 9 0;
#X connect 10 0 8 2;
#X connect 11 0 8 3;
#X restore 12 71 pd @hv_obj biquad;
#X obj 62 12 inlet~ freq;
#X obj 161 12 inlet~ q;
#X obj 12 12 inlet~;
#N canvas 61 155 706 367 bandpass1.coeffs 0;
#X obj 136 19 inlet~ freq;
#X obj 297 57 inlet~ q;
#X obj 136 41 clip~ 20 20000;
#X obj 282 101 sig~ 1;
#X obj 282 123 /~;
#X obj 282 145 *~;
#X obj 282 167 *~ 0.5;
#X obj 11 265 sig~ 1;
#X obj 11 287 /~;
#X obj 121 304 *~;
#X obj 121 326 outlet~ b0;
#X obj 191 326 outlet~ b1;
#X obj 261 304 *~;
#X obj 261 326 outlet~ b2;
#X obj 346 304 *~;
#X obj 361 238 *~ -2;
#X obj 346 326 outlet~ a1;
#X obj 431 238 sig~ 1;
#X obj 431 260 -~;
#X obj 416 304 *~;
#X obj 416 326 outlet~ a2;
#X text 362 169 w0 = 2*pi*f0*Fs;
#X text 362 189 alpha = sin(w0)/(2*Q);
#X text 391 79 H(z) = -----------------------------------------;
#X text 391 39 Audio-Cookbook:;
#X text 391 119 http://musicdsp.org/files/Audio-EQ-Cookbook.txt;
#X text 433 94 1 + (a1/a0)*z^(-1) + (a2/a0)*z^(-2);
#X text 433 64 (b0/a0) + (b1/a0)*z^(-1) + (b2/a0)*z^(-2);
#X obj 191 304 sig~ 0;
#X text 487 235 a0 = 1 + alpha;
#X text 487 315 b1 = 0;
#X text 487 275 a2 = 1 - alpha;
#X text 487 255 a1 = -2*cos(w0);
#X text 487 295 b0 = sin(w0)/2 = Q*alpha;
#X text 487 335 b2 = -sin(w0)/2 = -Q*alpha;
#X text 476 215 BPF: (constant skirt gain);
#X obj 136 270 *~ 0.5;
#X obj 276 260 *~ -0.5;
#X obj 61 273 +~ 1;
#X obj 136 62 /~ 44100;
#X obj 136 83 *~ 65536;
#X obj 297 79 max~ 0.1;
#X obj 36 128 tabread4~ \$1-coswave;
#X obj 156 128 tabread4~ \$1-sinewave;
#X connect 0 0 2 0;
#X connect 1 0 41 0;
#X connect 2 0 39 0;
#X connect 3 0 4 0;
#X connect 4 0 5 0;
#X connect 5 0 6 0;
#X connect 6 0 18 1;
#X connect 6 0 38 0;
#X connect 7 0 8 0;
#X connect 8 0 9 0;
#X connect 8 0 12 0;
#X connect 8 0 14 0;
#X connect 8 0 19 0;
#X connect 9 0 10 0;
#X connect 12 0 13 0;
#X connect 14 0 16 0;
#X connect 15 0 14 1;
#X connect 17 0 18 0;
#X connect 18 0 19 1;
#X connect 19 0 20 0;
#X connect 28 0 11 0;
#X connect 36 0 9 1;
#X connect 37 0 12 1;
#X connect 38 0 8 1;
#X connect 39 0 40 0;
#X connect 40 0 42 0;
#X connect 40 0 43 0;
#X connect 41 0 4 1;
#X connect 42 0 15 0;
#X connect 43 0 5 1;
#X connect 43 0 36 0;
#X connect 43 0 37 0;
#X restore 62 34 pd bandpass1.coeffs;
#X connect 1 0 0 0;
#X connect 2 0 5 0;
#X connect 3 0 5 1;
#X connect 4 0 1 0;
#X connect 5 0 1 1;
#X connect 5 1 1 2;
#X connect 5 2 1 3;
#X connect 5 3 1 4;
#X connect 5 4 1 5;
#X restore 542 336 pd rbpf~;
#X obj 165 27 unpack f f;
#X obj 283 65 t f f;
#X obj 166 53 mtof;
#X obj 507 38 switch~;
#X msg 471 19 1;
#X obj 511 77 delay;
#X msg 464 61 stop;
#X msg 511 100 0;
#X obj 95 597 print f;
#X connect 0 0 20 1;
#X connect 0 0 3 1;
#X connect 1 0 16 0;
#X connect 2 0 4 1;
#X connect 2 0 28 0;
#X connect 2 0 74 1;
#X connect 2 0 99 0;
#X connect 3 0 107 1;
#X connect 4 0 55 0;
#X connect 5 0 6 0;
#X connect 6 0 7 0;
#X connect 6 0 56 0;
#X connect 6 0 59 0;
#X connect 6 0 63 0;
#X connect 6 0 113 0;
#X connect 6 0 115 0;
#X connect 6 1 42 0;
#X connect 7 0 10 0;
#X connect 7 0 1 0;
#X connect 9 0 3 0;
#X connect 10 0 2 0;
#X connect 11 0 12 0;
#X connect 12 0 13 1;
#X connect 13 0 75 0;
#X connect 14 0 77 0;
#X connect 15 0 81 0;
#X connect 15 0 94 0;
#X connect 16 0 2 0;
#X connect 17 0 47 0;
#X connect 17 0 86 0;
#X connect 18 1 19 0;
#X connect 19 0 17 0;
#X connect 20 0 108 1;
#X connect 21 0 20 0;
#X connect 22 0 23 0;
#X connect 23 0 24 0;
#X connect 24 0 68 0;
#X connect 25 0 26 0;
#X connect 26 0 22 1;
#X connect 27 0 25 0;
#X connect 28 0 108 2;
#X connect 29 0 4 0;
#X connect 30 0 66 0;
#X connect 31 0 32 0;
#X connect 32 0 29 1;
#X connect 33 0 34 0;
#X connect 34 0 108 0;
#X connect 35 0 36 0;
#X connect 36 0 37 1;
#X connect 37 0 38 0;
#X connect 38 0 92 0;
#X connect 39 0 40 0;
#X connect 40 0 38 1;
#X connect 41 0 42 1;
#X connect 41 0 65 0;
#X connect 42 0 30 0;
#X connect 42 0 114 0;
#X connect 43 0 82 0;
#X connect 44 0 45 0;
#X connect 45 0 43 1;
#X connect 46 0 4 0;
#X connect 47 0 48 0;
#X connect 48 0 84 0;
#X connect 48 0 87 0;
#X connect 49 0 50 0;
#X connect 50 0 67 1;
#X connect 50 0 68 1;
#X connect 51 0 109 0;
#X connect 52 0 58 0;
#X connect 52 1 53 0;
#X connect 53 0 58 0;
#X connect 54 0 29 0;
#X connect 55 0 8 0;
#X connect 56 0 76 0;
#X connect 56 1 57 0;
#X connect 57 0 76 0;
#X connect 58 0 9 0;
#X connect 58 0 11 0;
#X connect 58 0 27 0;
#X connect 58 0 21 0;
#X connect 59 0 61 0;
#X connect 59 1 60 0;
#X connect 60 0 61 0;
#X connect 61 0 73 0;
#X connect 62 0 22 0;
#X connect 63 0 62 0;
#X connect 63 1 64 0;
#X connect 64 0 62 0;
#X connect 65 0 30 0;
#X connect 66 0 2 0;
#X connect 67 0 79 0;
#X connect 68 0 33 0;
#X connect 69 0 71 0;
#X connect 70 0 69 0;
#X connect 71 0 72 0;
#X connect 72 0 78 0;
#X connect 73 0 0 0;
#X connect 74 0 78 1;
#X connect 74 0 85 0;
#X connect 75 0 14 0;
#X connect 76 0 13 0;
#X connect 76 0 70 0;
#X connect 77 0 74 0;
#X connect 78 0 85 0;
#X connect 79 0 107 0;
#X connect 80 0 79 1;
#X connect 81 0 43 0;
#X connect 82 0 46 0;
#X connect 83 0 77 1;
#X connect 84 0 83 0;
#X connect 85 0 67 0;
#X connect 86 0 106 0;
#X connect 87 0 49 0;
#X connect 88 0 44 0;
#X connect 89 0 39 0;
#X connect 90 0 35 0;
#X connect 91 0 31 0;
#X connect 92 0 15 0;
#X connect 93 0 92 1;
#X connect 94 0 95 0;
#X connect 95 0 4 0;
#X connect 96 0 97 0;
#X connect 97 0 95 1;
#X connect 98 0 96 0;
#X connect 99 0 107 2;
#X connect 100 0 99 1;
#X connect 101 0 4 0;
#X connect 102 0 103 0;
#X connect 103 0 104 0;
#X connect 104 0 101 1;
#X connect 105 0 30 1;
#X connect 105 0 114 1;
#X connect 106 0 80 0;
#X connect 107 0 37 0;
#X connect 107 0 101 0;
#X connect 108 0 54 0;
#X connect 109 0 111 0;
#X connect 109 1 110 0;
#X connect 110 0 18 0;
#X connect 110 1 5 0;
#X connect 111 0 52 0;
#X connect 113 0 112 0;
#X connect 114 0 116 0;
#X connect 115 0 114 0;
#X connect 116 0 112 0;
