#N canvas 159 67 1497 601 10;
#X declare -lib ofelia;
#X declare -path pdr/core/fid_abs_vanilia-0.4;
#X declare -path pdr/core;
#X declare -path pdr/core/stuff;
#X declare -path pdr/core/rj;
#X obj 101 101 cnv 15 188 68 \$0-background \$0-background-rcv data_ofelia-0
0 7 0 14 -262144 -1 0;
#X obj 101 101 cnv 15 188 68 \$0-background \$0-background-rcv data_ofelia-0
0 7 0 14 -262144 -1 0;
#X obj 29 257 inlet~;
#X obj 108 257 inlet~;
#X obj 28 284 outlet~;
#X obj 108 284 outlet~;
#X obj 169 257 inlet data;
#X obj 169 284 outlet data;
#X obj 359 348 module_loader data_ofelia \$0 \$1;
#N canvas 737 285 926 612 stuff 0;
#X obj 742 91 ofWindow;
#N canvas 515 50 600 691 related_getter_objects 0;
#X obj 30 32 bng 15 250 50 0 empty empty empty 17 7 0 10 -262144 -1
-1;
#X msg 30 248 0 0;
#X msg 65 248 0 49;
#X msg 107 248 0 50;
#X floatatom 30 295 5 0 0 0 - - -;
#X obj 30 319 bng 15 250 50 0 empty empty empty 17 7 0 10 -262144 -1
-1;
#X obj 30 365 print;
#X obj 30 392 bng 15 250 50 0 empty empty empty 17 7 0 10 -262144 -1
-1;
#X obj 30 438 print;
#X obj 30 465 bng 15 250 50 0 empty empty empty 17 7 0 10 -262144 -1
-1;
#X floatatom 30 78 5 0 0 0 - - -;
#X text 72 78 0: not exists \, 1: exists.;
#X text 76 294 0: not inside \, 1: inside.;
#X text 53 31 check if the polyline2d variable name exists or not.
;
#X obj 30 273 ofIsPointInsidePolyline2d @myPolyline2d;
#X obj 30 343 ofGetPolyline2dCommand @myPolyline2d[1];
#X obj 30 416 ofGetPolyline2dCommands @myPolyline2d;
#X obj 30 489 ofGetPolyline2dBoundingBox @myPolyline2d;
#X text 146 248 check if a 2d point is within a closed polyline2d.
;
#X text 53 318 get a polyline2d command at the index "1".;
#X text 53 391 get all polyline2d commands as a list.;
#X obj 30 102 bng 15 250 50 0 empty empty empty 17 7 0 10 -262144 -1
-1;
#X obj 30 148 print;
#X obj 30 175 bng 15 250 50 0 empty empty empty 17 7 0 10 -262144 -1
-1;
#X obj 30 221 print;
#X text 53 101 get a polyline2d point at the index "1". (starting from
"0");
#X text 53 174 get all polyline2d points as a list.;
#X obj 30 126 ofGetPolyline2dPoint @myPolyline2d[1];
#X obj 30 199 ofGetPolyline2dPoints @myPolyline2d;
#X obj 30 511 print;
#X obj 30 538 bng 15 250 50 0 empty empty empty 17 7 0 10 -262144 -1
-1;
#X obj 30 584 print;
#X obj 30 562 ofGetPolyline2dCentroid @myPolyline2d;
#X obj 30 611 bng 15 250 50 0 empty empty empty 17 7 0 10 -262144 -1
-1;
#X obj 30 657 print;
#X obj 30 635 ofGetPolyline2dArea @myPolyline2d;
#X text 53 537 get the center position of the polyline2d area.;
#X text 53 610 get the precise area of the polyline2d.;
#X obj 30 684 bng 15 250 50 0 empty empty empty 17 7 0 10 -262144 -1
-1;
#X obj 30 730 print;
#X obj 30 708 ofGetPolyline2dPerimeter @myPolyline2d;
#X text 53 683 get the size of the perimeter of the polyline2d.;
#X text 53 464 get the dimensions of the polyline2d bounding box.;
#X obj 30 56 ofDoesPolyline2dNameExist @myPolyline2d;
#X connect 0 0 43 0;
#X connect 1 0 14 0;
#X connect 2 0 14 0;
#X connect 3 0 14 0;
#X connect 5 0 15 0;
#X connect 7 0 16 0;
#X connect 9 0 17 0;
#X connect 14 0 4 0;
#X connect 15 0 6 0;
#X connect 16 0 8 0;
#X connect 17 0 29 0;
#X connect 21 0 27 0;
#X connect 23 0 28 0;
#X connect 27 0 22 0;
#X connect 28 0 24 0;
#X connect 30 0 32 0;
#X connect 32 0 31 0;
#X connect 33 0 35 0;
#X connect 35 0 34 0;
#X connect 38 0 40 0;
#X connect 40 0 39 0;
#X connect 43 0 10 0;
#X restore 470 23 pd related_getter_objects;
#X msg 112 180 add lineTo \$1 \$2;
#X obj 145 69 route 1;
#X obj 40 74 route 1 3;
#X obj 220 199 route 1;
#X msg 125 241 0;
#X obj 261 284 spigot;
#X obj 134 289 f;
#X obj 175 288 + 1;
#X text 183 344 reset;
#X msg 680 88 create;
#X msg 87 350 all reset;
#X obj 677 29 inlet;
#X msg 439 422 all active \$1;
#X obj 452 383 tgl 15 0 empty empty empty 17 7 0 10 -262144 -1 -1 0
1;
#X obj 742 116 ofClear 100;
#X obj 677 51 select 1 0;
#X obj 182 557 s CYCLOGROOVE;
#X obj 55 427 list prepend 0;
#X msg 290 312 add close;
#X obj 212 254 t b b b;
#X msg 237 314 done;
#X obj 314 61 inlet close_contours;
#X obj 55 530 list split 1;
#X obj 126 573 list trim;
#X obj 448 222 r TO_VIDEO;
#X obj 448 244 route CYCLO;
#X obj 448 266 route blob;
#X obj 175 310 mod 8;
#X obj 185 426 list prepend 0;
#X msg 8 168 add moveTo \$1 \$2;
#X obj 24 340 t a b;
#X msg 191 395 reset;
#X obj 544 86 inlet;
#X obj 544 108 spigot;
#X obj 51 43 ofMouseListener, f 23;
#X obj 657 299 ofKeyListener;
#X obj 657 321 route 1;
#X obj 667 366 moses 257;
#X obj 667 468 - 257;
#X msg 665 497 \$1 switch;
#X obj 667 388 select 127;
#X obj 731 397 moses 272;
#X obj 807 179 ofKeyListener;
#X obj 807 201 route 1;
#X msg 815 437 \$1 switch;
#X obj 753 227 select 127;
#X text 769 317 suppr;
#X obj 869 234 select 38 233 34 39 40 167 232 33;
#X msg 839 297 0;
#X msg 880 311 1;
#X msg 922 345 2;
#X msg 982 356 3;
#X msg 1033 330 4;
#X msg 1097 327 5;
#X msg 1158 321 6;
#X msg 1204 312 7;
#X obj 797 41 loadbang;
#X obj 797 64 delay 100;
#X msg 797 87 destroy;
#X obj 55 508 clone 8 data_ofelia/PolylineBrowser \$0;
#X connect 0 0 16 0;
#X connect 2 0 19 0;
#X connect 3 0 2 0;
#X connect 4 0 31 0;
#X connect 4 1 6 0;
#X connect 5 0 21 0;
#X connect 6 0 8 1;
#X connect 6 0 12 0;
#X connect 6 0 19 1;
#X connect 7 0 20 0;
#X connect 8 0 9 0;
#X connect 9 0 29 0;
#X connect 11 0 0 0;
#X connect 12 0 61 1;
#X connect 13 0 17 0;
#X connect 13 0 35 1;
#X connect 13 0 15 0;
#X connect 14 0 61 1;
#X connect 15 0 14 0;
#X connect 17 0 11 0;
#X connect 19 0 61 0;
#X connect 20 0 19 0;
#X connect 21 0 8 0;
#X connect 21 1 22 0;
#X connect 21 2 7 0;
#X connect 22 0 19 0;
#X connect 23 0 7 1;
#X connect 24 1 25 0;
#X connect 25 0 18 0;
#X connect 26 0 27 0;
#X connect 27 0 28 0;
#X connect 28 0 61 1;
#X connect 29 0 19 1;
#X connect 29 0 8 1;
#X connect 29 0 30 1;
#X connect 30 0 61 1;
#X connect 31 0 32 0;
#X connect 32 0 19 0;
#X connect 32 1 33 0;
#X connect 33 0 30 0;
#X connect 34 0 35 0;
#X connect 35 0 15 0;
#X connect 36 0 4 0;
#X connect 36 1 3 0;
#X connect 36 2 5 0;
#X connect 37 0 38 0;
#X connect 38 0 39 0;
#X connect 39 0 42 0;
#X connect 39 1 43 0;
#X connect 40 0 41 0;
#X connect 41 0 61 1;
#X connect 42 0 6 0;
#X connect 43 0 40 0;
#X connect 44 0 45 0;
#X connect 45 0 47 0;
#X connect 46 0 41 0;
#X connect 47 1 49 0;
#X connect 49 0 50 0;
#X connect 49 1 51 0;
#X connect 49 2 52 0;
#X connect 49 3 53 0;
#X connect 49 4 54 0;
#X connect 49 5 55 0;
#X connect 49 6 56 0;
#X connect 49 7 57 0;
#X connect 50 0 46 0;
#X connect 51 0 46 0;
#X connect 52 0 46 0;
#X connect 53 0 46 0;
#X connect 54 0 46 0;
#X connect 55 0 46 0;
#X connect 56 0 46 0;
#X connect 57 0 46 0;
#X connect 58 0 59 0;
#X connect 59 0 60 0;
#X connect 60 0 0 0;
#X connect 61 0 24 0;
#X restore 128 196 pd stuff;
#X obj 260 140 tgl 30 0 empty empty empty 17 7 0 10 -262144 -1 -1 1
1;
#X obj 487 74 r \$0-busy;
#X msg 487 96 set \$1;
#X obj 247 213 s \$0-busy;
#X text 512 294 cogx cogy width height angle (Area IsHole Perimeter).....
;
#X obj 467 126 r \$0-busy;
#X text 485 277 container_params :;
#X obj 468 148 select 1 0;
#X msg 585 190 source off;
#X obj 374 434 route off listen_to_tracker params;
#X text 399 414 pas la peine de l'implementer;
#X obj 130 140 tgl 30 0 empty empty empty 17 7 0 10 -262144 -1 -1 0
1;
#X text 228 116 enable;
#X text 108 122 close contours;
#X obj 22 407 r CYCLOGROOVE;
#X obj 22 429 print CYCLOGROOVE;
#X msg 500 220 source listen_to_tracker \$1;
#X obj 502 194 f \$0;
#X obj 468 170 t b b;
#X msg 443 257 source params 160 120 320 240 0 76800 0 1120;
#X obj 693 88 unpack f f;
#X floatatom 693 123 5 0 0 0 - - -;
#X floatatom 750 153 5 0 0 0 - - -;
#X obj 796 33 ofKeyListener;
#X text 791 152 key code.;
#X text 731 122 key state. (0: released \, 1: pressed);
#X obj 796 55 route 1;
#X obj 796 77 select 32;
#X obj 829 217 route spacebar;
#X msg 796 99 spacebar;
#X obj 903 94 s TRANSPORT;
#X msg 212 197 1;
#X obj 337 170 r PLAY;
#X obj 53 25 ofLoadFont \; \$0-myFonts \; data_ofelia/DejaVuSansMono.ttf
24 \;;
#X obj 1117 80 declare -lib ofelia;
#X obj 1115 56 declare -path pdr/core/fid_abs_vanilia-0.4;
#X obj 1158 316 namecanvas \$0-this;
#X obj 1156 293 triggered_loadbang \$0-this;
#X text 1151 243 manually trigger loadbang if the instance of abstraction
is created dynamically, f 29;
#X obj 1134 156 declare -path pdr/core;
#X obj 1134 179 declare -path pdr/core/stuff;
#X obj 1134 208 declare -path pdr/core/rj;
#X obj 568 320 savestate;
#X connect 2 0 4 0;
#X connect 3 0 5 0;
#X connect 6 0 7 0;
#X connect 8 1 52 0;
#X connect 10 0 9 2;
#X connect 10 0 13 0;
#X connect 11 0 12 0;
#X connect 12 0 10 0;
#X connect 15 0 17 0;
#X connect 17 0 28 0;
#X connect 17 1 18 0;
#X connect 18 0 7 0;
#X connect 21 0 9 0;
#X connect 26 0 7 0;
#X connect 27 0 26 0;
#X connect 28 0 29 0;
#X connect 28 1 27 0;
#X connect 29 0 7 0;
#X connect 30 0 31 0;
#X connect 30 1 32 0;
#X connect 33 0 30 0;
#X connect 33 0 36 0;
#X connect 36 0 37 0;
#X connect 37 0 39 0;
#X connect 39 0 40 0;
#X connect 41 0 9 1;
#X connect 42 0 41 0;
#X connect 52 0 8 1;
#X connect 52 1 8 2;
#X coords 0 -1 1 1 190 70 1 100 100;
