#N canvas 170 334 981 595 10;
#X declare -path ../../core;
#X declare -path ../../core/stuff;
#X declare -path ../../core/rj;
#X obj 450 150 route note;
#X obj 626 231 u_dispatch \$0 vol;
#N canvas 0 50 494 446 vol 0;
#X obj -3 -16 inlet~;
#X obj 79 335 outlet~;
#X obj 155 332 outlet~;
#X obj 90 47 dbtorms;
#X text 159 13 Vol (0-127);
#X obj 34 139 *~;
#X obj 50 -14 inlet~;
#X obj 74 147 *~;
#X obj 184 -12 r \$0-vol;
#X obj 80 98 lop~ 5;
#X floatatom 144 77 5 0 0 0 - - -;
#X connect 0 0 5 0;
#X connect 3 0 9 0;
#X connect 3 0 10 0;
#X connect 5 0 1 0;
#X connect 6 0 7 0;
#X connect 7 0 2 0;
#X connect 8 0 3 0;
#X connect 9 0 5 1;
#X connect 9 0 7 1;
#X restore 127 372 pd vol;
#X obj 72 460 outlet~;
#X obj 206 469 outlet~;
#X obj 488 110 inlet data;
#X obj 358 529 outlet data;
#X obj 101 101 cnv 15 188 68 \$0-background \$0-background-rcv inst_piano-0
0 7 0 14 -262144 -1 0;
#X obj 252 115 ui_vs \$0 vol 0 127;
#X obj 771 99 namecanvas \$0-this;
#X obj 769 76 triggered_loadbang \$0-this;
#X text 764 26 manually trigger loadbang if the instance of abstraction
is created dynamically, f 29;
#X obj 755 160 savestate;
#X obj 574 8 declare -path ../../core;
#X obj 574 28 declare -path ../../core/stuff;
#X obj 574 48 declare -path ../../core/rj;
#X obj 624 200 module_loader inst_piano \$0 \$1;
#X obj 93 307 vstplugin~ -k;
#A open -e /home/jyg/Documents/Pd/externals/pdr/medias/sounds/SFZero.so
;
#A program_set 0;
#A program_data_set 67 99 110 75 0 0 0 224 70 80 67 104 0 0 0 1 83
70 90 48 0 1 0 0 0 0 0 0 0 0 0 0 0 0 0 0 0 0 0 0 0 0 0 0 0 0 0 0 0
0 0 0 0 0 0 0 0 0 0 172 123 13 10 32 32 34 115 102 122 70 105 108 101
80 97 116 104 34 58 32 34 47 104 111 109 101 47 106 121 103 47 68 111
99 117 109 101 110 116 115 47 80 100 47 101 120 116 101 114 110 97
108 115 47 112 100 114 47 109 101 100 105 97 115 47 115 111 117 110
100 115 47 115 111 117 110 100 102 111 110 116 115 47 83 97 108 97
109 97 110 100 101 114 71 114 97 110 100 80 105 97 110 111 86 51 47
83 97 108 97 109 97 110 100 101 114 71 114 97 110 100 80 105 97 110
111 86 51 95 52 52 46 49 107 104 122 49 54 98 105 116 47 83 97 108
97 109 97 110 100 101 114 71 114 97 110 100 80 105 97 110 111 86 51
46 115 102 122 34 13 10 125;
#X obj 52 219 inlet~;
#X obj 224 213 inlet~;
#N canvas 261 35 548 714 open 0;
#X obj 62 530 bng 15 250 50 0 empty empty empty 17 7 0 10 -262144 -1
-1;
#X obj 62 551 openpanel;
#X obj 27 189 bng 15 250 50 0 empty empty empty 17 7 0 10 -262144 -1
-1;
#X obj 27 209 openpanel;
#X obj 27 648 t a;
#X msg 27 254 open -e \$1;
#N canvas 582 228 451 307 editor 0;
#X text 10 120 on MacOS \, however \, because of technical limitations
the GUI must run on the main thread - which happens to be the audio
thread in Pd... until we've found a better solution you are adviced
to keep the editor window closed in low-latency realtime situations
to avoid audio hick-ups - or use the Pd editor instead., f 66;
#X text 12 56 you have to explicitly request the VST editor with [open
-e ...(, f 66;
#X text 12 79 on Windows and Linux \, the VST editor window runs in
its own thread which means that automating the GUI shouldn't have a
noticable effect on audio performance., f 61;
#X text 9 187 the Pd editor might be better for performance if you
have lots of plugins. as a rule of thumb only use the VST editor if
you really need it., f 67;
#X text 8 233 if don't need any GUI and you're paranoid about performance
\, use [vstplugin~ -n] to disable any GUI. this saves some memory and
CPU cycles but it probably won't matter a lot., f 61;
#X text 12 22 if the plugin has a VST editor it can be shown in a native
window \, otherwise a canvas with a generic Pd editor is created.,
f 64;
#X restore 322 273 pd editor;
#X f 10;
#X text 108 182 by default \, a generic Pd editor is created \, use
the -e flag to enable the VST editor., f 45;
#X obj 27 672 outlet;
#X text 152 273 more info about the editor:;
#X text 161 415 VST3 plug-in keys get a '.vst3' extension to distinguish
them from VST2 plugins of the same name.;
#X text 162 441 generally \, keys can only be used after a search (see
the 'search' method) or if the plug-in has already been opened by its
file path., f 49;
#X obj 106 215 cnv 20 280 50 empty empty empty 20 12 0 14 -257985 -66577
0;
#X text 114 220 NOTE: on macOS \, the VST editor is highly experimental
and runs on the audio thread! see the README for more information.
, f 44;
#X text 145 334 plug-ins can be opened in 2 ways:;
#X symbolatom 47 423 16 0 0 0 - - -;
#X obj 46 380 s \$0-msg;
#X text 141 623 opening by file path doesn't work if the module contains
several plug-ins (shell plug-ins or certain VST3 plug-ins)!;
#X text 140 651 also \, keys are always platform independent while
file names may be different (e.g. containing an architecture string
like 'x64'), f 60;
#X text 81 530 file path;
#X msg 46 359 search -a;
#X text 162 376 the key is the plug-in name with whitespace substituted
by underscores \, so that the symbol can be easily typed in Pd (e.g.
'Awesome Reverb' becomes 'Awesome_Reverb').;
#X text 162 578 for VST2 plug-ins the extension (.dll \, .so \, .vst)
can be omitted \, but for VST3 plug-ins the '.vst3' extension is mandatory.
, f 58;
#X text 162 526 both absolute and relative paths are allowed. relative
paths are searched like abstractions. if that fails \, the standard
VST search paths are searched *recursively* (see [pd search]), f 58
;
#X text 157 148 on success and;
#X text 22 147 outputs;
#X msg 251 148 open 0;
#X text 299 148 on failure;
#X msg 74 147 open 1 <key>;
#X obj 47 465 pack s f;
#X obj 92 443 tgl 15 0 empty empty async 17 7 0 10 -262144 -1 -1 0
1;
#X msg 47 489 open \$1 \$2;
#X obj 62 596 pack s f;
#X obj 107 574 tgl 15 0 empty empty async 17 7 0 10 -262144 -1 -1 0
1;
#X msg 62 622 open \$1 \$2;
#X symbolatom 37 233 10 0 0 0 - - -;
#X text 22 83 async:;
#X text 50 100 0: load synchronously (default);
#X text 147 358 a) by KEY:;
#X text 142 506 b) by FILE NAME:;
#X text 44 335 1) search;
#X text 44 402 2) open by key;
#X text 19 43 -e: use the VST editor;
#X text 23 64 key/path: plugin key or file path (see below);
#X text 50 116 1: load asynchronously;
#X obj 18 19 cnv 20 220 20 empty empty empty 20 12 0 14 -228856 -66577
0;
#X text 24 21 arguments: [-e] key/path [async];
#X obj 5 164 inlet;
#X connect 0 0 1 0;
#X connect 1 0 32 0;
#X connect 2 0 3 0;
#X connect 3 0 5 0;
#X connect 4 0 8 0;
#X connect 5 0 4 0;
#X connect 15 0 29 0;
#X connect 20 0 16 0;
#X connect 29 0 31 0;
#X connect 30 0 29 1;
#X connect 31 0 4 0;
#X connect 32 0 34 0;
#X connect 33 0 32 1;
#X connect 34 0 4 0;
#X connect 35 0 5 0;
#X connect 47 0 2 0;
#X restore 253 257 pd open;
#X msg 285 333 vis \$1;
#X obj 107 131 tgl 15 0 empty empty PluginGUI 17 7 0 10 -262144 -1
-1 0 1;
#X obj 284 231 bng 15 250 50 0 empty empty empty 17 7 0 10 -262144
-1 -1;
#X msg 376 390 midi_cc 1 64 \$1;
#X msg 562 511 midi_bend 1 \$1;
#X obj 565 487 hsl 128 15 -1 1 0 0 empty empty empty -2 -8 0 10 -262144
-1 -1 0 1;
#X text 665 334 note on: channel (1-16) \, pitch \, velocity;
#X text 488 390 CC: channel \, number \, value;
#X text 435 368 (sustain pedal on/off);
#X text 661 512 pitchbend: channel \, bend (-1 to 1);
#X obj 511 257 notein;
#X obj 379 336 ctlin 64 1;
#X msg 396 197 midi_note 1 \$1 \$2;
#X connect 0 0 33 0;
#X connect 0 1 16 0;
#X connect 2 0 3 0;
#X connect 2 1 4 0;
#X connect 5 0 6 0;
#X connect 5 0 0 0;
#X connect 12 0 16 1;
#X connect 12 1 16 2;
#X connect 16 0 1 0;
#X connect 16 1 12 0;
#X connect 17 0 2 0;
#X connect 17 1 2 1;
#X connect 18 0 3 0;
#X connect 19 0 4 0;
#X connect 20 0 17 0;
#X connect 21 0 17 0;
#X connect 22 0 21 0;
#X connect 23 0 20 0;
#X connect 24 0 17 0;
#X connect 26 0 25 0;
#X connect 32 0 24 0;
#X connect 33 0 17 0;
#X coords 0 -1 1 1 190 70 1 100 100;
