#N canvas 719 143 933 824 10;
#X obj 101 139 cnv 15 298 20 empty \$0-m_description-rcv empty 1 12
0 14 -233017 -66577 0;
#X obj 101 118 cnv 15 298 20 empty \$0-m_cat-rcv category:effects 1
10 0 12 -262130 -66577 0;
#N canvas 188 359 1094 762 dynamic_menu 0;
#X obj 566 198 route 1;
#X obj 561 164 route key motion;
#X msg 173 440 label \$1;
#X obj 90 287 +;
#X msg 410 284 -1;
#X msg 448 310 1;
#X msg 243 440 label;
#X obj 128 287 mod;
#X obj 275 597 list append;
#N canvas 1 56 450 300 list_drip 0;
#X obj 63 84 t a a;
#X obj 63 241 spigot;
#X obj 102 149 bang;
#X obj 102 168 1;
#X obj 223 149 route bang;
#X obj 183 150 bang;
#X obj 183 169 0;
#X obj 102 114 list split 2;
#X obj 232 379 list split;
#X obj 299 328 list length;
#X obj 299 350 >> 1;
#X obj 63 260 t a a a a;
#X obj 63 446 list split;
#X obj 130 398 list length;
#X obj 130 423 >> 1;
#X obj 31 19 inlet;
#X obj 290 175 outlet;
#X text 73 19 Copyright 2009 by Mathieu Bouchard;
#X obj 31 53 t b a;
#X obj 465 119 outlet;
#X text 520 121 signal end of list;
#X text 381 23 made compatible with [list-drip]: fbar 2009;
#N canvas 228 198 627 317 LICENSE-BSD 0;
#X text 121 56 This software is copyrighted by Miller Puckette \, Reality
Jockey Ltd. and others. The terms (the "Standard Improved BSD License")
apply to all files associated with the software unless explicitly disclaimed
in individual files.;
#X text 123 148 See the file LICENSE.txt for the full license text.
;
#X restore 523 60 pd LICENSE-BSD;
#X connect 0 0 1 0;
#X connect 0 1 7 0;
#X connect 1 0 11 0;
#X connect 2 0 3 0;
#X connect 3 0 1 1;
#X connect 4 1 16 0;
#X connect 5 0 6 0;
#X connect 6 0 1 1;
#X connect 7 0 2 0;
#X connect 7 2 4 0;
#X connect 7 2 5 0;
#X connect 8 0 0 0;
#X connect 9 0 10 0;
#X connect 10 0 8 1;
#X connect 11 0 12 0;
#X connect 11 1 13 0;
#X connect 11 2 8 0;
#X connect 11 3 9 0;
#X connect 12 1 0 0;
#X connect 13 0 14 0;
#X connect 14 0 12 1;
#X connect 15 0 18 0;
#X connect 18 0 19 0;
#X connect 18 1 0 0;
#X restore 213 531 pd list_drip;
#X obj 185 497 list fromsymbol;
#X msg 158 632 key 1 \$1 0 \, key 0 \$1 0;
#X obj 438 59 spigot;
#X msg 155 211 1;
#X obj 107 382 list split 1;
#X obj 584 233 route Up Down Next Prior;
#X msg 641 291 -1;
#X msg 679 290 1;
#X obj 641 314 t f b;
#X obj 622 383 +;
#X obj 622 406 mod;
#X obj 625 512 s \$0-current_category;
#X obj 290 161 r \$0-current_category;
#X msg 466 479 label category:\$1;
#X obj 270 189 t b s s b;
#X msg 554 299 0;
#X msg 80 192 -1;
#X obj 80 223 t b f b;
#X msg 17 444 127;
#X obj 438 36 inlet;
#X obj 233 14 inlet;
#X obj 394 685 outlet;
#X obj 12 421 delay 10;
#X obj 22 385 t b b;
#X msg 475 405 symbol End;
#X obj 456 227 t b b;
#X obj 491 368 delay 1000;
#X obj 124 351 t l b;
#N canvas 1 56 450 300 vanilla_list2symbol 0;
#X obj 23 343 list tosymbol;
#X obj 86 234 list fromsymbol;
#X obj 86 149 list split 1;
#X obj 86 99 until;
#X obj 86 124 list append;
#X obj 180 149 bang;
#X obj 86 282 list prepend;
#X obj 200 282 t a;
#X obj 23 313 list append;
#X obj 86 258 list append 32;
#X obj 23 49 t b b a b, f 27;
#X obj 155 201 makefilename %s;
#X obj 86 171 route symbol;
#X obj 23 21 inlet;
#X obj 23 370 outlet;
#X text 249 34 credits : https://forum.pdpatchrepo.info/topic/10556/vanilla-list2symbol-abstraction-pd-0-47
;
#X connect 0 0 14 0;
#X connect 1 0 9 0;
#X connect 2 0 12 0;
#X connect 2 1 4 1;
#X connect 2 2 5 0;
#X connect 3 0 4 0;
#X connect 4 0 2 0;
#X connect 5 0 3 1;
#X connect 6 0 7 0;
#X connect 6 0 8 1;
#X connect 7 0 6 1;
#X connect 8 0 0 0;
#X connect 9 0 6 0;
#X connect 10 0 8 0;
#X connect 10 1 3 0;
#X connect 10 2 4 1;
#X connect 10 3 6 1;
#X connect 11 0 1 0;
#X connect 12 0 1 0;
#X connect 12 1 11 0;
#X connect 13 0 10 0;
#X restore 151 418 pd vanilla_list2symbol;
#X obj 242 55 t b b b b l;
#X obj 128 111 delay 20;
#X obj 677 349 text size \$1-categories;
#X obj 622 429 text get \$1-categories;
#X obj 488 514 s \$0-m_cat-rcv;
#X obj 194 474 s \$0-m_description-rcv;
#X text 76 89 simulate key press on startup;
#X obj 267 242 makefilename \$1-%s;
#X obj 268 266 t s s;
#X obj 953 483 text define \$0-objects;
#X obj 847 547 text sequence \$1-all_objects;
#X obj 832 437 t s b s;
#X obj 902 602 route symbol;
#X msg 947 441 clear;
#X obj 843 500 t b b b;
#X msg 870 523 line 0;
#X obj 847 570 list trim;
#X obj 902 625 list;
#X obj 904 647 t l b;
#X obj 898 680 text insert \$0-objects;
#X msg 965 653 1e+09;
#X obj 126 251 text size \$0-objects;
#X obj 129 326 text get \$0-objects;
#X obj 268 222 t a;
#X obj 761 242 route 63232 63233 63276 63277;
#X text 834 211 mac osx compatibility;
#X text 542 586 one click = select all;
#X msg 320 626 mouse \$1 \$2 1 0 \, mouseup \$1 \$2 1 \, mouse \$1
\$2 1 0 \, mouseup \$1 \$2 1 \, mouse \$1 \$2 1 0 \, mouseup \$1 \$2
1;
#X connect 0 0 15 0;
#X connect 1 0 0 0;
#X connect 2 0 44 0;
#X connect 3 0 7 0;
#X connect 4 0 3 0;
#X connect 5 0 3 0;
#X connect 6 0 44 0;
#X connect 7 0 3 1;
#X connect 7 0 61 0;
#X connect 8 0 66 0;
#X connect 9 0 11 0;
#X connect 10 0 9 0;
#X connect 11 0 31 0;
#X connect 12 0 1 0;
#X connect 13 0 12 1;
#X connect 14 0 10 0;
#X connect 14 1 38 0;
#X connect 15 0 35 0;
#X connect 15 1 5 0;
#X connect 15 2 17 0;
#X connect 15 3 16 0;
#X connect 15 4 63 0;
#X connect 16 0 18 0;
#X connect 17 0 18 0;
#X connect 18 0 19 0;
#X connect 18 1 41 0;
#X connect 19 0 20 0;
#X connect 20 0 19 1;
#X connect 20 0 42 0;
#X connect 22 0 24 0;
#X connect 23 0 43 0;
#X connect 24 0 26 0;
#X connect 24 2 62 0;
#X connect 24 3 6 0;
#X connect 25 0 18 0;
#X connect 26 0 27 0;
#X connect 27 0 33 0;
#X connect 27 1 3 1;
#X connect 27 2 60 0;
#X connect 28 0 11 0;
#X connect 29 0 12 0;
#X connect 30 0 39 0;
#X connect 32 0 28 0;
#X connect 33 0 32 0;
#X connect 33 1 8 0;
#X connect 34 0 11 0;
#X connect 35 0 36 0;
#X connect 35 1 4 0;
#X connect 36 0 34 0;
#X connect 37 0 14 0;
#X connect 37 1 8 0;
#X connect 38 0 2 0;
#X connect 39 0 40 0;
#X connect 39 1 26 0;
#X connect 39 2 13 0;
#X connect 39 3 25 0;
#X connect 39 4 8 1;
#X connect 40 0 5 0;
#X connect 41 0 20 1;
#X connect 42 0 50 0;
#X connect 46 0 47 0;
#X connect 47 0 60 1;
#X connect 47 1 61 3;
#X connect 49 0 55 0;
#X connect 50 0 23 0;
#X connect 50 0 21 0;
#X connect 50 1 53 0;
#X connect 50 2 51 1;
#X connect 51 0 56 0;
#X connect 52 0 48 0;
#X connect 53 0 49 0;
#X connect 53 1 54 0;
#X connect 53 2 52 0;
#X connect 54 0 49 0;
#X connect 55 0 51 0;
#X connect 56 0 57 0;
#X connect 57 0 58 0;
#X connect 57 1 59 0;
#X connect 59 0 58 1;
#X connect 60 0 7 1;
#X connect 61 0 37 0;
#X connect 63 0 35 0;
#X connect 63 1 5 0;
#X connect 63 2 16 0;
#X connect 63 3 17 0;
#X connect 66 0 31 0;
#X restore 231 541 pd dynamic_menu;
#X obj 306 474 iemguts/receivecanvas 1;
#X obj 231 564 iemguts/sendcanvas 1;
#X obj 134 475 r \$1-m_start_listen;
#X obj 663 220 r \$1-is_m_alive?;
#X obj 657 249 s \$1-yes_m_is_alive!;
#X connect 2 0 4 0;
#X connect 3 0 2 1;
#X connect 5 0 2 0;
#X connect 6 0 7 0;
#X coords 0 -1 1 1 300 60 1 100 100;
