#N canvas 0 50 450 300 10;
#X obj 342 280 s SPEED_LIM;
#X msg 303 252 0;
#X msg 359 255 20;
#X obj 243 81 - 1;
#X obj 243 106 * 128;
#X obj 221 131 +;
#X obj 160 154 pack f f;
#X obj 160 36 ctlin;
#X obj 160 188 glocal/glocal.send CTLIN;
#X connect 1 0 0 0;
#X connect 2 0 0 0;
#X connect 3 0 4 0;
#X connect 4 0 5 1;
#X connect 5 0 6 1;
#X connect 6 0 8 0;
#X connect 7 0 6 0;
#X connect 7 1 5 0;
#X connect 7 2 3 0;
