#N canvas 873 127 1920 1023 10;
#X declare -path pdr/core;
#X obj 500 155 route -1;
#X msg 468 475 color \$1 -1 -1;
#X msg 403 413 color \$1 -1 -1;
#X obj 202 45 route showLastUsed;
#X obj 40 131 spigot;
#X obj 278 128 select 0;
#X obj 470 66 list append \$2;
#X obj 73 510 r \$1-\$2-midi-ctl;
#X obj 72 532 outlet;
#X obj 110 135 spigot 1;
#X obj 167 97 == 0;
#X obj 33 231 list append;
#X obj 38 158 t b b;
#X obj 56 24 r \$1-\$2;
#X obj 32 257 s \$1-\$2;
#X obj 34 192 delay 10;
#X obj 152 295 s \$1-RACK_ADMIN;
#X msg 570 451 color \$1 -1 -1;
#X obj 57 50 t a a a;
#X obj 526 322 > 0.5;
#X obj 527 344 select 0 1;
#X obj 152 271 list trim;
#X obj 524 238 unpack s f f;
#X obj 523 285 spigot;
#X obj 556 403 f;
#X obj 146 407 t b s;
#X obj 136 384 symbol;
#X obj 141 482 send, f 6;
#X obj 25 384 r control-\$1;
#X obj 64 467 route \$2;
#X text 18 444 OBSOLETE;
#X obj 24 405 route midi;
#X obj 133 334 r \$1-\$2-service;
#X obj 151 248 list append;
#X obj 152 199 list append lastUsed \$2;
#N canvas 0 50 450 300 check(\$4/\$5/\$6) 0;
#X obj 41 230 outlet;
#X obj 27 83 get_as float \$4;
#X obj 152 82 get_as float \$5;
#X obj 260 111 get_as symbol \$6;
#X obj 24 54 t b b b;
#X obj 49 117 t f f;
#X obj 94 138 !=;
#X obj 137 113 get_as float \$4;
#X obj 44 171 spigot;
#X obj 44 200 pack f f s;
#X msg 284 143 symbol lin;
#X obj 33 13 loadbang;
#X connect 1 0 5 0;
#X connect 2 0 6 1;
#X connect 2 0 9 1;
#X connect 2 1 7 0;
#X connect 3 0 9 2;
#X connect 3 1 10 0;
#X connect 4 0 1 0;
#X connect 4 1 2 0;
#X connect 4 2 3 0;
#X connect 5 0 8 0;
#X connect 5 1 6 0;
#X connect 6 0 8 1;
#X connect 7 0 6 1;
#X connect 8 0 9 0;
#X connect 9 0 0 0;
#X connect 10 0 9 2;
#X connect 11 0 4 0;
#X restore 233 221 pd check(\$4/\$5/\$6);
#X obj 141 436 list append \$2;
#X obj 144 459 list append;
#X obj 737 152 inlet F.B.out;
#X obj 134 358 route getParams setFBchannel;
#X obj 736 198 list prepend 0;
#X obj 731 222 route 0;
#X obj 772 394 noteout;
#X obj 776 248 unpack f f;
#X obj 780 295 t f f;
#X obj 816 342 div 128;
#X obj 816 364 + 1;
#X obj 778 316 mod 128;
#X obj 774 270 - 1;
#X obj 737 176 pipe 0;
#X text 850 267 il faudrait spécifier -1 comme valeur par défaut
, f 28;
#X text 835 186 le message setFBchannel est initialement envoyé par
le module ctl-assign3, f 32;
#X obj 666 446 morphing \$1 \$2 \$6;
#X text 8 212 ?????;
#X obj 893 118 inlet test_color;
#X obj 455 214 f \$7;
#X obj 455 236 select 0;
#X obj 514 406 f 0;
#N canvas 0 50 925 300 interface-mobmuplat 1;
#N canvas 481 60 450 300 r-\$0-ID 1;
#X obj 86 183 outlet;
#X restore 41 163 pd r-\$0-ID;
#X obj 159 91 s pd-r-\$0-ID;
#X obj 161 20 r \$1-module_name;
#X obj 161 42 list append \$2;
#X msg 160 68 obj 0 0 r /\$1/\$2 \, connect 1 0 0 0;
#N canvas 0 50 706 446 mapping 0;
#X obj 163 2 inlet;
#X obj 165 306 outlet;
#X text 419 51 mode mapping;
#N canvas 0 50 458 308 rh_scalelog 0;
#X obj 20 155 exp;
#X obj 20 107 *;
#X obj 20 130 +;
#X obj 98 87 log;
#X obj 194 84 log;
#X obj 123 123 t b f;
#X obj 123 145 -;
#X obj 20 183 outlet;
#X obj 20 19 inlet;
#X obj 98 23 inlet;
#X obj 194 24 inlet;
#X connect 0 0 7 0;
#X connect 1 0 2 0;
#X connect 2 0 0 0;
#X connect 3 0 2 1;
#X connect 3 0 5 0;
#X connect 4 0 6 0;
#X connect 5 0 6 0;
#X connect 5 1 6 1;
#X connect 6 0 1 1;
#X connect 8 0 1 0;
#X connect 9 0 3 0;
#X connect 10 0 4 0;
#X restore 290 258 pd rh_scalelog;
#X obj 290 199 unpack f f f;
#X obj 160 110 route lin log, f 33;
#X text 477 77 $f3=lin mode;
#X text 469 96 $f3=log mode;
#X obj 158 26 list append \$4 \$5;
#X obj 158 48 list prepend \$6;
#X obj 158 70 list trim;
#X obj 403 133 route 0;
#X obj 69 161 expr $f1*($f3-$f2)+$f2;
#X obj 451 283 outlet;
#X obj 418 180 list split 1;
#X obj 423 200 * 127;
#X connect 0 0 8 0;
#X connect 3 0 1 0;
#X connect 4 0 3 0;
#X connect 4 1 3 1;
#X connect 4 2 3 2;
#X connect 5 0 12 0;
#X connect 5 1 4 0;
#X connect 5 2 11 0;
#X connect 8 0 9 0;
#X connect 9 0 10 0;
#X connect 10 0 5 0;
#X connect 11 0 14 0;
#X connect 12 0 1 0;
#X connect 14 0 15 0;
#X connect 15 0 13 0;
#X restore 41 188 pd mapping;
#X obj 40 246 s \$1-\$2;
#X obj 203 175 outlet;
#X obj 461 106 r \$1-\$2;
#N canvas 0 50 706 446 inv_mapping 0;
#X obj 163 2 inlet;
#X obj 165 306 outlet;
#X text 419 51 mode mapping;
#X obj 290 199 unpack f f f;
#X obj 160 110 route lin log, f 33;
#X text 477 77 $f3=lin mode;
#X text 469 96 $f3=log mode;
#X obj 158 26 list append \$4 \$5;
#X obj 158 48 list prepend \$6;
#X obj 158 70 list trim;
#X obj 403 133 route 0;
#X obj 451 283 outlet;
#X obj 418 180 list split 1;
#N canvas 0 50 458 308 inv_scalelog 0;
#X obj 98 87 log;
#X obj 194 84 log;
#X obj 123 123 t b f;
#X obj 123 145 -;
#X obj 20 183 outlet;
#X obj 20 19 inlet;
#X obj 98 23 inlet;
#X obj 194 24 inlet;
#X obj 34 65 log;
#X obj 20 130 -;
#X obj 20 156 /;
#X connect 0 0 2 0;
#X connect 0 0 9 1;
#X connect 1 0 3 0;
#X connect 2 0 3 0;
#X connect 2 1 3 1;
#X connect 3 0 10 1;
#X connect 5 0 8 0;
#X connect 6 0 0 0;
#X connect 7 0 1 0;
#X connect 8 0 9 0;
#X connect 9 0 10 0;
#X connect 10 0 4 0;
#X restore 286 246 pd inv_scalelog;
#X obj 423 200 / 127;
#X obj 69 161 expr ($f1-$f2)/($f3-$f2);
#X connect 0 0 7 0;
#X connect 3 0 13 0;
#X connect 3 1 13 1;
#X connect 3 2 13 2;
#X connect 4 0 15 0;
#X connect 4 1 3 0;
#X connect 4 2 10 0;
#X connect 7 0 8 0;
#X connect 8 0 9 0;
#X connect 9 0 4 0;
#X connect 10 0 12 0;
#X connect 12 0 14 0;
#X connect 13 0 1 0;
#X connect 14 0 11 0;
#X connect 15 0 1 0;
#X restore 461 188 pd inv_mapping;
#X msg 461 210 set \$1;
#X msg 590 188 symbol /\$1/\$2;
#X obj 461 128 spigot 1;
#X obj 41 210 t b f b;
#X msg 357 192 0;
#X msg 345 217 1;
#X obj 460 235 list prepend;
#X obj 462 280 s toGUI;
#X obj 460 256 speed_lim;
#X connect 0 0 5 0;
#X connect 2 0 3 0;
#X connect 3 0 4 0;
#X connect 3 0 11 0;
#X connect 4 0 1 0;
#X connect 5 0 13 0;
#X connect 5 1 7 0;
#X connect 8 0 12 0;
#X connect 9 0 10 0;
#X connect 10 0 16 0;
#X connect 11 0 16 1;
#X connect 12 0 9 0;
#X connect 13 0 15 0;
#X connect 13 1 6 0;
#X connect 13 2 14 0;
#X connect 14 0 12 1;
#X connect 15 0 12 1;
#X connect 16 0 18 0;
#X connect 18 0 17 0;
#X restore 240 542 pd interface-mobmuplat;
#X text 836 442 gestion du morphing;
#X text 843 555 gestion interface mobmuplat;
#X obj 450 27 delay 1;
#X obj 445 8 loadbang;
#X obj 204 20 glocal/glocal.receive RACK_ADMIN;
#X obj 472 590 s \$3;
#X obj 523 592 outlet;
#X obj 469 536 t a a;
#X obj 833 44 declare -path pdr/core;
#X obj 471 128 text search \$1-colors;
#X obj 521 200 text get \$1-colors;
#X floatatom 526 452 5 0 0 0 - - -;
#X obj 439 48 t b b;
#X obj 472 86 t l l;
#X text 619 103 1) look for general colormap;
#X text 623 120 2) look for local colormap;
#X text 391 177 3) look for local midi-colors setting, f 19;
#X obj 546 19 bng 15 250 50 0 empty empty empty 17 7 0 10 -262144 -1
-1;
#X obj 496 106 text search colors;
#X obj 567 153 route -1;
#X obj 564 176 text get colors;
#X obj 578 21 r REFRESH_COLORS;
#X connect 0 1 69 0;
#X connect 1 0 66 0;
#X connect 2 0 66 0;
#X connect 3 0 4 1;
#X connect 3 0 5 0;
#X connect 3 0 10 0;
#X connect 4 0 12 0;
#X connect 5 0 57 0;
#X connect 5 1 2 0;
#X connect 6 0 72 0;
#X connect 7 0 8 0;
#X connect 9 0 11 1;
#X connect 10 0 9 1;
#X connect 11 0 14 0;
#X connect 12 1 34 0;
#X connect 13 0 18 0;
#X connect 15 0 11 0;
#X connect 17 0 66 0;
#X connect 18 0 4 0;
#X connect 18 1 9 0;
#X connect 18 2 23 0;
#X connect 19 0 20 0;
#X connect 20 0 57 0;
#X connect 20 1 24 0;
#X connect 21 0 16 0;
#X connect 22 1 57 0;
#X connect 22 2 23 1;
#X connect 22 2 24 1;
#X connect 23 0 19 0;
#X connect 24 0 17 0;
#X connect 25 0 36 0;
#X connect 25 1 27 1;
#X connect 26 0 25 0;
#X connect 28 0 31 0;
#X connect 29 0 8 0;
#X connect 31 0 29 0;
#X connect 32 0 39 0;
#X connect 33 0 21 0;
#X connect 34 0 33 0;
#X connect 35 0 33 1;
#X connect 35 0 37 1;
#X connect 36 0 37 0;
#X connect 37 0 27 0;
#X connect 38 0 49 0;
#X connect 39 0 26 0;
#X connect 39 1 40 1;
#X connect 40 0 41 0;
#X connect 41 1 43 0;
#X connect 43 0 48 0;
#X connect 43 1 42 1;
#X connect 44 0 47 0;
#X connect 44 1 45 0;
#X connect 45 0 46 0;
#X connect 46 0 42 2;
#X connect 47 0 42 0;
#X connect 48 0 44 0;
#X connect 49 0 40 0;
#X connect 54 0 57 0;
#X connect 55 0 56 0;
#X connect 56 1 57 0;
#X connect 57 0 1 0;
#X connect 57 0 70 0;
#X connect 58 0 8 0;
#X connect 61 0 71 0;
#X connect 62 0 61 0;
#X connect 63 0 3 0;
#X connect 66 0 64 0;
#X connect 66 1 65 0;
#X connect 68 0 0 0;
#X connect 69 0 22 0;
#X connect 71 0 55 0;
#X connect 71 1 6 0;
#X connect 72 1 77 0;
#X connect 76 0 61 0;
#X connect 77 0 78 0;
#X connect 78 1 79 0;
#X connect 79 0 22 0;
#X connect 80 0 71 0;
