#N canvas 1 56 1885 998 10;
#X declare -stdpath iemguts;
#X obj 171 114 tgl 15 0 empty empty busy 17 7 0 10 -262144 -1 -1 0
1;
#X obj 239 296 spigot;
#X msg 235 471 0;
#X msg 119 72 set \$1;
#X obj 29 232 spigot 1;
#X obj 82 209 == 0;
#X msg 271 431 0;
#X obj 239 406 t b b;
#X obj 122 50 r \$2-busy;
#X obj 81 186 r \$2-busy;
#X obj 239 235 r \$2-channel;
#X obj 274 266 r \$2-busy;
#X obj 216 514 s \$2-busy;
#X obj 841 487 select 0 1;
#X obj 841 538 delay 40;
#X msg 841 559 0;
#X msg 886 561 1;
#X msg 890 510 stop;
#X obj 841 580 outlet (connect to [switch~] object);
#X floatatom 177 131 5 0 0 0 slot #2-slot -;
#X obj 629 -45 cnv 15 800 400 empty empty empty 20 12 0 14 -233017
-66577 0;
#X obj 841 466 r \$2-busy;
#X obj 712 97 mod 10;
#X obj 656 96 div 10;
#X obj 653 122 * 200;
#X obj 726 121 * 80;
#X obj 698 66 t f f;
#X obj 697 253 canvasposition 1;
#X obj 684 201 pack f f;
#X obj 814 68 r \$2-busy;
#X obj 678 41 select 0;
#X text 691 309 TCL/TK GUI STUFF;
#X obj 308 371 route \$1;
#X text 269 353 bloquer substitution d'un objet d'une même classe
;
#X text 511 380 transférer aux ojets de la classe concernée, f 21
;
#X obj 372 378 list append \$2;
#X msg 370 400 \; \$1 replace \$2 \$3;
#N canvas 1 56 446 502 replace 0;
#X obj 42 34 inlet;
#X obj 38 69 unpack f f;
#X text 195 35 <no slot> <\$0-objet à remplacer>;
#X text 92 177 l'objet a été déjà substitué;
#X msg 48 313 1;
#X obj 77 292 f;
#X obj 30 337 f \$2;
#X obj 34 105 t f f f;
#X obj 26 171 select 0;
#X obj 71 348 s \$2-busy;
#X obj 235 284 f;
#X obj 26 256 t b b b b;
#X msg 237 334 \; \$1-channel remove;
#X obj 88 424 list append \$1;
#X msg 89 446 add \$1 \$2;
#X text 175 399 retour visuel;
#X obj 92 322 s \$2-slot;
#X obj 27 140 glocal/glocal.tabread SLOTS_MAP;
#X obj 14 367 glocal/glocal.tabwrite SLOTS_MAP;
#X obj 87 478 glocal/glocal.send TO_GUI;
#X connect 0 0 1 0;
#X connect 1 0 7 0;
#X connect 1 1 8 1;
#X connect 1 1 10 1;
#X connect 4 0 9 0;
#X connect 5 0 13 0;
#X connect 5 0 16 0;
#X connect 6 0 18 0;
#X connect 7 0 17 0;
#X connect 7 1 18 1;
#X connect 7 2 5 1;
#X connect 8 0 11 0;
#X connect 10 0 12 0;
#X connect 11 0 6 0;
#X connect 11 1 4 0;
#X connect 11 2 5 0;
#X connect 11 3 10 0;
#X connect 13 0 14 0;
#X connect 14 0 19 0;
#X connect 17 0 8 0;
#X restore 83 296 pd replace;
#N canvas 0 50 450 374 add 0;
#X obj 37 37 inlet;
#X msg 43 218 1;
#X obj 21 161 t b b b;
#X obj 72 197 f;
#X obj 25 242 f \$2;
#X obj 30 67 t f f f;
#X obj 22 133 select 0;
#X obj 134 131 r \$2-busy;
#X msg 107 179 0;
#X obj 134 152 select 0;
#X obj 66 253 s \$2-busy;
#X obj 88 334 list append \$1;
#X msg 89 356 add \$1 \$2;
#X text 175 309 retour visuel;
#X obj 87 227 s \$2-slot;
#X obj 23 102 glocal/glocal.tabread SLOTS_MAP;
#X obj 9 272 glocal/glocal.tabwrite SLOTS_MAP;
#X obj 87 388 glocal/glocal.send TO_GUI;
#X connect 0 0 5 0;
#X connect 1 0 10 0;
#X connect 2 0 4 0;
#X connect 2 1 1 0;
#X connect 2 2 3 0;
#X connect 3 0 11 0;
#X connect 3 0 14 0;
#X connect 4 0 16 0;
#X connect 5 0 15 0;
#X connect 5 1 16 1;
#X connect 5 2 3 1;
#X connect 6 0 2 0;
#X connect 7 0 9 0;
#X connect 8 0 14 0;
#X connect 9 0 8 0;
#X connect 11 0 12 0;
#X connect 12 0 17 0;
#X connect 15 0 6 0;
#X restore 26 297 pd add;
#X obj 556 506 f \$2;
#X obj 648 484 list append \$1;
#X msg 649 506 add \$1 \$2;
#X text 617 458 retour visuel;
#X obj 519 435 t f b f f;
#N canvas 1 56 596 548 insert 0;
#X obj 286 117 / 10;
#X obj 285 139 int;
#X obj 286 161 * 10;
#X obj 339 353 select 0;
#X obj 392 388 pack f f;
#X msg 371 427 \; \$1-channel slot \$2;
#X obj 287 216 - 1;
#X obj 335 259 t f f f;
#X obj 290 242 moses;
#X obj 287 188 + 10;
#X obj 366 156 + 1;
#X obj 357 280 - 1;
#X obj 28 15 inlet;
#X msg 43 243 1;
#X obj 10 270 f \$2;
#X obj 66 278 s \$2-busy;
#X obj 88 359 list append \$1;
#X msg 89 381 add \$1 \$2;
#X text 135 332 retour visuel;
#X obj 339 82 t f f;
#X obj 16 196 t b b f f;
#X obj 72 222 t f f f;
#X obj 34 44 unpack f f;
#X obj 27 131 select 0;
#X obj 26 79 t f f;
#X obj 30 169 f;
#X text 142 36 vérifier que l'insertion n'a pas été déjà faite
par une autre instance de la classe objet, f 22;
#X obj 87 252 s \$2-slot;
#X obj 23 107 glocal/glocal.tabread SLOTS_MAP;
#X obj 9 309 glocal/glocal.tabwrite SLOTS_MAP;
#X obj 87 413 glocal/glocal.send TO_GUI;
#X obj 347 322 glocal/glocal.tabread SLOTS_MAP;
#X connect 0 0 1 0;
#X connect 1 0 2 0;
#X connect 2 0 9 0;
#X connect 3 1 4 0;
#X connect 4 0 5 0;
#X connect 6 0 8 0;
#X connect 7 0 6 0;
#X connect 7 1 11 0;
#X connect 7 2 4 1;
#X connect 8 1 7 0;
#X connect 9 0 6 0;
#X connect 10 0 8 1;
#X connect 11 0 31 0;
#X connect 12 0 22 0;
#X connect 13 0 15 0;
#X connect 14 0 29 0;
#X connect 16 0 17 0;
#X connect 17 0 30 0;
#X connect 19 0 0 0;
#X connect 19 1 10 0;
#X connect 20 0 14 0;
#X connect 20 1 13 0;
#X connect 20 2 21 0;
#X connect 20 3 19 0;
#X connect 21 0 16 0;
#X connect 21 1 27 0;
#X connect 21 2 29 1;
#X connect 22 0 24 0;
#X connect 22 1 23 1;
#X connect 23 0 25 0;
#X connect 24 0 28 0;
#X connect 24 1 25 1;
#X connect 25 0 20 0;
#X connect 28 0 23 0;
#X connect 31 0 3 0;
#X restore 141 318 pd insert;
#N canvas 1 56 450 300 postload 0;
#X obj 87 24 inlet;
#X obj 166 216 f \$2;
#X obj 258 194 list append \$1;
#X msg 259 216 add \$1 \$2;
#X text 227 168 retour visuel;
#X obj 129 68 f;
#X obj 127 104 select 0;
#X msg 21 166 1;
#X obj 56 191 s \$2-busy;
#X obj 129 145 t b b f f;
#X obj 150 47 r \$2-slot;
#X obj 42 267 glocal/glocal.tabwrite SLOTS_MAP;
#X obj 257 248 glocal/glocal.send TO_GUI;
#X connect 0 0 5 0;
#X connect 1 0 11 0;
#X connect 2 0 3 0;
#X connect 3 0 12 0;
#X connect 5 0 6 0;
#X connect 6 1 9 0;
#X connect 7 0 8 0;
#X connect 9 0 7 0;
#X connect 9 1 1 0;
#X connect 9 2 11 1;
#X connect 9 3 2 0;
#X connect 10 0 5 1;
#X restore 55 561 pd postload;
#X msg 8 433 0;
#X obj 86 390 t b b b;
#X obj 128 427 f;
#X msg 145 461 remove \$1;
#X obj 48 434 s \$2-busy;
#X obj 164 434 select 0;
#X obj 828 150 delay 100;
#X obj 837 95 select 0 1;
#X msg 867 118 stop;
#X obj 698 8 r \$2-slot;
#X obj 146 385 r \$2-slot;
#X obj 8 461 s \$2-slot;
#X obj 399 435 r \$2-slot;
#X obj 446 481 s \$2-slot;
#N canvas 70 379 1103 303 help 0;
#X obj 37 4 inlet;
#X obj 37 186 s pd;
#X obj 37 95 symbol \$1-help.pd;
#X obj 116 53 bng 15 250 50 0 empty empty empty 17 7 0 10 -262144 -1
-1;
#X obj 37 59 t b s;
#X obj 36 124 pack s s;
#X msg 32 156 open \$1 \$2;
#X obj 295 80 bng 15 250 50 0 empty empty empty 17 7 0 10 -262144 -1
-1;
#X obj 348 105 hcs/folder_list;
#X obj 333 17 bng 15 250 50 0 empty empty empty 17 7 0 10 -262144 -1
-1;
#X obj 464 32 list append \$1;
#X obj 346 228 iemlib/splitfilename /;
#X obj 465 80 makefilename ../../*/*/%s.pd;
#X obj 345 47 t b b b;
#X obj 348 155 spigot 1;
#X obj 348 178 t s b;
#X msg 439 181 0;
#X msg 390 71 1;
#X connect 0 0 13 0;
#X connect 2 0 5 0;
#X connect 3 0 2 0;
#X connect 4 0 2 0;
#X connect 4 1 5 1;
#X connect 5 0 6 0;
#X connect 6 0 1 0;
#X connect 7 0 8 0;
#X connect 8 0 14 0;
#X connect 9 0 13 0;
#X connect 10 0 12 0;
#X connect 11 0 4 0;
#X connect 12 0 8 1;
#X connect 13 0 8 0;
#X connect 13 1 10 0;
#X connect 13 2 17 0;
#X connect 14 0 15 0;
#X connect 15 0 11 0;
#X connect 15 1 16 0;
#X connect 16 0 14 1;
#X connect 17 0 14 1;
#X restore 475 300 pd help;
#X obj 27 262 route add replace insert;
#X obj 345 128 s \$2-busy;
#X obj 358 31 declare -stdpath iemguts;
#X obj 433 518 v \$2-slot;
#X obj 239 330 route remove replace slot help mouse;
#X obj 769 392 print mouse \$1 \$2;
#X obj 1009 242 iemguts/sendcanvas 2;
#X obj 653 145 * 1;
#X obj 726 144 * 1;
#X obj 937 -20 r ZOOM;
#X obj 837 204 * 1;
#X msg 828 173 1400;
#X msg 773 214 \$1 0;
#X text 986 16 https://github.com/iem-projects/pd-iemguts/issues/8
;
#X text 1007 -17 canvasposition bugfix;
#X obj 267 461 glocal/glocal.tabwrite SLOTS_MAP;
#X obj 451 562 glocal/glocal.tabwrite SLOTS_MAP;
#X obj 28 529 glocal/glocal.receive RJ_SCENE_POSTLOAD;
#X obj 12 353 glocal/glocal.receive RJ_SCENE_PRELOAD;
#X obj 30 163 glocal/glocal.receive \$1;
#X obj 143 480 glocal/glocal.send TO_GUI;
#X obj 647 538 glocal/glocal.send TO_GUI;
#X obj 563 758 s \$2-embedding_mode;
#X obj 557 684 loadbang;
#X msg 563 726 2;
#X text 593 717 embedding node 2 = pdracksbay;
#X connect 0 0 62 0;
#X connect 1 0 65 0;
#X connect 2 0 12 0;
#X connect 3 0 0 0;
#X connect 4 0 61 0;
#X connect 5 0 4 1;
#X connect 6 0 76 0;
#X connect 7 0 2 0;
#X connect 7 1 6 0;
#X connect 8 0 3 0;
#X connect 9 0 5 0;
#X connect 10 0 1 0;
#X connect 11 0 1 1;
#X connect 13 0 14 0;
#X connect 13 1 17 0;
#X connect 13 1 16 0;
#X connect 14 0 15 0;
#X connect 15 0 18 0;
#X connect 16 0 18 0;
#X connect 17 0 14 0;
#X connect 21 0 13 0;
#X connect 22 0 25 0;
#X connect 23 0 24 0;
#X connect 24 0 68 0;
#X connect 25 0 69 0;
#X connect 26 0 23 0;
#X connect 26 1 22 0;
#X connect 28 0 27 0;
#X connect 29 0 53 0;
#X connect 30 1 26 0;
#X connect 32 1 35 0;
#X connect 35 0 36 0;
#X connect 39 0 77 0;
#X connect 40 0 41 0;
#X connect 41 0 82 0;
#X connect 43 0 59 0;
#X connect 43 0 64 0;
#X connect 43 1 39 0;
#X connect 43 2 77 1;
#X connect 43 3 40 0;
#X connect 46 0 50 0;
#X connect 46 0 57 0;
#X connect 47 0 46 0;
#X connect 47 1 48 0;
#X connect 47 2 7 0;
#X connect 48 0 51 0;
#X connect 49 0 81 0;
#X connect 51 1 49 0;
#X connect 52 0 72 0;
#X connect 53 0 52 0;
#X connect 53 1 54 0;
#X connect 54 0 52 0;
#X connect 55 0 30 0;
#X connect 56 0 48 1;
#X connect 58 0 76 1;
#X connect 61 0 38 0;
#X connect 61 1 37 0;
#X connect 61 2 44 0;
#X connect 65 0 7 0;
#X connect 65 1 32 0;
#X connect 65 2 43 0;
#X connect 65 3 60 0;
#X connect 65 4 66 0;
#X connect 65 4 67 0;
#X connect 68 0 28 0;
#X connect 69 0 28 1;
#X connect 70 0 68 1;
#X connect 70 0 69 1;
#X connect 70 0 71 1;
#X connect 71 0 73 0;
#X connect 72 0 71 0;
#X connect 73 0 27 0;
#X connect 78 0 45 0;
#X connect 79 0 47 0;
#X connect 80 0 4 0;
#X connect 84 0 85 0;
#X connect 85 0 83 0;
#X coords 0 -1 1 1 120 60 1 100 100;
