#N canvas 0 57 1920 1023 16;
#N canvas 0 50 450 300 \$0-dynamic_stuff 1;
#X restore 487 167 pd \$0-dynamic_stuff;
#X obj 38 491 s pd-\$0-dynamic_stuff;
#X obj 47 135 select 0;
#X obj 33 40 loadbang;
#X obj 45 71 metro 2000;
#X msg 110 423 clear;
#X msg 42 299 loadbang;
#X obj 74 361 list prepend obj 10 10;
#X obj 74 390 list trim;
#X obj 74 332 list append \$2 \$3 \$4 \$5 \$6;
#X obj 46 219 t b b b b;
#X obj 354 372 symbol \$1;
#X msg 246 414 obj 10 40 r \$1-exists? \, obj 10 70 s \$1-exists! \,
connect 0 0 1 0;
#X obj 48 103 exists \$1;
#X obj 10 545 s \$1.loadbang;
#X obj 14 264 t b b;
#X connect 2 0 10 0;
#X connect 3 0 4 0;
#X connect 4 0 13 0;
#X connect 5 0 1 0;
#X connect 6 0 1 0;
#X connect 7 0 8 0;
#X connect 8 0 1 0;
#X connect 9 0 7 0;
#X connect 10 0 15 0;
#X connect 10 1 9 0;
#X connect 10 2 11 0;
#X connect 10 3 5 0;
#X connect 11 0 12 0;
#X connect 12 0 1 0;
#X connect 13 0 2 0;
#X connect 15 0 14 0;
#X connect 15 1 6 0;
