#N canvas 0 50 633 410 10;
#X obj 151 137 pdr_compute_envelope;
#X msg 186 101 set \$1-tab1-l \$1-tab1-r \$1-tab1.peak;
#X obj 189 71 f \$0;
#X obj 135 19 bng 15 250 50 0 empty empty compute 17 7 0 10 -262144
-1 -1;
#X obj 493 33 openpanel;
#X obj 511 164 soundfiler;
#X msg 498 126 read -resize \$1 \$2 \$3;
#X obj 493 56 list append \$0-tab1-l \$0-tab1-r;
#X floatatom 151 160 10 0 0 0 - - -;
#X floatatom 511 187 10 0 0 0 - - -;
#X obj 431 18 bng 15 250 50 0 empty empty empty 17 7 0 10 -262144 -1
-1;
#X obj 347 241 array define \$0-tab1-r;
#X obj 350 288 array define \$0-tab1.peak;
#X obj 347 201 array define \$0-tab1-l;
#X obj 187 40 loadbang;
#X connect 0 0 8 0;
#X connect 1 0 0 0;
#X connect 2 0 1 0;
#X connect 3 0 0 0;
#X connect 4 0 7 0;
#X connect 5 0 9 0;
#X connect 6 0 5 0;
#X connect 7 0 6 0;
#X connect 10 0 4 0;
#X connect 14 0 2 0;
