#N canvas 620 87 697 891 12;
#X obj 75 30 inlet;
#X obj 161 103 list;
#X obj 246 119 unpack s s s;
#X obj 98 202 array size;
#X obj 101 228 / 1024;
#X obj 260 288 array size;
#X msg 101 307 1;
#X obj 39 290 t b b;
#X obj 340 695 f;
#X obj 46 481 tabplay~;
#X msg 181 328 set \$1;
#X obj 104 520 env~;
#X obj 109 480 tabplay~;
#X msg 238 328 set \$1;
#X obj 102 556 / 106;
#X obj 97 814 array set;
#X obj 92 745 t f b;
#X obj 123 779 f;
#X obj 176 781 + 1;
#X obj 342 759 outlet done;
#X obj 69 168 t b b s s b;
#X msg 202 538 0;
#X obj 427 562 log;
#X floatatom 427 587 5 0 0 0 - - -;
#X msg 426 460 1;
#X msg 472 461 0.1;
#X obj 102 417 switch~ 1024 1 16;
#X obj 13 560 max 0.1;
#X obj 13 585 min 1;
#X obj 13 610 log;
#X obj 13 635 + 2.3;
#X obj 13 660 / 2.3;
#X obj 88 74 route bang set;
#X obj 75 133 symbol;
#X obj 88 99 t b;
#X obj 108 597 - 0.3;
#X obj 108 622 max 0;
#X connect 0 0 32 0;
#X connect 1 0 2 0;
#X connect 2 0 33 1;
#X connect 2 1 13 0;
#X connect 2 2 15 2;
#X connect 2 2 5 1;
#X connect 3 0 4 0;
#X connect 4 0 8 1;
#X connect 4 0 5 0;
#X connect 6 0 26 0;
#X connect 7 0 9 0;
#X connect 7 0 12 0;
#X connect 7 1 6 0;
#X connect 8 0 19 0;
#X connect 9 0 11 0;
#X connect 9 1 8 0;
#X connect 10 0 9 0;
#X connect 11 0 14 0;
#X connect 12 0 11 0;
#X connect 13 0 12 0;
#X connect 14 0 35 0;
#X connect 16 0 15 0;
#X connect 16 1 17 0;
#X connect 17 0 18 0;
#X connect 17 0 15 1;
#X connect 18 0 17 1;
#X connect 20 0 7 0;
#X connect 20 1 3 0;
#X connect 20 2 3 1;
#X connect 20 3 10 0;
#X connect 20 4 21 0;
#X connect 21 0 17 1;
#X connect 22 0 23 0;
#X connect 24 0 22 0;
#X connect 25 0 22 0;
#X connect 27 0 28 0;
#X connect 28 0 29 0;
#X connect 29 0 30 0;
#X connect 30 0 31 0;
#X connect 32 0 34 0;
#X connect 32 1 1 0;
#X connect 33 0 20 0;
#X connect 34 0 33 0;
#X connect 35 0 36 0;
#X connect 36 0 16 0;
