#N canvas 570 167 450 300 10;
#X declare -path pdr/core;
#X declare -path pdr/core/rj;
#X declare -path pdr/core/stuff;
#X obj 284 54 declare -path pdr/core;
#X obj 284 84 declare -path pdr/core/rj;
#X obj 284 114 declare -path pdr/core/stuff;
#X obj 268 195 u_dispatch \$0 beat;
#X obj 32 89 round_param \$0 beat;
#X obj 270 161 module_loader this \$0;
#X obj 46 129 ui_vs \$0 beat 0 32;
#X text 21 12 Enables rounding input parameter;
#X msg 205 129 beat 4.4;
#X obj 31 50 tgl 15 1 empty empty empty 17 7 0 10 -262144 -1 -1 1 1
;
#X connect 5 0 3 0;
#X connect 8 0 5 0;
#X connect 9 0 4 0;
