#N canvas 0 50 933 507 16;
#X obj 73 33 inlet;
#X obj 73 315 outlet;
#X obj 258 315 outlet;
#X obj 134 94 loadbang;
#X obj 134 152 select 0;
#X obj 134 181 t b b;
#X msg 484 134 1;
#X text 398 25 abstraction that is loaded if pd-0.49-savestate object
doesn't exist, f 33;
#X obj 616 144 v pd_version;
#X obj 613 78 loadbang;
#X msg 613 107 0.48;
#X obj 133 253 print pdr;
#X msg 131 217 warning : you are using pd < 0.49 : savestate unsupported
;
#X obj 134 123 v ___savestate_pre0.49_warning;
#X connect 3 0 13 0;
#X connect 4 0 5 0;
#X connect 5 0 12 0;
#X connect 5 1 6 0;
#X connect 6 0 13 0;
#X connect 9 0 10 0;
#X connect 10 0 8 0;
#X connect 12 0 11 0;
#X connect 13 0 4 0;
