#N canvas 488 77 753 681 10;
#X obj 203 61 inlet~;
#X obj 273 61 inlet~;
#X obj 77 98 loadbang;
#X obj 115 222 tabwrite SLOTS_MAP;
#X obj 117 187 pack f \$1;
#X obj 124 151 f \$0;
#X obj 176 103 s~ \$0-send-0;
#X obj 274 103 s~ \$0-send-1;
#X obj 130 131 bng 15 250 50 0 empty empty empty 17 7 0 10 -262144
-1 -1;
#N canvas 416 113 718 686 glocal.dollarzero 0;
#X obj 379 7 loadbang;
#X obj 379 66 v GLOCAL.current;
#X obj 379 95 select 0;
#X obj 155 66 spigot 1;
#X msg 456 146 0;
#X text 501 28 hot plug;
#X obj 380 36 delay 1;
#X obj 155 37 r GLOCAL.base;
#X obj 155 101 moses \$0;
#X obj 155 150 max;
#X obj 155 179 t f f;
#X obj 234 229 outlet;
#X connect 0 0 6 0;
#X connect 1 0 2 0;
#X connect 2 1 4 0;
#X connect 2 1 11 0;
#X connect 3 0 8 0;
#X connect 4 0 3 1;
#X connect 6 0 1 0;
#X connect 7 0 3 0;
#X connect 8 0 9 0;
#X connect 9 0 10 0;
#X connect 10 0 11 0;
#X connect 10 1 9 1;
#X restore 429 76 pd glocal.dollarzero;
#X obj 429 99 t b f;
#X obj 476 128 f;
#X floatatom 476 151 5 0 0 0 - - -;
#X obj 478 102 bng 15 250 50 0 empty empty empty 17 7 0 10 -262144
-1 -1;
#X msg 424 174 set \$1-SLOTS_MAP;
#X obj 429 213 print slot~-\$0;
#X connect 0 0 6 0;
#X connect 1 0 7 0;
#X connect 2 0 5 0;
#X connect 4 0 3 0;
#X connect 5 0 4 0;
#X connect 8 0 5 0;
#X connect 9 0 10 0;
#X connect 10 0 5 0;
#X connect 10 1 11 0;
#X connect 11 0 14 0;
#X connect 11 0 12 0;
#X connect 13 0 11 0;
#X connect 14 0 3 0;
#X connect 14 0 15 0;
