#N canvas 0 57 1920 1023 10;
#X obj 85 53 inlet;
#X obj 88 133 list trim;
#X obj 88 155 route list;
#X obj 134 269 list split 1;
#X obj 250 267 list split 1;
#X obj 240 405 list prepend low_key;
#X obj 368 454 list prepend high_key;
#X obj 237 557 outlet;
#X obj 174 298 route bang;
#X obj 304 298 route bang;
#X obj 33 243 spigot;
#X msg 173 230 1;
#X msg 197 450 EOM;
#X msg 260 227 0;
#X text 333 153 EOM = End Of Mapping;
#X obj 23 283 unpack f f;
#X obj 23 305 t f f;
#X obj 23 387 list prepend;
#X obj 23 424 list append;
#X obj 23 446 route 1 0;
#X text 63 469 si la note entrante ne satisfait pas le test \, faire
suivre à la cellule suivante;
#X floatatom 565 733 8 0 0 1 duration_in_samples - -;
#X floatatom 538 753 8 0 0 1 duration_in_ms - -;
#X symbolatom 511 773 12 0 0 1 table_name - -;
#X msg 546 166 open file_not_found.wav;
#X obj 511 690 unpack s f f f;
#X floatatom 592 713 6 0 0 1 samplerate - -;
#X obj 370 237 list split 1;
#X obj 404 298 route bang;
#X obj 469 350 list prepend filename;
#X obj 388 593 list prepend;
#X obj 390 647 t s s;
#X obj 400 680 select symbol;
#X msg 398 620 symbol \$1/\$2;
#X obj 570 237 list split 1;
#X obj 604 298 route bang;
#X obj 669 350 list prepend root_key;
#X obj 34 521 unpack f f;
#X obj 115 559 -;
#X obj 115 585 mtof;
#X obj 114 606 / 8.1758;
#X obj 588 68 r \$1-path;
#X obj 35 790 s \$1-u_mapped_samplebank_output;
#X obj 25 561 t b f f;
#X obj 69 673 pack f f;
#X obj 24 616 f;
#X obj 24 638 select 0;
#X obj 28 697 list append;
#X msg 25 720 \$1 remove;
#X obj 118 697 list append;
#X msg 124 719 \$2 \$1 \$3;
#X obj 127 744 list append \$0-sample;
#X obj 385 101 tgl 15 0 empty empty empty 17 7 0 10 -262144 -1 -1 0
1;
#X obj 370 101 bng 15 250 50 0 empty empty empty 17 7 0 10 -262144
-1 -1;
#X obj 55 348 expr ($f1>=$f2)&&($f1<($f3+1));
#X obj 750 237 list split 1;
#X obj 784 298 route bang;
#X obj 369 798 list append 44100;
#X text 284 771 sample rate;
#X obj 849 350 list prepend sr;
#X obj 411 827 list append;
#X msg 775 693 260230;
#X obj 890 237 list split 1;
#X obj 924 298 route bang;
#X obj 989 350 list prepend transpose;
#X obj 114 628 list prepend 1;
#X obj 114 650 route 1;
#X msg 193 664 1;
#X obj 320 101 tgl 15 0 empty empty last 17 7 0 10 -262144 -1 -1 0
1;
#X obj 749 584 s \$1-sr;
#X obj 947 579 unpack f f;
#X msg 566 623 resize 4e+06 \, open \$1;
#X msg 559 531 resize 400000;
#X obj 565 656 u_samplebank2 \$0-sample;
#X obj 1075 232 list split 1;
#X obj 1109 293 route bang;
#X obj 1215 232 list split 1;
#X obj 1249 293 route bang;
#X obj 1174 345 list prepend start;
#X obj 1314 345 list prepend end;
#X obj 416 857 list append 0;
#X obj 413 886 list append 1;
#X floatatom 255 101 5 0 0 0 - - -;
#X floatatom 289 101 5 0 0 0 - - -;
#X obj 1369 237 list split 1;
#X obj 1403 298 route bang;
#X obj 1554 232 list split 1;
#X obj 1588 293 route bang;
#X obj 1694 232 list split 1;
#X obj 1728 293 route bang;
#X obj 1468 350 list prepend playmode;
#X obj 1653 345 list prepend reverse;
#X obj 1793 345 list prepend gain;
#X obj 413 948 list append 1;
#X obj 413 908 list append 0;
#X obj 413 928 list append 0;
#X text 507 906 playmode;
#X text 508 924 reverse;
#X text 507 949 gain;
#N canvas 0 50 1223 786 detect-pdr-relative-path 0;
#X obj 93 36 inlet;
#X obj 60 404 outlet;
#X obj 97 94 symbol;
#X obj 107 147 list fromsymbol;
#X obj 107 171 route 47;
#X text 184 183 path begins with "/" ?;
#X msg 109 209 1, f 4;
#X msg 159 210 0;
#X obj 71 250 list prepend 0;
#X obj 71 273 route 0 1;
#X msg 50 367 \$1/\$2;
#X obj 50 343 list prepend ../../medias/sounds/soundfonts;
#X obj 97 117 t s s s;
#X obj 113 310 symbol;
#X text 255 42 path beginning without "/" -> prepend pdr/media/sounds
folder path;
#X text 256 100 path absolute or relative to parent patch : keep unchanged
;
#X connect 0 0 2 0;
#X connect 2 0 12 0;
#X connect 3 0 4 0;
#X connect 4 0 6 0;
#X connect 4 1 7 0;
#X connect 6 0 8 1;
#X connect 7 0 8 1;
#X connect 8 0 9 0;
#X connect 9 0 11 0;
#X connect 9 1 13 0;
#X connect 10 0 1 0;
#X connect 11 0 10 0;
#X connect 12 0 8 0;
#X connect 12 1 3 0;
#X connect 12 2 13 1;
#X connect 13 0 1 0;
#X restore 457 536 pd detect-pdr-relative-path;
#N canvas 0 50 544 499 wait_and_dump 0;
#X obj 78 110 list append;
#X obj 178 110 list append;
#X obj 73 42 t b a;
#X obj 180 40 t b a;
#X obj 87 358 outlet;
#X obj 197 356 outlet;
#X obj 72 15 inlet;
#X obj 182 15 inlet;
#X obj 122 243 &&;
#X obj 131 167 t b b;
#X msg 153 202 1;
#X msg 98 196 1;
#X obj 122 266 select 1;
#X obj 122 289 t b b;
#X text 201 151 bufferizes 2 inlets data befor pushing them out, f
27;
#X connect 0 0 4 0;
#X connect 1 0 5 0;
#X connect 2 0 11 0;
#X connect 2 1 0 1;
#X connect 3 0 9 0;
#X connect 3 1 1 1;
#X connect 6 0 2 0;
#X connect 7 0 3 0;
#X connect 8 0 12 0;
#X connect 9 0 8 0;
#X connect 9 1 10 0;
#X connect 10 0 8 1;
#X connect 11 0 8 0;
#X connect 12 0 13 0;
#X connect 13 0 0 0;
#X connect 13 1 1 0;
#X restore 385 555 pd wait_and_dump;
#X obj 945 543 r \$1-sample-extern;
#X text 1080 541 <-------------- ????????????????????;
#X obj 155 183 route low_key high_key EOM filename root_key sr transpose
start end playmode reverse gain path, f 98;
#X obj 1914 232 list split 1;
#X obj 1948 293 route bang;
#X obj 2013 345 list prepend path;
#X text 657 67 for backwards compatibility;
#X connect 0 0 1 0;
#X connect 1 0 2 0;
#X connect 2 0 10 0;
#X connect 2 1 103 0;
#X connect 3 0 54 1;
#X connect 3 0 82 0;
#X connect 3 1 8 0;
#X connect 4 0 54 2;
#X connect 4 0 83 0;
#X connect 4 1 9 0;
#X connect 5 0 7 0;
#X connect 6 0 7 0;
#X connect 8 0 12 0;
#X connect 8 1 5 0;
#X connect 9 0 12 0;
#X connect 9 1 6 0;
#X connect 10 0 15 0;
#X connect 11 0 10 1;
#X connect 11 0 52 0;
#X connect 12 0 7 0;
#X connect 13 0 10 1;
#X connect 13 0 52 0;
#X connect 15 0 16 0;
#X connect 15 1 18 1;
#X connect 16 0 17 0;
#X connect 16 1 54 0;
#X connect 17 0 18 0;
#X connect 18 0 19 0;
#X connect 19 0 53 0;
#X connect 19 0 37 0;
#X connect 19 1 7 0;
#X connect 25 0 23 0;
#X connect 25 0 51 1;
#X connect 25 1 22 0;
#X connect 25 2 21 0;
#X connect 25 2 60 1;
#X connect 25 3 26 0;
#X connect 25 3 69 0;
#X connect 25 3 57 1;
#X connect 27 0 100 0;
#X connect 27 1 28 0;
#X connect 28 1 29 0;
#X connect 29 0 7 0;
#X connect 30 0 33 0;
#X connect 31 0 32 1;
#X connect 31 1 32 0;
#X connect 32 1 71 0;
#X connect 33 0 31 0;
#X connect 34 0 38 1;
#X connect 34 1 35 0;
#X connect 35 1 36 0;
#X connect 36 0 7 0;
#X connect 37 0 43 0;
#X connect 37 1 45 1;
#X connect 38 0 39 0;
#X connect 39 0 40 0;
#X connect 40 0 65 0;
#X connect 41 0 99 0;
#X connect 43 0 45 0;
#X connect 43 1 44 0;
#X connect 43 2 38 0;
#X connect 44 0 47 1;
#X connect 44 0 49 1;
#X connect 45 0 46 0;
#X connect 46 0 47 0;
#X connect 46 1 49 0;
#X connect 47 0 48 0;
#X connect 48 0 42 0;
#X connect 49 0 50 0;
#X connect 50 0 51 0;
#X connect 51 0 57 0;
#X connect 54 0 17 1;
#X connect 54 0 68 0;
#X connect 55 0 57 1;
#X connect 55 1 56 0;
#X connect 56 1 59 0;
#X connect 57 0 60 0;
#X connect 59 0 7 0;
#X connect 60 0 80 0;
#X connect 61 0 60 1;
#X connect 62 0 65 1;
#X connect 62 1 63 0;
#X connect 63 1 64 0;
#X connect 64 0 7 0;
#X connect 65 0 66 0;
#X connect 66 0 44 1;
#X connect 66 1 67 0;
#X connect 67 0 44 1;
#X connect 70 0 60 1;
#X connect 70 1 57 1;
#X connect 71 0 73 0;
#X connect 72 0 73 0;
#X connect 73 0 25 0;
#X connect 74 0 80 1;
#X connect 74 1 75 0;
#X connect 75 1 78 0;
#X connect 76 0 81 1;
#X connect 76 1 77 0;
#X connect 77 1 79 0;
#X connect 78 0 7 0;
#X connect 79 0 7 0;
#X connect 80 0 81 0;
#X connect 81 0 94 0;
#X connect 84 0 94 1;
#X connect 84 1 85 0;
#X connect 85 1 90 0;
#X connect 86 0 95 1;
#X connect 86 1 87 0;
#X connect 87 1 91 0;
#X connect 88 0 93 1;
#X connect 88 1 89 0;
#X connect 89 1 92 0;
#X connect 90 0 7 0;
#X connect 91 0 7 0;
#X connect 92 0 7 0;
#X connect 93 0 42 0;
#X connect 94 0 95 0;
#X connect 95 0 93 0;
#X connect 99 0 100 1;
#X connect 100 0 30 0;
#X connect 100 1 30 1;
#X connect 101 0 70 0;
#X connect 103 0 3 0;
#X connect 103 0 11 0;
#X connect 103 1 4 0;
#X connect 103 2 13 0;
#X connect 103 2 12 0;
#X connect 103 2 72 0;
#X connect 103 3 27 0;
#X connect 103 4 34 0;
#X connect 103 5 55 0;
#X connect 103 6 62 0;
#X connect 103 7 74 0;
#X connect 103 8 76 0;
#X connect 103 9 84 0;
#X connect 103 10 86 0;
#X connect 103 11 88 0;
#X connect 103 12 104 0;
#X connect 104 0 99 0;
#X connect 104 1 105 0;
#X connect 105 1 106 0;
#X connect 106 0 7 0;
#X coords 0 -1 1 1 300 18 1 100 100;
