#N canvas 0 58 1920 1023 12;
#X obj 291 56 pdcontrol;
#X obj 67 129 list fromsymbol;
#X obj 319 130 list fromsymbol;
#X obj 281 160 list append;
#X floatatom 39 243 5 0 0 0 - - -;
#X floatatom 288 253 5 0 0 0 - - -;
#X obj 279 329 list tosymbol;
#X symbolatom 279 354 10 0 0 0 - - -;
#X obj 62 327 list tosymbol;
#X symbolatom 62 352 10 0 0 0 - - -;
#X obj 65 192 list split 1;
#X obj 290 233 list split 1;
#X obj 33 269 select;
#X obj 39 394 t b b;
#X obj 81 146 list append;
#X symbolatom 306 91 80 0 0 0 - - -;
#X symbolatom 16 111 80 0 0 0 - - -;
#X obj 77 298 t b b;
#X obj 103 480 list append;
#X obj 274 403 list append;
#X obj 278 436 list tosymbol;
#X obj 64 168 t l l;
#X obj 271 184 t l l;
#X symbolatom 276 463 80 0 0 0 - - -;
#X symbolatom 51 689 80 0 0 0 - - -;
#X text 348 490 transformer en ../../../;
#X text 324 592 Chemin relatif = (remontee repertoires B)+A;
#X obj 700 546 list split 1;
#X obj 653 592 select 47 92;
#X msg 939 788 ../;
#X msg 784 679 46 46 47;
#X obj 827 709 list prepend;
#X obj 649 732 list append;
#X obj 654 633 t b b;
#X obj 856 737 t l l;
#X obj 778 825 list append;
#X obj 52 564 list prepend;
#X obj 51 660 list tosymbol;
#X text 936 721 supprimer tous les caracteres sauf / qui est remplacé
par ../, f 66;
#X text 372 52 chemin absolu du répertoire du patch;
#X obj 36 46 t s b b b;
#X obj 72 5 inlet;
#X obj 35 740 outlet;
#X obj 173 39 f \$1;
#X msg 291 33 dir \$1;
#X msg 359 15 10;
#X symbolatom 174 810 80 0 0 0 - - -;
#X obj 174 781 list tosymbol;
#X obj 59 483 bng 15 250 50 0 empty empty empty 17 7 0 10 -262144 -1
-1;
#X obj 172 301 list append;
#X obj 52 217 t f f;
#X obj 102 238 select 47;
#X obj 325 293 list append;
#X obj 137 269 t b b;
#X obj 11 18 openpanel;
#X obj 8 59 bng 15 250 50 0 empty empty empty 17 7 0 10 -262144 -1
-1;
#X symbolatom 790 896 80 0 0 0 - - -;
#X obj 790 867 list tosymbol;
#X obj 798 783 bng 15 250 50 0 empty empty empty 17 7 0 10 -262144
-1 -1;
#X obj 758 602 bng 15 250 50 0 empty empty empty 17 7 0 10 -262144
-1 -1;
#X obj 691 662 t b;
#X obj 77 522 route 47;
#X obj 695 514 t l b b;
#X connect 0 0 2 0;
#X connect 0 0 15 0;
#X connect 1 0 14 0;
#X connect 2 0 3 0;
#X connect 3 0 22 0;
#X connect 4 0 8 0;
#X connect 4 0 12 0;
#X connect 5 0 6 0;
#X connect 5 0 12 1;
#X connect 6 0 7 0;
#X connect 8 0 9 0;
#X connect 10 0 50 0;
#X connect 10 1 14 1;
#X connect 11 0 5 0;
#X connect 11 1 3 1;
#X connect 12 0 13 0;
#X connect 12 1 17 0;
#X connect 13 0 14 0;
#X connect 13 1 3 0;
#X connect 14 0 21 0;
#X connect 17 0 18 0;
#X connect 17 1 19 0;
#X connect 18 0 47 0;
#X connect 18 0 61 0;
#X connect 19 0 20 0;
#X connect 19 0 62 0;
#X connect 20 0 23 0;
#X connect 21 0 10 0;
#X connect 21 1 49 1;
#X connect 22 0 11 0;
#X connect 22 1 52 1;
#X connect 27 0 28 0;
#X connect 27 1 32 1;
#X connect 27 2 35 0;
#X connect 27 2 59 0;
#X connect 28 0 33 0;
#X connect 28 1 33 0;
#X connect 28 2 60 0;
#X connect 30 0 31 0;
#X connect 31 0 34 0;
#X connect 32 0 27 0;
#X connect 33 0 32 0;
#X connect 33 1 30 0;
#X connect 34 0 31 1;
#X connect 34 1 35 1;
#X connect 35 0 36 1;
#X connect 35 0 57 0;
#X connect 36 0 37 0;
#X connect 37 0 24 0;
#X connect 37 0 42 0;
#X connect 40 0 16 0;
#X connect 40 0 1 0;
#X connect 40 1 43 0;
#X connect 40 2 14 1;
#X connect 40 3 3 1;
#X connect 41 0 40 0;
#X connect 43 0 44 0;
#X connect 44 0 0 0;
#X connect 45 0 44 0;
#X connect 47 0 46 0;
#X connect 48 0 18 0;
#X connect 49 0 18 1;
#X connect 50 0 4 0;
#X connect 50 1 51 0;
#X connect 51 0 53 0;
#X connect 52 0 19 1;
#X connect 53 0 49 0;
#X connect 53 1 52 0;
#X connect 54 0 40 0;
#X connect 55 0 54 0;
#X connect 57 0 56 0;
#X connect 58 0 35 0;
#X connect 60 0 32 0;
#X connect 61 0 36 0;
#X connect 61 1 36 0;
#X connect 62 0 27 0;
#X connect 62 1 35 1;
#X connect 62 2 31 1;
