#N canvas 799 322 1120 647 10;
#X obj 405 304 openpanel;
#X obj 314 208 bng 20 250 50 0 empty empty open-sample 0 -6 1 10 -262144
-1 -1;
#X obj 67 54 inlet;
#X obj 67 90 list trim;
#X obj 405 371 symbol;
#X obj 534 281 list append \$2;
#X obj 534 304 select 0;
#X obj 534 257 loadbang;
#X obj 260 361 / 1000;
#X obj 260 340 r \$0-sr;
#X obj 67 167 s \$0-sr;
#X obj 197 323 t a a;
#X obj 108 491 outlet;
#X obj 472 304 list;
#X obj 405 206 b;
#X msg 494 363 bang;
#X obj 405 402 list append \$1;
#X obj 336 594 s \$0-samples;
#X obj 133 221 r \$0-samples;
#X obj 197 302 f;
#X obj 108 383 symbol \$1;
#X obj 405 165 route bang;
#X obj 108 463 list;
#X obj 108 251 t b a;
#X obj 217 411 r \$0-sr;
#N canvas 172 83 586 377 LICENSE-GPL 0;
#X text 57 88 This program is free software: you can redistribute it
and/or modify it under the terms of the GNU General Public License
as published by the Free Software Foundation \, either version 3 of
the License \, or (at your option) any later version.;
#X text 58 168 This program is distributed in the hope that it will
be useful \, but WITHOUT ANY WARRANTY \; without even the implied warranty
of MERCHANTABILITY or FITNESS FOR A PARTICULAR PURPOSE. See the GNU
General Public License for more details.;
#X text 57 261 You should have received a copy of the GNU General Public
License along with this program. If not \, see <http://www.gnu.org/licenses/>.
;
#X text 61 54 Copyright (C) 2009 \, Reality Jockey Ltd.;
#X text 60 325 See the file LICENSE.txt for the full license text.
;
#X restore 522 59 pd LICENSE-GPL;
#X obj 515 159 r RJLIB;
#X obj 515 180 route sf-samplerate;
#X obj 515 202 s \$0-sr;
#X text 511 138 Allow global setting of soundfile samplerate;
#X obj 197 361 / 44.1;
#X obj 546 571 s \$0-sr;
#X msg 546 551 \$1;
#X text 634 441 à partir de pd 0.48;
#X text 854 85 1e+07;
#X obj 336 565 min \$3;
#X obj 298 511 sndfiler;
#X text 672 281 <---- ouverture d'un fichier par défaut;
#X obj 108 437 pack s 0 0 44100;
#X obj 920 161 array size \$1-1;
#X floatatom 920 183 10 0 0 0 - - -;
#X obj 918 129 bng 15 250 50 0 empty empty empty 17 7 0 10 -262144
-1 -1;
#X msg 424 434 read \$1 \$2-1 \$2-2;
#X obj 67 122 route sr info open resize;
#X obj 355 86 array size \$1-1;
#X obj 355 116 array size \$1-2;
#X obj 270 186 change \$3;
#X obj 514 93 array define \$1-1;
#X obj 514 115 array define \$1-2;
#N canvas 0 50 1263 963 sndfiler 0;
#X obj 160 809 outlet;
#X obj 209 670 soundfiler;
#X msg 202 562 read -resize \$1 \$2 \$3;
#N canvas 0 50 819 560 sndfiler_with_readanysf~ 0;
#X obj 51 8 inlet;
#X obj 223 523 outlet;
#X obj 53 34 route read;
#X obj 179 114 list;
#X obj 61 85 route -resize -skip -raw -maxsize;
#X obj 53 56 list trim;
#X obj 118 372 *;
#X obj 150 305 samplerate~;
#N canvas 434 167 808 602 oversample 0;
#X obj 132 332 tabwrite~;
#X obj 218 327 tabwrite~;
#X msg 70 115 open \$1;
#X obj 53 288 t b b b;
#X msg 108 369 1;
#X msg 171 380 0;
#X obj 241 353 t b b b;
#X obj 74 12 inlet;
#X obj 76 460 outlet;
#X obj 114 422 switch~ 1024 1 64;
#X obj 264 466 outlet;
#X obj 71 60 unpack s s s, f 16;
#X text 631 266 autoresize;
#X obj 95 143 readanysf~ 2 16 1024;
#X msg 5 329 play;
#X obj 232 178 route ready bang length;
#X obj 601 294 * 44100;
#X obj 539 443 array size;
#X obj 637 443 array size;
#X obj 390 465 outlet;
#X obj 337 325 select 0;
#X obj 600 332 t b f f;
#X msg 147 288 set \$1;
#X msg 218 281 set \$1;
#X obj 46 227 delay 1;
#X obj 43 195 select 1;
#X obj 56 86 t b s b;
#X obj 546 230 pipe f 0;
#X obj 22 504 bang~;
#X obj 22 529 spigot;
#X obj 22 554 t b b;
#X msg 222 499 0;
#X msg 16 259 1;
#X obj 403 124 print readanysf;
#X connect 2 0 13 0;
#X connect 3 0 14 0;
#X connect 3 1 8 0;
#X connect 3 2 0 0;
#X connect 3 2 1 0;
#X connect 4 0 9 0;
#X connect 5 0 9 0;
#X connect 6 0 5 0;
#X connect 6 1 10 0;
#X connect 7 0 11 0;
#X connect 11 0 26 0;
#X connect 11 1 22 0;
#X connect 11 1 17 1;
#X connect 11 2 23 0;
#X connect 11 2 18 1;
#X connect 13 0 0 0;
#X connect 13 1 1 0;
#X connect 13 2 15 0;
#X connect 13 2 33 0;
#X connect 14 0 13 0;
#X connect 15 0 25 0;
#X connect 15 1 6 0;
#X connect 15 2 20 0;
#X connect 16 0 21 0;
#X connect 20 1 19 0;
#X connect 20 1 27 0;
#X connect 21 1 17 0;
#X connect 21 2 18 0;
#X connect 22 0 0 0;
#X connect 23 0 1 0;
#X connect 24 0 32 0;
#X connect 25 0 24 0;
#X connect 26 0 4 0;
#X connect 26 1 2 0;
#X connect 27 0 16 0;
#X connect 28 0 29 0;
#X connect 29 0 30 0;
#X connect 30 0 3 0;
#X connect 30 1 31 0;
#X connect 31 0 29 1;
#X connect 32 0 29 1;
#X restore 124 179 pd oversample;
#X obj 120 214 timer;
#X obj 120 236 * 64;
#X obj 120 258 * 0.001;
#X obj 120 280 t f b;
#X obj 120 437 spigot 1;
#X msg 176 399 1;
#X obj 179 136 t l l l b;
#X obj 286 389 * 44100;
#X obj 120 462 t b;
#X obj 120 487 f;
#X connect 0 0 2 0;
#X connect 2 0 5 0;
#X connect 3 0 15 0;
#X connect 4 0 3 0;
#X connect 4 4 3 0;
#X connect 5 0 4 0;
#X connect 6 0 13 0;
#X connect 7 0 6 1;
#X connect 8 0 9 0;
#X connect 8 1 9 1;
#X connect 8 2 16 0;
#X connect 9 0 10 0;
#X connect 10 0 11 0;
#X connect 11 0 12 0;
#X connect 12 0 6 0;
#X connect 12 1 7 0;
#X connect 13 0 17 0;
#X connect 14 0 13 1;
#X connect 15 0 8 0;
#X connect 15 3 14 0;
#X connect 16 0 18 1;
#X connect 17 0 18 0;
#X connect 18 0 1 0;
#X restore 329 682 pd sndfiler_with_readanysf~;
#X obj 345 600 list prepend 0;
#X obj 704 286 stuff/splitfilename /;
#X text 799 266 vanilla version of splitfilename;
#X obj 759 438 s \$0-displayname-rcv;
#X msg 754 405 label \$1;
#X obj 707 325 stuff/splitfilename .;
#X msg 828 406 label;
#X obj 200 268 t s s;
#X obj 907 361 select wav aiff WAV AIFF;
#X msg 937 414 0;
#X msg 1025 410 1;
#X obj 818 373 loadbang;
#N canvas 3 432 819 560 sndfiler_with_readsf~ 0;
#X obj 51 8 inlet;
#X obj 223 523 outlet;
#X obj 53 34 route read;
#X obj 179 114 list;
#X obj 61 85 route -resize -skip -raw -maxsize;
#X obj 53 56 list trim;
#X obj 118 372 *;
#X obj 150 305 samplerate~;
#N canvas 434 167 808 602 oversample 0;
#X obj 132 332 tabwrite~;
#X obj 218 327 tabwrite~;
#X msg 70 115 open \$1;
#X obj 62 279 t b b b;
#X msg 113 377 1;
#X msg 171 389 0;
#X obj 255 366 t b b b;
#X obj 74 12 inlet;
#X obj 47 423 outlet;
#X obj 114 422 switch~ 1024 1 64;
#X obj 264 466 outlet;
#X obj 71 60 unpack s s s, f 16;
#X text 635 332 autoresize;
#X obj 537 507 array size;
#X obj 635 507 array size;
#X obj 390 465 outlet;
#X obj 598 396 t b f f;
#X msg 147 288 set \$1;
#X msg 218 281 set \$1;
#X obj 12 196 delay 1;
#X obj 561 337 pipe f 0;
#X obj 158 488 bang~;
#X obj 169 527 spigot;
#X obj 169 552 t b b;
#X msg 222 499 0;
#X msg 19 240 1;
#X obj 95 175 readsf~ 2;
#N canvas 108 400 1070 404 parsing 0;
#X obj 98 21 inlet;
#N canvas 5 51 450 595 16bit-to-8bit 0;
#X obj 100 129 until;
#X obj 99 212 list store;
#X obj 100 96 t b b l;
#X obj 100 154 f;
#X obj 138 155 + 1;
#X msg 99 183 get \$1 1;
#X obj 99 293 t f f;
#X obj 154 322 >> 8;
#X obj 100 373 t f;
#X obj 100 326 & 255;
#X obj 154 345 & 255;
#X obj 99 252 * 32768;
#X obj 100 426 list store;
#X msg 100 396 append \$1;
#X msg 45 408 bang;
#X msg 145 127 0;
#X obj 93 65 t b l b;
#X obj 93 32 inlet 16bit/floatnorm;
#X obj 100 449 outlet 8bit/bytenorm;
#X connect 0 0 3 0;
#X connect 1 0 11 0;
#X connect 1 1 0 1;
#X connect 2 0 0 0;
#X connect 2 1 15 0;
#X connect 2 2 1 1;
#X connect 3 0 4 0;
#X connect 3 0 5 0;
#X connect 4 0 3 1;
#X connect 5 0 1 0;
#X connect 6 0 9 0;
#X connect 6 1 7 0;
#X connect 7 0 10 0;
#X connect 8 0 13 0;
#X connect 9 0 8 0;
#X connect 10 0 8 0;
#X connect 11 0 6 0;
#X connect 12 0 18 0;
#X connect 13 0 12 0;
#X connect 14 0 12 0;
#X connect 15 0 3 1;
#X connect 16 0 14 0;
#X connect 16 1 2 0;
#X connect 16 2 12 1;
#X connect 17 0 16 0;
#X restore 198 128 pd 16bit-to-8bit;
#N canvas 5 51 450 656 file-to-16bit 0;
#X obj 245 318 array define \$0-sndfile;
#X obj 110 328 soundfiler;
#X obj 77 233 list append \$0-sndfile;
#X floatatom 77 381 5 0 0 0 - - -;
#X obj 50 435 array get \$0-sndfile;
#X msg 50 414 0 -1;
#X obj 90 292 list trim;
#X obj 50 196 t b s;
#X obj 50 141 inlet filename;
#X obj 50 458 outlet 16bit/floatnorm;
#X text 43 68 read (any) file as 16bit soundfile \, and output samples
;
#X text 45 92 read maxsize bytes at most (actually maxsize+1 \, since
we are reading in pairs);
#X msg 88 256 read -resize -maxsize 10 -raw 0 1 2 b \$1 \$2;
#X connect 1 0 3 0;
#X connect 2 0 12 0;
#X connect 4 0 9 0;
#X connect 5 0 4 0;
#X connect 6 0 1 0;
#X connect 7 0 5 0;
#X connect 7 1 2 0;
#X connect 8 0 7 0;
#X connect 12 0 6 0;
#X restore 198 98 pd file-to-16bit;
#X obj 83 72 bng 15 250 50 0 empty empty empty 17 7 0 10 -262144 -1
-1;
#X text 292 11 https://www.isip.piconepress.com/projects/speech/software/tutorials/production/fundamentals/v1.0/section_02/s02_01_p05.html
;
#X obj 512 68 dnd/openpanel;
#X obj 778 21 bng 50 250 50 0 empty empty empty 17 7 0 10 -262144 -1
-1;
#N canvas 0 50 450 300 check_RIFF 0;
#X obj 141 16 inlet;
#X obj 95 311 outlet;
#X obj 225 319 outlet;
#X obj 171 109 list tosymbol;
#X obj 170 81 list split 4;
#X obj 129 228 list prepend;
#X obj 129 251 list trim;
#X obj 129 274 route RIFF riff;
#X symbolatom 222 139 10 0 0 0 - - -;
#X obj 143 46 t b l;
#X obj 110 192 list append;
#X connect 0 0 9 0;
#X connect 3 0 5 1;
#X connect 3 0 8 0;
#X connect 4 0 3 0;
#X connect 4 1 10 1;
#X connect 5 0 6 0;
#X connect 6 0 7 0;
#X connect 7 0 1 0;
#X connect 7 1 1 0;
#X connect 7 2 2 0;
#X connect 9 0 10 0;
#X connect 9 1 4 0;
#X connect 10 0 5 0;
#X restore 196 187 pd check_RIFF;
#N canvas 0 50 450 300 check_WAVE 0;
#X obj 61 23 inlet;
#X obj 53 253 outlet;
#X obj 172 42 t l l;
#X obj 243 112 list split 4;
#X obj 233 144 list tosymbol;
#X obj 214 74 list split 4;
#X obj 153 174 list prepend;
#X obj 153 197 list trim;
#X obj 153 220 route WAVE;
#X symbolatom 280 173 10 0 0 0 - - -;
#X obj 387 261 outlet;
#X connect 0 0 2 0;
#X connect 2 0 6 0;
#X connect 2 1 5 0;
#X connect 3 0 4 0;
#X connect 4 0 6 1;
#X connect 4 0 9 0;
#X connect 5 1 3 0;
#X connect 6 0 7 0;
#X connect 7 0 8 0;
#X connect 8 0 1 0;
#X connect 8 1 10 0;
#X restore 124 267 pd check_WAVE;
#X obj 127 364 outlet;
#N canvas 1 371 1135 847 get_filesize 0;
#X obj 61 35 inlet;
#X obj 81 180 list split 4;
#X obj 85 218 unpack f f f f;
#X obj 285 245 * 256;
#X obj 257 285 +;
#X obj 254 321 * 256;
#X obj 226 361 +;
#X obj 247 391 * 256;
#X obj 219 431 +;
#X obj 855 722 * 256;
#X obj 827 762 +;
#X floatatom 104 459 10 0 0 0 filesize - -;
#X obj 96 676 outlet;
#X obj 82 330 - 36;
#X text 30 299 header size;
#X connect 0 0 1 0;
#X connect 1 0 2 0;
#X connect 2 0 13 0;
#X connect 2 1 6 0;
#X connect 2 2 4 0;
#X connect 2 3 3 0;
#X connect 3 0 4 1;
#X connect 4 0 5 0;
#X connect 5 0 6 1;
#X connect 6 0 7 0;
#X connect 7 0 8 1;
#X connect 8 0 11 0;
#X connect 8 0 12 0;
#X connect 9 0 10 1;
#X connect 13 0 8 0;
#X restore 123 317 pd get_filesize;
#X connect 0 0 2 0;
#X connect 1 0 7 0;
#X connect 2 0 1 0;
#X connect 5 0 2 0;
#X connect 6 0 5 0;
#X connect 7 0 8 0;
#X connect 8 0 10 0;
#X connect 10 0 9 0;
#X restore 372 29 pd parsing wav header;
#X obj 6 91 t b s s s;
#X floatatom 375 57 10 0 0 0 - - -;
#X text 443 59 Right outlet outputs info as a list: samplerate \, headersize
\, num channels \, bytespersample \, & endianness ("b" or "l").;
#X obj 481 162 soundfiler;
#X obj 473 120 list append \$0-tab;
#X obj 547 189 unpack f f f f;
#X obj 605 226 *;
#X floatatom 605 272 5 0 0 0 - - -;
#X obj 487 250 /;
#X floatatom 647 208 5 0 0 0 - - -;
#X obj 533 287 t f f;
#X msg 60 151 1;
#X obj 8 147 t b b;
#X msg 479 143 read -maxsize 1 \$1 \$2 \$2;
#X obj 679 146 table \$0-tab;
#X floatatom 611 366 10 0 0 0 - - -;
#X floatatom 537 530 10 0 0 0 - - -;
#X obj 520 477 bng 15 250 50 0 empty empty empty 17 7 0 10 -262144
-1 -1;
#X connect 2 0 26 0;
#X connect 3 0 39 0;
#X connect 3 1 8 0;
#X connect 3 2 0 0;
#X connect 3 2 1 0;
#X connect 4 0 9 0;
#X connect 5 0 9 0;
#X connect 6 0 5 0;
#X connect 6 1 10 0;
#X connect 7 0 11 0;
#X connect 11 0 28 0;
#X connect 11 1 17 0;
#X connect 11 1 13 1;
#X connect 11 2 18 0;
#X connect 11 2 14 1;
#X connect 13 0 44 0;
#X connect 16 1 13 0;
#X connect 16 2 14 0;
#X connect 17 0 0 0;
#X connect 18 0 1 0;
#X connect 19 0 25 0;
#X connect 20 0 16 0;
#X connect 20 0 43 0;
#X connect 21 0 22 0;
#X connect 22 0 23 0;
#X connect 23 0 3 0;
#X connect 23 1 24 0;
#X connect 24 0 22 1;
#X connect 25 0 22 1;
#X connect 26 0 0 0;
#X connect 26 1 1 0;
#X connect 26 2 6 0;
#X connect 27 0 29 0;
#X connect 27 0 36 0;
#X connect 28 0 40 0;
#X connect 28 1 2 0;
#X connect 28 2 27 0;
#X connect 28 3 32 0;
#X connect 31 1 33 0;
#X connect 32 0 41 0;
#X connect 33 2 34 0;
#X connect 33 3 34 1;
#X connect 33 3 37 0;
#X connect 34 0 36 1;
#X connect 34 0 35 0;
#X connect 36 0 38 0;
#X connect 38 0 20 0;
#X connect 38 1 15 0;
#X connect 39 0 26 0;
#X connect 40 0 19 0;
#X connect 40 1 4 0;
#X connect 41 0 31 0;
#X connect 45 0 13 0;
#X restore 124 179 pd oversample;
#X obj 120 214 timer;
#X obj 120 236 * 64;
#X obj 120 258 * 0.001;
#X obj 120 280 t f b;
#X obj 120 437 spigot 1;
#X msg 176 399 1;
#X obj 179 136 t l l l b;
#X obj 120 462 t b;
#X obj 120 487 f;
#X floatatom 54 278 5 0 0 0 - - -;
#X floatatom 53 228 5 0 0 0 - - -;
#X obj 285 184 bng 15 250 50 0 empty empty empty 17 7 0 10 -262144
-1 -1;
#X obj 173 209 bng 15 250 50 0 empty empty empty 17 7 0 10 -262144
-1 -1;
#X connect 0 0 2 0;
#X connect 2 0 5 0;
#X connect 3 0 15 0;
#X connect 4 0 3 0;
#X connect 4 4 3 0;
#X connect 5 0 4 0;
#X connect 6 0 13 0;
#X connect 6 0 18 0;
#X connect 7 0 6 1;
#X connect 8 0 9 0;
#X connect 8 1 9 1;
#X connect 8 1 21 0;
#X connect 8 2 17 1;
#X connect 9 0 10 0;
#X connect 9 0 19 0;
#X connect 10 0 11 0;
#X connect 11 0 12 0;
#X connect 12 0 6 0;
#X connect 12 1 7 0;
#X connect 13 0 16 0;
#X connect 14 0 13 1;
#X connect 15 0 8 0;
#X connect 15 3 14 0;
#X connect 15 3 20 0;
#X connect 16 0 17 0;
#X connect 17 0 1 0;
#X restore 434 714 pd sndfiler_with_readsf~;
#X msg 973 469 2;
#X obj 345 625 route 2 1 0;
#X obj 202 537 list append \$1-1 \$1-2;
#X obj 198 114 inlet;
#X obj 198 137 route read;
#X obj 194 202 list;
#X obj 199 233 unpack s s s;
#X obj 271 432 pack s s;
#X obj 305 756 t f;
#X connect 1 0 25 0;
#X connect 2 0 4 0;
#X connect 3 0 25 0;
#X connect 4 0 18 0;
#X connect 5 1 9 0;
#X connect 8 0 7 0;
#X connect 9 0 8 0;
#X connect 9 1 12 0;
#X connect 10 0 7 0;
#X connect 11 0 19 0;
#X connect 11 1 5 0;
#X connect 12 0 13 0;
#X connect 12 1 17 0;
#X connect 12 2 13 0;
#X connect 12 3 17 0;
#X connect 12 4 14 0;
#X connect 13 0 4 1;
#X connect 14 0 4 1;
#X connect 15 0 10 0;
#X connect 16 0 25 0;
#X connect 17 0 4 1;
#X connect 18 0 1 0;
#X connect 18 1 3 0;
#X connect 18 2 16 0;
#X connect 19 0 2 0;
#X connect 20 0 21 0;
#X connect 21 0 22 0;
#X connect 22 0 23 0;
#X connect 23 0 11 0;
#X connect 23 1 24 0;
#X connect 23 2 24 1;
#X connect 24 0 19 1;
#X connect 25 0 0 0;
#X restore 434 462 pd sndfiler;
#X connect 0 0 4 0;
#X connect 1 0 0 0;
#X connect 2 0 3 0;
#X connect 3 0 43 0;
#X connect 4 0 16 0;
#X connect 5 0 6 0;
#X connect 6 1 4 0;
#X connect 7 0 5 0;
#X connect 8 0 30 1;
#X connect 9 0 8 0;
#X connect 11 0 30 0;
#X connect 11 1 38 2;
#X connect 13 0 4 0;
#X connect 14 0 0 0;
#X connect 15 0 4 0;
#X connect 16 0 42 0;
#X connect 18 0 23 0;
#X connect 19 0 11 0;
#X connect 20 0 38 0;
#X connect 21 0 14 0;
#X connect 21 1 13 0;
#X connect 22 0 12 0;
#X connect 23 0 20 0;
#X connect 23 1 19 0;
#X connect 24 0 38 3;
#X connect 26 0 27 0;
#X connect 27 0 28 0;
#X connect 30 0 38 1;
#X connect 32 0 31 0;
#X connect 35 0 17 0;
#X connect 36 0 35 0;
#X connect 36 1 32 0;
#X connect 38 0 22 0;
#X connect 39 0 40 0;
#X connect 41 0 39 0;
#X connect 42 0 49 0;
#X connect 43 0 10 0;
#X connect 43 1 23 0;
#X connect 43 2 21 0;
#X connect 43 3 46 0;
#X connect 46 0 44 0;
#X connect 46 0 45 0;
#X connect 46 0 35 1;
#X connect 49 0 17 0;
