#N canvas 885 341 1039 564 10;
#X obj 159 26 inlet;
#X obj 233 55 list prepend \$1;
#X obj 233 160 list trim;
#X obj 233 25 inlet;
#X obj 22 308 b;
#X obj 159 53 b;
#X obj 233 223 route \$1;
#X obj 543 358 b;
#X obj 543 250 spigot;
#X obj 669 72 loadbang;
#X obj 669 250 tgl 15 0 empty empty empty 17 7 0 10 -262144 -1 -1 1
1;
#X obj 669 194 select 0;
#X obj 701 141 + 1;
#X obj 669 120 t a a;
#X obj 669 216 f 1;
#X obj 226 476 outlet;
#X obj 159 450 route bang;
#X text 243 449 filter out empty lists;
#X obj 610 474 list prepend persist \$1;
#X obj 159 361 list append;
#X text 692 249 <- only the first instance responds to "save";
#X text 165 540 2007/2008 fbar;
#X text 829 95 Enhancement by Enrique Erne;
#X obj 543 425 list append;
#X obj 543 448 route bang;
#X text 627 447 filter out empty lists here \, too.;
#X obj 22 226 route set setonly;
#X obj 80 273 route \$1;
#X obj 80 251 list trim;
#X obj 608 324 route \$1;
#X obj 608 302 list trim;
#X obj 610 498 list trim;
#X obj 669 95 value \$1.\$2.SSSAD.req;
#X obj 701 164 value \$1.\$2.SSSAD.req;
#N canvas 228 198 627 317 LICENSE-BSD 0;
#X text 121 56 This software is copyrighted by Miller Puckette \, Reality
Jockey Ltd. and others. The terms (the "Standard Improved BSD License")
apply to all files associated with the software unless explicitly disclaimed
in individual files.;
#X text 123 148 See the file LICENSE.txt for the full license text.
;
#X restore 833 30 pd LICENSE-BSD;
#X obj 713 382 list append;
#X obj 813 418 route bang;
#X text 897 417 filter out empty lists here \, too.;
#X obj 703 336 t b s;
#X obj 719 308 list append;
#X obj 880 444 list prepend \$1;
#X obj 857 475 list prepend <dest>;
#X obj 543 277 route save saveonly getValuesInto saveTo;
#X obj 818 310 list prepend target;
#X obj 873 372 list append;
#X obj 921 341 list append \$1;
#N canvas 0 50 717 568 morphing 0;
#X obj 117 25 inlet;
#X obj 116 404 outlet;
#X obj 168 117 route float;
#X obj 78 91 spigot 1;
#X obj 168 89 spigot;
#X obj 215 31 r \$2-\$1-morph_enable;
#X obj 137 61 == 0;
#X obj 287 96 r MORPH.TIME;
#X obj 148 147 pack f 0;
#X obj 210 289 line;
#X obj 282 123 r MORPH.STOP;
#X msg 282 145 stop;
#X obj 377 41 inlet;
#X obj 377 132 route float;
#X msg 332 243 set \$1;
#X obj 335 208 f;
#X obj 210 312 t b f b;
#X obj 164 177 t l b;
#X obj 377 183 f;
#X obj 377 155 t f b;
#X text 419 184 previous;
#X connect 0 0 3 0;
#X connect 0 0 4 0;
#X connect 2 0 8 0;
#X connect 2 1 1 0;
#X connect 3 0 1 0;
#X connect 4 0 2 0;
#X connect 5 0 4 1;
#X connect 5 0 6 0;
#X connect 6 0 3 1;
#X connect 7 0 8 1;
#X connect 8 0 17 0;
#X connect 9 0 16 0;
#X connect 10 0 11 0;
#X connect 11 0 9 0;
#X connect 12 0 13 0;
#X connect 13 0 19 0;
#X connect 14 0 9 0;
#X connect 15 0 14 0;
#X connect 16 1 1 0;
#X connect 17 0 9 0;
#X connect 17 1 15 0;
#X connect 18 0 15 1;
#X connect 19 0 18 1;
#X connect 19 1 18 0;
#X restore 180 397 pd morphing;
#X obj 231 108 r \$2-SSSAD;
#X obj 233 84 s \$2-SSSAD;
#X obj 543 190 r \$2-SSSAD_ADMIN;
#X obj 610 522 s \$2-SSSAD_ADMIN;
#X obj 22 187 r \$2-SSSAD_ADMIN;
#X text 435 59 pdr;
#X connect 0 0 5 0;
#X connect 1 0 48 0;
#X connect 2 0 6 0;
#X connect 3 0 1 0;
#X connect 4 0 19 0;
#X connect 5 0 19 0;
#X connect 6 0 19 1;
#X connect 6 0 23 1;
#X connect 6 0 35 1;
#X connect 6 0 44 1;
#X connect 6 0 46 1;
#X connect 7 0 23 0;
#X connect 8 0 42 0;
#X connect 9 0 32 0;
#X connect 11 0 14 0;
#X connect 12 0 33 0;
#X connect 13 0 11 0;
#X connect 13 1 12 0;
#X connect 14 0 8 1;
#X connect 14 0 10 0;
#X connect 16 1 15 0;
#X connect 18 0 31 0;
#X connect 19 0 46 0;
#X connect 23 0 24 0;
#X connect 24 1 18 0;
#X connect 26 0 4 0;
#X connect 26 1 28 0;
#X connect 27 0 4 0;
#X connect 28 0 27 0;
#X connect 29 0 7 0;
#X connect 30 0 29 0;
#X connect 31 0 50 0;
#X connect 32 0 13 0;
#X connect 35 0 36 0;
#X connect 36 1 40 0;
#X connect 38 0 35 0;
#X connect 38 1 41 1;
#X connect 39 0 38 0;
#X connect 40 0 41 0;
#X connect 41 0 31 0;
#X connect 42 0 7 0;
#X connect 42 1 30 0;
#X connect 42 2 39 0;
#X connect 42 3 43 0;
#X connect 43 0 45 0;
#X connect 44 0 31 0;
#X connect 45 0 44 0;
#X connect 46 0 16 0;
#X connect 47 0 2 0;
#X connect 49 0 8 0;
#X connect 51 0 26 0;
