#N canvas 0 57 1920 1023 10;
#X msg 38 100 set \$1;
#X text 232 279 Xunits/pixel Yunits/px gop xfrom yfrom xto yto width
heught xmargin ymargin;
#X obj 199 90 t f b;
#X obj 76 188 * 100;
#X obj 78 209 + 100;
#X msg 218 314 donecanvasdialog 1 -1 1 0 0 1 1 190 70 100 \$1 \, dirty
0;
#X obj 72 272 t b f;
#X msg 225 154 donecanvasdialog 1 -1 0 0 0 1 1 190 70 100 \$1;
#X obj 227 128 f 100;
#X obj 168 40 r \$1-guitab;
#X obj 37 138 s \$1-guitab-rcv;
#X obj 272 443 s \$1-multitab;
#X text 524 144 momentary disable Graph on Parent to force redrawing
in parent canvas;
#X text 582 313 re-enable graph on parent with new values;
#X obj 73 245 pipe 10;
#X obj 54 309 delay 100;
#X msg 212 353 coords 1 -1 1 1 190 70 0 \, coords 0 0 190 70 190 70
2 100 \$1;
#X obj 48 370 list prepend 0;
#X obj 48 393 route 0 1 2;
#X text 443 27 0 = not embedded;
#X text 444 47 1 = inside container object;
#X text 444 67 2 = inside PdRacks_bay session;
#X obj 328 42 r \$1-embedding_mode;
#X floatatom 328 65 5 0 0 0 - - -;
#X msg 48 347 map 0 \, map 1;
#X obj 45 475 iemguts/sendcanvas 2;
#X obj 71 448 iemguts/sendcanvas 4;
#X obj 87 427 iemguts/sendcanvas 4;
#X text 552 407 https://github.com/pure-data/pure-data/pull/753;
#X text 517 424 that prevents from using donecanvasdialog message;
#X text 474 446 A workaround is to use coords messages and send map
messages to displayed parent. but it is very difficult to use a 100%
vanilla solution without iemguts/sendcanvas;
#X text 517 391 There is a Bug with pd 0.5 and zoom;
#X connect 0 0 10 0;
#X connect 2 0 3 0;
#X connect 2 1 8 0;
#X connect 3 0 4 0;
#X connect 4 0 8 1;
#X connect 4 0 14 0;
#X connect 5 0 11 0;
#X connect 6 0 15 0;
#X connect 6 1 16 0;
#X connect 7 0 11 0;
#X connect 9 0 0 0;
#X connect 9 0 2 0;
#X connect 14 0 6 0;
#X connect 15 0 24 0;
#X connect 16 0 11 0;
#X connect 17 0 18 0;
#X connect 18 0 25 0;
#X connect 18 1 26 0;
#X connect 18 2 27 0;
#X connect 22 0 17 1;
#X connect 22 0 23 0;
#X connect 24 0 17 0;
