#N canvas 4 50 910 685 10;
#X obj 316 48 loadbang;
#X obj 203 110 list append \$2;
#X obj 100 102 vsl 38 50 0 127 0 0 empty \$0-rcv alias 0 20 0 10 -241291
-1 -1 582 1;
#X msg 203 135 label \$1;
#X obj 69 430 int;
#X obj 101 122 cnv 1 1 1 empty \$0-cnv =1.72 0 12 0 10 -233017 -66577
0;
#X msg 73 551;
#X msg 73 494 label =\$1;
#X obj 73 529 s \$0-cnv;
#X msg 9 495 label;
#N canvas 0 50 458 308 rh_scalelog 0;
#X obj 20 155 exp;
#X obj 20 107 *;
#X obj 20 130 +;
#X obj 98 87 log;
#X obj 194 84 log;
#X obj 123 123 t b f;
#X obj 123 145 -;
#X obj 20 183 outlet;
#X obj 20 19 inlet;
#X obj 98 23 inlet;
#X obj 194 24 inlet;
#X connect 0 0 7 0;
#X connect 1 0 2 0;
#X connect 2 0 0 0;
#X connect 3 0 2 1;
#X connect 3 0 5 0;
#X connect 4 0 6 0;
#X connect 5 0 6 0;
#X connect 5 1 6 1;
#X connect 6 0 1 1;
#X connect 8 0 1 0;
#X connect 9 0 3 0;
#X connect 10 0 4 0;
#X restore 130 267 pd rh_scalelog;
#X obj 324 190 f \$3;
#X obj 354 212 f \$4;
#N canvas 0 50 458 308 inv_scalelog 0;
#X obj 98 87 log;
#X obj 194 84 log;
#X obj 123 123 t b f;
#X obj 123 145 -;
#X obj 20 183 outlet;
#X obj 20 19 inlet;
#X obj 98 23 inlet;
#X obj 194 24 inlet;
#X obj 34 65 log;
#X obj 20 130 -;
#X obj 20 156 /;
#X connect 0 0 2 0;
#X connect 0 0 9 1;
#X connect 1 0 3 0;
#X connect 2 0 3 0;
#X connect 2 1 3 1;
#X connect 3 0 10 1;
#X connect 5 0 8 0;
#X connect 6 0 0 0;
#X connect 7 0 1 0;
#X connect 8 0 9 0;
#X connect 9 0 10 0;
#X connect 10 0 4 0;
#X restore 266 377 pd inv_scalelog;
#X obj 125 242 / 127;
#X obj 621 196 * 127;
#X obj 129 291 s \$1-\$2;
#X obj 129 313 r \$1-\$2;
#X obj 311 71 t b b b;
#X obj 67 405 * 100;
#X obj 76 457 * 0.01;
#X obj 28 199 midi-colors \$1 \$2 \$0-rcv \$3 \$4 log, f 19;
#X obj 323 411 t f f;
#X obj 129 340 speed_lim;
#N canvas 0 57 1920 1023 multitouch.listener 0;
#X obj 518 338 v MULTITOUCH.SLOT.ID;
#X msg 594 478 symbol \$1-slot;
#X obj 521 388 select 0;
#X obj 569 601 s;
#X msg 565 552 send_to \$1;
#X obj 200 476 +;
#X msg 218 594 set \$1;
#X obj 673 34 inlet;
#X obj 214 624 outlet;
#X obj 514 251 spigot 1;
#X msg 700 269 0;
#X obj 237 145 route list no_mouse remove;
#X obj 565 525 list append \$0-from_slot;
#X obj 242 91 r \$0-from_slot;
#X msg 413 186 1;
#X obj 589 432 t b f b;
#X obj 513 292 t b;
#X obj 817 406 +;
#X obj 775 202 t f f b;
#X obj 842 270 f;
#X obj 778 295 -;
#X obj 367 625 outlet;
#X obj 653 126 t f f f f;
#X obj 869 197 spigot;
#X obj 900 391 == 0;
#X obj 838 452 spigot 1;
#X obj 195 257 spigot;
#X obj 215 551 t f f f f;
#X obj 960 37 inlet set;
#X obj 199 434 * 0.4;
#X obj 239 367 * -1;
#X obj 196 321 unpack f f;
#X obj 772 345 * 0.3;
#X obj 200 495 max 0;
#X obj 200 517 min 127;
#X connect 0 0 2 0;
#X connect 1 0 3 1;
#X connect 2 1 15 0;
#X connect 4 0 3 0;
#X connect 5 0 33 0;
#X connect 6 0 8 0;
#X connect 7 0 22 0;
#X connect 9 0 16 0;
#X connect 10 0 9 1;
#X connect 10 0 0 0;
#X connect 11 0 26 0;
#X connect 11 1 24 0;
#X connect 11 1 26 1;
#X connect 11 1 23 1;
#X connect 11 2 14 0;
#X connect 12 0 4 0;
#X connect 13 0 11 0;
#X connect 14 0 9 1;
#X connect 15 0 12 0;
#X connect 15 1 1 0;
#X connect 15 2 10 0;
#X connect 16 0 0 0;
#X connect 17 0 25 0;
#X connect 18 0 20 0;
#X connect 18 2 19 0;
#X connect 19 0 20 1;
#X connect 19 0 17 1;
#X connect 20 0 32 0;
#X connect 22 0 9 0;
#X connect 22 1 5 1;
#X connect 22 2 18 0;
#X connect 22 3 23 0;
#X connect 23 0 19 1;
#X connect 24 0 25 1;
#X connect 25 0 27 0;
#X connect 26 0 31 0;
#X connect 27 0 6 0;
#X connect 27 1 21 0;
#X connect 27 2 5 1;
#X connect 27 3 19 1;
#X connect 28 0 19 1;
#X connect 28 0 5 1;
#X connect 28 0 6 0;
#X connect 29 0 5 0;
#X connect 30 0 29 0;
#X connect 31 1 30 0;
#X connect 32 0 17 0;
#X connect 33 0 34 0;
#X connect 34 0 27 0;
#X restore 56 168 pd multitouch.listener y 0.4 0.3;
#X msg 71 53 label;
#X obj 262 624 s toGUI;
#X obj 321 519 list append \$2;
#X obj 262 552 list prepend;
#X obj 321 480 r \$1-module_name;
#X obj 131 365 t f f;
#X msg 262 575 /\$1/\$2/\$3 set \$2\$4;
#X connect 0 0 18 0;
#X connect 1 0 3 0;
#X connect 2 0 24 0;
#X connect 3 0 2 0;
#X connect 4 0 20 0;
#X connect 7 0 8 0;
#X connect 7 0 28 0;
#X connect 9 0 8 0;
#X connect 10 0 16 0;
#X connect 11 0 10 1;
#X connect 11 0 13 1;
#X connect 12 0 10 2;
#X connect 12 0 13 2;
#X connect 13 0 22 0;
#X connect 14 0 10 0;
#X connect 15 0 24 1;
#X connect 17 0 23 0;
#X connect 18 0 1 0;
#X connect 18 1 11 0;
#X connect 18 2 12 0;
#X connect 19 0 4 0;
#X connect 20 0 7 0;
#X connect 21 0 14 0;
#X connect 22 1 15 0;
#X connect 23 0 30 0;
#X connect 24 0 2 0;
#X connect 24 1 14 0;
#X connect 25 0 2 0;
#X connect 27 0 28 1;
#X connect 28 0 31 0;
#X connect 29 0 27 0;
#X connect 30 0 19 0;
#X connect 30 1 13 0;
#X connect 31 0 26 0;
#X coords 0 -1 1 1 38 55 2 100 100;
