#N canvas 0 50 542 520 10;
#X text 295 61 lineaire;
#X text 35 69 ui_vs \$0 name min max;
#X obj 200 313 ui_vsl \$0 freq 20 20000;
#X text 110 273 see also;
#X obj 197 157 ui_vs \$0 name 0 127;
#X coords 0 520 1 519 135 18 0;
