#N canvas 4 50 910 685 10;
#X obj 316 48 loadbang;
#X obj 203 110 list append \$2;
#X msg 203 135 label \$1;
#X obj 69 430 int;
#X msg 73 494 label =\$1;
#X msg 9 495 label;
#N canvas 0 50 458 308 rh_scalelog 0;
#X obj 20 155 exp;
#X obj 20 107 *;
#X obj 20 130 +;
#X obj 98 87 log;
#X obj 194 84 log;
#X obj 123 123 t b f;
#X obj 123 145 -;
#X obj 20 183 outlet;
#X obj 20 19 inlet;
#X obj 98 23 inlet;
#X obj 194 24 inlet;
#X connect 0 0 7 0;
#X connect 1 0 2 0;
#X connect 2 0 0 0;
#X connect 3 0 2 1;
#X connect 3 0 5 0;
#X connect 4 0 6 0;
#X connect 5 0 6 0;
#X connect 5 1 6 1;
#X connect 6 0 1 1;
#X connect 8 0 1 0;
#X connect 9 0 3 0;
#X connect 10 0 4 0;
#X restore 185 249 pd rh_scalelog;
#X obj 324 190 f \$3;
#X obj 354 212 f \$4;
#N canvas 0 50 458 308 inv_scalelog 0;
#X obj 98 87 log;
#X obj 194 84 log;
#X obj 123 123 t b f;
#X obj 123 145 -;
#X obj 20 183 outlet;
#X obj 20 19 inlet;
#X obj 98 23 inlet;
#X obj 194 24 inlet;
#X obj 34 65 log;
#X obj 20 130 -;
#X obj 20 156 /;
#X connect 0 0 2 0;
#X connect 0 0 9 1;
#X connect 1 0 3 0;
#X connect 2 0 3 0;
#X connect 2 1 3 1;
#X connect 3 0 10 1;
#X connect 5 0 8 0;
#X connect 6 0 0 0;
#X connect 7 0 1 0;
#X connect 8 0 9 0;
#X connect 9 0 10 0;
#X connect 10 0 4 0;
#X restore 266 377 pd inv_scalelog;
#X obj 180 224 / 127;
#X obj 621 196 * 127;
#X obj 184 273 s \$1-\$2;
#X obj 184 295 r \$1-\$2;
#X obj 311 71 t b b b;
#X obj 67 405 * 100;
#X obj 76 457 * 0.01;
#X obj 28 199 midi-colors \$1 \$2 \$0-rcv \$3 \$4 log, f 19;
#X obj 231 323 speed_lim;
#X obj 262 624 s toGUI;
#X obj 321 519 list append \$2;
#X obj 321 480 r \$1-module_name;
#X obj 164 395 t f f;
#X msg 262 575 /\$1/\$2/\$3 set \$2\$4;
#X msg 71 53 label empty;
#N canvas 562 135 1118 679 vfader 0;
#X obj 814 354 - 127;
#X obj 100 102 vsl 38 50 0 127 0 0 empty \$0-slider empty 0 -9 0 10
-166441 -166441 -1 428 1;
#X obj 810 649 s \$0-cnv;
#X obj 101 101 cnv 1 36 53 empty \$0-cnv empty 2 12 0 10 -195568 -66577
0;
#X obj 547 15 inlet;
#X obj 605 280 t f f;
#X obj 593 341 outlet;
#X obj 653 136 t f f;
#X msg 810 620 vis_size \$1 \$2;
#X msg 812 189 0;
#X obj 814 412 / -127;
#X obj 88 169 moses 117;
#X obj 88 198 moses 10;
#X obj 184 303 t f f;
#X msg 139 451 set \$1;
#X obj 101 503 s \$0-slider;
#X obj 83 240 + 107;
#X obj 206 238 - 107;
#X msg 240 386 \$1 -107;
#X msg 117 366 \$1 107;
#X obj 69 290 t f f;
#X obj 551 139 t f f f;
#X obj 344 111 s \$0-cnv;
#X obj 347 49 symbol;
#X msg 344 85 label \$1;
#X msg 440 17 label;
#X msg 107 61 size 38 50;
#X obj 809 579 list prepend 36;
#X msg 669 619 vis_size 36 53;
#X obj 808 517 * 53;
#X obj 278 23 loadbang;
#X obj 278 43 symbol \$2;
#X msg 278 62 label \$1;
#N canvas 0 57 1920 1023 multitouch.listener3 0;
#X obj 518 413 v MULTITOUCH.SLOT.ID;
#X msg 594 553 symbol \$1-slot;
#X obj 521 463 select 0;
#X obj 569 676 s;
#X obj 196 396 unpack f f;
#X msg 565 627 send_to \$1;
#X obj 193 673 +;
#X obj 626 66 inlet;
#X obj 513 305 spigot 1;
#X msg 592 275 0;
#X obj 237 220 route list no_mouse remove;
#X obj 565 600 list append \$0-from_slot;
#X obj 242 166 r \$0-from_slot;
#X msg 413 261 1;
#X obj 589 507 t b f b;
#X obj 513 367 t b;
#X obj 673 309 -;
#X obj 193 838 outlet;
#X obj 791 421 == 0;
#X obj 715 469 spigot 1;
#X obj 195 332 spigot;
#X obj 918 106 inlet set;
#X obj 193 702 min 127;
#X obj 193 731 max 0;
#X obj 191 773 t f f f;
#X text 434 550 register callback, f 9;
#X obj 647 268 t f f;
#X obj 599 104 route float list;
#X obj 645 170 unpack f f;
#X obj 714 348 -;
#X msg 599 133 \$1 0;
#X obj 193 544 * 127;
#X text 207 138 callback;
#X obj 600 231 t b f;
#X obj 255 545 r ZOOM;
#X obj 193 573 / 1;
#X obj 219 428 * -1;
#X obj 193 512 / 55;
#X obj 193 624 * 0.25;
#X connect 0 0 2 0;
#X connect 1 0 3 1;
#X connect 2 1 14 0;
#X connect 4 1 36 0;
#X connect 5 0 3 0;
#X connect 6 0 22 0;
#X connect 7 0 27 0;
#X connect 8 0 15 0;
#X connect 9 0 8 1;
#X connect 9 0 0 0;
#X connect 10 0 20 0;
#X connect 10 1 18 0;
#X connect 10 1 20 1;
#X connect 10 2 13 0;
#X connect 11 0 5 0;
#X connect 12 0 10 0;
#X connect 13 0 8 1;
#X connect 14 0 11 0;
#X connect 14 1 1 0;
#X connect 14 2 9 0;
#X connect 15 0 0 0;
#X connect 16 0 29 0;
#X connect 18 0 19 1;
#X connect 19 0 38 0;
#X connect 20 0 4 0;
#X connect 21 0 6 1;
#X connect 22 0 23 0;
#X connect 23 0 24 0;
#X connect 24 0 17 0;
#X connect 24 1 6 1;
#X connect 26 0 16 1;
#X connect 26 1 16 0;
#X connect 27 0 30 0;
#X connect 27 1 28 0;
#X connect 28 0 33 0;
#X connect 28 1 29 1;
#X connect 29 0 19 0;
#X connect 30 0 28 0;
#X connect 31 0 35 0;
#X connect 33 0 8 0;
#X connect 33 1 26 0;
#X connect 34 0 35 1;
#X connect 35 0 38 0;
#X connect 36 0 37 0;
#X connect 37 0 31 0;
#X connect 38 0 6 0;
#X restore 342 212 pd multitouch.listener3;
#X obj 547 44 route float set label back_color front_color;
#X obj 738 548 select 0;
#X msg 740 583 vis_size 1 1;
#X msg 145 17 color 16 16 -1;
#X msg 612 536 color 66 -1;
#X msg 167 97 color \$1 \$1 -1;
#X msg 774 119 color \$1 -1;
#X connect 0 0 10 0;
#X connect 1 0 11 0;
#X connect 4 0 34 0;
#X connect 5 0 6 0;
#X connect 5 1 0 0;
#X connect 7 0 33 1;
#X connect 7 1 0 0;
#X connect 8 0 2 0;
#X connect 9 0 0 0;
#X connect 10 0 29 0;
#X connect 11 0 12 0;
#X connect 11 1 17 0;
#X connect 12 0 16 0;
#X connect 12 1 33 0;
#X connect 13 0 14 0;
#X connect 13 1 18 0;
#X connect 14 0 15 0;
#X connect 16 0 20 0;
#X connect 17 0 13 0;
#X connect 18 0 33 0;
#X connect 19 0 33 0;
#X connect 20 0 14 0;
#X connect 20 1 19 0;
#X connect 21 0 6 0;
#X connect 21 1 33 1;
#X connect 21 2 0 0;
#X connect 23 0 24 0;
#X connect 24 0 22 0;
#X connect 25 0 22 0;
#X connect 26 0 1 0;
#X connect 27 0 8 0;
#X connect 28 0 2 0;
#X connect 29 0 27 0;
#X connect 29 0 35 0;
#X connect 30 0 31 0;
#X connect 31 0 32 0;
#X connect 32 0 22 0;
#X connect 33 0 5 0;
#X connect 34 0 21 0;
#X connect 34 1 7 0;
#X connect 34 2 23 0;
#X connect 34 3 40 0;
#X connect 34 4 39 0;
#X connect 35 0 36 0;
#X connect 36 0 2 0;
#X connect 37 0 1 0;
#X connect 38 0 2 0;
#X connect 39 0 1 0;
#X connect 40 0 2 0;
#X coords 0 -1 1 1 38 55 2 100 100;
#X restore 100 100 pd vfader;
#X msg 621 219 set \$1;
#X obj 101 139 cnv 1 1 1 empty \$0-cnv2 empty 0 1 0 10 -233017 -66577
0;
#X obj 73 529 s \$0-cnv2;
#N canvas 506 159 632 706 colors 0;
#X obj 100 30 inlet;
#X obj 109 67 route color;
#X msg 177 142 \$1;
#X obj 114 171 t f f;
#X obj 154 188 * 100;
#X obj 154 211 mod 100;
#X msg 151 239 back_color \$1;
#X msg 153 271 front_color \$1;
#X obj 114 194 int;
#X obj 242 97 loadbang;
#X obj 159 102 select 0;
#X msg 111 130 1.1;
#X msg 119 96 \$1;
#X obj 97 305 outlet;
#X msg 237 138 front_color 15 \, back_color 65;
#X connect 0 0 1 0;
#X connect 1 0 12 0;
#X connect 2 0 3 0;
#X connect 3 0 4 0;
#X connect 3 0 8 0;
#X connect 4 0 5 0;
#X connect 5 0 6 0;
#X connect 6 0 13 0;
#X connect 7 0 13 0;
#X connect 8 0 7 0;
#X connect 9 0 14 0;
#X connect 10 0 11 0;
#X connect 10 1 2 0;
#X connect 11 0 3 0;
#X connect 12 0 10 0;
#X connect 14 0 13 0;
#X restore 39 276 pd colors;
#X obj 323 411 max 0;
#X obj 323 434 min 1;
#X floatatom 254 277 5 0 0 0 - - -;
#X obj 231 369 min \$4;
#X obj 231 346 max \$3;
#X obj 262 552 list prepend ? ? \$2;
#X connect 0 0 14 0;
#X connect 1 0 2 0;
#X connect 2 0 25 0;
#X connect 3 0 16 0;
#X connect 4 0 28 0;
#X connect 4 0 35 0;
#X connect 5 0 28 0;
#X connect 6 0 12 0;
#X connect 6 0 32 0;
#X connect 7 0 6 1;
#X connect 7 0 9 1;
#X connect 8 0 6 2;
#X connect 8 0 9 2;
#X connect 9 0 30 0;
#X connect 10 0 6 0;
#X connect 11 0 26 0;
#X connect 13 0 18 0;
#X connect 14 0 1 0;
#X connect 14 1 7 0;
#X connect 14 2 8 0;
#X connect 15 0 3 0;
#X connect 16 0 4 0;
#X connect 17 0 10 0;
#X connect 17 1 29 0;
#X connect 18 0 34 0;
#X connect 20 0 35 1;
#X connect 21 0 20 0;
#X connect 22 0 15 0;
#X connect 22 1 9 0;
#X connect 23 0 19 0;
#X connect 24 0 25 0;
#X connect 25 0 10 0;
#X connect 26 0 25 0;
#X connect 29 0 25 0;
#X connect 30 0 31 0;
#X connect 31 0 11 0;
#X connect 33 0 22 0;
#X connect 34 0 33 0;
#X connect 35 0 23 0;
#X coords 0 -1 1 1 38 55 2 100 100;
