#N canvas 728 193 1349 665 10;
#X obj 188 8 loadbang;
#X obj 189 38 list append \$2;
#X msg 193 66 label \$1;
#X obj 189 476 int;
#X msg 169 503 label =\$1;
#X msg 110 514 label;
#X obj 171 289 s \$1-\$2;
#X obj 167 313 r \$1-\$2;
#X obj 183 452 * 100;
#X obj 194 490 * 0.01;
#X obj 21 193 midi-colors \$1 \$2 \$0-rcv \$3 \$4 lin, f 19;
#X obj 166 368 speed_lim;
#X obj 168 390 pipe f 1;
#X obj 370 488 list append \$2;
#X obj 370 449 r \$1-module_name;
#X obj 172 412 t f f;
#X msg 215 125 set \$1;
#N canvas 0 0 1920 1021 vfader 1;
#X obj 547 115 inlet;
#X obj 473 448 outlet;
#X msg 812 289 0;
#X obj 672 365 symbol;
#X msg 669 401 label \$1;
#X msg 607 441 label;
#X obj 603 339 loadbang;
#X obj 603 359 symbol \$2;
#X msg 603 378 label \$1;
#X msg 737 171 color \$1 \$1 -1;
#X msg 723 236 color \$1 -1;
#X obj 100 102 vsl 38 50 0 49 0 0 empty \$0-slider empty 0 -9 0 10
#14e814 #14e814 #000000 0 1;
#X obj 120 265 loadbang;
#X obj 191 271 t b f;
#X obj 220 442 +;
#X obj 220 469 clip 0 127;
#X obj 101 100 cnv 1 36 53 \$0-pos \$0-pos-rcv name 2 12 0 10 #d8fcd8
#404040 0;
#N canvas 924 221 657 701 multitouch_support 1;
#X obj 91 203 outlet;
#N canvas 221 190 884 529 receive_MULTITOUCH.MODE2.parent\$0 0;
#X msg 176 71 bang;
#X obj 254 70 loadbang;
#X obj 230 430 outlet;
#N canvas 0 0 450 242 \$0-dynamic-receiver 0;
#X restore 222 306 pd \$0-dynamic-receiver;
#X obj 219 147 pack s \$0;
#X obj 220 227 s pd-\$0-dynamic-receiver;
#X obj 230 395 r \$0-iem_receive;
#X msg 121 193 clear;
#X text 25 17 création dynamique d'un receiver avec un nom de canal
défini au moment de l'ouverture du patch;
#X msg 220 179 clear \, obj 10 10 r MULTITOUCH.MODE2.\$1 \, obj 10
50 s \$2-iem_receive \, connect 0 0 1 0;
#X text 423 381 A chaque nouvel événement touch-down \, [r MULTITOUCH.MODE2.\$1]
recoit un message sous la forme suivante : <x> <y> <slotID>, f 37
;
#X obj 181 104 iemguts/canvasdollarzero 5;
#X connect 0 0 11 0;
#X connect 1 0 11 0;
#X connect 4 0 9 0;
#X connect 6 0 2 0;
#X connect 7 0 5 0;
#X connect 9 0 5 0;
#X connect 11 0 4 0;
#X restore 49 -21 pd receive_MULTITOUCH.MODE2.parent\$0;
#N canvas 842 206 1149 924 touch_listener 0;
#X obj 56 42 inlet;
#X obj 44 629 select 1;
#X obj 46 691 pack f f;
#X obj 44 659 f \$0;
#X obj 73 771 tabwrite MULTITOUCH.SLOT.STATUS;
#X obj 42 811 list append, f 14;
#X obj 58 127 spigot 1;
#X msg 156 65 0;
#X msg 212 102 1;
#X obj 392 33 r \$0-channel;
#X obj 393 67 route remove update;
#X obj 185 263 tabread MULTITOUCH.SLOT.STATUS;
#X obj 58 163 list split 2;
#X obj 52 333 spigot;
#X obj 185 322 == 0;
#X text 193 294 check if slot still free;
#X obj 152 221 t f f f;
#X obj 596 555 pack f f;
#X obj 46 728 t b l b l b;
#X obj 181 611 pack f f;
#X obj 54 478 t f f;
#X obj 382 103 t b b b b;
#X obj 306 818 list append 0 0;
#X obj 403 497 t a a;
#X obj 440 535 list length;
#X obj 444 564 - 1;
#X obj 387 605 list split;
#X obj 385 644 list trim;
#X obj 39 930 outlet;
#X msg 27 856 add \$1 \$2;
#X msg 149 859 update \$1 \$2;
#X msg 309 862 remove \$1 \$2;
#X text 777 42 la table MULTITOUCH.SLOT.STATUS indique si chaque slot
(tracker de touch-event) est associé ou non à un élément GUI multitouch.
Si tel est le cas \, l'éĺément i de la table associé au slot i
prend la valeur \$0 du touch_listener auquel il est associé, f 33
;
#X obj 210 469 t f f;
#N canvas 0 684 450 300 Is_inside_Gui_object? 0;
#X obj 53 38 inlet;
#X obj 225 38 inlet;
#X obj 59 266 outlet;
#X obj 53 130 - 100;
#X obj 222 126 - 100;
#X obj 48 166 abs;
#X obj 222 157 abs;
#X obj 47 198 < 100;
#X obj 219 192 < 100;
#X obj 55 231 &&;
#X obj 145 72 / 2;
#X obj 309 63 / 2;
#X obj 139 42 r \$0-w;
#X obj 309 39 r \$0-h;
#X connect 0 0 3 0;
#X connect 1 0 4 0;
#X connect 3 0 5 0;
#X connect 4 0 6 0;
#X connect 5 0 7 0;
#X connect 6 0 8 0;
#X connect 7 0 9 0;
#X connect 8 0 9 1;
#X connect 9 0 2 0;
#X connect 10 0 3 1;
#X connect 10 0 7 1;
#X connect 11 0 4 1;
#X connect 11 0 8 1;
#X connect 12 0 10 0;
#X connect 13 0 11 0;
#X restore 46 541 pd Is_inside_Gui_object?;
#X f 10;
#N canvas 0 0 450 271 Gui_object_relative_coords 0;
#X obj 57 45 inlet;
#X obj 75 261 outlet;
#X obj 232 264 outlet;
#X obj 196 83 unpack f f;
#X obj 64 144 -;
#X obj 225 142 -;
#X obj 59 100 unpack f f;
#X obj 195 29 r \$0-pos;
#X connect 0 0 6 0;
#X connect 3 0 4 1;
#X connect 3 1 5 1;
#X connect 4 0 1 0;
#X connect 5 0 2 0;
#X connect 6 0 4 0;
#X connect 6 1 5 0;
#X connect 7 0 3 0;
#X restore 50 375 pd Gui_object_relative_coords;
#X f 13;
#N canvas 0 50 450 300 Normalize_coords 0;
#X obj 48 31 inlet;
#X obj 318 31 inlet;
#X obj 38 241 outlet;
#X obj 308 241 outlet;
#X obj 47 145 /;
#X obj 318 106 /;
#X obj 339 157 * -1;
#X obj 339 185 + 1;
#X obj 160 54 r \$0-w;
#X obj 398 58 r \$0-h;
#X connect 0 0 4 0;
#X connect 1 0 5 0;
#X connect 4 0 2 0;
#X connect 5 0 6 0;
#X connect 6 0 7 0;
#X connect 7 0 3 0;
#X connect 8 0 4 1;
#X connect 9 0 5 1;
#X restore 178 539 pd Normalize_coords;
#X f 10;
#N canvas 0 50 450 271 Gui_object_relative_coords 0;
#X obj 57 45 inlet;
#X obj 75 261 outlet;
#X obj 232 264 outlet;
#X obj 196 83 unpack f f;
#X obj 69 206 -;
#X obj 230 204 -;
#X obj 62 76 unpack f f;
#X obj 200 53 r \$0-pos;
#X connect 0 0 6 0;
#X connect 3 0 4 1;
#X connect 3 1 5 1;
#X connect 4 0 1 0;
#X connect 5 0 2 0;
#X connect 6 0 4 0;
#X connect 6 1 5 0;
#X connect 7 0 3 0;
#X restore 591 408 pd Gui_object_relative_coords;
#X f 13;
#N canvas 0 684 450 300 Normalize_coords 0;
#X obj 48 31 inlet;
#X obj 318 31 inlet;
#X obj 38 241 outlet;
#X obj 308 241 outlet;
#X obj 47 145 /;
#X obj 318 106 /;
#X obj 339 157 * -1;
#X obj 339 185 + 1;
#X obj 160 54 r \$0-w;
#X obj 398 58 r \$0-h;
#X connect 0 0 4 0;
#X connect 1 0 5 0;
#X connect 4 0 2 0;
#X connect 5 0 6 0;
#X connect 6 0 7 0;
#X connect 7 0 3 0;
#X connect 8 0 4 1;
#X connect 9 0 5 1;
#X restore 592 487 pd Normalize_coords;
#X f 10;
#X obj 594 615 t l l;
#X text 399 764 associe le slot i de la table MULTITOUCH.SLOT.STATUS
au \$0 du présent touch_listener, f 52;
#X connect 0 0 6 0;
#X connect 1 0 3 0;
#X connect 2 0 18 0;
#X connect 3 0 2 0;
#X connect 5 0 29 0;
#X connect 6 0 12 0;
#X connect 7 0 6 1;
#X connect 8 0 6 1;
#X connect 9 0 10 0;
#X connect 10 0 21 0;
#X connect 10 1 37 0;
#X connect 10 2 23 0;
#X connect 11 0 14 0;
#X connect 12 0 13 0;
#X connect 12 1 16 0;
#X connect 13 0 35 0;
#X connect 14 0 13 1;
#X connect 16 0 2 1;
#X connect 16 1 11 0;
#X connect 17 0 39 0;
#X connect 18 0 5 0;
#X connect 18 1 4 0;
#X connect 18 2 7 0;
#X connect 19 0 5 1;
#X connect 19 0 22 1;
#X connect 20 0 34 0;
#X connect 20 1 36 0;
#X connect 21 0 8 0;
#X connect 21 1 22 0;
#X connect 22 0 31 0;
#X connect 23 0 26 0;
#X connect 23 1 24 0;
#X connect 24 0 25 0;
#X connect 25 0 26 1;
#X connect 26 0 27 0;
#X connect 27 0 28 0;
#X connect 29 0 28 0;
#X connect 30 0 28 0;
#X connect 31 0 28 0;
#X connect 33 0 34 1;
#X connect 33 1 36 1;
#X connect 34 0 1 0;
#X connect 35 0 20 0;
#X connect 35 1 33 0;
#X connect 36 0 19 0;
#X connect 36 1 19 1;
#X connect 37 0 38 0;
#X connect 37 1 38 1;
#X connect 38 0 17 0;
#X connect 38 1 17 1;
#X connect 39 0 30 0;
#X connect 39 1 22 1;
#X restore 60 7 pd touch_listener;
#X msg 84 142 set \$1;
#X obj 55 31 route add update;
#X obj 67 97 * 127;
#X obj 141 98 * 127;
#X msg 76 66 \$2;
#X msg 138 65 \$2;
#N canvas 0 57 1920 1023 steady 1;
#X obj 233 453 +;
#X obj 133 36 inlet;
#X obj 195 302 -;
#X obj 239 584 outlet;
#X obj 132 218 t f f;
#X obj 132 176 unpack f f;
#X obj 236 341 -;
#X msg 132 113 \$1 0;
#X text 214 23 mode steady;
#X obj 132 84 route float list set;
#X obj 233 482 clip 0 127;
#X obj 237 519 t f f;
#X obj 639 50 inlet;
#X obj 277 337 r \$0-steady_ratio;
#X obj 233 404 * 0.7;
#X obj 268 371 * 0.5;
#X connect 0 0 10 0;
#X connect 1 0 9 0;
#X connect 2 0 6 0;
#X connect 4 0 2 1;
#X connect 4 1 2 0;
#X connect 5 0 4 0;
#X connect 5 1 6 1;
#X connect 6 0 14 0;
#X connect 7 0 5 0;
#X connect 9 0 7 0;
#X connect 9 1 5 0;
#X connect 9 2 2 1;
#X connect 10 0 11 0;
#X connect 11 0 3 0;
#X connect 11 1 0 1;
#X connect 12 0 0 1;
#X connect 13 0 15 0;
#X connect 14 0 0 0;
#X connect 15 0 14 1;
#X restore 89 178 pd steady;
#X obj 293 16 inlet;
#X msg 235 250 get_pos;
#X obj 229 287 s \$0-pos-rcv;
#X obj 226 195 r MULTITOUCH.ACTIVESLOTS;
#X obj 226 219 select 0;
#X connect 1 0 2 0;
#X connect 2 0 4 0;
#X connect 3 0 9 0;
#X connect 4 0 7 0;
#X connect 4 1 8 0;
#X connect 5 0 3 0;
#X connect 6 0 9 0;
#X connect 7 0 5 0;
#X connect 8 0 6 0;
#X connect 9 0 0 0;
#X connect 10 0 9 1;
#X connect 11 0 12 0;
#X connect 13 0 14 0;
#X connect 14 0 11 0;
#X restore 456 75 pd multitouch_support;
#X obj 203 228 t f b;
#N canvas 58 595 450 300 disable_if_multitouch_support 0;
#X obj 111 33 inlet;
#X obj 108 276 outlet;
#X obj 109 131 v MULTITOUCH.ACTIVESLOTS;
#X obj 114 89 t f b;
#X obj 47 191 spigot 1;
#X obj 109 160 == 0;
#X connect 0 0 3 0;
#X connect 2 0 5 0;
#X connect 3 0 4 0;
#X connect 3 1 2 0;
#X connect 4 0 1 0;
#X connect 5 0 4 1;
#X restore 201 200 pd disable_if_multitouch_support;
#X text 328 245 steady ratio;
#X obj 547 144 route float set label back_color front_color size;
#X obj 1007 258 unpack f f;
#X msg 611 108 size 38 50;
#X obj 855 176 t l l;
#X msg 863 216 size \$1 \$2;
#X obj 312 226 loadbang;
#X obj 124 378 s \$0-slider;
#X obj 740 193 s \$0-slider;
#X obj 866 246 s \$0-slider;
#X obj 983 349 s \$0-w;
#X obj 1153 346 s \$0-h;
#X obj 607 77 loadbang;
#N canvas 0 684 450 300 affichage_curseur 0;
#X obj 212 30 inlet;
#X obj 214 54 - 127;
#X msg 269 276 vis_size \$1 \$2;
#X obj 214 82 / -127;
#X obj 268 235 list prepend 36;
#X msg 69 289 vis_size 36 53;
#X obj 218 113 * 53;
#X obj 138 218 select 0;
#X msg 150 251 vis_size 1 1;
#X msg 12 206 color 66 -1;
#X obj 210 319 outlet;
#X obj 350 176 r \$0-w;
#X obj 350 199 - 2;
#X connect 0 0 1 0;
#X connect 1 0 3 0;
#X connect 2 0 10 0;
#X connect 3 0 6 0;
#X connect 4 0 2 0;
#X connect 5 0 10 0;
#X connect 6 0 7 0;
#X connect 7 0 8 0;
#X connect 7 1 4 0;
#X connect 8 0 10 0;
#X connect 9 0 10 0;
#X connect 11 0 12 0;
#X connect 12 0 4 1;
#X restore 815 406 pd affichage_curseur;
#X obj 265 223 r \$0-h;
#X obj 265 267 / 2;
#X obj 265 289 int;
#X obj 121 304 f 25;
#X msg 122 342 set \$1;
#X obj 231 345 - 25;
#X msg 316 264 0.7;
#X obj 216 400 * 0.7;
#X obj 581 182 clip 0 127;
#X obj 316 286 s \$0-steady_ratio;
#X obj 242 370 r \$0-steady_ratio;
#X obj 461 370 t f f;
#X obj 582 203 s \$0-value;
#X obj 456 54 r \$0-value;
#X obj 250 416 r \$0-value;
#X obj 813 375 r \$0-value;
#X obj 488 394 s \$0-value;
#X msg 693 332 name;
#X obj 816 433 s \$0-pos-rcv;
#X obj 669 427 s \$0-pos-rcv;
#X obj 724 271 s \$0-pos-rcv;
#X msg 747 324 size 1;
#X connect 0 0 21 0;
#X connect 3 0 4 0;
#X connect 4 0 53 0;
#X connect 5 0 53 0;
#X connect 6 0 7 0;
#X connect 7 0 8 0;
#X connect 8 0 53 0;
#X connect 9 0 28 0;
#X connect 10 0 54 0;
#X connect 11 0 19 0;
#X connect 12 0 37 0;
#X connect 13 0 37 0;
#X connect 13 1 39 0;
#X connect 14 0 15 0;
#X connect 15 0 45 0;
#X connect 17 0 45 0;
#X connect 18 0 13 0;
#X connect 19 0 18 0;
#X connect 21 0 45 0;
#X connect 21 1 42 0;
#X connect 21 2 3 0;
#X connect 21 3 10 0;
#X connect 21 4 9 0;
#X connect 21 5 24 0;
#X connect 22 0 30 0;
#X connect 22 1 31 0;
#X connect 23 0 21 0;
#X connect 24 0 25 0;
#X connect 24 1 22 0;
#X connect 25 0 29 0;
#X connect 26 0 40 0;
#X connect 32 0 23 0;
#X connect 33 0 52 0;
#X connect 34 0 35 0;
#X connect 35 0 36 0;
#X connect 36 0 37 1;
#X connect 36 0 39 1;
#X connect 37 0 38 0;
#X connect 38 0 27 0;
#X connect 39 0 41 0;
#X connect 40 0 43 0;
#X connect 41 0 14 0;
#X connect 42 0 46 0;
#X connect 44 0 41 1;
#X connect 45 0 1 0;
#X connect 45 1 50 0;
#X connect 47 0 17 0;
#X connect 48 0 14 1;
#X connect 49 0 33 0;
#X connect 51 0 3 0;
#X connect 55 0 52 0;
#X coords 0 -1 1 1 38 55 2 100 100;
#X restore 100 100 pd vfader;
#X obj 138 553 s \$0-cnv2;
#X msg 88 56 label empty;
#N canvas 506 159 632 706 colors 0;
#X obj 100 30 inlet;
#X obj 109 67 route color;
#X msg 177 142 \$1;
#X obj 114 171 t f f;
#X obj 154 188 * 100;
#X obj 154 211 mod 100;
#X msg 151 239 back_color \$1;
#X msg 153 271 front_color \$1;
#X obj 114 194 int;
#X obj 242 97 loadbang;
#X obj 159 102 select 0;
#X msg 111 130 1.1;
#X msg 119 96 \$1;
#X obj 97 305 outlet;
#X msg 237 138 front_color 16 \, back_color 66;
#X connect 0 0 1 0;
#X connect 1 0 12 0;
#X connect 2 0 3 0;
#X connect 3 0 4 0;
#X connect 3 0 8 0;
#X connect 4 0 5 0;
#X connect 5 0 6 0;
#X connect 6 0 13 0;
#X connect 7 0 13 0;
#X connect 8 0 7 0;
#X connect 9 0 14 0;
#X connect 10 0 11 0;
#X connect 10 1 2 0;
#X connect 11 0 3 0;
#X connect 12 0 10 0;
#X connect 14 0 13 0;
#X restore 39 276 pd colors;
#X obj 311 521 list prepend <module_name> <parameter>;
#X obj 311 593 s FEEDBACK_TO_GUI;
#X msg 311 544 /\$1/\$2 label \$2=\$3;
#X obj 171 237 ../rj/m_scale 0 127 \$3 \$4;
#X obj 330 272 ../rj/m_scale \$3 \$4 0 127;
#X obj 102 139 cnv 1 1 1 empty \$0-cnv2 =0 0 1 0 10 #e0e0e0 #404040
0;
#X connect 0 0 1 0;
#X connect 1 0 2 0;
#X connect 2 0 17 0;
#X connect 3 0 9 0;
#X connect 4 0 18 0;
#X connect 5 0 18 0;
#X connect 7 0 11 0;
#X connect 8 0 3 0;
#X connect 9 0 4 0;
#X connect 9 0 21 0;
#X connect 10 0 24 0;
#X connect 10 1 20 0;
#X connect 11 0 12 0;
#X connect 12 0 15 0;
#X connect 13 0 21 1;
#X connect 14 0 13 0;
#X connect 15 0 8 0;
#X connect 15 1 25 0;
#X connect 16 0 17 0;
#X connect 17 0 24 0;
#X connect 19 0 17 0;
#X connect 20 0 17 0;
#X connect 21 0 23 0;
#X connect 23 0 22 0;
#X connect 24 0 6 0;
#X connect 25 0 16 0;
#X coords 0 -1 1 1 38 55 2 100 100;
