#N canvas 195 84 848 786 16;
#X obj 330 172 audio_clip;
#A saved clip3_quant 16;
#A saved clip2_quant 16;
#A saved clip1_quant 16;
#A saved clip1_preroll 4;
#A saved clip1_algorithm 3;
#A saved clip1_file /home/jyg/Documents/Pd/externals/pdr/medias/sounds/soundfonts/oneshots/groove.wav
;
#A saved clip1_loop 1;
#A saved clip1_bpm 141;
#A saved SID 0;
#X obj 330 370 audio_clip;
#A saved clip3_quant 16;
#A saved clip2_quant 16;
#A saved clip1_quant 16;
#A saved SID 1;
#X obj 330 271 audio_clip;
#A saved clip3_quant 16;
#A saved clip2_quant 16;
#A saved clip1_quant 16;
#A saved SID 2;
#X obj 532 370 audio_clip;
#A saved clip3_quant 16;
#A saved clip2_quant 16;
#A saved clip1_quant 16;
#A saved SID 3;
#X obj 532 271 audio_clip;
#A saved clip3_quant 16;
#A saved clip2_quant 16;
#A saved clip1_quant 16;
#A saved SID 4;
#X obj 532 172 audio_clip;
#A saved clip3_quant 16;
#A saved clip2_quant 16;
#A saved clip1_quant 16;
#A saved SID 5;
#X obj 570 122 r slot_messages;
#X obj 8 148 cnv 15 300 500 empty empty empty 20 12 0 14 -204800 -66577
0;
#X obj 27 613 s CLOCK;
#X obj 26 403 r STOP;
#X obj 100 403 r START;
#X obj 198 399 r BPM;
#X obj 27 502 metro;
#X msg 186 459 tempo \$1 permin, f 9;
#X msg 26 438 0;
#X msg 100 438 1;
#X obj 27 537 f;
#X obj 71 537 + 1;
#X obj 30 315 nbx 4 24 20 208 0 1 empty empty TEMPO(BPM) 0 -8 0 20
-262144 -1 -1 145 256;
#X obj 30 344 s BPM;
#X obj 29 175 bng 50 250 50 0 empty empty empty 17 7 0 10 -204786 -1
-1;
#X obj 109 174 bng 50 250 50 0 empty empty empty 17 7 0 10 -191407
-1 -1;
#X obj 29 233 s START;
#X obj 109 232 s STOP;
#X obj 205 432 * 24;
#X obj 123 596 select 0;
#X obj 123 623 bng 15 250 50 0 empty empty empty 17 7 0 10 -262144
-1 -1;
#X obj 123 571 mod 24;
#X obj 532 465 dac~;
#X obj 330 465 dac~;
#X obj 1 0 cnv 15 800 50 empty empty empty 20 12 0 14 -232576 -66577
0;
#X text 9 5 audio_clip;
#X text 144 60 Ableton-Live-style rackable sample looper;
#X text 190 84 with tempo-synchronisation mechanism;
#X obj 346 593 audio_clip/clip_unit_gui;
#X text 352 566 |;
#X text 352 550 |;
#X text 352 536 |;
#X text 352 520 |;
#X text 355 501 launch/stop button;
#X text 422 566 |;
#X text 422 550 |;
#X text 425 527 properties / status bar;
#X text 492 566 |;
#X text 495 547 synchro (16th);
#X text 540 591 <- load a sample;
#N canvas 0 50 1206 496 properties_window 0;
#X obj 9 13 audio_clip/clip_settings_gui;
#X text 574 93 varispeed : changing the speed;
#X text 584 113 playolap : playing overlapped chunks;
#X text 624 132 pvoc : using phase vocoder (FFT);
#X text 595 162 Seg.BPM : original tempo of sample segment;
#X text 544 64 WRAP MODE : How to synchronize the loop ?;
#X text 549 201 Quantization (q) : When the sample can be triggered
(in 16ths), f 62;
#X text 638 229 preroll : If the sample starts before a bar (in 16ths)
;
#X text 570 307 Other params (greyed) not implemented;
#N canvas 0 50 450 300 todo 0;
#X text 58 30 TO DO;
#X text 35 74 remplissage automatique seg.BPM à partir du nom du fichier
(cf usine), f 33;
#X text 37 143 pvoc : lockin \, window size;
#X text 33 169 overlap windowing mode \, window size;
#X restore 881 402 pd todo;
#X restore 343 643 pd properties_window;
#X text 21 655 Globals listeners : START \, STOP \, CLOCK \, BPM,
f 23;
#X text 10 60 AUDIO_CLIP :;
#X text 352 573 v;
#X text 422 573 v;
#X text 492 573 v;
#X obj 212 569 div 24;
#X floatatom 212 598 5 0 0 0 - - -;
#X text 194 23 https://github.com/jyg/pdr;
#N canvas 902 272 450 300 managing_scene_selection 0;
#X obj 95 256 s slot_messages;
#X msg 94 209 launch \$1;
#X floatatom 95 167 5 0 0 0 scene - -;
#X msg 185 83 stop all;
#X msg 112 104 2;
#X msg 111 77 1;
#X text 90 21 Scenes start with number 1 in top, f 18;
#X msg 111 131 8;
#X msg 340 130 \; pd dsp 1;
#X obj 337 102 loadbang;
#X connect 1 0 0 0;
#X connect 2 0 1 0;
#X connect 3 0 0 0;
#X connect 4 0 2 0;
#X connect 5 0 2 0;
#X connect 7 0 2 0;
#X connect 9 0 8 0;
#X restore 344 690 pd managing_scene_selection;
#X connect 0 0 2 0;
#X connect 0 1 2 1;
#X connect 0 2 2 2;
#X connect 1 0 29 0;
#X connect 1 1 29 1;
#X connect 2 0 1 0;
#X connect 2 1 1 1;
#X connect 2 2 1 2;
#X connect 3 0 28 0;
#X connect 3 1 28 1;
#X connect 4 0 3 0;
#X connect 4 1 3 1;
#X connect 4 2 3 2;
#X connect 5 0 4 0;
#X connect 5 1 4 1;
#X connect 5 2 4 2;
#X connect 6 0 0 2;
#X connect 6 0 5 2;
#X connect 9 0 14 0;
#X connect 10 0 15 0;
#X connect 11 0 24 0;
#X connect 12 0 16 0;
#X connect 13 0 12 0;
#X connect 14 0 12 0;
#X connect 14 0 16 1;
#X connect 15 0 12 0;
#X connect 16 0 17 0;
#X connect 16 0 8 0;
#X connect 16 0 27 0;
#X connect 16 0 52 0;
#X connect 17 0 16 1;
#X connect 18 0 19 0;
#X connect 20 0 22 0;
#X connect 21 0 23 0;
#X connect 24 0 13 0;
#X connect 25 0 26 0;
#X connect 27 0 25 0;
#X connect 52 0 53 0;
