#N canvas 219 90 810 553 10;
#X declare -path ../../../core;
#X declare -path ../../../core/stuff;
#X declare -path ../../../core/rj;
#N canvas 1 56 1163 628 bonk_pitch_delay-instruments 0;
#N canvas 0 57 1920 1023 parametres 0;
#X obj 173 374 outlet;
#X obj 141 64 unpack f f f;
#X obj 172 122 t f f;
#X obj 163 313 pack f f f f;
#X obj 235 181 * 30;
#X obj 238 209 + 50;
#X msg 456 299 \$1 remove;
#X obj 153 6 inlet add/update;
#X obj 478 11 inlet remove;
#X msg 165 340 \$1 vol 100 \, \$1 delay \$2 \, \$1 pan \$3 \, \$1 speed
\$4;
#X obj 303 173 - 60.3763;
#X obj 160 230 moses 0;
#X obj 318 276 *;
#X obj 172 99 clip 0 1;
#X obj 275 52 clip 0 1;
#X obj 197 251 t f b;
#X msg 278 259 1;
#X obj 145 259 t f b;
#X msg 187 281 -1;
#X obj 145 281 * -1;
#X text -18 193 compensation vitesse lecture;
#X floatatom 318 298 5 0 0 0 - - -;
#X floatatom 364 248 5 0 0 0 - - -;
#X obj 285 83 - 1;
#X obj 164 142 * 1400;
#X msg 266 114;
#X floatatom 331 80 5 0 0 0 - - -;
#X obj 295 114 * -24;
#X obj 164 183 * 1;
#X obj 357 48 hsl 128 15 -1 0 0 0 empty empty empty -2 -8 0 10 -262144
-1 -1 0 1;
#X obj 303 195 mtof;
#X obj 304 221 / 2;
#X obj 386 112 r \$0-oct;
#X obj 386 134 sel 0 1;
#X msg 386 156 1;
#X msg 414 157 1.5;
#X obj 299 143 * 1;
#X msg 385 183 2;
#X connect 1 0 3 0;
#X connect 1 1 13 0;
#X connect 1 2 14 0;
#X connect 2 0 24 0;
#X connect 2 1 4 0;
#X connect 3 0 9 0;
#X connect 4 0 5 0;
#X connect 5 0 3 2;
#X connect 6 0 0 0;
#X connect 7 0 1 0;
#X connect 8 0 6 0;
#X connect 9 0 0 0;
#X connect 10 0 30 0;
#X connect 11 0 17 0;
#X connect 11 1 15 0;
#X connect 12 0 3 3;
#X connect 12 0 21 0;
#X connect 13 0 2 0;
#X connect 14 0 23 0;
#X connect 15 0 3 1;
#X connect 15 1 16 0;
#X connect 16 0 12 0;
#X connect 17 0 19 0;
#X connect 17 1 18 0;
#X connect 18 0 12 0;
#X connect 19 0 3 1;
#X connect 23 0 25 0;
#X connect 23 0 27 0;
#X connect 24 0 28 0;
#X connect 26 0 27 0;
#X connect 27 0 36 0;
#X connect 28 0 11 0;
#X connect 29 0 26 0;
#X connect 30 0 31 0;
#X connect 31 0 12 1;
#X connect 31 0 22 0;
#X connect 31 0 28 1;
#X connect 32 0 33 0;
#X connect 33 0 34 0;
#X connect 33 1 35 0;
#X connect 33 1 37 0;
#X connect 34 0 36 1;
#X connect 34 0 31 1;
#X connect 35 0 36 1;
#X connect 36 0 10 0;
#X connect 37 0 31 1;
#X restore 340 396 pd parametres;
#X obj 189 391 *~ 10;
#X obj 179 479 outlet~;
#X obj 286 481 outlet~;
#X obj 229 95 hip~ 400;
#X obj 232 51 inlet~;
#X obj 555 340 r \$0-vol;
#X obj 557 409 r \$0-sens;
#X msg 556 361 vol \$1;
#X msg 558 430 sens \$1;
#X obj 398 502 outlet resync;
#X obj 567 98 inlet touchEvents;
#X obj 127 437 fx_bonkpitch/bonk_pitch_delay touch;
#X text 682 143 touchEvent <noteId> addCursor <session_id> <xpos> <ypos>
;
#X text 682 159 touchEvent <noteId> updateCursor <session_id> <xpos>
<ypos>;
#X text 685 176 touchEvent <noteId> removeCursor <session_id>;
#X obj 569 125 list split 1;
#X obj 608 152 list trim;
#X obj 610 208 route addCursor updateCursor removeCursor;
#X obj 337 63 inlet~;
#X obj 329 95 hip~ 400;
#X obj 259 381 *~ 10;
#X connect 0 0 12 2;
#X connect 1 0 12 0;
#X connect 4 0 1 0;
#X connect 5 0 4 0;
#X connect 6 0 8 0;
#X connect 7 0 9 0;
#X connect 8 0 12 2;
#X connect 9 0 12 2;
#X connect 11 0 16 0;
#X connect 12 0 2 0;
#X connect 12 1 3 0;
#X connect 12 2 10 0;
#X connect 16 1 17 0;
#X connect 17 0 18 0;
#X connect 18 0 0 0;
#X connect 18 1 0 0;
#X connect 18 2 0 1;
#X connect 19 0 20 0;
#X connect 20 0 21 0;
#X connect 21 0 12 1;
#X restore 58 343 pd bonk_pitch_delay-instruments;
#X obj 454 425 u_dispatch \$0 vol;
#X obj 455 451 u_dispatch \$0 sens;
#X obj 101 101 cnv 15 188 68 \$0-background \$0-background-rcv fx_bonkpitch-3
0 7 0 14 -262144 -1 0;
#X obj 137 115 ui_vs \$0 sens 0 100;
#X obj 100 115 ui_vs \$0 vol 0 100;
#X obj 228 100 bng 15 250 50 0 empty empty trigger 17 7 0 10 -262144
-1 -1;
#X obj 270 259 route touchEvent;
#X obj 451 397 module_loader fx_bonkpitch \$0 \$1;
#X obj 29 260 inlet~;
#X obj 63 456 outlet~;
#X obj 151 455 outlet~;
#X obj 380 287 outlet data;
#X obj 380 231 inlet data;
#X obj 123 264 inlet~;
#X obj 454 472 u_dispatch \$0 smooth;
#X obj 187 115 ui_vsl \$0 smooth 10 2000;
#X obj 1231 279 namecanvas \$0-this;
#X obj 1229 256 triggered_loadbang \$0-this;
#X text 1224 206 manually trigger loadbang if the instance of abstraction
is created dynamically, f 29;
#X obj 606 295 savestate;
#X obj 654 33 declare -path ../../../core;
#X obj 654 53 declare -path ../../../core/stuff;
#X obj 654 73 declare -path ../../../core/rj;
#N canvas 0 50 450 300 wet 0;
#X obj 84 180 c_xfade;
#X obj 178 182 c_xfade;
#X obj 224 150 pack 0 10;
#X obj 275 75 r \$0-wet;
#X obj 264 128 *;
#X obj 272 104 t f f;
#X obj 39 69 inlet~;
#X obj 99 69 inlet~;
#X obj 80 230 outlet~;
#X obj 190 230 outlet~;
#X obj 153 67 inlet~;
#X obj 213 67 inlet~;
#X connect 0 0 8 0;
#X connect 1 0 9 0;
#X connect 2 0 1 2;
#X connect 2 0 0 2;
#X connect 3 0 5 0;
#X connect 4 0 2 0;
#X connect 5 0 4 0;
#X connect 5 1 4 1;
#X connect 6 0 0 0;
#X connect 7 0 0 1;
#X connect 10 0 1 0;
#X connect 11 0 1 1;
#X restore 40 394 pd wet;
#X obj 451 496 u_dispatch \$0 wet;
#X obj 252 115 ui_vs \$0 wet 0 1;
#X obj 228 131 vradio 15 1 0 2 \$0-oct \$0-oct-rcv oct 0 -8 0 10 -262144
-260097 -1 0;
#X obj 451 519 u_parameter \$0 oct;
#X text 230 130 2;
#X text 230 145 3;
#X connect 0 0 24 1;
#X connect 0 1 24 3;
#X connect 0 2 6 0;
#X connect 1 0 2 0;
#X connect 2 0 15 0;
#X connect 7 0 0 2;
#X connect 7 1 12 0;
#X connect 8 0 1 0;
#X connect 8 1 20 0;
#X connect 9 0 0 0;
#X connect 9 0 24 0;
#X connect 13 0 7 0;
#X connect 14 0 0 1;
#X connect 14 0 24 2;
#X connect 15 0 25 0;
#X connect 20 0 8 1;
#X connect 20 1 8 2;
#X connect 24 0 10 0;
#X connect 24 1 11 0;
#X connect 25 0 28 0;
#X coords 0 -1 1 1 190 70 1 100 100;
