#N struct comment float x float y float color text FR text EN text
IT;
#N struct struct_blob2 float x float y float size float width float
color float ID symbol parameter float value symbol tag float disable
;
#N canvas 713 56 814 628 16;
#X obj 31 155 fx_bonkpitch;
#A saved smooth 95.4729;
#A saved sens 70.1046;
#A saved vol 75.0597;
#A saved SID 0;
#X scalar comment 376.082 471.844 0 \; Dépendances : external fiddle~
\; Dependancies : fiddle~ external \; C'è bisogno dell'external fiddle~
\;;
#X scalar comment 25.6546 538.201 0 \; Multidelay / pitch variable
commandé par les messages touch events \; Multidelay with variable
pitch driven by input touchevents \; Multidelay con variable pitch
\;;
#X scalar comment 23.9452 516.082 0 \; recus sur le data_inlet. \;
received on data_inlet \; \;;
#X scalar comment 40.1846 322.54 0 \; 8 unités de delay \; 8 delay
units \; 8 unità di delay \;;
#X obj 1 0 cnv 15 800 50 empty empty empty 20 12 0 14 -232576 -66577
0;
#X text 9 5 fx_bonkpitch;
#X scalar comment 43.6034 279.223 0 \; Fonctionne couplé au module
data_fidtouch \; Works with data_fidtouch module \; Funzionna collegato
con il modulo data_fidtouch \;;
#X obj 600 0 pdr/core/stuff/language;
#N canvas 0 57 1920 1023 stuff 0;
#X obj 80 74 inlet;
#X scalar struct_blob2 470 216 40 0 0 0 symbol 0 symbol 0 \;;
#X obj 204 262 t b a b;
#X obj 257 406 list prepend all;
#X obj 324 449 list trim;
#X msg 273 333 clear;
#X msg 174 333 done;
#N canvas 0 50 645 593 start_tracking 0;
#X obj 156 22 inlet;
#X obj 116 286 outlet;
#X obj 328 252 outlet;
#X obj 144 118 pointer struct_blob;
#X msg 58 156 next;
#X obj 123 227 list prepend next;
#X obj 117 255 list trim;
#X msg 329 199 all reset;
#X obj 152 59 t b b;
#X obj 129 149 t a b;
#X obj 153 188 delay 1;
#X obj 193 143 t b;
#X msg 149 92 traverse pd-control1 \, next;
#X connect 0 0 8 0;
#X connect 3 0 9 0;
#X connect 3 1 11 0;
#X connect 4 0 3 0;
#X connect 5 0 6 0;
#X connect 6 0 1 0;
#X connect 7 0 2 0;
#X connect 8 0 12 0;
#X connect 8 1 7 0;
#X connect 9 0 5 0;
#X connect 9 1 10 0;
#X connect 10 0 4 0;
#X connect 11 0 10 0;
#X connect 12 0 3 0;
#X restore 79 529 pd start_tracking;
#X obj 82 197 route pressure;
#X obj 40 464 r BLOB_EDIT_MODE;
#X msg 81 601 \$3 \$2;
#X obj 82 639 unpack f s;
#X obj 206 879 s;
#X obj 81 99 route 0 1;
#X obj 450 419 list prepend all;
#X obj 517 472 list trim;
#X obj 78 564 clone blob_tracker 20 600 pd-control1;
#X obj 296 687 iemlib/splitfilename =;
#X obj 335 750 select symbol;
#X msg 747 701 symbol;
#X obj 745 652 loadbang;
#X obj 194 813 list prepend;
#X text 617 574 target=prefix;
#X text 621 607 target;
#X msg 815 474 vis 3 1;
#N canvas 863 152 601 525 struct_blob2 0;
#X obj 31 89 outlet;
#X obj 23 421 filledcurve -v disable -xr 444 444 0 0 0 0 size size
size size 0 0 0;
#X obj 17 19 struct struct_blob2 float x float y float size float width
float color float ID symbol parameter float value symbol tag float
disable;
#X obj -44 215 drawpolygon -xr color width 0 0 0 size size size size
0 0 0;
#X connect 2 0 0 0;
#X restore 697 192 pd struct_blob2;
#X connect 0 0 13 0;
#X connect 2 0 6 0;
#X connect 2 1 3 0;
#X connect 2 2 5 0;
#X connect 3 0 4 0;
#X connect 4 0 16 1;
#X connect 5 0 3 0;
#X connect 6 0 3 0;
#X connect 7 0 16 0;
#X connect 7 1 16 1;
#X connect 8 1 2 0;
#X connect 9 0 7 0;
#X connect 10 0 11 0;
#X connect 11 0 21 0;
#X connect 11 1 17 0;
#X connect 13 0 8 0;
#X connect 13 1 14 0;
#X connect 14 0 15 0;
#X connect 15 0 16 2;
#X connect 16 0 10 0;
#X connect 17 0 12 1;
#X connect 17 1 18 0;
#X connect 18 0 21 1;
#X connect 18 1 21 1;
#X connect 19 0 18 1;
#X connect 20 0 19 0;
#X connect 21 0 12 0;
#X connect 24 0 16 0;
#X restore 300 397 pd stuff;
#N canvas 0 57 1920 1023 touches 0;
#X scalar struct_blob2 35.625 44.7977 10 3 0 0 symbol 0 symbol 0 \;
;
#N canvas 0 50 450 250 (subpatch) 0;
#X coords 0 0 200 200 200 200 1 0 0;
#X restore 151 154 graph;
#X coords -50 -50 250 250 300 300 1 100 100;
#X restore 472 123 pd touches;
