#N canvas 0 58 1920 1023 12;
#N canvas 0 50 527 460 circle 0;
#X obj 322 141 inlet size;
#X obj 186 139 unpack f f;
#X obj 186 228 t f f;
#X text 221 11 posx posy color.r color.g color.b;
#X obj 168 114 list split 2;
#X obj 321 201 t f f;
#X obj 266 228 t f f;
#X obj 181 307 pack f f f f;
#X obj 178 341 list append;
#X obj 178 391 list trim;
#X obj 108 416 outlet;
#X obj 185 260 - 0.5;
#X obj 241 260 + 0.5;
#X obj 315 260 - 0.5;
#X obj 390 260 + 0.5;
#X obj 321 171 / 1;
#X obj 116 16 inlet chain;
#X obj 163 86 route chain;
#X obj 116 47 t a a;
#X obj 178 366 list prepend render frameoval;
#X obj 178 416 outlet;
#X connect 0 0 15 0;
#X connect 1 0 2 0;
#X connect 1 1 6 0;
#X connect 2 0 11 0;
#X connect 2 1 12 0;
#X connect 4 0 1 0;
#X connect 4 1 8 1;
#X connect 5 0 11 1;
#X connect 5 0 12 1;
#X connect 5 1 13 1;
#X connect 5 1 14 1;
#X connect 6 0 13 0;
#X connect 6 1 14 0;
#X connect 7 0 8 0;
#X connect 8 0 19 0;
#X connect 9 0 20 0;
#X connect 11 0 7 0;
#X connect 12 0 7 2;
#X connect 13 0 7 1;
#X connect 14 0 7 3;
#X connect 15 0 5 0;
#X connect 16 0 18 0;
#X connect 17 0 4 0;
#X connect 18 0 10 0;
#X connect 18 1 17 0;
#X connect 19 0 9 0;
#X restore 446 367 pd circle;
#N canvas 0 50 450 300 translateXY 0;
#X obj 72 53 inlet;
#X obj 67 328 outlet;
#X obj 71 125 list split 2;
#X obj 222 55 inlet;
#X obj 71 150 unpack f f;
#X obj 71 175 +;
#X obj 142 182 +;
#X obj 71 200 pack f f;
#X obj 71 225 list append;
#X obj 314 56 inlet;
#X obj 69 254 list prepend chain;
#X obj 68 291 list trim;
#X obj 71 89 route chain;
#X connect 0 0 12 0;
#X connect 2 0 4 0;
#X connect 2 1 8 1;
#X connect 3 0 5 1;
#X connect 4 0 5 0;
#X connect 4 1 6 0;
#X connect 5 0 7 0;
#X connect 6 0 7 1;
#X connect 7 0 8 0;
#X connect 8 0 10 0;
#X connect 9 0 6 1;
#X connect 10 0 11 0;
#X connect 11 0 1 0;
#X connect 12 0 2 0;
#X restore 491 304 pd translateXY;
#N canvas 0 50 690 666 track 0;
#X obj 253 185 spigot;
#X msg 313 168 1;
#X obj 244 225 unpack f f;
#X obj 313 474 t f f;
#X obj 255 493 s \$0-x;
#X obj 346 500 s \$0-y;
#X msg 188 149 0;
#N canvas 0 50 539 531 bang_if_matching 0;
#X obj 120 15 inlet;
#X obj 186 376 outlet;
#X obj 188 203 -;
#X obj 254 203 -;
#X obj 244 84 r \$0-x;
#X obj 340 25 r \$0-y;
#X obj 115 77 unpack f f;
#X obj 188 235 t f f;
#X obj 254 235 t f f;
#X obj 188 260 *;
#X obj 255 259 *;
#X obj 188 285 +;
#X obj 329 213 r \$0-rayon;
#X obj 324 250 t f f;
#X obj 325 274 *;
#X obj 188 310 <;
#X obj 188 335 select 1;
#X connect 0 0 6 0;
#X connect 2 0 7 0;
#X connect 3 0 8 0;
#X connect 4 0 2 1;
#X connect 5 0 3 1;
#X connect 6 0 2 0;
#X connect 6 1 3 0;
#X connect 7 0 9 0;
#X connect 7 1 9 1;
#X connect 8 0 10 0;
#X connect 8 1 10 1;
#X connect 9 0 11 0;
#X connect 10 0 11 1;
#X connect 11 0 15 0;
#X connect 12 0 13 0;
#X connect 13 0 14 0;
#X connect 13 1 14 1;
#X connect 14 0 15 1;
#X connect 15 0 16 0;
#X connect 16 0 1 0;
#X restore 91 316 pd bang_if_matching;
#X obj 233 417 +;
#X obj 237 304 t f f;
#X obj 237 366 -;
#X obj 255 391 r \$0-x;
#X obj 314 394 +;
#X obj 316 308 t f f;
#X obj 318 343 -;
#X obj 336 368 r \$0-y;
#X obj 126 222 t l l;
#X obj 166 253 unpack f f;
#X obj 166 107 route 1 0 2;
#X obj 125 6 inlet;
#X obj 133 73 t a a;
#X obj 28 408 spigot 1;
#X obj 90 377 == 0;
#X obj 28 433 outlet;
#X obj 233 463 t b f;
#X obj 198 526 s refresh;
#X connect 0 0 2 0;
#X connect 1 0 0 1;
#X connect 1 0 22 0;
#X connect 2 0 9 0;
#X connect 2 1 13 0;
#X connect 3 1 5 0;
#X connect 6 0 0 1;
#X connect 6 0 22 0;
#X connect 7 0 1 0;
#X connect 8 0 24 0;
#X connect 9 0 10 1;
#X connect 9 1 10 0;
#X connect 10 0 8 0;
#X connect 11 0 8 1;
#X connect 12 0 3 0;
#X connect 13 0 14 1;
#X connect 13 1 14 0;
#X connect 14 0 12 0;
#X connect 15 0 12 1;
#X connect 16 0 7 0;
#X connect 16 1 17 0;
#X connect 17 0 10 1;
#X connect 17 1 14 1;
#X connect 18 0 16 0;
#X connect 18 1 6 0;
#X connect 18 2 0 0;
#X connect 19 0 20 0;
#X connect 20 0 21 0;
#X connect 20 1 18 0;
#X connect 21 0 23 0;
#X connect 22 0 21 1;
#X connect 24 0 25 0;
#X connect 24 1 4 0;
#X restore 332 237 pd track;
#X obj 520 97 r \$0-x;
#X obj 599 95 r \$0-y;
#X obj 569 338 r \$0-rayon;
#X obj 262 771 s \$0-rayon;
#X msg 259 737 0.04;
#X obj 338 31 inlet;
#X obj 300 527 outlet;
#X msg 338 719 0.1;
#X obj 350 771 s \$0-x;
#X obj 429 769 s \$0-y;
#X obj 332 141 route touch chain;
#X msg 342 323 touch \$1 \$2 \$3;
#X obj 412 164 list prepend chain;
#X obj 413 196 list trim;
#X obj 424 229 t a a;
#X obj 877 122 r \$0-x;
#X obj 816 194 f \$1;
#X obj 787 100 select 1 0;
#X obj 887 149 r \$0-y;
#X obj 729 166 pack \$1 f f;
#X obj 680 469 r \$0-x;
#X obj 739 465 r \$0-y;
#X obj 680 494 pack f f \$1;
#X obj 282 63 list prepend 0;
#X obj 276 88 route 0 1;
#X obj 735 -8 r \$0-status;
#N canvas 0 57 1920 1023 statesaving 0;
#X obj 199 141 savestate;
#X obj 201 206 unpack f f f f;
#X obj 190 233 s \$0-x;
#X obj 210 253 s \$0-y;
#X obj 230 283 s \$0-rayon;
#X obj 145 115 pack f f f f;
#X obj 114 54 t b b b b;
#X obj 94 80 v \$0-x;
#X obj 188 83 v \$0-y;
#X obj 247 85 v \$0-rayon;
#X obj 275 319 s \$0-status;
#X obj 330 85 v \$0-status;
#X obj 15 226 outlet;
#X obj 189 166 t b l;
#X connect 0 0 13 0;
#X connect 0 1 6 0;
#X connect 1 0 2 0;
#X connect 1 1 3 0;
#X connect 1 2 4 0;
#X connect 1 3 10 0;
#X connect 5 0 0 0;
#X connect 6 0 7 0;
#X connect 6 1 8 0;
#X connect 6 2 9 0;
#X connect 6 3 11 0;
#X connect 7 0 5 0;
#X connect 8 0 5 1;
#X connect 9 0 5 2;
#X connect 11 0 5 3;
#X connect 13 0 12 0;
#X connect 13 1 1 0;
#X restore 388 601 pd statesaving;
#X msg 388 626 0;
#X obj 337 658 spigot 1;
#X obj 292 688 t b;
#X obj 288 619 loadbang;
#X obj 195 100 tgl 25 0 \$0-status \$0-status-rcv empty 17 7 0 10 -262144
-1 -1 1 1;
#X obj 873 64 s \$0-status-rcv;
#X msg 876 32 set \$1;
#X obj 736 67 t f f f;
#X obj 436 63 s refresh;
#X obj 536 1 t f f;
#X obj 461 15 change;
#X obj 450 35 t b;
#X obj 653 -4 loadbang;
#X obj 736 36 f;
#X msg 738 230 blob removeCursor \$1;
#X msg 715 290 blob addCursor \$1 \$2 \$3;
#X msg 680 519 blob updateCursor \$3 \$1 \$2;
#X connect 0 1 9 0;
#X connect 1 0 0 0;
#X connect 2 0 14 0;
#X connect 3 0 1 1;
#X connect 4 0 1 2;
#X connect 5 0 0 1;
#X connect 7 0 6 0;
#X connect 8 0 26 0;
#X connect 10 0 11 0;
#X connect 10 0 12 0;
#X connect 13 0 2 0;
#X connect 13 1 15 0;
#X connect 13 2 9 0;
#X connect 14 0 9 0;
#X connect 15 0 16 0;
#X connect 16 0 17 0;
#X connect 17 0 9 0;
#X connect 17 1 1 0;
#X connect 18 0 22 1;
#X connect 19 0 44 0;
#X connect 20 0 22 0;
#X connect 20 1 19 0;
#X connect 21 0 22 2;
#X connect 22 0 45 0;
#X connect 23 0 25 0;
#X connect 24 0 25 1;
#X connect 25 0 46 0;
#X connect 26 0 27 0;
#X connect 27 0 9 0;
#X connect 27 1 13 0;
#X connect 28 0 43 0;
#X connect 29 0 30 0;
#X connect 30 0 31 1;
#X connect 31 0 32 0;
#X connect 32 0 7 0;
#X connect 32 0 10 0;
#X connect 33 0 31 0;
#X connect 36 0 35 0;
#X connect 37 0 39 0;
#X connect 37 1 20 0;
#X connect 37 2 36 0;
#X connect 39 0 40 0;
#X connect 39 1 26 1;
#X connect 40 0 41 0;
#X connect 41 0 38 0;
#X connect 42 0 43 0;
#X connect 43 0 37 0;
#X connect 44 0 9 0;
#X connect 45 0 9 0;
#X connect 46 0 9 0;
#X coords 0 -1 1 1 120 25 1 100 100;
