#N canvas 294 212 1624 790 16;
#X declare -path pdr/modules/basic;
#X obj 559 297 t b b b b;
#X obj 566 276 bng 15 250 50 0 empty empty empty 17 7 0 10 -262144
-1 -1;
#X msg 579 576 0 \, 1 \, 2 \, 3;
#X msg 580 630 \; container-\$1 remote embedded clear;
#X text 108 179 (argument == instance-number + 1);
#X text 70 578 to communicate with;
#X text 67 148 Example : this is a static rack of 4 nested containers
:;
#X obj 56 201 cnv 15 400 400 empty empty empty 20 12 0 14 -261682 -66577
0;
#X obj 246 226 container 1;
#A saved contents fx_bonkpitch;
#A saved SID 0;
#A saved dump smooth 713.109;
#A saved dump sens 24.6344;
#A saved dump vol 79.0053;
#X obj 245 310 container 2;
#A saved SID 1;
#X obj 245 395 container 3;
#A saved SID 2;
#X obj 244 484 container 4;
#A saved SID 3;
#X text 68 240 [container 1];
#X text 68 409 [container 3];
#X text 68 323 [container 2;
#X text 68 493 [container 4];
#X text 59 27 The special module "container" can embed another module
and dynamically change it.;
#X text 595 270 fill containers;
#X text 89 714 This is part of PdRacks vanilia for mobile plateform
project, f 89;
#X text 551 233 * To remotely change container contents :;
#X text 537 538 * To remotely clear containers :;
#N canvas 0 50 450 300 tech 0;
#X text 32 154 OU : recall presets en deux passes : d'abord infos de
structure \, puis infos de presets;
#X text 34 88 exemple avec remplissage dynamique des containers dans
la memoire de scène, f 28;
#X restore 1218 624 pd tech notes;
#X text 1128 328 <-- addresses to [container 1] object, f 21;
#X text 1124 385 <-- addresses to [container 2] object, f 22;
#X text 1127 437 <-- addresses to [container 3] object, f 20;
#X text 1127 494 <-- addresses to [container 4] object, f 20;
#X msg 645 330 \; container-0 remote embedded data_azerty2midi;
#X msg 642 380 \; container-1 remote embedded inst_pcm;
#X msg 642 433 \; container-2 remote embedded fx_dattorroverb;
#X msg 641 489 \; container-3 remote embedded audio_out;
#N canvas 0 50 450 300 \$0-PdRacks.declare 0;
#X obj 10 10 declare -path pdr/modules/basic;
#X obj 10 60 pdr/core/stuff/u_glocal.enable \$0;
#A saved modules_set # List of modules to load;
#A saved modules_set # you can add new sets of modules here;
#A saved modules_set # (ctrl/cmd + s to save and close);
#A saved modules_set basic;
#X restore 694 27 pd \$0-PdRacks.declare;
#X text 63 83 You can save the changes using a PdRacks.savestate module.
;
#X text 503 204 OBSOLETE;
#N canvas 0 50 450 250 (subpatch) 0;
#X coords 0 1 100 -1 900 450 1 0 0;
#X restore 500 230 graph;
#X connect 0 0 29 0;
#X connect 0 1 28 0;
#X connect 0 2 27 0;
#X connect 0 3 26 0;
#X connect 1 0 0 0;
#X connect 2 0 3 0;
#X connect 8 0 9 0;
#X connect 8 1 9 1;
#X connect 8 2 9 2;
#X connect 9 0 10 0;
#X connect 9 1 10 1;
#X connect 9 2 10 2;
#X connect 10 0 11 0;
#X connect 10 1 11 1;
#X connect 10 2 11 2;
