#N canvas 68 214 972 615 16;
#X declare -path pdr/modules/basic;
#X obj 639 8 pdr;
#N canvas 0 50 450 300 \$0-PdRacks.declare 0;
#X obj 10 10 declare -path pdr/modules/basic;
#X obj 10 60 pdr/core/stuff/u_glocal.enable \$0;
#A saved modules_set # List of modules to load;
#A saved modules_set # you can add new sets of modules here;
#A saved modules_set # (ctrl/cmd + s to save and close);
#A saved modules_set basic;
#X restore 639 53 pd \$0-PdRacks.declare;
#X obj 651 372 hsl 128 15 1.27 10000 1 1 MORPH.TIME MORPH.TIME-rcv
morph_time -2 -8 0 10 -262144 -1 -1 11200 1;
#X floatatom 647 390 5 1 10000 0 - MORPH.TIME-rcv MORPH.TIME;
#N canvas 608 232 1124 830 controle_clavier 0;
#X obj 204 129 cnv 15 85 40 empty \$0-scene-nb n⁰0 2 20 0 30 -233017
-4160 0;
#X msg 38 495 remote recall;
#X obj 20 572 pdr/core/glocal/glocal.send;
#X msg 332 492 symbol PdRacks.savestate-\$1;
#X obj 71 411 t b f;
#X obj 345 117 keyname;
#X obj 345 173 pack f s;
#X obj 345 202 route 1;
#X obj 345 231 symbol;
#X obj 347 261 select Space Down Up;
#X obj 357 336 +;
#X obj 422 380 f;
#X msg 347 290 1;
#X msg 472 293 -1;
#X obj 348 146 spigot;
#X obj 23 268 s \$0-scene-nb;
#X msg 39 225 label n⁰\$1;
#X obj 172 140 tgl 30 1 empty empty empty 2 20 0 20 -257985 -1 -1 1
1;
#X text 106 142 enable;
#X obj 538 111 inlet;
#X floatatom 714 200 5 0 0 0 - - -;
#X obj 714 171 r PdRacks.savestate.current;
#X obj 717 383 r /nav/prev;
#X obj 839 383 r /nav/next;
#X obj 717 412 select 1;
#X obj 839 412 select 1;
#X obj 728 314 s toGUI;
#X msg 773 248 list /nav/display set \$1;
#X obj 688 536 r PdRacks.savestate.label;
#X obj 648 682 s toGUI;
#X msg 693 616 list /nav/label set \$1;
#X connect 1 0 2 0;
#X connect 3 0 2 1;
#X connect 4 0 1 0;
#X connect 4 1 3 0;
#X connect 5 0 14 0;
#X connect 5 1 6 1;
#X connect 6 0 7 0;
#X connect 7 0 8 0;
#X connect 8 0 9 0;
#X connect 9 0 12 0;
#X connect 9 1 12 0;
#X connect 9 2 13 0;
#X connect 10 0 4 0;
#X connect 11 0 10 1;
#X connect 11 0 16 0;
#X connect 12 0 10 0;
#X connect 13 0 10 0;
#X connect 14 0 6 0;
#X connect 16 0 15 0;
#X connect 17 0 14 1;
#X connect 19 0 12 0;
#X connect 21 0 11 0;
#X connect 21 0 20 0;
#X connect 21 0 27 0;
#X connect 22 0 24 0;
#X connect 23 0 25 0;
#X connect 24 0 13 0;
#X connect 25 0 12 0;
#X connect 27 0 26 0;
#X connect 28 0 30 0;
#X connect 30 0 29 0;
#X coords 0 -1 1 1 190 70 1 100 100;
#X restore 637 187 pd controle_clavier;
#X obj 638 93 ctlin 64;
#X obj 638 122 select 127;
#N canvas 472 610 914 680 osc 0;
#X obj 482 255 netsend -u -b;
#X msg 477 181 connect localhost 5679;
#X obj 476 152 loadbang;
#X obj 27 62 netreceive -u -b 5678;
#X obj 604 -70 r toGUI;
#N canvas 142 457 581 323 oscformat-mobmuplat 0;
#X obj 66 55 list split 1;
#X obj 136 120 list;
#X obj 65 83 list prepend set;
#X obj 64 152 list trim;
#X obj 65 104 t b l;
#X obj 65 27 inlet;
#X obj 72 183 oscformat;
#X obj 71 276 outlet;
#X text 258 82 extract the address \, set it on oscformat \, then send
values;
#X obj 72 206 list prepend send;
#X obj 72 232 list trim;
#X connect 0 0 2 0;
#X connect 0 1 1 1;
#X connect 1 0 6 0;
#X connect 2 0 4 0;
#X connect 3 0 6 0;
#X connect 4 0 1 0;
#X connect 4 1 3 0;
#X connect 5 0 0 0;
#X connect 6 0 9 0;
#X connect 9 0 10 0;
#X connect 10 0 7 0;
#X restore 559 22 pd oscformat-mobmuplat;
#N canvas 9 96 869 639 oscparse-mobmuplat 0;
#X obj 58 127 oscparse;
#X obj 39 155 list tosymbol;
#X obj 75 199 list split 1;
#X obj 224 198 list;
#X obj 134 325 int;
#X obj 133 349 + 1;
#X obj 126 302 bng 15 250 50 0 empty empty empty 17 7 0 10 -262144
-1 -1;
#X floatatom 125 378 5 0 0 0 - - -;
#X msg 160 301 0;
#X obj 61 406 list split 2;
#X obj 35 437 list append;
#X obj 73 230 sel 0;
#X obj 100 256 t b f;
#X obj 126 279 sel 47;
#X text 190 40 1) look at bytes \, count number of 47 (/) befoer zero
= N 2) split off first N items (the address components) from oscparse
output \, keep the rest 3) use tosymbol to get unparse address \, prepend
it to values.;
#X obj 36 63 t l l l b, f 12;
#X text 259 229 stop iterating on zero;
#X text 161 378 how many elements the address was split into;
#X text 193 150 gets address (symbol up until the null delimiter character)
;
#X obj 35 6 inlet;
#X obj 31 462 outlet;
#X connect 0 0 9 0;
#X connect 1 0 10 0;
#X connect 2 0 11 0;
#X connect 2 1 3 1;
#X connect 3 0 2 0;
#X connect 4 0 5 0;
#X connect 5 0 4 1;
#X connect 5 0 7 0;
#X connect 6 0 4 0;
#X connect 7 0 9 1;
#X connect 8 0 4 1;
#X connect 9 1 10 1;
#X connect 10 0 20 0;
#X connect 11 1 12 0;
#X connect 12 0 3 0;
#X connect 12 1 13 0;
#X connect 13 0 6 0;
#X connect 15 0 1 0;
#X connect 15 1 0 0;
#X connect 15 2 2 0;
#X connect 15 3 8 0;
#X connect 19 0 15 0;
#X restore 20 118 pd oscparse-mobmuplat;
#X msg 20 147 \; \$1 \$2;
#X obj 510 308 tgl 15 0 empty empty empty 17 7 0 10 -262144 -1 -1 1
1;
#X msg 305 189 disconnect;
#X msg 255 -31 /fx_chorus-0/freq/ducon hello;
#X obj 722 -52 route set;
#X obj 706 -11 print ERROR;
#X obj 702 86 list;
#X msg 702 115 \$1 \$3;
#X connect 0 0 8 0;
#X connect 1 0 0 0;
#X connect 2 0 1 0;
#X connect 3 0 6 0;
#X connect 4 0 11 0;
#X connect 5 0 0 0;
#X connect 6 0 7 0;
#X connect 9 0 0 0;
#X connect 10 0 5 0;
#X connect 11 0 12 0;
#X connect 11 1 13 0;
#X connect 13 0 14 0;
#X connect 14 0 5 0;
#X restore 791 370 pd osc;
#N canvas 0 50 619 703 morph 0;
#X obj 102 27 inlet;
#X obj 275 69 r /morph/time;
#X obj 275 125 dbtorms;
#X obj 275 98 * 100;
#X obj 276 154 * 10000;
#X msg 278 183 \; MORPH.TIME \$1;
#X msg 345 308 set \$1;
#X obj 343 278 r MORPH.TIME;
#X obj 334 351 s MORPH.TIME-rcv;
#X msg -20 316 \; toGUI list /morph/time set \$1;
#X obj 59 201 / 10000;
#X obj 59 230 rmstodb;
#X obj 59 259 / 100;
#X obj 217 452 int;
#X msg 1 538 \; toGUI list /morph/duration set MORPHING=\$1ms;
#X connect 0 0 10 0;
#X connect 1 0 3 0;
#X connect 2 0 4 0;
#X connect 3 0 2 0;
#X connect 4 0 5 0;
#X connect 6 0 8 0;
#X connect 7 0 6 0;
#X connect 7 0 13 0;
#X connect 10 0 11 0;
#X connect 11 0 12 0;
#X connect 12 0 9 0;
#X connect 13 0 14 0;
#X restore 696 391 pd morph;
#X obj 198 267 fx_chorus;
#A saved bypass 1;
#A saved mod 1.72;
#A saved freq 1.40805;
#X obj 435 151 r toGUI;
#X obj 435 180 print toGUI;
#X connect 2 0 8 0;
#X connect 5 0 6 0;
#X connect 6 0 4 0;
#X connect 10 0 11 0;
