#N canvas 0 58 1920 1023 10;
#X declare -path ../../../core;
#X declare -path ../../../core/stuff;
#X declare -path ../../../core/rj;
#X obj 317 31 inlet data;
#X obj 313 614 outlet data;
#X obj 101 101 cnv 15 188 68 \$0-background \$0-background-rcv audiolab_dump-0
0 7 0 14 -262144 -1 0;
#X obj 771 99 namecanvas \$0-this;
#X obj 769 76 triggered_loadbang \$0-this;
#X text 764 26 manually trigger loadbang if the instance of abstraction
is created dynamically, f 29;
#X obj 755 160 savestate;
#X obj 272 263 route set add2 addcomma;
#X obj 624 222 u_dispatch \$0 dump;
#X obj 269 407 text define \$0-dumper;
#X msg 269 384 clear;
#X obj 322 356 text insert \$0-dumper;
#X obj 520 366 s \$0-dump;
#X obj 452 149 spigot 1;
#X obj 443 98 r \$0-dump;
#X msg 508 122 0;
#X msg 517 144 1;
#X obj 353 288 t a b;
#X obj 485 235 delay 1;
#X obj 337 322 list;
#X obj 520 325 text tolist \$0-dumper;
#X obj 473 209 bng 15 250 50 0 empty empty empty 17 7 0 10 -262144
-1 -1;
#X obj 288 209 spigot;
#X obj 338 130 loadbang;
#X obj 338 153 delay 10;
#X msg 362 176 1;
#X obj 652 545 text fromlist \$0-dumper;
#X obj 527 562 text sequence \$0-dumper;
#X msg 520 532 line 0 \, bang;
#X obj 527 585 list trim;
#X obj 511 479 t b a;
#X obj 643 499 list;
#X obj 697 299 text size \$0-dumper;
#X obj 516 273 t b b b b;
#X floatatom 132 148 5 0 0 1 dump_size - -;
#X obj 624 200 module_loader audiolab_dump \$0 \$1;
#X obj 702 329 change;
#X obj 574 8 declare -path ../../../core;
#X obj 574 28 declare -path ../../../core/stuff;
#X obj 574 48 declare -path ../../../core/rj;
#X connect 0 0 22 0;
#X connect 0 0 35 0;
#X connect 6 0 35 1;
#X connect 6 1 35 2;
#X connect 7 0 10 0;
#X connect 7 1 17 0;
#X connect 10 0 9 0;
#X connect 13 0 30 0;
#X connect 14 0 13 0;
#X connect 15 0 13 1;
#X connect 16 0 13 1;
#X connect 17 0 19 0;
#X connect 17 1 18 0;
#X connect 18 0 33 0;
#X connect 19 0 11 0;
#X connect 20 0 12 0;
#X connect 21 0 18 0;
#X connect 22 0 7 0;
#X connect 23 0 24 0;
#X connect 24 0 25 0;
#X connect 25 0 22 1;
#X connect 27 0 29 0;
#X connect 28 0 27 0;
#X connect 29 0 1 0;
#X connect 30 0 28 0;
#X connect 30 1 31 0;
#X connect 31 0 26 0;
#X connect 32 0 36 0;
#X connect 33 0 16 0;
#X connect 33 1 20 0;
#X connect 33 2 15 0;
#X connect 33 3 32 0;
#X connect 35 0 8 0;
#X connect 35 1 6 0;
#X connect 36 0 34 0;
#X coords 0 -1 1 1 190 70 1 100 100;
