#N struct comment float x float y float color text FR text EN text
IT;
#N canvas 312 199 931 469 16;
#X obj 1 0 cnv 15 800 50 empty empty empty 20 12 0 14 -232576 -66577
0;
#X scalar comment 32.6034 102.223 800 \; Permet la sauvegarde dans
l'environnement PdRacks de l'état des objets audiolab. \; Enable state
saving of audiolab objects inside PdRacks \; Per salvare audiolab objects
state dentro PdRacks \;;
#X text 9 5 audiolab_dump;
#N canvas 0 57 1920 1023 lang 0;
#X obj 358 186 drawtext FR 0 0 color;
#X obj 676 203 drawtext IT 0 0 color;
#X obj 430 214 drawtext EN 0 0 color;
#X obj 532 -10 struct comment float x float y float color text FR text
EN text IT;
#X obj 157 132 route click;
#X msg 95 249 0;
#X obj 37 351 text get -s comment FR;
#X msg 14 300 click;
#X obj 211 462 route updated;
#X obj 37 623 text set -s comment FR;
#X msg 136 521 0;
#X msg 357 508 close;
#X obj 25 569 text get \$0-popup;
#X obj 20 479 text set \$0-popup;
#X obj 24 408 text define \$0-popup;
#X obj 293 631 text set -s comment EN;
#X obj 546 622 text set -s comment IT;
#X msg 155 295 clear;
#X obj 81 206 t b b p b p p;
#X obj 270 351 text get -s comment EN;
#X obj 503 347 text get -s comment IT;
#X obj 281 561 text get \$0-popup;
#X obj 540 556 text get \$0-popup;
#X msg 285 529 1;
#X msg 544 524 2;
#X obj 455 393 t b b b b b b b;
#X msg 206 587 0;
#X msg 362 598 0;
#X msg 616 590 0;
#X msg 70 445 10;
#X obj 76 280 t f f f;
#X msg 278 28 set \$1;
#X obj 165 62 spigot;
#X obj 1 1 cnv 15 198 48 empty empty empty 20 12 0 14 -202995 -66577
0;
#X obj 143 3 vradio 15 1 1 3 \$0-lang \$0-lang-rcv empty 0 -8 0 10
-262144 -1 -1 0;
#X text 157 -1 FR;
#X scalar comment 0.000947798 -0.993982 0 \; LANGUE \; LANGUAGE \;
LINGUA \;;
#X text 157 27 IT;
#X text 157 13 EN;
#X obj 4 30 tgl 15 0 \$0-edit empty Edit 17 7 0 10 -262144 -1 -1 0
1;
#X obj 465 49 r \$0-lang;
#X obj 274 0 r \$0-edit;
#X obj 361 151 == 0;
#X obj 466 145 == 1;
#X obj 593 143 == 2;
#X connect 3 0 32 0;
#X connect 4 0 18 0;
#X connect 5 0 30 0;
#X connect 6 0 13 0;
#X connect 7 0 14 0;
#X connect 8 0 25 0;
#X connect 10 0 12 0;
#X connect 11 0 14 0;
#X connect 12 0 9 0;
#X connect 14 1 8 0;
#X connect 17 0 14 0;
#X connect 18 0 7 0;
#X connect 18 2 5 0;
#X connect 18 3 17 0;
#X connect 18 3 29 0;
#X connect 18 4 6 3;
#X connect 18 4 19 3;
#X connect 18 4 20 3;
#X connect 18 5 9 3;
#X connect 18 5 15 3;
#X connect 18 5 16 3;
#X connect 19 0 13 0;
#X connect 20 0 13 0;
#X connect 21 0 15 0;
#X connect 22 0 16 0;
#X connect 23 0 21 0;
#X connect 24 0 22 0;
#X connect 25 0 11 0;
#X connect 25 1 10 0;
#X connect 25 2 23 0;
#X connect 25 3 24 0;
#X connect 25 4 26 0;
#X connect 25 5 27 0;
#X connect 25 6 28 0;
#X connect 26 0 9 1;
#X connect 27 0 15 1;
#X connect 28 0 16 1;
#X connect 29 0 13 1;
#X connect 30 0 20 0;
#X connect 30 1 19 0;
#X connect 30 2 6 0;
#X connect 31 0 39 0;
#X connect 32 0 4 0;
#X connect 40 0 42 0;
#X connect 40 0 43 0;
#X connect 40 0 44 0;
#X connect 41 0 31 0;
#X connect 41 0 32 1;
#X connect 42 0 0 0;
#X connect 43 0 2 0;
#X connect 44 0 1 0;
#X coords 0 -1 1 1 200 50 1 0 0;
#X restore 600 0 pd lang;
#X obj 48 233 audiolab/pp.graindelay~;
#A saved empty_slot \; empty_slot \; empty_slot \; empty_slot \; empty_slot
\; empty_slot \; empty_slot \; empty_slot \; empty_slot \; empty_slot
\; empty_slot \; empty_slot \; empty_slot \; empty_slot \; empty_slot
\; empty_slot \; empty_slot \; empty_slot \; empty_slot \; empty_slot
\; empty_slot \;;
#X obj 244 237 audiolab_dump;
#A saved SID 1;
#X connect 4 2 5 0;
#X connect 5 0 4 1;
