#N canvas 0 57 1920 1023 10;
#X declare -lib zexy;
#X declare -path ../../core;
#X declare -path ../../core/stuff;
#X declare -path ../../core/rj;
#N canvas 172 83 586 377 LICENSE-GPL 0;
#X text 57 88 This program is free software: you can redistribute it
and/or modify it under the terms of the GNU General Public License
as published by the Free Software Foundation \, either version 3 of
the License \, or (at your option) any later version.;
#X text 58 168 This program is distributed in the hope that it will
be useful \, but WITHOUT ANY WARRANTY \; without even the implied warranty
of MERCHANTABILITY or FITNESS FOR A PARTICULAR PURPOSE. See the GNU
General Public License for more details.;
#X text 57 261 You should have received a copy of the GNU General Public
License along with this program. If not \, see <http://www.gnu.org/licenses/>.
;
#X text 61 54 Copyright (C) 2009 \, Reality Jockey Ltd.;
#X text 60 325 See the file LICENSE.txt for the full license text.
;
#X restore 298 15 pd LICENSE-GPL;
#X msg 454 681 start;
#X msg 393 645 stop;
#X obj 335 780 writesf~ 2;
#X obj 978 288 bng 15 250 50 0 empty empty empty 17 7 0 10 -262144
-1 -1;
#N canvas 0 50 1263 814 horodatage(zexy) 0;
#X obj 107 12 inlet;
#X obj 142 673 outlet;
#X obj 326 123 makefilename %02d;
#X obj 353 175 pack symbol symbol symbol;
#X obj 466 121 makefilename %02d;
#X obj 506 141 makefilename %02d;
#X obj 101 213 list append;
#X obj 58 119 makefilename %02d;
#X obj 187 119 makefilename %02d;
#X obj 38 139 makefilename %02d;
#X obj 33 165 pack symbol symbol symbol;
#X msg 99 233 symbol \$1-\$2-\$3_\$4h\$5'\$6;
#X text 181 83 <--- zexy externals ----->;
#X obj 626 375 random 1e+06;
#X obj 644 298 timer;
#X msg 638 339 seed \$1;
#X obj 84 35 t b b b b;
#X obj 460 500 spigot;
#X obj 613 405 t f b;
#X obj 467 549 symbol;
#X msg 492 458 1;
#X obj 99 256 t s b;
#X msg 463 410 0;
#X text 747 306 if zexy unused \, generate random name for record;
#X obj 176 17 bng 15 250 50 0 empty empty empty 17 7 0 10 -262144 -1
-1;
#X symbolatom 467 572 10 0 0 0 - - -;
#X floatatom 644 321 5 0 0 0 - - -;
#X floatatom 646 401 5 0 0 0 - - -;
#X obj 562 264 t b b;
#X msg 613 451 symbol _record_#\$1;
#X obj 33 74 date, f 20;
#X obj 385 87 time, f 30;
#X connect 0 0 16 0;
#X connect 2 0 3 0;
#X connect 3 0 6 1;
#X connect 4 0 3 1;
#X connect 5 0 3 2;
#X connect 6 0 11 0;
#X connect 7 0 10 1;
#X connect 8 0 10 2;
#X connect 9 0 10 0;
#X connect 10 0 6 0;
#X connect 11 0 21 0;
#X connect 13 0 18 0;
#X connect 13 0 27 0;
#X connect 14 0 15 0;
#X connect 14 0 26 0;
#X connect 15 0 13 0;
#X connect 16 0 17 0;
#X connect 16 1 30 0;
#X connect 16 2 31 0;
#X connect 16 3 28 0;
#X connect 17 0 19 0;
#X connect 18 0 29 0;
#X connect 18 1 20 0;
#X connect 19 0 1 0;
#X connect 19 0 25 0;
#X connect 20 0 17 1;
#X connect 21 0 1 0;
#X connect 21 1 22 0;
#X connect 22 0 17 1;
#X connect 24 0 16 0;
#X connect 28 0 13 0;
#X connect 28 1 14 1;
#X connect 29 0 19 1;
#X connect 30 0 9 0;
#X connect 30 1 7 0;
#X connect 30 2 8 0;
#X connect 31 0 2 0;
#X connect 31 1 4 0;
#X connect 31 2 5 0;
#X restore 975 319 pd horodatage(zexy);
#X obj 660 210 change;
#X obj 373 452 select 0 1;
#X obj 942 259 t b b;
#X msg 320 82 color 3 3 -1;
#X msg 319 104 color 13 13 -1;
#X obj 541 198 timer, f 15;
#X obj 528 169 bng 15 250 50 0 empty empty empty 17 7 0 10 -262144
-1 -1;
#X obj 652 182 bng 15 250 50 0 empty empty empty 17 7 0 10 -262144
-1 -1;
#X obj 656 242 metro 1000;
#X obj 535 223 / 1000;
#X obj 529 249 int;
#X obj 542 271 t f f;
#X msg 502 391 label \$1:\$2;
#X obj 546 333 makefilename %02d;
#X obj 504 417 s \$0-time;
#X obj 506 343 makefilename %02d;
#X obj 492 367 pack s s;
#X obj 485 290 div 60;
#X obj 533 307 mod 60;
#X obj 101 101 cnv 15 188 68 \$0-background \$0-background-rcv audio_record-0 0
7 0 14 -262144 -1 0;
#X obj 250 129 tgl 40 0 empty empty REC 5 20 0 15 -261689 -261689 -1
0 1;
#X obj 118 147 cnv 15 100 20 empty \$0-time 00:02 20 12 0 14 -261682
-66577 0;
#X obj 189 123 cnv 2 70 2 empty \$0-vu -30db 20 5 0 10 -24198 -1 0
;
#X obj 1314 199 div 10;
#X floatatom 1314 93 5 0 0 0 - - -;
#X msg 1314 112 12;
#X obj 456 661 delay 100;
#X obj 613 523 module_loader audio_record \$0 \$1;
#X obj 1014 132 inlet~;
#X obj 1014 154 outlet~;
#X obj 940 165 outlet~;
#X obj 943 130 inlet~;
#X obj 1085 133 inlet data;
#X obj 1085 155 outlet data;
#X obj 217 654 *~ 0.5;
#X obj 331 656 *~ 0.5;
#X obj 558 31 r \$0-busy;
#X obj 502 100 spigot;
#X msg 502 122 set \$1;
#X obj 1276 155 r \$1-slot;
#X msg 1330 234 list -[\$1];
#X obj 201 788 meter \$0;
#X obj 186 582 c_frombus no-in;
#X obj 324 582 c_frombus no-in;
#X obj 79 194 list split 1;
#X obj 198 544 unpack s s;
#X obj 26 226 t b s b;
#X obj 28 371 symbol;
#X msg 32 288 1;
#X msg 71 285 0;
#X obj 28 343 spigot 1;
#X symbolatom 127 135 20 0 0 0 - - -;
#X obj 220 100 u_rollmenu \$0-input 0;
#X obj 26 391 text search \$0-input;
#X obj 801 730 text define -k \$0-input;
#A set no-in no-in no-in \; IN(1/2) IN1 IN2 \; IN(3/4) IN3 IN4 \; MASTER
MASTER-r MASTER-l \; OUT(1/2) OUT1 OUT2 \; OUT(3/4) OUT3 OUT4 \;;
#X obj 59 253 s \$0-source;
#X obj 609 549 u_dispatch \$0 source;
#X obj 705 110 s \$0-source;
#X obj 18 313 r \$0-source;
#X obj 522 6 loadbang;
#X obj 1108 17 declare -lib zexy;
#N canvas 0 57 1920 1023 check_glocal_bus 0;
#X obj 87 17 inlet;
#X obj 93 263 outlet;
#X obj 105 131 glocal/glocal.dollarzero;
#X obj 87 100 t a b;
#X msg 120 223 list \$1-\$2 \$1-\$3;
#X obj 86 182 route 0;
#X obj 86 162 list prepend 0;
#X obj 60 225 list;
#X text 26 299 if glocal.dollarzero == 0 \, we are in global mode \,
else in local mode;
#X obj 87 39 list trim;
#X obj 270 227 list;
#X obj 86 66 route GLOCAL;
#X text 287 127 get dollarzero from (gran)parent patch;
#X text 284 142 if glocal mode is active;
#X connect 0 0 9 0;
#X connect 2 0 6 1;
#X connect 3 0 6 0;
#X connect 3 1 2 0;
#X connect 4 0 1 0;
#X connect 5 0 7 0;
#X connect 5 1 4 0;
#X connect 6 0 5 0;
#X connect 7 0 1 0;
#X connect 9 0 11 0;
#X connect 10 0 1 0;
#X connect 11 0 3 0;
#X connect 11 1 10 0;
#X restore 202 520 pd check_glocal_bus;
#X obj 247 181 glocal/glocal.send AUDIO_RECORD_REC;
#X obj 636 36 glocal/glocal.receive AUDIO_RECORD_REC;
#X obj 969 414 list append 0;
#X obj 1080 237 r \$0-ID;
#X msg 1080 260 list -\$1;
#X obj 1521 130 namecanvas \$0-this;
#X obj 1519 107 triggered_loadbang \$0-this;
#X text 1514 57 manually trigger loadbang if the instance of abstraction
is created dynamically, f 29;
#X obj 969 437 list prepend ../../recordings/;
#X msg 894 498 open \$1\$2\$3;
#X obj 101 126 bng 15 250 50 0 empty empty s/pdr/modules/basic/ 1 -7
0 10 -262144 -1 -258113;
#N canvas 0 50 725 663 splitfilename 0;
#X obj 250 136 list fromsymbol;
#X obj 332 201 list length;
#X obj 161 305 list split;
#X obj 139 261 list append;
#X obj 269 203 f;
#X obj 193 325 list split 1;
#X obj 271 227 - 1;
#X obj 250 158 t b l l;
#X obj 241 272 +;
#X obj 161 189 t b b;
#X msg 348 167 0;
#X obj 392 448 list append;
#X obj 196 390 t b b;
#X obj 131 470 list tosymbol;
#X obj 392 470 list tosymbol;
#X obj 282 405 t b;
#X obj 107 405 spigot;
#X obj 110 431 t l b;
#X msg 177 411 1;
#X msg 191 440 0;
#X obj 382 314 list fromsymbol;
#X obj 382 336 unpack f f;
#X obj 196 368 select;
#X obj 385 259 loadbang;
#X obj 54 52 inlet;
#X obj 54 74 route separator;
#X obj 254 72 symbol;
#X obj 254 94 t s b;
#X obj 47 136 list;
#X msg 47 158 symbol '\$1;
#X obj 106 524 outlet;
#X obj 392 492 outlet;
#X text 228 24 vanilia implementation of iemlib/splifilename;
#X obj 382 292 list append '/;
#X obj 483 264 bng 15 250 50 0 empty empty empty 17 7 0 10 -262144
-1 -1;
#X connect 0 0 7 0;
#X connect 1 0 8 1;
#X connect 2 0 16 0;
#X connect 2 1 5 0;
#X connect 3 0 2 0;
#X connect 4 0 6 0;
#X connect 5 0 22 0;
#X connect 5 1 11 1;
#X connect 6 0 4 1;
#X connect 6 0 8 0;
#X connect 7 0 9 0;
#X connect 7 1 3 1;
#X connect 7 2 1 0;
#X connect 8 0 2 1;
#X connect 9 0 3 0;
#X connect 9 1 4 0;
#X connect 10 0 4 1;
#X connect 11 0 14 0;
#X connect 12 0 18 0;
#X connect 12 1 11 0;
#X connect 13 0 30 0;
#X connect 14 0 31 0;
#X connect 15 0 9 0;
#X connect 16 0 17 0;
#X connect 17 0 13 0;
#X connect 17 1 19 0;
#X connect 18 0 16 1;
#X connect 19 0 16 1;
#X connect 20 0 21 0;
#X connect 21 1 22 1;
#X connect 22 0 12 0;
#X connect 22 1 15 0;
#X connect 23 0 33 0;
#X connect 24 0 25 0;
#X connect 25 0 28 0;
#X connect 25 1 26 0;
#X connect 26 0 27 0;
#X connect 27 0 0 0;
#X connect 27 1 10 0;
#X connect 28 0 29 0;
#X connect 29 0 20 0;
#X connect 33 0 20 0;
#X connect 34 0 33 0;
#X restore 195 316 pd splitfilename /;
#X obj 203 425 glocal/glocal.send AUDIO_RECORD_FOLDER;
#X obj 80 461 glocal/glocal.receive AUDIO_RECORD_FOLDER;
#X obj 609 572 u_dispatch \$0 folder;
#X obj 81 488 s \$0-folder;
#X obj 1259 308 r \$0-folder;
#X obj 220 211 t b b;
#X msg 278 280 symbol /home/jyg/Documents/Pd/externals/pdr/modules/basic/
;
#X msg 196 339 symbol \$1/;
#X msg 317 374 label \$1;
#X obj 636 56 route float folder;
#X obj 196 397 s \$0-folder;
#X obj 194 373 t s s;
#X obj 321 304 r \$0-folder;
#X obj 197 289 openpanel;
#X obj 321 327 symbol;
#X obj 755 453 savestate;
#X msg 626 2 source OUT(1/2);
#N canvas 0 50 450 300 getdir 0;
#X obj 114 59 inlet;
#X obj 114 84 t b;
#X msg 104 184 dir \$1;
#X obj 104 209 pdcontrol;
#X obj 114 134 + 1;
#X obj 104 234 outlet;
#X obj 114 109 f 2;
#X text 178 117 <- parent depth;
#X text 158 141 + this subpatch level;
#X connect 0 0 1 0;
#X connect 1 0 6 0;
#X connect 2 0 3 0;
#X connect 3 0 5 0;
#X connect 4 0 2 0;
#X connect 6 0 4 0;
#X restore 1271 380 pd getdir 2;
#X obj 1271 350 loadbang;
#X obj 1271 403 s \$0-folder;
#X obj 1350 348 bng 15 250 50 0 empty empty empty 17 7 0 10 -262144
-1 -1;
#X obj 386 213 loadbang;
#N canvas 0 50 450 300 getdir 0;
#X obj 114 59 inlet;
#X obj 114 84 t b;
#X msg 104 184 dir \$1;
#X obj 104 209 pdcontrol;
#X obj 114 134 + 1;
#X obj 104 234 outlet;
#X text 178 117 <- parent depth;
#X text 158 141 + this subpatch level;
#X obj 114 109 f 99;
#X connect 0 0 1 0;
#X connect 1 0 8 0;
#X connect 2 0 3 0;
#X connect 3 0 5 0;
#X connect 4 0 2 0;
#X connect 8 0 4 0;
#X restore 389 237 pd getdir 99;
#X msg 389 259 set symbol \$1/;
#X msg 969 460 \$1\$2\$3;
#X obj 951 547 print recording;
#X obj 25 6 symbol;
#X msg 16 123 label \$1;
#X msg 39 97 symbol;
#N canvas 696 149 561 762 tosymbol 0;
#X text 65 454 symbol out with correct spaces;
#X text 81 12 string in;
#X obj 91 31 inlet;
#X obj 91 431 outlet;
#X obj 85 31 cnv 5 5 17 empty empty empty 20 12 0 14 -118750 -66577
0;
#X obj 85 431 cnv 5 5 17 empty empty empty 20 12 0 14 -102336 -66577
0;
#X obj 91 55 list;
#X obj 91 193 list store, f 13;
#X obj 91 102 until;
#X obj 91 128 f, f 7;
#X obj 153 128 + 1;
#X msg 91 171 get \$1 1;
#X obj 134 103 0;
#X obj 91 263 list fromsymbol;
#X obj 91 215 route symbol float;
#X obj 109 239 makefilename %s;
#X obj 91 150 t f f;
#X obj 91 380 list store, f 19;
#X obj 91 355 list trim;
#X obj 91 332 list prepend append;
#X obj 157 286 spigot;
#X msg 157 308 32;
#X obj 91 286 t l b, f 9;
#X obj 91 77 t b b a b, f 19;
#X obj 91 404 list tosymbol;
#X connect 2 0 6 0;
#X connect 6 0 23 0;
#X connect 7 0 14 0;
#X connect 7 1 8 1;
#X connect 7 1 17 0;
#X connect 8 0 9 0;
#X connect 9 0 10 0;
#X connect 9 0 16 0;
#X connect 10 0 9 1;
#X connect 11 0 7 0;
#X connect 12 0 9 1;
#X connect 13 0 22 0;
#X connect 14 0 13 0;
#X connect 14 1 15 0;
#X connect 15 0 13 0;
#X connect 16 0 11 0;
#X connect 16 1 20 1;
#X connect 17 0 24 0;
#X connect 18 0 17 0;
#X connect 19 0 18 0;
#X connect 20 0 21 0;
#X connect 21 0 19 0;
#X connect 22 0 19 0;
#X connect 22 1 20 0;
#X connect 23 0 8 0;
#X connect 23 1 12 0;
#X connect 23 2 7 1;
#X connect 23 3 17 1;
#X connect 24 0 3 0;
#X restore 29 -34 pd tosymbol;
#X msg 394 357 symbol symbol;
#N canvas 0 57 1920 1023 last20char 0;
#X obj 200 80 list fromsymbol;
#X obj 203 37 inlet;
#X obj 185 471 list tosymbol;
#X obj 185 500 outlet;
#X obj 200 103 t l l;
#X obj 241 153 list length;
#X obj 241 176 - 20;
#X obj 200 226 list split;
#X obj 241 199 max 0;
#X connect 0 0 4 0;
#X connect 1 0 0 0;
#X connect 2 0 3 0;
#X connect 4 0 7 0;
#X connect 4 1 5 0;
#X connect 5 0 6 0;
#X connect 6 0 8 0;
#X connect 7 1 2 0;
#X connect 8 0 7 1;
#X restore 330 351 pd last20char;
#X obj 233 264 symbol;
#X msg 280 242 symbol \$1/;
#X obj 884 1 declare -path ../../core;
#X obj 884 21 declare -path ../../core/stuff;
#X obj 884 41 declare -path ../../core/rj;
#X connect 1 0 3 0;
#X connect 2 0 3 0;
#X connect 4 0 5 0;
#X connect 5 0 57 0;
#X connect 5 0 70 0;
#X connect 6 0 7 0;
#X connect 6 0 14 0;
#X connect 7 0 2 0;
#X connect 7 0 9 0;
#X connect 7 1 8 0;
#X connect 7 1 10 0;
#X connect 7 1 11 0;
#X connect 8 0 32 0;
#X connect 8 1 5 0;
#X connect 9 0 26 0;
#X connect 10 0 26 0;
#X connect 11 0 15 0;
#X connect 12 0 11 0;
#X connect 13 0 11 1;
#X connect 14 0 11 1;
#X connect 15 0 16 0;
#X connect 16 0 17 0;
#X connect 17 0 23 0;
#X connect 17 1 24 0;
#X connect 18 0 20 0;
#X connect 19 0 22 1;
#X connect 21 0 22 0;
#X connect 22 0 18 0;
#X connect 23 0 21 0;
#X connect 24 0 19 0;
#X connect 26 0 68 0;
#X connect 29 0 46 0;
#X connect 30 0 31 0;
#X connect 31 0 29 0;
#X connect 32 0 1 0;
#X connect 33 0 62 0;
#X connect 33 1 95 0;
#X connect 34 0 35 0;
#X connect 34 0 41 0;
#X connect 34 0 47 1;
#X connect 37 0 36 0;
#X connect 37 0 40 0;
#X connect 37 0 47 0;
#X connect 38 0 39 0;
#X connect 38 0 33 0;
#X connect 40 0 3 0;
#X connect 41 0 3 1;
#X connect 42 0 43 1;
#X connect 43 0 6 0;
#X connect 43 0 44 0;
#X connect 44 0 26 0;
#X connect 45 0 29 0;
#X connect 46 0 70 1;
#X connect 48 0 40 0;
#X connect 48 0 47 0;
#X connect 49 0 41 0;
#X connect 49 0 47 1;
#X connect 50 0 52 0;
#X connect 50 1 67 0;
#X connect 51 0 48 0;
#X connect 51 1 49 0;
#X connect 52 0 54 0;
#X connect 52 1 61 0;
#X connect 52 2 55 0;
#X connect 53 0 59 0;
#X connect 54 0 56 1;
#X connect 55 0 56 1;
#X connect 56 0 53 0;
#X connect 58 0 50 0;
#X connect 59 0 58 0;
#X connect 62 0 82 0;
#X connect 64 0 56 0;
#X connect 65 0 96 0;
#X connect 67 0 51 0;
#X connect 69 0 89 0;
#X connect 70 0 76 0;
#X connect 71 0 72 0;
#X connect 72 0 70 1;
#X connect 76 0 77 0;
#X connect 76 0 104 0;
#X connect 77 0 3 0;
#X connect 78 0 85 0;
#X connect 79 0 87 0;
#X connect 81 0 83 0;
#X connect 84 0 76 1;
#X connect 85 0 112 0;
#X connect 85 1 86 0;
#X connect 86 0 91 0;
#X connect 87 0 91 0;
#X connect 88 0 78 0;
#X connect 89 0 43 0;
#X connect 91 0 90 0;
#X connect 91 1 80 0;
#X connect 92 0 94 0;
#X connect 93 0 79 0;
#X connect 94 0 111 0;
#X connect 95 0 33 1;
#X connect 95 1 33 2;
#X connect 96 0 33 0;
#X connect 97 0 99 0;
#X connect 100 0 97 0;
#X connect 101 0 102 0;
#X connect 102 0 103 0;
#X connect 102 0 87 0;
#X connect 102 0 113 0;
#X connect 103 0 86 0;
#X connect 104 0 105 0;
#X connect 108 0 107 0;
#X connect 109 0 106 0;
#X connect 110 0 88 0;
#X connect 111 0 88 0;
#X connect 112 0 93 0;
#X connect 113 0 112 1;
#X coords 0 -1 1 1 190 70 1 100 100;
