#N canvas 60 193 885 429 16;
#X declare -path pdr/modules/basic;
#X text 20 11 Pour se connecter à une sortie audio physique ou à
un bus;
#N canvas 489 347 450 300 meta 0;
#X text 54 39 connexion en sortie aux bus auxiliaires et sorties audio
de la carte son;
#X restore 769 65 pd meta;
#N canvas 0 50 450 300 \$0-PdRacks.declare 0;
#X obj 10 10 declare -path pdr/modules/basic;
#X obj 10 60 pdr/core/stuff/u_glocal.enable \$0;
#A saved modules_set # List of modules to load;
#A saved modules_set # you can add new sets of modules here;
#A saved modules_set # (ctrl/cmd + s to save and close);
#A saved modules_set basic;
#X restore 633 27 pd \$0-PdRacks.declare;
#X obj 32 116 audio_out;
#A saved A2 0;
#A saved A1 0;
#A saved M2 0;
#A saved M1 0;
#A saved mono 0;
#A saved r4 0;
#A saved r3 0;
#A saved r2 0;
#A saved r1 0;
#A saved l4 0;
#A saved l3 0;
#A saved l2 0;
#A saved l1 0;
#A saved pan 0;
#A saved mute 0;
#A saved vol 89.2347;
#A saved out CUSTOM;
#A saved SID 1;
#N canvas 0 57 1920 1023 (subpatch) 0;
#X obj 200 200 tgl 15 0 \$0-l1 \$0-l1-rcv 1| 1 7 0 15 -233017 -233017
-1 0 1;
#X obj 94 132 inlet~;
#X obj 96 412 outlet~;
#X obj 392 412 switch~;
#X obj 335 243 select 0 1;
#X obj 92 369 *~;
#X obj 184 311 lop~ 10;
#X msg 186 275 0;
#X msg 231 271 1;
#X msg 356 384 0;
#X msg 270 314 stop;
#X msg 389 289 1;
#X obj 257 354 delay 200;
#X text 249 61 no-plop switcher;
#X floatatom 303 87 5 0 0 0 - - -;
#X msg 283 120 color 10 10 -1;
#X msg 384 133 color 16 16 -1;
#X msg 458 164 label du;
#X obj 351 207 r \$0-l1;
#X msg 117 216 CUSTOM;
#X obj 128 264 s \$0-out;
#X connect 0 0 19 0;
#X connect 1 0 5 0;
#X connect 4 0 7 0;
#X connect 4 0 15 0;
#X connect 4 1 8 0;
#X connect 4 1 10 0;
#X connect 4 1 11 0;
#X connect 4 1 16 0;
#X connect 5 0 2 0;
#X connect 6 0 5 1;
#X connect 7 0 6 0;
#X connect 8 0 6 0;
#X connect 9 0 3 0;
#X connect 10 0 12 0;
#X connect 11 0 3 0;
#X connect 12 0 9 0;
#X connect 14 0 15 0;
#X connect 15 0 0 0;
#X connect 16 0 0 0;
#X connect 17 0 0 0;
#X connect 18 0 4 0;
#X connect 19 0 20 0;
#X coords 0 -1 1 1 15 15 2 200 200;
#X restore 33 244 pd;
#N canvas 0 57 1920 1023 (subpatch) 0;
#X obj 200 200 tgl 15 0 \$0-l2 \$0-l2-rcv 2| 1 7 0 15 -233017 -233017
-1 0 1;
#X obj 94 132 inlet~;
#X obj 96 412 outlet~;
#X obj 392 412 switch~;
#X obj 252 240 select 0 1;
#X obj 92 369 *~;
#X obj 184 311 lop~ 10;
#X msg 186 275 0;
#X msg 231 271 1;
#X msg 356 384 0;
#X msg 270 314 stop;
#X msg 389 289 1;
#X obj 257 354 delay 200;
#X text 249 61 no-plop switcher;
#X floatatom 303 137 5 0 0 0 - - -;
#X msg 283 170 color 10 10 -1;
#X msg 384 183 color 16 16 -1;
#X msg 458 214 label du;
#X obj 351 207 r \$0-l2;
#X msg 117 216 CUSTOM;
#X obj 128 264 s \$0-out;
#X connect 0 0 19 0;
#X connect 1 0 5 0;
#X connect 4 0 7 0;
#X connect 4 0 15 0;
#X connect 4 1 8 0;
#X connect 4 1 10 0;
#X connect 4 1 11 0;
#X connect 4 1 16 0;
#X connect 5 0 2 0;
#X connect 6 0 5 1;
#X connect 7 0 6 0;
#X connect 8 0 6 0;
#X connect 9 0 3 0;
#X connect 10 0 12 0;
#X connect 11 0 3 0;
#X connect 12 0 9 0;
#X connect 14 0 15 0;
#X connect 15 0 0 0;
#X connect 16 0 0 0;
#X connect 17 0 0 0;
#X connect 18 0 4 0;
#X connect 19 0 20 0;
#X coords 0 -1 1 1 15 15 2 200 200;
#X restore 48 244 pd;
#N canvas 0 57 1920 1023 (subpatch) 0;
#X obj 200 200 tgl 15 0 \$0-l3 \$0-l3-rcv 3| 1 7 0 15 -233017 -233017
-1 0 1;
#X obj 94 132 inlet~;
#X obj 96 412 outlet~;
#X obj 392 412 switch~;
#X obj 252 240 select 0 1;
#X obj 92 369 *~;
#X obj 184 311 lop~ 10;
#X msg 186 275 0;
#X msg 231 271 1;
#X msg 356 384 0;
#X msg 270 314 stop;
#X msg 389 289 1;
#X obj 257 354 delay 200;
#X text 249 61 no-plop switcher;
#X floatatom 303 137 5 0 0 0 - - -;
#X msg 283 170 color 10 10 -1;
#X msg 384 183 color 16 16 -1;
#X msg 458 214 label du;
#X obj 250 211 r \$0-l3;
#X msg 117 216 CUSTOM;
#X obj 128 263 s \$0-out;
#X connect 0 0 19 0;
#X connect 1 0 5 0;
#X connect 4 0 7 0;
#X connect 4 0 15 0;
#X connect 4 1 8 0;
#X connect 4 1 10 0;
#X connect 4 1 11 0;
#X connect 4 1 16 0;
#X connect 5 0 2 0;
#X connect 6 0 5 1;
#X connect 7 0 6 0;
#X connect 8 0 6 0;
#X connect 9 0 3 0;
#X connect 10 0 12 0;
#X connect 11 0 3 0;
#X connect 12 0 9 0;
#X connect 14 0 15 0;
#X connect 15 0 0 0;
#X connect 16 0 0 0;
#X connect 17 0 0 0;
#X connect 18 0 4 0;
#X connect 19 0 20 0;
#X coords 0 -1 1 1 15 15 2 200 200;
#X restore 63 244 pd;
#N canvas 0 57 1920 1023 (subpatch) 0;
#X obj 200 200 tgl 15 0 \$0-l4 \$0-l4-rcv 4| 1 7 0 15 -233017 -233017
-1 0 1;
#X obj 94 132 inlet~;
#X obj 96 412 outlet~;
#X obj 392 412 switch~;
#X obj 252 240 select 0 1;
#X obj 92 369 *~;
#X obj 184 311 lop~ 10;
#X msg 186 275 0;
#X msg 231 271 1;
#X msg 356 384 0;
#X msg 270 314 stop;
#X msg 389 289 1;
#X obj 257 354 delay 200;
#X text 249 61 no-plop switcher;
#X floatatom 303 137 5 0 0 0 - - -;
#X msg 283 170 color 10 10 -1;
#X msg 384 183 color 16 16 -1;
#X msg 458 214 label du;
#X obj 351 207 r \$0-l4;
#X msg 117 216 CUSTOM;
#X obj 128 264 s \$0-out;
#X connect 0 0 19 0;
#X connect 1 0 5 0;
#X connect 4 0 7 0;
#X connect 4 0 15 0;
#X connect 4 1 8 0;
#X connect 4 1 10 0;
#X connect 4 1 11 0;
#X connect 4 1 16 0;
#X connect 5 0 2 0;
#X connect 6 0 5 1;
#X connect 7 0 6 0;
#X connect 8 0 6 0;
#X connect 9 0 3 0;
#X connect 10 0 12 0;
#X connect 11 0 3 0;
#X connect 12 0 9 0;
#X connect 14 0 15 0;
#X connect 15 0 0 0;
#X connect 16 0 0 0;
#X connect 17 0 0 0;
#X connect 18 0 4 0;
#X connect 19 0 20 0;
#X coords 0 -1 1 1 15 15 2 200 200;
#X restore 78 244 pd;
#N canvas 0 57 1920 1023 (subpatch) 0;
#X obj 200 200 tgl 15 0 \$0-r1 \$0-r1-rcv 1| 1 7 0 15 -233017 -233017
-1 0 1;
#X obj 94 132 inlet~;
#X obj 96 412 outlet~;
#X obj 392 412 switch~;
#X obj 252 240 select 0 1;
#X obj 92 369 *~;
#X obj 184 311 lop~ 10;
#X msg 186 275 0;
#X msg 231 271 1;
#X msg 356 384 0;
#X msg 270 314 stop;
#X msg 389 289 1;
#X obj 257 354 delay 200;
#X text 249 61 no-plop switcher;
#X floatatom 303 137 5 0 0 0 - - -;
#X msg 283 170 color 10 10 -1;
#X msg 384 183 color 16 16 -1;
#X msg 458 214 label du;
#X obj 351 207 r \$0-r1;
#X msg 117 216 CUSTOM;
#X obj 128 264 s \$0-out;
#X connect 0 0 19 0;
#X connect 1 0 5 0;
#X connect 4 0 7 0;
#X connect 4 0 15 0;
#X connect 4 1 8 0;
#X connect 4 1 10 0;
#X connect 4 1 11 0;
#X connect 4 1 16 0;
#X connect 5 0 2 0;
#X connect 6 0 5 1;
#X connect 7 0 6 0;
#X connect 8 0 6 0;
#X connect 9 0 3 0;
#X connect 10 0 12 0;
#X connect 11 0 3 0;
#X connect 12 0 9 0;
#X connect 14 0 15 0;
#X connect 15 0 0 0;
#X connect 16 0 0 0;
#X connect 17 0 0 0;
#X connect 18 0 4 0;
#X connect 19 0 20 0;
#X coords 0 -1 1 1 15 15 2 200 200;
#X restore 33 259 pd;
#N canvas 0 57 1920 1023 (subpatch) 0;
#X obj 200 200 tgl 15 0 \$0-r2 \$0-r2-rcv 2| 1 7 0 15 -233017 -233017
-1 0 1;
#X obj 94 132 inlet~;
#X obj 96 412 outlet~;
#X obj 392 412 switch~;
#X obj 252 240 select 0 1;
#X obj 92 369 *~;
#X obj 184 311 lop~ 10;
#X msg 186 275 0;
#X msg 231 271 1;
#X msg 356 384 0;
#X msg 270 314 stop;
#X msg 389 289 1;
#X obj 257 354 delay 200;
#X text 249 61 no-plop switcher;
#X floatatom 303 137 5 0 0 0 - - -;
#X msg 283 170 color 10 10 -1;
#X msg 384 183 color 16 16 -1;
#X msg 458 214 label du;
#X obj 351 207 r \$0-r2;
#X msg 117 216 CUSTOM;
#X obj 128 264 s \$0-out;
#X connect 0 0 19 0;
#X connect 1 0 5 0;
#X connect 4 0 7 0;
#X connect 4 0 15 0;
#X connect 4 1 8 0;
#X connect 4 1 10 0;
#X connect 4 1 11 0;
#X connect 4 1 16 0;
#X connect 5 0 2 0;
#X connect 6 0 5 1;
#X connect 7 0 6 0;
#X connect 8 0 6 0;
#X connect 9 0 3 0;
#X connect 10 0 12 0;
#X connect 11 0 3 0;
#X connect 12 0 9 0;
#X connect 14 0 15 0;
#X connect 15 0 0 0;
#X connect 16 0 0 0;
#X connect 17 0 0 0;
#X connect 18 0 4 0;
#X connect 19 0 20 0;
#X coords 0 -1 1 1 15 15 2 200 200;
#X restore 48 259 pd;
#N canvas 0 57 1920 1023 (subpatch) 0;
#X obj 200 200 tgl 15 0 \$0-r3 \$0-r3-rcv 3| 1 7 0 15 -233017 -233017
-1 0 1;
#X obj 94 132 inlet~;
#X obj 96 412 outlet~;
#X obj 392 412 switch~;
#X obj 252 240 select 0 1;
#X obj 92 369 *~;
#X obj 184 311 lop~ 10;
#X msg 186 275 0;
#X msg 231 271 1;
#X msg 356 384 0;
#X msg 270 314 stop;
#X msg 389 289 1;
#X obj 257 354 delay 200;
#X text 249 61 no-plop switcher;
#X floatatom 303 137 5 0 0 0 - - -;
#X msg 283 170 color 10 10 -1;
#X msg 384 183 color 16 16 -1;
#X msg 458 214 label du;
#X obj 351 207 r \$0-r3;
#X msg 117 216 CUSTOM;
#X obj 128 264 s \$0-out;
#X connect 0 0 19 0;
#X connect 1 0 5 0;
#X connect 4 0 7 0;
#X connect 4 0 15 0;
#X connect 4 1 8 0;
#X connect 4 1 10 0;
#X connect 4 1 11 0;
#X connect 4 1 16 0;
#X connect 5 0 2 0;
#X connect 6 0 5 1;
#X connect 7 0 6 0;
#X connect 8 0 6 0;
#X connect 9 0 3 0;
#X connect 10 0 12 0;
#X connect 11 0 3 0;
#X connect 12 0 9 0;
#X connect 14 0 15 0;
#X connect 15 0 0 0;
#X connect 16 0 0 0;
#X connect 17 0 0 0;
#X connect 18 0 4 0;
#X connect 19 0 20 0;
#X coords 0 -1 1 1 15 15 2 200 200;
#X restore 63 259 pd;
#N canvas 0 57 1920 1023 (subpatch) 0;
#X obj 200 200 tgl 15 0 \$0-r4 \$0-r4-rcv 4| 1 7 0 15 -233017 -233017
-1 0 1;
#X obj 94 132 inlet~;
#X obj 96 412 outlet~;
#X obj 392 412 switch~;
#X obj 252 240 select 0 1;
#X obj 92 369 *~;
#X obj 184 311 lop~ 10;
#X msg 186 275 0;
#X msg 231 271 1;
#X msg 356 384 0;
#X msg 270 314 stop;
#X msg 389 289 1;
#X obj 257 354 delay 200;
#X text 249 61 no-plop switcher;
#X floatatom 303 137 5 0 0 0 - - -;
#X msg 283 170 color 10 10 -1;
#X msg 384 183 color 16 16 -1;
#X msg 458 214 label du;
#X obj 351 207 r \$0-r4;
#X msg 117 216 CUSTOM;
#X obj 128 264 s \$0-out;
#X connect 0 0 19 0;
#X connect 1 0 5 0;
#X connect 4 0 7 0;
#X connect 4 0 15 0;
#X connect 4 1 8 0;
#X connect 4 1 10 0;
#X connect 4 1 11 0;
#X connect 4 1 16 0;
#X connect 5 0 2 0;
#X connect 6 0 5 1;
#X connect 7 0 6 0;
#X connect 8 0 6 0;
#X connect 9 0 3 0;
#X connect 10 0 12 0;
#X connect 11 0 3 0;
#X connect 12 0 9 0;
#X connect 14 0 15 0;
#X connect 15 0 0 0;
#X connect 16 0 0 0;
#X connect 17 0 0 0;
#X connect 18 0 4 0;
#X connect 19 0 20 0;
#X coords 0 -1 1 1 15 15 2 200 200;
#X restore 78 259 pd;
#X text 19 239 L;
#X text 19 252 R;
#X text 99 237 matrice de connexion;
#X text 97 253 directe aux DAC~;
#X text 232 112 <- accès direct à des config de bus prédéfinies
, f 19;
#X text 39 327 MASTER (M1/M2) : global bus (commun à tous les patches)
;
#X text 68 345 AUX (A1/A2) : local bus (commun aux objets d'un même
patch);
#X msg 621 114 \; pd-audio_config vis 1;
