#N canvas 0 57 1920 1023 12;
#X msg 946 142 fx_parameq2;
#X msg 1423 298 PdRacks.presets;
#X msg 946 452 fx_compressor;
#X msg 946 265 fx_chorus;
#X msg 946 285 fx_dubdel;
#X msg 946 82 fx_hip;
#X msg 946 192 fx_ring;
#X msg 946 375 fx_freeverb;
#X msg 946 472 fx_dynproc;
#X msg 946 102 fx_filter;
#X msg 946 212 fx_freqshift;
#X msg 946 232 fx_pitchshift;
#X msg 946 355 fx_resonator;
#X msg 946 62 fx_lop;
#X msg 946 42 fx_lowhip;
#X msg 946 305 fx_dubdel2;
#X msg 946 499 fx_sub;
#X msg 946 325 fx_reverse;
#X msg 946 395 fx_everb;
#X msg 946 162 fx_eq3;
#X msg 946 122 fx_parameq;
#X msg 27 523 inst_sampler;
#X msg 27 543 inst_turntable;
#X msg 27 463 inst_8bits;
#X msg 27 483 inst_rhodey;
#X msg 27 403 inst_soundfile;
#X msg 27 383 inst_headrush;
#X msg 27 423 inst_tabosc;
#X msg 27 443 inst_bassdrum;
#X msg 28 333 inst_modular;
#X msg 1154 51 audio_in;
#X msg 1154 71 audio_out;
#X msg 1154 91 audio_record;
#X msg 1154 111 audio_features;
#X msg 1154 456 data_wintablet;
#X msg 1154 436 data_fidtouch;
#X msg 1154 476 data_fidcontrol;
#X msg 1154 220 data_azerty2midi;
#X msg 1409 71 midi_arpeggiator;
#X msg 1409 91 note_randomize;
#X msg 1409 111 note_2param;
#X msg 73 691 cancel;
#X text 23 62 INSTRUMENTS;
#X text 935 7 AUDIO EFFECTS;
#X text 1147 15 IN OUT;
#X msg 1154 240 note_16steps;
#X msg 1154 260 data_upic;
#X text 1156 186 MIDI NOTE GENERATORS;
#X text 1401 30 MIDI FILTERS;
#X text 1155 403 DATA CONTROL;
#X text 53 662 CLOSE THIS WINDOW;
#X text 1419 226 GLOBAL;
#X msg 946 553 fx_bitcrush;
#X msg 27 503 inst_euclidrums;
#X msg 1154 326 midi_notein;
#X msg 1409 144 note_interpolations;
#X msg 27 591 inst_pcm;
#X msg 1409 170 note_interpol;
#X msg 946 529 fx_formant;
#X text 1288 455 interface avec tablettes wacom;
#X text 100 588 lecteur de sample;
#X msg 946 415 fx_dattorroverb;
#X msg 1154 502 data_feuille;
#X msg 1154 281 data_cyclogroove;
#X msg 67 626 inst_pvoc;
#X text 1298 434 interface multitouch;
#X text 1303 475 monotouch to ctlout;
#X msg 1653 278 PdRacks.morphing;
#X msg 1653 258 PdRacks.transport;
#X msg 1071 567 fx_alias;
#X msg -4 639 inst_oneshot;
#X msg 1333 392 data_ofelia;
#X msg 1584 405 fx_bonkpitch;
#X obj 1154 158 s \$0-ADD;
#X obj 1409 201 s \$0-ADD;
#X obj 1423 342 s \$0-ADD;
#X obj 27 761 s \$1-ADD;
#X obj 946 594 s \$1-ADD;
#X obj 1154 588 s \$1-ADD;
#X obj 1154 358 s \$1-ADD;
#X obj 27 88 bng 15 250 50 0 empty empty inst_headrush 17 7 0 10 -262144
-1 -1;
#X obj 27 108 bng 15 250 50 0 empty empty inst_soundfile 17 7 0 10
-262144 -1 -1;
#X text 26 20 BASIC OBJECTS;
#X obj 27 128 bng 15 250 50 0 empty empty inst_tabosc 17 7 0 10 -262144
-1 -1;
#X obj 27 148 bng 15 250 50 0 empty empty inst_bassdrum 17 7 0 10 -262144
-1 -1;
#X obj 27 168 bng 15 250 50 0 empty empty inst_8bits 17 7 0 10 -262144
-1 -1;
#X obj 27 188 bng 15 250 50 0 empty empty inst_rhodey 17 7 0 10 -262144
-1 -1;
#X obj 27 208 bng 15 250 50 0 empty empty inst_euclidrums 17 7 0 10
-262144 -1 -1;
#X obj 27 228 bng 15 250 50 0 empty empty inst_bassdrum 17 7 0 10 -262144
-1 -1;
#X connect 0 0 77 0;
#X connect 1 0 75 0;
#X connect 2 0 77 0;
#X connect 3 0 77 0;
#X connect 4 0 77 0;
#X connect 5 0 77 0;
#X connect 6 0 77 0;
#X connect 7 0 77 0;
#X connect 8 0 77 0;
#X connect 9 0 77 0;
#X connect 10 0 77 0;
#X connect 11 0 77 0;
#X connect 12 0 77 0;
#X connect 13 0 77 0;
#X connect 14 0 77 0;
#X connect 15 0 77 0;
#X connect 16 0 77 0;
#X connect 17 0 77 0;
#X connect 18 0 77 0;
#X connect 19 0 77 0;
#X connect 20 0 77 0;
#X connect 21 0 76 0;
#X connect 22 0 76 0;
#X connect 23 0 76 0;
#X connect 24 0 76 0;
#X connect 25 0 76 0;
#X connect 26 0 76 0;
#X connect 27 0 76 0;
#X connect 28 0 76 0;
#X connect 29 0 76 0;
#X connect 30 0 73 0;
#X connect 31 0 73 0;
#X connect 32 0 73 0;
#X connect 33 0 73 0;
#X connect 34 0 78 0;
#X connect 35 0 78 0;
#X connect 36 0 78 0;
#X connect 37 0 79 0;
#X connect 38 0 74 0;
#X connect 39 0 74 0;
#X connect 40 0 74 0;
#X connect 41 0 76 0;
#X connect 45 0 79 0;
#X connect 46 0 79 0;
#X connect 52 0 77 0;
#X connect 53 0 76 0;
#X connect 54 0 79 0;
#X connect 55 0 74 0;
#X connect 56 0 76 0;
#X connect 57 0 74 0;
#X connect 58 0 77 0;
#X connect 61 0 77 0;
#X connect 62 0 78 0;
#X connect 63 0 79 0;
#X connect 64 0 76 0;
#X connect 69 0 77 0;
#X connect 70 0 76 0;
#X connect 71 0 78 0;
#X connect 72 0 78 0;
#X connect 80 0 26 0;
#X connect 81 0 25 0;
#X connect 83 0 27 0;
#X connect 84 0 28 0;
#X connect 85 0 23 0;
#X connect 86 0 24 0;
#X connect 87 0 53 0;
#X coords 0 -1 1 1 600 600 1 0 0;
