#N canvas 0 57 1920 1023 10;
#X declare -path ../../core;
#X declare -path ../../core/stuff;
#X declare -path ../../core/rj;
#X obj 100 83 inlet~;
#X obj 187 83 inlet~;
#X obj 202 83 route contents;
#X obj 100 170 outlet~;
#X obj 188 170 outlet~;
#X obj 283 170 outlet;
#X obj 104 100 hsl 50 15 0 50 0 0 \$0-module_select empty LOAD... -2
8 0 10 -232576 -232576 -1 1200 0;
#N canvas 0 50 450 300 \$0-module 0;
#X obj 100 100 1022;
#X obj 100 83 inlet~;
#X obj 190 83 inlet~;
#X obj 285 83 inlet;
#X obj 100 170 outlet~;
#X obj 190 170 outlet~;
#X obj 285 170 outlet;
#X connect 0 0 4 0;
#X connect 1 0 0 0;
#X connect 2 0 0 1;
#X coords 0 -1 1 1 190 70 2 100 100;
#X restore 100 100 pd \$0-module;
#X obj 283 33 inlet;
#X obj 405 233 namecanvas \$0-container;
#N canvas 0 57 1920 1023 stuff 0;
#X obj 63 455 s pd-\$0-module;
#X msg 119 271 clear;
#X obj 45 541 s \$0-container;
#X obj 100 298 list prepend obj 100 100;
#X obj 100 350 list trim;
#X msg 63 419 connect 1 0 0 0 \, connect 2 0 0 1 \, connect 3 0 0 2
\, connect 0 0 4 0 \, connect 0 1 5 0 \, connect 0 2 6 0 \, loadbang
;
#X obj 104 61 route clear;
#X msg 82 384 obj 100 83 inlet~ \, obj 190 83 inlet~ \, obj 285 83
inlet \, obj 100 170 outlet~ \, obj 190 170 outlet~ \, obj 285 170
outlet;
#X obj 213 110 text search \$0-content;
#X obj 463 229 text define \$0-content;
#X obj 220 23 list;
#X obj 220 45 t l l;
#X obj 213 132 select -1;
#X obj 211 151 list append;
#X obj 211 173 t l l b;
#X msg 449 204 clear;
#X obj 270 210 text set \$0-content;
#X obj 89 85 t b b, f 7;
#X obj 19 145 s pd-\$0-module;
#X msg 21 113 clear;
#X obj 567 341 module_loader container \$0 \$1;
#X obj 569 374 u_dispatch \$0 contents;
#X obj 102 5 r \$0-contents;
#X msg 573 309 contents clear;
#X obj 103 28 list trim;
#X obj 568 282 loadbang;
#X obj 63 239 list append;
#X obj 43 263 t b b b l b;
#X obj 72 215 delay 100;
#X text 141 240 delay necessaire sinon crash;
#X obj 1231 279 namecanvas \$0-this;
#X obj 1229 256 triggered_loadbang \$0-this;
#X text 1224 206 manually trigger loadbang if the instance of abstraction
is created dynamically, f 29;
#X obj 478 322 inlet;
#X obj 789 162 savestate;
#X obj 102 324 list append \$0;
#X obj 772 378 t b b;
#X obj 772 479 s \$0-service;
#X msg 772 451 dump \$1;
#X obj 784 125 list prepend dump;
#X obj 814 248 list trim;
#X obj 814 271 route dump;
#X obj 854 300 list;
#X obj 882 367 list prepend savestate;
#X obj 886 445 list trim;
#N canvas 0 50 1038 601 pipe 0;
#X obj 226 66 inlet;
#X obj 260 313 outlet;
#X obj 41 103 text define \$0-pipe;
#X obj 253 166 text insert \$0-pipe;
#X obj 280 112 t l b b;
#X msg 420 143 1;
#X msg 305 147 1e+07;
#X obj 405 261 text get \$0-pipe;
#X msg 398 194 0;
#X obj 321 204 t f f;
#X obj 260 235 text delete \$0-pipe;
#X obj 415 164 pipe f 200;
#X connect 0 0 4 0;
#X connect 4 0 3 0;
#X connect 4 1 6 0;
#X connect 4 2 5 0;
#X connect 5 0 11 0;
#X connect 6 0 3 1;
#X connect 7 0 1 0;
#X connect 8 0 9 0;
#X connect 9 0 10 0;
#X connect 9 1 7 0;
#X connect 11 0 8 0;
#X restore 884 399 pd pipe list 200;
#X obj 913 573 s \$0-busy;
#X msg 912 543 1;
#X obj 77 181 t b b l;
#X obj 344 613 delay 200;
#X obj 306 502 cnv 15 15 15 empty empty empty 20 12 0 14 -257985 -66577
0;
#X obj 998 145 glocal/glocal.receive RJ_SCENE_SAVE;
#X msg 996 168 saveTo \$1;
#X msg 45 503 connect 0 0 7 0 \, connect 1 0 7 1 \, connect 2 1 7 2
\, connect 7 0 3 0 \, connect 7 1 4 0 \, connect 7 2 5 0;
#X obj 1192 445 r \$0-module_select;
#N canvas 208 569 891 164 \$0-select_module 1;
#N canvas 0 50 756 632 (subpatch) 1;
#X obj 101 118 cnv 15 298 20 empty \$0-m_cat-rcv category:symbol 1
10 0 12 -262130 -66577 0;
#X obj 180 207 glocal/glocal.dollarzero;
#N canvas 588 112 1094 762 dmenu 0;
#X obj 569 149 route 1;
#X msg 173 440 label \$1;
#X obj 90 287 +;
#X msg 410 284 -1;
#X msg 448 310 1;
#X msg 243 440 label;
#X obj 128 287 mod;
#X obj 107 382 list split 1;
#X msg 641 291 -1;
#X msg 679 290 1;
#X obj 641 314 t f b;
#X obj 622 383 +;
#X obj 622 406 mod;
#X obj 625 512 s \$0-current_category;
#X obj 290 161 r \$0-current_category;
#X msg 466 479 label category:\$1;
#X obj 270 189 t b s s b;
#X msg 554 299 0;
#X msg 80 192 -1;
#X obj 80 223 t b f b;
#X obj 444 217 t b b;
#X obj 124 351 t l b;
#N canvas 1 56 450 300 vanilla_list2symbol 0;
#X obj 23 343 list tosymbol;
#X obj 86 234 list fromsymbol;
#X obj 86 149 list split 1;
#X obj 86 99 until;
#X obj 86 124 list append;
#X obj 180 149 bang;
#X obj 86 282 list prepend;
#X obj 200 282 t a;
#X obj 23 313 list append;
#X obj 86 258 list append 32;
#X obj 23 49 t b b a b, f 27;
#X obj 155 201 makefilename %s;
#X obj 86 171 route symbol;
#X obj 23 21 inlet;
#X obj 23 370 outlet;
#X text 249 34 credits : https://forum.pdpatchrepo.info/topic/10556/vanilla-list2symbol-abstraction-pd-0-47
;
#X connect 0 0 14 0;
#X connect 1 0 9 0;
#X connect 2 0 12 0;
#X connect 2 1 4 1;
#X connect 2 2 5 0;
#X connect 3 0 4 0;
#X connect 4 0 2 0;
#X connect 5 0 3 1;
#X connect 6 0 7 0;
#X connect 6 0 8 1;
#X connect 7 0 6 1;
#X connect 8 0 0 0;
#X connect 9 0 6 0;
#X connect 10 0 8 0;
#X connect 10 1 3 0;
#X connect 10 2 4 1;
#X connect 10 3 6 1;
#X connect 11 0 1 0;
#X connect 12 0 1 0;
#X connect 12 1 11 0;
#X connect 13 0 10 0;
#X restore 156 410 pd vanilla_list2symbol;
#X obj 128 111 delay 20;
#X obj 488 514 s \$0-m_cat-rcv;
#X obj 194 474 s \$0-m_description-rcv;
#X text 76 89 simulate key press on startup;
#X obj 267 242 makefilename \$1-%s;
#X obj 268 266 t s s;
#X obj 953 483 text define \$0-objects;
#X obj 832 437 t s b s;
#X obj 902 602 route symbol;
#X msg 947 441 clear;
#X obj 843 500 t b b b;
#X msg 870 523 line 0;
#X obj 847 570 list trim;
#X obj 902 625 list;
#X obj 904 647 t l b;
#X obj 898 680 text insert \$0-objects;
#X msg 965 653 1e+09;
#X obj 126 251 text size \$0-objects;
#X obj 129 326 text get \$0-objects;
#X obj 268 222 t a;
#X obj 888 246 route 63232 63233 63276 63277;
#X text 542 586 one click = select all;
#X obj 581 39 keyname;
#X obj 570 124 pack f s;
#X symbolatom 119 574 10 0 0 0 - - -;
#X floatatom 677 372 5 0 0 0 - - -;
#X floatatom 579 420 5 0 0 0 - - -;
#X floatatom 601 345 5 0 0 0 - - -;
#X obj 17 510 s \$0-m_obj-rcv;
#X msg 50 408 label \$1;
#X obj 569 69 spigot;
#X obj 316 88 t b b b b b;
#X msg 431 81 1;
#X obj 314 6 inlet;
#X obj 314 29 t f f;
#X obj 314 52 select 1;
#X obj 702 69 pdcontrol;
#X obj 622 429 text get \$0-categories;
#X obj 847 547 text sequence \$0-all_objects;
#X obj 677 349 text size \$0-categories;
#X symbolatom 644 91 10 0 0 0 - - -;
#X text 1073 255 mac osx compatibility (check);
#X obj 102 613 symbol;
#X obj 226 577 t b b;
#X obj 258 649 s pd-\$0-select_module;
#X msg 250 606 vis 0;
#X obj 285 577 t b;
#X obj 92 655 s \$0-contents;
#X obj 569 200 route Up Down Next Prior Return Escape Delete;
#X msg 225 536 symbol clear;
#X obj 364 478 t b b;
#X obj 754 128 r \$0-enter;
#X obj 837 129 r \$0-esc;
#X obj 899 130 r \$0-suppr;
#X msg 754 151 Return;
#X msg 837 152 Escape;
#X msg 899 153 Delete;
#X connect 0 0 71 0;
#X connect 1 0 25 0;
#X connect 2 0 6 0;
#X connect 3 0 2 0;
#X connect 4 0 2 0;
#X connect 5 0 25 0;
#X connect 6 0 2 1;
#X connect 6 0 41 0;
#X connect 7 0 47 0;
#X connect 7 0 52 0;
#X connect 7 0 65 1;
#X connect 7 1 22 0;
#X connect 8 0 10 0;
#X connect 9 0 10 0;
#X connect 10 0 11 0;
#X connect 10 0 50 0;
#X connect 10 1 62 0;
#X connect 11 0 12 0;
#X connect 12 0 11 1;
#X connect 12 0 49 0;
#X connect 12 0 60 0;
#X connect 14 0 16 0;
#X connect 15 0 24 0;
#X connect 16 0 18 0;
#X connect 16 2 42 0;
#X connect 16 3 5 0;
#X connect 17 0 10 0;
#X connect 18 0 19 0;
#X connect 19 1 2 1;
#X connect 19 2 40 0;
#X connect 20 1 3 0;
#X connect 21 0 7 0;
#X connect 22 0 1 0;
#X connect 23 0 4 0;
#X connect 27 0 28 0;
#X connect 28 0 40 1;
#X connect 28 1 41 3;
#X connect 30 0 15 0;
#X connect 30 0 13 0;
#X connect 30 1 33 0;
#X connect 30 2 31 1;
#X connect 31 0 36 0;
#X connect 32 0 29 0;
#X connect 33 0 61 0;
#X connect 33 1 34 0;
#X connect 33 2 32 0;
#X connect 34 0 61 0;
#X connect 35 0 31 0;
#X connect 36 0 37 0;
#X connect 37 0 38 0;
#X connect 37 1 39 0;
#X connect 39 0 38 1;
#X connect 40 0 6 1;
#X connect 41 0 21 0;
#X connect 43 0 20 0;
#X connect 43 1 4 0;
#X connect 43 2 8 0;
#X connect 43 3 9 0;
#X connect 45 0 53 0;
#X connect 45 1 46 1;
#X connect 45 1 63 0;
#X connect 46 0 0 0;
#X connect 52 0 51 0;
#X connect 53 0 46 0;
#X connect 54 0 23 0;
#X connect 54 1 18 0;
#X connect 54 3 17 0;
#X connect 54 4 55 0;
#X connect 55 0 53 1;
#X connect 56 0 57 0;
#X connect 57 0 58 0;
#X connect 57 1 53 1;
#X connect 58 0 54 0;
#X connect 60 0 30 0;
#X connect 61 0 35 0;
#X connect 62 0 12 1;
#X connect 62 0 48 0;
#X connect 65 0 70 0;
#X connect 66 0 65 0;
#X connect 66 1 68 0;
#X connect 68 0 67 0;
#X connect 69 0 68 0;
#X connect 71 0 20 0;
#X connect 71 1 4 0;
#X connect 71 2 9 0;
#X connect 71 3 8 0;
#X connect 71 4 66 0;
#X connect 71 5 69 0;
#X connect 71 6 73 0;
#X connect 71 7 43 0;
#X connect 72 0 70 0;
#X connect 73 0 72 0;
#X connect 73 1 68 0;
#X connect 74 0 77 0;
#X connect 75 0 78 0;
#X connect 76 0 79 0;
#X connect 77 0 71 0;
#X connect 78 0 71 0;
#X connect 79 0 71 0;
#X restore 487 358 pd dmenu;
#X obj 181 233 pipe f 10;
#X obj 102 101 cnv 15 298 20 empty \$0-m_obj-rcv fx_alias 1 10 0 12
-262144 -4160 0;
#X obj 489 302 r pd-\$0-select_module;
#X obj 489 325 route vis;
#N canvas 943 100 1173 976 startup 1;
#X msg 314 127 symbol \$1-u_glocal;
#X obj 267 151 v;
#X obj 255 261 text sequence;
#X msg 249 221 line 0 \, bang;
#X obj 270 434 text define \$0-dump;
#X msg 269 402 clear \, read \$1.txt;
#X obj 255 470 text size \$0-dump;
#X obj 259 497 select 0;
#X obj 256 377 t b s s;
#X obj 270 181 select 1 0;
#X text 205 198 oui;
#X text 105 229 lister sequenciellement toutes les extensions, f 19
;
#X text 121 346 pour chaque extension \, charger le fichier de description
, f 17;
#X text 143 461 Réussite ?;
#X text 218 509 non;
#X text 330 514 oui;
#N canvas 302 401 598 456 parse_dobjects 0;
#X obj 165 19 inlet;
#X obj 137 59 t b;
#X msg 137 84 line 0 \, bang;
#X obj 122 140 list trim;
#X obj 119 167 route # declare;
#X obj 122 115 text sequence \$0-dump;
#X obj 245 201 outlet;
#X connect 0 0 1 0;
#X connect 1 0 2 0;
#X connect 2 0 5 0;
#X connect 3 0 4 0;
#X connect 4 2 6 0;
#X connect 5 0 3 0;
#X restore 633 735 pd parse_dobjects;
#X msg 665 827 1e+09;
#X obj 634 773 list;
#X obj 613 855 text insert \$0-all_objects;
#X obj 635 799 t l b l;
#X obj 881 810 list split 1;
#X obj 920 871 text search \$0-categories;
#X obj 881 835 t s s;
#X msg 872 951 1e+09;
#X obj 820 979 text insert \$0-categories;
#X obj 842 923 t s b;
#X text 560 878 insert objects in struct \$0-all_objects, f 29;
#X text 943 954 add new category;
#X obj 920 896 == -1;
#X obj 854 886 spigot;
#X text 1011 895 found category ?;
#X text 864 905 no;
#X obj 255 286 list trim;
#X obj 255 311 route #;
#X text 317 311 skip comments;
#X msg 357 234 symbol \$1-modules_sets;
#X obj 252 347 list split 1;
#X obj 317 70 inlet;
#X text 504 24 charger les listes d'objets correspondantes dans les
tableaux \$0-all_objects;
#X obj 320 97 t b f;
#X obj 768 407 text define \$0-categories;
#X obj 777 438 text define \$0-all_objects;
#X obj 420 196 bng 15 250 50 0 empty empty empty 17 7 0 10 -262144
-1 -1;
#X symbolatom 377 162 10 0 0 0 - - -;
#X connect 0 0 1 1;
#X connect 0 0 44 0;
#X connect 1 0 9 0;
#X connect 2 0 33 0;
#X connect 3 0 2 0;
#X connect 5 0 4 0;
#X connect 6 0 7 0;
#X connect 7 1 16 0;
#X connect 8 0 6 0;
#X connect 8 1 5 0;
#X connect 9 0 3 0;
#X connect 9 1 43 0;
#X connect 9 1 3 0;
#X connect 16 0 18 0;
#X connect 17 0 19 1;
#X connect 18 0 20 0;
#X connect 20 0 19 0;
#X connect 20 1 17 0;
#X connect 20 2 21 0;
#X connect 21 0 23 0;
#X connect 22 0 29 0;
#X connect 23 0 30 0;
#X connect 23 1 22 0;
#X connect 24 0 25 1;
#X connect 26 0 25 0;
#X connect 26 1 24 0;
#X connect 29 0 30 1;
#X connect 30 0 26 0;
#X connect 33 0 34 0;
#X connect 34 1 37 0;
#X connect 36 0 2 1;
#X connect 37 0 8 0;
#X connect 38 0 40 0;
#X connect 40 0 1 0;
#X connect 40 1 36 0;
#X connect 40 1 0 0;
#X restore 178 263 pd startup;
#X obj 101 139 cnv 15 298 20 empty \$0-m_description-rcv empty 1 12
0 14 -233017 -66577 0;
#X obj 106 203 bng 15 250 50 0 empty empty empty 17 7 0 10 -262144
-1 -1;
#X floatatom 115 240 5 0 0 0 - - -;
#X connect 1 0 3 0;
#X connect 1 0 10 0;
#X connect 3 0 7 0;
#X connect 5 0 6 0;
#X connect 6 0 2 0;
#X connect 9 0 1 0;
#X coords 0 -1 1 1 300 60 2 100 100;
#X restore 10 6 pd;
#X obj 313 6 bng 30 250 50 0 \$0-esc empty X 7 15 0 28 -261234 -1 -1
;
#X obj 343 6 bng 30 250 50 0 \$0-enter empty OK 1 15 0 24 -204786 -1
-1;
#X obj 403 6 bng 30 250 50 0 \$0-suppr empty DEL 1 15 0 16 -260097
-1 -1;
#X text 311 33 <Esc><Enter>;
#X text 394 33 <Suppr>;
#X restore 1183 613 pd \$0-select_module;
#X obj 1172 560 s pd-\$0-select_module;
#X msg 1204 483 vis 1;
#X msg 563 726 1;
#X text 630 666 signal to children embedding mode (1= container);
#X obj 814 768 f \$0;
#X floatatom 814 791 5 0 0 0 - - -;
#X obj 803 741 bng 15 250 50 0 empty empty empty 17 7 0 10 -262144
-1 -1;
#X obj 563 758 s \$0-embedding_mode;
#X obj 774 423 symbol \$0-container_dump;
#X obj 784 102 r \$0-container_dump;
#X obj 992 30 declare -path ../../core;
#X obj 992 50 declare -path ../../core/stuff;
#X obj 992 70 declare -path ../../core/rj;
#X connect 1 0 0 0;
#X connect 3 0 35 0;
#X connect 4 0 0 0;
#X connect 5 0 0 0;
#X connect 6 0 17 0;
#X connect 6 1 10 0;
#X connect 7 0 0 0;
#X connect 8 0 12 0;
#X connect 10 0 11 0;
#X connect 11 0 8 0;
#X connect 11 1 13 1;
#X connect 12 0 13 0;
#X connect 13 0 14 0;
#X connect 14 0 48 0;
#X connect 14 1 16 0;
#X connect 14 2 15 0;
#X connect 15 0 9 0;
#X connect 17 0 19 0;
#X connect 17 1 15 0;
#X connect 19 0 18 0;
#X connect 20 0 21 0;
#X connect 20 1 34 0;
#X connect 22 0 24 0;
#X connect 23 0 20 0;
#X connect 24 0 6 0;
#X connect 25 0 23 0;
#X connect 26 0 27 0;
#X connect 27 0 53 0;
#X connect 27 1 5 0;
#X connect 27 2 7 0;
#X connect 27 3 3 0;
#X connect 27 4 1 0;
#X connect 28 0 26 0;
#X connect 33 0 20 0;
#X connect 34 0 40 0;
#X connect 34 1 36 0;
#X connect 35 0 4 0;
#X connect 36 0 20 2;
#X connect 36 1 64 0;
#X connect 38 0 37 0;
#X connect 39 0 34 0;
#X connect 40 0 41 0;
#X connect 41 0 43 0;
#X connect 41 1 42 0;
#X connect 42 0 20 1;
#X connect 43 0 45 0;
#X connect 44 0 37 0;
#X connect 45 0 44 0;
#X connect 47 0 46 0;
#X connect 48 0 49 0;
#X connect 48 1 28 0;
#X connect 48 2 26 1;
#X connect 49 0 47 0;
#X connect 49 0 58 0;
#X connect 53 0 2 0;
#X connect 54 0 57 0;
#X connect 57 0 56 0;
#X connect 58 0 63 0;
#X connect 60 0 61 0;
#X connect 62 0 60 0;
#X connect 64 0 38 0;
#X connect 65 0 39 0;
#X restore 404 258 pd stuff;
#X text 43 40 0;
#X text 126 41 1;
#X text 224 39 2;
#X text 57 218 3;
#X text 146 221 4;
#X text 245 216 5;
#X obj 361 202 list trim;
#X obj 361 179 list prepend contents;
#X text 71 101 6->;
#X text 55 135 7---->;
#X connect 0 0 7 0;
#X connect 1 0 7 1;
#X connect 2 0 18 0;
#X connect 2 1 7 2;
#X connect 7 0 3 0;
#X connect 7 1 4 0;
#X connect 7 2 5 0;
#X connect 8 0 2 0;
#X connect 17 0 10 0;
#X connect 18 0 17 0;
#X coords 0 -1 1 1 190 70 2 100 100;
