#N canvas 0 57 1920 1023 8;
#X declare -path pdr/core;
#X declare -path pdr/core/rj;
#X declare -path pdr/core/stuff;
#N canvas 172 83 586 377 LICENSE-GPL 0;
#X text 57 88 This program is free software: you can redistribute it
and/or modify it under the terms of the GNU General Public License
as published by the Free Software Foundation \, either version 3 of
the License \, or (at your option) any later version.;
#X text 58 168 This program is distributed in the hope that it will
be useful \, but WITHOUT ANY WARRANTY \; without even the implied warranty
of MERCHANTABILITY or FITNESS FOR A PARTICULAR PURPOSE. See the GNU
General Public License for more details.;
#X text 57 261 You should have received a copy of the GNU General Public
License along with this program. If not \, see <http://www.gnu.org/licenses/>.
;
#X text 61 54 Copyright (C) 2009 \, Reality Jockey Ltd.;
#X text 60 325 See the file LICENSE.txt for the full license text.
;
#X restore 298 15 pd LICENSE-GPL;
#X obj 156 482 list prepend wintablet;
#X obj 202 571 list trim;
#X obj 488 299 t f f;
#X obj 597 322 & 1;
#X obj 490 327 & 6;
#X obj 475 351 +;
#X obj 465 319 * 8;
#X obj 473 376 - 8;
#X obj 473 398 / 2;
#X msg 506 484 0;
#X msg 540 483 1;
#X msg 578 482 2;
#X msg 613 480 3;
#X obj 404 354 spigot;
#X obj 403 303 / 8;
#X obj 426 302 / 8;
#X obj 449 302 / 8;
#X obj 402 330 pack f f f;
#X obj 379 564 unpack f f f, f 33;
#X obj 412 611 r \$0-ccx;
#X obj 372 676 pack f f 1;
#X obj 454 674 pack f f 1;
#X obj 497 610 r \$0-ccy;
#X obj 544 672 pack f f 1;
#X obj 580 606 r \$0-ccz;
#X obj 502 458 select 0 1 2 4 5;
#X msg 641 480 4;
#X obj 323 622 t b;
#X msg 381 655 1;
#X obj 375 696 t b l;
#X msg 461 654 1;
#X msg 550 652 1;
#X obj 383 636 r \$0-testx;
#X obj 466 632 r \$0-testy;
#X obj 550 630 r \$0-testz;
#X obj 377 612 spigot;
#X obj 404 584 r \$0-ccx_enable;
#X obj 459 611 spigot;
#X obj 489 586 r \$0-ccy_enable;
#X obj 543 605 spigot;
#X obj 571 580 r \$0-ccz_enable;
#X obj 101 101 cnv 15 188 68 \$0-background \$0-background-rcv data_wintablet-0
0 7 0 14 -262144 -1 0;
#X obj 101 133 bng 30 250 50 0 empty empty open_wintablet 3 7 0 10
-262144 -1 -1;
#X obj 193 22 vsl 70 17 1 0 0 0 \$0-presets \$0-presets-rcv PRESETS
4 5 0 10 -232576 -232576 -1 0 1;
#X obj 198 118 cnv 10 90 50 empty \$0-color empty 20 12 0 14 -228992
-66577 0;
#X obj 229 119 bng 8 50 10 0 empty empty empty 17 7 0 10 -262144 -1
-1;
#X obj 276 128 tgl 14 0 \$0-ccx_enable \$0-ccx_enable-rcv empty 0 6
0 10 -203904 -1 -1 1 1;
#X obj 200 128 bng 14 250 50 0 \$0-testx empty empty 17 7 0 10 -262144
-1 -1;
#X obj 200 142 bng 14 250 50 0 \$0-testy empty empty 17 7 0 10 -262144
-1 -1;
#X obj 200 156 bng 14 250 50 0 \$0-testz empty empty 17 7 0 10 -262144
-1 -1;
#X obj 276 142 tgl 14 0 \$0-ccy_enable \$0-ccy_enable-rcv empty 0 6
0 10 -203904 -1 -1 1 1;
#X obj 276 156 tgl 14 0 \$0-ccz_enable \$0-ccz_enable-rcv empty 0 6
0 10 -203904 -1 -1 1 1;
#X floatatom 214 128 5 0 127 1 ccx #0-ccx-rcv #0-ccx;
#X floatatom 214 142 5 0 127 1 ccy #0-ccy-rcv #0-ccy;
#X floatatom 214 155 5 0 127 1 ccz #0-ccz-rcv #0-ccz;
#X obj 19 400 inlet~;
#X obj 19 446 outlet~;
#X obj 79 400 inlet~;
#X obj 79 446 outlet~;
#X obj 430 16 inlet data;
#X obj 236 725 outlet data;
#X obj 404 85 module_loader data_wintablet \$0 \$1;
#X obj 666 583 pack f f;
#X msg 669 429 stop;
#X obj 664 560 +;
#X obj 522 362 r \$0-noteout;
#X msg 666 603 note \$1 \$2;
#X obj 602 377 select 0;
#X obj 522 384 + 1;
#X obj 498 438 spigot;
#X obj 564 511 change;
#X obj 605 357 change;
#X msg 605 421 set -1;
#X obj 602 399 t b b;
#X obj 563 552 poly 1 1;
#X obj 491 418 spigot;
#X obj 560 532 list append 100;
#X obj 534 282 tgl 15 0 empty empty empty 17 7 0 10 -262144 -1 -1 0
1;
#X obj 862 331 data_wintablet/analyserotation 5;
#X obj 486 55 namecanvas \$0-multitab;
#X obj 484 35 ui_multitab \$0;
#X obj 245 100 hradio 15 1 0 2 \$0-guitab \$0-guitab-rcv empty 32 7
0 16 -191407 -1 -4160 0;
#X obj 101 201 cnv 15 188 68 \$0-background \$0-background-rcv data_wintablet-0
0 7 0 14 -262144 -1 0;
#X obj 245 200 hradio 15 1 0 2 \$0-guitab \$0-guitab-rcv empty 32 7
0 16 -191407 -1 -4160 0;
#X obj 102 219 hradio 15 1 0 2 \$0-wintabmode \$0-wintabmode-rcv WinTabMode
33 7 0 10 -262144 -1 -1 0;
#X floatatom 151 154 5 -1 127 2 note_out #0-noteout-rcv #0-noteout
;
#X obj 101 117 hradio 15 1 0 2 \$0-wintabmode \$0-wintabmode-rcv WinTabMode
33 7 0 10 -262144 -1 -1 0;
#X text 120 251 |;
#X text 122 255 ->;
#X obj 142 255 hsl 75 15 0.01 10 1 0 \$0-velocity_out \$0-velocity_out-rcv
vel.out=0.01 1 7 0 10 -204786 -1 -1 0 1;
#X obj 889 355 r \$0-wintabmode;
#X obj 861 379 spigot;
#X obj 861 466 *;
#X obj 900 447 r \$0-velocity_out;
#X msg 861 487 scratch_speed \$1;
#X obj 101 301 cnv 15 188 68 \$0-background \$0-background-rcv data_wintablet-0
0 7 0 14 -262144 -1 0;
#X obj 276 218 tgl 14 0 \$0-btn1_enable \$0-btn1_enable-rcv empty 0
6 0 10 -203904 -1 -1 0 1;
#X obj 200 218 bng 14 250 50 0 \$0-test_btn1 empty empty 17 7 0 10
-262144 -1 -1;
#X floatatom 214 218 5 0 127 1 btn1 #0-btn1-rcv #0-btn1;
#X obj 790 622 pack f f 1, f 11;
#X obj 801 571 spigot;
#X obj 836 545 r \$0-btn1_enable;
#X obj 840 592 r \$0-btn1;
#X obj 799 507 & 2;
#X obj 799 529 != 0;
#X obj 799 551 * 100;
#X obj 245 300 hradio 15 1 0 3 \$0-guitab \$0-guitab-rcv empty 32 7
0 16 -191407 -1 -4160 0;
#X obj 843 570 r \$0-test_btn1;
#X msg 805 592 100;
#X obj 861 423 +;
#X obj 861 445 t f f;
#X obj 861 401 * 0.08;
#X obj 897 428 * 0.92;
#N canvas 0 50 450 300 speed_lim 0;
#X obj 91 12 inlet;
#X obj 87 105 t b b a;
#X obj 83 278 list append;
#X obj 83 307 list trim;
#X msg 129 200 1;
#X msg 57 177 0;
#X obj 83 332 outlet;
#X obj 33 226 change;
#X obj 83 249 metro 20;
#X obj 55 145 delay 25;
#X connect 0 0 1 0;
#X connect 1 0 9 0;
#X connect 1 1 4 0;
#X connect 1 2 2 1;
#X connect 2 0 3 0;
#X connect 3 0 6 0;
#X connect 4 0 7 0;
#X connect 5 0 7 0;
#X connect 7 0 8 0;
#X connect 8 0 2 0;
#X connect 9 0 5 0;
#X restore 402 252 pd speed_lim;
#X obj 402 275 unpack f f f f f;
#X obj 403 231 pack f f f f f;
#N canvas 0 57 1920 1023 u_parameters 0;
#X obj 127 50 u_parameter \$0 ccx;
#X obj 122 73 u_parameter \$0 ccy;
#X obj 123 93 u_parameter \$0 ccz;
#X obj 123 116 u_parameter \$0 ccx_enable;
#X obj 123 136 u_parameter \$0 ccy_enable;
#X obj 123 156 u_parameter \$0 ccz_enable;
#X obj 123 178 u_parameter \$0 noteout;
#X obj 123 223 u_parameter \$0 wintabmode;
#X obj 123 243 u_parameter \$0 velocity_out;
#X obj 123 273 u_parameter \$0 btn1;
#X obj 123 296 u_parameter \$0 btn1_enable;
#X obj 118 15 inlet;
#X connect 0 0 1 0;
#X connect 1 0 2 0;
#X connect 2 0 3 0;
#X connect 3 0 4 0;
#X connect 4 0 5 0;
#X connect 5 0 6 0;
#X connect 6 0 7 0;
#X connect 7 0 8 0;
#X connect 8 0 9 0;
#X connect 9 0 10 0;
#X connect 11 0 0 0;
#X restore 405 113 pd u_parameters;
#X obj 1120 153 r \$0-velocity_out;
#X obj 1120 175 * 100;
#X obj 1120 197 int;
#X obj 1120 219 / 100;
#X msg 1120 241 label vel.out=\$1;
#X obj 1120 263 s \$0-velocity_out-rcv;
#X obj 1045 16 declare -path pdr/core;
#X obj 1045 46 declare -path pdr/core/rj;
#X obj 1045 76 declare -path pdr/core/stuff;
#X obj 628 26 savestate;
#X obj 654 409 delay 1;
#X obj 397 724 glocal/glocal.send CTLIN;
#X text 120 242 |;
#X text 120 233 |;
#X obj 276 233 tgl 14 0 \$0-btn2_enable \$0-btn2_enable-rcv empty 0
6 0 10 -203904 -1 -1 0 1;
#X obj 200 233 bng 14 250 50 0 \$0-test_btn2 empty empty 17 7 0 10
-262144 -1 -1;
#X floatatom 214 233 5 0 127 1 btn2 #0-btn2-rcv #0-btn2;
#X obj 28 42 r \$0-busy;
#X obj 28 62 s WACOM-ENABLE;
#X obj 1211 94 namecanvas \$0-this;
#X obj 1209 71 triggered_loadbang \$0-this;
#X text 1204 21 manually trigger loadbang if the instance of abstraction
is created dynamically, f 29;
#X obj 396 207 wintablet \$0;
#X obj 71 358 r \$0-dev-nb;
#X msg 137 392 label \$1';
#X obj 137 410 s \$0-guitab-rcv;
#X msg 212 391 label;
#X obj 488 143 & 1;
#X obj 488 161 change;
#X obj 488 179 select 0 1;
#X obj 495 231 s \$0-color;
#X msg 496 213 color 38 38;
#X msg 562 188 color 65 65;
#X connect 1 0 2 0;
#X connect 2 0 61 0;
#X connect 3 0 5 0;
#X connect 3 1 4 0;
#X connect 4 0 14 1;
#X connect 4 0 70 1;
#X connect 4 0 72 0;
#X connect 5 0 6 1;
#X connect 6 0 8 0;
#X connect 7 0 6 0;
#X connect 8 0 9 0;
#X connect 9 0 76 0;
#X connect 10 0 71 0;
#X connect 11 0 71 0;
#X connect 12 0 71 0;
#X connect 13 0 71 0;
#X connect 14 0 19 0;
#X connect 15 0 18 0;
#X connect 16 0 18 1;
#X connect 17 0 18 2;
#X connect 18 0 14 0;
#X connect 19 0 36 0;
#X connect 19 1 38 0;
#X connect 19 2 40 0;
#X connect 20 0 21 1;
#X connect 21 0 30 0;
#X connect 22 0 30 0;
#X connect 23 0 22 1;
#X connect 24 0 30 0;
#X connect 25 0 24 1;
#X connect 26 0 10 0;
#X connect 26 1 11 0;
#X connect 26 2 12 0;
#X connect 26 3 13 0;
#X connect 26 4 27 0;
#X connect 27 0 71 0;
#X connect 28 0 46 0;
#X connect 29 0 21 0;
#X connect 30 0 28 0;
#X connect 30 1 129 0;
#X connect 31 0 22 0;
#X connect 32 0 24 0;
#X connect 33 0 29 0;
#X connect 34 0 31 0;
#X connect 35 0 32 0;
#X connect 36 0 21 0;
#X connect 37 0 36 1;
#X connect 38 0 22 0;
#X connect 39 0 38 1;
#X connect 40 0 24 0;
#X connect 41 0 40 1;
#X connect 43 0 140 0;
#X connect 56 0 57 0;
#X connect 58 0 59 0;
#X connect 60 0 62 0;
#X connect 62 0 117 0;
#X connect 62 1 127 0;
#X connect 63 0 67 0;
#X connect 64 0 75 0;
#X connect 65 0 63 0;
#X connect 66 0 65 1;
#X connect 66 0 69 0;
#X connect 67 0 61 0;
#X connect 68 0 74 0;
#X connect 69 0 76 1;
#X connect 70 0 26 0;
#X connect 71 0 77 0;
#X connect 72 0 68 0;
#X connect 73 0 71 0;
#X connect 74 0 73 0;
#X connect 74 1 128 0;
#X connect 75 1 65 0;
#X connect 75 2 63 1;
#X connect 76 0 70 0;
#X connect 77 0 75 0;
#X connect 79 0 92 0;
#X connect 91 0 92 1;
#X connect 92 0 112 0;
#X connect 93 0 95 0;
#X connect 94 0 93 1;
#X connect 95 0 61 0;
#X connect 100 0 129 0;
#X connect 101 0 100 0;
#X connect 102 0 101 1;
#X connect 103 0 100 1;
#X connect 104 0 105 0;
#X connect 105 0 106 0;
#X connect 106 0 101 0;
#X connect 108 0 109 0;
#X connect 109 0 100 0;
#X connect 110 0 111 0;
#X connect 111 0 93 0;
#X connect 111 1 113 0;
#X connect 112 0 110 0;
#X connect 113 0 110 1;
#X connect 114 0 115 0;
#X connect 114 0 1 0;
#X connect 115 0 15 0;
#X connect 115 0 79 0;
#X connect 115 1 16 0;
#X connect 115 1 79 1;
#X connect 115 2 17 0;
#X connect 115 3 7 0;
#X connect 115 4 3 0;
#X connect 115 4 104 0;
#X connect 116 0 114 0;
#X connect 118 0 119 0;
#X connect 119 0 120 0;
#X connect 120 0 121 0;
#X connect 121 0 122 0;
#X connect 122 0 123 0;
#X connect 127 0 62 1;
#X connect 127 1 62 2;
#X connect 128 0 64 0;
#X connect 135 0 136 0;
#X connect 140 0 116 0;
#X connect 140 1 116 1;
#X connect 140 2 116 2;
#X connect 140 3 116 3;
#X connect 140 4 116 4;
#X connect 140 4 145 0;
#X connect 141 0 142 0;
#X connect 142 0 143 0;
#X connect 144 0 143 0;
#X connect 145 0 146 0;
#X connect 146 0 147 0;
#X connect 147 0 149 0;
#X connect 147 1 150 0;
#X connect 149 0 148 0;
#X connect 150 0 148 0;
#X coords 0 0 1 1 190 70 1 100 100;
