#N struct comment float x float y float color text FR text EN text
IT;
#N canvas 312 199 931 469 16;
#N canvas 0 50 545 320 noiseBurst 0;
#X obj 250 106 noise~;
#X obj 354 116 *~ 100;
#X obj 354 138 clip~ -1 1;
#X obj 354 182 +~ 0.5;
#X obj 250 227 *~;
#X obj 303 60 inlet;
#X obj 250 162 *~ 0;
#X obj 250 249 outlet~;
#X obj 303 125 * 0.5;
#X obj 354 84 osc~ 0.5;
#X obj 354 160 *~ 0.4;
#X connect 0 0 6 0;
#X connect 1 0 2 0;
#X connect 2 0 10 0;
#X connect 3 0 4 1;
#X connect 4 0 7 0;
#X connect 5 0 8 0;
#X connect 6 0 4 0;
#X connect 8 0 6 1;
#X connect 9 0 1 0;
#X connect 10 0 3 0;
#X restore 20 260 pd noiseBurst;
#X obj 20 225 tgl 15 0 empty empty empty 17 7 0 10 -262144 -1 -1 0
1;
#X obj 20 516 dac~;
#X msg 544 226 threshold -2 \, ratio 2 \, response 40 \, gain 0 \,
rmspeak 0 \, lookahead 0;
#X text 542 265 All dB values (threshold and gain) are dBFS;
#X text 542 279 Response (attack/release) is in ms;
#X text 542 293 Lookahead is in ms;
#X text 542 319 rmspeak 1 = peak detection;
#X text 542 306 rmspeak 0 = rms detection;
#X text 542 205 Messages to tb_compressor~:;
#X text 541 158 tb_compressorUI;
#X text 541 173 UI abstraction for tb_compressor~;
#X msg 53 122 \; pd dsp 1;
#X text 542 338 -----------------------------------------------------------
;
#X text 41 225 STEP 2: Turn on;
#X text 29 190 (and make sure your speakers/headphones arent too loud)
;
#X obj 17 346 fx_compressor;
#A saved lookahead 0;
#A saved response 40;
#A saved gain 0;
#A saved ratio 2;
#A saved thresh -2;
#A saved rmspeak 0;
#X text 542 131 stereo lookahead compressor;
#X text 608 108 fx_compressor;
#X obj 1 0 cnv 15 800 50 empty empty empty 20 12 0 14 -232576 -66577
0;
#X obj 600 0 pdr/core/stuff/language;
#X text 9 5 fx_compressor;
#X scalar comment 32.6034 102.223 0 \; ETAPE 1 : activer le DSP \;
STEP 1 : turn on DSP \; PASSO 1 : attivare il DSP \;;
#X connect 0 0 16 0;
#X connect 0 0 16 1;
#X connect 1 0 0 0;
#X connect 16 0 2 0;
#X connect 16 1 2 1;
