#N canvas 381 402 1285 680 10;
#X declare -path ../../core;
#X declare -path ../../core/stuff;
#X declare -path ../../core/rj;
#X obj 595 563 u_parameter \$0 midiNoteIn;
#X obj 595 585 u_dispatch \$0 vol;
#X obj 108 264 inlet~;
#X obj 230 258 inlet~;
#X obj 76 548 outlet~;
#X obj 210 557 outlet~;
#X obj 304 260 inlet data;
#X obj 358 529 outlet data;
#X obj 101 101 cnv 15 188 68 \$0-background \$0-background-rcv inst_ep-mk1-0 0 7
0 14 -262144 -1 0;
#X obj 197 135 bng 15 250 50 0 empty empty empty 17 7 0 10 -262144
-1 -1;
#X obj 32 163 notein 1;
#X obj 43 238 pack f f;
#X obj 30 206 spigot;
#X obj 116 196 r \$0-midiNoteIn;
#X obj 227 153 tgl 15 0 \$0-midiNoteIn \$0-midiNoteIn-rcv omni_notein
-50 7 0 10 -262144 -1 -1 0 1;
#X obj 252 115 ui_vs \$0 vol 0 127;
#X obj 521 199 namecanvas \$0-this;
#X obj 519 176 triggered_loadbang \$0-this;
#X text 514 126 manually trigger loadbang if the instance of abstraction
is created dynamically, f 29;
#X obj 593 534 module_loader inst_ep-mk1 \$0 \$1;
#N canvas 0 50 506 246 ep-mk1-gui_(\$0) 0;
#X obj 10 12 cnv 10 479 222 empty empty empty 20 12 0 14 -1 -66577
0;
#X obj 20 22 cnv 10 459 202 empty empty empty 20 12 0 14 -191407 -66577
0;
#X obj 30 70 cnv 15 149 146 empty empty empty 20 12 0 14 -228856 -66577
0;
#X obj 39 110 nbx 4 17 0 127 0 1 \$0-snd-ton-dec \$0-rcv-ton-dec empty
0 -9 0 10 -166441 -1 -1 127 256;
#X obj 39 150 nbx 4 17 0 1e+37 0 1 \$0-snd-ton-rel \$0-rcv-ton-rel
empty 0 -9 0 10 -166441 -1 -1 193 256;
#X text 37 133 RELEASE;
#X text 87 151 ms;
#X obj 109 190 nbx 4 17 -100 0 0 1 \$0-snd-bel-lvl \$0-rcv-bel-lvl
empty 0 -9 0 10 -166441 -1 -1 -19 256;
#X text 157 191 dB;
#X text 37 93 DECAY;
#X obj 39 190 nbx 4 17 -100 0 0 1 \$0-snd-ton-lvl \$0-rcv-ton-lvl empty
0 -9 0 10 -166441 -1 -1 -2 256;
#X text 87 191 dB;
#X text 107 173 BELL LEVEL;
#X text 37 173 LEVEL;
#X obj 58 74 cnv 16 100 16 empty empty TONE BAR 6 8 0 14 -258113 -262144
0;
#X obj 190 70 cnv 16 149 146 empty empty empty 20 12 0 14 -228856 -66577
0;
#X obj 199 110 nbx 4 17 0 30 0 1 \$0-snd-pic-gan \$0-rcv-pic-gan empty
0 -9 0 10 -166441 -1 -1 30 256;
#X text 247 111 dB;
#X obj 269 110 nbx 4 17 0 127 0 1 \$0-snd-pic-sym \$0-rcv-pic-sym empty
0 -9 0 10 -166441 -1 -1 33 256;
#X obj 213 75 cnv 16 100 16 empty empty PICKUP 4 8 0 14 -260097 -262144
0;
#X text 267 93 SYMMETRY;
#X obj 199 150 nbx 4 17 0 127 0 1 \$0-snd-pic-ton \$0-rcv-pic-ton empty
0 -9 0 10 -166441 -1 -1 42 256;
#X text 197 133 TONE;
#X obj 199 190 nbx 4 17 -100 0 0 1 \$0-snd-pic-lvl \$0-rcv-pic-lvl
empty 0 -9 0 10 -166441 -1 -1 -6 256;
#X text 247 191 dB;
#X text 197 93 GAIN;
#X text 197 173 LEVEL;
#X obj 269 190 nbx 4 17 -100 0 0 1 \$0-snd-buz-lvl \$0-rcv-buz-lvl
empty 0 -9 0 10 -166441 -1 -1 -21 256;
#X text 317 191 dB;
#X text 267 173 BUZZ LEVEL;
#X obj 30 32 cnv 16 165 27 empty empty EP-MK1 2 12 0 17 -1 -262144
0;
#X obj 350 70 cnv 16 119 146 empty empty empty 10 12 0 14 -228856 -66577
0;
#X obj 359 150 nbx 4 17 0.1 10000 1 1 \$0-snd-tre-rat \$0-rcv-tre-rat
empty 0 -9 0 10 -166441 -1 -1 3 256;
#X obj 359 75 cnv 16 100 16 empty empty TREMOLO 11 8 0 14 -4160 -262144
0;
#X obj 359 190 nbx 4 17 0 127 0 1 \$0-snd-tre-dep \$0-rcv-tre-dep empty
0 -9 0 10 -166441 -1 -1 64 256;
#X text 357 173 DEPTH;
#X text 407 151 Hz;
#X text 357 133 RATE;
#X obj 359 110 nbx 4 17 0 127 0 1 \$0-snd-tre-shp \$0-rcv-tre-shp empty
0 -9 0 10 -166441 -1 -1 97 256;
#X text 357 93 SHAPE;
#X obj 109 150 tgl 17 1 \$0-snd-pdl \$0-rcv-pdl empty 0 -9 0 10 -1
-262144 -1 0 1;
#X obj 440 43 bng 17 250 50 0 \$0-snd-mid \$0-rcv-mid empty 17 7 0
10 -106497 -258113 -258113;
#X text 438 26 MIDI;
#X obj 400 43 bng 17 250 50 0 \$0-snd-stp \$0-rcv-stp empty 17 7 0
10 -106497 -258113 -258113;
#X text 398 26 STOP;
#X text 107 133 SUS. PEDAL;
#X obj 419 110 nbx 4 17 0 90 0 1 \$0-snd-tre-phs \$0-rcv-tre-phs empty
0 -9 0 10 -166441 -1 -1 0 256;
#X text 417 93 PHASE;
#N canvas 640 99 450 300 credits 0;
#X text 12 82 Miguel Moreno 2018;
#X text 12 97 Email: mianmogra94@gmail.com;
#X text 12 112 GitHub: github.com/MikeMorenoAudio;
#X text 12 137 Facebook: fb.com/MikeMorenoAudio;
#X text 12 167 WordPress: mikemorenoaudio.wordpress.com;
#X text 12 182 PatchStorage: patchstorage.com/author/mianmogra;
#X text 12 152 Youtube: youtube.com/c/MikeMorenoAudio;
#X text 272 82 DONATE;
#X text 272 97 paypal.me/mianmogra;
#X text 11 18 PdRacks adaptation of ep-mk1 by jy gratius 2019;
#X text 11 56 CREDITS :;
#X restore 238 38 pd credits;
#X obj 234 32 cnv 16 105 27 empty empty by MK MR 2 12 0 17 -1 -262144
0;
#X restore 363 70 pd ep-mk1-gui_(\$0);
#X obj 609 433 *~;
#X obj 759 328 *~;
#X obj 1050 216 / 127;
#X obj 759 349 +~ 1;
#X msg 1050 258 \$1 20;
#X obj 1050 279 line~;
#N canvas 4 143 162 227 hv.tanh 0;
#X obj 12 12 inlet~;
#X obj 12 38 clip~ -3 3;
#X obj 27 64 *~;
#X obj 12 192 outlet~;
#X obj 27 140 /~;
#X obj 12 166 *~;
#X obj 67 90 *~ 9;
#X obj 27 90 +~ 27;
#X obj 67 116 +~ 27;
#X connect 0 0 1 0;
#X connect 1 0 2 0;
#X connect 1 0 2 1;
#X connect 1 0 5 0;
#X connect 2 0 7 0;
#X connect 2 0 6 0;
#X connect 4 0 5 1;
#X connect 5 0 3 0;
#X connect 6 0 8 0;
#X connect 7 0 4 0;
#X connect 8 0 4 1;
#X restore 609 475 pd hv.tanh;
#N canvas 829 23 794 489 parameters 0;
#X obj 12 12 r \$0-snd-ton-dec;
#X obj 12 33 / 127;
#X obj 12 138 s \$0-ton-dec;
#X obj 122 12 r \$0-snd-pdl;
#X msg 122 33 1 \$1;
#X obj 122 54 -;
#X obj 122 75 s \$0-pdl;
#X obj 212 12 r \$0-snd-ton-lvl;
#X obj 212 33 + 100;
#X obj 212 54 dbtorms;
#X obj 212 75 s \$0-ton-lvl;
#X obj 12 96 * 100;
#X obj 12 54 pow 1;
#X obj 12 117 + 100;
#X obj 12 75 * 25;
#X obj 12 183 + 100;
#X obj 12 204 dbtorms;
#X obj 12 162 r \$0-snd-pic-gan;
#X obj 12 225 s \$0-pic-gan;
#X obj 122 162 r \$0-snd-pic-sym;
#X obj 122 183 / 127;
#X msg 122 204 1 \$1;
#X obj 122 225 -;
#X obj 122 246 * 3;
#X obj 122 267 + 1;
#X obj 122 288 s \$0-pic-sym;
#X obj 232 183 / 127;
#X obj 232 162 r \$0-snd-pic-ton;
#X obj 232 246 + 33;
#X obj 232 267 mtof;
#X obj 232 225 * 48;
#X obj 232 288 s \$0-pic-ton;
#X obj 342 183 + 100;
#X obj 342 204 dbtorms;
#X obj 342 162 r \$0-snd-pic-lvl;
#X obj 342 225 s \$0-pic-lvl;
#X obj 452 183 + 100;
#X obj 452 204 dbtorms;
#X obj 452 162 r \$0-snd-buz-lvl;
#X obj 452 225 s \$0-buz-lvl;
#X obj 322 33 + 100;
#X obj 322 54 dbtorms;
#X obj 322 12 r \$0-snd-bel-lvl;
#X obj 322 75 s \$0-bel-lvl;
#X obj 232 204 pow 0.6;
#X obj 463 26 r \$0-snd-tre-phs;
#X obj 463 49 / 90;
#X obj 463 118 s \$0-tre-phs;
#X obj 463 72 * 0.25;
#X connect 0 0 1 0;
#X connect 1 0 12 0;
#X connect 3 0 4 0;
#X connect 4 0 5 0;
#X connect 5 0 6 0;
#X connect 7 0 8 0;
#X connect 8 0 9 0;
#X connect 9 0 10 0;
#X connect 11 0 13 0;
#X connect 12 0 14 0;
#X connect 13 0 2 0;
#X connect 14 0 11 0;
#X connect 15 0 16 0;
#X connect 16 0 18 0;
#X connect 17 0 15 0;
#X connect 19 0 20 0;
#X connect 20 0 21 0;
#X connect 21 0 22 0;
#X connect 22 0 23 0;
#X connect 23 0 24 0;
#X connect 24 0 25 0;
#X connect 26 0 44 0;
#X connect 27 0 26 0;
#X connect 28 0 29 0;
#X connect 29 0 31 0;
#X connect 30 0 28 0;
#X connect 32 0 33 0;
#X connect 33 0 35 0;
#X connect 34 0 32 0;
#X connect 36 0 37 0;
#X connect 37 0 39 0;
#X connect 38 0 36 0;
#X connect 40 0 41 0;
#X connect 41 0 43 0;
#X connect 42 0 40 0;
#X connect 44 0 30 0;
#X connect 45 0 46 0;
#X connect 46 0 48 0;
#X connect 48 0 47 0;
#X restore 569 312 pd parameters;
#X obj 609 454 *~;
#X obj 1079 368 dbtorms;
#X msg 1079 389 \$1 20;
#X obj 1077 409 line~;
#N canvas 1017 140 1064 491 rhodes 0;
#X obj 12 163 pack f f f;
#X obj 12 443 outlet~;
#X obj 116 106 > 0;
#X obj 116 127 sel 1;
#X obj 116 148 s \$0-rcv-mid;
#X obj 132 51 r \$0-snd-stp;
#X msg 131 74 stop;
#X obj 18 27 inlet;
#X obj 19 73 unpack f f;
#X obj 87 444 outlet~;
#X obj 12 135 - 1;
#X obj 13 186 clone -x inst_ep-mk1/voice 8 \$0;
#X obj 12 113 poly 8 1;
#X connect 0 0 11 0;
#X connect 2 0 3 0;
#X connect 3 0 4 0;
#X connect 5 0 6 0;
#X connect 6 0 12 0;
#X connect 7 0 8 0;
#X connect 8 0 12 0;
#X connect 8 1 2 0;
#X connect 8 1 12 1;
#X connect 10 0 0 0;
#X connect 11 0 1 0;
#X connect 11 0 9 0;
#X connect 12 0 10 0;
#X connect 12 1 0 1;
#X connect 12 2 0 2;
#X restore 608 403 pd rhodes;
#X obj 759 202 phasor~;
#X obj 759 244 -~ 0.25;
#X obj 759 265 cos~;
#X obj 759 286 /~ 2;
#X obj 759 307 -~ 0.5;
#X obj 759 181 r \$0-snd-tre-rat;
#X obj 1050 195 r \$0-snd-tre-dep;
#X obj 869 62 r \$0-snd-tre-shp;
#X obj 869 83 / 127;
#X obj 869 104 * 2;
#X msg 869 125 2 \$1;
#X obj 869 146 pow;
#X obj 869 167 * 0.5;
#X msg 869 188 \$1 20;
#X obj 869 209 line~;
#X obj 759 223 pow~;
#X obj 1050 237 pow 1;
#X obj 668 235 ctlin 64;
#X obj 668 256 / 127;
#N canvas 4 83 162 227 hv.tanh 0;
#X obj 12 12 inlet~;
#X obj 12 38 clip~ -3 3;
#X obj 27 64 *~;
#X obj 12 192 outlet~;
#X obj 27 140 /~;
#X obj 12 166 *~;
#X obj 67 90 *~ 9;
#X obj 27 90 +~ 27;
#X obj 67 116 +~ 27;
#X connect 0 0 1 0;
#X connect 1 0 2 0;
#X connect 1 0 2 1;
#X connect 1 0 5 0;
#X connect 2 0 7 0;
#X connect 2 0 6 0;
#X connect 4 0 5 1;
#X connect 5 0 3 0;
#X connect 6 0 8 0;
#X connect 7 0 4 0;
#X connect 8 0 4 1;
#X restore 716 475 pd hv.tanh;
#X obj 715 433 *~;
#X obj 715 454 *~;
#X obj 394 174 loadbang;
#X msg 43 261 note \$1 \$2;
#X obj 553 243 table \$0-sinewave;
#X obj 553 263 table \$0-coswave;
#X obj 385 243 s \$0-sinewave;
#X msg 385 207 sinesum 65536 1;
#X obj 392 321 s \$0-coswave;
#X msg 392 285 cosinesum 65536 0 1;
#X obj 1079 326 r \$0-vol;
#X obj 859 328 *~;
#X obj 859 349 +~ 1;
#X obj 859 265 cos~;
#X obj 859 286 /~ 2;
#X obj 859 307 -~ 0.5;
#X obj 953 118 r \$0-tre-phs;
#X obj 859 244 +~;
#X msg 954 175 \$1 20;
#X obj 954 196 line~;
#X obj 122 128 bng 30 250 50 0 empty empty GUI 3 13 0 10 -4034 -1 -1
;
#X msg 239 28 vis 1;
#X obj 329 35 s pd-ep-mk1-gui_(\$0);
#X obj 472 340 s \$0-rcv-pdl;
#X msg 470 307 0;
#X obj 825 460 inst_ep-mk1/parameter \$0 ton-dec 0 127 lin;
#X obj 825 480 inst_ep-mk1/parameter \$0 ton-rel 1 3000 lin;
#X obj 825 500 inst_ep-mk1/parameter \$0 ton-lvl -100 0 lin;
#X obj 825 520 inst_ep-mk1/parameter \$0 bel-lvl -100 0 lin;
#X obj 825 550 inst_ep-mk1/parameter \$0 pic-gan 0 30 lin;
#X obj 825 570 inst_ep-mk1/parameter \$0 pic-sym 0 127 lin;
#X obj 825 590 inst_ep-mk1/parameter \$0 pic-ton 0 127 lin;
#X obj 825 610 inst_ep-mk1/parameter \$0 pic-lvl -100 0 lin;
#X obj 825 630 inst_ep-mk1/parameter \$0 buz-lvl -100 0 lin;
#X obj 1095 570 inst_ep-mk1/parameter \$0 tre-shp 0 127 lin;
#X obj 1095 589 inst_ep-mk1/parameter \$0 tre-rat 0.1 10000 log;
#X obj 1095 610 inst_ep-mk1/parameter \$0 tre-dep 0 127 lin;
#X obj 1095 633 inst_ep-mk1/parameter \$0 tre-phs 0 90 lin;
#X obj 696 502 savestate;
#X obj 306 367 route note;
#X obj 714 8 declare -path ../../core;
#X obj 714 28 declare -path ../../core/stuff;
#X obj 714 48 declare -path ../../core/rj;
#X connect 0 0 1 0;
#X connect 1 0 79 0;
#X connect 2 0 4 0;
#X connect 3 0 5 0;
#X connect 6 0 7 0;
#X connect 6 0 93 0;
#X connect 10 0 12 0;
#X connect 10 1 11 1;
#X connect 11 0 57 0;
#X connect 12 0 11 0;
#X connect 13 0 12 1;
#X connect 19 0 0 0;
#X connect 19 1 92 0;
#X connect 21 0 29 0;
#X connect 22 0 24 0;
#X connect 23 0 50 0;
#X connect 24 0 21 1;
#X connect 25 0 26 0;
#X connect 26 0 22 1;
#X connect 26 0 65 1;
#X connect 27 0 4 0;
#X connect 29 0 27 0;
#X connect 30 0 31 0;
#X connect 31 0 32 0;
#X connect 32 0 29 1;
#X connect 32 0 55 1;
#X connect 33 0 21 0;
#X connect 33 1 54 0;
#X connect 34 0 49 0;
#X connect 35 0 36 0;
#X connect 35 0 71 0;
#X connect 36 0 37 0;
#X connect 37 0 38 0;
#X connect 38 0 22 0;
#X connect 39 0 34 0;
#X connect 40 0 23 0;
#X connect 41 0 42 0;
#X connect 42 0 43 0;
#X connect 43 0 44 0;
#X connect 44 0 45 0;
#X connect 45 0 46 0;
#X connect 46 0 47 0;
#X connect 47 0 48 0;
#X connect 48 0 49 1;
#X connect 49 0 35 0;
#X connect 50 0 25 0;
#X connect 51 0 52 0;
#X connect 53 0 5 0;
#X connect 54 0 55 0;
#X connect 55 0 53 0;
#X connect 56 0 61 0;
#X connect 56 0 63 0;
#X connect 56 0 78 0;
#X connect 57 0 93 0;
#X connect 61 0 60 0;
#X connect 63 0 62 0;
#X connect 64 0 30 0;
#X connect 65 0 66 0;
#X connect 66 0 54 1;
#X connect 67 0 68 0;
#X connect 68 0 69 0;
#X connect 69 0 65 0;
#X connect 70 0 72 0;
#X connect 71 0 67 0;
#X connect 72 0 73 0;
#X connect 73 0 71 1;
#X connect 74 0 75 0;
#X connect 75 0 76 0;
#X connect 78 0 77 0;
#X connect 79 0 80 0;
#X connect 80 0 81 0;
#X connect 81 0 82 0;
#X connect 82 0 83 0;
#X connect 83 0 84 0;
#X connect 84 0 85 0;
#X connect 85 0 86 0;
#X connect 86 0 87 0;
#X connect 87 0 88 0;
#X connect 88 0 89 0;
#X connect 89 0 90 0;
#X connect 90 0 91 0;
#X connect 92 0 19 1;
#X connect 92 1 19 2;
#X connect 93 0 9 0;
#X connect 93 0 33 0;
#X connect 93 1 19 0;
#X coords 0 -1 1 1 190 70 1 100 100;
