#N struct 15594-symarray float x array symbols 15594-sym;
#N struct 15594-sym symbol name float on;
#N canvas 448 85 1351 991 16;
#X text 24 72 déclenchée par noteEvent;
#X text 86 536 TO DO;
#X text 22 46 lecteur de sample oneshot;
#X obj 35 141 inst_sampler;
#A saved oneshot 0;
#A saved synchrofill 0;
#A saved root_key 46;
#A saved vol 0;
#A saved module-slot 25;
#A saved sync 0;
#A saved reverse 0;
#A saved loop 0;
#A saved sustain 0.0001;
#A saved offset 0;
#A saved f.Q 0;
#A saved f.freq 0;
#X text 15 114 avec filtre passe-bas/passe-haut intégré;
#X text 492 211 la vitesse est définie par le numéro de note joué
au clavier;
#X text 46 587 faire en sorte qu'il soit utilisable avec data_fidtouch
(à terminer);
#X text 53 553 cf inst_turntable pour les fonctions d'édition et de
modification du subset;
#X text 493 177 possibilité d'enregistrer à la volée (bouton REC)
;
#X text 491 230 La note 60 correspond à la lecture du sample à vitesse
normale, f 63;
#X text 494 255 polyphonie de 16;
#X text 29 19 ATTENTION - NOUVELLE INTERFACE - FICHIER D'AIDE OBSOLETE
;
#X text 620 310 et 'aftertouch <noteid> sustain <value>';
#X text 491 288 accepte les messages 'aftertouch <noteid> pos/offset
<value>', f 64;
#X text 620 330 et 'aftertouch <noteid> pitchbend <value>';
#X text 492 366 les valeurs pour offset (/pos) et sustain devant etre
comprise entre 0 et 1 \, pour pitchbend \, entre -24 et 24 (exprimées
en demi-tons);
#X obj 23 498 tgl 15 0 \$0-reverse \$0-reverse-rcv REVERSE 17 7 0 10
-262130 -1 -1 0 1;
#X text 30 241 MODES DE JEU;
#X text 493 447 Ces valeurs s'accumulent avec celles spécifiées par
les sliders offset et sustain;
#X text 43 323 1-shot;
#X obj 48 362 cnv 12 40 40 empty empty empty 20 12 0 14 -4032 -66577
0;
#X obj 21 309 vradio 18 1 0 5 \$0-playmode \$0-playmode-rcv empty 0
-8 0 10 -262144 -1 -1 2;
#X text 45 377 .sync;
#X text 45 359 .fill;
#X text 45 304 normal;
#X text 47 342 loop;
#X text 119 304 * sample joué 1 fois tant que noteon;
#X text 122 324 * sample joué 1 fois jusq'au bout;
#X text 123 344 * loop = jeu en boucle tant que noteon;
#X text 122 427 * .sync = jeu en boucle synchronisé + silence en attente
de synchro, f 28;
#X text 122 367 * .fill = jeu en boucle synchronisé avec reverse fill
en attente de synchro, f 28;
#X text 123 495 * jeu à l'envers;
#X coords 0 991 1 990 190 70 0;
