#N canvas 807 249 904 869 16;
#X obj 169 205 inst_scratcher;
#A saved inertia 100;
#A saved from 0.317231;
#A saved to 0.564987;
#A saved vol 100.43;
#A saved filename /home/jyg/Documents/Pd/externals/pdr/medias/sounds/soundfonts/others/GrooveDarkness.wav
;
#A saved SID 6;
#X obj 170 279 dac~;
#X msg 404 110 speed 1;
#X msg 405 143 speed 0;
#N canvas 257 500 635 541 deluxe_interface 0;
#X obj 255 88 jogzone;
#A saved -back_color 1;
#A saved -front_color 1;
#A saved -cursor_color -1;
#A saved -jump_on_click 0;
#A saved -size 319;
#A saved -mode 1;
#X obj 46 13 inlet;
#X msg 94 253 touch \$1;
#X msg 117 294 rotate \$1;
#X msg 46 129 set \$1;
#X msg 66 211 speed \$1;
#N canvas 0 50 657 604 speed 0;
#X obj 160 120 hsl 200 40 0.8 1.2 1 0 empty empty MOTOR_SPEED_=_1 0
32 0 18 -262144 -1 -1 10952 1;
#X msg 147 303 speed \$1;
#X msg 258 302 speed 0;
#X obj 383 120 tgl 40 0 empty empty empty 17 7 0 10 -262144 -1 -1 0
1;
#X obj 139 260 f;
#X obj 262 216 select 1 0;
#X obj 139 221 spigot;
#X obj 100 120 bng 40 250 50 0 empty empty x1 5 20 0 20 -262144 -1
-1;
#X msg 110 160 1;
#X obj 127 356 outlet;
#X obj 102 34 loadbang;
#X msg 157 70 label MOTOR_SPEED_=_\$1;
#X obj 16 45 * 100;
#X obj 16 74 int;
#X obj 16 103 / 100;
#X obj 526 17 inlet;
#X obj 525 71 select 0;
#X msg 518 102 set 0;
#X msg 514 134 set 1;
#X msg 516 170 set \$1;
#X connect 0 0 4 1;
#X connect 0 0 6 0;
#X connect 0 0 12 0;
#X connect 1 0 9 0;
#X connect 2 0 9 0;
#X connect 3 0 5 0;
#X connect 3 0 6 1;
#X connect 4 0 1 0;
#X connect 5 0 4 0;
#X connect 5 1 2 0;
#X connect 6 0 4 0;
#X connect 7 0 8 0;
#X connect 8 0 0 0;
#X connect 10 0 7 0;
#X connect 11 0 0 0;
#X connect 12 0 13 0;
#X connect 13 0 14 0;
#X connect 14 0 11 0;
#X connect 15 0 16 0;
#X connect 16 0 17 0;
#X connect 16 1 18 0;
#X connect 16 1 19 0;
#X connect 16 1 12 0;
#X connect 17 0 3 0;
#X connect 18 0 3 0;
#X connect 19 0 0 0;
#X coords 0 -1 1 1 323 61 2 100 100;
#X restore 258 18 pd speed;
#N canvas 0 50 450 300 feedback_gui 0;
#X obj 71 34 inlet;
#X obj 139 121 symbol;
#X obj 114 264 s;
#X obj 64 212 spigot;
#X obj 139 150 t s b;
#X msg 185 183 1;
#X obj 282 44 inlet;
#X connect 0 0 3 0;
#X connect 1 0 4 0;
#X connect 3 0 2 0;
#X connect 4 0 2 1;
#X connect 4 1 5 0;
#X connect 5 0 3 1;
#X connect 6 0 1 0;
#X restore 41 387 pd feedback_gui;
#X obj 64 40 route rotate speed feedback_gui, f 13;
#X connect 0 0 2 0;
#X connect 0 1 3 0;
#X connect 1 0 8 0;
#X connect 2 0 7 0;
#X connect 3 0 7 0;
#X connect 4 0 0 0;
#X connect 5 0 7 0;
#X connect 6 0 5 0;
#X connect 8 0 4 0;
#X connect 8 1 6 0;
#X connect 8 2 7 1;
#X restore 509 372 pd deluxe_interface;
#X text 48 84 inst_scratcher : platine à scratcher basique;
#X msg 661 109 \; pd dsp 1;
#X msg 633 208 inertia 100;
#X msg 633 235 inertia 300;
#X msg 635 181 inertia 50;
#X text 765 210 (in ms);
#X text 95 371 Interfacing : you can use this interface;
#X obj 724 408 bng 15 250 50 0 empty empty g 4 5 0 12 -4034 -1 -1;
#X text 125 405 or the internal interface \, clicking on the green
'g' button, f 61;
#N canvas 147 240 1082 867 simplified_scratcher_for_embedded_platforms
0;
#N canvas 0 50 450 300 loadsample 0;
#X obj 40 339 outlet;
#X obj 85 246 soundfiler;
#X obj 82 152 list append \$0-l \$0-r;
#X obj 73 111 openpanel;
#X obj 94 26 bng 15 250 50 0 empty empty empty 17 7 0 10 -262144 -1
-1;
#X msg 84 188 read -resize \$1 \$2 \$3;
#X obj 78 69 inlet;
#X obj 62 292 list append;
#X connect 1 0 7 0;
#X connect 1 1 7 1;
#X connect 2 0 5 0;
#X connect 3 0 2 0;
#X connect 4 0 3 0;
#X connect 5 0 1 0;
#X connect 6 0 3 0;
#X connect 7 0 0 0;
#X restore 201 492 pd loadsample;
#X msg 209 338 speed \$1;
#X obj 201 457 bng 15 250 50 0 empty empty load_file 17 7 0 10 -262144
-1 -1;
#X msg 193 275 1;
#X msg 250 274 1.2;
#X msg 116 272 0.8;
#X msg 440 421 \$1 \$2;
#N canvas 773 92 1310 982 scratcher 0;
#X obj 341 213 / 80181;
#X obj 114 494 *~;
#X obj 235 337 r \$0-vol;
#X obj 235 362 dbtorms;
#X obj 218 496 *~;
#X obj 353 295 s \$0-nb_revolutions;
#X text 433 211 nb samples/tour @ 33.33 rpm @ 44100Hz, f 27;
#X obj 60 335 r \$0-index;
#N canvas 0 57 1920 1023 scratchstuff 0;
#X obj 127 11 inlet;
#X obj 59 1003 outlet~;
#X obj 194 999 outlet~;
#X obj 64 705 rpole~ 1;
#X obj 190 132 -;
#X obj 98 351 spigot;
#X obj 252 267 select 1;
#X obj 164 108 t f f f f f;
#X obj 225 385 f;
#X msg 175 658 set \$1;
#X obj 50 934 tabread4~ \$0-l;
#X obj 183 933 tabread4~ \$0-r;
#X obj 208 234 ||;
#X obj 135 285 == 0;
#X msg 120 416 \$1;
#X obj 61 595 -~;
#X obj 61 479 rzero~ 1;
#X obj 559 27 inlet;
#X obj 209 196 < -10;
#X obj 271 194 > 10;
#X obj 59 875 *~ 1000;
#X obj 321 403 /;
#X msg 327 375 1 \$1;
#X obj 310 456 + 1;
#X obj 317 430 * 934;
#X obj 201 22 * 80181;
#X obj 61 642 lop~ 8;
#X obj 62 665 lop~ 8;
#X obj 61 618 lop~ 3;
#X text 366 427 facteur de conmpensation inversement proportionnel
à la taille du saut entre debut et fin du sample;
#X obj 265 335 bng 15 250 50 0 empty empty empty 17 7 0 10 -262144
-1 -1;
#X obj 196 53 / 1000;
#X obj 61 452 vline~;
#X msg 98 376 \$1 20;
#X obj 84 569 *~;
#X obj 84 538 *~ 1;
#X obj 102 511 expr~ ($v1<-10)+($v1>10);
#X text 376 500 very empirical;
#X obj 399 713 snapshot~;
#X obj 399 784 change;
#X obj 399 809 select 1;
#X obj 439 834 f;
#X msg 424 931 set \$1;
#X text 481 703 to resolve single precision problem of rpole~;
#X obj 181 415 t f f f;
#X obj 236 586 int;
#X obj 203 538 t f f;
#X obj 203 632 -;
#X obj 130 839 +;
#X obj 165 839 f;
#X obj 399 738 t f f f f;
#X obj 482 788 change;
#X obj 482 810 select 1;
#X obj 490 836 f;
#X obj 418 530 metro 200;
#X obj 162 877 * 1000;
#X text 222 876 onset value;
#X obj 235 561 / 200;
#X obj 236 609 * 200;
#X msg 131 800 200;
#X msg 185 807 -200;
#X obj 439 859 - 200;
#X obj 490 861 + 200;
#X obj 482 766 < -200;
#X obj 399 762 > 200;
#X obj 190 155 t f f f f;
#X obj 330 305 f;
#X text 613 29 wavtable length (samples @ 44.1kHz);
#X obj 326 351 * 1000;
#X obj 328 328 abs;
#X floatatom 435 386 5 0 0 0 - - -;
#X obj 998 49 inlet active;
#X obj 1328 58 inlet set_array;
#X obj 1328 83 unpack s s;
#X msg 1328 108 set \$1;
#X msg 1398 108 set \$1;
#X obj 83 972 hip~ 1;
#X obj 203 966 hip~ 1;
#X connect 0 0 25 0;
#X connect 3 0 38 0;
#X connect 3 0 20 0;
#X connect 4 0 65 0;
#X connect 5 0 33 0;
#X connect 6 0 8 0;
#X connect 6 0 30 0;
#X connect 6 0 66 0;
#X connect 7 0 5 0;
#X connect 7 1 4 1;
#X connect 7 2 4 0;
#X connect 7 3 8 1;
#X connect 8 0 44 0;
#X connect 9 0 3 0;
#X connect 10 0 76 0;
#X connect 11 0 77 0;
#X connect 12 0 13 0;
#X connect 12 0 6 0;
#X connect 13 0 5 1;
#X connect 14 0 32 0;
#X connect 15 0 28 0;
#X connect 16 0 15 0;
#X connect 16 0 36 0;
#X connect 16 0 35 0;
#X connect 17 0 25 1;
#X connect 18 0 12 0;
#X connect 19 0 12 1;
#X connect 20 0 10 0;
#X connect 20 0 11 0;
#X connect 21 0 24 0;
#X connect 22 0 21 0;
#X connect 23 0 35 1;
#X connect 24 0 23 0;
#X connect 25 0 31 0;
#X connect 26 0 27 0;
#X connect 27 0 3 0;
#X connect 28 0 26 0;
#X connect 31 0 7 0;
#X connect 32 0 16 0;
#X connect 33 0 32 0;
#X connect 34 0 15 1;
#X connect 35 0 34 0;
#X connect 36 0 34 1;
#X connect 38 0 50 0;
#X connect 39 0 40 0;
#X connect 40 0 41 0;
#X connect 40 0 59 0;
#X connect 41 0 61 0;
#X connect 42 0 3 0;
#X connect 44 0 14 0;
#X connect 44 1 46 0;
#X connect 45 0 58 0;
#X connect 46 0 47 0;
#X connect 46 1 57 0;
#X connect 47 0 9 0;
#X connect 48 0 49 0;
#X connect 49 0 48 1;
#X connect 49 0 55 0;
#X connect 50 0 64 0;
#X connect 50 1 41 1;
#X connect 50 2 63 0;
#X connect 51 0 52 0;
#X connect 52 0 53 0;
#X connect 52 0 60 0;
#X connect 53 0 62 0;
#X connect 54 0 38 0;
#X connect 55 0 10 1;
#X connect 55 0 11 1;
#X connect 57 0 45 0;
#X connect 58 0 47 1;
#X connect 58 0 49 0;
#X connect 59 0 48 0;
#X connect 60 0 48 0;
#X connect 61 0 42 0;
#X connect 62 0 42 0;
#X connect 63 0 51 0;
#X connect 64 0 39 0;
#X connect 65 1 18 0;
#X connect 65 2 19 0;
#X connect 65 3 66 1;
#X connect 66 0 69 0;
#X connect 68 0 22 0;
#X connect 69 0 68 0;
#X connect 70 0 24 1;
#X connect 71 0 54 0;
#X connect 72 0 73 0;
#X connect 73 0 74 0;
#X connect 73 1 75 0;
#X connect 74 0 10 0;
#X connect 75 0 11 0;
#X connect 76 0 1 0;
#X connect 77 0 2 0;
#X restore 79 415 pd scratchstuff;
#X obj 235 387 lop~ 50;
#X obj 182 305 r \$0-busy;
#X obj 343 383 list append \$0-l \$0-r;
#X obj 147 183 t f f;
#X obj 147 113 t f b;
#X obj 115 586 *~;
#X obj 219 588 *~;
#X obj 112 642 outlet~;
#X obj 229 644 outlet~;
#X obj 150 24 inlet;
#X obj 857 170 loadbang;
#X obj 1013 384 ==;
#X obj 1021 342 t f f;
#X obj 1011 431 change;
#X obj 1011 456 select 1;
#X msg 1008 484 0 5;
#X obj 1030 282 +;
#X obj 1030 307 t f f;
#X obj 1030 257 * 0.99;
#X obj 1092 307 * 0.01;
#X obj 899 566 vline~;
#X msg 889 207 0 5 \, 1 5 5;
#X msg 1058 491 1 5;
#X obj 1040 193 r \$0-index;
#X text 1126 371 simple precision mechanism for automute when speed=0
, f 19;
#X obj 792 26 bng 15 250 50 0 empty empty empty 17 7 0 10 -262144 -1
-1;
#X obj 149 78 list split 1;
#X obj 500 96 list append 44100;
#X obj 500 125 unpack f;
#X obj 500 154 / 44100;
#X obj 347 254 / 1;
#X text 223 4 wavtable length;
#X text 224 32 Input : float <nb_samples> or list <nb_samples> <samplerate>
, f 31;
#X connect 0 0 39 0;
#X connect 1 0 14 0;
#X connect 2 0 3 0;
#X connect 3 0 9 0;
#X connect 4 0 15 0;
#X connect 7 0 8 0;
#X connect 8 0 1 0;
#X connect 8 1 4 0;
#X connect 9 0 1 1;
#X connect 9 0 4 1;
#X connect 10 0 8 2;
#X connect 11 0 8 3;
#X connect 12 0 8 1;
#X connect 12 1 0 0;
#X connect 13 0 12 0;
#X connect 13 1 11 0;
#X connect 14 0 16 0;
#X connect 15 0 17 0;
#X connect 18 0 35 0;
#X connect 19 0 30 0;
#X connect 20 0 22 0;
#X connect 21 0 20 1;
#X connect 21 1 20 0;
#X connect 22 0 23 0;
#X connect 23 0 24 0;
#X connect 23 1 31 0;
#X connect 24 0 29 0;
#X connect 25 0 26 0;
#X connect 26 0 21 0;
#X connect 26 1 28 0;
#X connect 27 0 25 0;
#X connect 28 0 25 1;
#X connect 29 0 15 1;
#X connect 29 0 14 1;
#X connect 30 0 29 0;
#X connect 31 0 29 0;
#X connect 32 0 27 0;
#X connect 35 0 13 0;
#X connect 35 1 36 0;
#X connect 36 0 37 0;
#X connect 37 0 38 0;
#X connect 38 0 39 1;
#X connect 39 0 5 0;
#X restore 214 577 pd scratcher;
#X obj 213 618 dac~;
#N canvas 0 50 753 485 rec 0;
#X obj 100 46 adc~;
#X obj 125 158 tabwrite~ \$0-r;
#X obj 98 201 tabwrite~ \$0-l;
#X obj 296 36 r rec;
#X obj 296 74 select 1 0;
#X obj 296 108 timer;
#X msg 182 93 stop;
#X obj 330 173 samplerate~;
#X obj 296 137 t f b;
#X obj 330 202 / 1000;
#X obj 290 234 *;
#X obj 262 348 outlet;
#X obj 293 289 pack f f;
#X connect 0 0 2 0;
#X connect 0 1 1 0;
#X connect 3 0 4 0;
#X connect 4 0 5 0;
#X connect 4 0 1 0;
#X connect 4 0 2 0;
#X connect 4 1 5 1;
#X connect 4 1 6 0;
#X connect 5 0 8 0;
#X connect 6 0 1 0;
#X connect 6 0 2 0;
#X connect 7 0 9 0;
#X connect 7 0 12 1;
#X connect 8 0 10 0;
#X connect 8 1 7 0;
#X connect 9 0 10 1;
#X connect 10 0 12 0;
#X connect 12 0 11 0;
#X restore 250 544 pd rec;
#N canvas 873 58 1012 804 circularScratchControl 0;
#X obj 106 135 atan2;
#X obj 389 285 -;
#X obj 436 229 spigot 1;
#X obj 394 317 t f b;
#X msg 482 285 0;
#X msg 528 197 1;
#X obj 385 450 +;
#N canvas 0 50 450 300 modulo 0;
#X obj 140 91 moses 3.14159;
#X obj 118 150 moses -3.14159;
#X obj 119 38 inlet;
#X obj 143 241 outlet;
#X obj 118 179 + 6.28319;
#X obj 286 145 - 6.28319;
#X connect 0 0 1 0;
#X connect 0 1 5 0;
#X connect 1 0 4 0;
#X connect 1 1 3 0;
#X connect 2 0 0 0;
#X connect 4 0 3 0;
#X connect 5 0 3 0;
#X restore 387 488 pd modulo 2pi;
#X obj 322 361 t f;
#X obj 343 621 outlet;
#X obj 312 46 route set;
#X text 495 108 on touch;
#X obj 56 65 unpack f f;
#X obj 521 153 delay 200;
#X obj 370 541 t f f;
#X msg 371 580 rotate \$1;
#X msg 627 286 1;
#X msg 685 288 0;
#X obj 370 189 t f f f b b;
#X obj 643 340 change;
#X msg 643 369 touch \$1;
#X floatatom 257 586 5 0 0 0 - - -;
#X obj 81 100 - 0.5;
#X obj 153 100 - 0.5;
#X msg 653 416 touch 0;
#X floatatom 558 371 5 0 0 0 - - -;
#X obj 56 36 inlet scratchControl;
#X connect 0 0 18 0;
#X connect 1 0 3 0;
#X connect 2 0 1 1;
#X connect 3 0 6 0;
#X connect 3 1 4 0;
#X connect 4 0 2 1;
#X connect 5 0 2 1;
#X connect 6 0 7 0;
#X connect 7 0 14 0;
#X connect 8 0 6 1;
#X connect 10 0 8 0;
#X connect 12 0 22 0;
#X connect 12 1 23 0;
#X connect 13 0 5 0;
#X connect 13 0 17 0;
#X connect 14 0 15 0;
#X connect 14 0 21 0;
#X connect 14 1 6 1;
#X connect 15 0 9 0;
#X connect 16 0 19 0;
#X connect 17 0 19 0;
#X connect 18 0 1 1;
#X connect 18 1 1 0;
#X connect 18 2 2 0;
#X connect 18 3 13 0;
#X connect 18 4 16 0;
#X connect 19 0 20 0;
#X connect 19 0 25 0;
#X connect 20 0 9 0;
#X connect 22 0 0 0;
#X connect 23 0 0 1;
#X connect 24 0 9 0;
#X connect 26 0 12 0;
#X restore 440 468 pd circularScratchControl;
#X obj 797 407 hsl 200 50 -3.14159 3.14159 0 0 empty empty empty 50
40 0 40 -262144 -1 -4032 0 1;
#N canvas 0 50 805 742 linearScratchControl 0;
#X obj 96 41 inlet;
#X obj 108 261 outlet;
#X obj 111 99 t b f b;
#X msg 186 166 1;
#X obj 186 195 change;
#X msg 186 224 touch \$1;
#X msg 47 179 0;
#X msg 61 225 rotate \$1;
#X obj 47 150 delay 50;
#X connect 0 0 2 0;
#X connect 2 0 8 0;
#X connect 2 1 7 0;
#X connect 2 2 3 0;
#X connect 3 0 4 0;
#X connect 4 0 5 0;
#X connect 5 0 1 0;
#X connect 6 0 4 0;
#X connect 7 0 1 0;
#X connect 8 0 6 0;
#X restore 791 468 pd linearScratchControl;
#X text 794 418 -pi;
#X text 962 416 pi;
#X msg 795 377 set \$1;
#X floatatom 446 561 5 0 0 1 rotation - -;
#X obj 382 38 r \$0-index;
#X floatatom 382 67 5 0 0 0 - - -;
#X obj 163 719 table \$0-l;
#X obj 166 748 table \$0-r;
#X obj 617 169 r \$0-nb_revolutions;
#X obj 391 191 r \$0-to;
#X floatatom 391 220 5 0 0 0 - - -;
#X obj 385 127 r \$0-from;
#X floatatom 388 157 5 0 0 0 - - -;
#X floatatom 617 198 5 0 0 0 - - -;
#X text 380 101 looping points;
#X text 394 342 x \, y controller (range 0..1 for x & y axes), f 30
;
#X text 789 339 linear controller;
#X obj 618 95 s \$0-vol;
#N canvas 0 50 450 300 init 0;
#X obj 57 20 loadbang;
#X msg 47 115 1;
#X obj 46 152 s \$0-busy;
#X obj 190 134 s \$0-vol;
#X msg 187 101 100;
#X text 44 175 enable scratcher;
#X msg 319 101 1;
#X obj 319 130 s \$0-to;
#X connect 0 0 1 0;
#X connect 0 0 4 0;
#X connect 0 0 6 0;
#X connect 1 0 2 0;
#X connect 4 0 3 0;
#X connect 6 0 7 0;
#X restore 117 58 pd init;
#X text 381 8 current index;
#X msg 618 53 80;
#X msg 681 54 100;
#X text 720 94 volume;
#N canvas 587 658 1093 835 motor 0;
#N canvas 76 100 958 1018 motor_stuff 0;
#X obj 110 43 inlet;
#X obj 654 403 == 0;
#X obj 554 498 f;
#X obj 709 459 +;
#X obj 752 475 * 0.8;
#X obj 702 497 t f f;
#X obj 544 401 select 0;
#X obj 545 433 t b b;
#X obj 575 696 line;
#X obj 238 675 +;
#X obj 282 678 f;
#X obj 492 764 spigot;
#X obj 742 414 * 0.2;
#X text 769 452 moyennage vitesse;
#X text 659 687 inertie;
#N canvas 0 50 450 300 hysteresis 0;
#X obj 198 40 inlet;
#X obj 162 237 outlet;
#X msg 330 188 0;
#X obj 207 137 moses -0.001;
#X obj 234 91 moses 0.001;
#X connect 0 0 4 0;
#X connect 2 0 1 0;
#X connect 3 0 1 0;
#X connect 3 1 2 0;
#X connect 4 0 3 0;
#X connect 4 1 1 0;
#X restore 576 559 pd hysteresis;
#X text 768 502 = 50 fois par seconde;
#X obj 492 733 f, f 6;
#X obj 525 128 * 0.0111111;
#X obj 532 591 f;
#X obj 524 180 t b f;
#X obj 523 66 inlet motor_speed;
#X obj 324 912 outlet;
#X obj 111 76 s \$0-touch;
#X obj 210 510 spigot;
#X obj 287 479 r \$0-touch;
#X obj 264 51 inlet rotator;
#X obj 454 49 r \$0-set;
#X obj 210 535 t f f f;
#X obj 620 323 r \$0-touch;
#X obj 725 94 metro 20;
#X obj 725 67 r \$0-busy;
#X msg 578 665 \$1 \, \$2 \$3;
#X obj 773 629 r \$0-inertia;
#X text 561 733 increment à la posiiton actuelle;
#X text 260 756 position;
#X text 272 79 -pi \, pi;
#X obj 141 284 -;
#X obj 145 222 t f f f f;
#X obj 232 453 / 6.28;
#X obj 743 366 f;
#X obj 110 913 outlet;
#X obj 112 863 spigot;
#X obj 181 725 t f f;
#X obj 180 832 == 0;
#X obj 186 807 r \$0-touch;
#X obj 147 346 moses -1;
#X obj 238 418 moses 1;
#X obj 199 254 spigot;
#X obj 144 315 t f b;
#X msg 331 267 0;
#X msg 290 242 1;
#X obj 449 123 t f f b;
#X obj 203 375 select 0;
#X floatatom 451 825 5 0 0 0 - - -;
#X obj 577 632 pack f f 100;
#X connect 0 0 23 0;
#X connect 1 0 11 1;
#X connect 2 0 15 0;
#X connect 3 0 5 0;
#X connect 4 0 3 1;
#X connect 5 0 2 1;
#X connect 5 1 4 0;
#X connect 6 0 7 0;
#X connect 7 0 2 0;
#X connect 8 0 17 1;
#X connect 8 0 19 1;
#X connect 9 0 10 0;
#X connect 9 0 43 0;
#X connect 9 0 54 0;
#X connect 10 0 9 1;
#X connect 11 0 9 0;
#X connect 12 0 3 0;
#X connect 15 0 55 0;
#X connect 17 0 11 0;
#X connect 18 0 20 0;
#X connect 19 0 55 0;
#X connect 20 0 19 0;
#X connect 20 1 55 1;
#X connect 21 0 18 0;
#X connect 24 0 28 0;
#X connect 25 0 24 1;
#X connect 26 0 38 0;
#X connect 27 0 52 0;
#X connect 28 1 9 0;
#X connect 28 2 40 1;
#X connect 29 0 6 0;
#X connect 29 0 1 0;
#X connect 30 0 17 0;
#X connect 30 0 40 0;
#X connect 31 0 30 0;
#X connect 32 0 8 0;
#X connect 33 0 55 2;
#X connect 37 0 49 0;
#X connect 38 0 37 1;
#X connect 38 1 37 0;
#X connect 38 2 48 0;
#X connect 39 0 24 0;
#X connect 40 0 12 0;
#X connect 42 0 41 0;
#X connect 43 0 42 0;
#X connect 43 1 22 0;
#X connect 44 0 42 1;
#X connect 45 0 44 0;
#X connect 46 1 53 0;
#X connect 47 0 39 0;
#X connect 48 0 37 1;
#X connect 49 0 46 0;
#X connect 49 1 50 0;
#X connect 50 0 48 1;
#X connect 51 0 48 1;
#X connect 52 0 10 0;
#X connect 52 1 41 0;
#X connect 52 2 51 0;
#X connect 53 1 47 0;
#X connect 55 0 32 0;
#X restore 568 138 pd motor_stuff;
#X obj 778 374 moses 0;
#X obj 834 422 moses 1;
#X obj 812 274 r \$0-nb_revolutions;
#X obj 779 349 * 1;
#X obj 812 324 /;
#X msg 812 299 1 \$1;
#X obj 886 308 r \$0-from;
#X obj 905 368 r \$0-to;
#X obj 775 401 t b;
#X obj 901 454 t b;
#X obj 905 482 f;
#X obj 879 592 * 1;
#X obj 881 624 s \$0-set;
#X obj 906 565 r \$0-nb_revolutions;
#X obj 196 140 r \$0-index;
#X obj 147 241 f;
#X obj 292 239 f;
#X obj 147 181 r \$0-in;
#X obj 286 177 r \$0-out;
#X obj 147 263 s \$0-from;
#X obj 284 271 s \$0-to;
#X obj 666 483 r \$0-seek;
#X obj 863 126 s \$0-seek;
#X obj 653 84 s \$0-in;
#X obj 717 84 s \$0-out;
#X text 896 19 set_ext_array <size> <array-l> <array-r>;
#X obj 775 544 t f f b;
#X obj 866 93 pipe 10;
#X obj 416 13 inlet;
#X obj 474 46 route touch rotate speed in out seek set_ext_array;
#X obj 782 451 f 1;
#X msg 385 181 1;
#X msg 90 181 0;
#X msg 281 48 speed \$1;
#X msg 231 13 1;
#X msg 292 14 -1;
#N canvas 0 50 450 300 convert->(-pi..pi) 0;
#X obj 143 11 inlet;
#X obj 304 43 + 0.5;
#X obj 304 72 t f f;
#X obj 304 101 int;
#X obj 304 130 -;
#X obj 303 227 * 6.28319;
#X obj 301 158 * -1;
#X obj 302 192 - 0.5;
#X obj 303 256 outlet;
#X connect 0 0 1 0;
#X connect 1 0 2 0;
#X connect 2 0 3 0;
#X connect 2 1 4 1;
#X connect 3 0 4 0;
#X connect 4 0 6 0;
#X connect 5 0 8 0;
#X connect 6 0 7 0;
#X connect 7 0 5 0;
#X restore 486 191 pd convert->(-pi..pi);
#X obj 486 220 outlet;
#X obj 774 736 s \$0-index;
#X obj 783 692 change;
#X connect 0 0 37 0;
#X connect 0 1 4 0;
#X connect 1 0 9 0;
#X connect 1 1 2 0;
#X connect 2 0 40 0;
#X connect 2 1 10 0;
#X connect 3 0 6 0;
#X connect 4 0 1 0;
#X connect 5 0 4 1;
#X connect 6 0 5 0;
#X connect 7 0 1 1;
#X connect 7 0 11 1;
#X connect 8 0 2 1;
#X connect 8 0 31 1;
#X connect 9 0 31 0;
#X connect 10 0 11 0;
#X connect 11 0 27 0;
#X connect 12 0 13 0;
#X connect 14 0 12 1;
#X connect 15 0 16 1;
#X connect 15 0 17 1;
#X connect 16 0 20 0;
#X connect 17 0 21 0;
#X connect 18 0 16 0;
#X connect 19 0 17 0;
#X connect 22 0 27 0;
#X connect 27 0 40 0;
#X connect 27 1 12 0;
#X connect 28 0 23 0;
#X connect 29 0 30 0;
#X connect 30 0 0 0;
#X connect 30 1 0 1;
#X connect 30 2 0 2;
#X connect 30 3 24 0;
#X connect 30 4 25 0;
#X connect 30 5 28 0;
#X connect 31 0 27 0;
#X connect 32 0 17 0;
#X connect 33 0 16 0;
#X connect 34 0 30 0;
#X connect 35 0 34 0;
#X connect 36 0 34 0;
#X connect 37 0 38 0;
#X connect 40 0 39 0;
#X restore 449 518 pd motor;
#X connect 0 0 7 0;
#X connect 1 0 36 0;
#X connect 2 0 0 0;
#X connect 3 0 1 0;
#X connect 4 0 1 0;
#X connect 5 0 1 0;
#X connect 6 0 10 0;
#X connect 7 0 8 0;
#X connect 7 1 8 1;
#X connect 9 0 7 0;
#X connect 10 0 36 0;
#X connect 11 0 12 0;
#X connect 12 0 36 0;
#X connect 15 0 11 0;
#X connect 17 0 18 0;
#X connect 21 0 26 0;
#X connect 22 0 23 0;
#X connect 24 0 25 0;
#X connect 33 0 30 0;
#X connect 34 0 30 0;
#X connect 36 0 15 0;
#X connect 36 0 16 0;
#X restore 395 527 pd simplified_scratcher_for_embedded_platforms;
#X connect 0 0 1 0;
#X connect 0 1 1 1;
#X connect 0 2 4 0;
#X connect 2 0 0 2;
#X connect 3 0 0 2;
#X connect 7 0 0 2;
#X connect 8 0 0 2;
#X connect 9 0 0 2;
#X coords 0 869 1 868 190 70 0;
