#N canvas 156 56 678 620 10;
#X declare -path ../../core;
#X declare -path ../../core/stuff;
#X declare -path ../../core/rj;
#N canvas 172 83 586 377 LICENSE-GPL 0;
#X text 57 88 This program is free software: you can redistribute it
and/or modify it under the terms of the GNU General Public License
as published by the Free Software Foundation \, either version 3 of
the License \, or (at your option) any later version.;
#X text 58 168 This program is distributed in the hope that it will
be useful \, but WITHOUT ANY WARRANTY \; without even the implied warranty
of MERCHANTABILITY or FITNESS FOR A PARTICULAR PURPOSE. See the GNU
General Public License for more details.;
#X text 57 261 You should have received a copy of the GNU General Public
License along with this program. If not \, see <http://www.gnu.org/licenses/>.
;
#X text 61 54 Copyright (C) 2009 \, Reality Jockey Ltd.;
#X text 60 325 See the file LICENSE.txt for the full license text.
;
#X restore 298 15 pd LICENSE-GPL;
#X obj 101 101 cnv 15 188 68 \$0-background \$0-background-rcv note_2param-0 0 7
0 14 -262144 -1 0;
#X obj 208 228 route note;
#X obj 29 260 inlet~;
#X obj 30 286 outlet~;
#X obj 99 260 inlet~;
#X obj 100 286 outlet~;
#X obj 208 206 inlet data;
#X obj 202 459 outlet data;
#X obj 457 241 module_loader note_2param \$0 \$1;
#X symbolatom 218 108 10 0 0 0 target #0-target-rcv #0-target;
#X symbolatom 217 129 10 0 0 0 param_name #0-param_name-rcv #0-param_name
;
#X msg 178 392 note \$1 \$2;
#X floatatom 136 152 5 0 0 0 min #0-min-rcv #0-min;
#X floatatom 205 152 5 0 0 0 max #0-max-rcv #0-max;
#X obj 457 263 u_parameter \$0 target;
#X obj 457 347 u_parameter \$0 min;
#X obj 457 369 u_parameter \$0 max;
#X obj 259 274 spigot;
#X obj 264 255 unpack f f;
#X obj 457 285 u_parameter \$0 param_name;
#X obj 257 349 / 127;
#X obj 257 371 *;
#X obj 302 370 -;
#X obj 327 334 r \$0-max;
#X obj 363 352 r \$0-min;
#X obj 523 114 mtof;
#X obj 517 174 - 8;
#X obj 517 196 / 12543.9;
#X obj 255 153 ui_tgl \$0 log 2 1 -1;
#X obj 457 307 u_dispatch \$0 log;
#X obj 255 330 route 0 1;
#X obj 358 268 r \$0-log;
#X obj 259 296 list prepend 0;
#X obj 282 403 +;
#X obj 341 439 list prepend <param_name>;
#X obj 524 418 r \$0-param_name;
#X obj 341 469 list prepend <target>;
#X obj 524 448 r \$0-target;
#X obj 341 513 list trim;
#X obj 360 492 list prepend target;
#X obj 379 383 t b f;
#X obj 771 99 namecanvas \$0-this;
#X obj 769 76 triggered_loadbang \$0-this;
#X text 764 26 manually trigger loadbang if the instance of abstraction
is created dynamically, f 29;
#X obj 601 203 savestate;
#X obj 464 8 declare -path ../../core;
#X obj 464 28 declare -path ../../core/stuff;
#X obj 464 48 declare -path ../../core/rj;
#X connect 2 0 12 0;
#X connect 2 0 19 0;
#X connect 2 1 8 0;
#X connect 3 0 4 0;
#X connect 5 0 6 0;
#X connect 7 0 2 0;
#X connect 7 0 9 0;
#X connect 9 0 15 0;
#X connect 9 1 45 0;
#X connect 12 0 8 0;
#X connect 15 0 20 0;
#X connect 16 0 17 0;
#X connect 17 0 8 0;
#X connect 18 0 33 0;
#X connect 19 0 18 0;
#X connect 19 1 18 1;
#X connect 20 0 30 0;
#X connect 21 0 22 0;
#X connect 22 0 34 0;
#X connect 23 0 22 1;
#X connect 24 0 23 0;
#X connect 25 0 34 1;
#X connect 25 0 41 0;
#X connect 26 0 27 0;
#X connect 27 0 28 0;
#X connect 28 0 22 0;
#X connect 30 0 16 0;
#X connect 31 0 21 0;
#X connect 31 1 26 0;
#X connect 32 0 33 1;
#X connect 33 0 31 0;
#X connect 34 0 35 0;
#X connect 35 0 37 0;
#X connect 36 0 35 1;
#X connect 37 0 40 0;
#X connect 38 0 37 1;
#X connect 39 0 8 0;
#X connect 40 0 39 0;
#X connect 41 0 23 0;
#X connect 41 1 23 1;
#X connect 45 0 9 1;
#X connect 45 1 9 2;
#X coords 0 -1 1 1 190 70 1 100 100;
