#N struct mappings float y symbol module_name symbol param_name float
ccnum float min float max symbol mapping;
#N canvas 381 286 845 615 16;
#X declare -path pdr/modules/basic;
#X obj 26 345 midi_notein;
#A saved midi_chan 1;
#A saved factor 127;
#A saved power 0.655129;
#A saved SID 0;
#X obj 25 434 inst_rhodey;
#A saved vol 80.1102;
#A saved tone 0.708661;
#A saved decay 2102.66;
#A saved SID 0;
#X obj 25 509 dac~;
#X obj 35 140 cnv 15 240 100 empty empty empty 20 12 0 14 -262130 -66577
0;
#X obj 1 0 cnv 15 800 50 empty empty PdRacks.midimap 20 14 0 20 -232576
-66577 0;
#N canvas 0 50 450 300 \$0-PdRacks.declare 0;
#X obj 10 10 declare -path pdr/modules/basic;
#X obj 10 60 pdr/core/stuff/u_glocal.enable \$0;
#X restore 588 88 pd \$0-PdRacks.declare;
#X text 56 57 [PdRacks.midilearn] lets you map hardware midi controls
to parameters of your modules.;
#X obj 677 138 vsl 15 128 0 127 0 0 empty empty empty 0 -9 0 10 -262144
-1 -1 9400 1;
#X obj 676 298 s CTLIN;
#X msg 677 274 \$1 0;
#X obj 54 155 PdRacks.midimap;
#A saved preset_saving 0;
#A saved note2cc_chan_in 0;
#A saved note2cc_chan_out 0;
#A saved note2cc_enable 0;
#X text 257 151 <-- OR click here. (needs mediasettings externals)
, f 31;
#X text 699 153 simulating midi-ctl event, f 10;
#N canvas 883 521 423 177 mapping_midi-note_events 0;
#X text 49 24 To enable midi-note key-mapping \, check the box "NOTEIN
AS CTL" and specify the midi channel - ChIn - (or 0 for all), f 27
;
#X restore 322 499 pd mapping_midi-note_events;
#N canvas 820 410 662 296 editing/removing_midi-mapping 0;
#X obj 473 75 bng 30 250 50 0 \$0-mappings empty Edit_Mappings... -80
20 0 10 -261682 -1 -1;
#X text 22 63 You can edit mapping values by clicking on [Edit_Mappings]
, f 34;
#X text 23 141 To remove a physical assignment \, click midi-learn
and click immediately (dont touch any physical knob) to the gui-widget
you want to de-assignate \, or click Edit_Mappings and click on one
red X of the mapping-list to cancel it.;
#X restore 324 461 pd editing/removing_midi-mapping;
#X text 25 117 * Select a midi-in device with pure data menus.;
#X text 23 242 * click on midi-learn toogle. Move your hardware midi
controler knob. You will see his cc-channel displayed.;
#X text 24 288 * You can then click on any orange button/slider to
assign it to your physical knob;
#X text 247 357 * Save your patch to save midi-mapping.;
#X text 296 461 *;
#X text 296 501 *;
#X text 281 431 MORE;
#X text 296 541 *;
#N canvas 1097 673 554 161 storing_multiple_mappings_presets 0;
#X text 34 40 If you want to store different mappings \, you can store
them in PdRacks.savestate modules. Just check-in the Save_in_presets
box, f 44;
#X obj 416 87 tgl 15 0 \$0-enable_preset_saving \$0-enable_preset_saving-rcv
Save_in_presets 17 7 0 10 -262144 -1 -1 0 1;
#X restore 321 537 pd storing_multiple_mappings_presets;
#X connect 0 2 1 2;
#X connect 1 0 2 0;
#X connect 1 1 2 1;
#X connect 7 0 9 0;
#X connect 9 0 8 0;
