#N canvas 0 57 1920 1023 16;
#X declare -path ../../core;
#X declare -path ../../core/stuff;
#X declare -path ../../core/rj;
#X obj 250 100 bng 40 1000 50 0 empty empty RECALL 0 20 0 12 -4034
-1 -1;
#X msg 43 612 -1;
#X msg 352 635 1e+06;
#X obj 116 617 t l b;
#X obj 100 100 bng 40 250 50 0 empty empty SAVE 3 13 0 12 -258113 -1
-1;
#X obj 425 550 iemguts/sendcanvas 1;
#X msg 469 398 dirty 1;
#X obj 344 452 delay 1000;
#X msg 389 502 menusave;
#X obj 730 677 loadbang;
#X msg 730 707 1;
#X obj 727 737 v PdRacks;
#X obj 935 434 r ping-r;
#X obj 935 468 s ping-s;
#X obj 766 498 loadbang;
#X obj 770 538 f \$0;
#X obj 733 571 v PdRacks.DollarZero;
#X obj 24 463 glocal/glocal.send RJ_SCENE_SAVE;
#X msg 52 406 save;
#X obj 116 540 glocal/glocal.receive RJ_SCENE;
#X text 776 605 ????????????;
#X obj 696 192 savestate;
#X msg 765 116 line 0 \, bang;
#X obj 763 149 text sequence \$0-scene_preset;
#X obj 817 405 text insert \$0-scene_preset;
#X msg 868 372 1e+09;
#X obj 626 888 text define \$0-scene_preset;
#X obj 88 668 text delete \$0-scene_preset;
#X obj 125 746 text set \$0-scene_preset;
#X obj 823 341 t l b b;
#X msg 681 402 0;
#X obj 620 834 onlyone AUDIO_BUS PdRacks.audio_bus;
#X msg 326 384 1;
#X obj 120 581 spigot;
#X msg 344 485 0;
#X text 844 714 ????????????????????????;
#X obj 253 69 delay 500;
#X obj 840 51 symbol;
#X obj 896 15 r \$0-scene_name;
#X msg 838 81 list scene_name \$1;
#X obj 650 252 list trim;
#X obj 830 313 list;
#X obj 642 305 symbol;
#X obj 503 333 s \$0-scene_name-rcv;
#X obj 140 101 cnv 14 108 40 empty \$0-label PdRacks.savestate.0 2
8 0 9 -262144 -1 0;
#X obj 1277 348 s \$0-label;
#X msg 1277 327 label PdRacks.savestate.\$1;
#X obj 1278 298 r \$0-ID;
#N canvas 0 57 1920 1023 load_scene 0;
#X msg 207 547 bang;
#X text 254 232 output all lines starting from current one to next
waiting point, f 34;
#X obj 307 0 loadbang;
#X obj 195 658 list trim;
#X obj 380 89 s pd;
#X msg 359 42 dsp 1;
#X obj 37 30 inlet;
#X msg 275 139 clear;
#X obj 223 116 delay 10;
#X obj 292 431 t b b;
#X msg 263 593 line 0;
#X obj 293 512 select 0;
#X obj 195 627 text sequence \$0-scene_preset;
#X obj 293 478 text size \$0-scene_preset;
#X obj 195 691 glocal/glocal.send RJ_SCENE_LOAD;
#X obj 332 367 spigot 0;
#X obj 725 64 inlet;
#X obj 604 310 spigot 1;
#X msg 556 490 bang;
#X msg 612 538 line 0;
#X obj 642 455 select 0;
#X obj 411 317 == 0;
#X obj 642 423 text size scene_preset;
#X obj 545 571 text sequence scene_preset;
#X msg 738 341 0;
#X text 797 64 init from global extern scene_preset;
#X obj 641 375 t b b b b;
#X obj 837 583 print PdRacks.savestate;
#X msg 720 503 [scene_preset] found !;
#X msg 830 533 blank state. Searching for [scene_preset] struct ...
;
#X obj 322 192 glocal/glocal.send PdRacks.define.midi-mapping;
#X obj 439 145 glocal/glocal.send ctl-assign3.GLOBAL;
#X text 93 836 cf module_declare;
#X obj 223 85 t b b b;
#X obj 1152 190 glocal/glocal.send RJ_SCENE_PRELOAD;
#X obj 133 171 t b b b b;
#X obj 81 814 glocal/glocal.send RJ_SCENE_POSTLOAD;
#X obj 39 863 glocal/glocal.send REFRESH_CONNEXIONS;
#X connect 0 0 12 0;
#X connect 2 0 5 0;
#X connect 3 0 14 0;
#X connect 5 0 4 0;
#X connect 6 0 33 0;
#X connect 7 0 30 0;
#X connect 7 0 31 0;
#X connect 8 0 35 0;
#X connect 9 0 0 0;
#X connect 9 1 13 0;
#X connect 10 0 12 0;
#X connect 11 1 10 0;
#X connect 12 0 3 0;
#X connect 13 0 11 0;
#X connect 15 0 9 0;
#X connect 16 0 21 0;
#X connect 16 0 17 1;
#X connect 17 0 26 0;
#X connect 18 0 23 0;
#X connect 19 0 23 0;
#X connect 20 1 19 0;
#X connect 20 1 28 0;
#X connect 21 0 15 1;
#X connect 22 0 20 0;
#X connect 23 0 3 0;
#X connect 24 0 17 1;
#X connect 24 0 21 0;
#X connect 26 0 18 0;
#X connect 26 1 22 0;
#X connect 26 2 24 0;
#X connect 26 3 29 0;
#X connect 28 0 27 0;
#X connect 29 0 27 0;
#X connect 33 0 8 0;
#X connect 33 1 7 0;
#X connect 33 2 34 0;
#X connect 35 0 37 0;
#X connect 35 1 36 0;
#X connect 35 2 15 0;
#X connect 35 3 17 0;
#X restore 298 186 pd load_scene;
#X obj 42 238 glocal/glocal.receive RJ_SCENE_PRELOAD;
#X obj 49 304 s \$0-label;
#X msg 43 270 color 0 0 -1;
#X symbolatom 140 117 11 0 0 0 - #0-scene_name-rcv #0-scene_name;
#X obj 1451 259 namecanvas \$0-this;
#X obj 1449 236 triggered_loadbang \$0-this;
#X text 1444 146 manually trigger loadbang if the instance of abstraction
is created dynamically, f 29;
#X obj 1510 459 inlet;
#X obj 1273 945 outlet;
#X obj 696 221 t a b;
#X text 1499 414 for 0.48 retrocompatibility;
#X obj 1357 695 loadbang;
#X obj 1363 762 spigot 1;
#X msg 864 254 0;
#X obj 224 331 t b b b b b b b b;
#X obj 1209 620 list prepend add2;
#X obj 1209 649 list trim;
#X obj 1209 678 t a b;
#X msg 1493 732 addcomma;
#X obj 51 13 inlet;
#X obj 35 872 outlet;
#X text 41 829 dummy;
#X obj 1078 157 module_loader PdRacks.savestate \$0;
#X obj 1209 802 r \$0-scene_name;
#X obj 1068 836 symbol <no_name>;
#X msg 1066 866 set scene_name \$1;
#X msg 538 173 1;
#X obj 250 145 t b b b;
#X msg 460 180 0;
#X obj 1079 186 route recall;
#N canvas 115 314 855 704 call_next_scene 0;
#X obj 307 46 inlet;
#X obj 111 92 spigot;
#X obj 112 54 keyname;
#X obj 113 267 select Space Down Up;
#X obj 113 183 pack f s;
#X obj 113 209 route 1;
#X obj 113 236 symbol;
#X obj 290 344 r \$0-ID;
#X obj 290 371 + 1;
#X obj 105 481 send;
#X msg 289 401 symbol PdRacks.savestate-\$1;
#X msg 97 305 remote recall;
#X obj 488 459 r \$0-ID;
#X obj 303 596 send;
#X msg 487 516 symbol PdRacks.savestate-\$1;
#X obj 488 486 - 1;
#X msg 133 369 remote recall;
#X obj 111 138 spigot;
#X obj 484 80 r;
#X obj 360 110 select 1;
#X obj 464 137 r \$0-ID;
#X obj 426 185 f;
#X obj 428 226 s PdRacks.savestate.current;
#X obj 536 351 s PdRacks.savestate.label;
#X obj 481 263 r \$0-scene_name;
#X obj 433 304 list append;
#X connect 0 0 1 1;
#X connect 0 0 19 0;
#X connect 1 0 17 0;
#X connect 2 0 1 0;
#X connect 2 1 4 1;
#X connect 3 0 11 0;
#X connect 3 1 11 0;
#X connect 3 2 16 0;
#X connect 4 0 5 0;
#X connect 5 0 6 0;
#X connect 6 0 3 0;
#X connect 7 0 8 0;
#X connect 8 0 10 0;
#X connect 10 0 9 1;
#X connect 11 0 9 0;
#X connect 12 0 15 0;
#X connect 14 0 13 1;
#X connect 15 0 14 0;
#X connect 16 0 13 0;
#X connect 17 0 4 0;
#X connect 19 0 21 0;
#X connect 19 0 25 0;
#X connect 20 0 21 1;
#X connect 21 0 22 0;
#X connect 24 0 25 1;
#X connect 25 0 23 0;
#X restore 494 209 pd call_next_scene;
#X obj 1079 215 t b;
#X msg 195 285 color 16 6 -1;
#X obj 606 62 f;
#X msg 607 93 list SID \$1;
#X obj 642 276 route scene_name SID;
#X obj 728 347 s \$0-ID;
#X obj 636 28 r \$0-ID;
#X obj 766 11 t b b b;
#X obj 1024 255 r RJ_SCENE_LOAD;
#X obj 1024 284 list trim;
#X msg 1209 398 symbol PdRacks.savestate-\$1;
#X obj 1138 476 route PdRacks.savestate;
#X obj 1124 8 declare -path ../../core;
#X obj 1124 28 declare -path ../../core/stuff;
#X obj 1124 48 declare -path ../../core/rj;
#X connect 0 0 76 0;
#X connect 1 0 27 0;
#X connect 2 0 28 1;
#X connect 3 0 28 0;
#X connect 3 0 64 0;
#X connect 3 1 2 0;
#X connect 4 0 63 0;
#X connect 6 0 5 0;
#X connect 7 0 8 0;
#X connect 7 0 34 0;
#X connect 8 0 5 0;
#X connect 9 0 10 0;
#X connect 10 0 11 0;
#X connect 12 0 13 0;
#X connect 14 0 15 0;
#X connect 15 0 16 0;
#X connect 18 0 17 0;
#X connect 19 0 33 0;
#X connect 21 0 58 0;
#X connect 21 1 87 0;
#X connect 22 0 23 0;
#X connect 23 0 21 0;
#X connect 25 0 24 1;
#X connect 29 0 24 0;
#X connect 29 1 25 0;
#X connect 29 2 30 0;
#X connect 30 0 48 1;
#X connect 32 0 33 1;
#X connect 33 0 3 0;
#X connect 34 0 33 1;
#X connect 36 0 0 0;
#X connect 37 0 39 0;
#X connect 38 0 37 1;
#X connect 39 0 21 0;
#X connect 40 0 84 0;
#X connect 41 0 29 0;
#X connect 42 0 43 0;
#X connect 46 0 45 0;
#X connect 47 0 46 0;
#X connect 47 0 90 0;
#X connect 49 0 51 0;
#X connect 49 0 77 0;
#X connect 51 0 50 0;
#X connect 56 0 40 0;
#X connect 58 0 40 0;
#X connect 58 1 62 0;
#X connect 60 0 61 0;
#X connect 61 0 57 0;
#X connect 62 0 61 1;
#X connect 63 0 7 0;
#X connect 63 3 18 0;
#X connect 63 4 32 0;
#X connect 63 5 1 0;
#X connect 63 6 6 0;
#X connect 63 7 73 0;
#X connect 64 0 65 0;
#X connect 65 0 66 0;
#X connect 66 0 57 0;
#X connect 66 1 67 0;
#X connect 67 0 57 0;
#X connect 68 0 36 0;
#X connect 71 0 78 0;
#X connect 72 0 73 1;
#X connect 73 0 74 0;
#X connect 74 0 57 0;
#X connect 75 0 79 0;
#X connect 76 0 81 0;
#X connect 76 1 48 0;
#X connect 76 2 75 0;
#X connect 77 0 79 0;
#X connect 78 0 80 0;
#X connect 80 0 0 0;
#X connect 81 0 50 0;
#X connect 82 0 83 0;
#X connect 83 0 21 0;
#X connect 84 0 42 0;
#X connect 84 1 85 0;
#X connect 84 2 41 0;
#X connect 86 0 82 1;
#X connect 87 0 82 0;
#X connect 87 1 22 0;
#X connect 87 2 37 0;
#X connect 88 0 89 0;
#X connect 89 0 91 0;
#X connect 90 0 91 1;
#X connect 91 0 41 0;
#X coords 0 -1 1 1 190 40 2 100 100;
