#N struct text-help-struct float x float y text z;
#N canvas 0 57 1920 1023 10;
#X declare -stdpath extra/zexy/;
#X declare -stdpath extra/hcs/;
#X declare -lib iemlib/iemlib1;
#X declare -lib iemlib/iemlib2;
#X declare -lib zexy;
#X declare -lib iemlib;
#X declare -path iemlib;
#X declare -path iemguts;
#X declare -path ../ressources/modules/;
#X declare -path ../ressources/core/;
#X declare -path ../ressources/rj/;
#X declare -path ../ressources/core/fid_abs_vanilia-0.4/;
#X declare -path pdr/core;
#X declare -path pdr/core/stuff;
#X declare -path pdr/core/rj;
#X declare -path ../../core;
#X declare -path ../../core/stuff;
#X declare -path ../../core/rj;
#X obj 1 70 cnv 1 808 730 empty grid empty 20 12 0 14 -228856 -66577
0;
#X obj 146 3 cnv 15 580 40 empty \$0-display-rcv (1:3) 2 20 0 35 -261682
-66577 0;
#X obj 733 36 tgl 30 1 \$0-insert_mode empty INSERT_MODE 0 7 0 10 -262130
-1 -1 1 1;
#X obj 63 3 bng 40 250 50 0 \$0-prev empty << 5 20 0 25 -262144 -1
-1;
#X obj 103 3 bng 40 250 50 0 \$0-next empty >> 5 20 0 25 -262144 -1
-1;
#X obj 66 43 hsl 75 25 0 127 0 0 \$0-get_preset \$0-get_preset-rcv
p.0 20 10 0 20 -204786 -204786 -1 0 1;
#N canvas 656 269 1134 946 setFocus/help 0;
#X obj 252 59 unpack f f;
#X obj 255 89 / 200;
#X obj 325 88 / 80;
#X obj 248 8 receivecanvas 1;
#X obj 255 144 int;
#X obj 325 143 int;
#X obj 255 169 * 10;
#X obj 255 194 +;
#X obj 411 78 route 2;
#X obj 423 105 unpack f f;
#X obj 425 130 / 200;
#X obj 494 127 / 80;
#X obj 418 185 int;
#X obj 488 184 int;
#X obj 455 216 * 10;
#X obj 455 241 +;
#X obj 462 288 select 0;
#X obj 179 184 t b;
#X obj 92 242 f;
#X obj 90 213 t b;
#X obj 83 476 pack s f;
#X obj 49 407 route cancel;
#X obj 97 446 symbol;
#X msg 53 569 \$2 \$1;
#X obj 252 273 s \$0-current_slot;
#X obj 123 101 r \$0-current_slot;
#X obj 202 411 r \$0-current_slot;
#X text 430 34 menu contextuel help;
#N canvas 1 56 450 300 messages'hasfocus' 0;
#X obj 24 150 t f f b;
#X obj 48 220 f;
#X obj 36 269 t b f;
#X obj 56 125 change;
#X msg 72 308 symbol \$1-hasFocus;
#X msg 36 294 0;
#X obj 37 334 send;
#X obj 246 169 t b f;
#X msg 282 208 symbol \$1-hasFocus;
#X obj 247 234 send;
#X msg 246 194 1;
#X obj 29 67 r \$0-current_slot;
#X obj 48 95 glocal/glocal.tabread SLOTS_MAP;
#X connect 0 0 1 1;
#X connect 0 1 7 0;
#X connect 0 2 1 0;
#X connect 1 0 2 0;
#X connect 2 0 5 0;
#X connect 2 1 4 0;
#X connect 3 0 0 0;
#X connect 4 0 6 1;
#X connect 5 0 6 0;
#X connect 7 0 10 0;
#X connect 7 1 8 0;
#X connect 8 0 9 1;
#X connect 10 0 9 0;
#X connect 11 0 12 0;
#X connect 12 0 3 0;
#X restore 837 266 pd messages'hasfocus';
#X obj 182 518 s \$0-current_slot;
#X obj 182 487 +;
#X obj 86 522 t l b b;
#X msg 180 457 1;
#X obj 368 374 r \$0-current_slot;
#X obj 374 444 t f f;
#X obj 378 509 pack f f;
#X msg 376 541 label (\$1:\$2);
#X obj 378 484 div 10;
#X obj 497 479 mod 10;
#X obj 593 405 * 200;
#X obj 675 403 * 80;
#X obj 586 516 pack f f;
#X obj 556 571 s \$0-focus_canvas;
#X msg 586 541 pos \$1 \$2;
#X obj 592 433 - 5;
#X obj 674 432 - 5;
#N canvas 506 128 520 425 arrow_keys 0;
#X obj 186 55 inlet;
#X obj 154 116 select Up Down Left Right;
#X obj 392 119 r \$0-current_slot;
#X obj 331 204 +;
#X obj 160 250 moses 1;
#X obj 155 331 s \$0-current_slot;
#X msg 210 161 1;
#X msg 330 162 10;
#X msg 153 159 -1;
#X msg 256 157 -10;
#X obj 117 143 bng 15 250 50 0 empty empty empty 17 7 0 10 -262144
-1 -1;
#X obj 216 291 select 10 20 30;
#X obj 160 225 moses 40;
#X obj 275 65 select 63232 63235 63233 63234;
#X text 358 44 mac;
#X text 187 98 windows;
#X connect 0 0 1 0;
#X connect 0 0 10 0;
#X connect 0 0 13 0;
#X connect 1 0 8 0;
#X connect 1 1 6 0;
#X connect 1 2 9 0;
#X connect 1 3 7 0;
#X connect 2 0 3 1;
#X connect 3 0 12 0;
#X connect 4 1 11 0;
#X connect 6 0 3 0;
#X connect 7 0 3 0;
#X connect 8 0 3 0;
#X connect 9 0 3 0;
#X connect 11 3 5 0;
#X connect 12 0 4 0;
#X connect 13 0 8 0;
#X connect 13 1 7 0;
#X connect 13 2 6 0;
#X connect 13 3 9 0;
#X restore 193 324 pd arrow_keys;
#X obj 25 78 route 1;
#X obj 28 102 list split 1;
#X obj 25 133 select 127;
#X obj 16 164 select Insert F1;
#X obj 310 220 moses 1;
#X obj 272 244 select 10 20 30;
#X obj 310 195 moses 40;
#X obj 383 400 moses 40;
#X obj 13 26 r \$0-INS;
#X obj 100 32 r \$0-DEL;
#X obj 420 56 route done-popup zoom;
#X obj 494 77 s ZOOM;
#X obj 425 155 / 1;
#X obj 494 152 / 1;
#X text 452 169 receivecanvas bugfix;
#X obj 255 114 / 1;
#X obj 325 113 / 1;
#X obj 500 104 r ZOOM;
#X obj 300 75 r ZOOM;
#X floatatom 300 100 5 0 0 0 - - -;
#X floatatom 394 260 5 0 0 0 - - -;
#X obj 596 606 pack f f;
#X msg 596 631 pos \$1 \$2;
#X obj 786 616 pack f f;
#X msg 786 641 pos \$1 \$2;
#X obj 566 661 s \$0-focus_canvas-3;
#X obj 756 671 s \$0-focus_canvas-2;
#X obj 763 509 + 77;
#X obj 607 469 + 197;
#X obj 381 10 receivecanvas 2;
#X msg 531 302 \; \$1-channel help;
#X obj 49 382 r \$0-ADD;
#X msg 42 295 vis 1;
#X obj 42 318 s pd-\$0-ADD/INSERT;
#X obj 54 596 s \$0-insert;
#X obj 169 597 s pd-\$0-ADD/INSERT;
#X msg 168 571 vis 0;
#X obj 378 577 s \$0-display-rcv;
#X obj 570 196 r \$0-help;
#X obj 462 266 glocal/glocal.tabread SLOTS_MAP;
#X obj 639 198 r \$0-current_slot;
#X obj 570 219 f;
#X obj 179 207 s \$0-help;
#X obj 249 28 route key mouse;
#X text 101 0 boutons;
#X obj 68 9 bng 30 250 50 0 \$0-INS empty INS 5 14 0 12 -257985 -1
-1;
#X obj 152 17 bng 30 250 50 0 \$0-DEL empty DEL 5 14 0 12 -1 -262144
-258113;
#X text 88 70 gestion des touches;
#X text 44 362 Retour Catalogue Objets;
#X text 838 240 CHECK THIS;
#X text 600 373 surround jaune;
#X obj 83 269 s \$0-remove;
#X connect 0 0 1 0;
#X connect 0 1 2 0;
#X connect 1 0 62 0;
#X connect 2 0 63 0;
#X connect 3 0 90 0;
#X connect 4 0 6 0;
#X connect 5 0 7 1;
#X connect 6 0 7 0;
#X connect 7 0 53 0;
#X connect 8 0 9 0;
#X connect 9 0 10 0;
#X connect 9 1 11 0;
#X connect 10 0 59 0;
#X connect 11 0 60 0;
#X connect 12 0 14 0;
#X connect 13 0 15 1;
#X connect 14 0 15 0;
#X connect 15 0 86 0;
#X connect 16 1 77 0;
#X connect 17 0 89 0;
#X connect 18 0 98 0;
#X connect 19 0 18 0;
#X connect 20 0 31 0;
#X connect 21 0 83 0;
#X connect 21 1 22 0;
#X connect 22 0 20 0;
#X connect 23 0 81 0;
#X connect 25 0 18 1;
#X connect 26 0 20 1;
#X connect 26 0 30 1;
#X connect 30 0 29 0;
#X connect 31 0 23 0;
#X connect 31 1 83 0;
#X connect 31 2 32 0;
#X connect 32 0 30 0;
#X connect 33 0 54 0;
#X connect 34 0 37 0;
#X connect 34 1 38 0;
#X connect 35 0 36 0;
#X connect 36 0 84 0;
#X connect 37 0 35 0;
#X connect 37 0 39 0;
#X connect 38 0 35 1;
#X connect 38 0 40 0;
#X connect 39 0 44 0;
#X connect 40 0 45 0;
#X connect 41 0 43 0;
#X connect 43 0 42 0;
#X connect 44 0 41 0;
#X connect 44 0 70 0;
#X connect 44 0 75 0;
#X connect 45 0 41 1;
#X connect 45 0 68 1;
#X connect 45 0 74 0;
#X connect 47 0 48 0;
#X connect 48 0 49 0;
#X connect 49 0 19 0;
#X connect 49 1 50 0;
#X connect 50 0 79 0;
#X connect 50 1 17 0;
#X connect 50 2 46 0;
#X connect 51 1 52 0;
#X connect 52 3 24 0;
#X connect 52 3 67 0;
#X connect 53 0 51 0;
#X connect 54 0 34 0;
#X connect 55 0 79 0;
#X connect 56 0 19 0;
#X connect 57 0 8 0;
#X connect 57 1 58 0;
#X connect 59 0 12 0;
#X connect 60 0 13 0;
#X connect 62 0 4 0;
#X connect 63 0 5 0;
#X connect 64 0 60 1;
#X connect 64 0 59 1;
#X connect 65 0 62 1;
#X connect 65 0 63 1;
#X connect 65 0 66 0;
#X connect 68 0 69 0;
#X connect 69 0 72 0;
#X connect 70 0 71 0;
#X connect 71 0 73 0;
#X connect 74 0 70 1;
#X connect 75 0 68 0;
#X connect 76 0 90 0;
#X connect 78 0 21 0;
#X connect 79 0 80 0;
#X connect 83 0 82 0;
#X connect 85 0 88 0;
#X connect 86 0 16 0;
#X connect 87 0 88 1;
#X connect 88 0 86 0;
#X connect 90 0 47 0;
#X connect 90 1 0 0;
#X connect 90 2 57 0;
#X restore 1208 254 pd setFocus/help;
#X obj 776 3 bng 30 250 50 0 RESET empty RESET 1 15 0 10 -260097 -1
-1;
#X obj 668 6 bng 30 250 50 0 \$0-INS empty INS 5 14 0 12 -257985 -1
-1;
#X obj 699 6 bng 30 250 50 0 \$0-DEL empty DEL 5 14 0 12 -1 -262144
-258113;
#X obj 2 3 bng 60 250 50 0 \$0-save empty SAVE 5 30 0 20 -258113 -1
-1;
#X obj 146 43 cnv 15 580 20 empty \$0-display-help-rcv empty 2 8 0
16 -261682 -66577 0;
#X obj 638 6 bng 30 250 50 0 \$0-help empty HELP 1 14 0 12 -13381 -4034
-4034;
#X obj 195 235 cnv 3 3 77 empty \$0-focus_canvas empty 20 12 0 14 -257985
-66577 0;
#X obj 195 235 cnv 3 197 3 empty \$0-focus_canvas empty 20 12 0 14
-257985 -66577 0;
#X obj 392 235 cnv 3 3 80 empty \$0-focus_canvas-3 empty 20 12 0 14
-257985 -66577 0;
#X obj 195 312 cnv 3 197 3 empty \$0-focus_canvas-2 empty 20 12 0 14
-257985 -66577 0;
#X obj 1400 0 _ fx_lop;
#X obj 1400 0 inst_modular;
#X obj 1400 0 inst_modular;
#X obj 1400 0 _ audio_features;
#X obj 1400 0 _ audio_features;
#X obj 1400 0 _ audio_in;
#X obj 1400 0 _ audio_in;
#X obj 1400 0 _ audio_in;
#X obj 1400 0 _ audio_in;
#X obj 1400 0 _ audio_out;
#X obj 1400 0 _ audio_out;
#X obj 1400 0 _ audio_out;
#X obj 1400 0 _ audio_record;
#X obj 1400 0 _ audio_record;
#X obj 1400 0 _ data_azerty2midi;
#X obj 1400 0 _ data_fidcontrol;
#X obj 1400 0 _ fx_reverse;
#X obj 1400 0 _ fx_reverse;
#X obj 1400 0 _ fx_lowhip;
#X obj 1400 0 _ fx_lowhip;
#X obj 1400 0 _ fx_lowhip;
#X obj 1400 0 _ fx_lowhip;
#X obj 1400 0 _ fx_hip;
#X obj 1400 0 _ fx_lop;
#X obj 1400 0 _ fx_hip;
#X obj 1400 0 _ fx_filter;
#X obj 1400 0 _ fx_filter;
#X obj 1400 0 _ fx_ring;
#X obj 1400 0 _ fx_ring;
#X obj 1400 0 _ fx_freqshift;
#X obj 1400 0 _ fx_freqshift;
#X obj 1400 0 _ fx_pitchshift;
#X obj 1400 0 _ fx_pitchshift;
#X obj 1400 0 _ fx_pitchshift;
#X obj 1400 0 _ fx_dynproc;
#X obj 1400 0 _ fx_chorus;
#X obj 1400 0 _ fx_chorus;
#X obj 1400 0 _ fx_chorus;
#X obj 1400 0 _ fx_dubdel;
#X obj 1400 0 _ fx_dubdel;
#X obj 1400 0 _ fx_dubdel2;
#X obj 1400 0 _ fx_dubdel2;
#X obj 1400 0 _ fx_dubdel2;
#X obj 1400 0 _ fx_resonator;
#X obj 1400 0 _ fx_freeverb;
#X obj 1400 0 _ fx_freeverb;
#X obj 1400 0 _ fx_everb;
#X obj 1400 0 _ fx_everb;
#X obj 1400 0 _ data_fidtouch;
#X obj 1400 0 _ data_wintablet;
#X obj 1400 0 _ data_wintablet;
#X obj 1400 0 _ data_fidcontrol;
#X obj 1400 0 _ inst_headrush;
#X obj 1400 0 _ inst_headrush;
#X obj 1400 0 _ inst_soundfile;
#X obj 1400 0 _ inst_tabosc;
#X obj 1400 0 _ inst_tabosc;
#X obj 1400 0 _ inst_bassdrum;
#X obj 1400 0 _ inst_bassdrum;
#X obj 1400 0 _ inst_8bits;
#X obj 1400 0 _ inst_rhodey;
#X obj 1400 0 _ inst_rhodey;
#X obj 1400 0 _ inst_sampler;
#X obj 1400 0 _ inst_turntable;
#X obj 1400 0 _ inst_turntable;
#X obj 1400 0 _ midi_arpeggiator;
#X obj 1400 0 _ data_upic;
#X obj 1400 0 _ data_azerty2midi;
#X obj 1400 0 _ data_azerty2midi;
#X obj 1400 0 _ note_randomize;
#X obj 1400 0 _ note_randomize;
#X obj 1400 0 _ note_16steps;
#X obj 1400 0 _ fx_freeverb;
#X obj 1400 0 _ audio_out;
#X obj 1400 0 _ fx_hip;
#X obj 1400 0 _ fx_hip;
#X obj 1400 0 _ note_2param;
#X obj 1400 0 _ fx_eq3;
#X obj 1400 0 _ fx_parameq;
#X obj 1400 0 _ fx_parameq;
#X obj 1400 0 _ fx_parameq;
#X obj 1400 0 _ fx_parameq;
#X obj 1400 0 _ fx_parameq2;
#X obj 1400 0 _ PdRacks.presets;
#X obj 1400 0 _ fx_compressor;
#X obj 1400 0 _ fx_compressor;
#X obj 1400 0 _ fx_parameq;
#X obj 1400 0 _ note_16steps;
#X obj 1400 0 _ fx_sub;
#X obj 1400 0 _ inst_euclidrums;
#X obj 1400 0 _ audio_out;
#X obj 1400 0 _ audio_in;
#X obj 1400 0 _ midi_notein;
#X obj 1400 0 _ midi_arpeggiator;
#X obj 1400 0 _ midi_notein;
#X obj 1400 0 _ note_interpolations;
#X obj 1400 0 _ note_interpolations;
#X obj 1400 0 _ inst_pcm;
#X obj 1400 0 _ inst_pcm;
#X obj 1400 0 _ note_interpol;
#X obj 1400 0 _ fx_formant;
#X obj 1400 0 _ fx_dattorroverb;
#X obj 1400 0 _ data_feuille;
#X obj 1400 0 _ data_cyclogroove;
#X obj 1400 0 _ data_feuille;
#X obj 1400 0 _ inst_pvoc;
#X obj 1400 0 _ fx_alias;
#X obj 1400 0 _ fx_ring;
#X obj 1400 0 _ fx_bitcrush;
#X obj 1400 0 _ inst_oneshot;
#X obj 1400 0 _ inst_oneshot;
#X obj 1400 0 _ fx_bonkpitch;
#X obj 1400 0 _ data_ofelia;
#X text 874 538 gère les insertions/suppressions/connexions dynamiques
de modules;
#X text 1001 499 + table SLOTMAP;
#X text 1401 85 modules non utilisés;
#X obj 1042 146 sendcanvas 1;
#X obj 1041 14 r \$0-refresh_connexions;
#X obj 1044 37 glocal/glocal.send REFRESH_CONNEXIONS;
#X msg 1045 122 map 0 \, map 1;
#X obj 1051 61 glocal/glocal.receive REFRESH_CONNEXIONS;
#X obj 1051 84 delay 200, f 10;
#X text 1131 123 redraw parent patch;
#X obj 1212 629 glocal/glocal.receive REMOTE;
#X text 1179 599 GLOBALS voir si glocaliser ou dollarzero-iser;
#X obj 1209 761 glocal/glocal.send GO;
#X text 915 201 présent dans les modules avec tierce source;
#X obj 928 360 r REMOTE;
#X obj 1258 876 glocal/glocal.receive REMOVE;
#X obj 1250 929 glocal/glocal.send REFRESH_CONNEXIONS;
#X text 1559 532 cf pd setfocus/help;
#X obj 1336 811 r \$0-insert_mode;
#X obj 1234 846 r \$0-insert;
#X obj 1218 736 s \$0-display-help-rcv;
#X text 1373 737 affichage d'aide contextuelle;
#X obj 1218 710 s \$0-display-rcv;
#X text 1352 710 affichage status;
#X obj 1466 531 s \$0-help;
#N canvas 161 56 937 567 scene_recall 0;
#X obj 461 271 int;
#X msg 481 306 label p.\$1;
#X obj 488 342 s \$0-get_preset-rcv;
#X obj 212 356 r \$0-prev;
#X obj 209 394 bng 15 250 50 0 empty empty empty 17 7 0 10 -262144
-1 -1;
#X obj 302 356 r \$0-next;
#X obj 387 273 +;
#X msg 361 203 1;
#X obj 397 316 max 0;
#X msg 289 424 -1;
#X obj 410 361 * 40;
#X obj 459 209 - 15;
#X obj 465 235 / 40;
#X obj 428 399 + 15;
#X msg 440 443 set \$1;
#X obj 317 23 pgmin 17;
#X text 426 14 Gestion scenes;
#X msg 6 541 editmode 0 \, mouse 50 \$1 0 0 \, mouseup 50 \$1 0;
#X obj 42 511 f;
#X obj 29 409 delay 20;
#X obj 312 75 t b f;
#X obj -85 320 r \$0-get_preset;
#X obj -84 345 t b;
#X obj -75 376 delay 20;
#X msg 289 499 vis 1;
#X obj 358 446 delay 20;
#X obj 371 411 t b;
#X obj 400 76 r SCENE-pos;
#X obj 526 443 s SCENE-pos;
#X obj 435 483 s SCENE-pos-rcv;
#X obj 71 470 r SCENE-pos;
#X obj 542 250 + 0.5;
#X obj 700 361 * 40;
#X obj 718 399 + 15;
#X msg 692 446 pos 0 \$1;
#X obj 690 472 s ducon;
#X obj -66 443 delay 40;
#X obj 89 76 r CTLIN;
#X msg 100 142 \$2 \$1;
#X obj 85 206 select 127;
#X floatatom 51 182 5 0 0 0 - - -;
#X obj 115 174 route 2095 2090;
#X text 69 41 su10 comme switch controler;
#X obj 175 216 select 127;
#X obj 85 231 t b b;
#X obj 175 241 t b b;
#X obj -53 260 r \$0-save;
#X obj 265 153 r PREV;
#X obj 201 122 r NEXT;
#X obj 28 573 s pd-conduite;
#X obj 577 135 r pre_next;
#X obj 278 279 r pre_prev;
#X obj 345 166 r pre_go;
#X connect 0 0 1 0;
#X connect 0 0 6 1;
#X connect 0 0 32 0;
#X connect 1 0 2 0;
#X connect 3 0 4 0;
#X connect 3 0 9 0;
#X connect 5 0 7 0;
#X connect 6 0 8 0;
#X connect 7 0 6 0;
#X connect 8 0 0 0;
#X connect 8 0 10 0;
#X connect 8 0 26 0;
#X connect 9 0 6 0;
#X connect 10 0 13 0;
#X connect 11 0 12 0;
#X connect 12 0 31 0;
#X connect 13 0 14 0;
#X connect 13 0 28 0;
#X connect 14 0 29 0;
#X connect 15 0 20 0;
#X connect 17 0 49 0;
#X connect 18 0 17 0;
#X connect 19 0 18 0;
#X connect 20 0 23 0;
#X connect 20 1 8 0;
#X connect 21 0 22 0;
#X connect 22 0 23 0;
#X connect 23 0 19 0;
#X connect 23 0 36 0;
#X connect 24 0 49 0;
#X connect 25 0 24 0;
#X connect 26 0 25 0;
#X connect 27 0 11 0;
#X connect 30 0 18 1;
#X connect 31 0 0 0;
#X connect 32 0 33 0;
#X connect 33 0 14 0;
#X connect 33 0 34 0;
#X connect 34 0 35 0;
#X connect 36 0 24 0;
#X connect 37 0 38 0;
#X connect 38 0 40 0;
#X connect 38 0 41 0;
#X connect 39 0 44 0;
#X connect 41 0 39 0;
#X connect 41 1 43 0;
#X connect 43 0 45 0;
#X connect 44 0 19 0;
#X connect 44 1 7 0;
#X connect 45 0 19 0;
#X connect 45 1 9 0;
#X connect 46 0 36 0;
#X connect 47 0 45 0;
#X connect 48 0 44 0;
#X connect 50 0 7 0;
#X connect 51 0 9 0;
#X connect 52 0 22 0;
#X restore 1545 278 pd scene_recall;
#X text 1508 249 telecommande scenes DataStructures;
#X obj 1801 243 bng 40 250 50 0 \$0-prev empty << 5 20 0 25 -262144
-1 -1;
#X obj 1841 243 bng 40 250 50 0 \$0-next empty >> 5 20 0 25 -262144
-1 -1;
#X obj 1801 278 hsl 90 30 0 127 0 0 \$0-get_preset \$0-get_preset-rcv
p.0 20 20 0 20 -204786 -204786 -1 0 1;
#X obj 1726 245 bng 60 250 50 0 \$0-save empty SAVE 5 30 0 20 -258113
-1 -1;
#N canvas 637 75 783 539 remove 0;
#X obj 141 64 inlet;
#X obj 32 176 select 0;
#X msg 151 237 \; \$1-channel remove \;;
#X obj 86 215 t b b f;
#X obj 328 184 spigot;
#X obj 184 91 t f f;
#X obj 506 117 / 10;
#X obj 505 139 int;
#X obj 506 161 * 10;
#X obj 553 359 select 0;
#X obj 592 404 pack f f;
#X msg 591 427 \; \$1-channel slot \$2;
#X obj 530 288 t f f f;
#X obj 463 255 moses;
#X obj 507 188 + 10;
#X obj 463 92 t f f;
#X obj 328 210 f;
#X obj 381 254 + 1;
#X msg 426 359 remove \$1;
#X text 492 46 faire remonter les cellules vers le haut;
#X obj 649 292 - 1;
#X obj 508 212 - 0;
#X floatatom 525 237 5 0 0 0 - - -;
#X floatatom 551 91 5 0 0 0 - - -;
#X obj 446 162 + 1;
#X obj 462 289 - 1;
#X msg 221 424 0;
#X obj 286 417 t b f;
#X obj 553 401 f;
#X obj 548 435 - 1;
#X text 575 131 grille avec 10 de hauteur;
#X obj 216 454 glocal/glocal.tabwrite SLOTS_MAP;
#X obj 78 292 glocal/glocal.send REFRESH_CONNEXIONS;
#X obj 33 133 glocal/glocal.tabread SLOTS_MAP;
#X obj 553 323 glocal/glocal.tabread SLOTS_MAP;
#X obj 385 393 glocal/glocal.send FROM_GUI;
#X obj 281 57 r \$0-insert_mode;
#X connect 0 0 5 0;
#X connect 1 1 3 0;
#X connect 3 0 32 0;
#X connect 3 1 4 0;
#X connect 3 2 2 0;
#X connect 4 0 16 0;
#X connect 5 0 33 0;
#X connect 5 1 16 1;
#X connect 6 0 7 0;
#X connect 7 0 8 0;
#X connect 8 0 14 0;
#X connect 9 0 28 0;
#X connect 9 1 10 0;
#X connect 10 0 11 0;
#X connect 12 0 17 0;
#X connect 12 1 34 0;
#X connect 12 2 20 0;
#X connect 12 2 28 1;
#X connect 13 0 12 0;
#X connect 13 1 25 0;
#X connect 14 0 21 0;
#X connect 15 0 24 0;
#X connect 15 1 6 0;
#X connect 16 0 15 0;
#X connect 17 0 13 0;
#X connect 18 0 35 0;
#X connect 20 0 10 1;
#X connect 21 0 13 1;
#X connect 21 0 22 0;
#X connect 23 0 6 0;
#X connect 24 0 13 0;
#X connect 25 0 27 0;
#X connect 25 0 18 0;
#X connect 26 0 31 0;
#X connect 27 0 26 0;
#X connect 27 1 31 1;
#X connect 28 0 29 0;
#X connect 29 0 27 0;
#X connect 33 0 1 0;
#X connect 34 0 9 0;
#X connect 36 0 4 1;
#X restore 1291 380 pd remove;
#X obj 1192 361 r \$0-insert;
#X obj 1291 357 r \$0-remove;
#X text 1206 280 detecte actions souris/clavier;
#X text 1210 301 déplace curseur \, définit current slot;
#X text 1214 319 déclenche actions;
#N canvas 320 335 877 563 add/insert 0;
#X obj 93 24 inlet;
#X msg 84 264 \; \$2 add \$1;
#X obj 111 210 list append;
#X obj 86 61 t l l;
#X msg 84 90 \$1;
#X obj 83 164 select 0;
#X obj 254 195 list append;
#X obj 64 238 t b l;
#X obj 229 379 t b l;
#X msg 306 453 \; \$1-channel replace \$3 \$2;
#X obj 248 216 list prepend 0;
#X text 365 206 0 = overwrite;
#X text 363 185 insert mode;
#X text 363 226 1 = insert;
#X obj 235 238 route 0 1;
#X msg 345 305 \; \$3 insert \$2 \$1;
#X obj 276 287 t b l;
#X obj 43 457 glocal/glocal.send REFRESH_CONNEXIONS;
#X obj 82 136 glocal/glocal.tabread SLOTS_MAP;
#X obj 470 135 r \$0-insert_mode;
#X connect 0 0 3 0;
#X connect 2 0 7 0;
#X connect 3 0 4 0;
#X connect 3 1 2 1;
#X connect 3 1 6 1;
#X connect 4 0 18 0;
#X connect 5 0 2 0;
#X connect 5 1 6 0;
#X connect 6 0 10 0;
#X connect 7 0 17 0;
#X connect 7 1 1 0;
#X connect 8 0 17 0;
#X connect 8 1 9 0;
#X connect 10 0 14 0;
#X connect 14 0 8 0;
#X connect 14 1 16 0;
#X connect 16 0 17 0;
#X connect 16 1 15 0;
#X connect 18 0 5 0;
#X connect 19 0 10 1;
#X restore 1194 383 pd add/insert;
#N canvas 0 50 450 300 obsolete 0;
#N canvas 54 68 1086 856 dynamic-linker 0;
#N canvas 0 50 450 300 explications/projets 0;
#X text 42 55 réception fid add;
#X text 44 75 mapping modulename;
#X text 42 121 message add sid modulename;
#X text 42 140 connexion audio / data en fonction emplacement;
#X text 48 187 rackpd : valeurs réservées pour sid correspondant
à des valeurs particulières;
#X text 35 303 chaque objet est affecté à un slot;
#X text 78 333 slot fixe de rack (sid < 200);
#X text 112 361 sauvegardé dans le système d'enregistrement d'état
;
#X text 71 422 slot dynamique (sid > 200);
#X text 106 443 créé à la volée à partir de fiduciaux;
#X text 110 385 le système d'enregistrement d'état sauvegarde les
paramètre ainsi que les affectations de connexions;
#N canvas 0 50 620 425 TODO 0;
#X text 44 15 dans module_loader;
#X obj 105 66 s control-\$2;
#X text 203 66 ne respecte pas la syntaxe commune ($x-blabla);
#X obj 107 118 r \$2-hasFocus;
#X text 207 118 mécanisme à réimplémenter dans la gui ou ailleurs
;
#X obj 118 204 r \$2-preset-search;
#X text 73 170 dans module_loader/gestion_preset_module;
#X text 276 208 voir si cette "méthode" est appelée à un moment
donné;
#X obj 120 230 s \$2-presets-rcv;
#X text 271 230 où ça renvoie ?;
#X text 89 276 dans RackPd/stuff/creation dynamique d'objets/ :;
#X text 129 301 [text define module_register] à supprimer ?;
#X restore 102 259 pd TODO;
#X restore 751 96 pd explications/projets;
#N canvas 0 50 501 431 focus 0;
#X obj 155 54 inlet;
#X obj 21 280 select 0;
#X obj 285 238 f;
#X obj 304 122 r REMOTE;
#X obj 313 147 route focus;
#X obj 312 169 list split 1;
#X msg 294 261 \; \$1-hasFocus 0;
#X msg 87 350 \; \$1-hasFocus 1;
#X obj 121 214 t f b;
#X obj 361 198 list split 1;
#X obj 61 154 glocal/glocal.tabread SLOTS_MAP;
#X connect 0 0 10 0;
#X connect 1 1 7 0;
#X connect 2 0 6 0;
#X connect 3 0 4 0;
#X connect 4 0 5 0;
#X connect 5 1 9 0;
#X connect 8 0 1 0;
#X connect 8 1 2 0;
#X connect 9 0 2 1;
#X connect 10 0 8 0;
#X restore 161 341 pd focus;
#X obj 455 122 r module-0-rcv;
#N canvas 0 50 455 376 testing 0;
#X msg 99 204 remove 5;
#X msg 100 235 remove 4;
#X msg 46 64 add 5 obj1;
#X msg 60 90 add 4 obj1;
#X msg 76 124 add 5 obj2;
#X msg 90 150 add 4 obj2;
#X msg 166 124 add 6 obj2;
#X msg 110 265 remove 6;
#X msg 192 307 add 6 obj3;
#X obj 31 341 outlet;
#X text 74 38 sid ou numéro slot;
#X msg 150 90 add 6 fx_ring;
#X connect 0 0 9 0;
#X connect 1 0 9 0;
#X connect 2 0 9 0;
#X connect 3 0 9 0;
#X connect 4 0 9 0;
#X connect 5 0 9 0;
#X connect 6 0 9 0;
#X connect 7 0 9 0;
#X connect 8 0 9 0;
#X connect 11 0 9 0;
#X restore 41 66 pd testing;
#X obj 153 306 change;
#X obj 62 268 route add remove focus help;
#X text 288 311 cf pd setfocus/help;
#N canvas 471 160 958 588 gui 0;
#X obj 117 375 list append;
#X obj 433 129 t b a;
#X msg 366 183 add;
#X obj 117 342 list prepend;
#X obj 115 402 list trim;
#X msg 239 170 remove;
#X obj 126 423 t a b;
#X obj 80 237 r GO;
#X obj 237 205 t a b;
#X msg 292 215 focus;
#X msg 474 271 label \$1;
#X obj 202 251 symbol;
#X obj 478 178 symbol;
#X msg 518 278 label add:\$1;
#X obj 846 81 list split 1;
#X obj 792 39 route slot focus;
#X obj 711 185 list append;
#X obj 705 109 t f f;
#X msg 711 220 label \$3(\$1:\$2);
#X obj 708 159 pack f f;
#X obj 698 134 div 10;
#X obj 755 136 mod 10;
#X obj 759 60 select 0;
#X msg 325 426 symbol \$3;
#X msg 75 138 label;
#X text 96 555 dépendance à zexy à supprimer;
#X text 801 255 affichage de l'action en cours;
#X obj 119 450 outlet;
#X obj 312 287 t a b;
#X msg 339 153 help;
#X obj 275 100 route remove focus help select_module;
#X obj 319 61 t a b;
#X msg 588 96 0;
#X obj 555 204 spigot;
#X obj 540 118 symbol;
#X obj 629 130 t b s;
#X msg 614 173 1;
#X obj 558 254 s;
#X obj 538 176 r GO;
#X obj 557 230 t a b;
#X msg 616 318 label select_source_module;
#X msg 677 246 label;
#X obj 767 4 glocal/glocal.receive REMOTE;
#X obj 279 16 r ACTION;
#N canvas 1 56 450 300 aide_contextuelle 0;
#X obj 84 26 inlet;
#X obj 62 154 text get modules;
#X obj 57 183 list split 1;
#X obj 90 73 text search modules;
#X obj 86 111 select -1;
#X msg 294 141 label \$1;
#X msg 316 102 label;
#X obj 106 225 list2symbol _;
#X obj 279 181 s \$0-display-help-rcv;
#X connect 0 0 3 0;
#X connect 1 0 2 0;
#X connect 2 1 7 0;
#X connect 3 0 4 0;
#X connect 4 0 6 0;
#X connect 4 1 1 0;
#X connect 5 0 8 0;
#X connect 6 0 8 0;
#X connect 7 0 5 0;
#X restore 137 531 pd aide_contextuelle (\$0-display-help-rcv);
#X obj 79 162 s \$0-display-help-rcv;
#X obj 713 391 s \$0-display-rcv;
#X connect 0 0 4 0;
#X connect 1 0 2 0;
#X connect 1 1 0 1;
#X connect 1 1 12 0;
#X connect 2 0 3 1;
#X connect 3 0 0 0;
#X connect 4 0 6 0;
#X connect 5 0 8 0;
#X connect 6 0 27 0;
#X connect 6 1 9 0;
#X connect 7 0 3 0;
#X connect 8 0 11 0;
#X connect 8 1 0 1;
#X connect 9 0 28 0;
#X connect 10 0 46 0;
#X connect 11 0 3 1;
#X connect 11 0 10 0;
#X connect 12 0 13 0;
#X connect 12 0 44 0;
#X connect 13 0 46 0;
#X connect 14 0 16 1;
#X connect 15 0 22 0;
#X connect 15 1 14 0;
#X connect 16 0 18 0;
#X connect 16 0 23 0;
#X connect 17 0 20 0;
#X connect 17 1 21 0;
#X connect 18 0 46 0;
#X connect 19 0 16 0;
#X connect 20 0 19 0;
#X connect 21 0 19 1;
#X connect 22 1 17 0;
#X connect 23 0 44 0;
#X connect 24 0 45 0;
#X connect 28 0 3 1;
#X connect 28 1 0 1;
#X connect 29 0 8 0;
#X connect 30 0 5 0;
#X connect 30 0 24 0;
#X connect 30 1 9 0;
#X connect 30 2 29 0;
#X connect 30 3 34 0;
#X connect 30 4 1 0;
#X connect 31 0 30 0;
#X connect 31 1 32 0;
#X connect 32 0 33 1;
#X connect 33 0 39 0;
#X connect 34 0 35 0;
#X connect 35 0 36 0;
#X connect 35 0 40 0;
#X connect 35 1 37 1;
#X connect 36 0 33 1;
#X connect 38 0 33 0;
#X connect 39 0 37 0;
#X connect 39 1 32 0;
#X connect 39 1 41 0;
#X connect 40 0 46 0;
#X connect 41 0 46 0;
#X restore 94 154 pd gui;
#X obj 66 209 glocal/glocal.send FROM_GUI;
#X obj 66 239 glocal/glocal.receive FROM_GUI;
#X obj 236 313 s \$0-help;
#X connect 4 0 1 0;
#X connect 5 3 10 0;
#X restore 85 203 pd dynamic-linker;
#N canvas 55 181 1125 537 click 0;
#X obj 73 14 receivecanvas 1;
#X obj 80 148 unpack f f;
#X obj 83 284 / 200;
#X obj 173 256 / 80;
#X obj 105 311 int;
#X obj 249 280 int;
#X obj 125 341 * 10;
#X obj 239 459 +;
#X obj 88 88 spigot 1;
#X obj 88 119 t l b;
#X msg 300 125 0;
#X obj 73 36 route mouse mouseup;
#X msg 149 63 1;
#X obj 11 270 moses 801;
#X obj 205 317 > 0;
#X obj 179 358 spigot;
#X obj 217 16 receivecanvas 2;
#X obj 376 121 r ZOOM;
#X obj 80 173 / 1;
#X obj 170 185 / 1;
#X obj 239 481 outlet;
#X connect 0 0 11 0;
#X connect 1 0 18 0;
#X connect 1 1 19 0;
#X connect 2 0 4 0;
#X connect 3 0 5 0;
#X connect 4 0 6 0;
#X connect 5 0 7 1;
#X connect 5 0 14 0;
#X connect 6 0 15 0;
#X connect 7 0 20 0;
#X connect 8 0 9 0;
#X connect 9 0 1 0;
#X connect 9 1 10 0;
#X connect 10 0 8 1;
#X connect 11 0 8 0;
#X connect 11 1 12 0;
#X connect 12 0 8 1;
#X connect 13 0 2 0;
#X connect 14 0 15 1;
#X connect 15 0 7 0;
#X connect 16 0 11 0;
#X connect 17 0 19 1;
#X connect 17 0 18 1;
#X connect 18 0 13 0;
#X connect 19 0 3 0;
#X restore 85 99 pd click on bay;
#X text 76 75 clicks souris on bay;
#X obj 84 148 glocal/glocal.send GO;
#N canvas 637 72 547 472 todo 0;
#X msg 354 236 fx_graindelay;
#X msg 354 264 fx_granulator;
#X msg 359 306 fx_lop;
#X msg 347 184 fx_multiband;
#X msg 353 210 fx_reverb;
#X msg 344 155 fx_sub;
#X msg 57 406 midi_pattern;
#X text 57 287 livre;
#X text 60 310 graphics;
#X text 371 409 etc....;
#X text 92 11 stereo_inlet~ déconnexion quand switch~ == 0;
#X msg 143 286 inst_pvoc;
#X text 142 316 inst_upic;
#X text 410 153 -> module d'analyse;
#X text 35 63 vérifier les connexions wet / c_xfade dans tous les
modules;
#X text 38 88 vérifier compatibilité avec samplerate autres que 44100
;
#X text 33 139 feedback visuel toogles;
#X text 33 167 réfléchir à implémenter mode trigger / toogle pour
la commande de toogles, f 32;
#X restore 277 245 pd todo;
#N canvas 689 74 450 300 remote 0;
#X obj 104 7 r REMOTE;
#X obj 105 56 print REMOTE;
#X obj 104 30 spigot;
#X obj 191 9 tgl 15 0 empty empty empty 17 7 0 10 -262144 -1 -1 0 1
;
#X text 75 114 l'idée est de transmettre tous les parametres du module
on focus à une tablette remote client;
#X connect 0 0 2 0;
#X connect 2 0 1 0;
#X connect 3 0 2 1;
#X restore 279 223 pd remote;
#N canvas 9 160 958 588 gui 0;
#X obj 117 375 list append;
#X obj 433 129 t b a;
#X msg 366 183 add;
#X obj 117 342 list prepend;
#X obj 115 402 list trim;
#X msg 239 170 remove;
#X obj 126 423 t a b;
#X obj 80 237 r GO;
#X obj 237 205 t a b;
#X msg 292 215 focus;
#X msg 474 271 label \$1;
#X obj 202 251 symbol;
#X obj 478 178 symbol;
#X msg 518 278 label add:\$1;
#X obj 851 83 list split 1;
#X obj 797 41 route slot focus;
#X obj 716 187 list append;
#X obj 710 111 t f f;
#X msg 716 222 label \$3(\$1:\$2);
#X obj 713 161 pack f f;
#X obj 703 136 div 10;
#X obj 760 138 mod 10;
#X obj 764 62 select 0;
#X msg 330 428 symbol \$3;
#X msg 75 138 label;
#X text 96 555 dépendance à zexy à supprimer;
#X text 801 255 affichage de l'action en cours;
#X obj 119 450 outlet;
#X obj 312 287 t a b;
#X msg 339 153 help;
#X obj 275 100 route remove focus help select_module;
#X obj 319 61 t a b;
#X msg 588 96 0;
#X obj 555 204 spigot;
#X obj 540 118 symbol;
#X obj 629 130 t b s;
#X msg 614 173 1;
#X obj 558 254 s;
#X obj 538 176 r GO;
#X obj 557 230 t a b;
#X msg 616 318 label select_source_module;
#X msg 677 246 label;
#X obj 279 16 r ACTION;
#N canvas 1 56 450 300 aide_contextuelle 0;
#X obj 84 26 inlet;
#X obj 62 154 text get modules;
#X obj 57 183 list split 1;
#X obj 90 73 text search modules;
#X obj 86 111 select -1;
#X msg 294 141 label \$1;
#X msg 316 102 label;
#X obj 106 225 list2symbol _;
#X obj 279 181 s \$0-display-help-rcv;
#X connect 0 0 3 0;
#X connect 1 0 2 0;
#X connect 2 1 7 0;
#X connect 3 0 4 0;
#X connect 4 0 6 0;
#X connect 4 1 1 0;
#X connect 5 0 8 0;
#X connect 6 0 8 0;
#X connect 7 0 5 0;
#X restore 142 533 pd aide_contextuelle (\$0-display-help-rcv);
#X obj 79 162 s \$0-display-help-rcv;
#X obj 718 393 s \$0-display-rcv;
#X obj 797 6 receive REMOTE;
#X connect 0 0 4 0;
#X connect 1 0 2 0;
#X connect 1 1 0 1;
#X connect 1 1 12 0;
#X connect 2 0 3 1;
#X connect 3 0 0 0;
#X connect 4 0 6 0;
#X connect 5 0 8 0;
#X connect 6 0 27 0;
#X connect 6 1 9 0;
#X connect 7 0 3 0;
#X connect 8 0 11 0;
#X connect 8 1 0 1;
#X connect 9 0 28 0;
#X connect 10 0 45 0;
#X connect 11 0 3 1;
#X connect 11 0 10 0;
#X connect 12 0 13 0;
#X connect 12 0 43 0;
#X connect 13 0 45 0;
#X connect 14 0 16 1;
#X connect 15 0 22 0;
#X connect 15 1 14 0;
#X connect 16 0 18 0;
#X connect 16 0 23 0;
#X connect 17 0 20 0;
#X connect 17 1 21 0;
#X connect 18 0 45 0;
#X connect 19 0 16 0;
#X connect 20 0 19 0;
#X connect 21 0 19 1;
#X connect 22 1 17 0;
#X connect 23 0 43 0;
#X connect 24 0 44 0;
#X connect 28 0 3 1;
#X connect 28 1 0 1;
#X connect 29 0 8 0;
#X connect 30 0 5 0;
#X connect 30 0 24 0;
#X connect 30 1 9 0;
#X connect 30 2 29 0;
#X connect 30 3 34 0;
#X connect 30 4 1 0;
#X connect 31 0 30 0;
#X connect 31 1 32 0;
#X connect 32 0 33 1;
#X connect 33 0 39 0;
#X connect 34 0 35 0;
#X connect 35 0 36 0;
#X connect 35 0 40 0;
#X connect 35 1 37 1;
#X connect 36 0 33 1;
#X connect 38 0 33 0;
#X connect 39 0 37 0;
#X connect 39 1 32 0;
#X connect 39 1 41 0;
#X connect 40 0 45 0;
#X connect 41 0 45 0;
#X restore 314 104 pd gui;
#X restore 1730 409 pd obsolete;
#N canvas 1 56 1315 674 \$0-ADD/INSERT 0;
#X msg 276 142 fx_parameq2;
#X msg 753 298 PdRacks.presets;
#X msg 276 452 fx_compressor;
#X msg 276 265 fx_chorus;
#X msg 276 285 fx_dubdel;
#X msg 276 82 fx_hip;
#X msg 276 192 fx_ring;
#X msg 276 375 fx_freeverb;
#X msg 276 472 fx_dynproc;
#X msg 276 102 fx_filter;
#X msg 276 212 fx_freqshift;
#X msg 276 232 fx_pitchshift;
#X msg 276 355 fx_resonator;
#X msg 276 62 fx_lop;
#X msg 276 42 fx_lowhip;
#X msg 276 305 fx_dubdel2;
#X msg 276 499 fx_sub;
#X msg 276 325 fx_reverse;
#X msg 276 395 fx_everb;
#X msg 276 162 fx_eq3;
#X msg 276 122 fx_parameq;
#X msg 46 263 inst_sampler;
#X msg 46 283 inst_turntable;
#X msg 46 223 inst_8bits;
#X msg 46 243 inst_rhodey;
#X msg 46 163 inst_soundfile;
#X msg 46 143 inst_headrush;
#X msg 46 183 inst_tabosc;
#X msg 46 203 inst_bassdrum;
#X msg 46 93 inst_modular;
#X msg 484 51 audio_in;
#X msg 484 71 audio_out;
#X msg 484 91 audio_record;
#X msg 484 111 audio_features;
#X msg 484 456 data_wintablet;
#X msg 484 436 data_fidtouch;
#X msg 484 476 data_fidcontrol;
#X msg 484 220 data_azerty2midi;
#X msg 739 71 midi_arpeggiator;
#X msg 739 91 note_randomize;
#X msg 739 111 note_2param;
#X msg 92 451 cancel;
#X text 39 30 INSTRUMENTS;
#X text 265 7 AUDIO EFFECTS;
#X text 477 15 IN OUT;
#X msg 484 240 note_16steps;
#X msg 484 260 data_upic;
#X text 486 186 MIDI NOTE GENERATORS;
#X text 731 30 MIDI FILTERS;
#X text 485 403 DATA CONTROL;
#X text 72 422 CLOSE THIS WINDOW;
#X text 749 226 GLOBAL;
#X msg 276 553 fx_bitcrush;
#X msg 46 303 inst_euclidrums;
#X msg 484 326 midi_notein;
#X msg 739 144 note_interpolations;
#X msg 46 351 inst_pcm;
#X msg 739 170 note_interpol;
#X msg 276 529 fx_formant;
#X text 618 455 interface avec tablettes wacom;
#X text 119 348 lecteur de sample;
#X msg 276 415 fx_dattorroverb;
#X msg 484 502 data_feuille;
#X msg 484 281 data_cyclogroove;
#X msg 86 386 inst_pvoc;
#X text 628 434 interface multitouch;
#X text 633 475 monotouch to ctlout;
#X msg 983 278 PdRacks.morphing;
#X msg 983 258 PdRacks.transport;
#X msg 401 567 fx_alias;
#X msg 15 399 inst_oneshot;
#X msg 663 392 data_ofelia;
#X msg 914 405 fx_bonkpitch;
#X obj 46 521 s \$0-ADD;
#X obj 276 594 s \$0-ADD;
#X obj 483 588 s \$0-ADD;
#X obj 484 158 s \$0-ADD;
#X obj 484 358 s \$0-ADD;
#X obj 739 201 s \$0-ADD;
#X obj 753 342 s \$0-ADD;
#X connect 0 0 74 0;
#X connect 1 0 79 0;
#X connect 2 0 74 0;
#X connect 3 0 74 0;
#X connect 4 0 74 0;
#X connect 5 0 74 0;
#X connect 6 0 74 0;
#X connect 7 0 74 0;
#X connect 8 0 74 0;
#X connect 9 0 74 0;
#X connect 10 0 74 0;
#X connect 11 0 74 0;
#X connect 12 0 74 0;
#X connect 13 0 74 0;
#X connect 14 0 74 0;
#X connect 15 0 74 0;
#X connect 16 0 74 0;
#X connect 17 0 74 0;
#X connect 18 0 74 0;
#X connect 19 0 74 0;
#X connect 20 0 74 0;
#X connect 21 0 73 0;
#X connect 22 0 73 0;
#X connect 23 0 73 0;
#X connect 24 0 73 0;
#X connect 25 0 73 0;
#X connect 26 0 73 0;
#X connect 27 0 73 0;
#X connect 28 0 73 0;
#X connect 29 0 73 0;
#X connect 30 0 76 0;
#X connect 31 0 76 0;
#X connect 32 0 76 0;
#X connect 33 0 76 0;
#X connect 34 0 75 0;
#X connect 35 0 75 0;
#X connect 36 0 75 0;
#X connect 37 0 77 0;
#X connect 38 0 78 0;
#X connect 39 0 78 0;
#X connect 40 0 78 0;
#X connect 41 0 73 0;
#X connect 45 0 77 0;
#X connect 46 0 77 0;
#X connect 52 0 74 0;
#X connect 53 0 73 0;
#X connect 54 0 77 0;
#X connect 55 0 78 0;
#X connect 56 0 73 0;
#X connect 57 0 78 0;
#X connect 58 0 74 0;
#X connect 61 0 74 0;
#X connect 62 0 75 0;
#X connect 63 0 77 0;
#X connect 64 0 73 0;
#X connect 69 0 74 0;
#X connect 70 0 73 0;
#X connect 71 0 75 0;
#X connect 72 0 75 0;
#X restore 1208 450 pd \$0-ADD/INSERT;
#X text 1227 426 Catalogue d'objets à insérer;
#N canvas 0 50 826 651 select_source 0;
#X obj 327 41 t a b;
#X msg 358 106 0;
#X obj 325 214 spigot;
#X obj 292 111 symbol;
#X obj 503 122 t b s;
#X msg 384 183 1;
#X obj 328 264 s;
#X obj 327 240 t a b;
#X msg 386 328 label select_source_module;
#X msg 447 256 label;
#X obj 483 401 s \$0-display-rcv;
#N canvas 102 413 1125 537 click 0;
#X obj 80 148 unpack f f;
#X obj 83 284 / 200;
#X obj 173 256 / 80;
#X obj 105 311 int;
#X obj 249 280 int;
#X obj 125 341 * 10;
#X obj 239 459 +;
#X obj 88 88 spigot 1;
#X obj 88 119 t l b;
#X msg 300 125 0;
#X obj 73 36 route mouse mouseup;
#X msg 149 63 1;
#X obj 11 270 moses 801;
#X obj 205 317 > 0;
#X obj 179 358 spigot;
#X obj 376 121 r ZOOM;
#X obj 80 173 / 1;
#X obj 170 185 / 1;
#X obj 239 481 outlet;
#X obj 73 14 receivecanvas 2;
#X obj 217 16 receivecanvas 3;
#X connect 0 0 16 0;
#X connect 0 1 17 0;
#X connect 1 0 3 0;
#X connect 2 0 4 0;
#X connect 3 0 5 0;
#X connect 4 0 6 1;
#X connect 4 0 13 0;
#X connect 5 0 14 0;
#X connect 6 0 18 0;
#X connect 7 0 8 0;
#X connect 8 0 0 0;
#X connect 8 1 9 0;
#X connect 9 0 7 1;
#X connect 10 0 7 0;
#X connect 10 1 11 0;
#X connect 11 0 7 1;
#X connect 12 0 1 0;
#X connect 13 0 14 1;
#X connect 14 0 6 0;
#X connect 15 0 17 1;
#X connect 15 0 16 1;
#X connect 16 0 12 0;
#X connect 17 0 2 0;
#X connect 19 0 10 0;
#X connect 20 0 10 0;
#X restore 253 179 pd click on bay;
#X obj 283 80 route select_module;
#X obj 328 9 inlet;
#X obj 506 197 delay 200;
#X obj 643 401 s \$0-display-help-rcv;
#X msg 614 327 label;
#X connect 0 0 12 0;
#X connect 0 1 1 0;
#X connect 1 0 2 1;
#X connect 2 0 7 0;
#X connect 3 0 4 0;
#X connect 4 0 5 0;
#X connect 4 0 14 0;
#X connect 4 1 6 1;
#X connect 5 0 2 1;
#X connect 7 0 6 0;
#X connect 7 1 1 0;
#X connect 7 1 9 0;
#X connect 8 0 10 0;
#X connect 9 0 10 0;
#X connect 11 0 2 0;
#X connect 12 0 3 0;
#X connect 13 0 0 0;
#X connect 14 0 8 0;
#X connect 14 0 16 0;
#X connect 16 0 15 0;
#X restore 935 254 pd select_source;
#X text 888 329 echange avec gui externe (type mobmuplat);
#X obj 934 222 glocal/glocal.receive ACTION;
#N canvas 0 57 1920 1023 Aide_contextuelle 0;
#X obj 365 176 list split 1;
#X obj 228 165 t f f;
#X obj 231 215 pack f f;
#X obj 221 190 div 10;
#X obj 278 192 mod 10;
#X obj 235 133 select 0;
#X msg 135 426 symbol \$3;
#N canvas 1 56 450 300 aide_contextuelle 0;
#X obj 84 26 inlet;
#X obj 62 154 text get modules;
#X obj 57 183 list split 1;
#X obj 90 73 text search modules;
#X obj 86 111 select -1;
#X msg 294 141 label \$1;
#X msg 316 102 label;
#X obj 106 225 list2symbol _;
#X obj 279 181 s \$0-display-help-rcv;
#X connect 0 0 3 0;
#X connect 1 0 2 0;
#X connect 2 1 7 0;
#X connect 3 0 4 0;
#X connect 4 0 6 0;
#X connect 4 1 1 0;
#X connect 5 0 8 0;
#X connect 6 0 8 0;
#X connect 7 0 5 0;
#X restore 124 528 pd aide_contextuelle (\$0-display-help-rcv);
#X obj 236 447 s \$0-display-rcv;
#X obj 237 62 r \$0-current_slot;
#X obj 391 83 route focus;
#X obj 398 55 r REMOTE;
#X obj 237 85 f;
#X obj 391 106 t b a;
#X msg 246 299 label (\$1:\$2)\$3;
#X obj 234 241 list append --;
#X connect 0 0 15 1;
#X connect 1 0 3 0;
#X connect 1 1 4 0;
#X connect 2 0 15 0;
#X connect 3 0 2 0;
#X connect 4 0 2 1;
#X connect 5 1 1 0;
#X connect 6 0 7 0;
#X connect 9 0 12 0;
#X connect 10 0 13 0;
#X connect 11 0 10 0;
#X connect 12 0 5 0;
#X connect 13 0 12 0;
#X connect 13 1 0 0;
#X connect 14 0 8 0;
#X connect 15 0 14 0;
#X connect 15 0 6 0;
#X restore 1449 355 pd Aide_contextuelle;
#X obj 732 3 bng 30 250 50 0 empty \$0-refresh_connexions Refresh 0
7 0 10 -204786 -1 -1;
#X text 1578 639 TO_GUI;
#X text 1580 658 FROM_GUI;
#X text 1581 613 globals à éliminer ?;
#X obj 1678 750 s RJ_SCENE_RELOAD;
#X obj 1678 727 s RJ_SCENE_PRELOAD;
#X obj 1677 785 s RJ_SCENE_POSTLOAD;
#X obj 1635 834 s REFRESH_CONNEXIONS;
#X obj 1673 871 s SCENE-pos-rcv;
#N canvas 1 58 1382 809 sauvegarde 0;
#N canvas 350 56 607 453 declare 0;
#X obj 64 293 declare -stdpath extra/zexy/;
#X obj 60 318 declare -stdpath extra/hcs/;
#X obj 272 346 declare -lib iemlib/iemlib1;
#X obj 262 371 declare -lib iemlib/iemlib2;
#X obj 267 399 declare -lib zexy;
#X obj 65 268 declare -lib iemlib;
#X obj 285 239 declare -path iemlib;
#X obj 65 228 declare -path iemguts;
#X obj 386 287 iemlib/iem_receive;
#X obj 66 131 declare -path ../ressources/modules/;
#X obj 66 111 declare -path ../ressources/core/;
#X obj 65 153 declare -path ../ressources/rj/;
#X obj 64 175 declare -path ../ressources/core/fid_abs_vanilia-0.4/
;
#X restore 472 113 pd declare;
#N canvas 251 56 1097 554 mecanisme_sauvegarde_presets_dans_data_structures
0;
#N canvas 327 232 571 382 text-help-struct 0;
#X scalar text-help-struct 20 20 \; a b c d \;;
#X obj 79 230 pointer;
#X obj 22 257 append text-help-struct x y;
#X msg 23 172 20 20;
#X obj 161 24 struct text-help-struct float x float y text z;
#X obj 15 120 drawtext z 16 -3 0;
#X obj 254 142 tgl 15 1 empty empty empty 17 7 0 10 -262144 -1 -1 0
1;
#X obj 13 83 filledpolygon 0 0 0 0 0 0 30 30 30 30 0 0 0;
#X obj 475 124 outlet;
#X msg 79 172 traverse pd-ConduitePresets \, bang;
#X connect 1 0 2 2;
#X connect 3 0 2 0;
#X connect 4 0 8 0;
#X connect 6 0 5 0;
#X connect 9 0 1 0;
#X restore 55 111 pd text-help-struct;
#X text 88 466 bug - saving multi-line texts inside structures;
#X obj 546 85 r \$0-load;
#X text 701 152 if the load button is pressed;
#X obj 802 301 r SSSAD_ADMIN;
#X obj 802 356 route persist;
#X obj 802 326 list trim;
#X obj 802 412 list trim;
#X msg 456 219 save;
#X obj 478 424 s SSSAD_ADMIN;
#X obj 802 388 list prepend add SSSAD;
#X msg 500 384 set \, addsemi;
#X msg 456 452 add SSSAD_ADMIN set;
#X obj 523 286 s SSSAD_SAVE;
#X text 540 12 original patch by frank barknecht (sssad);
#X obj 592 491 outlet;
#X obj 771 248 list trim;
#X obj 771 226 list prepend add RJ_SCENE_LOAD;
#X msg 661 281 dirty 1;
#X obj 456 242 t b a b b b b;
#X obj 421 266 t b b;
#X msg 379 321 menusave;
#X obj 377 299 delay 1000;
#X obj 550 112 t b b, f 27;
#X obj 621 226 bng 15 250 50 0 empty empty empty 17 7 0 10 -262144
-1 -1;
#X obj 248 428 s pd-conduite;
#N canvas 0 50 1089 575 load_scene_frome_datastructures 0;
#X obj 99 11 inlet;
#X obj 107 51 route click;
#X obj 107 76 list split 1;
#X obj 203 106 + 15;
#X obj 116 284 text sequence -s text-help-struct z;
#X text 187 244 rewind;
#X obj 102 101 list trim;
#X obj 93 158 t b b;
#X msg 202 131 set \$1;
#X msg 115 247 line 0;
#X text 438 526 cf module_declare;
#X obj 37 223 t b b b b;
#X obj 46 196 delay 10;
#X msg 71 260 step;
#X obj 126 312 t b a;
#X obj 21 298 delay 0;
#X obj 416 374 delay 1;
#X obj 397 470 t b b;
#X obj 202 157 s SCENE-pos-rcv;
#X obj 190 411 textfile;
#X obj 194 355 list prepend add;
#X obj 194 380 list trim;
#X msg 336 379 clear;
#X msg 416 399 rewind \, bang;
#X obj 134 497 delay 0;
#X text 472 466 done;
#X text 39 331 ---------------------- découplage dans un textfile
pour éviter crashes avec datastructures------------, f 105;
#X obj 190 436 list;
#X obj 180 466 t b l;
#X obj 100 125 t b p a b;
#X obj 206 518 glocal/glocal.send RJ_SCENE_LOAD;
#X obj 426 504 glocal/glocal.send RJ_SCENE_POSTLOAD;
#X obj 384 553 glocal/glocal.send REFRESH_CONNEXIONS;
#X obj 152 190 glocal/glocal.send RJ_SCENE_PRELOAD;
#X obj 152 213 glocal/glocal.send RJ_SCENE_RELOAD;
#X connect 0 0 1 0;
#X connect 1 0 2 0;
#X connect 2 0 6 0;
#X connect 2 1 3 0;
#X connect 3 0 8 0;
#X connect 4 0 14 0;
#X connect 4 1 16 0;
#X connect 6 0 29 0;
#X connect 7 0 12 0;
#X connect 7 1 33 0;
#X connect 7 1 34 0;
#X connect 8 0 18 0;
#X connect 9 0 4 0;
#X connect 11 2 13 0;
#X connect 11 3 9 0;
#X connect 12 0 11 0;
#X connect 13 0 4 0;
#X connect 14 0 15 0;
#X connect 14 1 20 0;
#X connect 15 0 13 0;
#X connect 16 0 23 0;
#X connect 17 0 32 0;
#X connect 17 1 31 0;
#X connect 19 0 27 0;
#X connect 19 1 17 0;
#X connect 20 0 21 0;
#X connect 21 0 19 0;
#X connect 22 0 19 0;
#X connect 23 0 19 0;
#X connect 24 0 19 0;
#X connect 27 0 28 0;
#X connect 28 0 24 0;
#X connect 28 1 30 0;
#X connect 29 0 7 0;
#X connect 29 1 4 1;
#X connect 29 3 22 0;
#X restore 56 142 pd load_scene_frome_datastructures;
#N canvas 217 207 1366 685 save_scene_into_datastructures 0;
#X msg 476 248 bang;
#X msg 428 248 step;
#X obj 715 365 text set -s text-help-struct z, f 18;
#X msg 943 250 0;
#X obj 916 286 f;
#X obj 975 284 + 1;
#X obj 75 361 delay 100;
#X obj 56 419 f;
#X obj 97 300 t b f;
#X obj 73 386 t b b;
#X obj 106 219 f;
#X obj 70 148 t b;
#X obj 70 121 r \$0-save;
#X obj 179 553 pointer;
#X obj 10 586 append text-help-struct x y;
#X obj 54 448 - 15;
#X obj 701 539 delay 100;
#X obj 10 622 t b a;
#X msg 47 509 40 \$1;
#X msg 230 364 editmode 1 \, mouse 40 \$1 0 0 \, mouseup 50 \$1 0;
#X msg 590 318 set \$1;
#X text 148 121 gros bouton rouge;
#X text 746 647 variable globale pour communiquer avec le module rj_808
;
#X text 731 671 a terme il faudra integrer tout ça dans un seul module
;
#X msg 184 422 cut \, editmode 0;
#X text 577 298 voir "creation_dynamique_d'objets";
#X obj 945 194 textfile;
#X obj 739 625 outlet;
#X obj 879 76 list prepend add;
#X obj 915 150 list trim;
#X msg 896 533 clear;
#X obj 736 570 t b b b;
#X obj 817 103 t b;
#X obj 802 141 delay 200;
#X msg 799 165 rewind \, bang;
#X obj 825 268 t b l b;
#X obj 773 211 delay 0;
#X obj 879 233 list;
#X msg 232 242 pos 0 \$1;
#X obj 229 213 f;
#X obj 230 268 s ducon;
#X msg 576 0 \; RJ_SCENE_PRELOAD bang \; RJ_SCENE_RELOAD bang \; RJ_SCENE_LOAD
bang \; RJ_SCENE_POSTLOAD bang \; REFRESH_CONNEXIONS bang;
#X obj 219 154 r SCENE-pos-rcv;
#X obj 215 180 route set;
#X msg 113 512 traverse pd-conduite \, bang;
#X obj 221 463 s pd-conduite;
#X text 404 301 done;
#X text 296 271 <- le trait horizontal du curseur;
#X obj 66 479 t f b;
#X text 350 463 suppression de l'ancien bloc de scène;
#X text 257 573 création d'un nouveau bloc de scène à la place de
l'ancien;
#X text 1056 198 tous les modules "crachent" les valeurs de leurs paramètres
\, qui sont stockées dans le textfile ci-dessous. à la fin \, celui-ci
est purgé et son contenu est recopié à l'intérieur du champ texte
du bloc de scène nouvellement créé., f 35;
#X obj 547 187 t f b b;
#X obj 878 35 spigot;
#X msg 611 215 1;
#X obj 555 222 delay 2000;
#X msg 555 247 0;
#X obj 878 10 glocal/glocal.receive RJ_SCENE;
#X connect 3 0 4 1;
#X connect 4 0 5 0;
#X connect 4 0 2 1;
#X connect 5 0 4 1;
#X connect 6 0 9 0;
#X connect 7 0 15 0;
#X connect 8 0 6 0;
#X connect 8 1 19 0;
#X connect 8 1 7 1;
#X connect 9 0 7 0;
#X connect 9 1 24 0;
#X connect 10 0 52 0;
#X connect 11 0 10 0;
#X connect 12 0 11 0;
#X connect 13 0 14 2;
#X connect 14 0 17 0;
#X connect 15 0 48 0;
#X connect 16 0 31 0;
#X connect 17 0 16 0;
#X connect 17 1 2 3;
#X connect 18 0 14 0;
#X connect 19 0 45 0;
#X connect 24 0 45 0;
#X connect 26 0 37 0;
#X connect 28 0 29 0;
#X connect 28 0 32 0;
#X connect 29 0 26 0;
#X connect 30 0 26 0;
#X connect 31 0 27 0;
#X connect 31 1 3 0;
#X connect 31 2 30 0;
#X connect 32 0 33 0;
#X connect 33 0 34 0;
#X connect 34 0 26 0;
#X connect 35 0 36 0;
#X connect 35 1 2 0;
#X connect 35 2 4 0;
#X connect 36 0 26 0;
#X connect 37 0 35 0;
#X connect 38 0 40 0;
#X connect 39 0 38 0;
#X connect 42 0 43 0;
#X connect 43 0 10 1;
#X connect 43 0 39 0;
#X connect 44 0 13 0;
#X connect 48 0 18 0;
#X connect 48 1 44 0;
#X connect 52 0 8 0;
#X connect 52 1 55 0;
#X connect 52 2 54 0;
#X connect 53 0 28 0;
#X connect 54 0 53 1;
#X connect 55 0 56 0;
#X connect 56 0 53 1;
#X connect 57 0 53 0;
#X restore 354 172 pd save_scene_into_datastructures;
#X obj 771 198 glocal/glocal.receive RJ_SCENE;
#X obj 735 125 glocal/glocal.send RJ_SCENE_RELOAD;
#X obj 514 332 glocal/glocal.send RJ_SCENE_SAVE;
#X connect 0 0 26 0;
#X connect 2 0 23 0;
#X connect 4 0 6 0;
#X connect 5 0 10 0;
#X connect 6 0 5 0;
#X connect 7 0 15 0;
#X connect 8 0 19 0;
#X connect 10 0 7 0;
#X connect 11 0 15 0;
#X connect 12 0 15 0;
#X connect 16 0 15 0;
#X connect 17 0 16 0;
#X connect 18 0 25 0;
#X connect 19 0 20 0;
#X connect 19 1 9 0;
#X connect 19 1 30 0;
#X connect 19 2 11 0;
#X connect 19 4 13 0;
#X connect 19 5 18 0;
#X connect 20 0 22 0;
#X connect 20 1 12 0;
#X connect 21 0 25 0;
#X connect 22 0 21 0;
#X connect 23 0 15 0;
#X connect 23 1 29 0;
#X connect 24 0 13 0;
#X connect 27 0 8 0;
#X connect 28 0 17 0;
#X restore 107 252 pd mecanisme_sauvegarde_presets_dans_data_structures
;
#N canvas 0 50 681 300 ctlin 0;
#X obj 163 219 s CTLIN;
#X obj 243 81 - 1;
#X obj 243 106 * 128;
#X obj 221 131 +;
#X obj 160 154 pack f f;
#X obj 160 36 ctlin;
#X connect 1 0 2 0;
#X connect 2 0 3 1;
#X connect 3 0 4 1;
#X connect 4 0 0 0;
#X connect 5 0 4 0;
#X connect 5 1 3 0;
#X connect 5 2 1 0;
#X restore 472 14 pd ctlin;
#N canvas 323 80 1150 566 remote 0;
#X floatatom 134 75 5 0 0 0 - - -;
#X msg 58 154 \; fx_freeverb-1 remote amp \$1;
#X text 217 37 systématiser l'utilisation du message remote;
#X floatatom 376 76 5 0 0 0 - - -;
#X msg 108 114 \; fx_freeverb-1 remote hall \$1;
#X msg 372 117 \; RJ_SCENE_LOAD fx_freeverb-1 hall \$1;
#X floatatom 379 149 5 0 0 0 - - -;
#X msg 383 169 \; audio_out-0 remote pan \$1;
#X msg 27 251 \; fx_ring-1 midi freq \$1;
#X obj 29 231 hsl 128 15 0 127 0 0 empty empty empty -2 -8 0 10 -262144
-1 -1 0 1;
#X text 54 213 commande midi sans passer par midimappings (ctlassign3)
;
#X obj 41 304 hsl 128 15 0 127 0 0 empty empty empty -2 -8 0 10 -262144
-1 -1 0 1;
#X msg 37 321 \; fx_ring-1 midi-ctl freq \$1;
#X text 277 334 module_loader -> midi_colors;
#X msg 47 421 \; audio_out-3 midi-ctl mute \$1;
#X obj 53 397 tgl 15 0 empty empty empty 17 7 0 10 -262144 -1 -1 0
1;
#X obj 343 397 tgl 15 0 empty empty empty 17 7 0 10 -262144 -1 -1 0
1;
#X msg 337 421 \; audio_out-3 remote mute \$1;
#X text 320 374 modifier directement la valeur dans u_dispatch;
#X text 804 250 OBSOLETE;
#X obj 303 447 tgl 15 0 empty empty empty 17 7 0 10 -262144 -1 -1 0
1;
#X msg 297 471 \; RJ_SCENE_LOAD audio_out-3 mute \$1;
#X text 287 254 module_loader -> ui_vs (tous les ui_vs reçoivent ce
message);
#X text 582 481 tous les modules reçoivent ce message ?;
#X msg 720 42 \; fx_ring-1 get_params foufou;
#X obj 716 69 r foufou;
#X obj 716 99 print foufou;
#X text 715 11 obtenir les range de tous les params d'un module;
#X text 858 85 (implémenté dans ui_vs \, devrat être implémenté
dans midi_colors);
#X connect 0 0 4 0;
#X connect 3 0 5 0;
#X connect 6 0 7 0;
#X connect 9 0 8 0;
#X connect 11 0 12 0;
#X connect 15 0 14 0;
#X connect 16 0 17 0;
#X connect 20 0 21 0;
#X connect 25 0 26 0;
#X restore 717 51 pd remote;
#X msg 684 527 \; RJ_SCENE_PRELOAD bang \; RJ_SCENE_RELOAD bang \;
RJ_SCENE_LOAD bang \; RJ_SCENE_POSTLOAD bang \; REFRESH_CONNEXIONS
bang;
#X obj 731 501 r RESET;
#X obj 640 462 loadbang;
#X obj 640 488 delay 1000;
#X obj 947 443 module_loader main \$0;
#X obj 994 201 declare -path pdr/core;
#X obj 994 221 declare -path pdr/core/stuff;
#X obj 994 241 declare -path pdr/core/rj;
#X msg 107 275 \; RJ_SCENE_LOAD fx_dattorroverb-0 slot 16 \; RJ_SCENE_LOAD
fx_dattorroverb-0 fbgain 0.835724 \; RJ_SCENE_LOAD fx_dattorroverb-0
damping 0.80938 \; RJ_SCENE_LOAD fx_dattorroverb-0 bandwidth 0.61195
\; RJ_SCENE_LOAD fx_dattorroverb-0 predel 48.2311 \; RJ_SCENE_LOAD
fx_dattorroverb-0 wet 0.38636 \; RJ_SCENE_LOAD note_interpol-0 fifo_enable
1 \; RJ_SCENE_LOAD note_interpol-0 transpose 15 \; RJ_SCENE_LOAD note_interpol-0
scaling 1 \; RJ_SCENE_LOAD note_interpol-0 pivot 75 \; RJ_SCENE_LOAD
note_interpol-0 slot 13 \; RJ_SCENE_LOAD note_interpol-0 direct 1 \;
RJ_SCENE_LOAD midi_arpeggiator-1 raccent 0 \; RJ_SCENE_LOAD midi_arpeggiator-1
_bpm 120 \; RJ_SCENE_LOAD midi_arpeggiator-1 clock_synchro 0 \; RJ_SCENE_LOAD
midi_arpeggiator-1 oct 2 \; RJ_SCENE_LOAD midi_arpeggiator-1 slot 14
\; RJ_SCENE_LOAD midi_arpeggiator-1 prob 0.999214 \; RJ_SCENE_LOAD
midi_arpeggiator-1 duration 123.893 \; RJ_SCENE_LOAD midi_arpeggiator-1
beat 3 \; RJ_SCENE_LOAD audio_in-4 slot 11 \; RJ_SCENE_LOAD audio_in-4
module-slot 0 \; RJ_SCENE_LOAD audio_in-4 mute 0 \; RJ_SCENE_LOAD audio_in-4
gain 9 \; RJ_SCENE_LOAD audio_in-4 in IN1 \; RJ_SCENE_LOAD audio_out-4
slot 17 \; RJ_SCENE_LOAD audio_out-4 pan 0 \; RJ_SCENE_LOAD audio_out-4
mute 0 \; RJ_SCENE_LOAD audio_out-4 vol 68.3381 \; RJ_SCENE_LOAD audio_out-4
out OUT(1/2) \; RJ_SCENE_LOAD inst_bassdrum-1 slot 15 \; RJ_SCENE_LOAD
inst_bassdrum-1 gain 6.3778 \; RJ_SCENE_LOAD inst_bassdrum-1 decay
561.804 \; RJ_SCENE_LOAD inst_bassdrum-1 freq2 38.8351 \; RJ_SCENE_LOAD
inst_bassdrum-1 square 0.308576 \; RJ_SCENE_LOAD inst_bassdrum-1 curve
2.93823 \; RJ_SCENE_LOAD inst_bassdrum-1 noize 0.553191 \; RJ_SCENE_LOAD
inst_bassdrum-1 lowpass 3753.77 \; RJ_SCENE_LOAD audio_features-1 slot
12 \; RJ_SCENE_LOAD audio_features-1 seuil 52.2727 \; RJ_SCENE_LOAD
audio_features-1 send_data 1 \; RJ_SCENE_LOAD ctl-assign fx_formant-0
vowels 4 0 127 lin \; RJ_SCENE_LOAD ctl-assign data_cyclogroove-0 mul2
3 0.0416 24 log \; RJ_SCENE_LOAD ctl-assign data_cyclogroove-0 mul1
2 0.0416 24 log \; RJ_SCENE_LOAD ctl-assign inst_pvoc-0 pos 1 0 1 lin
\; RJ_SCENE_LOAD ctl-assign inst_pvoc-0 vol 8 0 127 lin \; SSSAD_ADMIN
set \;;
#X connect 1 0 12 0;
#X connect 5 0 4 0;
#X connect 6 0 7 0;
#X connect 7 0 4 0;
#X coords 0 809 1 808 360 300 0;
#X restore 943 665 pd sauvegarde datastructures;
#X obj 1350 137 declare -path ../../core;
#X obj 1350 157 declare -path ../../core/stuff;
#X obj 1350 177 declare -path ../../core/rj;
#X connect 134 0 135 0;
#X connect 136 0 133 0;
#X connect 137 0 138 0;
#X connect 138 0 136 0;
#X connect 162 0 167 0;
#X connect 163 0 161 0;
#X connect 173 0 171 0;
#X coords 0 0 1 1 815 800 1 -5 0;
