#N canvas 793 202 565 482 10;
#X declare -path ../../core;
#X declare -path ../../core/stuff;
#X declare -path ../../core/rj;
#X obj 311 97 module_loader PdRacks.latency \$0 \$11;
#N canvas 0 50 576 577 latence 0;
#X obj 83 224 delay 2000;
#X obj 324 303 line~;
#X obj 275 357 *~;
#X obj 251 331 osc~ 3000;
#X obj 177 145 spigot;
#X obj 93 247 t b b b;
#X msg 246 112 1;
#X obj 174 183 t b b;
#X msg 268 145 0;
#X obj 63 296 timer;
#X obj 78 44 bp~ 3000 100;
#X obj 159 109 bng 15 250 50 0 empty empty empty 17 7 0 10 -262144
-1 -1;
#X obj 86 14 inlet~;
#X msg 211 37 set 0.001 200 0.0008 100;
#X obj 174 83 threshold~ 0.01 200 0.008 100;
#X msg 312 276 1 \, 0 30;
#X obj 58 199 t b;
#X obj 101 402 s LATENCY;
#X msg 144 483 BIP;
#X obj 28 124 inlet;
#X obj 257 393 outlet~;
#X obj 97 524 symbol;
#X obj 97 549 outlet;
#X msg 52 446 Attendre_SVP...;
#X msg 221 496 LATENCE=\$1;
#X obj 356 413 r LATENCY;
#X obj 95 331 s \$0-latency;
#X obj 100 368 r \$0-latency;
#X obj 356 471 s \$0-latency;
#X obj 356 436 change;
#X connect 0 0 5 0;
#X connect 1 0 2 1;
#X connect 2 0 20 0;
#X connect 3 0 2 0;
#X connect 4 0 7 0;
#X connect 5 0 9 0;
#X connect 5 1 15 0;
#X connect 5 2 6 0;
#X connect 5 2 18 0;
#X connect 6 0 4 1;
#X connect 7 0 9 1;
#X connect 7 1 8 0;
#X connect 8 0 4 1;
#X connect 9 0 26 0;
#X connect 10 0 14 0;
#X connect 12 0 10 0;
#X connect 13 0 14 0;
#X connect 14 0 4 0;
#X connect 14 0 11 0;
#X connect 15 0 1 0;
#X connect 16 0 0 0;
#X connect 16 0 23 0;
#X connect 18 0 21 0;
#X connect 19 0 16 0;
#X connect 21 0 22 0;
#X connect 23 0 21 0;
#X connect 24 0 21 0;
#X connect 25 0 24 0;
#X connect 25 0 29 0;
#X connect 27 0 17 0;
#X connect 29 0 28 0;
#X restore 143 225 pd latence;
#X obj 111 143 bng 15 250 50 0 empty empty empty 17 7 0 10 -262144
-1 -1;
#X obj 225 197 adc~;
#X obj 230 267 dac~;
#X obj 150 154 cnv 15 120 15 empty \$0-latence_display-rcv LATENCE=24.4898
2 8 0 12 -233017 -66577 0;
#X msg 116 291 label \$1;
#X obj 117 328 s \$0-latence_display-rcv;
#X obj 221 141 nbx 5 14 0 200 0 0 \$0-latency \$0-latency-rcv LATENCY(ms)
-70 7 0 10 -262144 -1 -1 0 256;
#X obj 312 123 u_parameter \$0 latency;
#X obj 771 99 namecanvas \$0-this;
#X obj 769 76 triggered_loadbang \$0-this;
#X text 764 26 manually trigger loadbang if the instance of abstraction
is created dynamically, f 29;
#X obj 414 65 savestate;
#X obj 574 48 declare -path ../../core;
#X obj 574 68 declare -path ../../core/stuff;
#X obj 574 88 declare -path ../../core/rj;
#X connect 0 0 9 0;
#X connect 0 1 13 0;
#X connect 1 0 6 0;
#X connect 1 1 4 0;
#X connect 1 1 4 1;
#X connect 2 0 1 0;
#X connect 3 0 1 1;
#X connect 3 1 1 1;
#X connect 6 0 7 0;
#X connect 13 0 0 1;
#X connect 13 1 0 2;
#X coords 0 -1 1 1 190 70 1 100 100;
