#N canvas 440 369 1085 840 16;
#X obj 93 133 hsl 128 30 0 1 0 0 \$0-morph \$0-morph-rcv A<--------->B
10 15 0 14 -204786 -1 -1 0 1;
#X obj 84 180 bng 20 250 50 0 MORPH-setA empty A 4 10 0 10 -261234
-1 -1;
#X obj 85 204 bng 20 250 50 0 MORPH-setB empty B 4 10 0 10 -261234
-1 -1;
#X text 260 142 Curseur d'interpolation entre les réglages A et B
;
#X text 131 179 Capture de l'instantané A;
#X text 131 199 Capture de l'instantané B;
#X text 64 30 PdRacks.morphing;
#X text 86 94 Permet l'interpolation en live entre deux valeurs de
réglages distinctes (instantanés);
#N canvas 0 50 450 300 TO_DO 0;
#X text 40 87 TO DO : interpolation entre 3/4 instantanés;
#X restore 460 238 pd TO_DO;
#X text 45 252 TODO : imaginer une matrice entre presets et A / B;
#X text 154 292 1 2 3 4 5 6 7 8;
#X text 139 307 1;
#X text 139 317 2;
#X text 139 327 3;
#X text 139 337 4;
#X text 139 347 5;
#X text 139 357 6;
#X text 139 367 7;
#X text 139 377 8;
#X text 144 280 A->;
#X text 134 280 B;
#X text 134 291 |;
#X text 134 296 V;
#X obj 371 323 PdRacks.morphing;
#X obj 698 180 fx_ring;
#X text 177 450 comment;
#X coords 0 840 1 839 190 70 0;
