#N struct comment float x float y float color text FR text EN text
IT;
#N canvas 731 239 890 740 12;
#X text 67 376 configuration audio (nb d'entrées/sorties \, noms des
bus);
#X text 35 481 Autres modules de service (facultatifs);
#X text 35 562 * PdRacks.morphing : gestion du morphing entre 2 instantanés
de réglages pour tous les modules du patch. Attention : ces 2 instantanés
ne sont pas sauvegardés avec la scène.;
#X text 34 512 * PdRacks.transport : métronome \, tempo \, commandes
play / stop \, synchro externe / ableton_link (expérimental) \, pour
tous les modules nécessitant une référence de temps commune.;
#X text 34 608 * PdRacks.midilearn : gestion des mappings avec des
contrôleurs externes (messages CTLIN uniquement) \, interface 'show_midi_devices'
pour afficher rapidement les périphériques midi disponibles;
#X text 34 671 * PdRacks.midi : pour mapper des événements noteon
/ off externes vers des messages CTLIN \, afin ensuite de contrôler
certains paramètres des modules avec ces déclencheurs noteON/OFF.
;
#X obj 43 105 PdRacks.savestate;
#A saved scene_name ;
#X text 30 267 PdRacks.savestate contient tous les éléments globaux
(variables \, tableaux \, text define \, send~/receive~) permettant
une utilisation en standalone (statique) des modules de PdRacks. C'est
le module prérequis pour pouvoir utiliser le reste.;
#X text 66 425 rappel / sauvegarde des réglages de scène;
#X text 19 349 Il assure les fonctions suivantes :;
#X scalar comment 412 669.866 200 \; !!! necessite pd 0.49 car il utilise
l'objet savestate \; !!! needs pd 0.49 and savestate object \; \\\;
\;;
#X obj 1 2 cnv 15 800 50 empty empty PdRacks.savestate 20 14 0 20 -232576
-66577 0;
#N canvas 0 50 450 300 language 0;
#X obj 465 49 r LANGUAGE;
#X obj 358 186 drawtext FR 0 0 color;
#X obj 676 203 drawtext IT 0 0 color;
#X obj 430 214 drawtext EN 0 0 color;
#X obj 532 -10 struct comment float x float y float color text FR text
EN text IT;
#X obj 157 132 route click;
#X msg 95 249 0;
#X obj 37 351 text get -s comment FR;
#X msg 14 300 click;
#X obj 211 462 route updated;
#X obj 37 623 text set -s comment FR;
#X msg 136 521 0;
#X msg 357 508 close;
#X obj 25 569 text get \$0-popup;
#X obj 20 479 text set \$0-popup;
#X obj 24 408 text define \$0-popup;
#X obj 293 631 text set -s comment EN;
#X obj 546 622 text set -s comment IT;
#X msg 155 295 clear;
#X obj 81 206 t b b p b p p;
#X obj 270 351 text get -s comment EN;
#X obj 503 347 text get -s comment IT;
#X obj 281 561 text get \$0-popup;
#X obj 540 556 text get \$0-popup;
#X msg 285 529 1;
#X msg 544 524 2;
#X obj 455 393 t b b b b b b b;
#X msg 206 587 0;
#X msg 362 598 0;
#X msg 616 590 0;
#X msg 70 445 10;
#X obj 76 280 t f f f;
#X obj 274 0 r COMMENT_EDIT;
#X msg 278 28 set \$1;
#X obj 165 62 spigot;
#X obj 831 312 loadbang;
#X obj 1252 526 r \$0-lang;
#X obj 1191 620 s LANGUAGE;
#X obj 1242 282 r LANGUAGE;
#X msg 1242 380 set \$1;
#X obj 1242 415 s \$0-lang-rcv;
#X obj 971 512 textfile;
#X msg 969 202 clear \, add \$1 \, write lang.settings.txt;
#X msg 837 411 read lang.settings.txt \, rewind \, bang;
#X obj 837 350 v LANGUAGE;
#X obj 1242 311 - 1;
#X obj 1252 555 + 1;
#X obj 837 379 select 0;
#X obj 361 151 == 1;
#X obj 466 145 == 2;
#X obj 593 143 == 3;
#X obj 971 121 r \$0-lang;
#X obj 975 165 + 1;
#X obj 1 1 cnv 15 198 48 empty empty empty 20 12 0 14 -202995 -66577
0;
#X obj 74 3 vradio 15 1 0 3 \$0-lang \$0-lang-rcv empty 0 -8 0 10 -262144
-1 -1 0;
#X text 90 0 FR;
#X scalar comment 0.0134478 -0.952926 0 \; LANGUE \; LANGUAGE \; LINGUA
\;;
#X text 90 31 IT;
#X text 90 16 EN;
#X obj 4 30 tgl 15 0 COMMENT_EDIT empty Edit 17 7 0 10 -262144 -1 -1
0 1;
#X connect 0 0 48 0;
#X connect 0 0 49 0;
#X connect 0 0 50 0;
#X connect 4 0 34 0;
#X connect 5 0 19 0;
#X connect 6 0 31 0;
#X connect 7 0 14 0;
#X connect 8 0 15 0;
#X connect 9 0 26 0;
#X connect 11 0 13 0;
#X connect 12 0 15 0;
#X connect 13 0 10 0;
#X connect 15 1 9 0;
#X connect 18 0 15 0;
#X connect 19 0 8 0;
#X connect 19 2 6 0;
#X connect 19 3 18 0;
#X connect 19 3 30 0;
#X connect 19 4 7 3;
#X connect 19 4 20 3;
#X connect 19 4 21 3;
#X connect 19 5 10 3;
#X connect 19 5 16 3;
#X connect 19 5 17 3;
#X connect 20 0 14 0;
#X connect 21 0 14 0;
#X connect 22 0 16 0;
#X connect 23 0 17 0;
#X connect 24 0 22 0;
#X connect 25 0 23 0;
#X connect 26 0 12 0;
#X connect 26 1 11 0;
#X connect 26 2 24 0;
#X connect 26 3 25 0;
#X connect 26 4 27 0;
#X connect 26 5 28 0;
#X connect 26 6 29 0;
#X connect 27 0 10 1;
#X connect 28 0 16 1;
#X connect 29 0 17 1;
#X connect 30 0 14 1;
#X connect 31 0 21 0;
#X connect 31 1 20 0;
#X connect 31 2 7 0;
#X connect 32 0 33 0;
#X connect 32 0 34 1;
#X connect 33 0 59 0;
#X connect 34 0 5 0;
#X connect 35 0 44 0;
#X connect 36 0 46 0;
#X connect 38 0 45 0;
#X connect 39 0 40 0;
#X connect 41 0 37 0;
#X connect 42 0 41 0;
#X connect 43 0 41 0;
#X connect 44 0 47 0;
#X connect 45 0 39 0;
#X connect 46 0 37 0;
#X connect 47 0 43 0;
#X connect 48 0 1 0;
#X connect 49 0 3 0;
#X connect 50 0 2 0;
#X connect 51 0 52 0;
#X connect 52 0 42 0;
#X coords 0 -1 1 1 200 50 2 0 0;
#X restore 599 2 pd language;
#X obj 43 155 PdRacks.savestate;
#A saved scene_name ;
#X obj 43 205 PdRacks.savestate;
#A saved scene_name ;
#X coords 0 740 1 739 190 70 0;
