#N struct mappings float y symbol module_name symbol param_name float
ccnum float min float max symbol mapping;
#N canvas 381 286 845 615 16;
#X declare -path pdr/modules/basic;
#X obj 26 345 midi_notein;
#A saved midi_chan 1;
#A saved factor 127;
#A saved power 1;
#X obj 25 434 inst_rhodey;
#A saved vol 101;
#A saved tone 0.440945;
#A saved decay 2102.66;
#X obj 25 509 dac~;
#X text 25 117 1) Select a midi-in device with pure data menus.;
#X text 33 287 3) You can then click on any orange button/slider to
assign it to your physical knob;
#X text 246 346 4) You can change mapping values by clicking on [Edit_Mappings]
;
#X obj 737 357 bng 30 250 50 0 \$0-mappings empty Edit_Mappings...
-80 20 0 10 -261682 -1 -1;
#X text 34 242 2) click on midi-learn toogle. Move your hardware midi
controler knob. You will see his cc-channel displayed.;
#X obj 35 140 cnv 15 240 100 empty empty empty 20 12 0 14 -262130 -66577
0;
#X obj 55 154 PdRacks.midilearn;
#A saved preset_saving 0;
#X text 277 162 <-- OR you can click here. (needs mediasettings externals)
, f 31;
#X text 244 398 5) To remove a physical assignment \, click midi-learn
and click immediately (dont touch any physical knob) to the gui-widget
you want to de-assignate \, or click Edit_Mappings and click on one
red X of the mapping-list to cancel it.;
#X text 247 491 6) Save your patch.;
#X text 245 524 If you want to store different mappings \, you can
store them in PdRacks.savestate modules. Just check-in the Save_in_presets
box, f 44;
#X obj 622 568 tgl 15 0 \$0-enable_preset_saving \$0-enable_preset_saving-rcv
Save_in_presets 17 7 0 10 -262144 -1 -1 0 1;
#X obj 1 0 cnv 15 800 50 empty empty PdRacks.midilearn 20 14 0 20 -232576
-66577 0;
#N canvas 0 50 450 300 \$0-PdRacks.declare 0;
#X obj 10 10 declare -path pdr/modules/basic;
#X obj 10 60 pdr/core/stuff/u_glocal.enable \$0;
#X restore 588 88 pd \$0-PdRacks.declare;
#X text 56 57 [PdRacks.midilearn] lets you map hardware midi controls
to parameters of your modules.;
#X connect 0 2 1 2;
#X connect 1 0 2 0;
#X connect 1 1 2 1;
