#N canvas 673 79 711 569 10;
#X declare -path ../../core;
#X declare -path ../../core/stuff;
#X declare -path ../../core/rj;
#N canvas 0 50 663 300 mesure_latence 0;
#N canvas 0 50 576 577 latence 0;
#X obj 83 224 delay 2000;
#X obj 324 303 line~;
#X obj 275 357 *~;
#X obj 251 331 osc~ 3000;
#X obj 177 145 spigot;
#X obj 93 247 t b b b;
#X msg 246 112 1;
#X obj 174 183 t b b;
#X msg 268 145 0;
#X obj 63 296 timer;
#X obj 78 44 bp~ 3000 100;
#X obj 159 109 bng 15 250 50 0 empty empty empty 17 7 0 10 -262144
-1 -1;
#X obj 86 14 inlet~;
#X msg 211 37 set 0.001 200 0.0008 100;
#X obj 174 83 threshold~ 0.01 200 0.008 100;
#X msg 312 276 1 \, 0 30;
#X obj 58 199 t b;
#X obj 36 341 s LATENCY;
#X msg 161 340 set \$1;
#X obj 76 371 s LATENCY-rcv;
#X msg 144 483 BIP;
#X obj 28 124 inlet;
#X obj 257 393 outlet~;
#X obj 97 524 symbol;
#X obj 97 549 outlet;
#X msg 52 446 Attendre_SVP...;
#X msg 221 496 LATENCE=\$1;
#X obj 271 457 r LATENCY;
#X connect 0 0 5 0;
#X connect 1 0 2 1;
#X connect 2 0 22 0;
#X connect 3 0 2 0;
#X connect 4 0 7 0;
#X connect 5 0 9 0;
#X connect 5 1 15 0;
#X connect 5 2 6 0;
#X connect 5 2 20 0;
#X connect 6 0 4 1;
#X connect 7 0 9 1;
#X connect 7 1 8 0;
#X connect 8 0 4 1;
#X connect 9 0 17 0;
#X connect 9 0 18 0;
#X connect 10 0 14 0;
#X connect 12 0 10 0;
#X connect 13 0 14 0;
#X connect 14 0 4 0;
#X connect 14 0 11 0;
#X connect 15 0 1 0;
#X connect 16 0 0 0;
#X connect 16 0 25 0;
#X connect 18 0 19 0;
#X connect 20 0 23 0;
#X connect 21 0 16 0;
#X connect 23 0 24 0;
#X connect 25 0 23 0;
#X connect 26 0 23 0;
#X connect 27 0 26 0;
#X restore 143 185 pd latence;
#X obj 101 103 bng 15 250 50 0 empty empty empty 17 7 0 10 -262144
-1 -1;
#X obj 225 157 adc~;
#X obj 230 227 dac~;
#X obj 150 114 cnv 15 120 15 empty \$0-latence_display-rcv LATENCE=111.565
2 8 0 12 -233017 -66577 0;
#X msg 130 212 label \$1;
#X obj 130 237 s \$0-latence_display-rcv;
#X obj 221 101 nbx 5 14 0 200 0 1 LATENCY LATENCY-rcv LATENCY(ms) -70
7 0 10 -262144 -1 -1 111.565 256;
#X connect 0 0 5 0;
#X connect 0 1 3 0;
#X connect 0 1 3 1;
#X connect 1 0 0 0;
#X connect 2 0 0 1;
#X connect 2 1 0 1;
#X connect 5 0 6 0;
#X coords 0 -1 1 1 180 30 2 100 100;
#X restore 100 140 pd mesure_latence;
#N canvas 0 57 1920 1023 init_scene 0;
#X msg 37 155 bang;
#X text 177 161 output all lines starting from current one to next
waiting point, f 34;
#X obj 29 211 text sequence scene_preset;
#X obj 116 7 loadbang;
#X obj 29 233 list trim;
#X obj 264 62 s pd;
#X msg 249 29 dsp 1;
#X obj 26 21 inlet;
#X obj 116 29 delay 100;
#X msg 191 97 clear;
#X obj 155 59 t b b;
#X obj 155 81 delay 10;
#X obj 96 75 t b b;
#X msg 76 188 line 0;
#X obj 97 108 text size scene_preset;
#X obj 97 131 select 0;
#X obj 29 255 glocal/glocal.send RJ_SCENE_LOAD;
#X obj 223 133 glocal/glocal.send PdRacks.define.midi-mapping;
#X obj 305 101 glocal/glocal.send ctl-assign3.GLOBAL;
#X connect 0 0 2 0;
#X connect 2 0 4 0;
#X connect 3 0 6 0;
#X connect 3 0 8 0;
#X connect 4 0 16 0;
#X connect 6 0 5 0;
#X connect 7 0 10 0;
#X connect 8 0 10 0;
#X connect 9 0 17 0;
#X connect 9 0 18 0;
#X connect 10 0 11 0;
#X connect 10 1 9 0;
#X connect 11 0 12 0;
#X connect 12 0 0 0;
#X connect 12 1 14 0;
#X connect 13 0 2 0;
#X connect 14 0 15 0;
#X connect 15 1 13 0;
#X restore 261 235 pd init_scene;
#X obj 241 115 bng 25 250 50 0 empty empty RECALL 3 13 0 12 -4034 -1
-1;
#X obj 61 464 text delete scene_preset;
#X msg 30 425 -1;
#X obj 87 518 text set scene_preset;
#X msg 244 441 1e+06;
#X obj 80 435 t l b;
#X obj 203 115 bng 25 250 50 0 empty empty SAVE 3 13 0 12 -258113 -1
-1;
#X text 225 100 SCENE;
#X obj 295 382 iemguts/sendcanvas 1;
#X msg 326 277 dirty 1;
#X obj 239 314 delay 1000;
#X msg 239 336 menusave;
#X obj 38 26 loadbang;
#X msg 38 47 1;
#X obj 36 68 v PdRacks;
#X obj 492 225 r ping-r;
#X obj 492 248 s ping-s;
#X obj 532 346 loadbang;
#X obj 535 373 f \$0;
#X obj 535 395 v PdRacks.DollarZero;
#X obj 17 322 glocal/glocal.send RJ_SCENE_SAVE;
#X msg 36 282 save;
#X obj 81 375 glocal/glocal.receive RJ_SCENE;
#X text 539 420 ????????????;
#X obj 81 398 spigot;
#X obj 156 230 t b b b b b b;
#X msg 223 266 1;
#X msg 140 274 0;
#X obj 407 119 onlyone AUDIO_BUS PdRacks.audio_bus;
#X obj 601 79 namecanvas \$0-this;
#X obj 599 56 triggered_loadbang \$0-this;
#X text 594 6 manually trigger loadbang if the instance of abstraction
is created dynamically, f 29;
#X obj 394 8 declare -path ../../core;
#X obj 394 28 declare -path ../../core/stuff;
#X obj 394 48 declare -path ../../core/rj;
#X connect 2 0 1 0;
#X connect 4 0 3 0;
#X connect 6 0 5 1;
#X connect 7 0 5 0;
#X connect 7 1 6 0;
#X connect 8 0 27 0;
#X connect 11 0 10 0;
#X connect 12 0 13 0;
#X connect 12 0 29 0;
#X connect 13 0 10 0;
#X connect 14 0 15 0;
#X connect 15 0 16 0;
#X connect 17 0 18 0;
#X connect 19 0 20 0;
#X connect 20 0 21 0;
#X connect 23 0 22 0;
#X connect 24 0 26 0;
#X connect 26 0 7 0;
#X connect 27 0 12 0;
#X connect 27 2 23 0;
#X connect 27 3 28 0;
#X connect 27 4 4 0;
#X connect 27 5 11 0;
#X connect 28 0 26 1;
#X connect 29 0 26 1;
#X coords 0 -1 1 1 190 70 1 100 100;
