#N canvas 25 98 846 501 10;
#X declare -path ../../core;
#X declare -path ../../core/stuff;
#X declare -path ../../core/rj;
#N canvas 0 50 765 598 ctlin 0;
#X obj 342 280 s SPEED_LIM;
#X msg 303 252 0;
#X msg 359 255 20;
#X obj 243 81 - 1;
#X obj 243 106 * 128;
#X obj 221 131 +;
#X obj 102 176 pack f f;
#X obj 351 26 notein;
#X obj 429 112 ==;
#X obj 327 206 spigot;
#X msg 32 17 \$2 \$1 \$3;
#X obj 21 57 unpack f f f;
#X obj 328 144 pack f f 1;
#X obj 436 151 r \$0-note2cc_chan_out;
#X obj 451 59 r \$0-note2cc_chan_in;
#X obj 323 178 spigot;
#X obj 509 119 r \$0-note2cc_enable;
#X obj 108 229 glocal/glocal.send CTLIN;
#X connect 1 0 0 0;
#X connect 2 0 0 0;
#X connect 3 0 4 0;
#X connect 4 0 5 1;
#X connect 5 0 6 1;
#X connect 6 0 17 0;
#X connect 7 0 12 0;
#X connect 7 1 12 1;
#X connect 7 2 8 0;
#X connect 8 0 9 1;
#X connect 9 0 10 0;
#X connect 10 0 11 0;
#X connect 11 0 6 0;
#X connect 11 1 5 0;
#X connect 11 2 3 0;
#X connect 12 0 15 0;
#X connect 13 0 12 2;
#X connect 14 0 8 1;
#X connect 15 0 9 0;
#X connect 16 0 15 1;
#X restore 21 33 pd ctlin;
#X obj 455 272 u_parameter \$0 note2cc_enable;
#X obj 455 222 u_parameter \$0 note2cc_chan_in;
#X obj 456 247 u_parameter \$0 note2cc_chan_out;
#X text 191 134 NOTEIN AS CTL;
#X obj 175 135 tgl 15 0 \$0-note2cc_enable \$0-note2cc_enable-rcv empty
20 7 0 10 -262144 -1 -1 0 1;
#X floatatom 176 152 5 0 0 0 Channel_in #0-note2cc_chan_in-rcv #0-note2cc_chan_in
;
#X floatatom 247 152 5 1 128 0 out #0-note2cc_chan_out-rcv #0-note2cc_chan_out
;
#X obj 455 189 module_loader PdRacks.midi \$0 \$1;
#X obj 771 99 namecanvas \$0-this;
#X obj 769 76 triggered_loadbang \$0-this;
#X text 764 26 manually trigger loadbang if the instance of abstraction
is created dynamically, f 29;
#X obj 602 148 savestate;
#X obj 524 29 declare -path ../../core;
#X obj 524 49 declare -path ../../core/stuff;
#X obj 524 69 declare -path ../../core/rj;
#X connect 2 0 3 0;
#X connect 3 0 1 0;
#X connect 8 0 2 0;
#X connect 8 1 12 0;
#X connect 12 0 8 1;
#X connect 12 1 8 2;
#X coords 0 -1 1 1 190 70 1 100 100;
