#N struct mappings float y symbol module_name symbol param_name float
ccnum float min float max symbol mapping;
#N canvas 426 341 1077 489 10;
#X declare -path ../../core;
#X declare -path ../../core/stuff;
#X declare -path ../../core/rj;
#X obj 260 140 bng 30 250 50 0 \$0-mappings empty Edit_Mappings...
-80 20 0 10 -261682 -1 -1;
#X obj 100 123 tgl 30 0 \$0-midi_learn \$0-midi_learn-rcv midi-learn(1:cc13)
2 7 0 10 -261682 -1 -1 0 1;
#N canvas 1075 205 656 229 \$0-midi_devices 0;
#X obj 307 12 bng 20 250 50 0 empty empty REFRESH 22 7 0 10 -262144
-1 -1;
#X text 111 13 MIDI IN;
#X text 433 15 MIDI OUT;
#N canvas 0 57 1920 1023 stuff 0;
#X obj 14 175 loadbang;
#N canvas 0 57 1920 1023 midi-devices-parsing 0;
#X obj 37 37 inlet;
#X obj 121 169 mediasettings/midisettings;
#X obj 121 194 route devicelist;
#X obj 121 219 route in out;
#X obj 283 115 t b b;
#X obj 121 244 route float;
#X obj 203 274 list;
#X msg 203 299 \$2 \$1;
#X obj 291 244 route float;
#X msg 257 362 1e+06;
#X obj 216 328 t l b;
#X msg 373 299 \$2 \$1;
#X msg 427 362 1e+06;
#X obj 386 328 t l b;
#X msg 343 147 clear;
#X obj 373 274 list;
#X msg 103 340 \; \$2-midi-in \$1;
#X msg 73 360 \; \$2-midi-out \$1;
#X msg 372 102 \; midi-in-global clear \; midi-out-global clear;
#X obj 295 37 inlet;
#X obj 97 474 text define \$0-midi-in;
#X obj 315 476 text define \$0-midi-out;
#X obj 210 398 text set \$0-midi-in;
#X obj 380 398 text set \$0-midi-out;
#X connect 0 0 4 0;
#X connect 1 0 2 0;
#X connect 2 0 3 0;
#X connect 3 0 5 0;
#X connect 3 1 8 0;
#X connect 4 0 1 0;
#X connect 4 1 14 0;
#X connect 4 1 18 0;
#X connect 5 1 6 0;
#X connect 6 0 7 0;
#X connect 6 0 16 0;
#X connect 7 0 10 0;
#X connect 8 1 15 0;
#X connect 9 0 22 1;
#X connect 10 0 22 0;
#X connect 10 1 9 0;
#X connect 11 0 13 0;
#X connect 12 0 23 1;
#X connect 13 0 23 0;
#X connect 13 1 12 0;
#X connect 14 0 20 0;
#X connect 14 0 21 0;
#X connect 15 0 11 0;
#X connect 15 0 17 0;
#X connect 19 0 1 0;
#X restore 26 237 pd midi-devices-parsing;
#X obj 544 145 list prepend add2;
#X obj 551 179 list trim;
#X msg 504 333;
#X obj 435 45 r midi-in-feedback;
#X obj 863 143 list prepend add2;
#X obj 863 168 list trim;
#X msg 735 334;
#X obj 784 35 r midi-out-feedback;
#X obj 785 116 route clear;
#X obj 463 118 route clear;
#X obj 434 239 t b;
#X obj 666 372 list append;
#X obj 434 289 t b b b b b b;
#X obj 404 374 list append;
#X obj 405 456 list append;
#X obj 208 504 list trim;
#X obj 645 231 loadbang;
#X text 619 605 get available devices for current driver;
#X obj 158 572 list prepend midi-dialog;
#X obj 158 594 list trim;
#X obj 158 616 s pd;
#X msg 542 534 1 0 0 0 0 0 0 0 0 3 1 0 0 0 0 0 0 0 2 4;
#X msg 194 195 device @out 1;
#X msg 734 281 set;
#X msg 602 280 set;
#X obj 210 451 list append 2 4;
#X obj 404 399 list append 0 0 0 0 0 0 0 0 0;
#X obj 404 424 list split 9;
#X obj 669 402 list append 0 0 0 0 0 0 0 0 0;
#X obj 669 427 list split 9;
#X obj 210 476 list prepend set;
#X msg 159 535 1 0 0 0 0 0 0 0 0 1 0 0 0 0 0 0 0 0 2 4;
#X obj 434 264 delay 100;
#X obj 156 97 r \$0-refresh;
#X obj 156 392 delay 2000;
#N canvas 0 50 1210 622 saving_state 0;
#X obj 211 109 r midi-out-save_device;
#X obj 61 206 r midi-out-feedback;
#X obj 61 231 route clear;
#X msg 179 258 set;
#X obj 196 346 s midi-out-recall_device;
#X obj 179 308 list;
#X msg 252 218 add2 \$2 \$1 \, addcomma;
#X msg 203 285 /dev/midi2 0 \,;
#X obj 581 231 route clear;
#X msg 699 258 set;
#X obj 699 308 list;
#X msg 772 218 add2 \$2 \$1 \, addcomma;
#X msg 723 285 /dev/midi2 0 \,;
#X obj 731 109 r midi-in-save_device;
#X obj 716 346 s midi-in-recall_device;
#X obj 581 206 r midi-in-feedback;
#X connect 0 0 6 0;
#X connect 1 0 2 0;
#X connect 2 0 3 0;
#X connect 3 0 7 0;
#X connect 5 0 4 0;
#X connect 6 0 7 0;
#X connect 7 0 5 0;
#X connect 8 0 9 0;
#X connect 9 0 12 0;
#X connect 10 0 14 0;
#X connect 11 0 12 0;
#X connect 12 0 10 0;
#X connect 13 0 11 0;
#X connect 15 0 8 0;
#X restore 893 294 pd saving_state;
#X obj 128 190 bng 15 250 50 0 empty empty empty 17 7 0 10 -262144
-1 -1;
#X connect 0 0 1 0;
#X connect 2 0 3 0;
#X connect 3 0 4 0;
#X connect 4 0 15 1;
#X connect 5 0 11 0;
#X connect 5 0 12 0;
#X connect 6 0 7 0;
#X connect 7 0 8 0;
#X connect 8 0 13 1;
#X connect 9 0 10 0;
#X connect 9 0 12 0;
#X connect 10 0 25 0;
#X connect 10 1 6 0;
#X connect 11 0 26 0;
#X connect 11 1 2 0;
#X connect 12 0 34 0;
#X connect 13 0 30 0;
#X connect 14 0 15 0;
#X connect 14 0 36 0;
#X connect 14 1 4 0;
#X connect 14 2 15 1;
#X connect 14 3 13 0;
#X connect 14 4 8 0;
#X connect 14 5 13 1;
#X connect 15 0 28 0;
#X connect 16 0 27 0;
#X connect 17 0 33 0;
#X connect 18 0 26 0;
#X connect 18 0 25 0;
#X connect 20 0 21 0;
#X connect 21 0 22 0;
#X connect 23 0 20 0;
#X connect 24 0 1 1;
#X connect 25 0 8 0;
#X connect 26 0 4 0;
#X connect 27 0 32 0;
#X connect 28 0 29 0;
#X connect 29 0 16 0;
#X connect 30 0 31 0;
#X connect 31 0 16 1;
#X connect 32 0 17 0;
#X connect 33 0 20 0;
#X connect 34 0 14 0;
#X connect 35 0 1 0;
#X connect 36 0 33 0;
#X connect 38 0 1 0;
#X restore 561 10 pd stuff;
#X obj 336 39 u_item midi-out 1;
#X obj 336 105 u_item midi-out 4;
#X obj 336 61 u_item midi-out 2;
#X obj 23 61 u_item midi-in 3;
#X obj 23 39 u_item midi-in 1;
#X obj 23 83 u_item midi-in 2;
#X obj 336 83 u_item midi-out 3;
#X obj 23 105 u_item midi-in 4;
#X obj 23 127 u_item midi-in 5;
#X obj 23 149 u_item midi-in 6;
#X obj 23 171 u_item midi-in 7;
#X obj 23 193 u_item midi-in 8;
#X obj 336 127 u_item midi-out 5;
#X obj 336 149 u_item midi-out 6;
#X obj 336 171 u_item midi-out 7;
#X obj 336 193 u_item midi-out 8;
#X restore 419 116 pd \$0-midi_devices;
#X obj 260 110 bng 30 250 50 0 empty empty show_midi_devices... -100
7 0 10 -262144 -1 -1;
#X msg 186 243 vis 1;
#X obj 186 265 s pd-\$0-midi_devices;
#X obj 19 48 onlyone FWDCTLIN fwd_ctlin;
#N canvas 139 108 1920 1023 midi-learn 0;
#X msg 153 493 showLastUsed \$1;
#X msg 181 423 0;
#X obj 18 504 route lastUsed;
#X obj 148 366 select 1 0;
#X msg 70 263 set 0;
#X obj 420 588 select -1;
#X obj 420 706 list append;
#X obj 417 610 t b b;
#X obj 605 683 t b f;
#X msg 685 698 -1;
#X obj 368 644 delay 1;
#X obj 743 676 loadbang;
#X msg 519 687 1e+06;
#X obj 510 381 pack f f;
#X obj 517 178 swap;
#X obj 476 535 list append -1;
#X obj 423 504 t l l;
#X obj 20 526 list;
#X obj 34 556 t b l;
#X obj 148 444 t f b;
#X obj 14 600 delay 30;
#X obj 163 616 delay 10;
#X floatatom 147 299 5 0 0 0 CTL - -;
#X obj 295 404 == 0;
#X text 293 422 ne pas transmettre les midi ctl quand on est en mode
midilearn, f 21;
#X obj 510 402 spigot 1;
#X msg 166 685 line 0 \, step;
#X obj 130 805 delay 10;
#X msg 306 687 step;
#X obj 34 308 bng 30 250 50 0 empty empty refresh -17 22 0 10 -262144
-1 -1;
#X msg 17 642 clear;
#X msg 361 834 0;
#X obj 153 762 t b l l;
#X obj 214 794 spigot;
#X msg 252 744 \$3;
#X obj 266 772 >= 0;
#X text 252 205 1 click "midilearn";
#X text 252 225 2 move midi ctrl;
#X text 252 245 3 click gui slider;
#X text 414 204 Pour supprimer une affectation \, sauter l'etape 2
, f 17;
#X obj 100 314 tgl 30 0 empty empty midi-learn 2 7 0 10 -262144 -1
-1 0 1;
#X text 22 387 couleur du mode midilearn -->, f 15;
#N canvas 0 50 998 439 dynamic-ctl-assign3-populating 0;
#X obj 166 124 f;
#X obj 253 138 + 1;
#X msg 203 100 0;
#X obj 153 54 t f b;
#X obj 185 194 * 20;
#X obj 136 91 until;
#X obj 128 228 + 20;
#X obj 187 169 t f f f;
#X obj 249 201 + 1;
#X obj 94 22 inlet;
#X obj 398 303 s pd-edit_midi_mappings;
#X obj 132 300 s pd-\$0-dynamic-ctl-assign;
#X obj 377 137 f \$0;
#X obj 191 227 pack f f f;
#X msg 191 249 obj 0 \$1 ctl-assign3 \$2 \\\$0 \, connect \$2 0 \$3
0;
#X msg 465 193 clear \, obj 0 0 r \\\$0-MIDI_CTL_IN;
#X connect 0 0 1 0;
#X connect 0 0 7 0;
#X connect 1 0 0 1;
#X connect 2 0 0 1;
#X connect 3 0 5 0;
#X connect 3 1 2 0;
#X connect 3 1 12 0;
#X connect 3 1 15 0;
#X connect 4 0 6 0;
#X connect 5 0 0 0;
#X connect 6 0 13 0;
#X connect 7 0 4 0;
#X connect 7 1 13 1;
#X connect 7 2 8 0;
#X connect 8 0 13 2;
#X connect 9 0 3 0;
#X connect 13 0 14 0;
#X connect 14 0 11 0;
#X connect 15 0 11 0;
#X restore 638 157 pd dynamic-ctl-assign3-populating;
#X obj 207 910 list append;
#X obj 227 877 t b f;
#X obj 207 938 send;
#X obj 228 853 f;
#X obj 229 824 t b a;
#X obj 269 857 + 1;
#X msg 638 130 100;
#X text 824 261 <- stockage dynamique des affectations midi;
#X text 685 130 <- spécifier le nombre max d'affectations midi simultanées
;
#X text 643 351 le message showLastUsed <color> envoyé sur le canal
RACK_ADMIN est reçu par les modules midi-colors (pour chaque élément
gui). Dès qu'un élément gui est activé par la souris \, il renvoie
un message lastUsed sur ce même canal RACK_ADMIN \, et la liste midi-mapping
est mise à jour.;
#N canvas 54 174 808 472 sauvegarde_affectation_midi_dans_scènes 0
;
#X obj 488 20 r RJ_SCENE_SAVE;
#X obj 28 196 list trim;
#X obj 33 228 route ctl-assign;
#X msg 25 96 clear;
#X text 17 2 Chargement d'une scène :;
#X text 9 21 1) réinitialiser l'objet text define "midi-mapping";
#X text 12 137 2) insérer les lignes ctl-assign;
#X msg 145 314 -1;
#X obj 145 290 loadbang;
#X msg 79 293 1e+06;
#X obj 44 266 t a b;
#X obj 40 306 list;
#X text 17 385 3) valider;
#X obj 169 186 t a b;
#X obj 210 408 s \$0-refresh;
#X text 463 71 se fait à l'intérieur des modules ctl-assign3;
#X text 463 48 Sauvegarde d'une scène :;
#X obj 44 345 text set \$0-midi-mapping;
#X obj 27 43 glocal/glocal.receive RJ_SCENE_RELOAD;
#X obj 230 131 glocal/glocal.receive RJ_SCENE_LOAD;
#X obj 210 218 delay 10;
#X obj 26 119 s \$0-midi-mapping;
#X obj 181 70 r \$0-enable_preset_saving;
#X obj 269 159 r \$0-enable_preset_saving;
#X obj 199 164 spigot 1;
#X obj 27 66 spigot 1;
#X obj 509 222 r \$0-reset;
#X obj 509 245 t b b;
#X connect 1 0 2 0;
#X connect 2 0 10 0;
#X connect 3 0 21 0;
#X connect 7 0 17 2;
#X connect 8 0 7 0;
#X connect 9 0 17 1;
#X connect 10 0 11 0;
#X connect 10 1 9 0;
#X connect 11 0 17 0;
#X connect 13 0 1 0;
#X connect 13 1 20 0;
#X connect 18 0 25 0;
#X connect 19 0 24 0;
#X connect 20 0 14 0;
#X connect 22 0 25 1;
#X connect 23 0 24 1;
#X connect 24 0 13 0;
#X connect 25 0 3 0;
#X connect 26 0 27 0;
#X connect 27 0 14 0;
#X connect 27 1 3 0;
#X restore 747 440 pd sauvegarde_affectation_midi_dans_scènes;
#X obj 90 573 r \$0-refresh;
#X msg 192 242 set \$1;
#X obj 410 247 change;
#X obj 397 474 list split 2;
#N canvas 552 70 603 300 edition_mapping(experimental) 0;
#X text 18 11 ctln;
#X text 111 12 affectation;
#X text 252 10 minvalue;
#X text 350 12 maxvalue;
#N canvas 1264 153 815 534 mappings 0;
#X text 444 140 module_name;
#X text 488 202 param_name;
#X obj 243 66 struct mappings float y symbol module_name symbol param_name
float ccnum float min float max symbol mapping;
#X obj 51 129 filledpolygon 840 0 3 0 0 100 0 100 20 0 20 0 0;
#X obj 52 156 drawsymbol module_name 2 2 0;
#X obj 71 509 filledpolygon 840 0 3 500 0 600 0 600 20 500 20 500 0
;
#X obj 71 548 drawsymbol mapping 502 2 0;
#X obj 54 206 filledpolygon 640 0 3 100 0 200 0 200 20 100 20 100 0
;
#X obj 52 236 drawsymbol param_name 102 2 0;
#X obj 51 279 filledpolygon 460 0 3 200 0 300 0 300 20 200 20 200 0
;
#X obj 51 318 drawnumber ccnum 202 2 0;
#X obj 61 359 filledpolygon 246 0 3 300 0 400 0 400 20 300 20 300 0
;
#X obj 62 386 drawnumber min 302 2 0;
#X obj 61 429 filledpolygon 428 0 3 400 0 500 0 500 20 400 20 400 0
;
#X obj 61 468 drawnumber max 402 2 0;
#X restore 180 108 pd mappings;
#N canvas 0 50 718 219 mappings_edit 0;
#X scalar mappings 76 fx_dubdel-2 del 42 289 3023 log \;;
#X text 18 23 module param cc min max type;
#X scalar mappings 146 fx_dubdel-2 wet 53 0 100 lin \;;
#X restore 349 134 pd mappings_edit;
#X msg 84 166 traverse pd-mappings_edit \, bang;
#X obj 108 199 pointer;
#X obj 59 241 append mappings y;
#X msg 31 208 10;
#X connect 6 0 7 0;
#X connect 7 0 8 1;
#X connect 9 0 8 0;
#X restore 935 565 pd edition_mapping(experimental);
#X obj 579 641 list append;
#X obj 970 283 r \$0-mappings;
#X obj 165 662 select 0;
#X obj 242 587 list split 2;
#X obj 255 560 t l l;
#X obj 522 149 unpack f f;
#X obj 421 280 t f f;
#X obj 480 292 mod 128;
#X obj 421 305 div 128;
#X obj 429 349 pack f f;
#X obj 421 330 + 1;
#X msg 315 370 label midi-learn(\$1:cc\$2);
#X obj 151 314 bng 30 250 50 0 \$0-mappings empty Mappings... 2 7 0
10 -262144 -1 -1;
#N canvas 669 122 752 256 \$0-dynamic-ctl-assign 1;
#X obj 0 0 r \$0-MIDI_CTL_IN;
#X obj 0 20 ctl-assign3 0 \$0;
#X obj 0 40 ctl-assign3 1 \$0;
#X obj 0 60 ctl-assign3 2 \$0;
#X obj 0 80 ctl-assign3 3 \$0;
#X obj 0 100 ctl-assign3 4 \$0;
#X obj 0 120 ctl-assign3 5 \$0;
#X obj 0 140 ctl-assign3 6 \$0;
#X obj 0 160 ctl-assign3 7 \$0;
#X obj 0 180 ctl-assign3 8 \$0;
#X obj 0 200 ctl-assign3 9 \$0;
#X obj 0 220 ctl-assign3 10 \$0;
#X obj 0 240 ctl-assign3 11 \$0;
#X obj 0 260 ctl-assign3 12 \$0;
#X obj 0 280 ctl-assign3 13 \$0;
#X obj 0 300 ctl-assign3 14 \$0;
#X obj 0 320 ctl-assign3 15 \$0;
#X obj 0 340 ctl-assign3 16 \$0;
#X obj 0 360 ctl-assign3 17 \$0;
#X obj 0 380 ctl-assign3 18 \$0;
#X obj 0 400 ctl-assign3 19 \$0;
#X obj 0 420 ctl-assign3 20 \$0;
#X obj 0 440 ctl-assign3 21 \$0;
#X obj 0 460 ctl-assign3 22 \$0;
#X obj 0 480 ctl-assign3 23 \$0;
#X obj 0 500 ctl-assign3 24 \$0;
#X obj 0 520 ctl-assign3 25 \$0;
#X obj 0 540 ctl-assign3 26 \$0;
#X obj 0 560 ctl-assign3 27 \$0;
#X obj 0 580 ctl-assign3 28 \$0;
#X obj 0 600 ctl-assign3 29 \$0;
#X obj 0 620 ctl-assign3 30 \$0;
#X obj 0 640 ctl-assign3 31 \$0;
#X obj 0 660 ctl-assign3 32 \$0;
#X obj 0 680 ctl-assign3 33 \$0;
#X obj 0 700 ctl-assign3 34 \$0;
#X obj 0 720 ctl-assign3 35 \$0;
#X obj 0 740 ctl-assign3 36 \$0;
#X obj 0 760 ctl-assign3 37 \$0;
#X obj 0 780 ctl-assign3 38 \$0;
#X obj 0 800 ctl-assign3 39 \$0;
#X obj 0 820 ctl-assign3 40 \$0;
#X obj 0 840 ctl-assign3 41 \$0;
#X obj 0 860 ctl-assign3 42 \$0;
#X obj 0 880 ctl-assign3 43 \$0;
#X obj 0 900 ctl-assign3 44 \$0;
#X obj 0 920 ctl-assign3 45 \$0;
#X obj 0 940 ctl-assign3 46 \$0;
#X obj 0 960 ctl-assign3 47 \$0;
#X obj 0 980 ctl-assign3 48 \$0;
#X obj 0 1000 ctl-assign3 49 \$0;
#X obj 0 1020 ctl-assign3 50 \$0;
#X obj 0 1040 ctl-assign3 51 \$0;
#X obj 0 1060 ctl-assign3 52 \$0;
#X obj 0 1080 ctl-assign3 53 \$0;
#X obj 0 1100 ctl-assign3 54 \$0;
#X obj 0 1120 ctl-assign3 55 \$0;
#X obj 0 1140 ctl-assign3 56 \$0;
#X obj 0 1160 ctl-assign3 57 \$0;
#X obj 0 1180 ctl-assign3 58 \$0;
#X obj 0 1200 ctl-assign3 59 \$0;
#X obj 0 1220 ctl-assign3 60 \$0;
#X obj 0 1240 ctl-assign3 61 \$0;
#X obj 0 1260 ctl-assign3 62 \$0;
#X obj 0 1280 ctl-assign3 63 \$0;
#X obj 0 1300 ctl-assign3 64 \$0;
#X obj 0 1320 ctl-assign3 65 \$0;
#X obj 0 1340 ctl-assign3 66 \$0;
#X obj 0 1360 ctl-assign3 67 \$0;
#X obj 0 1380 ctl-assign3 68 \$0;
#X obj 0 1400 ctl-assign3 69 \$0;
#X obj 0 1420 ctl-assign3 70 \$0;
#X obj 0 1440 ctl-assign3 71 \$0;
#X obj 0 1460 ctl-assign3 72 \$0;
#X obj 0 1480 ctl-assign3 73 \$0;
#X obj 0 1500 ctl-assign3 74 \$0;
#X obj 0 1520 ctl-assign3 75 \$0;
#X obj 0 1540 ctl-assign3 76 \$0;
#X obj 0 1560 ctl-assign3 77 \$0;
#X obj 0 1580 ctl-assign3 78 \$0;
#X obj 0 1600 ctl-assign3 79 \$0;
#X obj 0 1620 ctl-assign3 80 \$0;
#X obj 0 1640 ctl-assign3 81 \$0;
#X obj 0 1660 ctl-assign3 82 \$0;
#X obj 0 1680 ctl-assign3 83 \$0;
#X obj 0 1700 ctl-assign3 84 \$0;
#X obj 0 1720 ctl-assign3 85 \$0;
#X obj 0 1740 ctl-assign3 86 \$0;
#X obj 0 1760 ctl-assign3 87 \$0;
#X obj 0 1780 ctl-assign3 88 \$0;
#X obj 0 1800 ctl-assign3 89 \$0;
#X obj 0 1820 ctl-assign3 90 \$0;
#X obj 0 1840 ctl-assign3 91 \$0;
#X obj 0 1860 ctl-assign3 92 \$0;
#X obj 0 1880 ctl-assign3 93 \$0;
#X obj 0 1900 ctl-assign3 94 \$0;
#X obj 0 1920 ctl-assign3 95 \$0;
#X obj 0 1940 ctl-assign3 96 \$0;
#X obj 0 1960 ctl-assign3 97 \$0;
#X obj 0 1980 ctl-assign3 98 \$0;
#X obj 0 2000 ctl-assign3 99 \$0;
#X obj 176 1 bng 15 250 50 0 \$0-reset empty !!!_RESET_ALL_!!! 17 7
0 10 -262144 -1 -1;
#X connect 0 0 1 0;
#X connect 1 0 2 0;
#X connect 2 0 3 0;
#X connect 3 0 4 0;
#X connect 4 0 5 0;
#X connect 5 0 6 0;
#X connect 6 0 7 0;
#X connect 7 0 8 0;
#X connect 8 0 9 0;
#X connect 9 0 10 0;
#X connect 10 0 11 0;
#X connect 11 0 12 0;
#X connect 12 0 13 0;
#X connect 13 0 14 0;
#X connect 14 0 15 0;
#X connect 15 0 16 0;
#X connect 16 0 17 0;
#X connect 17 0 18 0;
#X connect 18 0 19 0;
#X connect 19 0 20 0;
#X connect 20 0 21 0;
#X connect 21 0 22 0;
#X connect 22 0 23 0;
#X connect 23 0 24 0;
#X connect 24 0 25 0;
#X connect 25 0 26 0;
#X connect 26 0 27 0;
#X connect 27 0 28 0;
#X connect 28 0 29 0;
#X connect 29 0 30 0;
#X connect 30 0 31 0;
#X connect 31 0 32 0;
#X connect 32 0 33 0;
#X connect 33 0 34 0;
#X connect 34 0 35 0;
#X connect 35 0 36 0;
#X connect 36 0 37 0;
#X connect 37 0 38 0;
#X connect 38 0 39 0;
#X connect 39 0 40 0;
#X connect 40 0 41 0;
#X connect 41 0 42 0;
#X connect 42 0 43 0;
#X connect 43 0 44 0;
#X connect 44 0 45 0;
#X connect 45 0 46 0;
#X connect 46 0 47 0;
#X connect 47 0 48 0;
#X connect 48 0 49 0;
#X connect 49 0 50 0;
#X connect 50 0 51 0;
#X connect 51 0 52 0;
#X connect 52 0 53 0;
#X connect 53 0 54 0;
#X connect 54 0 55 0;
#X connect 55 0 56 0;
#X connect 56 0 57 0;
#X connect 57 0 58 0;
#X connect 58 0 59 0;
#X connect 59 0 60 0;
#X connect 60 0 61 0;
#X connect 61 0 62 0;
#X connect 62 0 63 0;
#X connect 63 0 64 0;
#X connect 64 0 65 0;
#X connect 65 0 66 0;
#X connect 66 0 67 0;
#X connect 67 0 68 0;
#X connect 68 0 69 0;
#X connect 69 0 70 0;
#X connect 70 0 71 0;
#X connect 71 0 72 0;
#X connect 72 0 73 0;
#X connect 73 0 74 0;
#X connect 74 0 75 0;
#X connect 75 0 76 0;
#X connect 76 0 77 0;
#X connect 77 0 78 0;
#X connect 78 0 79 0;
#X connect 79 0 80 0;
#X connect 80 0 81 0;
#X connect 81 0 82 0;
#X connect 82 0 83 0;
#X connect 83 0 84 0;
#X connect 84 0 85 0;
#X connect 85 0 86 0;
#X connect 86 0 87 0;
#X connect 87 0 88 0;
#X connect 88 0 89 0;
#X connect 89 0 90 0;
#X connect 90 0 91 0;
#X connect 91 0 92 0;
#X connect 92 0 93 0;
#X connect 93 0 94 0;
#X connect 94 0 95 0;
#X connect 95 0 96 0;
#X connect 96 0 97 0;
#X connect 97 0 98 0;
#X connect 98 0 99 0;
#X connect 99 0 100 0;
#X restore 643 260 pd \$0-dynamic-ctl-assign;
#X obj 967 331 s pd-\$0-dynamic-ctl-assign;
#X msg 970 308 vis 1;
#X obj 491 749 text set \$0-midi-mapping;
#X obj 164 718 text sequence \$0-midi-mapping;
#X obj 163 639 text size \$0-midi-mapping;
#X obj 423 565 text search \$0-midi-mapping;
#X obj 15 141 text define \$0-midi-mapping;
#X obj 16 52 glocal/glocal.receive PdRacks.define.midi-mapping;
#X obj 292 902 list append \$0;
#X msg 262 936 symbol \$2-ctl-assign3-\$1;
#X obj -12 686 s \$0-ctl-assign3.GLOBAL;
#X obj 22 465 glocal/glocal.receive RACK_ADMIN;
#X obj 510 462 s \$0-MIDI_CTL_IN;
#X obj 255 539 r \$0-MIDI_MAPPING_REFRESH;
#X obj 152 517 glocal/glocal.send RACK_ADMIN;
#X obj 350 267 select -1;
#X msg 460 108 -1;
#X msg 265 331 label midi-learn;
#X msg 391 183 4;
#X obj 149 202 r \$0-midi_learn;
#X obj 236 295 s \$0-midi_learn-rcv;
#X obj 580 422 unpack f f;
#X floatatom 580 441 5 0 0 0 - - -;
#X floatatom 633 445 5 0 0 0 - - -;
#X obj 524 57 glocal/glocal.receive CTLIN;
#X obj 838 199 bng 15 250 50 0 \$0-reset empty !!!_RESET_ALL_!!! 17
7 0 10 -262144 -1 -1;
#X text 641 195 rajouter manuellement ce bang->;
#X obj 106 89 r \$0-enable_preset_saving;
#X obj 36 94 spigot 1;
#X msg 141 399 44.44;
#X connect 0 0 87 0;
#X connect 1 0 0 0;
#X connect 1 0 23 0;
#X connect 2 0 17 0;
#X connect 3 0 102 0;
#X connect 3 1 1 0;
#X connect 4 0 40 0;
#X connect 4 0 93 0;
#X connect 5 0 7 0;
#X connect 5 1 8 0;
#X connect 6 0 75 0;
#X connect 7 0 10 0;
#X connect 7 1 12 0;
#X connect 8 0 6 0;
#X connect 8 1 75 1;
#X connect 9 0 75 2;
#X connect 10 0 6 0;
#X connect 11 0 9 0;
#X connect 12 0 75 1;
#X connect 13 0 25 0;
#X connect 14 0 13 0;
#X connect 14 0 22 0;
#X connect 14 0 56 0;
#X connect 14 1 13 1;
#X connect 15 0 59 0;
#X connect 16 0 78 0;
#X connect 16 1 15 0;
#X connect 17 0 18 0;
#X connect 18 0 1 0;
#X connect 18 0 4 0;
#X connect 18 0 20 0;
#X connect 18 1 57 0;
#X connect 19 0 0 0;
#X connect 19 0 23 0;
#X connect 19 1 89 0;
#X connect 20 0 30 0;
#X connect 20 0 21 0;
#X connect 20 0 31 0;
#X connect 21 0 77 0;
#X connect 23 0 25 1;
#X connect 25 0 85 0;
#X connect 25 0 94 0;
#X connect 26 0 76 0;
#X connect 27 0 28 0;
#X connect 28 0 76 0;
#X connect 29 0 20 0;
#X connect 30 0 83 0;
#X connect 31 0 46 1;
#X connect 32 0 27 0;
#X connect 32 1 33 0;
#X connect 32 2 34 0;
#X connect 33 0 47 0;
#X connect 34 0 35 0;
#X connect 35 0 33 1;
#X connect 40 0 3 0;
#X connect 40 0 55 0;
#X connect 43 0 45 0;
#X connect 44 0 43 0;
#X connect 44 1 81 0;
#X connect 46 0 48 0;
#X connect 46 0 44 0;
#X connect 47 0 46 0;
#X connect 47 1 43 1;
#X connect 48 0 46 1;
#X connect 49 0 42 0;
#X connect 54 0 20 0;
#X connect 55 0 40 0;
#X connect 55 0 93 0;
#X connect 56 0 88 0;
#X connect 57 0 16 0;
#X connect 57 1 59 1;
#X connect 59 0 6 1;
#X connect 60 0 74 0;
#X connect 61 1 26 0;
#X connect 62 0 78 0;
#X connect 63 0 62 0;
#X connect 63 1 6 1;
#X connect 64 0 14 0;
#X connect 64 1 14 1;
#X connect 64 1 15 1;
#X connect 65 0 67 0;
#X connect 65 1 66 0;
#X connect 66 0 68 1;
#X connect 67 0 69 0;
#X connect 68 0 70 0;
#X connect 69 0 68 0;
#X connect 70 0 93 0;
#X connect 74 0 73 0;
#X connect 76 0 32 0;
#X connect 77 0 61 0;
#X connect 78 0 5 0;
#X connect 80 0 101 0;
#X connect 81 0 82 0;
#X connect 82 0 45 1;
#X connect 84 0 2 0;
#X connect 86 0 63 0;
#X connect 88 0 90 0;
#X connect 88 1 65 0;
#X connect 89 0 15 1;
#X connect 89 0 22 0;
#X connect 89 0 56 0;
#X connect 90 0 93 0;
#X connect 91 0 56 0;
#X connect 92 0 3 0;
#X connect 92 0 55 0;
#X connect 94 0 95 0;
#X connect 94 1 96 0;
#X connect 97 0 64 0;
#X connect 100 0 101 1;
#X connect 101 0 79 0;
#X connect 102 0 19 0;
#X coords 0 1023 1 1022 120 60 0;
#X restore 433 263 pd midi-learn;
#X obj 771 99 namecanvas \$0-this;
#X obj 769 76 triggered_loadbang \$0-this;
#X text 764 26 manually trigger loadbang if the instance of abstraction
is created dynamically, f 29;
#N canvas 940 126 712 662 savestate 0;
#X obj 255 346 outlet savestate;
#X obj 263 266 list;
#X text 53 -36 local statesaving (pd-0.49);
#X msg 371 121 getValuesInto savestate;
#X obj 263 243 route savestate;
#X obj 529 325 s \$0-savestate;
#X msg 104 102 0;
#X obj 134 78 delay 10;
#X msg 135 101 1;
#X obj 26 66 t l b;
#N canvas 0 50 1038 601 pipe 0;
#X obj 226 66 inlet;
#X obj 260 313 outlet;
#X obj 41 103 text define \$0-pipe;
#X obj 253 166 text insert \$0-pipe;
#X obj 280 112 t l b b;
#X msg 420 143 1;
#X msg 305 147 1e+07;
#X obj 405 261 text get \$0-pipe;
#X msg 398 194 0;
#X obj 321 204 t f f;
#X obj 260 235 text delete \$0-pipe;
#X obj 415 164 pipe f 20;
#X connect 0 0 4 0;
#X connect 4 0 3 0;
#X connect 4 1 6 0;
#X connect 4 2 5 0;
#X connect 5 0 11 0;
#X connect 6 0 3 1;
#X connect 7 0 1 0;
#X connect 8 0 9 0;
#X connect 9 0 10 0;
#X connect 9 1 7 0;
#X connect 11 0 8 0;
#X restore 14 147 pd pipe list 20;
#X obj 39 33 inlet savestate_outlet1;
#X obj 414 16 inlet savestate_outlet2;
#X text 112 150 delay messages after loadbang time, f 20;
#X text 195 78 block loadbang init messages if savestate data, f 27
;
#X obj 372 161 s \$0-SSSAD_ADMIN;
#X obj 263 220 r \$0-SSSAD_ADMIN;
#X msg 159 364 clear;
#X obj 160 387 s \$0-midi-mapping;
#X obj 139 212 change -1;
#X obj 165 272 select 0;
#X obj 38 486 list trim;
#X msg 155 604 -1;
#X obj 155 580 loadbang;
#X msg 89 583 1e+06;
#X obj 54 556 t a b;
#X obj 50 596 list;
#X text 27 675 3) valider;
#X obj 28 408 t a b;
#X obj 220 698 s \$0-refresh;
#X obj 54 635 text set \$0-midi-mapping;
#X obj 220 508 delay 10;
#X obj 357 534 s \$0-enable_preset_saving;
#X obj 418 58 t b b;
#X obj 545 194 f;
#X obj 547 144 r \$0-enable_preset_saving;
#X obj 43 518 route ctl-assign preset_saving;
#X obj 361 569 r \$0-enable_preset_saving;
#X msg 361 592 set \$1;
#X obj 361 619 s \$0-enable_preset_saving-rcv;
#X msg 531 241 list preset_saving \$1;
#X obj 511 446 spigot 1;
#X obj 507 412 loadbang;
#X obj 586 404 r \$0-savestate;
#X msg 511 469 0;
#X obj 7 616 print set\$0-midimapp;
#X connect 1 0 0 0;
#X connect 3 0 15 0;
#X connect 4 0 1 0;
#X connect 6 0 19 0;
#X connect 7 0 8 0;
#X connect 8 0 19 0;
#X connect 9 0 10 0;
#X connect 9 1 6 0;
#X connect 9 1 7 0;
#X connect 10 0 28 0;
#X connect 11 0 9 0;
#X connect 12 0 33 0;
#X connect 16 0 4 0;
#X connect 17 0 18 0;
#X connect 19 0 20 0;
#X connect 19 0 5 0;
#X connect 20 0 17 0;
#X connect 21 0 36 0;
#X connect 22 0 30 2;
#X connect 23 0 22 0;
#X connect 24 0 30 1;
#X connect 25 0 26 0;
#X connect 25 0 45 0;
#X connect 25 1 24 0;
#X connect 26 0 30 0;
#X connect 28 0 21 0;
#X connect 28 1 31 0;
#X connect 31 0 29 0;
#X connect 31 0 45 0;
#X connect 33 0 3 0;
#X connect 33 1 34 0;
#X connect 34 0 40 0;
#X connect 35 0 34 1;
#X connect 36 0 25 0;
#X connect 36 1 32 0;
#X connect 37 0 38 0;
#X connect 38 0 39 0;
#X connect 40 0 0 0;
#X connect 41 0 44 0;
#X connect 42 0 41 0;
#X connect 43 0 41 1;
#X connect 44 0 32 0;
#X restore 725 200 pd savestate;
#X obj 771 168 savestate;
#X obj 142 138 tgl 15 0 \$0-enable_preset_saving \$0-enable_preset_saving-rcv
Save_in_presets 17 7 0 10 -262144 -1 -1 0 1;
#X obj 615 259 r \$0-reset;
#X obj 615 282 print resert;
#X obj 534 8 declare -path ../../core;
#X obj 534 28 declare -path ../../core/stuff;
#X obj 534 48 declare -path ../../core/rj;
#X connect 3 0 4 0;
#X connect 4 0 5 0;
#X connect 11 0 12 0;
#X connect 12 0 11 0;
#X connect 12 1 11 1;
#X connect 14 0 15 0;
#X coords 0 -1 1 1 190 70 1 100 100;
