#N canvas 586 71 1030 699 12;
#X declare -path ../../core;
#X declare -path ../../core/stuff;
#X declare -path ../../core/rj;
#X obj 1054 119 namecanvas \$0-this;
#X obj 1047 93 triggered_loadbang \$0-this;
#X text 1040 23 manually trigger loadbang if the instance of abstraction
is created dynamically, f 29;
#X obj 846 214 savestate;
#X obj 678 257 module_loader pentablet2udp \$0 \$1;
#N canvas 128 366 1920 1023 \$0-hidio_wacom 0;
#X obj 46 120 hidio;
#X text 111 107 name of vendor + device;
#X text 47 12 linux mapper for wintablet behaviour;
#X obj 74 80 cnv 15 150 30 empty empty empty 20 12 0 14 -257985 -66577
0;
#X obj 401 253 ggee/shell;
#N canvas 0 50 450 300 commandes_terminal 0;
#X text 82 180 xinput float 16;
#X text 82 200 xinput float 17;
#X text 65 86 xinput -list;
#X text 85 245 xinput reattach 16 2;
#X text 83 264 xinput reattach 17 2;
#X text 176 118 Wacom Graphire4 4x5 Pen stylus;
#X text 176 138 Wacom Graphire4 4x5 Pen eraser;
#X text 36 70 1) lister peripheriques;
#X text 48 114 2) rechercher;
#X text 42 162 3) desactiver;
#X text 45 224 4) reactiver;
#X text 9 13 source : https://www.security-helpzone.com/2016/05/23/gnu-linux-debian-desactiver-un-composant-hardware-clavier-souris-sous-linux/
, f 62;
#X restore 588 622 pd commandes_terminal;
#X text 522 220 Disable wacom as mouse device;
#X msg 89 382 device not found;
#X msg 109 351 info;
#X msg 13 50 devices;
#X msg 400 227 xinput -list;
#X obj 401 285 list split 2;
#X obj 440 315 list trim;
#X obj 440 374 list split 3;
#X obj 457 415 list trim;
#X obj 88 182 select 0 1;
#X obj 217 222 route absolute;
#X obj 217 247 route x y;
#X msg 217 272 \$2;
#X msg 244 297 \$2;
#X obj 110 274 delay 1;
#X msg 81 51 info;
#X obj 128 240 spigot 1;
#X msg 142 325 0;
#X obj 176 322 delay 1000;
#X msg 176 347 1;
#X obj 110 301 t b b b;
#X obj 414 339 cnv 15 150 30 empty empty empty 20 12 0 14 -257985 -66577
0;
#X obj 440 344 route Wacom;
#X obj 87 414 print data_wintablet;
#X msg 311 137 close;
#X text 19 650 https://forum.pdpatchrepo.info/topic/10570/receive-pd-console-data
;
#X obj 784 172 tgl 50 0 empty empty device_opened 17 7 0 10 -262144
-1 -1 0 1;
#X obj 215 189 route range device product;
#X obj 309 303 list prepend set;
#X obj 314 334 list trim;
#X obj 509 82 cnv 15 150 30 empty empty empty 20 12 0 14 -257985 -66577
0;
#X msg 694 120 Wacom Graphire4 4x5 Pen;
#X obj 725 386 ggee/shell;
#X msg 724 360 xinput -list;
#X obj 725 411 print;
#X obj 448 458 route eraser stylus cursor pad;
#N canvas 0 50 450 300 shell(xinput_float_\$1) 0;
#X obj 132 25 inlet;
#X obj 139 147 list fromsymbol;
#X obj 130 72 list split 1;
#X obj 140 177 list split 3;
#X obj 178 204 list tosymbol;
#X msg 184 296 xinput float \$1;
#X obj 180 329 ggee/shell;
#X connect 0 0 2 0;
#X connect 1 0 3 0;
#X connect 2 0 1 0;
#X connect 3 1 4 0;
#X connect 4 0 5 0;
#X connect 5 0 6 0;
#X restore 447 495 pd shell(xinput_float_\$1);
#N canvas 0 50 450 300 shell(xinput_float_\$1) 0;
#X obj 132 25 inlet;
#X obj 139 147 list fromsymbol;
#X obj 130 72 list split 1;
#X obj 140 177 list split 3;
#X obj 178 204 list tosymbol;
#X msg 184 296 xinput float \$1;
#X obj 180 329 ggee/shell;
#X connect 0 0 2 0;
#X connect 1 0 3 0;
#X connect 2 0 1 0;
#X connect 3 1 4 0;
#X connect 4 0 5 0;
#X connect 5 0 6 0;
#X restore 495 520 pd shell(xinput_float_\$1);
#N canvas 0 50 450 300 shell(xinput_float_\$1) 0;
#X obj 132 25 inlet;
#X obj 139 147 list fromsymbol;
#X obj 130 72 list split 1;
#X obj 140 177 list split 3;
#X obj 178 204 list tosymbol;
#X msg 184 296 xinput float \$1;
#X obj 180 329 ggee/shell;
#X connect 0 0 2 0;
#X connect 1 0 3 0;
#X connect 2 0 1 0;
#X connect 3 1 4 0;
#X connect 4 0 5 0;
#X connect 5 0 6 0;
#X restore 543 547 pd shell(xinput_float_\$1);
#N canvas 0 50 450 300 shell(xinput_float_\$1) 0;
#X obj 132 25 inlet;
#X obj 139 147 list fromsymbol;
#X obj 130 72 list split 1;
#X obj 140 177 list split 3;
#X obj 178 204 list tosymbol;
#X msg 184 296 xinput float \$1;
#X obj 180 329 ggee/shell;
#X connect 0 0 2 0;
#X connect 1 0 3 0;
#X connect 2 0 1 0;
#X connect 3 1 4 0;
#X connect 4 0 5 0;
#X connect 5 0 6 0;
#X restore 608 576 pd shell(xinput_float_\$1);
#X text 464 435 disable tablet in OS;
#X msg 218 84 devices;
#X obj 313 45 select 1 0;
#X obj 89 152 route open devices;
#X text 507 727 Wacom Graphire4 4x5 Pen /dev/input/event19;
#X msg 302 77 clear;
#N canvas 0 50 450 300 fill_wacom_pens_&_pads_list 0;
#X obj 34 21 inlet;
#X obj 80 67 list split 1;
#X obj 125 105 list fromsymbol;
#X obj 134 273 list tosymbol;
#X obj 128 134 list split 5;
#X obj 173 181 list split 15;
#X obj 212 214 list split 3;
#X obj 132 243 list append;
#X obj 54 306 list prepend;
#X obj 54 331 list trim;
#X obj 54 356 route WacomPen WacomPad;
#X obj 49 387 t f b;
#X msg 92 404 1e+09;
#X obj 206 389 t f b;
#X msg 249 406 1e+09;
#X obj 40 428 text insert \$0-pens;
#X obj 196 429 text insert \$0-pads;
#X connect 0 0 1 0;
#X connect 1 0 8 0;
#X connect 1 1 2 0;
#X connect 2 0 4 0;
#X connect 3 0 8 1;
#X connect 4 0 7 0;
#X connect 4 1 5 0;
#X connect 5 1 6 0;
#X connect 6 0 7 1;
#X connect 7 0 3 0;
#X connect 8 0 9 0;
#X connect 9 0 10 0;
#X connect 10 0 11 0;
#X connect 10 1 13 0;
#X connect 11 0 15 0;
#X connect 11 1 12 0;
#X connect 12 0 15 1;
#X connect 13 0 16 0;
#X connect 13 1 14 0;
#X connect 14 0 16 1;
#X restore 130 598 pd fill_wacom_pens_&_pads_list;
#X msg 789 307 open \$1 \, 1;
#X obj 902 214 pipe f 100;
#X msg 871 409 open \$1 \, 1;
#X obj 873 462 hidio;
#X msg 279 403 color -1 -1 16;
#X msg 265 367 color -1 -1 13;
#X msg 1016 253 22;
#X obj 921 321 route bang;
#X obj 863 383 route bang;
#X obj 1142 90 t f b;
#X obj 1145 64 pipe f 100;
#X obj 1112 165 +;
#X obj 1112 185 mod;
#X msg 1106 141 1;
#X floatatom 1168 130 5 0 0 0 - - -;
#X obj 1152 183 + 1;
#X msg 1179 153 label .\$1.;
#X obj 176 213 bng 15 250 50 0 empty empty empty 17 7 0 10 -262144
-1 -1;
#X obj 256 60 t b b;
#X obj 579 38 print wintablet;
#X msg 483 11 refreshing devices list... \, done.;
#X msg 279 472 label;
#X obj 152 562 print DeviceList;
#X obj 300 97 text define \$0-pens;
#X obj 354 74 text define \$0-pads;
#X obj 902 189 r \$0-device_id;
#X obj 1101 211 s \$0-device_id;
#X obj 1032 27 r \$0-select_device;
#X obj 1145 46 r \$0-device_id;
#X obj 1168 113 text size \$0-pens;
#X obj 1193 174 s \$0-select_device-rcv;
#X obj 131 33 r \$0-refresh_devices;
#X obj 331 3 inlet;
#X obj 51 544 outlet pen_data;
#X obj 877 563 outlet pad_data;
#X obj 273 439 s \$0-select_device-rcv;
#X obj 278 18 route float refresh select;
#X obj 921 296 text get \$0-pens;
#X obj 870 357 text get \$0-pads;
#X obj 1094 547 select 0 1;
#X obj 1094 611 s \$0-color;
#X msg 1000 587 color 38 38;
#X msg 1091 586 color 65 65;
#X obj 558 121 route button;
#X obj 558 141 route button_0;
#X msg 558 160 \$2;
#X obj 1021 436 t b b;
#X msg 1064 487 1;
#X msg 1021 486 0;
#X obj 1021 511 change;
#X obj 1021 461 delay 100;
#X connect 0 0 86 0;
#X connect 0 0 96 0;
#X connect 0 0 99 0;
#X connect 0 1 49 0;
#X connect 4 0 11 0;
#X connect 7 0 29 0;
#X connect 8 0 0 0;
#X connect 9 0 0 0;
#X connect 10 0 4 0;
#X connect 11 1 12 0;
#X connect 12 0 28 0;
#X connect 13 1 14 0;
#X connect 14 0 41 0;
#X connect 15 0 7 0;
#X connect 15 0 58 0;
#X connect 15 0 70 0;
#X connect 15 1 22 0;
#X connect 15 1 57 0;
#X connect 16 0 17 0;
#X connect 17 0 18 0;
#X connect 17 1 19 0;
#X connect 20 0 26 0;
#X connect 21 0 0 0;
#X connect 22 0 20 0;
#X connect 23 0 22 1;
#X connect 24 0 25 0;
#X connect 25 0 22 1;
#X connect 26 0 8 0;
#X connect 26 1 23 0;
#X connect 26 1 24 0;
#X connect 26 2 10 0;
#X connect 28 0 13 0;
#X connect 30 0 0 0;
#X connect 33 0 16 0;
#X connect 33 2 34 0;
#X connect 34 0 35 0;
#X connect 35 0 37 0;
#X connect 38 0 40 0;
#X connect 39 0 38 0;
#X connect 41 0 42 0;
#X connect 41 1 43 0;
#X connect 41 2 44 0;
#X connect 41 3 45 0;
#X connect 47 0 0 0;
#X connect 48 0 71 0;
#X connect 48 1 30 0;
#X connect 49 0 15 0;
#X connect 49 0 32 0;
#X connect 49 1 52 0;
#X connect 49 1 75 0;
#X connect 49 2 33 0;
#X connect 51 0 76 0;
#X connect 51 0 77 0;
#X connect 53 0 0 0;
#X connect 54 0 90 0;
#X connect 54 0 91 0;
#X connect 55 0 56 0;
#X connect 56 0 87 0;
#X connect 56 0 99 0;
#X connect 57 0 88 0;
#X connect 58 0 88 0;
#X connect 59 0 90 0;
#X connect 60 1 53 0;
#X connect 61 1 55 0;
#X connect 62 0 64 1;
#X connect 62 0 68 0;
#X connect 62 1 82 0;
#X connect 63 0 62 0;
#X connect 64 0 65 0;
#X connect 65 0 79 0;
#X connect 66 0 64 0;
#X connect 68 0 69 0;
#X connect 69 0 83 0;
#X connect 71 0 47 0;
#X connect 71 1 51 0;
#X connect 71 1 73 0;
#X connect 73 0 72 0;
#X connect 74 0 88 0;
#X connect 78 0 54 0;
#X connect 80 0 66 0;
#X connect 81 0 63 0;
#X connect 82 0 65 1;
#X connect 82 0 67 0;
#X connect 84 0 71 0;
#X connect 85 0 89 0;
#X connect 89 0 48 0;
#X connect 89 1 71 0;
#X connect 89 2 66 0;
#X connect 90 0 60 0;
#X connect 91 0 61 0;
#X connect 92 0 94 0;
#X connect 92 1 95 0;
#X connect 94 0 93 0;
#X connect 95 0 93 0;
#X connect 96 0 97 0;
#X connect 97 0 98 0;
#X connect 99 0 103 0;
#X connect 99 1 100 0;
#X connect 100 0 102 0;
#X connect 101 0 102 0;
#X connect 102 0 92 0;
#X connect 103 0 101 0;
#X restore 154 299 pd \$0-hidio_wacom;
#X obj 100 118 cnv 10 188 50 empty \$0-color empty 20 12 0 14 -228992
-66577 0;
#X obj 271 102 bng 15 250 50 0 \$0-refresh_devices \$0-select_device-rcv
.1. 0 7 0 10 -1 -1 -258699;
#X msg 256 221 refresh;
#X msg 156 229 select;
#X obj 154 322 list prepend send pen;
#X obj 314 322 list prepend send pad;
#X obj 173 351 list trim;
#X obj 232 433 netsend -u;
#X obj 161 121 bng 15 250 50 0 empty empty select 17 7 0 10 -262144
-1 -1;
#X symbolatom 103 151 26 0 0 2 ip #0-ip-rcv #0-ip;
#X obj 678 279 u_parameter \$0 ip;
#X obj 465 110 r \$0-ip;
#X obj 538 109 r \$0-port;
#X obj 443 142 list append;
#X obj 445 165 list append;
#X obj 346 104 select 1 0;
#X obj 349 159 delay 100;
#X msg 411 238 connect \$1 \$2;
#X msg 374 198 disconnect;
#X msg 375 37 connect 10.105.16.148 5678;
#X floatatom 236 132 7 0 0 0 port #0-port-rcv #0-port;
#X obj 676 305 u_dispatch \$0 device_id;
#X obj 678 355 u_parameter \$0 port;
#X obj 664 537 outlet;
#X obj 257 486 +;
#X obj 678 385 u_parameter \$0 connect;
#X obj 328 54 r \$0-connect;
#X obj 303 465 r \$0-connect;
#X msg 320 604 1;
#X obj 119 588 s \$0-connect-rcv;
#X obj 111 432 select 0 1 2;
#X msg 94 548 color \$1 \$1 -1;
#X msg 111 457 13;
#X msg 144 483 14;
#X msg 193 493 16;
#X obj 456 80 bng 15 250 50 0 empty empty empty 17 7 0 10 -262144 -1
-1;
#X floatatom 257 511 5 0 0 0 - - -;
#X obj 320 629 s \$0-connect-rcv;
#X floatatom 328 79 5 0 0 0 - - -;
#X obj 343 515 select 1;
#X obj 302 574 delay 2000;
#X obj 349 548 bng 15 250 50 0 empty empty empty 17 7 0 10 -262144
-1 -1;
#X obj 191 388 spigot;
#X obj 678 410 u_parameter \$0 onoff;
#X obj 26 165 r \$0-onoff;
#X obj 26 190 select 1 0;
#X msg 45 224 stop;
#X msg 25 295 1;
#X msg 96 253 0;
#X msg 363 126 stop;
#X obj 103 121 tgl 15 0 \$0-onoff \$0-onoff-rcv on/off 17 7 0 10 -262144
-1 -1 0 1;
#X obj 119 136 tgl 15 0 \$0-connect \$0-connect-rcv connect 17 7 0
10 -258699 -258699 -1 0 1;
#X obj 25 270 delay 50;
#X obj 714 8 declare -path ../../core;
#X obj 714 28 declare -path ../../core/stuff;
#X obj 714 48 declare -path ../../core/rj;
#X connect 3 0 4 1;
#X connect 3 1 4 2;
#X connect 4 0 16 0;
#X connect 4 1 3 0;
#X connect 5 0 10 0;
#X connect 5 1 11 0;
#X connect 8 0 5 0;
#X connect 9 0 5 0;
#X connect 10 0 12 0;
#X connect 11 0 12 0;
#X connect 12 0 29 0;
#X connect 12 0 48 0;
#X connect 13 0 30 0;
#X connect 13 0 48 1;
#X connect 14 0 9 0;
#X connect 16 0 27 0;
#X connect 17 0 19 1;
#X connect 18 0 20 1;
#X connect 19 0 20 0;
#X connect 20 0 23 0;
#X connect 21 0 22 0;
#X connect 21 0 39 0;
#X connect 21 1 24 0;
#X connect 21 1 55 0;
#X connect 21 1 38 0;
#X connect 22 0 19 0;
#X connect 23 0 13 0;
#X connect 24 0 13 0;
#X connect 27 0 28 0;
#X connect 28 0 31 0;
#X connect 30 0 36 0;
#X connect 30 0 42 0;
#X connect 30 0 45 0;
#X connect 31 0 49 0;
#X connect 32 0 21 0;
#X connect 32 0 44 0;
#X connect 33 0 30 1;
#X connect 34 0 43 0;
#X connect 36 0 38 0;
#X connect 36 1 39 0;
#X connect 36 2 40 0;
#X connect 37 0 35 0;
#X connect 38 0 37 0;
#X connect 39 0 37 0;
#X connect 40 0 37 0;
#X connect 41 0 19 0;
#X connect 45 0 46 0;
#X connect 45 0 47 0;
#X connect 46 0 34 0;
#X connect 48 0 13 0;
#X connect 50 0 51 0;
#X connect 51 0 58 0;
#X connect 51 1 52 0;
#X connect 51 1 54 0;
#X connect 52 0 58 0;
#X connect 53 0 5 0;
#X connect 54 0 5 0;
#X connect 55 0 22 0;
#X connect 58 0 53 0;
#X coords 0 -1 1 1 190 70 1 100 100;
