#N canvas 409 429 767 507 16;
#X declare -path pdr/modules/basic;
#X obj 21 64 fx_ring;
#A saved smooth 0.0422028;
#A saved phase 0.0989374;
#A saved freq 9.35246;
#A saved wet 0.456974;
#A saved SID 2;
#X msg 338 219 load;
#X msg 331 103 save;
#X msg 334 133 save preset_name;
#X msg 338 249 load preset_name;
#X text 401 104 save to default preset name;
#X text 519 133 save to alternate preset name, f 18;
#X text 426 214 load from default preset name;
#X text 544 243 load from alternate preset name, f 19;
#X msg 339 164 save 1;
#X msg 338 290 load 1;
#X text 63 496 The preset files are stored in ./pdr/medias/data folder
\, with the *.savestate extension;
#X obj 26 169 fx_ring;
#A saved smooth 0.0349711;
#A saved phase 0.0501065;
#A saved freq 1.56417;
#A saved wet 0.293709;
#A saved SID 3;
#X obj 347 17 pdr;
#N canvas 0 50 450 300 \$0-PdRacks.declare 0;
#X obj 10 10 declare -path pdr/modules/basic;
#X obj 10 60 pdr/core/stuff/u_glocal.enable \$0;
#X restore 347 62 pd \$0-PdRacks.declare;
#X text 67 434 savestate-0.48 provides a preset system for pd = 0.48
(pre-savesate builds);
#X obj 251 387 savestate-0.48 savestate-0.48-help;
#X connect 1 0 16 0;
#X connect 2 0 16 0;
#X connect 3 0 16 0;
#X connect 4 0 16 0;
#X connect 9 0 16 0;
#X connect 10 0 16 0;
