#N canvas 0 58 1920 1023 12;
#X obj 191 308 list trim;
#X obj 191 335 route #X #A;
#X obj 169 507 list append;
#X obj 42 403 route obj;
#X obj 42 432 list split 2;
#X obj 255 391 route saved;
#X obj 83 684 text define \$0-dump;
#X obj 339 512 text insert \$0-dump;
#X obj 222 427 route SID;
#X msg 169 536 symbol \$2-\$1;
#X obj 347 740 s RJ_SCENE_LOAD;
#X obj 317 699 list prepend;
#X obj 301 653 text sequence \$0-dump;
#X obj 169 565 t b b s;
#X msg 358 614 line 0 \, bang;
#X msg 85 647 clear;
#X obj 42 478 list prepend set;
#X obj 42 507 list trim;
#X msg 2 730 pd-0.48-mode EtudeExport;
#X obj 351 461 list;
#X msg 191 255 line 0 \, bang;
#X obj 205 199 t b b;
#X obj 241 27 delay 1000;
#X obj 239 1 loadbang;
#X text 376 424 le dernier #A est toujours "#A saved SID";
#X obj 548 233 symbol \$1;
#X msg 550 256 read \$1.pd;
#X obj 550 326 text define \$0-pdfile;
#X obj 191 282 text sequence \$0-pdfile;
#X obj 239 72 select 0.48;
#X obj 239 49 v pd_version;
#X obj 106 19 inlet;
#X obj 106 42 route save load;
#N canvas 0 57 1920 1023 state_saving 1;
#N canvas 0 57 1920 1023 init_scene 1;
#X msg 37 232 bang;
#X text 177 161 output all lines starting from current one to next
waiting point, f 34;
#X obj 25 330 list trim;
#X obj 152 25 inlet;
#X msg 191 97 clear;
#X obj 153 58 t b b;
#X obj 35 205 delay 10;
#X msg 72 285 line 0;
#X obj 60 121 select 0;
#X obj 13 90 text size \$0-scene_state;
#X obj 25 308 text sequence \$0-scene_state;
#X obj 194 397 outlet failed;
#X obj 483 356 print PdRacks;
#X msg 333 267 failed !;
#X msg 456 269 success !;
#X obj 110 151 t b b b;
#X obj 305 101 pdr/core/glocal/glocal.send ctl-assign3.GLOBAL;
#X obj 223 133 pdr/core/glocal/glocal.send PdRacks.define.midi-mapping
;
#X obj 25 352 pdr/core/glocal/glocal.send RJ_SCENE_LOAD;
#X connect 0 0 10 0;
#X connect 2 0 18 0;
#X connect 3 0 5 0;
#X connect 4 0 16 0;
#X connect 4 0 17 0;
#X connect 5 0 9 0;
#X connect 5 1 4 0;
#X connect 6 0 0 0;
#X connect 7 0 10 0;
#X connect 8 0 11 0;
#X connect 8 0 13 0;
#X connect 8 1 15 0;
#X connect 9 0 8 0;
#X connect 10 0 2 0;
#X connect 13 0 12 0;
#X connect 14 0 12 0;
#X connect 15 0 6 0;
#X connect 15 1 7 0;
#X connect 15 2 14 0;
#X restore 355 462 pd init_scene;
#X msg 30 425 -1;
#X msg 244 441 1e+06;
#X obj 80 435 t l b;
#X obj 298 291 delay 1000;
#X msg 36 282 save;
#X obj 81 398 spigot;
#X obj 156 230 t b b b b b b;
#X msg 223 266 1;
#X msg 140 274 0;
#X obj 61 464 text delete \$0-scene_state;
#X obj 87 518 text set \$0-scene_state;
#X obj 396 419 text define \$0-scene_state;
#X obj 388 360 symbol \$1;
#X obj 298 314 t b b;
#X obj 148 158 inlet save;
#X obj 390 132 inlet recall;
#X obj 390 185 t b b;
#X obj 494 294 symbol \$1;
#X obj 356 516 outlet failed;
#X obj 764 695 print PdRacks;
#X msg 766 656 trying tor read \$1.savestate ...;
#X msg 388 383 write ../../medias/data/\$1.savestate;
#X obj 397 328 bng 15 250 50 0 empty empty empty 17 7 0 10 -262144
-1 -1;
#X msg 494 317 read ../../medias/data/\$1.savestate;
#X obj 17 322 pdr/core/glocal/glocal.send RJ_SCENE_SAVE;
#X obj 81 375 pdr/core/glocal/glocal.receive RJ_SCENE;
#X connect 0 0 19 0;
#X connect 1 0 10 0;
#X connect 2 0 11 1;
#X connect 3 0 11 0;
#X connect 3 1 2 0;
#X connect 4 0 14 0;
#X connect 5 0 25 0;
#X connect 6 0 3 0;
#X connect 7 0 4 0;
#X connect 7 2 5 0;
#X connect 7 3 8 0;
#X connect 7 4 1 0;
#X connect 8 0 6 1;
#X connect 9 0 6 1;
#X connect 13 0 22 0;
#X connect 14 0 13 0;
#X connect 14 1 9 0;
#X connect 15 0 7 0;
#X connect 16 0 17 0;
#X connect 17 0 0 0;
#X connect 17 1 18 0;
#X connect 18 0 24 0;
#X connect 18 0 21 0;
#X connect 21 0 20 0;
#X connect 22 0 12 0;
#X connect 23 0 13 0;
#X connect 24 0 12 0;
#X connect 26 0 6 0;
#X restore 106 105 pd state_saving;
#X obj 106 65 t b;
#X obj 185 72 t b;
#X obj 169 172 select 0.48;
#X obj 169 149 v pd_version;
#X text 239 105 essayer de charger fichier \$1.savestate avant de lancer
la migration;
#X text 43 122 failed;
#X obj 106 130 delay 1;
#X obj 28 212 text size \$0-pdfile;
#X obj 28 237 select 0;
#X obj 873 356 print PdRacks;
#X msg 723 267 failed !;
#X msg 846 269 success !;
#X msg 806 227 trying tor import savestate from \$1.pd ...;
#X obj 69 262 t b b;
#X obj 530 721 print pdr:dump;
#X connect 0 0 1 0;
#X connect 1 0 3 0;
#X connect 1 1 5 0;
#X connect 2 0 9 0;
#X connect 3 0 4 0;
#X connect 4 1 2 1;
#X connect 4 1 16 0;
#X connect 5 0 8 0;
#X connect 8 0 2 0;
#X connect 8 1 19 0;
#X connect 9 0 13 0;
#X connect 11 0 10 0;
#X connect 12 0 11 0;
#X connect 12 0 48 0;
#X connect 13 0 15 0;
#X connect 13 1 14 0;
#X connect 13 2 11 1;
#X connect 14 0 12 0;
#X connect 15 0 6 0;
#X connect 16 0 17 0;
#X connect 17 0 18 0;
#X connect 19 0 7 0;
#X connect 20 0 28 0;
#X connect 21 0 41 0;
#X connect 21 1 25 0;
#X connect 22 0 30 0;
#X connect 23 0 22 0;
#X connect 25 0 26 0;
#X connect 25 0 46 0;
#X connect 26 0 27 0;
#X connect 28 0 0 0;
#X connect 29 0 33 1;
#X connect 30 0 29 0;
#X connect 31 0 32 0;
#X connect 32 0 34 0;
#X connect 32 1 35 0;
#X connect 33 0 40 0;
#X connect 34 0 33 0;
#X connect 35 0 33 1;
#X connect 36 0 21 0;
#X connect 37 0 36 0;
#X connect 40 0 37 0;
#X connect 41 0 42 0;
#X connect 42 0 44 0;
#X connect 42 1 47 0;
#X connect 44 0 43 0;
#X connect 45 0 43 0;
#X connect 46 0 43 0;
#X connect 47 0 20 0;
#X connect 47 1 45 0;
