#N canvas 0 57 1920 1023 10;
#X declare -path ../../../core;
#X declare -path ../../../core/stuff;
#X declare -path ../../../core/rj;
#N canvas 172 83 586 377 LICENSE-GPL 0;
#X text 57 88 This program is free software: you can redistribute it
and/or modify it under the terms of the GNU General Public License
as published by the Free Software Foundation \, either version 3 of
the License \, or (at your option) any later version.;
#X text 58 168 This program is distributed in the hope that it will
be useful \, but WITHOUT ANY WARRANTY \; without even the implied warranty
of MERCHANTABILITY or FITNESS FOR A PARTICULAR PURPOSE. See the GNU
General Public License for more details.;
#X text 57 261 You should have received a copy of the GNU General Public
License along with this program. If not \, see <http://www.gnu.org/licenses/>.
;
#X text 61 54 Copyright (C) 2009 \, Reality Jockey Ltd.;
#X text 60 325 See the file LICENSE.txt for the full license text.
;
#X restore 298 15 pd LICENSE-GPL;
#X msg 685 309 filesource \$2 \$1;
#X text 776 465 au rappel d'un élément du subset \, ne changer que
les autres parameters;
#X text 751 363 au chargement de la scène / du préset : précharger
tous les samples dans des samplebank (à réception de lfilename);
#X text 778 402 u_multisamplebank modifié;
#X text 764 421 voir si la création dynamique d'une table ne fait
pas du glitch;
#X obj 430 230 inlet~;
#X obj 521 221 inlet~;
#X obj 508 367 outlet~;
#X obj 591 359 outlet~;
#X obj 653 211 inlet data;
#X obj 659 352 outlet data;
#N canvas 0 50 577 605 parameters 0;
#X obj 102 36 inlet;
#X obj 96 150 u_dispatch \$0 f.freq;
#X obj 96 170 u_dispatch \$0 f.Q;
#X obj 96 196 u_subset \$0 filename;
#X obj 96 117 u_dispatch \$0 index;
#X msg 211 249 set \$1;
#X obj 196 274 s \$0-index-rcv;
#N canvas 0 50 675 305 gestion 0;
#X msg 336 119 append;
#X obj 342 93 delay 1;
#X obj 327 57 r \$0-append;
#X obj 419 63 r \$0-reset;
#X msg 426 104 reset;
#X obj 283 149 s \$0-subset;
#X obj 520 46 r \$0-update;
#X msg 523 88 update;
#X obj 437 174 r \$0-delete;
#X obj 437 197 f;
#X msg 379 263 delete \$1;
#X floatatom 498 243 5 0 0 0 - - -;
#X obj 527 128 r \$0-index-rcv;
#X obj 526 172 route set;
#X connect 0 0 5 0;
#X connect 1 0 0 0;
#X connect 2 0 1 0;
#X connect 3 0 4 0;
#X connect 4 0 5 0;
#X connect 6 0 7 0;
#X connect 7 0 5 0;
#X connect 8 0 9 0;
#X connect 9 0 10 0;
#X connect 10 0 5 0;
#X connect 12 0 13 0;
#X connect 13 0 11 0;
#X connect 13 0 9 1;
#X restore 172 337 pd gestion subset;
#X obj 87 293 u_subset \$0 offset;
#X obj 88 316 u_subset \$0 sustain;
#X obj 86 428 u_parameter_subset \$0 loop;
#X obj 306 148 r \$0-index;
#X msg 301 175 set \$1;
#X obj 301 197 s \$0-index-rcv;
#X obj 86 366 u_parameter_subset \$0 reverse;
#X obj 84 457 u_parameter \$0 sync;
#X obj 96 496 u_parameter \$0 module-slot;
#X obj 99 528 u_dispatch \$0 vol;
#X obj 86 388 u_parameter_subset \$0 root_key;
#X obj 99 551 u_parameter \$0 synchrofill;
#X obj 98 574 u_parameter \$0 oneshot;
#X connect 0 0 4 0;
#X connect 1 0 2 0;
#X connect 2 0 3 0;
#X connect 3 0 8 0;
#X connect 3 1 5 0;
#X connect 4 0 1 0;
#X connect 5 0 6 0;
#X connect 8 0 9 0;
#X connect 9 0 14 0;
#X connect 10 0 15 0;
#X connect 11 0 12 0;
#X connect 12 0 13 0;
#X connect 14 0 18 0;
#X connect 15 0 16 0;
#X connect 16 0 17 0;
#X connect 17 0 19 0;
#X connect 18 0 10 0;
#X connect 19 0 20 0;
#X restore 809 286 pd parameters;
#N canvas 478 63 695 413 dynamic_recording 0;
#X obj 265 7 r \$0-rec;
#X obj 168 68 s \$0-rec-rcv;
#X msg 168 48 set \$1;
#X obj 164 118 r \$0-duree;
#X obj 87 51 select 0;
#X obj 134 175 s \$0-samplename;
#X msg 139 95 label recording...;
#X msg 214 145 label ext-sample(\$1ms);
#X msg 328 68 color 13 13 -1;
#X msg 457 32 color 5 5 -1;
#X obj 354 195 r \$0-offset;
#X obj 371 296 r \$0-sustain;
#X obj 327 225 f;
#X obj 343 330 f;
#X obj 234 256 t b;
#X obj 234 278 delay 10;
#X obj 327 247 s \$0-offset;
#X obj 341 356 s \$0-sustain;
#X obj 323 35 select 0;
#X connect 0 0 2 0;
#X connect 0 0 4 0;
#X connect 0 0 18 0;
#X connect 2 0 1 0;
#X connect 3 0 7 0;
#X connect 3 0 14 0;
#X connect 4 1 6 0;
#X connect 6 0 5 0;
#X connect 7 0 5 0;
#X connect 8 0 1 0;
#X connect 9 0 1 0;
#X connect 10 0 12 1;
#X connect 11 0 13 1;
#X connect 12 0 16 0;
#X connect 13 0 17 0;
#X connect 14 0 15 0;
#X connect 15 0 12 0;
#X connect 15 0 13 0;
#X connect 18 0 9 0;
#X connect 18 1 8 0;
#X restore 779 70 pd dynamic_recording;
#N canvas 0 50 450 300 midi_colors 0;
#X obj -138 498 s \$0-rec;
#X obj -141 475 > 64;
#X obj -143 451 midi-colors \$0 rec \$0-rec-rcv;
#X obj 75 21 midi-colors \$0 rec \$0-rec-rcv;
#X obj 74 81 s \$0-rec;
#X obj 74 60 change;
#X obj 74 149 change;
#X obj 75 130 > 30;
#X obj 74 269 change;
#X obj 75 250 > 30;
#X obj 75 110 midi-colors \$0 prev_file \$0-prev_file-rcv;
#X obj 75 230 midi-colors \$0 next_file \$0-next_file-rcv;
#X obj 74 172 select 1;
#X obj 74 292 select 1;
#X obj 74 200 s \$0-prev_file;
#X obj 74 330 s \$0-next_file;
#X obj 75 41 > 10;
#X connect 1 0 0 0;
#X connect 2 0 1 0;
#X connect 3 0 16 0;
#X connect 5 0 4 0;
#X connect 6 0 12 0;
#X connect 7 0 6 0;
#X connect 8 0 13 0;
#X connect 9 0 8 0;
#X connect 10 0 7 0;
#X connect 11 0 9 0;
#X connect 12 0 14 0;
#X connect 13 0 15 0;
#X connect 16 0 5 0;
#X restore 782 40 pd midi_colors;
#X obj 486 55 namecanvas \$0-multitab;
#X obj 484 35 ui_multitab \$0;
#X obj 101 101 cnv 15 188 68 \$0-background \$0-background-rcv inst_sampler-0
0 7 0 14 -262144 -1 0;
#X obj 101 301 cnv 15 188 68 \$0-background \$0-background-rcv inst_sampler-0
0 7 0 14 -262144 -1 0;
#X floatatom -45 332 10 0 127 0 low_key #0-low_key-rcv #0-low_key;
#X symbolatom -17 332 6 0 0 0 - #0-low_key_display-rcv -;
#X floatatom -45 346 10 0 127 0 high_key #0-high_key-rcv #0-high_key
;
#X symbolatom -17 346 6 0 0 0 - #0-high_key_display-rcv -;
#X obj 101 401 cnv 15 188 68 \$0-background \$0-background-rcv inst_sampler-0
0 7 0 14 -262144 -1 0;
#X obj -85 451 hsl 100 15 0 127 0 0 \$0-start \$0-start-rcv START 4
8 0 10 -262144 -1 -1 0 1;
#X obj -85 466 hsl 100 15 0 127 0 0 \$0-end \$0-end-rcv END 4 8 0 10
-262144 -1 -1 0 1;
#X obj 23 467 tgl 15 0 \$0-loop \$0-loop-rcv LOOP 17 7 0 10 -262144
-1 -1 0 1;
#X obj 101 201 cnv 15 188 68 \$0-background \$0-background-rcv inst_sampler-0
0 7 0 14 -262144 -1 0;
#X obj -73 392 cnv 12 1 1 empty \$0-samplename-rcv P200_Piano_C10(L).wav
2 6 0 10 -262144 -66577 0;
#X obj -17 369 bng 20 250 50 0 \$0-load_sample empty CHANGE 2 10 0
10 -262144 -1 -1;
#X obj 252 114 ui_vs \$0 vol 0 127;
#X obj 210 100 bng 15 250 50 0 empty empty EDIT 17 7 0 10 -191407 -1
-1;
#X obj 149 62 s \$0-guitab-rcv;
#X msg 170 35 1;
#X obj 101 501 cnv 15 188 68 \$0-background \$0-background-rcv inst_sampler-0
0 7 0 14 -262144 -1 0;
#X obj 210 300 hradio 15 1 0 4 \$0-guitab \$0-guitab-rcv empty 0 -8
0 10 -191407 -1 -1 0;
#X obj 210 400 hradio 15 1 0 4 \$0-guitab \$0-guitab-rcv empty 0 -8
0 10 -191407 -1 -1 0;
#X obj 210 500 hradio 15 1 0 5 \$0-guitab \$0-guitab-rcv empty 0 -8
0 10 -191407 -1 -1 0;
#X obj -92 518 cnv 12 1 1 empty \$0-samplename-rcv P200_Piano_C10(L).wav
2 6 0 10 -262144 -66577 0;
#X obj 175 322 bng 15 250 50 0 \$0-append empty append 17 7 0 10 -262144
-1 -1;
#X obj 230 337 bng 15 250 50 0 \$0-reset empty reset 17 7 0 10 -258113
-1 -1;
#X obj 175 336 bng 15 250 50 0 \$0-update empty update 17 7 0 10 -4034
-1 -1;
#X obj 47 400 bng 15 250 50 0 \$0-update empty update 2 7 0 10 -258113
-1 -1;
#X obj 73 370 bng 15 250 50 0 \$0-next_file \$0-next_file-rcv > 5 7
0 10 -262144 -1 -1;
#X obj 59 370 bng 15 250 50 0 \$0-prev_file \$0-prev_file-rcv < 5 7
0 10 -262144 -1 -1;
#X floatatom 59 385 4 0 0 0 - #0-index-rcv -;
#X obj 271 520 bng 15 250 50 0 \$0-next_file \$0-next_file-rcv > 5
7 0 10 -262144 -1 -1;
#X obj 257 520 bng 15 250 50 0 \$0-prev_file \$0-prev_file-rcv < 5
7 0 10 -262144 -1 -1;
#X floatatom 257 535 4 0 0 0 - #0-index-rcv -;
#X obj 230 321 bng 15 250 50 0 \$0-delete empty delete 17 7 0 10 -260097
-1 -1;
#X text -92 434 loop_mode;
#X floatatom -18 404 7 9000 196000 0 SampleRate #0-sr-rcv #0-sr;
#X obj -42 369 bng 20 250 50 0 \$0-add_sample empty ADD 2 10 0 10 -262144
-1 -1;
#X text -89 372 SAMPLE;
#X obj 808 260 module_loader inst_sampler \$0 \$1;
#X obj 212 214 ui_vs \$0 offset 0 1;
#X obj 137 214 ui_vs \$0 f.freq 0 1;
#X obj 176 214 ui_vs \$0 f.Q 0 1;
#X obj 226 113 tgl 25 0 \$0-rec \$0-rec-rcv REC 2 7 0 10 -262144 -1
-1 0 56;
#X obj 148 142 bng 15 250 50 0 \$0-next_file \$0-next_file-rcv > 5
7 0 10 -262144 -1 -1;
#X obj 102 142 bng 15 250 50 0 \$0-prev_file \$0-prev_file-rcv < 5
7 0 10 -262144 -1 -1;
#X floatatom 118 142 4 0 0 0 - #0-index-rcv #0-index;
#X obj 148 341 bng 15 250 50 0 \$0-next_file \$0-next_file-rcv > 5
7 0 10 -262144 -1 -1;
#X obj 102 342 bng 15 250 50 0 \$0-prev_file \$0-prev_file-rcv < 5
7 0 10 -262144 -1 -1;
#X floatatom 118 341 4 0 0 0 - #0-index-rcv #0-index;
#X obj 148 440 bng 15 250 50 0 \$0-next_file \$0-next_file-rcv > 5
7 0 10 -262144 -1 -1;
#X obj 102 440 bng 15 250 50 0 \$0-prev_file \$0-prev_file-rcv < 5
7 0 10 -262144 -1 -1;
#X floatatom 118 440 4 0 0 0 - #0-index-rcv #0-index;
#X obj 307 67 tgl 15 0 \$0-loop \$0-loop-rcv LOOP 17 7 0 10 -262144
-1 -1 0 1;
#X obj 255 100 tgl 15 0 \$0-reverse \$0-reverse-rcv REVERSE 1 7 0 8
-262130 -1 -1 0 1;
#X obj 345 110 tgl 15 0 \$0-sync \$0-sync-rcv sync 1 3 0 10 -4032 -1
-1 0 1;
#X obj 120 219 bng 15 250 50 0 \$0-next_file \$0-next_file-rcv > 5
7 0 10 -262144 -1 -1;
#X obj 100 219 bng 15 250 50 0 \$0-prev_file \$0-prev_file-rcv < 5
7 0 10 -262144 -1 -1;
#X floatatom 105 235 3 0 0 0 - #0-index-rcv #0-index;
#X obj 234 138 bng 16 250 50 0 empty empty In 2 8 0 10 -261682 -1 -1
;
#X obj 434 153 r \$0-module-slot;
#X obj 410 361 delay 100;
#X msg 411 406 select_module \$1;
#X obj 412 384 list append \$0-module-slot;
#X floatatom 219 153 5 0 0 0 - #0-module-slot-rcv #0-module-slot;
#N canvas 0 50 903 443 get_audio_from_module 0;
#X obj 192 151 select 0;
#X obj 70 242 print plug-in~;
#X obj 241 184 f;
#X obj 177 80 t f f;
#X msg 72 217 error - slot \$1 non affecté;
#X obj 459 342 outlet~;
#X obj 584 348 outlet~;
#X obj 143 5 inlet slot.name;
#X obj 427 143 list prepend 0;
#X obj 499 113 f;
#X obj 540 113 == 0;
#X obj 427 98 t f b;
#X obj 455 174 route 0 1;
#N canvas 0 50 450 300 receive~ 0;
#X obj 92 29 inlet;
#X obj 122 72 select 0;
#X obj 105 223 line~;
#X msg 97 200 0 20;
#X msg 197 124 set \$1-send-0;
#X msg 307 124 set \$1-send-1;
#X obj 197 157 receive~ 0-send-0;
#X obj 339 157 receive~ 0-send-1;
#X msg 150 193 1 20;
#X obj 31 151 switch~;
#X msg 98 126 1;
#X obj 40 96 delay 20;
#X msg 29 127 0;
#X msg 44 67 stop;
#X obj 130 318 outlet~;
#X obj 261 319 outlet~;
#X obj 161 283 *~;
#X obj 251 283 *~;
#X connect 0 0 1 0;
#X connect 1 0 3 0;
#X connect 1 0 11 0;
#X connect 1 1 4 0;
#X connect 1 1 5 0;
#X connect 1 1 10 0;
#X connect 1 1 13 0;
#X connect 1 1 8 0;
#X connect 2 0 16 1;
#X connect 2 0 17 1;
#X connect 3 0 2 0;
#X connect 4 0 6 0;
#X connect 5 0 7 0;
#X connect 6 0 16 0;
#X connect 7 0 17 0;
#X connect 8 0 2 0;
#X connect 10 0 9 0;
#X connect 11 0 12 0;
#X connect 12 0 9 0;
#X connect 13 0 11 0;
#X connect 16 0 14 0;
#X connect 17 0 15 0;
#X restore 455 240 pd receive~;
#N canvas 0 50 450 300 receive~ 0;
#X obj 92 29 inlet;
#X obj 122 72 select 0;
#X obj 105 223 line~;
#X msg 97 200 0 20;
#X msg 197 124 set \$1-send-0;
#X msg 307 124 set \$1-send-1;
#X obj 197 157 receive~ 0-send-0;
#X obj 339 157 receive~ 0-send-1;
#X msg 150 193 1 20;
#X obj 31 151 switch~;
#X msg 98 126 1;
#X obj 40 96 delay 20;
#X msg 29 127 0;
#X msg 44 67 stop;
#X obj 130 318 outlet~;
#X obj 261 319 outlet~;
#X obj 161 283 *~;
#X obj 251 283 *~;
#X connect 0 0 1 0;
#X connect 1 0 3 0;
#X connect 1 0 11 0;
#X connect 1 1 4 0;
#X connect 1 1 5 0;
#X connect 1 1 10 0;
#X connect 1 1 13 0;
#X connect 1 1 8 0;
#X connect 2 0 16 1;
#X connect 2 0 17 1;
#X connect 3 0 2 0;
#X connect 4 0 6 0;
#X connect 5 0 7 0;
#X connect 6 0 16 0;
#X connect 7 0 17 0;
#X connect 8 0 2 0;
#X connect 10 0 9 0;
#X connect 11 0 12 0;
#X connect 12 0 9 0;
#X connect 13 0 11 0;
#X connect 16 0 14 0;
#X connect 17 0 15 0;
#X restore 573 239 pd receive~;
#X msg 461 217 0;
#X msg 578 219 0;
#X text 612 270 assure un crossefade entre deux branchements successifs
;
#X msg 373 145 0;
#X obj 171 43 select 0;
#X obj 192 120 tabread SLOTS_MAP;
#X obj 705 202 tabread SLOTS_MAP;
#X obj 650 107 f;
#X msg 638 157 0;
#X obj 653 130 select 0;
#N canvas 416 113 718 686 glocal.dollarzero 0;
#X obj 379 7 loadbang;
#X obj 379 66 v GLOCAL.current;
#X obj 379 95 select 0;
#X obj 155 66 spigot 1;
#X msg 456 146 0;
#X text 501 28 hot plug;
#X obj 380 36 delay 1;
#X obj 155 37 r GLOCAL.base;
#X obj 155 101 moses \$0;
#X obj 155 150 max;
#X obj 155 179 t f f;
#X obj 234 229 outlet;
#X connect 0 0 6 0;
#X connect 1 0 2 0;
#X connect 2 1 4 0;
#X connect 2 1 11 0;
#X connect 3 0 8 0;
#X connect 4 0 3 1;
#X connect 6 0 1 0;
#X connect 7 0 3 0;
#X connect 8 0 9 0;
#X connect 9 0 10 0;
#X connect 10 0 11 0;
#X connect 10 1 9 1;
#X restore 725 39 pd glocal.dollarzero;
#X obj 593 14 glocal/glocal.receive REFRESH_CONNEXIONS;
#X msg 716 82 set \$1-SLOTS_MAP;
#X obj 673 65 t b f;
#X connect 0 0 2 0;
#X connect 0 0 18 0;
#X connect 0 1 11 0;
#X connect 2 0 4 0;
#X connect 3 0 20 0;
#X connect 3 1 2 1;
#X connect 4 0 1 0;
#X connect 7 0 19 0;
#X connect 7 0 22 1;
#X connect 8 0 12 0;
#X connect 9 0 10 0;
#X connect 9 0 8 1;
#X connect 10 0 9 1;
#X connect 11 0 8 0;
#X connect 11 1 9 0;
#X connect 12 0 13 0;
#X connect 12 0 16 0;
#X connect 12 1 14 0;
#X connect 12 1 15 0;
#X connect 13 0 5 0;
#X connect 13 1 6 0;
#X connect 14 0 5 0;
#X connect 14 1 6 0;
#X connect 15 0 13 0;
#X connect 16 0 14 0;
#X connect 18 0 11 0;
#X connect 19 0 18 0;
#X connect 19 1 3 0;
#X connect 20 0 0 0;
#X connect 21 0 11 0;
#X connect 22 0 24 0;
#X connect 23 0 11 0;
#X connect 24 0 23 0;
#X connect 24 1 21 0;
#X connect 25 0 28 0;
#X connect 26 0 22 0;
#X connect 27 0 20 0;
#X connect 27 0 21 0;
#X connect 28 0 22 0;
#X connect 28 1 27 0;
#X restore 436 179 pd get_audio_from_module;
#X obj 623 477 r \$0-vol;
#X obj 623 499 dbtorms;
#X obj 623 521 lop~ 5;
#X obj 531 327 *~;
#X obj 594 324 *~;
#X obj 726 140 r STOP;
#X msg 726 162 stop;
#X floatatom 214 426 10 0 127 0 root_key #0-root_key-rcv #0-root_key
;
#X symbolatom 242 426 6 0 0 0 - #0-root_key_display-rcv -;
#N canvas 458 61 643 448 midi2notename 0;
#N canvas 473 338 450 300 count 0;
#X obj 131 154 f 0;
#X obj 156 153 + 1;
#X msg 147 133 0;
#X obj 131 183 outlet;
#X obj 131 59 inlet;
#X obj 131 96 b;
#X obj 178 61 inlet;
#X obj 178 98 b;
#X connect 0 0 1 0;
#X connect 0 0 3 0;
#X connect 1 0 0 1;
#X connect 2 0 0 1;
#X connect 4 0 5 0;
#X connect 5 0 0 0;
#X connect 6 0 7 0;
#X connect 7 0 2 0;
#X restore 330 219 pd count;
#X msg 249 169 c \, c# \, d \, d# \, e \, f \, f# \, g \, g# \, a \,
a# \, b;
#X obj 249 194 t a b;
#X obj 249 243 list prepend;
#X msg 173 243 reset;
#X obj 249 144 t b b b;
#X text -2 162 Notes example:;
#X msg 114 244 print;
#X msg 114 219 dump;
#X obj 161 268 m_symbolarray;
#X obj 252 117 loadbang;
#X obj 165 163 mod 12;
#X obj 229 113 bng 15 250 50 0 empty empty empty 17 7 0 10 -262144
-1 -1;
#X obj 166 127 t f f;
#X obj 159 297 list append;
#X obj 166 104 - 24;
#X floatatom 177 215 5 0 0 0 - - -;
#X obj 188 192 div 12;
#X obj 171 76 t f f;
#X obj 164 321 list append;
#X obj 161 50 route set;
#X msg 150 363 symbol (\$1\$2);
#X obj 147 27 r \$0-root_key-rcv;
#X obj 152 385 s \$0-root_key_display-rcv;
#X connect 0 0 3 1;
#X connect 1 0 2 0;
#X connect 2 0 3 0;
#X connect 2 1 0 0;
#X connect 3 0 9 1;
#X connect 4 0 9 0;
#X connect 5 0 1 0;
#X connect 5 1 4 0;
#X connect 5 2 0 1;
#X connect 7 0 9 0;
#X connect 8 0 9 0;
#X connect 9 0 14 0;
#X connect 10 0 5 0;
#X connect 11 0 9 0;
#X connect 12 0 5 0;
#X connect 13 0 11 0;
#X connect 13 1 17 0;
#X connect 14 0 19 0;
#X connect 15 0 13 0;
#X connect 17 0 16 0;
#X connect 17 0 14 1;
#X connect 18 0 15 0;
#X connect 18 1 19 1;
#X connect 19 0 21 0;
#X connect 20 0 18 0;
#X connect 21 0 23 0;
#X connect 22 0 20 0;
#X restore 328 318 pd midi2notename;
#X obj 505 286 inst_sampler/02_sampler \$0;
#X obj 884 151 r \$0-sustain;
#X floatatom 884 173 5 0 0 0 - - -;
#X obj 210 200 hradio 15 1 0 4 \$0-guitab \$0-guitab-rcv empty 0 -8
0 10 -191407 -1 -1 0;
#X obj 405 432 glocal/glocal.send ACTION;
#X obj 1101 209 namecanvas \$0-this;
#X obj 1099 186 triggered_loadbang \$0-this;
#X text 1094 136 manually trigger loadbang if the instance of abstraction
is created dynamically, f 29;
#X obj 994 199 savestate;
#X obj 251 214 ui_vsl \$0 sustain 0.0001 1;
#X obj 253 66 tgl 15 0 \$0-synchrofill \$0-synchrofill-rcv fill 17
7 0 10 -262144 -1 -1 0 1;
#N canvas 828 145 682 396 play_mode_gui 0;
#X obj 75 51 r \$0-playmode;
#X obj 29 215 s \$0-loop;
#X obj 100 213 s \$0-sync;
#X obj 193 219 s \$0-synchrofill;
#X obj 520 48 r \$0-sync;
#X obj 481 193 +;
#X obj 484 219 +;
#X obj 501 158 t b f;
#X obj 577 95 t b f;
#X obj 520 71 f;
#X msg 508 366 set \$1;
#X obj 508 389 s \$0-playmode-rcv;
#X obj 520 94 * 2;
#X obj 578 136 * 4;
#X obj 593 47 r \$0-synchrofill;
#X obj 489 16 r \$0-loop;
#X msg 506 320 2;
#X msg 540 318 3;
#X msg 586 322 4;
#X obj 516 285 select 0 1 3 7 8;
#X msg 468 318 0;
#X msg 619 321 1;
#X obj 581 183 t b f;
#X obj 581 160 r \$0-oneshot;
#X obj 582 224 * 8;
#X obj 500 250 +;
#X obj 593 70 f;
#X obj 311 219 s \$0-oneshot;
#X obj 75 74 select 0 2 3 4 5 1;
#X obj 53 161 unpack f f f f;
#X text 227 283 1-shot;
#X text 229 307 loop;
#X text 228 325 .sync;
#X text 228 348 .fill;
#X text 226 263 normal;
#X msg 48 126 0 0 0 0;
#X msg 102 122 1 0 0 0;
#X msg 157 117 1 1 0 0;
#X msg 211 113 1 1 1 0;
#X msg 278 115 0 0 0 1;
#X connect 0 0 28 0;
#X connect 4 0 9 0;
#X connect 5 0 6 0;
#X connect 6 0 25 0;
#X connect 7 0 5 0;
#X connect 7 1 5 1;
#X connect 8 0 9 0;
#X connect 8 1 13 0;
#X connect 9 0 12 0;
#X connect 10 0 11 0;
#X connect 12 0 7 0;
#X connect 13 0 6 1;
#X connect 14 0 26 0;
#X connect 15 0 5 0;
#X connect 16 0 10 0;
#X connect 17 0 10 0;
#X connect 18 0 10 0;
#X connect 19 0 20 0;
#X connect 19 1 16 0;
#X connect 19 2 17 0;
#X connect 19 3 18 0;
#X connect 19 4 21 0;
#X connect 20 0 10 0;
#X connect 21 0 10 0;
#X connect 22 0 26 0;
#X connect 22 1 24 0;
#X connect 23 0 22 0;
#X connect 24 0 25 1;
#X connect 25 0 19 0;
#X connect 26 0 8 0;
#X connect 28 0 35 0;
#X connect 28 1 36 0;
#X connect 28 2 37 0;
#X connect 28 3 38 0;
#X connect 28 5 39 0;
#X connect 29 0 1 0;
#X connect 29 1 2 0;
#X connect 29 2 3 0;
#X connect 29 3 27 0;
#X connect 35 0 29 0;
#X connect 36 0 29 0;
#X connect 37 0 29 0;
#X connect 38 0 29 0;
#X connect 39 0 29 0;
#X restore 321 202 pd play_mode_gui;
#X text 221 143 V;
#X text 221 138 |;
#X text 223 129 _;
#X obj 100 156 cnv 12 60 12 empty \$0-samplename Dj.wav 2 6 0 10 -204786
-66577 0;
#X text 183 122 1-shot;
#X text 184 134 loop;
#X obj 179 147 cnv 12 40 22 empty empty empty 20 12 0 14 -4032 -66577
0;
#X obj 171 114 vradio 11 1 0 5 \$0-playmode \$0-playmode-rcv empty
0 -8 0 10 -262144 -1 -1 2;
#X text 184 143 .sync;
#X text 184 154 .fill;
#X obj 101 356 cnv 12 60 12 empty \$0-samplename Dj.wav 2 6 0 10 -204786
-66577 0;
#X obj 101 456 cnv 12 60 12 empty \$0-samplename Dj.wav 2 6 0 10 -204786
-66577 0;
#X text 183 112 normal;
#X obj 384 100 tgl 15 0 \$0-oneshot \$0-oneshot-rcv oneshot 1 3 0 10
-4032 -1 -1 0 1;
#X obj 230 443 bng 15 250 50 0 \$0-update empty update 17 7 0 10 -4034
-1 -1;
#X obj 596 203 == 0;
#X obj 496 249 *~ 1;
#X obj 540 246 *~ 1;
#X obj 67 138 t b;
#X obj 100 119 bng 20 250 50 0 empty empty empty 17 7 0 10 -262144
-1 -1;
#X obj 120 119 bng 20 250 50 0 empty empty empty 17 7 0 10 -262144
-1 -1;
#X obj 140 119 bng 20 250 50 0 empty empty empty 17 7 0 10 -262144
-1 -1;
#X obj 150 119 bng 20 250 50 0 empty empty empty 17 7 0 10 -262144
-1 -1;
#X obj 101 120 cnv 15 68 18 empty empty AddSample... 0 12 0 9 -262130
-66577 0;
#X obj 101 256 cnv 12 40 12 empty \$0-samplename Dj.wav 2 6 0 10 -204786
-66577 0;
#X obj 67 338 t b;
#X obj 100 319 bng 20 250 50 0 empty empty empty 17 7 0 10 -262144
-1 -1;
#X obj 120 319 bng 20 250 50 0 empty empty empty 17 7 0 10 -262144
-1 -1;
#X obj 140 319 bng 20 250 50 0 empty empty empty 17 7 0 10 -262144
-1 -1;
#X obj 150 319 bng 20 250 50 0 empty empty empty 17 7 0 10 -262144
-1 -1;
#X obj 101 320 cnv 15 68 18 empty empty AddSample... 0 12 0 9 -262130
-66577 0;
#X obj 1044 28 declare -path ../../../core;
#X obj 1044 48 declare -path ../../../core/stuff;
#X obj 1044 68 declare -path ../../../core/rj;
#X connect 1 0 11 0;
#X connect 6 0 8 0;
#X connect 6 0 119 0;
#X connect 7 0 9 0;
#X connect 7 0 91 1;
#X connect 7 0 120 0;
#X connect 10 0 11 0;
#X connect 10 0 54 0;
#X connect 10 0 91 2;
#X connect 31 0 33 0;
#X connect 33 0 32 0;
#X connect 54 0 12 0;
#X connect 54 1 99 0;
#X connect 74 0 76 0;
#X connect 75 0 80 0;
#X connect 75 0 118 0;
#X connect 76 0 78 0;
#X connect 77 0 95 0;
#X connect 78 0 77 0;
#X connect 80 0 91 0;
#X connect 80 1 91 1;
#X connect 81 0 82 0;
#X connect 82 0 83 0;
#X connect 83 0 84 1;
#X connect 83 0 85 1;
#X connect 84 0 8 0;
#X connect 85 0 9 0;
#X connect 86 0 87 0;
#X connect 87 0 91 2;
#X connect 91 0 84 0;
#X connect 91 1 85 0;
#X connect 91 2 1 0;
#X connect 92 0 93 0;
#X connect 99 0 54 1;
#X connect 99 1 54 2;
#X connect 118 0 119 1;
#X connect 118 0 120 1;
#X connect 119 0 91 0;
#X connect 120 0 91 1;
#X connect 121 0 91 3;
#X connect 122 0 121 0;
#X connect 123 0 121 0;
#X connect 124 0 121 0;
#X connect 125 0 121 0;
#X connect 128 0 91 3;
#X connect 129 0 128 0;
#X connect 130 0 128 0;
#X connect 131 0 128 0;
#X connect 132 0 128 0;
#X coords 0 0 1 1 190 70 1 100 100;
