#N canvas 797 141 1143 585 16;
#X obj 66 491 v;
#X obj 46 76 inlet;
#X obj 629 37 loadbang;
#X obj 629 96 v GLOCAL.current;
#X obj 629 125 select 0;
#X obj 205 96 spigot 1;
#X msg 669 198 0;
#X text 751 58 hot plug;
#X obj 630 66 delay 1;
#X obj 205 67 r GLOCAL.base;
#X obj 205 131 moses \$0;
#X obj 205 160 max;
#X obj 66 575 outlet;
#X obj 207 262 list append \$1;
#X msg 207 291 symbol \$1-\$2;
#X obj 37 294 spigot;
#X obj 234 407 spigot 1;
#X msg 109 253 1;
#X msg 404 281 0, f 5;
#X obj 356 189 t f b;
#X obj 579 375 symbol \$0-nop;
#X obj 93 455 symbol \$1;
#X obj 207 320 t b s;
#X obj 37 323 t a b;
#X obj 952 79 inlet;
#X text 230 559 global mode;
#X text 11 534 local mode;
#X text 162 10 each [glocal.space] sends its \$0 value onto [r GLOCAL.base]
, f 31;
#X text 307 131 we retain the biggest (but still lower than \$0),
f 25;
#X obj 396 480 symbol \$1;
#X obj 233 505 v;
#X obj 66 390 v;
#X obj 205 189 t f f b f;
#X obj 870 315 pack s f;
#X msg 870 344 symbol \$2-\$1;
#X obj 957 138 t s s s;
#X connect 0 0 12 0;
#X connect 1 0 15 0;
#X connect 1 0 16 0;
#X connect 2 0 8 0;
#X connect 2 0 20 0;
#X connect 2 0 29 0;
#X connect 3 0 4 0;
#X connect 4 1 19 0;
#X connect 5 0 10 0;
#X connect 6 0 5 1;
#X connect 8 0 3 0;
#X connect 9 0 5 0;
#X connect 10 0 11 0;
#X connect 11 0 32 0;
#X connect 13 0 14 0;
#X connect 14 0 22 0;
#X connect 15 0 23 0;
#X connect 16 0 30 0;
#X connect 17 0 15 1;
#X connect 18 0 16 1;
#X connect 19 0 13 0;
#X connect 19 1 6 0;
#X connect 19 1 18 0;
#X connect 19 1 17 0;
#X connect 20 0 0 1;
#X connect 21 0 0 1;
#X connect 22 0 31 0;
#X connect 22 1 21 0;
#X connect 23 0 0 0;
#X connect 23 1 21 0;
#X connect 24 0 35 0;
#X connect 29 0 30 1;
#X connect 29 0 31 1;
#X connect 30 0 12 0;
#X connect 31 0 0 0;
#X connect 32 0 13 0;
#X connect 32 1 11 1;
#X connect 32 2 18 0;
#X connect 32 2 17 0;
#X connect 32 3 33 1;
#X connect 33 0 34 0;
#X connect 34 0 21 0;
#X connect 35 0 33 0;
#X connect 35 1 29 0;
#X connect 35 2 13 1;
