#N canvas 123 58 1362 1018 16;
#X declare -path ../../../core;
#X declare -path ../../../core/stuff;
#X declare -path ../../../core/rj;
#X obj 733 460 r \$0-ccx;
#X obj 581 631 pack f f 1;
#X obj 943 647 pack f f 1;
#X obj 1039 518 r \$0-ccy;
#X obj 474 730 t b;
#X msg 559 584 1;
#X obj 502 690 t b l;
#X msg 879 601 1, f 2;
#X obj 535 548 r \$0-testx;
#X obj 837 508 r \$0-testy;
#X obj 633 462 spigot;
#X obj 685 398 r \$0-ccx_enable;
#X obj 951 446 spigot;
#X obj 1014 404 r \$0-ccy_enable;
#X obj 101 101 cnv 15 188 68 \$0-background \$0-background-rcv data_trackpoint-0
0 7 0 14 -262144 -1 0;
#X obj 198 118 cnv 10 90 50 empty empty empty 20 12 0 14 -262138 -66577
0;
#X obj 252 103 bng 8 50 10 0 empty empty ctlout 8 3 0 8 -262144 -1
-1;
#X obj 276 127 tgl 14 0 \$0-ccx_enable \$0-ccx_enable-rcv off -4 -5
0 10 -203904 -1 -1 0 1;
#X obj 170 129 bng 14 250 50 0 \$0-testx empty test -10 -5 0 10 -262144
-1 -1;
#X obj 170 155 bng 14 250 50 0 \$0-testy empty test -10 -5 0 10 -262144
-1 -1;
#X obj 276 155 tgl 14 0 \$0-ccy_enable \$0-ccy_enable-rcv off -4 -5
0 10 -203904 -1 -1 0 1;
#X floatatom 184 121 5 0 127 1 ccx #0-ccx-rcv #0-ccx;
#X floatatom 184 147 5 0 127 1 ccy #0-ccy-rcv #0-ccy;
#X obj 19 400 inlet~;
#X obj 19 446 outlet~;
#X obj 79 400 inlet~;
#X obj 79 446 outlet~;
#X obj 430 16 inlet data;
#X obj 265 560 outlet data;
#X obj 519 357 tgl 15 0 empty empty empty 17 7 0 10 -262144 -1 -1 0
1;
#X obj 554 38 namecanvas \$0-multitab;
#X obj 552 18 ui_multitab \$0;
#X obj 237 59 hradio 15 1 0 2 \$0-guitab \$0-guitab-rcv empty 0 -8
0 10 -191407 -1 -1 0;
#X obj 101 201 cnv 15 188 68 \$0-background \$0-background-rcv data_trackpoint-0
0 7 0 14 -262144 -1 0;
#X obj 245 200 hradio 15 1 0 2 \$0-guitab \$0-guitab-rcv empty 0 -8
0 10 -191407 -1 -1 0;
#X obj 101 301 cnv 15 188 68 \$0-background \$0-background-rcv data_trackpoint-0
0 7 0 14 -262144 -1 0;
#X obj 245 300 hradio 15 1 0 3 \$0-guitab \$0-guitab-rcv empty 0 -8
0 10 -191407 -1 -1 0;
#N canvas 0 50 450 300 speed_lim 0;
#X obj 91 12 inlet;
#X obj 87 105 t b b a;
#X obj 83 278 list append;
#X obj 83 307 list trim;
#X msg 129 200 1;
#X msg 57 177 0;
#X obj 83 332 outlet;
#X obj 33 226 change;
#X obj 83 249 metro 20;
#X obj 55 145 delay 25;
#X connect 0 0 1 0;
#X connect 1 0 9 0;
#X connect 1 1 4 0;
#X connect 1 2 2 1;
#X connect 2 0 3 0;
#X connect 3 0 6 0;
#X connect 4 0 7 0;
#X connect 5 0 7 0;
#X connect 7 0 8 0;
#X connect 8 0 2 0;
#X connect 9 0 5 0;
#X restore 337 214 pd speed_lim;
#N canvas 0 57 1920 1023 u_parameters 0;
#X obj 127 50 u_parameter \$0 ccx;
#X obj 122 73 u_parameter \$0 ccy;
#X obj 123 116 u_parameter \$0 ccx_enable;
#X obj 123 136 u_parameter \$0 ccy_enable;
#X obj 118 15 inlet;
#X connect 0 0 1 0;
#X connect 1 0 2 0;
#X connect 2 0 3 0;
#X connect 4 0 0 0;
#X restore 405 113 pd u_parameters;
#X obj 780 86 savestate;
#X obj 523 732 glocal/glocal.send CTLIN;
#N canvas 556 93 905 839 \$0-hidio-trackpoint 0;
#X obj 46 120 hidio;
#X obj 48 585 outlet;
#X text 111 107 name of vendor + device;
#X obj 134 629 outlet;
#X obj 74 80 cnv 15 150 30 empty empty empty 20 12 0 14 -257985 -66577
0;
#X obj 401 253 ggee/shell;
#N canvas 0 50 450 300 commandes_terminal 0;
#X text 82 180 xinput float 16;
#X text 82 200 xinput float 17;
#X text 65 86 xinput -list;
#X text 85 245 xinput reattach 16 2;
#X text 83 264 xinput reattach 17 2;
#X text 176 118 Wacom Graphire4 4x5 Pen stylus;
#X text 176 138 Wacom Graphire4 4x5 Pen eraser;
#X text 36 70 1) lister peripheriques;
#X text 48 114 2) rechercher;
#X text 42 162 3) desactiver;
#X text 45 224 4) reactiver;
#X text 9 13 source : https://www.security-helpzone.com/2016/05/23/gnu-linux-debian-desactiver-un-composant-hardware-clavier-souris-sous-linux/
, f 62;
#X restore 482 154 pd commandes_terminal;
#X text 522 220 Disable wacom as mouse device;
#X obj 111 141 route open;
#X msg 234 388 device not found;
#X msg 13 50 devices;
#X msg 400 227 xinput -list;
#X obj 440 315 list trim;
#X obj 459 567 list fromsymbol;
#X obj 450 492 list split 1;
#X obj 460 597 list split 3;
#X obj 498 624 list tosymbol;
#X msg 504 716 xinput float \$1;
#X obj 88 182 select 0 1;
#X msg 81 51 info;
#X obj 500 749 ggee/shell;
#X obj 414 339 cnv 15 150 30 empty empty empty 20 12 0 14 -257985 -66577
0;
#X msg 41 87 open 0x0002 0x000a \, 1;
#X obj 401 285 list split 4;
#X obj 440 344 route TrackPoint;
#X obj 297 36 r \$0-busy;
#X obj 295 61 select 1 0;
#X msg 246 130 open 6 \, 1;
#X obj 39 266 route relative;
#X obj 39 286 route x y;
#X msg 13 304 \$2;
#X msg 87 322 \$2;
#X floatatom 39 324 5 0 0 0 - - -;
#N canvas 0 50 450 300 median 0;
#X floatatom 11 168 5 0 0 0 - - -;
#X floatatom 11 147 5 0 0 0 - - -;
#X floatatom 10 189 5 0 0 0 - - -;
#X obj 58 74 t f b b;
#X obj 111 135 max;
#X obj 83 135 min;
#X obj 64 162 max;
#X obj 64 190 min;
#X text 147 129 on classe les 2 plus vieux nombres;
#X text 147 144 du plus petit au plus grand;
#X obj 55 102 f;
#X obj 83 102 f;
#X obj 111 102 f;
#X obj 46 28 inlet;
#X obj 57 225 outlet;
#X connect 3 0 10 0;
#X connect 3 1 11 0;
#X connect 3 2 12 0;
#X connect 4 0 7 1;
#X connect 5 0 6 1;
#X connect 6 0 7 0;
#X connect 7 0 14 0;
#X connect 10 0 1 0;
#X connect 10 0 6 0;
#X connect 10 0 11 1;
#X connect 11 0 0 0;
#X connect 11 0 5 0;
#X connect 11 0 4 0;
#X connect 11 0 12 1;
#X connect 12 0 2 0;
#X connect 12 0 5 1;
#X connect 12 0 4 1;
#X connect 13 0 3 0;
#X restore 25 376 pd median;
#N canvas 0 50 450 300 median 0;
#X floatatom 11 168 5 0 0 0 - - -;
#X floatatom 11 147 5 0 0 0 - - -;
#X floatatom 10 189 5 0 0 0 - - -;
#X obj 58 74 t f b b;
#X obj 111 135 max;
#X obj 83 135 min;
#X obj 64 162 max;
#X obj 64 190 min;
#X text 147 129 on classe les 2 plus vieux nombres;
#X text 147 144 du plus petit au plus grand;
#X obj 55 102 f;
#X obj 83 102 f;
#X obj 111 102 f;
#X obj 46 28 inlet;
#X obj 57 225 outlet;
#X connect 3 0 10 0;
#X connect 3 1 11 0;
#X connect 3 2 12 0;
#X connect 4 0 7 1;
#X connect 5 0 6 1;
#X connect 6 0 7 0;
#X connect 7 0 14 0;
#X connect 10 0 1 0;
#X connect 10 0 6 0;
#X connect 10 0 11 1;
#X connect 11 0 0 0;
#X connect 11 0 5 0;
#X connect 11 0 4 0;
#X connect 11 0 12 1;
#X connect 12 0 2 0;
#X connect 12 0 5 1;
#X connect 12 0 4 1;
#X connect 13 0 3 0;
#X restore 137 376 pd median;
#X obj 232 420 print data_trackpoint;
#X obj 26 440 + 80;
#X obj 26 467 / 160;
#X obj 26 493 min 1;
#X obj 26 520 max 0;
#X obj 189 512 min 1;
#X obj 189 539 max 0;
#X obj 189 459 - 80;
#X obj 189 486 / -160;
#X connect 0 0 28 0;
#X connect 0 1 8 0;
#X connect 5 0 23 0;
#X connect 8 0 18 0;
#X connect 9 0 35 0;
#X connect 10 0 0 0;
#X connect 11 0 5 0;
#X connect 12 0 24 0;
#X connect 13 0 15 0;
#X connect 14 0 13 0;
#X connect 15 1 16 0;
#X connect 16 0 17 0;
#X connect 17 0 20 0;
#X connect 18 0 9 0;
#X connect 18 1 11 0;
#X connect 19 0 0 0;
#X connect 22 0 0 0;
#X connect 23 1 12 0;
#X connect 24 0 14 0;
#X connect 25 0 26 0;
#X connect 26 0 22 0;
#X connect 27 0 0 0;
#X connect 28 0 29 0;
#X connect 29 0 30 0;
#X connect 29 1 31 0;
#X connect 30 0 32 0;
#X connect 30 0 33 0;
#X connect 31 0 34 0;
#X connect 33 0 36 0;
#X connect 34 0 42 0;
#X connect 36 0 37 0;
#X connect 37 0 38 0;
#X connect 38 0 39 0;
#X connect 39 0 1 0;
#X connect 40 0 41 0;
#X connect 41 0 3 0;
#X connect 42 0 43 0;
#X connect 43 0 40 0;
#X restore 383 263 pd \$0-hidio-trackpoint;
#X obj 404 85 module_loader data_trackpoint \$0 \$1;
#X obj 1101 219 namecanvas \$0-this;
#X obj 1099 196 triggered_loadbang \$0-this;
#X text 1094 136 manually trigger loadbang if the instance of abstraction
is created dynamically, f 29;
#X obj 121 129 ui_xy \$0 x 0 1 lin y 0 1 lin;
#X obj 383 296 s \$0-x;
#X obj 580 295 s \$0-y;
#X obj 718 274 delay 100;
#X obj 667 243 t f b;
#X obj 668 161 r \$0-x;
#X obj 667 208 spigot 1;
#X obj 718 301 t b b b;
#X msg 750 335 0.5;
#X obj 750 362 s \$0-x;
#X msg 779 202 0;
#X msg 781 169 1;
#X obj 882 269 delay 100;
#X obj 831 238 t f b;
#X obj 831 203 spigot 1;
#X obj 882 296 t b b b;
#X msg 914 330 0.5;
#X msg 942 197 0;
#X msg 944 164 1;
#X obj 831 156 r \$0-y;
#X obj 914 357 s \$0-y;
#X obj 346 339 r \$0-x;
#X obj 427 344 r \$0-y;
#X obj 355 434 pack f f;
#X msg 359 467 trackpoint \$1 \$2;
#X obj 427 373 change;
#X obj 427 402 t b f;
#X obj 994 17 declare -path ../../../core;
#X obj 994 37 declare -path ../../../core/stuff;
#X obj 994 57 declare -path ../../../core/rj;
#X obj 637 513 * 127;
#X obj 947 547 * 127;
#X obj 136 778 r \$0-ccx_enable;
#X obj 141 813 select 0 1;
#X msg 131 858 label off;
#X msg 162 895 label on;
#X obj 131 941 s \$0-ccx_enable-rcv;
#X obj 361 823 select 0 1;
#X msg 351 868 label off;
#X msg 382 905 label on;
#X obj 356 788 r \$0-ccy_enable;
#X obj 351 951 s \$0-ccy_enable-rcv;
#X connect 0 0 1 1;
#X connect 1 0 6 0;
#X connect 2 0 6 0;
#X connect 3 0 2 1;
#X connect 4 0 16 0;
#X connect 5 0 1 0;
#X connect 6 0 4 0;
#X connect 6 1 40 0;
#X connect 7 0 2 0;
#X connect 8 0 5 0;
#X connect 9 0 7 0;
#X connect 10 0 76 0;
#X connect 11 0 10 1;
#X connect 12 0 77 0;
#X connect 13 0 12 1;
#X connect 23 0 24 0;
#X connect 25 0 26 0;
#X connect 27 0 42 0;
#X connect 27 0 28 0;
#X connect 39 0 42 1;
#X connect 39 1 42 2;
#X connect 41 0 47 0;
#X connect 41 1 48 0;
#X connect 42 0 38 0;
#X connect 42 1 39 0;
#X connect 49 0 53 0;
#X connect 50 0 10 0;
#X connect 50 1 49 0;
#X connect 51 0 52 0;
#X connect 52 0 50 0;
#X connect 53 0 57 0;
#X connect 53 1 54 0;
#X connect 53 2 56 0;
#X connect 54 0 55 0;
#X connect 56 0 52 1;
#X connect 57 0 52 1;
#X connect 58 0 61 0;
#X connect 59 0 12 0;
#X connect 59 1 58 0;
#X connect 60 0 59 0;
#X connect 61 0 64 0;
#X connect 61 1 62 0;
#X connect 61 2 63 0;
#X connect 62 0 66 0;
#X connect 63 0 60 1;
#X connect 64 0 60 1;
#X connect 65 0 60 0;
#X connect 67 0 69 0;
#X connect 68 0 71 0;
#X connect 69 0 70 0;
#X connect 70 0 28 0;
#X connect 71 0 72 0;
#X connect 72 0 69 0;
#X connect 72 1 69 1;
#X connect 76 0 1 0;
#X connect 77 0 2 0;
#X connect 78 0 79 0;
#X connect 79 0 80 0;
#X connect 79 1 81 0;
#X connect 80 0 82 0;
#X connect 81 0 82 0;
#X connect 83 0 84 0;
#X connect 83 1 85 0;
#X connect 84 0 87 0;
#X connect 85 0 87 0;
#X connect 86 0 83 0;
#X coords 0 0 1 1 190 70 1 100 100;
