#N canvas 0 57 1920 1023 10;
#X obj 40 354 outlet;
#X obj 683 260 list trim;
#N canvas 456 152 1288 691 gestion_presets_module 0;
#X obj 63 118 text size \$0-list-presets;
#X obj 272 531 text get \$0-list-presets;
#X msg 272 595 label \$1;
#X obj 14 143 s \$0-size;
#N canvas 388 468 386 286 \$0-presets 0;
#X obj 5 1 cnv 15 350 250 empty empty \$1 20 12 0 14 -233017 -66577
0;
#X obj 238 68 bng 40 250 50 0 \$0-ok empty empty 17 30 0 15 -4034 -1
-1;
#X obj 238 208 bng 40 250 50 0 \$0-cancel empty X 10 20 0 40 -4032
-1 -1;
#X obj 238 116 bng 40 250 50 0 \$0-save empty empty 2 30 0 15 -258113
-1 -1;
#X obj 166 35 vsl 150 25 1 0 0 0 \$2-presets \$2-presets-rcv Preset2
2 15 0 14 -232576 -232576 -1 0 1;
#X text 7 42 Que veux-tu faire avec;
#X text 318 40 ?;
#X text 53 218 ANNULER;
#X text 53 124 SAUVER LES REGLAGES COURANTS DANS CE PRESET, f 24;
#X obj 237 160 bng 40 250 50 0 \$0-save-as empty empty 2 30 0 15 -260097
-1 -1;
#X text 51 74 LE RAPPELER (ET PERDRE LES REGLAGES COURANTS), f 25
;
#X symbolatom 105 191 15 0 0 0 - #0-save-as-name-rcv #0-save-as-name
;
#X text 52 163 SAUVER LES REGLAGES COURANTS DANS UN NOUVEAU PRESET
, f 26;
#X restore 802 54 pd \$0-presets;
#X obj 276 561 list split 1;
#N canvas 0 50 640 532 parse/drip 0;
#X obj 81 27 inlet flush;
#X obj 254 25 inlet append;
#X obj 84 403 outlet;
#X obj 80 74 list append;
#X obj 79 205 route @;
#X obj 78 139 list split 1;
#X obj 157 264 list prepend;
#X obj 80 170 list trim;
#X obj 236 308 list;
#X obj 87 343 list append;
#X obj 75 300 t b b b;
#X obj 173 111 list append;
#X obj 176 88 delay 1;
#X obj 128 236 t b a;
#X obj 158 170 t b b;
#X obj 88 372 list trim;
#X obj 80 47 t b;
#X text 275 94 next;
#X connect 0 0 16 0;
#X connect 1 0 3 1;
#X connect 3 0 5 0;
#X connect 4 0 10 0;
#X connect 4 1 13 0;
#X connect 5 0 7 0;
#X connect 5 1 11 1;
#X connect 5 2 14 0;
#X connect 6 0 8 0;
#X connect 6 0 9 1;
#X connect 7 0 4 0;
#X connect 8 0 6 1;
#X connect 9 0 15 0;
#X connect 10 0 12 0;
#X connect 10 1 6 1;
#X connect 10 1 9 1;
#X connect 10 2 9 0;
#X connect 11 0 5 0;
#X connect 12 0 11 0;
#X connect 13 0 12 0;
#X connect 13 1 6 0;
#X connect 14 0 6 1;
#X connect 14 1 9 0;
#X connect 15 0 2 0;
#X connect 16 0 3 0;
#X restore 549 571 pd parse/drip;
#X obj 588 611 outlet;
#N canvas 1 56 1905 1025 roll_preset_list 0;
#X obj 204 307 outlet;
#X obj 241 31 t f b;
#X obj 206 249 int;
#X obj 204 151 moses;
#X obj 207 228 t f f;
#X obj 238 111 r \$0-size;
#X obj 152 127 moses 0;
#X obj 134 184 +;
#X msg 149 161 -0.1;
#X msg 236 190 0;
#X obj 171 98 + 0;
#X obj 200 279 change;
#X obj 286 158 + 1;
#X obj 238 1 r \$2-presets;
#X obj 321 83 s \$2-presets-rcv;
#X obj 241 61 - 0.9;
#X msg 323 60 set 0.9;
#X connect 1 0 15 0;
#X connect 1 1 16 0;
#X connect 2 0 11 0;
#X connect 3 0 4 0;
#X connect 3 1 9 0;
#X connect 4 0 2 0;
#X connect 4 1 10 1;
#X connect 5 0 7 1;
#X connect 5 0 12 0;
#X connect 6 0 8 0;
#X connect 6 1 3 0;
#X connect 7 0 4 0;
#X connect 8 0 7 0;
#X connect 9 0 4 0;
#X connect 10 0 6 0;
#X connect 11 0 0 0;
#X connect 12 0 3 1;
#X connect 13 0 1 0;
#X connect 15 0 10 0;
#X connect 16 0 14 0;
#X restore 341 355 pd roll_preset_list;
#X obj 613 267 s pd-\$0-presets;
#X obj 38 64 bng 15 250 50 0 empty empty empty 17 7 0 10 -262144 -1
-1;
#X obj 760 105 r \$0-ok;
#X obj 842 119 r \$0-cancel;
#X obj 761 154 t b b;
#X msg 819 176 vis 0;
#X text 812 26 popup;
#X obj 415 616 s \$0-preset-name;
#X msg 614 156 vis 1 \, vis 1;
#X obj 982 530 s \$0-save-as-name-rcv;
#X obj 986 476 makefilename Preset%d;
#X obj 987 433 + 1;
#X obj 990 397 r \$0-size;
#X msg 1007 506 set \$1;
#X obj 814 366 symbol;
#X obj 910 343 r \$0-save-as-name;
#X obj 810 342 r \$0-save-as;
#X obj 826 559 text set \$0-list-presets;
#X msg 877 526 1e+06;
#X obj 802 249 route local;
#X obj 771 300 u_collect;
#X msg 1001 61 savelocal;
#X obj 759 275 list append @;
#X msg 877 453 set \$1;
#X obj 703 646 s \$0-size;
#X obj 691 584 text size \$0-list-presets;
#X obj 696 545 delay 200;
#X obj 696 514 delay 100;
#X obj 701 324 r \$0-save;
#X obj 814 390 t s b;
#X obj 798 421 t b b s b;
#X obj 805 526 list;
#X obj 158 223 text define \$0-list-presets;
#X obj 157 20 loadbang;
#X obj 232 100 symbol \$1;
#X obj 109 55 t b b;
#X obj 495 16 symbol \$1;
#X obj 498 38 t b s;
#X obj 455 57 delay 100;
#X obj 452 108 s \$1_ADMIN;
#X obj 244 15 r \$1_ADMIN;
#X msg 451 83 refresh;
#X obj 244 49 route refresh;
#X obj 107 99 delay 100;
#X obj 444 4 bng 15 250 50 0 empty empty empty 17 7 0 10 -262144 -1
-1;
#X obj 90 12 bng 15 250 50 0 empty empty empty 17 7 0 10 -262144 -1
-1;
#X floatatom 103 154 5 0 0 0 - - -;
#X obj 686 374 symbol Preset1;
#X obj 615 130 delay 200;
#X text 911 249 fonctionne avec version modifiée de u_sssad, f 23
;
#X obj 143 389 moses 0;
#X obj 188 415 t b f;
#X obj 181 438 delay 40;
#X text 117 317 rappel du preset par son nom;
#X obj 140 365 text search \$0-list-presets;
#X obj 611 52 r \$2-presets;
#X obj 996 89 s \$2-SSSAD_ADMIN;
#X obj 802 226 r \$2-SSSAD_ADMIN;
#X obj 720 474 s \$2-SSSAD_ADMIN;
#X msg 716 452 getValuesInto local;
#X obj 138 344 r \$2-preset-search;
#X obj 270 620 s \$2-presets-rcv;
#X obj 638 92 t b b;
#X msg 168 195 clear \, read presets/\$1.txt;
#X msg 239 165 write presets/\$1.txt;
#X msg 861 599;
#X connect 0 0 3 0;
#X connect 0 0 55 0;
#X connect 1 0 5 0;
#X connect 2 0 16 0;
#X connect 2 0 70 0;
#X connect 5 0 2 0;
#X connect 5 0 56 1;
#X connect 5 1 6 1;
#X connect 6 0 7 0;
#X connect 8 0 1 0;
#X connect 8 0 26 1;
#X connect 10 0 0 0;
#X connect 11 0 13 0;
#X connect 12 0 14 0;
#X connect 13 0 6 0;
#X connect 13 1 14 0;
#X connect 14 0 9 0;
#X connect 17 0 9 0;
#X connect 19 0 22 0;
#X connect 19 0 23 1;
#X connect 20 0 19 0;
#X connect 21 0 20 0;
#X connect 22 0 18 0;
#X connect 23 0 38 0;
#X connect 24 0 23 0;
#X connect 25 0 23 0;
#X connect 27 0 26 1;
#X connect 28 0 31 0;
#X connect 29 0 74 0;
#X connect 30 0 65 0;
#X connect 31 0 29 0;
#X connect 32 0 74 0;
#X connect 34 0 33 0;
#X connect 35 0 34 0;
#X connect 35 0 45 0;
#X connect 36 0 74 0;
#X connect 36 0 35 0;
#X connect 37 0 56 0;
#X connect 38 0 39 0;
#X connect 38 1 27 0;
#X connect 39 0 36 0;
#X connect 39 1 68 0;
#X connect 39 2 32 0;
#X connect 39 3 14 0;
#X connect 40 0 26 0;
#X connect 43 0 72 0;
#X connect 44 0 52 0;
#X connect 44 1 43 0;
#X connect 45 0 46 0;
#X connect 46 0 47 0;
#X connect 46 1 73 0;
#X connect 47 0 50 0;
#X connect 49 0 51 0;
#X connect 50 0 48 0;
#X connect 51 0 44 0;
#X connect 52 0 0 0;
#X connect 53 0 45 0;
#X connect 54 0 44 0;
#X connect 56 0 39 0;
#X connect 57 0 17 0;
#X connect 59 1 60 0;
#X connect 60 0 61 0;
#X connect 60 1 1 0;
#X connect 61 0 6 0;
#X connect 63 0 59 0;
#X connect 64 0 71 0;
#X connect 66 0 28 0;
#X connect 68 0 67 0;
#X connect 69 0 63 0;
#X connect 71 0 57 0;
#X connect 71 1 44 0;
#X connect 72 0 41 0;
#X connect 73 0 41 0;
#X connect 74 0 40 0;
#X restore 199 299 pd gestion_presets_module;
#X text 737 303 gestion des présets au niveau du type de module;
#X obj 676 203 route lastUsed;
#X obj 818 172 list prepend lastUsed;
#X obj 822 141 makefilename \$1-%d;
#N canvas 0 57 1920 1023 u_loader 0;
#X obj 65 196 list trim;
#X msg 65 328 setonly \$1;
#X obj 65 248 t a a;
#X obj 65 306 list;
#X msg 599 97 save;
#X obj 599 71 inlet;
#X obj 57 131 outlet;
#X text 35 94 Store presets;
#N canvas 228 198 627 317 LICENSE-BSD 0;
#X text 121 56 This software is copyrighted by Miller Puckette \, Reality
Jockey Ltd. and others. The terms (the "Standard Improved BSD License")
apply to all files associated with the software unless explicitly disclaimed
in individual files.;
#X text 123 148 See the file LICENSE.txt for the full license text.
;
#X restore 693 60 pd LICENSE-BSD;
#X obj 480 43 makefilename \$1-%d;
#X obj 151 54 r \$2-SSSAD_ADMIN;
#X obj 483 14 r \$2-ID;
#X obj 151 117 list prepend \$1-ID;
#X obj 65 222 route \$1-ID;
#X obj 97 270 s \$2-SSSAD;
#X obj 65 352 s \$2-SSSAD_ADMIN;
#X obj 475 238 s \$2-SSSAD_ADMIN;
#X obj 555 164 r \$2-busy;
#X obj 475 192 spigot 1;
#X obj 151 86 route persist target;
#X obj 341 138 list prepend \$1-ID;
#X obj 302 111 list split 1;
#X obj 300 202 list append;
#X obj 315 171 t b s;
#X obj 300 224 s;
#X obj 65 174 glocal/glocal.receive RJ_SCENE_LOAD;
#X obj 151 144 glocal/glocal.send RJ_SCENE;
#X obj 465 126 glocal/glocal.receive RJ_SCENE_SAVE;
#X connect 0 0 13 0;
#X connect 1 0 15 0;
#X connect 2 0 3 0;
#X connect 2 1 14 0;
#X connect 3 0 1 0;
#X connect 4 0 18 0;
#X connect 5 0 4 0;
#X connect 9 0 12 1;
#X connect 9 0 13 1;
#X connect 9 0 20 1;
#X connect 10 0 19 0;
#X connect 11 0 9 0;
#X connect 12 0 26 0;
#X connect 13 0 2 0;
#X connect 17 0 18 1;
#X connect 18 0 16 0;
#X connect 19 0 6 0;
#X connect 19 0 12 0;
#X connect 19 1 21 0;
#X connect 20 0 22 1;
#X connect 21 0 23 0;
#X connect 21 1 20 0;
#X connect 22 0 24 0;
#X connect 23 0 22 0;
#X connect 23 1 24 1;
#X connect 25 0 0 0;
#X connect 27 0 18 0;
#X restore 147 349 pd u_loader;
#X obj 825 112 r \$2-ID;
#X obj 676 230 list prepend;
#X obj 673 173 r \$2-RACK_ADMIN;
#N canvas 255 362 450 300 \$0-receive 0;
#X obj 4 47 outlet;
#X obj 0 0 r audio_clip-13;
#X obj 0 0 r audio_clip-13;
#X obj 0 0 r audio_clip-7;
#X connect 1 0 0 0;
#X connect 1 0 0 0;
#X connect 1 0 0 0;
#X restore 123 6 pd \$0-receive \$1-ID;
#X obj 454 216 s control-\$2;
#N canvas 482 50 888 434 echanges_avec_GUI_(ON_FOCUS) 0;
#X obj 321 68 select 1;
#X msg 310 143 getValuesInto Remote;
#X obj 183 217 route Remote;
#X obj 122 161 spigot;
#X obj 131 266 list trim;
#X obj 287 41 t f f;
#X obj 319 114 delay 100;
#X obj 318 90 t b b b;
#X obj 313 320 list prepend nbInstances;
#X obj 315 290 v \$1-nbInstances;
#X obj 287 18 r \$2-hasFocus;
#X obj 291 165 s \$2-SSSAD_ADMIN;
#X obj 183 197 r \$2-SSSAD_ADMIN;
#X obj 63 88 r \$2-SSSAD;
#X obj 133 330 s REMOTE;
#X text 317 201 flush des valeurs des parametres lors du focus sur
l'objet;
#X text 295 -14 voir comment signaler ce focus;
#X obj 476 127 list prepend focus \$1 \$2;
#X obj 655 166 list append 0;
#X obj 716 33 r \$2-ID;
#X connect 0 0 7 0;
#X connect 1 0 11 0;
#X connect 2 0 14 0;
#X connect 3 0 4 0;
#X connect 4 0 14 0;
#X connect 5 0 3 1;
#X connect 5 1 0 0;
#X connect 6 0 1 0;
#X connect 7 0 6 0;
#X connect 7 1 9 0;
#X connect 7 2 17 0;
#X connect 8 0 4 0;
#X connect 9 0 8 0;
#X connect 10 0 5 0;
#X connect 12 0 2 0;
#X connect 13 0 3 0;
#X connect 17 0 18 0;
#X connect 18 0 4 0;
#X connect 19 0 18 1;
#X restore 146 394 pd echanges_avec_GUI_(ON_FOCUS);
#X text 867 320 revoir l'interface;
#X obj 103 244 u_dispatch \$2 slot;
#X text 464 196 global send (ne pas utiliser);
#N canvas 543 93 450 300 midi-ctl 0;
#X obj 59 49 inlet;
#X obj 85 128 t l l;
#X msg 146 158 symbol \$3-\$1-midi-ctl;
#X msg 91 169 \$2;
#X obj 72 200 send;
#X obj 59 106 list append \$2;
#X obj 152 241 bng 15 250 50 0 empty empty empty 17 7 0 10 -262144
-1 -1;
#X floatatom 173 222 5 0 0 0 - - -;
#X obj 386 41 vsl 15 128 0 127 0 0 empty empty empty 0 -9 0 10 -262144
-1 -1 0 1;
#X msg 376 180 \; CTLIN \$1 1 1;
#X connect 0 0 5 0;
#X connect 1 0 3 0;
#X connect 1 1 2 0;
#X connect 2 0 4 1;
#X connect 3 0 4 0;
#X connect 3 0 7 0;
#X connect 5 0 1 0;
#X connect 8 0 9 0;
#X restore 208 216 pd midi-ctl;
#N canvas 0 50 487 372 getNamePos 0;
#X obj 75 48 inlet;
#X obj 71 93 symbol;
#X obj 157 102 r \$2-slot;
#X obj 156 133 t f f;
#X obj 158 184 pack f f;
#X obj 149 158 div 10;
#X obj 206 160 mod 10;
#X obj 73 193 list append \$1;
#X obj 75 123 t b s;
#X obj 105 282 s;
#X msg 97 255 symbol \$1(\$2:\$3);
#X obj 86 231 list append # #;
#X connect 0 0 1 0;
#X connect 1 0 8 0;
#X connect 2 0 3 0;
#X connect 3 0 5 0;
#X connect 3 1 6 0;
#X connect 4 0 11 1;
#X connect 5 0 4 0;
#X connect 6 0 4 1;
#X connect 7 0 11 0;
#X connect 8 0 7 0;
#X connect 8 1 9 1;
#X connect 10 0 9 0;
#X connect 11 0 10 0;
#X restore 302 344 pd getNamePos;
#N canvas 0 50 450 300 getParams 0;
#X obj 93 40 inlet;
#X obj 105 104 list split 1;
#X obj 96 249 s;
#X obj 89 212 list append;
#X obj 88 151 t b l;
#X obj 90 234 list trim;
#X obj 85 174 list append getParams;
#X obj 88 129 list append \$2;
#X msg 183 217 symbol \$2-\$1-service;
#X connect 0 0 1 0;
#X connect 1 0 7 0;
#X connect 1 1 3 1;
#X connect 3 0 5 0;
#X connect 4 0 6 0;
#X connect 4 1 8 0;
#X connect 5 0 2 0;
#X connect 6 0 3 0;
#X connect 7 0 4 0;
#X connect 8 0 2 1;
#X restore 326 273 pd getParams;
#X obj 727 546 select 1 0;
#X msg 768 596 color 0 -1;
#X msg 805 564 color \$1 -1;
#X floatatom 814 543 5 0 0 0 - - -;
#X msg 758 626 color 44 -1;
#X obj 727 438 r \$2-hasFocus;
#X obj 675 427 loadbang;
#N canvas 0 50 675 383 communication_avec_module_declare 0;
#X obj 42 16 loadbang;
#X obj 42 38 list append \$3;
#X text 198 134 <- pour éventuellement communiquer avec un "module_declare"
;
#X text 216 175 channels partagés avec module_declare;
#X text 211 214 slot busy hasFocus;
#X msg 96 100 1;
#X obj 84 211 spigot;
#X obj 82 162 r \$3-busy;
#X obj 84 233 s \$2-busy;
#X obj 84 321 spigot;
#X obj 84 343 s \$2-hasFocus;
#X obj 82 272 r \$3-hasFocus;
#X obj 93 135 s \$0-dollar3;
#X obj 123 185 r \$0-dollar3;
#X obj 123 295 r \$0-dollar3;
#X obj 244 311 spigot;
#X obj 283 285 r \$0-dollar3;
#X obj 242 262 r \$3-slot;
#X obj 243 365 s \$2-slot;
#X obj 424 311 spigot;
#X obj 463 285 r \$0-dollar3;
#X obj 422 262 r \$2-slot;
#X obj 414 377 s \$3-slot;
#X obj 244 333 spigot 1;
#X obj 389 339 t b a b;
#X msg 327 321 0;
#X msg 325 351 1;
#X obj 42 60 moses 1000;
#X text 139 62 si \$3 spécifié et > 1000 \, alors on ouvre un canal
de communication avec le module declare;
#X connect 0 0 1 0;
#X connect 1 0 27 0;
#X connect 5 0 12 0;
#X connect 6 0 8 0;
#X connect 7 0 6 0;
#X connect 9 0 10 0;
#X connect 11 0 9 0;
#X connect 13 0 6 1;
#X connect 14 0 9 1;
#X connect 15 0 23 0;
#X connect 16 0 15 1;
#X connect 17 0 15 0;
#X connect 19 0 24 0;
#X connect 20 0 19 1;
#X connect 21 0 19 0;
#X connect 23 0 18 0;
#X connect 24 0 26 0;
#X connect 24 1 22 0;
#X connect 24 2 25 0;
#X connect 25 0 23 1;
#X connect 26 0 23 1;
#X connect 27 1 5 0;
#X restore 433 402 pd communication_avec_module_declare;
#N canvas 0 50 450 300 hasFocus 0;
#X obj 44 30 inlet;
#X obj 23 171 s \$2-hasFocus;
#X obj 80 64 r \$0-dollar3;
#X obj 54 139 s \$3-hasFocus;
#X obj 24 90 list prepend 0;
#X obj 24 112 route 0 1;
#X text 112 203 cf [pd communication_avec_module_declare];
#X connect 0 0 4 0;
#X connect 2 0 4 1;
#X connect 4 0 5 0;
#X connect 5 0 1 0;
#X connect 5 1 3 0;
#X restore 224 177 pd hasFocus;
#N canvas 0 50 450 300 setFBChannel 0;
#X obj 93 40 inlet;
#X obj 105 104 list split 1;
#X obj 90 275 s;
#X obj 89 212 list append;
#X obj 88 151 t b l;
#X obj 90 234 list trim;
#X obj 88 129 list append \$2;
#X msg 183 217 symbol \$2-\$1-service;
#X obj 85 174 list append setFBchannel;
#X connect 0 0 1 0;
#X connect 1 0 6 0;
#X connect 1 1 3 1;
#X connect 3 0 5 0;
#X connect 4 0 8 0;
#X connect 4 1 7 0;
#X connect 5 0 2 0;
#X connect 6 0 4 0;
#X connect 7 0 2 1;
#X connect 8 0 3 0;
#X restore 366 247 pd setFBChannel;
#X text 388 298 demande transmise au midi-colors du paramètre concerné
pour obtenir les caractéristiques du mapping, f 27;
#X text 509 252 ouvertur d'un canal pour le feedback midi, f 18;
#X obj 27 34 inlet;
#X obj 22 169 list split 1;
#X obj 19 193 select \$1;
#X obj 19 240 list append;
#X obj 19 262 list trim;
#X obj 35 217 list prepend target;
#X obj 958 429 list append;
#X obj 973 472 s FOCUS;
#X text 1044 475 message global pour les instances ctl-assign3;
#N canvas 0 50 450 300 getSssadChannel 0;
#X obj 176 42 inlet;
#X obj 71 93 symbol;
#X obj 75 123 t b s;
#X obj 105 282 s;
#X obj 73 193 list append \$2-SSSAD;
#X connect 0 0 1 0;
#X connect 1 0 2 0;
#X connect 2 0 4 0;
#X connect 2 1 3 1;
#X connect 4 0 3 0;
#X restore 365 197 pd getSssadChannel;
#X obj 1153 344 s \$2-module_name;
#X obj 1152 283 r \$2-ID;
#X obj 1152 303 list prepend \$1;
#X msg 1152 325 symbol \$1-\$2;
#X obj 763 467 r \$2-ID;
#X obj 763 490 list prepend \$1;
#X msg 762 511 label \$1-\$2;
#N canvas 0 57 1920 1023 glocal.receive 0;
#X obj 37 37 inlet;
#X obj 170 719 outlet;
#X obj 75 385 route GLOCAL;
#X obj 79 451 route -1;
#X obj 413 117 loadbang;
#X obj 413 178 v GLOCAL.current;
#X obj 413 207 select 0;
#X obj 159 113 spigot 1;
#X msg 508 248 0;
#X text 476 82 hot plug;
#X obj 437 151 delay 1;
#X obj 159 84 r GLOCAL.base;
#X obj 158 173 moses \$0;
#X obj 158 222 max;
#X obj 158 251 t f f;
#X connect 0 0 2 0;
#X connect 2 0 3 0;
#X connect 2 1 1 0;
#X connect 3 0 1 0;
#X connect 4 0 10 0;
#X connect 5 0 6 0;
#X connect 6 1 3 1;
#X connect 6 1 8 0;
#X connect 7 0 12 0;
#X connect 8 0 7 1;
#X connect 10 0 5 0;
#X connect 11 0 7 0;
#X connect 12 0 13 0;
#X connect 13 0 14 0;
#X connect 14 0 3 1;
#X connect 14 1 13 1;
#X restore 123 109 pd glocal.receive;
#X obj 687 285 glocal/glocal.send RACK_ADMIN;
#X obj 173 37 r \$2-busy;
#X obj 126 69 spigot 1;
#X obj 1665 506 outlet savestate;
#X obj 1673 380 r \$2-SSSAD_ADMIN;
#X obj 1668 323 s \$2-SSSAD_ADMIN;
#X obj 1673 426 list;
#X obj 1426 335 list trim;
#X text 1463 124 local statesaving (pd-0.49);
#X obj 27 106 spigot 1;
#X obj 37 71 r \$0-savestate;
#X msg 1667 283 getValuesInto savestate;
#X obj 1673 403 route savestate;
#X obj 1518 284 s \$0-savestate;
#X msg 1514 262 0;
#X obj 1544 238 delay 10;
#X msg 1545 261 1;
#N canvas 0 50 1038 601 pipe 0;
#X obj 226 66 inlet;
#X obj 260 313 outlet;
#X obj 41 103 text define \$0-pipe;
#X obj 253 166 text insert \$0-pipe;
#X obj 280 112 t l b b;
#X msg 420 143 1;
#X msg 305 147 1e+07;
#X obj 405 261 text get \$0-pipe;
#X msg 398 194 0;
#X obj 321 204 t f f;
#X obj 260 235 text delete \$0-pipe;
#X obj 415 164 pipe f 20;
#X connect 0 0 4 0;
#X connect 4 0 3 0;
#X connect 4 1 6 0;
#X connect 4 2 5 0;
#X connect 5 0 11 0;
#X connect 6 0 3 1;
#X connect 7 0 1 0;
#X connect 8 0 9 0;
#X connect 9 0 10 0;
#X connect 9 1 7 0;
#X connect 11 0 8 0;
#X restore 1424 307 pd pipe list 20;
#X obj 1449 193 inlet savestate_outlet1;
#X obj 1636 173 inlet savestate_outlet2;
#X text 1522 310 delay messages after loadbang time, f 20;
#X text 1605 238 block loadbang init messages if savestate data, f
27;
#X obj 18 137 route target;
#X obj 281 32 r \$3-service;
#N canvas 0 50 450 300 dump 0;
#X obj 88 29 inlet;
#X obj 42 217 r \$2-SSSAD_ADMIN;
#X obj 43 189 s \$2-SSSAD_ADMIN;
#X obj 89 67 symbol;
#X obj 93 100 t b s;
#X msg 42 149 getValuesInto dump;
#X obj 42 240 route dump;
#X obj 44 270 s;
#X connect 0 0 3 0;
#X connect 1 0 6 0;
#X connect 3 0 4 0;
#X connect 4 0 5 0;
#X connect 4 1 7 1;
#X connect 5 0 2 0;
#X connect 6 0 7 0;
#X restore 379 175 pd dump;
#X obj 135 134 route remote midi-ctl setFocus getNamePos getParams
setFBchannel getSssadChannel dump savestate;
#X obj 1315 206 list;
#N canvas 0 50 450 300 saveTo 0;
#X obj 88 29 inlet;
#X obj 43 189 s \$2-SSSAD_ADMIN;
#X obj 89 67 symbol;
#X msg 42 149 saveTo \$1;
#X connect 0 0 2 0;
#X connect 2 0 3 0;
#X connect 3 0 1 0;
#X restore 550 77 pd saveTo;
#X obj 911 773 s \$2-embedding_mode;
#X text 962 750 forward embedding_mode;
#X obj 902 725 r \$3-embedding_mode;
#X obj 1593 407 r \$2-ID;
#X obj 1580 439 f;
#X obj 1550 410 t b;
#X msg 1580 463 list SID \$1;
#X obj 1436 226 t l b l;
#X obj 1452 391 list trim;
#X obj 1452 413 route SID;
#X obj 1452 435 s \$2-ID;
#N canvas 0 57 1920 1023 Choix_du_SID 0;
#X obj 105 35 loadbang;
#X obj 141 714 + 1;
#X text 87 13 instantiation auto;
#X obj 187 515 s \$2-ID;
#X obj 96 378 t f f f;
#N canvas 1 56 927 482 affichage 1;
#X obj 208 84 inlet;
#X obj 228 142 select 0;
#X obj 228 163 delay 1000;
#X obj 225 277 print \$1;
#X msg 220 228 \$1 instances présentes, f 13;
#X obj 226 185 glocal/glocal.value \$1-nbInstances;
#X connect 0 0 1 0;
#X connect 1 0 2 0;
#X connect 2 0 5 0;
#X connect 4 0 3 0;
#X connect 5 0 4 0;
#X restore 162 397 pd affichage nb instances on loadbang;
#X obj 108 80 select 0;
#X obj 188 156 - 1;
#X obj 187 189 s \$2-ID;
#X obj 108 58 list append \$3;
#X obj 191 129 moses 1000;
#X text 177 94 si 0<\$3<1000 \, il y a forçage du \$2-ID;
#X obj 262 157 t b;
#X msg 41 174 1;
#X obj 0 198 s \$2-busy;
#X msg 82 174 0;
#X obj 96 225 delay 1;
#N canvas 0 50 844 769 retrieve_ID_by_savestate 0;
#X obj 38 5 inlet;
#X obj 300 217 v;
#X obj 320 172 list prepend \$1;
#X msg 320 194 symbol \$1-\$2-ID;
#X obj 115 27 r \$2-ID;
#X msg 360 298 1;
#X obj 72 492 outlet;
#X obj 300 239 select 1 0;
#X text 269 310 ID dejà occupé. En trouver un autre, f 16;
#X obj 438 344 outlet;
#X obj 382 268 t b b;
#X obj 437 310 f;
#X text 130 59 si ID a été memorise dans savestate;
#X text 349 126 vérifier son unicité;
#X text 377 249 ID non occupé. Le valider;
#X text 24 126 ID non fourni par savestate, f 10;
#X obj 66 99 select -1;
#X obj 66 77 f -1;
#X floatatom 266 246 5 0 0 0 - - -;
#X obj 276 202 bng 15 250 50 0 empty empty empty 17 7 0 10 -262144
-1 -1;
#X obj 344 387 f;
#X obj 300 143 t b f f f;
#X obj 344 410 + 1;
#X msg 22 215 -1;
#X text 401 219 <---------- incompatibke avec pd 0.48-0;
#X connect 0 0 17 0;
#X connect 1 0 7 0;
#X connect 1 0 18 0;
#X connect 2 0 3 0;
#X connect 3 0 1 1;
#X connect 4 0 17 1;
#X connect 5 0 1 0;
#X connect 7 0 20 0;
#X connect 7 1 10 0;
#X connect 10 0 5 0;
#X connect 10 1 11 0;
#X connect 11 0 9 0;
#X connect 16 0 23 0;
#X connect 16 1 21 0;
#X connect 17 0 16 0;
#X connect 19 0 1 0;
#X connect 20 0 22 0;
#X connect 21 0 1 0;
#X connect 21 1 2 0;
#X connect 21 2 11 1;
#X connect 21 3 20 1;
#X connect 22 0 6 0;
#X connect 23 0 6 0;
#X restore 96 250 pd retrieve_ID_by_savestate;
#X text 279 269 TODO : "Glocaliser";
#X obj 146 502 v;
#X obj 174 460 list prepend \$1;
#X msg 174 482 symbol \$1-\$2-ID;
#X msg 139 463 1;
#X msg 411 466 obj 0 0 r \$1 \, connect 1 0 0 0;
#X obj 410 489 s pd-\$0-receive;
#X obj 413 419 makefilename \$1-%d;
#X text 209 500 Valider cet ID;
#X text 445 440 Créer dynamiquement un récepteur avec l'ID obtenu
;
#X obj 147 428 t f b f f;
#X obj 99 277 t b f;
#X obj 97 338 max;
#X obj 187 615 t b f;
#X obj 185 676 max;
#X obj 97 307 glocal/glocal.value \$1-nbInstances;
#X obj 185 653 glocal/glocal.value \$1-nbInstances;
#X obj 140 768 glocal/glocal.value \$1-nbInstances;
#X connect 0 0 9 0;
#X connect 1 0 35 0;
#X connect 4 0 1 0;
#X connect 4 1 28 0;
#X connect 4 2 5 0;
#X connect 6 0 13 0;
#X connect 6 0 16 0;
#X connect 6 1 10 0;
#X connect 7 0 8 0;
#X connect 7 0 25 0;
#X connect 9 0 6 0;
#X connect 10 0 7 0;
#X connect 10 0 13 0;
#X connect 10 1 12 0;
#X connect 12 0 15 0;
#X connect 12 0 16 0;
#X connect 13 0 14 0;
#X connect 15 0 14 0;
#X connect 16 0 17 0;
#X connect 17 0 29 0;
#X connect 17 1 25 0;
#X connect 17 1 31 0;
#X connect 20 0 21 0;
#X connect 21 0 19 1;
#X connect 22 0 19 0;
#X connect 23 0 24 0;
#X connect 25 0 23 0;
#X connect 28 0 25 0;
#X connect 28 1 22 0;
#X connect 28 2 20 0;
#X connect 28 3 3 0;
#X connect 29 0 33 0;
#X connect 29 1 30 1;
#X connect 30 0 4 0;
#X connect 31 0 34 0;
#X connect 31 1 32 1;
#X connect 32 0 1 0;
#X connect 33 0 30 0;
#X connect 34 0 32 0;
#X restore 329 439 pd Choix_du_SID;
#X obj 1632 200 t b b;
#X obj 720 665 s \$2-background-rcv;
#N canvas 773 277 1129 518 send_module_position_and_rcv_channel 0;
#X msg 233 139 get_pos;
#X obj 268 75 route label;
#X obj 133 141 list append;
#X obj 251 107 t b a;
#X obj 83 6 r \$2-background;
#X obj 268 52 r \$2-background-rcv;
#X obj 239 159 s \$2-background-rcv;
#X obj 83 29 unpack f f;
#X obj 83 52 - 1;
#X obj 139 56 - 1;
#X obj 87 85 pack f f;
#X obj 60 183 s MODULE_POSITION;
#X obj 114 114 list append \$1;
#X connect 0 0 6 0;
#X connect 1 0 3 0;
#X connect 2 0 11 0;
#X connect 3 0 0 0;
#X connect 3 1 2 1;
#X connect 4 0 7 0;
#X connect 5 0 1 0;
#X connect 7 0 8 0;
#X connect 7 1 9 0;
#X connect 8 0 10 0;
#X connect 9 0 10 1;
#X connect 10 0 12 0;
#X connect 12 0 2 0;
#X restore 289 568 pd send_module_position_and_rcv_channel;
#X connect 1 0 50 0;
#X connect 2 0 0 0;
#X connect 4 0 9 0;
#X connect 5 0 9 1;
#X connect 6 0 5 0;
#X connect 6 0 38 1;
#X connect 8 0 6 0;
#X connect 9 0 1 0;
#X connect 10 0 4 0;
#X connect 11 0 52 0;
#X connect 15 0 0 0;
#X connect 20 0 24 0;
#X connect 20 0 38 0;
#X connect 20 1 21 0;
#X connect 21 0 91 0;
#X connect 22 0 91 0;
#X connect 23 0 22 0;
#X connect 24 0 91 0;
#X connect 25 0 20 0;
#X connect 26 0 21 0;
#X connect 32 0 59 0;
#X connect 33 0 34 0;
#X connect 33 1 35 1;
#X connect 34 0 35 0;
#X connect 34 1 37 0;
#X connect 35 0 36 0;
#X connect 36 0 0 0;
#X connect 37 0 35 0;
#X connect 38 0 39 0;
#X connect 43 0 44 0;
#X connect 44 0 45 0;
#X connect 45 0 42 0;
#X connect 46 0 47 0;
#X connect 47 0 48 0;
#X connect 48 0 91 0;
#X connect 49 0 75 0;
#X connect 51 0 52 1;
#X connect 52 0 49 0;
#X connect 54 0 62 0;
#X connect 56 0 53 0;
#X connect 57 0 0 0;
#X connect 59 0 72 0;
#X connect 60 0 59 1;
#X connect 61 0 55 0;
#X connect 62 0 56 0;
#X connect 64 0 63 0;
#X connect 65 0 66 0;
#X connect 66 0 63 0;
#X connect 67 0 57 0;
#X connect 68 0 85 0;
#X connect 69 0 90 0;
#X connect 72 0 33 0;
#X connect 72 1 0 0;
#X connect 73 0 75 0;
#X connect 75 0 15 0;
#X connect 75 1 17 0;
#X connect 75 2 28 0;
#X connect 75 3 18 0;
#X connect 75 4 19 0;
#X connect 75 5 29 0;
#X connect 75 6 41 0;
#X connect 75 7 74 0;
#X connect 75 8 76 0;
#X connect 75 9 12 0;
#X connect 76 0 85 0;
#X connect 80 0 78 0;
#X connect 81 0 82 1;
#X connect 82 0 84 0;
#X connect 83 0 82 0;
#X connect 84 0 53 0;
#X connect 85 0 67 0;
#X connect 85 1 64 0;
#X connect 85 1 65 0;
#X connect 85 2 86 0;
#X connect 86 0 87 0;
#X connect 87 0 88 0;
#X connect 90 0 83 0;
#X connect 90 1 61 0;
