#N canvas 0 57 1920 1023 10;
#X obj 91 12 inlet;
#X obj 212 338 list append;
#X obj 212 367 list trim;
#X msg 167 182 1;
#X msg 135 182 0;
#X obj 80 391 outlet;
#X obj 164 11 r SPEED_LIM;
#X obj 107 78 == 0;
#X obj 393 27 r SPEED_LIM;
#X obj 388 96 select 0;
#X obj 140 224 change;
#X obj 196 57 spigot 1;
#X obj 60 116 spigot 0;
#X obj 461 50 loadbang;
#X obj 461 72 f \$1;
#X obj 133 150 delay 150;
#X msg 315 128 150;
#X obj 166 254 metro 150;
#X obj 194 103 t b b b a;
#X obj 204 286 spigot;
#X obj 204 308 t a b;
#X msg 293 275 0;
#X msg 252 263 1;
#X connect 0 0 11 0;
#X connect 0 0 12 0;
#X connect 1 0 2 0;
#X connect 2 0 5 0;
#X connect 3 0 10 0;
#X connect 4 0 10 0;
#X connect 6 0 7 0;
#X connect 6 0 11 1;
#X connect 7 0 12 1;
#X connect 8 0 9 0;
#X connect 9 0 16 0;
#X connect 9 1 15 1;
#X connect 9 1 17 1;
#X connect 10 0 17 0;
#X connect 11 0 18 0;
#X connect 12 0 5 0;
#X connect 13 0 14 0;
#X connect 14 0 9 0;
#X connect 15 0 4 0;
#X connect 16 0 15 1;
#X connect 16 0 17 1;
#X connect 17 0 19 0;
#X connect 18 0 15 0;
#X connect 18 1 3 0;
#X connect 18 2 22 0;
#X connect 18 3 1 1;
#X connect 19 0 20 0;
#X connect 20 0 1 0;
#X connect 20 1 21 0;
#X connect 21 0 19 1;
#X connect 22 0 19 1;
