#N canvas 257 592 1011 387 10;
#X obj 144 24 inlet;
#X obj 66 338 outlet;
#X obj 163 125 line;
#X obj 169 83 pack f f;
#X obj 276 69 r \$1-\$2-filt;
#X obj 626 154 u_parameter \$1 \$2-filt;
#X obj 426 111 list append \$2;
#X obj 456 204 s \$1-\$2-filt-rcv;
#X msg 422 152 label \$2-filtering:\$1;
#X obj 266 103 int;
#X obj 629 121 inlet;
#X obj 626 177 outlet;
#X connect 0 0 3 0;
#X connect 2 0 1 0;
#X connect 3 0 2 0;
#X connect 4 0 3 1;
#X connect 4 0 9 0;
#X connect 5 0 11 0;
#X connect 6 0 8 0;
#X connect 8 0 7 0;
#X connect 9 0 6 0;
#X connect 10 0 5 0;
