#N canvas 321 74 766 824 16;
#X obj 170 719 outlet;
#X obj 75 385 route GLOCAL;
#X obj 79 451 route -1;
#X obj 74 335 r \$1;
#X obj 413 117 loadbang;
#X obj 413 178 v GLOCAL.current;
#X obj 413 207 select 0;
#X obj 159 113 spigot 1;
#X msg 508 248 0;
#X text 476 82 hot plug;
#X obj 437 151 delay 1;
#X obj 159 84 r GLOCAL.base;
#X obj 158 173 moses \$0;
#X obj 158 222 max;
#X obj 158 251 t f f;
#X connect 1 0 2 0;
#X connect 1 1 0 0;
#X connect 2 0 0 0;
#X connect 3 0 1 0;
#X connect 4 0 10 0;
#X connect 5 0 6 0;
#X connect 6 1 2 1;
#X connect 6 1 8 0;
#X connect 7 0 12 0;
#X connect 8 0 7 1;
#X connect 10 0 5 0;
#X connect 11 0 7 0;
#X connect 12 0 13 0;
#X connect 13 0 14 0;
#X connect 14 0 2 1;
#X connect 14 1 13 1;
