#N canvas 181 134 1005 927 12;
#X declare -path ../../../core;
#X declare -path ../../../core/stuff;
#X declare -path ../../../core/rj;
#X declare -path ../../../core/fid_abs_vanilia-0.4;
#X obj 308 16 inlet~;
#X obj 388 16 inlet~;
#X obj 307 846 outlet~;
#X obj 389 848 outlet~;
#X obj 486 17 inlet;
#X obj 487 845 outlet;
#X obj 447 425 / 80181;
#X obj 884 75 namecanvas \$0-multitab;
#X obj 923 46 ui_multitab \$0;
#X obj 1241 299 namecanvas \$0-this;
#X obj 1239 276 triggered_loadbang \$0-this;
#X text 1234 226 manually trigger loadbang if the instance of abstraction
is created dynamically, f 29;
#X obj 670 44 module_loader inst_scratcher \$0 \$1;
#N canvas 0 50 1263 963 openpanel 0;
#X obj 283 15 inlet;
#X obj 160 809 outlet;
#X obj 191 59 openpanel;
#X obj 209 670 soundfiler;
#X msg 202 562 read -resize \$1 \$2 \$3;
#X obj 202 537 list append \$0-l \$0-r;
#X obj 160 46 bng 15 250 50 0 empty empty empty 17 7 0 10 -262144 -1
-1;
#X msg 336 44 set symbol \$1;
#X msg 336 69 symbol /home/jyg/Documents/Pd/externals/pdr/medias/sounds/soundfonts/others/Dj.wav
;
#X obj 142 22 inlet;
#X obj 178 134 s \$0-filename;
#X obj 198 164 r \$0-filename;
#X obj 309 771 s \$0-nb_samples;
#N canvas 0 50 819 560 sndfiler_with_readanysf~ 0;
#X obj 51 8 inlet;
#X obj 223 523 outlet;
#X obj 53 34 route read;
#X obj 179 114 list;
#X obj 61 85 route -resize -skip -raw -maxsize;
#X obj 53 56 list trim;
#X obj 118 372 *;
#X obj 150 305 samplerate~;
#N canvas 434 167 808 602 oversample 0;
#X obj 132 332 tabwrite~;
#X obj 218 327 tabwrite~;
#X msg 70 115 open \$1;
#X obj 53 288 t b b b;
#X msg 108 369 1;
#X msg 171 380 0;
#X obj 241 353 t b b b;
#X obj 74 12 inlet;
#X obj 76 460 outlet;
#X obj 114 422 switch~ 1024 1 64;
#X obj 264 466 outlet;
#X obj 71 60 unpack s s s, f 16;
#X text 631 266 autoresize;
#X obj 95 143 readanysf~ 2 16 1024;
#X msg 55 316 play;
#X obj 232 178 route ready bang length;
#X obj 601 294 * 44100;
#X obj 539 443 array size;
#X obj 637 443 array size;
#X obj 390 465 outlet;
#X obj 337 325 select 0;
#X obj 600 332 t b f f;
#X msg 147 288 set \$1;
#X msg 218 281 set \$1;
#X obj 46 227 delay 1;
#X obj 43 195 select 1;
#X obj 56 86 t b s b;
#X obj 546 230 pipe f 0;
#X obj 169 502 bang~;
#X obj 169 527 spigot;
#X obj 169 552 t b b;
#X msg 222 499 0;
#X msg 29 257 1;
#X obj 403 124 print readanysf;
#X connect 2 0 13 0;
#X connect 3 0 14 0;
#X connect 3 1 8 0;
#X connect 3 2 0 0;
#X connect 3 2 1 0;
#X connect 4 0 9 0;
#X connect 5 0 9 0;
#X connect 6 0 5 0;
#X connect 6 1 10 0;
#X connect 7 0 11 0;
#X connect 11 0 26 0;
#X connect 11 1 22 0;
#X connect 11 1 17 1;
#X connect 11 2 23 0;
#X connect 11 2 18 1;
#X connect 13 0 0 0;
#X connect 13 1 1 0;
#X connect 13 2 15 0;
#X connect 13 2 33 0;
#X connect 14 0 13 0;
#X connect 15 0 25 0;
#X connect 15 1 6 0;
#X connect 15 2 20 0;
#X connect 16 0 21 0;
#X connect 20 1 19 0;
#X connect 20 1 27 0;
#X connect 21 1 17 0;
#X connect 21 2 18 0;
#X connect 22 0 0 0;
#X connect 23 0 1 0;
#X connect 24 0 32 0;
#X connect 25 0 24 0;
#X connect 26 0 4 0;
#X connect 26 1 2 0;
#X connect 27 0 16 0;
#X connect 28 0 29 0;
#X connect 29 0 30 0;
#X connect 30 0 3 0;
#X connect 30 1 31 0;
#X connect 31 0 29 1;
#X connect 32 0 29 1;
#X restore 124 179 pd oversample;
#X obj 120 214 timer;
#X obj 120 236 * 64;
#X obj 120 258 * 0.001;
#X obj 120 280 t f b;
#X obj 120 437 spigot 1;
#X msg 176 399 1;
#X obj 179 136 t l l l b;
#X obj 286 389 * 44100;
#X obj 120 462 t b;
#X obj 120 487 f;
#X connect 0 0 2 0;
#X connect 2 0 5 0;
#X connect 3 0 15 0;
#X connect 4 0 3 0;
#X connect 4 4 3 0;
#X connect 5 0 4 0;
#X connect 6 0 13 0;
#X connect 7 0 6 1;
#X connect 8 0 9 0;
#X connect 8 1 9 1;
#X connect 8 2 16 0;
#X connect 9 0 10 0;
#X connect 10 0 11 0;
#X connect 11 0 12 0;
#X connect 12 0 6 0;
#X connect 12 1 7 0;
#X connect 13 0 17 0;
#X connect 14 0 13 1;
#X connect 15 0 8 0;
#X connect 15 3 14 0;
#X connect 16 0 18 1;
#X connect 17 0 18 0;
#X connect 18 0 1 0;
#X restore 329 682 pd sndfiler_with_readanysf~;
#X obj 345 600 list prepend 0;
#X obj 704 286 stuff/splitfilename /;
#X text 799 266 vanilla version of splitfilename;
#X obj 759 438 s \$0-displayname-rcv;
#X msg 754 405 label \$1;
#X obj 707 325 stuff/splitfilename .;
#X msg 828 406 label;
#X obj 200 268 t s s;
#X obj 907 361 select wav aiff WAV AIFF;
#X msg 937 414 0;
#X msg 1025 410 1;
#X obj 576 150 array define \$0-l;
#X obj 581 177 array define \$0-r;
#X obj 818 373 loadbang;
#X obj 200 244 symbol;
#N canvas 3 432 819 560 sndfiler_with_readsf~ 0;
#X obj 51 8 inlet;
#X obj 223 523 outlet;
#X obj 53 34 route read;
#X obj 179 114 list;
#X obj 61 85 route -resize -skip -raw -maxsize;
#X obj 53 56 list trim;
#X obj 118 372 *;
#X obj 150 305 samplerate~;
#N canvas 434 167 808 602 oversample 0;
#X obj 132 332 tabwrite~;
#X obj 218 327 tabwrite~;
#X msg 70 115 open \$1;
#X obj 62 279 t b b b;
#X msg 113 377 1;
#X msg 171 389 0;
#X obj 255 366 t b b b;
#X obj 74 12 inlet;
#X obj 47 423 outlet;
#X obj 114 422 switch~ 1024 1 64;
#X obj 264 466 outlet;
#X obj 71 60 unpack s s s, f 16;
#X text 635 332 autoresize;
#X obj 537 507 array size;
#X obj 635 507 array size;
#X obj 390 465 outlet;
#X obj 598 396 t b f f;
#X msg 147 288 set \$1;
#X msg 218 281 set \$1;
#X obj 12 196 delay 1;
#X obj 561 337 pipe f 0;
#X obj 158 488 bang~;
#X obj 169 527 spigot;
#X obj 169 552 t b b;
#X msg 222 499 0;
#X msg 19 240 1;
#X obj 95 175 readsf~ 2;
#N canvas 108 400 1070 404 parsing 0;
#X obj 98 21 inlet;
#N canvas 5 51 450 595 16bit-to-8bit 0;
#X obj 100 129 until;
#X obj 99 212 list store;
#X obj 100 96 t b b l;
#X obj 100 154 f;
#X obj 138 155 + 1;
#X msg 99 183 get \$1 1;
#X obj 99 293 t f f;
#X obj 154 322 >> 8;
#X obj 100 373 t f;
#X obj 100 326 & 255;
#X obj 154 345 & 255;
#X obj 99 252 * 32768;
#X obj 100 426 list store;
#X msg 100 396 append \$1;
#X msg 45 408 bang;
#X msg 145 127 0;
#X obj 93 65 t b l b;
#X obj 93 32 inlet 16bit/floatnorm;
#X obj 100 449 outlet 8bit/bytenorm;
#X connect 0 0 3 0;
#X connect 1 0 11 0;
#X connect 1 1 0 1;
#X connect 2 0 0 0;
#X connect 2 1 15 0;
#X connect 2 2 1 1;
#X connect 3 0 4 0;
#X connect 3 0 5 0;
#X connect 4 0 3 1;
#X connect 5 0 1 0;
#X connect 6 0 9 0;
#X connect 6 1 7 0;
#X connect 7 0 10 0;
#X connect 8 0 13 0;
#X connect 9 0 8 0;
#X connect 10 0 8 0;
#X connect 11 0 6 0;
#X connect 12 0 18 0;
#X connect 13 0 12 0;
#X connect 14 0 12 0;
#X connect 15 0 3 1;
#X connect 16 0 14 0;
#X connect 16 1 2 0;
#X connect 16 2 12 1;
#X connect 17 0 16 0;
#X restore 198 128 pd 16bit-to-8bit;
#N canvas 5 51 450 656 file-to-16bit 0;
#X obj 245 318 array define \$0-sndfile;
#X obj 110 328 soundfiler;
#X obj 77 233 list append \$0-sndfile;
#X floatatom 77 381 5 0 0 0 - - -;
#X obj 50 435 array get \$0-sndfile;
#X msg 50 414 0 -1;
#X obj 90 292 list trim;
#X obj 50 196 t b s;
#X obj 50 141 inlet filename;
#X obj 50 458 outlet 16bit/floatnorm;
#X text 43 68 read (any) file as 16bit soundfile \, and output samples
;
#X text 45 92 read maxsize bytes at most (actually maxsize+1 \, since
we are reading in pairs);
#X msg 88 256 read -resize -maxsize 10 -raw 0 1 2 b \$1 \$2;
#X connect 1 0 3 0;
#X connect 2 0 12 0;
#X connect 4 0 9 0;
#X connect 5 0 4 0;
#X connect 6 0 1 0;
#X connect 7 0 5 0;
#X connect 7 1 2 0;
#X connect 8 0 7 0;
#X connect 12 0 6 0;
#X restore 198 98 pd file-to-16bit;
#X obj 83 72 bng 15 250 50 0 empty empty empty 17 7 0 10 -262144 -1
-1;
#X text 292 11 https://www.isip.piconepress.com/projects/speech/software/tutorials/production/fundamentals/v1.0/section_02/s02_01_p05.html
;
#X obj 512 68 dnd/openpanel;
#X obj 778 21 bng 50 250 50 0 empty empty empty 17 7 0 10 -262144 -1
-1;
#N canvas 0 50 450 300 check_RIFF 0;
#X obj 141 16 inlet;
#X obj 95 311 outlet;
#X obj 225 319 outlet;
#X obj 171 109 list tosymbol;
#X obj 170 81 list split 4;
#X obj 129 228 list prepend;
#X obj 129 251 list trim;
#X obj 129 274 route RIFF riff;
#X symbolatom 222 139 10 0 0 0 - - -;
#X obj 143 46 t b l;
#X obj 110 192 list append;
#X connect 0 0 9 0;
#X connect 3 0 5 1;
#X connect 3 0 8 0;
#X connect 4 0 3 0;
#X connect 4 1 10 1;
#X connect 5 0 6 0;
#X connect 6 0 7 0;
#X connect 7 0 1 0;
#X connect 7 1 1 0;
#X connect 7 2 2 0;
#X connect 9 0 10 0;
#X connect 9 1 4 0;
#X connect 10 0 5 0;
#X restore 196 187 pd check_RIFF;
#N canvas 0 50 450 300 check_WAVE 0;
#X obj 61 23 inlet;
#X obj 53 253 outlet;
#X obj 172 42 t l l;
#X obj 243 112 list split 4;
#X obj 233 144 list tosymbol;
#X obj 214 74 list split 4;
#X obj 153 174 list prepend;
#X obj 153 197 list trim;
#X obj 153 220 route WAVE;
#X symbolatom 280 173 10 0 0 0 - - -;
#X obj 387 261 outlet;
#X connect 0 0 2 0;
#X connect 2 0 6 0;
#X connect 2 1 5 0;
#X connect 3 0 4 0;
#X connect 4 0 6 1;
#X connect 4 0 9 0;
#X connect 5 1 3 0;
#X connect 6 0 7 0;
#X connect 7 0 8 0;
#X connect 8 0 1 0;
#X connect 8 1 10 0;
#X restore 124 267 pd check_WAVE;
#X obj 127 364 outlet;
#N canvas 1 371 1135 847 get_filesize 0;
#X obj 61 35 inlet;
#X obj 81 180 list split 4;
#X obj 85 218 unpack f f f f;
#X obj 285 245 * 256;
#X obj 257 285 +;
#X obj 254 321 * 256;
#X obj 226 361 +;
#X obj 247 391 * 256;
#X obj 219 431 +;
#X obj 855 722 * 256;
#X obj 827 762 +;
#X floatatom 104 459 10 0 0 0 filesize - -;
#X obj 96 676 outlet;
#X obj 82 330 - 36;
#X text 30 299 header size;
#X connect 0 0 1 0;
#X connect 1 0 2 0;
#X connect 2 0 13 0;
#X connect 2 1 6 0;
#X connect 2 2 4 0;
#X connect 2 3 3 0;
#X connect 3 0 4 1;
#X connect 4 0 5 0;
#X connect 5 0 6 1;
#X connect 6 0 7 0;
#X connect 7 0 8 1;
#X connect 8 0 11 0;
#X connect 8 0 12 0;
#X connect 9 0 10 1;
#X connect 13 0 8 0;
#X restore 123 317 pd get_filesize;
#X connect 0 0 2 0;
#X connect 1 0 7 0;
#X connect 2 0 1 0;
#X connect 5 0 2 0;
#X connect 6 0 5 0;
#X connect 7 0 8 0;
#X connect 8 0 10 0;
#X connect 10 0 9 0;
#X restore 372 29 pd parsing wav header;
#X obj 6 91 t b s s s;
#X floatatom 375 57 10 0 0 0 - - -;
#X text 443 59 Right outlet outputs info as a list: samplerate \, headersize
\, num channels \, bytespersample \, & endianness ("b" or "l").;
#X obj 481 162 soundfiler;
#X obj 473 120 list append \$0-tab;
#X obj 547 189 unpack f f f f;
#X obj 605 226 *;
#X floatatom 605 272 5 0 0 0 - - -;
#X obj 487 250 /;
#X floatatom 647 208 5 0 0 0 - - -;
#X obj 533 287 t f f;
#X msg 60 151 1;
#X obj 8 147 t b b;
#X msg 479 143 read -maxsize 1 \$1 \$2 \$2;
#X obj 679 146 table \$0-tab;
#X floatatom 611 366 10 0 0 0 - - -;
#X floatatom 537 530 10 0 0 0 - - -;
#X obj 520 477 bng 15 250 50 0 empty empty empty 17 7 0 10 -262144
-1 -1;
#X connect 2 0 26 0;
#X connect 3 0 39 0;
#X connect 3 1 8 0;
#X connect 3 2 0 0;
#X connect 3 2 1 0;
#X connect 4 0 9 0;
#X connect 5 0 9 0;
#X connect 6 0 5 0;
#X connect 6 1 10 0;
#X connect 7 0 11 0;
#X connect 11 0 28 0;
#X connect 11 1 17 0;
#X connect 11 1 13 1;
#X connect 11 2 18 0;
#X connect 11 2 14 1;
#X connect 13 0 44 0;
#X connect 16 1 13 0;
#X connect 16 2 14 0;
#X connect 17 0 0 0;
#X connect 18 0 1 0;
#X connect 19 0 25 0;
#X connect 20 0 16 0;
#X connect 20 0 43 0;
#X connect 21 0 22 0;
#X connect 22 0 23 0;
#X connect 23 0 3 0;
#X connect 23 1 24 0;
#X connect 24 0 22 1;
#X connect 25 0 22 1;
#X connect 26 0 0 0;
#X connect 26 1 1 0;
#X connect 26 2 6 0;
#X connect 27 0 29 0;
#X connect 27 0 36 0;
#X connect 28 0 40 0;
#X connect 28 1 2 0;
#X connect 28 2 27 0;
#X connect 28 3 32 0;
#X connect 31 1 33 0;
#X connect 32 0 41 0;
#X connect 33 2 34 0;
#X connect 33 3 34 1;
#X connect 33 3 37 0;
#X connect 34 0 36 1;
#X connect 34 0 35 0;
#X connect 36 0 38 0;
#X connect 38 0 20 0;
#X connect 38 1 15 0;
#X connect 39 0 26 0;
#X connect 40 0 19 0;
#X connect 40 1 4 0;
#X connect 41 0 31 0;
#X connect 45 0 13 0;
#X restore 124 179 pd oversample;
#X obj 120 214 timer;
#X obj 120 236 * 64;
#X obj 120 258 * 0.001;
#X obj 120 280 t f b;
#X obj 120 437 spigot 1;
#X msg 176 399 1;
#X obj 179 136 t l l l b;
#X obj 120 462 t b;
#X obj 120 487 f;
#X floatatom 54 278 5 0 0 0 - - -;
#X floatatom 53 228 5 0 0 0 - - -;
#X obj 285 184 bng 15 250 50 0 empty empty empty 17 7 0 10 -262144
-1 -1;
#X obj 173 209 bng 15 250 50 0 empty empty empty 17 7 0 10 -262144
-1 -1;
#X connect 0 0 2 0;
#X connect 2 0 5 0;
#X connect 3 0 15 0;
#X connect 4 0 3 0;
#X connect 4 4 3 0;
#X connect 5 0 4 0;
#X connect 6 0 13 0;
#X connect 6 0 18 0;
#X connect 7 0 6 1;
#X connect 8 0 9 0;
#X connect 8 1 9 1;
#X connect 8 1 21 0;
#X connect 8 2 17 1;
#X connect 9 0 10 0;
#X connect 9 0 19 0;
#X connect 10 0 11 0;
#X connect 11 0 12 0;
#X connect 12 0 6 0;
#X connect 12 1 7 0;
#X connect 13 0 16 0;
#X connect 14 0 13 1;
#X connect 15 0 8 0;
#X connect 15 3 14 0;
#X connect 15 3 20 0;
#X connect 16 0 17 0;
#X connect 17 0 1 0;
#X restore 434 714 pd sndfiler_with_readsf~;
#X msg 973 469 2;
#X obj 345 625 route 2 1 0;
#X obj 309 725 t f f;
#N canvas 696 149 561 762 tosymbol 0;
#X text 65 454 symbol out with correct spaces;
#X text 81 12 string in;
#X obj 91 31 inlet;
#X obj 91 431 outlet;
#X obj 85 31 cnv 5 5 17 empty empty empty 20 12 0 14 -118750 -66577
0;
#X obj 85 431 cnv 5 5 17 empty empty empty 20 12 0 14 -102336 -66577
0;
#X obj 91 55 list;
#X obj 91 193 list store, f 13;
#X obj 91 102 until;
#X obj 91 128 f, f 7;
#X obj 153 128 + 1;
#X msg 91 171 get \$1 1;
#X obj 134 103 0;
#X obj 91 263 list fromsymbol;
#X obj 91 215 route symbol float;
#X obj 109 239 makefilename %s;
#X obj 91 150 t f f;
#X obj 91 380 list store, f 19;
#X obj 91 355 list trim;
#X obj 91 332 list prepend append;
#X obj 157 286 spigot;
#X msg 157 308 32;
#X obj 91 286 t l b, f 9;
#X obj 91 77 t b b a b, f 19;
#X obj 91 404 list tosymbol;
#X connect 2 0 6 0;
#X connect 6 0 23 0;
#X connect 7 0 14 0;
#X connect 7 1 8 1;
#X connect 7 1 17 0;
#X connect 8 0 9 0;
#X connect 9 0 10 0;
#X connect 9 0 16 0;
#X connect 10 0 9 1;
#X connect 11 0 7 0;
#X connect 12 0 9 1;
#X connect 13 0 22 0;
#X connect 14 0 13 0;
#X connect 14 1 15 0;
#X connect 15 0 13 0;
#X connect 16 0 11 0;
#X connect 16 1 20 1;
#X connect 17 0 24 0;
#X connect 18 0 17 0;
#X connect 19 0 18 0;
#X connect 20 0 21 0;
#X connect 21 0 19 0;
#X connect 22 0 19 0;
#X connect 22 1 20 0;
#X connect 23 0 8 0;
#X connect 23 1 12 0;
#X connect 23 2 7 1;
#X connect 23 3 17 1;
#X connect 24 0 3 0;
#X restore 194 202 pd tosymbol;
#X text 289 195 <- avoid white space problems;
#X msg 34 306 symbol ../externals/pdr/medias/sounds/soundfonts;
#N canvas 0 50 450 300 getdir 0;
#X obj 114 59 inlet;
#X obj 114 84 t b;
#X msg 104 184 dir \$1;
#X obj 104 209 pdcontrol;
#X obj 114 134 + 1;
#X obj 104 234 outlet;
#X text 178 117 <- parent depth;
#X text 158 141 + this subpatch level;
#X obj 114 109 f 3;
#X connect 0 0 1 0;
#X connect 1 0 8 0;
#X connect 2 0 3 0;
#X connect 3 0 5 0;
#X connect 4 0 2 0;
#X connect 8 0 4 0;
#X restore 47 175 pd getdir 3;
#X msg 47 200 set \$1;
#X msg 47 225 /home/jyg/Documents/Pd/patches;
#X obj 49 114 bng 15 250 50 0 empty empty empty 17 7 0 10 -262144 -1
-1;
#X connect 0 0 10 0;
#X connect 2 0 7 0;
#X connect 2 0 10 0;
#X connect 3 0 32 0;
#X connect 4 0 14 0;
#X connect 5 0 4 0;
#X connect 7 0 8 0;
#X connect 8 0 10 0;
#X connect 9 0 35 0;
#X connect 11 0 33 0;
#X connect 13 0 32 0;
#X connect 14 0 31 0;
#X connect 15 1 19 0;
#X connect 18 0 17 0;
#X connect 19 0 18 0;
#X connect 19 1 22 0;
#X connect 20 0 17 0;
#X connect 21 0 5 0;
#X connect 21 1 15 0;
#X connect 22 0 23 0;
#X connect 22 1 30 0;
#X connect 22 2 23 0;
#X connect 22 3 30 0;
#X connect 22 4 24 0;
#X connect 23 0 14 1;
#X connect 24 0 14 1;
#X connect 27 0 20 0;
#X connect 28 0 21 0;
#X connect 29 0 32 0;
#X connect 30 0 14 1;
#X connect 31 0 3 0;
#X connect 31 1 13 0;
#X connect 31 2 29 0;
#X connect 32 0 1 0;
#X connect 32 1 12 0;
#X connect 33 0 28 0;
#X connect 35 0 2 0;
#X connect 36 0 2 0;
#X connect 36 0 37 0;
#X connect 37 0 38 0;
#X connect 39 0 36 0;
#X restore 280 331 pd openpanel;
#X obj 274 100 bng 15 250 50 0 empty empty o 4 7 0 13 -262144 -1 -258113
;
#X obj 547 220 t b f;
#X obj 103 115 hsl 146 20 0.001 1 0 0 \$0-to \$0-to-rcv empty -2 -8
0 10 -261682 -1 -1 0 1;
#X obj 104 150 hsl 146 20 0 1 0 0 \$0-from \$0-from-rcv empty -2 -8
0 10 -261682 -1 -1 0 1;
#X obj 105 135 hsl 146 15 0 1 0 0 \$0-seek \$0-seek-rcv 0:0 12 0 0
40 -204786 -1 -159808 0 0;
#X obj 672 69 u_dispatch \$0 filename;
#X obj 252 115 ui_vs \$0 vol 0 127;
#X obj 670 94 u_dispatch \$0 vol;
#X obj 670 119 u_parameter \$0 to;
#X obj 670 144 u_parameter \$0 from;
#X obj 247 746 *~;
#X obj 368 589 r \$0-vol;
#X obj 368 614 dbtorms;
#X obj 351 748 *~;
#X obj 101 153 cnv 1 1 1 empty \$0-displayname-rcv empty 2 8 0 14 -233017
-66577 0;
#X obj 641 -12 loadbang;
#X obj 442 463 s \$0-nb_revolutions;
#N canvas 0 50 450 300 display_index 0;
#X obj 226 29 inlet;
#X obj 222 285 outlet;
#X obj 230 112 int;
#X obj 230 137 t f f;
#X obj 212 208 pack f f;
#X msg 167 238 label \$2:\$1;
#X obj 230 87 * 10;
#X obj 212 183 mod 10;
#X obj 275 183 div 10;
#X msg 301 243 label 0:0;
#X obj 328 63 * 1;
#X obj 359 41 r \$0-nb_revolutions;
#X obj 226 54 t f f;
#X msg 74 108 set \$1;
#X obj 353 193 loadbang;
#X connect 0 0 12 0;
#X connect 2 0 3 0;
#X connect 3 0 7 0;
#X connect 3 1 8 0;
#X connect 4 0 5 0;
#X connect 5 0 1 0;
#X connect 6 0 2 0;
#X connect 7 0 4 0;
#X connect 8 0 4 1;
#X connect 9 0 1 0;
#X connect 10 0 6 0;
#X connect 11 0 10 1;
#X connect 12 0 13 0;
#X connect 12 1 10 0;
#X connect 13 0 1 0;
#X connect 14 0 9 0;
#X restore 61 79 pd display_index;
#X obj 49 0 r \$0-index;
#X text 508 416 nb samples/tour @ 33.33 rpm @ 44100Hz, f 27;
#X obj 700 445 moses 0;
#X obj 746 497 moses 1;
#X obj 734 345 r \$0-nb_revolutions;
#X obj 701 420 * 1;
#X obj 734 395 /;
#X msg 734 370 1 \$1;
#X obj 808 409 r \$0-from;
#X obj 827 439 r \$0-to;
#X obj 697 472 t b;
#X obj 697 497 f;
#X obj 790 523 t b;
#X obj 790 548 f;
#X obj 758 623 * 1;
#X obj 758 648 s \$0-set;
#X obj 785 596 r \$0-nb_revolutions;
#X obj 212 100 bng 15 250 50 0 \$0-in empty IN 2 8 0 9 -1 -1 -257985
;
#X obj 228 100 bng 15 250 50 0 \$0-out empty OUT 0 8 0 9 -1 -1 -261234
;
#X obj 58 294 r \$0-index;
#X obj 41 354 f;
#X obj 112 359 f;
#X obj 28 327 r \$0-in;
#X obj 119 331 r \$0-out;
#X obj 41 376 s \$0-from;
#X obj 112 381 s \$0-to;
#X obj 248 591 r \$0-index;
#N canvas 0 57 1920 1023 scratchstuff 0;
#X obj 127 11 inlet;
#X obj 44 962 outlet~;
#X obj 179 958 outlet~;
#X obj 64 705 rpole~ 1;
#X obj 190 132 -;
#X obj 98 351 spigot;
#X obj 252 267 select 1;
#X obj 164 108 t f f f f f;
#X obj 225 385 f;
#X msg 175 658 set \$1;
#X obj 50 934 tabread4~ \$0-l;
#X obj 183 933 tabread4~ \$0-r;
#X obj 208 234 ||;
#X obj 135 285 == 0;
#X msg 120 416 \$1;
#X obj 61 595 -~;
#X obj 61 479 rzero~ 1;
#X obj 559 27 inlet;
#X obj 209 196 < -10;
#X obj 271 194 > 10;
#X obj 59 875 *~ 1000;
#X obj 321 403 /;
#X msg 327 375 1 \$1;
#X obj 310 456 + 1;
#X obj 317 430 * 934;
#X obj 170 44 * 80181;
#X obj 61 642 lop~ 8;
#X obj 62 665 lop~ 8;
#X obj 61 618 lop~ 3;
#X text 366 427 facteur de conmpensation inversement proportionnel
à la taille du saut entre debut et fin du sample;
#X obj 265 335 bng 15 250 50 0 empty empty empty 17 7 0 10 -262144
-1 -1;
#X obj 165 75 / 1000;
#X obj 61 452 vline~;
#X msg 98 376 \$1 20;
#X obj 84 569 *~;
#X obj 84 538 *~ 1;
#X obj 102 511 expr~ ($v1<-10)+($v1>10);
#X text 376 500 very empirical;
#X obj 399 713 snapshot~;
#X obj 399 784 change;
#X obj 399 809 select 1;
#X obj 439 834 f;
#X msg 424 931 set \$1;
#X text 481 703 to resolve single precision problem of rpole~;
#X obj 181 415 t f f f;
#X obj 236 586 int;
#X obj 203 538 t f f;
#X obj 203 632 -;
#X obj 130 839 +;
#X obj 165 839 f;
#X obj 399 738 t f f f f;
#X obj 482 788 change;
#X obj 482 810 select 1;
#X obj 490 836 f;
#X obj 418 530 metro 200;
#X obj 162 877 * 1000;
#X text 222 876 onset value;
#X obj 235 561 / 200;
#X obj 236 609 * 200;
#X msg 131 800 200;
#X msg 185 807 -200;
#X obj 439 859 - 200;
#X obj 490 861 + 200;
#X obj 482 766 < -200;
#X obj 399 762 > 200;
#X obj 826 625 noise~;
#X obj 833 766 *~ 0;
#X obj 913 725 hsl 128 15 0 1000 0 1 empty empty empty -2 -8 0 10 -262144
-1 -1 0 1;
#X obj 830 663 lop~ 1;
#X obj 831 690 lop~ 1;
#X obj 831 721 lop~ 1;
#X obj 921 630 hsl 128 15 0 127 0 1 empty empty empty -2 -8 0 10 -262144
-1 -1 2500 1;
#X floatatom 918 650 5 0 0 0 - - -;
#X floatatom 910 745 5 0 0 0 - - -;
#X obj 1084 637 noise~;
#X obj 1089 802 *~ 0;
#X obj 1197 751 hsl 128 15 0.001 100 1 1 empty empty empty -2 -8 0
10 -262144 -1 -1 0 1;
#X obj 1200 611 hsl 128 15 20 20000 1 1 empty empty bp -2 -8 0 10 -262144
-1 -1 4500 1;
#X floatatom 1197 631 5 0 0 0 - - -;
#X floatatom 1195 772 5 0 0 0 - - -;
#X obj 1088 675 bp~ 1;
#X obj 1089 702 bp~ 1;
#X obj 1089 733 bp~ 1;
#X obj 1203 676 hsl 128 15 0 20 0 1 empty empty q -2 -8 0 10 -262144
-1 -1 3200 1;
#X floatatom 1200 696 5 0 0 0 - - -;
#X obj 190 155 t f f f f;
#X obj 330 305 f;
#X text 613 29 wavtable length (samples @ 44.1kHz);
#X obj 326 351 * 1000;
#X obj 328 328 abs;
#X floatatom 435 386 5 0 0 0 - - -;
#X obj 834 888 +~ 0;
#X obj 998 49 inlet active;
#X obj 1328 58 inlet set_array;
#X obj 1328 83 unpack s s;
#X msg 1328 108 set \$1;
#X msg 1398 108 set \$1;
#N canvas 0 50 450 300 tabread_module 0;
#X restore 1371 376 pd tabread_module;
#X connect 0 0 25 0;
#X connect 3 0 38 0;
#X connect 3 0 20 0;
#X connect 4 0 85 0;
#X connect 5 0 33 0;
#X connect 6 0 8 0;
#X connect 6 0 30 0;
#X connect 6 0 86 0;
#X connect 7 0 5 0;
#X connect 7 1 4 1;
#X connect 7 2 4 0;
#X connect 7 3 8 1;
#X connect 8 0 44 0;
#X connect 9 0 3 0;
#X connect 10 0 1 0;
#X connect 11 0 2 0;
#X connect 12 0 13 0;
#X connect 12 0 6 0;
#X connect 13 0 5 1;
#X connect 14 0 32 0;
#X connect 15 0 28 0;
#X connect 16 0 15 0;
#X connect 16 0 36 0;
#X connect 16 0 35 0;
#X connect 17 0 25 1;
#X connect 18 0 12 0;
#X connect 19 0 12 1;
#X connect 20 0 10 0;
#X connect 20 0 11 0;
#X connect 21 0 24 0;
#X connect 22 0 21 0;
#X connect 23 0 35 1;
#X connect 24 0 23 0;
#X connect 25 0 31 0;
#X connect 26 0 27 0;
#X connect 27 0 3 0;
#X connect 28 0 26 0;
#X connect 31 0 7 0;
#X connect 32 0 16 0;
#X connect 33 0 32 0;
#X connect 34 0 15 1;
#X connect 35 0 34 0;
#X connect 36 0 34 1;
#X connect 38 0 50 0;
#X connect 39 0 40 0;
#X connect 40 0 41 0;
#X connect 40 0 59 0;
#X connect 41 0 61 0;
#X connect 42 0 3 0;
#X connect 44 0 14 0;
#X connect 44 1 46 0;
#X connect 45 0 58 0;
#X connect 46 0 47 0;
#X connect 46 1 57 0;
#X connect 47 0 9 0;
#X connect 48 0 49 0;
#X connect 49 0 48 1;
#X connect 49 0 55 0;
#X connect 50 0 64 0;
#X connect 50 1 41 1;
#X connect 50 2 63 0;
#X connect 51 0 52 0;
#X connect 52 0 53 0;
#X connect 52 0 60 0;
#X connect 53 0 62 0;
#X connect 54 0 38 0;
#X connect 55 0 10 1;
#X connect 55 0 11 1;
#X connect 57 0 45 0;
#X connect 58 0 47 1;
#X connect 58 0 49 0;
#X connect 59 0 48 0;
#X connect 60 0 48 0;
#X connect 61 0 42 0;
#X connect 62 0 42 0;
#X connect 63 0 51 0;
#X connect 64 0 39 0;
#X connect 65 0 68 0;
#X connect 66 0 91 0;
#X connect 67 0 66 1;
#X connect 67 0 73 0;
#X connect 68 0 69 0;
#X connect 69 0 70 0;
#X connect 70 0 66 0;
#X connect 71 0 68 1;
#X connect 71 0 70 1;
#X connect 71 0 69 1;
#X connect 71 0 72 0;
#X connect 74 0 80 0;
#X connect 75 0 91 0;
#X connect 76 0 75 1;
#X connect 76 0 79 0;
#X connect 77 0 78 0;
#X connect 77 0 80 1;
#X connect 77 0 81 1;
#X connect 77 0 82 1;
#X connect 80 0 81 0;
#X connect 81 0 82 0;
#X connect 82 0 75 0;
#X connect 83 0 80 2;
#X connect 83 0 82 2;
#X connect 83 0 81 2;
#X connect 83 0 84 0;
#X connect 85 1 18 0;
#X connect 85 2 19 0;
#X connect 85 3 86 1;
#X connect 86 0 89 0;
#X connect 88 0 22 0;
#X connect 89 0 88 0;
#X connect 90 0 24 1;
#X connect 92 0 54 0;
#X connect 93 0 94 0;
#X connect 94 0 95 0;
#X connect 94 1 96 0;
#X connect 95 0 10 0;
#X connect 96 0 11 0;
#X restore 248 679 pd scratchstuff;
#X msg 641 10 to 1 \, from 0 \, inertia 100;
#X obj 556 100 s \$0-busy;
#X msg 570 55 1;
#X obj 675 168 u_dispatch \$0 inertia;
#X msg 573 32 0;
#X obj 615 540 r \$0-seek;
#X obj 257 811 hip~ 1;
#X obj 361 828 hip~ 1;
#X obj 878 271 s \$0-seek;
#X obj 668 229 s \$0-in;
#X obj 732 229 s \$0-out;
#X obj 251 100 bng 15 250 50 0 empty empty g 4 5 0 12 -4034 -1 -1;
#X obj 147 217 s pd-inst_scratcher_gui_(\$0);
#X msg 154 192 vis 1;
#N canvas 0 50 450 300 remote_gui 0;
#X obj 54 25 inlet;
#X obj 54 266 outlet;
#X obj 169 125 loadbang;
#X obj 54 50 route feedback_gui;
#X obj 54 152 t a a;
#X obj 181 266 outlet to_module_declare;
#X obj 55 106 r \$0-from_gui;
#X obj 263 124 bng 15 250 50 0 empty empty empty 17 7 0 10 -262144
-1 -1;
#X text 206 50 filter from previous cascaded modules;
#X obj 167 154 list append \$0-from_gui \$0;
#X msg 167 177 feedback_gui \$1 \, dollarzero \$2;
#X obj 21 203 route rotate;
#X connect 0 0 3 0;
#X connect 2 0 9 0;
#X connect 3 1 4 0;
#X connect 4 0 11 0;
#X connect 4 1 5 0;
#X connect 6 0 4 0;
#X connect 7 0 9 0;
#X connect 9 0 10 0;
#X connect 10 0 1 0;
#X connect 11 1 1 0;
#X restore 486 132 pd remote_gui;
#N canvas 0 50 450 300 gui 0;
#N canvas 425 691 830 283 inst_scratcher_gui_(\$0) 0;
#X obj 14 133 inlet;
#X obj 13 233 outlet;
#N canvas 0 50 657 604 speed 0;
#X obj 160 120 hsl 200 40 0.8 1.2 1 0 empty empty MOTOR_SPEED_=_1 0
32 0 18 -262144 -1 -1 10952 1;
#X msg 147 303 speed \$1;
#X msg 258 302 speed 0;
#X obj 383 120 tgl 40 0 empty empty empty 17 7 0 10 -262144 -1 -1 0
1;
#X obj 139 260 f;
#X obj 262 216 select 1 0;
#X obj 139 221 spigot;
#X obj 100 120 bng 40 250 50 0 empty empty x1 5 20 0 20 -262144 -1
-1;
#X msg 110 160 1;
#X obj 127 356 outlet;
#X obj 102 34 loadbang;
#X msg 157 70 label MOTOR_SPEED_=_\$1;
#X obj 16 45 * 100;
#X obj 16 74 int;
#X obj 16 103 / 100;
#X obj 526 17 inlet;
#X obj 525 71 select 0;
#X msg 518 102 set 0;
#X msg 514 134 set 1;
#X msg 516 170 set \$1;
#X connect 0 0 4 1;
#X connect 0 0 6 0;
#X connect 0 0 12 0;
#X connect 1 0 9 0;
#X connect 2 0 9 0;
#X connect 3 0 5 0;
#X connect 3 0 6 1;
#X connect 4 0 1 0;
#X connect 5 0 4 0;
#X connect 5 1 2 0;
#X connect 6 0 4 0;
#X connect 7 0 8 0;
#X connect 8 0 0 0;
#X connect 10 0 7 0;
#X connect 11 0 0 0;
#X connect 12 0 13 0;
#X connect 13 0 14 0;
#X connect 14 0 11 0;
#X connect 15 0 16 0;
#X connect 16 0 17 0;
#X connect 16 1 18 0;
#X connect 16 1 19 0;
#X connect 16 1 12 0;
#X connect 17 0 3 0;
#X connect 18 0 3 0;
#X connect 19 0 0 0;
#X coords 0 -1 1 1 323 61 2 100 100;
#X restore 289 59 pd speed;
#X obj 17 152 hsl 800 80 -3.14159 3.14159 0 0 empty empty DROP_A_FILE_HERE_AND_SCRATCH
50 40 0 40 -262144 -1 -4032 0 1;
#X obj 289 38 inlet;
#X obj 290 119 outlet;
#X text 511 212 (drop n'click feature requires dnd pluggin);
#X connect 0 0 3 0;
#X connect 2 0 5 0;
#X connect 3 0 1 0;
#X connect 4 0 2 0;
#X restore 39 129 pd inst_scratcher_gui_(\$0);
#X msg 39 106 set \$1;
#N canvas 0 50 805 742 scratch 0;
#X obj 96 41 inlet;
#X obj 108 261 outlet;
#X obj 111 99 t b f b;
#X msg 186 166 1;
#X obj 186 195 change;
#X msg 186 224 touch \$1;
#X msg 47 179 0;
#X msg 61 225 rotate \$1;
#X obj 47 150 delay 50;
#X connect 0 0 2 0;
#X connect 2 0 8 0;
#X connect 2 1 7 0;
#X connect 2 2 3 0;
#X connect 3 0 4 0;
#X connect 4 0 5 0;
#X connect 5 0 1 0;
#X connect 6 0 4 0;
#X connect 7 0 1 0;
#X connect 8 0 6 0;
#X restore 38 155 pd scratch;
#X obj 64 19 inlet;
#X obj 228 246 s;
#X obj 260 218 symbol;
#X obj 62 55 route rotate speed feedback_gui;
#X connect 0 0 2 0;
#X connect 0 1 4 0;
#X connect 1 0 0 0;
#X connect 2 0 4 0;
#X connect 3 0 6 0;
#X connect 5 0 4 1;
#X connect 6 0 1 0;
#X connect 6 1 0 1;
#X connect 6 2 5 0;
#X restore 521 793 pd gui;
#X obj 487 759 t a a;
#X obj 360 244 t b;
#X obj 402 143 r \$0-from;
#X obj 404 169 r \$0-to;
#X obj 409 196 r \$0-vol;
#X obj 403 120 r \$0-seek;
#X text 401 85 dnd;
#X obj 850 7 savestate;
#X obj 340 272 bng 15 250 50 0 empty empty empty 17 7 0 10 -262144
-1 -1;
#X obj 361 279 dnd/target;
#X obj 368 639 lop~ 50;
#X obj 28 137 s \$0-seek-rcv;
#X floatatom 167 298 5 0 0 0 - - -;
#X obj 315 557 r \$0-busy;
#X obj 443 649 list append \$0-l \$0-r;
#X obj 280 435 t f f;
#X obj 280 365 t f b;
#X text 911 164 set_ext_array <size> <array-l> <array-r>;
#X obj 351 502 list split 2;
#X obj 309 399 list split 1;
#X obj 247 771 *~;
#X obj 351 773 *~;
#X obj 700 582 t f f b;
#X obj 629 612 loadbang;
#X obj 524 273 t a b;
#X obj 680 744 ==;
#X obj 688 702 t f f;
#X obj 879 753 s \$0-index;
#X obj 769 677 t f f;
#X obj 678 791 change;
#X msg 675 844 0 5;
#X floatatom 680 769 5 0 0 0 - - -;
#X obj 762 742 +;
#X obj 762 767 t f f;
#X obj 762 717 * 0.99;
#X obj 824 767 * 0.01;
#X obj 603 710 vline~;
#X msg 621 667 0 5 \, 1 5 5;
#X obj 436 336 list append;
#X obj 442 308 delay 5;
#X obj 881 238 pipe 10;
#X obj 575 192 route touch rotate speed in out seek set_ext_array mute
;
#X obj 916 389 == 0;
#X msg 916 414 \$1 5;
#N canvas 0 50 450 300 convert->(-pi..pi) 0;
#X obj 143 11 inlet;
#X obj 304 43 + 0.5;
#X obj 304 72 t f f;
#X obj 304 101 int;
#X obj 304 130 -;
#X obj 303 227 * 6.28319;
#X obj 301 158 * -1;
#X obj 302 192 - 0.5;
#X obj 303 256 outlet;
#X connect 0 0 1 0;
#X connect 1 0 2 0;
#X connect 2 0 3 0;
#X connect 2 1 4 1;
#X connect 3 0 4 0;
#X connect 4 0 6 0;
#X connect 5 0 8 0;
#X connect 6 0 7 0;
#X connect 7 0 5 0;
#X restore 617 299 pd convert->(-pi..pi);
#X msg 616 325 rotate \$1;
#X obj 678 816 select 1 0;
#X msg 720 848 1 5;
#N canvas 76 100 958 1018 motor_stuff 0;
#X obj 110 43 inlet;
#X obj 654 403 == 0;
#X obj 554 498 f;
#X obj 709 459 +;
#X obj 752 475 * 0.8;
#X obj 702 497 t f f;
#X obj 544 401 select 0;
#X obj 545 433 t b b;
#X obj 575 696 line;
#X obj 238 675 +;
#X obj 282 678 f;
#X obj 492 764 spigot;
#X obj 742 414 * 0.2;
#X text 769 452 moyennage vitesse;
#X text 659 687 inertie;
#N canvas 0 50 450 300 hysteresis 0;
#X obj 198 40 inlet;
#X obj 162 237 outlet;
#X msg 330 188 0;
#X obj 207 137 moses -0.001;
#X obj 234 91 moses 0.001;
#X connect 0 0 4 0;
#X connect 2 0 1 0;
#X connect 3 0 1 0;
#X connect 3 1 2 0;
#X connect 4 0 3 0;
#X connect 4 1 1 0;
#X restore 576 559 pd hysteresis;
#X text 768 502 = 50 fois par seconde;
#X obj 492 733 f, f 6;
#X obj 525 128 * 0.0111111;
#X obj 532 591 f;
#X obj 524 180 t b f;
#X obj 523 66 inlet motor_speed;
#X obj 324 912 outlet;
#X obj 111 76 s \$0-touch;
#X obj 210 510 spigot;
#X obj 287 479 r \$0-touch;
#X obj 264 51 inlet rotator;
#X obj 454 49 r \$0-set;
#X obj 210 535 t f f f;
#X obj 620 323 r \$0-touch;
#X obj 725 94 metro 20;
#X obj 725 67 r \$0-busy;
#X msg 578 665 \$1 \, \$2 \$3;
#X obj 773 629 r \$0-inertia;
#X text 561 733 increment à la posiiton actuelle;
#X text 260 756 position;
#X text 272 79 -pi \, pi;
#X obj 141 284 -;
#X obj 145 222 t f f f f;
#X obj 232 453 / 6.28;
#X obj 743 366 f;
#X obj 110 913 outlet;
#X obj 112 863 spigot;
#X obj 181 725 t f f;
#X obj 180 832 == 0;
#X obj 186 807 r \$0-touch;
#X obj 147 346 moses -1;
#X obj 238 418 moses 1;
#X obj 199 254 spigot;
#X obj 144 315 t f b;
#X msg 331 267 0;
#X msg 290 242 1;
#X obj 449 123 t f f b;
#X obj 203 375 select 0;
#X floatatom 451 825 5 0 0 0 - - -;
#X obj 577 632 pack f f 100;
#X connect 0 0 23 0;
#X connect 1 0 11 1;
#X connect 2 0 15 0;
#X connect 3 0 5 0;
#X connect 4 0 3 1;
#X connect 5 0 2 1;
#X connect 5 1 4 0;
#X connect 6 0 7 0;
#X connect 7 0 2 0;
#X connect 8 0 17 1;
#X connect 8 0 19 1;
#X connect 9 0 10 0;
#X connect 9 0 43 0;
#X connect 9 0 54 0;
#X connect 10 0 9 1;
#X connect 11 0 9 0;
#X connect 12 0 3 0;
#X connect 15 0 55 0;
#X connect 17 0 11 0;
#X connect 18 0 20 0;
#X connect 19 0 55 0;
#X connect 20 0 19 0;
#X connect 20 1 55 1;
#X connect 21 0 18 0;
#X connect 24 0 28 0;
#X connect 25 0 24 1;
#X connect 26 0 38 0;
#X connect 27 0 52 0;
#X connect 28 1 9 0;
#X connect 28 2 40 1;
#X connect 29 0 6 0;
#X connect 29 0 1 0;
#X connect 30 0 17 0;
#X connect 30 0 40 0;
#X connect 31 0 30 0;
#X connect 32 0 8 0;
#X connect 33 0 55 2;
#X connect 37 0 49 0;
#X connect 38 0 37 1;
#X connect 38 1 37 0;
#X connect 38 2 48 0;
#X connect 39 0 24 0;
#X connect 40 0 12 0;
#X connect 42 0 41 0;
#X connect 43 0 42 0;
#X connect 43 1 22 0;
#X connect 44 0 42 1;
#X connect 45 0 44 0;
#X connect 46 1 53 0;
#X connect 47 0 39 0;
#X connect 48 0 37 1;
#X connect 49 0 46 0;
#X connect 49 1 50 0;
#X connect 50 0 48 1;
#X connect 51 0 48 1;
#X connect 52 0 10 0;
#X connect 52 1 41 0;
#X connect 52 2 51 0;
#X connect 53 1 47 0;
#X connect 55 0 32 0;
#X restore 618 263 pd motor_stuff;
#X obj 1184 8 declare -path ../../../core;
#X obj 1184 28 declare -path ../../../core/stuff;
#X obj 1184 48 declare -path ../../../core/rj;
#X obj 1190 85 declare -path ../../../core/fid_abs_vanilia-0.4;
#X connect 0 0 2 0;
#X connect 1 0 3 0;
#X connect 4 0 74 0;
#X connect 6 0 30 0;
#X connect 12 0 19 0;
#X connect 12 1 83 0;
#X connect 13 0 92 0;
#X connect 14 0 13 0;
#X connect 15 0 77 0;
#X connect 15 1 124 0;
#X connect 19 0 21 0;
#X connect 21 0 22 0;
#X connect 22 0 23 0;
#X connect 23 0 63 0;
#X connect 24 0 96 0;
#X connect 25 0 26 0;
#X connect 26 0 86 0;
#X connect 27 0 97 0;
#X connect 29 0 60 0;
#X connect 31 0 87 0;
#X connect 32 0 31 0;
#X connect 34 0 42 0;
#X connect 34 1 35 0;
#X connect 35 0 104 0;
#X connect 35 1 44 0;
#X connect 36 0 39 0;
#X connect 37 0 34 0;
#X connect 38 0 37 1;
#X connect 39 0 38 0;
#X connect 40 0 34 1;
#X connect 40 0 45 1;
#X connect 41 0 35 1;
#X connect 41 0 43 1;
#X connect 42 0 43 0;
#X connect 43 0 98 0;
#X connect 44 0 45 0;
#X connect 45 0 98 0;
#X connect 46 0 47 0;
#X connect 48 0 46 1;
#X connect 51 0 52 1;
#X connect 51 0 53 1;
#X connect 51 0 88 0;
#X connect 52 0 56 0;
#X connect 53 0 57 0;
#X connect 54 0 52 0;
#X connect 55 0 53 0;
#X connect 58 0 59 0;
#X connect 59 0 24 0;
#X connect 59 1 27 0;
#X connect 60 0 12 0;
#X connect 62 0 61 0;
#X connect 64 0 61 0;
#X connect 65 0 98 0;
#X connect 66 0 2 0;
#X connect 67 0 3 0;
#X connect 71 0 73 0;
#X connect 73 0 72 0;
#X connect 74 0 76 0;
#X connect 74 1 117 0;
#X connect 76 0 5 0;
#X connect 76 1 75 0;
#X connect 77 0 84 0;
#X connect 77 0 85 0;
#X connect 78 0 77 0;
#X connect 79 0 77 0;
#X connect 80 0 77 0;
#X connect 81 0 77 0;
#X connect 83 0 12 1;
#X connect 83 1 12 2;
#X connect 85 0 13 1;
#X connect 86 0 24 1;
#X connect 86 0 27 1;
#X connect 89 0 59 2;
#X connect 90 0 59 3;
#X connect 91 0 59 1;
#X connect 91 1 6 0;
#X connect 92 0 91 0;
#X connect 92 1 90 0;
#X connect 94 0 59 3;
#X connect 95 0 91 0;
#X connect 95 1 94 0;
#X connect 96 0 66 0;
#X connect 97 0 67 0;
#X connect 98 0 104 0;
#X connect 98 1 46 0;
#X connect 99 0 113 0;
#X connect 100 0 114 1;
#X connect 100 1 113 0;
#X connect 100 1 115 0;
#X connect 101 0 105 0;
#X connect 101 0 107 0;
#X connect 102 0 101 1;
#X connect 102 1 101 0;
#X connect 104 0 110 0;
#X connect 104 1 103 0;
#X connect 105 0 122 0;
#X connect 106 0 112 0;
#X connect 108 0 109 0;
#X connect 109 0 102 0;
#X connect 109 1 111 0;
#X connect 110 0 108 0;
#X connect 111 0 108 1;
#X connect 112 0 97 1;
#X connect 112 0 96 1;
#X connect 113 0 112 0;
#X connect 114 0 95 0;
#X connect 115 0 114 0;
#X connect 116 0 68 0;
#X connect 117 0 15 0;
#X connect 117 1 124 1;
#X connect 117 2 124 2;
#X connect 117 3 69 0;
#X connect 117 4 70 0;
#X connect 117 5 116 0;
#X connect 117 6 100 0;
#X connect 117 7 118 0;
#X connect 117 8 12 0;
#X connect 118 0 119 0;
#X connect 119 0 112 0;
#X connect 120 0 121 0;
#X connect 121 0 76 0;
#X connect 122 0 106 0;
#X connect 122 1 123 0;
#X connect 123 0 112 0;
#X connect 124 0 120 0;
#X connect 124 1 37 0;
#X coords 0 -1 1 1 190 70 1 100 100;
