#N canvas 0 50 764 462 16;
#X obj 100 100 tgl 23 0 \$2-clip\$1 \$2-clip\$1-rcv |> 3 12 0 14 -228992
-228992 -1 0 1;
#X obj 493 26 loadbang;
#X obj 124 100 hsl 112 23 0 1 0 0 \$2-hsl\$1 \$2-hsl\$1-rcv empty 2
12 0 12 -261681 -1 -1 0 1;
#X obj 487 234 s \$2-hsl\$1-rcv;
#X floatatom 238 100 3 0 0 0 - #2-clip#1_quant-rcv #2-clip#1_quant
;
#X obj 489 97 f \$1;
#X obj 489 122 select 1 2 3;
#X obj 493 51 delay 2000;
#X obj 332 25 r \$2-hsl\$1-rcv;
#X msg 353 117 stop;
#X obj 333 56 route color;
#X obj 333 81 t b;
#X msg 522 160 5;
#X msg 485 157 4;
#X msg 570 167 6;
#X obj 267 100 bng 23 250 50 0 empty empty empty 17 7 0 10 -262144
-1 -1;
#X obj 278 232 r \$2-hsl\$1;
#X obj 278 261 t b;
#X obj 263 319 s pd-\$2-clip-\$1_edit;
#X msg 278 290 vis 1;
#X msg 484 198 color \$1 -1 -1;
#X msg 131 44 label;
#X obj 90 294 s \$2-open\$1;
#X obj 274 130 t b b;
#X obj 503 303 r \$2-clip\$1_file;
#X obj 115 172 list append;
#X obj 112 261 iemlib/splitfilename /;
#X obj 115 201 route bang;
#X obj 73 229 t b;
#X connect 1 0 7 0;
#X connect 5 0 6 0;
#X connect 6 0 13 0;
#X connect 6 1 12 0;
#X connect 6 2 14 0;
#X connect 7 0 5 0;
#X connect 8 0 10 0;
#X connect 9 0 7 0;
#X connect 10 0 11 0;
#X connect 11 0 9 0;
#X connect 12 0 20 0;
#X connect 13 0 20 0;
#X connect 14 0 20 0;
#X connect 15 0 23 0;
#X connect 16 0 17 0;
#X connect 17 0 19 0;
#X connect 19 0 18 0;
#X connect 20 0 3 0;
#X connect 21 0 2 0;
#X connect 23 0 25 0;
#X connect 23 1 17 0;
#X connect 24 0 25 1;
#X connect 25 0 27 0;
#X connect 26 0 22 0;
#X connect 27 0 28 0;
#X connect 27 1 26 0;
#X connect 28 0 22 0;
#X coords 0 -1 1 1 190 23 2 100 100;
