#N canvas 0 57 1920 1023 12;
#X obj 41 18 inlet;
#X obj 531 899 outlet;
#X text 889 484 2 croche;
#X text 885 459 1 double;
#X text 891 506 4 noire;
#X text 889 526 8 blanche;
#X obj 1022 573 loadbang;
#X obj 1008 647 s \$2-quant\$1-rcv;
#X msg 1022 598 16;
#X text 1000 267 mode;
#X text 981 312 0 stop;
#X text 979 333 1 play;
#X msg 641 286 sr 44100;
#X msg 443 659 table-stereo \$1 \, sr \$4;
#X obj 616 324 ../../core/rj/u_samplebank2 \$0-mytable;
#X obj 614 148 openpanel;
#X msg 615 247 open \$1;
#X obj 637 124 bng 15 250 50 0 empty empty empty 17 7 0 10 -262144
-1 -1;
#X obj 614 95 r \$2-open\$1;
#X floatatom 677 408 8 0 0 1 duration_in_samples - -;
#X floatatom 650 428 8 0 0 1 duration_in_ms - -;
#X symbolatom 623 448 12 0 0 1 table_name - -;
#X obj 620 365 unpack s f f f;
#X floatatom 704 388 6 0 0 1 samplerate - -;
#X obj 711 243 loadbang;
#N canvas 696 149 561 762 tosymbol 0;
#X text 65 454 symbol out with correct spaces;
#X text 81 12 string in;
#X obj 91 31 inlet;
#X obj 91 431 outlet;
#X obj 85 31 cnv 5 5 17 empty empty empty 20 12 0 14 -118750 -66577
0;
#X obj 85 431 cnv 5 5 17 empty empty empty 20 12 0 14 -102336 -66577
0;
#X obj 91 55 list;
#X obj 91 193 list store, f 13;
#X obj 91 102 until;
#X obj 91 128 f, f 7;
#X obj 153 128 + 1;
#X msg 91 171 get \$1 1;
#X obj 134 103 0;
#X obj 91 263 list fromsymbol;
#X obj 91 215 route symbol float;
#X obj 109 239 makefilename %s;
#X obj 91 150 t f f;
#X obj 91 380 list store, f 19;
#X obj 91 355 list trim;
#X obj 91 332 list prepend append;
#X obj 157 286 spigot;
#X msg 157 308 32;
#X obj 91 286 t l b, f 9;
#X obj 91 77 t b b a b, f 19;
#X obj 91 404 list tosymbol;
#X connect 2 0 6 0;
#X connect 6 0 23 0;
#X connect 7 0 14 0;
#X connect 7 1 8 1;
#X connect 7 1 17 0;
#X connect 8 0 9 0;
#X connect 9 0 10 0;
#X connect 9 0 16 0;
#X connect 10 0 9 1;
#X connect 11 0 7 0;
#X connect 12 0 9 1;
#X connect 13 0 22 0;
#X connect 14 0 13 0;
#X connect 14 1 15 0;
#X connect 15 0 13 0;
#X connect 16 0 11 0;
#X connect 16 1 20 1;
#X connect 17 0 24 0;
#X connect 18 0 17 0;
#X connect 19 0 18 0;
#X connect 20 0 21 0;
#X connect 21 0 19 0;
#X connect 22 0 19 0;
#X connect 22 1 20 0;
#X connect 23 0 8 0;
#X connect 23 1 12 0;
#X connect 23 2 7 1;
#X connect 23 3 17 1;
#X connect 24 0 3 0;
#X restore 615 223 pd tosymbol;
#X obj 615 174 s \$2-file-clip\$1;
#X obj 617 198 r \$2-file-clip\$1;
#X obj 63 360 r \$0-mode;
#X text 983 357 2 arm (preload);
#X obj 20 741 outlet~;
#X obj 162 744 outlet~;
#X obj 255 538 pack 0 10;
#X obj 128 528 vline~;
#X msg 131 425 0 10;
#X obj 63 385 select 1 0 2;
#X obj 67 705 *~;
#X obj 207 715 *~;
#X obj 124 682 line~;
#X msg 42 420 1 10;
#X obj 335 73 switch~;
#X obj 664 608 r \$2-speed\$1;
#X obj 678 687 / 1;
#X obj 582 745 pack f f;
#X msg 801 249 info;
#X floatatom 725 647 5 0 0 0 - - -;
#X obj 679 647 t b f;
#X obj 393 589 t b b;
#X msg 433 459 stop;
#X obj 392 634 bng 15 250 50 0 empty empty empty 17 7 0 10 -262144
-1 -1;
#X msg 514 800 0 \, \$2 \$1;
#X obj 42 613 ../../core/rj/s_playolap2 \$0-sampler;
#X obj 445 612 bng 15 250 50 0 empty empty empty 17 7 0 10 -262144
-1 -1;
#X obj 292 296 r \$2-speed\$1;
#X msg 292 321 5 \$1;
#X obj 292 346 /;
#X msg 275 383 chunk-size \$1;
#X obj 214 200 vsl 15 128 1 200 0 0 empty empty empty 0 -9 0 10 -262144
-1 -1 0 1;
#X floatatom 214 350 5 0 0 0 - - -;
#X floatatom 347 355 5 0 0 0 - - -;
#X obj 465 522 delay 1000;
#X obj 514 769 list 0 0;
#X obj 443 635 list append <none> 44100;
#X msg 369 536 0;
#X msg 481 573 2;
#X obj 482 598 s \$0-mode;
#N canvas 578 92 450 300 status_control 0;
#X obj 28 17 inlet;
#X msg 29 148 0;
#X obj 223 17 r \$2-clip\$1;
#X msg 103 116 2;
#X obj 53 204 s \$0-mode;
#X obj 219 57 select 0 1;
#X obj 29 60 route stop launch prestop;
#X obj 188 94 t b;
#X obj 188 119 v \$0-mode;
#X obj 188 144 select 2;
#X text 310 117 mode;
#X text 291 162 0 stop;
#X text 289 183 1 play;
#X text 293 207 2 arm (preload);
#X text 41 249 prestop message cancels preload mode if settled;
#X connect 0 0 6 0;
#X connect 1 0 4 0;
#X connect 2 0 5 0;
#X connect 3 0 4 0;
#X connect 5 0 1 0;
#X connect 5 1 3 0;
#X connect 6 0 1 0;
#X connect 6 1 3 0;
#X connect 6 2 7 0;
#X connect 7 0 8 0;
#X connect 8 0 9 0;
#X connect 9 0 1 0;
#X restore 39 50 pd status_control;
#N canvas 0 50 481 536 sync-start_stuff 0;
#X obj 41 495 outlet;
#X msg 138 427 stop;
#X obj 119 224 r \$2-clock;
#X obj 122 264 mod 24;
#X obj 135 310 spigot;
#X obj 151 354 select 0;
#X msg 332 285 0;
#X msg 261 182 1;
#X obj 248 95 t b b b;
#X obj 284 143 s \$0-preload;
#X obj 266 217 r \$2-quant\$1;
#X obj 266 242 * 6;
#X obj 151 381 t b b b b;
#X obj 304 26 r \$0-mode;
#X obj 304 53 select 2 0;
#X msg 189 437 1;
#X obj 192 471 s \$0-mode;
#X obj 36 377 r \$0-mode;
#X obj 36 402 select 2;
#X msg 39 435 prestop;
#X connect 1 0 0 0;
#X connect 2 0 3 0;
#X connect 3 0 4 0;
#X connect 4 0 5 0;
#X connect 5 0 12 0;
#X connect 6 0 4 1;
#X connect 7 0 4 1;
#X connect 8 1 7 0;
#X connect 8 2 9 0;
#X connect 10 0 11 0;
#X connect 11 0 3 1;
#X connect 12 0 1 0;
#X connect 12 2 15 0;
#X connect 12 3 6 0;
#X connect 13 0 14 0;
#X connect 14 0 8 0;
#X connect 14 1 6 0;
#X connect 15 0 16 0;
#X connect 17 0 18 0;
#X connect 18 0 19 0;
#X connect 19 0 0 0;
#X restore 531 868 pd sync-start_stuff;
#N canvas 0 50 450 300 gui.play/stop_button 0;
#X obj 120 246 s \$2-clip\$1-rcv;
#X obj 117 25 r \$0-mode;
#X obj 117 50 select 0 1 2;
#X msg 87 192 set 0 \, label |> \, color 8 8 -1;
#X msg 125 154 set 1 \, label || \, color 16 16 -1;
#X msg 153 97 set 1 \, label >. \, color 15 15 -1;
#X connect 1 0 2 0;
#X connect 2 0 3 0;
#X connect 2 1 4 0;
#X connect 2 2 5 0;
#X connect 3 0 0 0;
#X connect 4 0 0 0;
#X connect 5 0 0 0;
#X restore 45 85 pd gui.play/stop_button;
#N canvas 0 50 450 300 gui.displaying_filename 0;
#X text 179 76 vanilla version of splitfilename;
#X msg 134 215 label \$1;
#X msg 208 216 label;
#X obj 198 183 loadbang;
#X obj 84 96 ../../core/stuff/splitfilename /;
#X obj 87 135 ../../core/stuff/splitfilename .;
#X obj 130 260 s \$2-hsl\$1-rcv;
#X obj 106 32 r \$2-file-clip\$1;
#N canvas 696 149 561 762 tosymbol 0;
#X text 65 454 symbol out with correct spaces;
#X text 81 12 string in;
#X obj 91 31 inlet;
#X obj 91 431 outlet;
#X obj 85 31 cnv 5 5 17 empty empty empty 20 12 0 14 -118750 -66577
0;
#X obj 85 431 cnv 5 5 17 empty empty empty 20 12 0 14 -102336 -66577
0;
#X obj 91 55 list;
#X obj 91 193 list store, f 13;
#X obj 91 102 until;
#X obj 91 128 f, f 7;
#X obj 153 128 + 1;
#X msg 91 171 get \$1 1;
#X obj 134 103 0;
#X obj 91 263 list fromsymbol;
#X obj 91 215 route symbol float;
#X obj 109 239 makefilename %s;
#X obj 91 150 t f f;
#X obj 91 380 list store, f 19;
#X obj 91 355 list trim;
#X obj 91 332 list prepend append;
#X obj 157 286 spigot;
#X msg 157 308 32;
#X obj 91 286 t l b, f 9;
#X obj 91 77 t b b a b, f 19;
#X obj 91 404 list tosymbol;
#X connect 2 0 6 0;
#X connect 6 0 23 0;
#X connect 7 0 14 0;
#X connect 7 1 8 1;
#X connect 7 1 17 0;
#X connect 8 0 9 0;
#X connect 9 0 10 0;
#X connect 9 0 16 0;
#X connect 10 0 9 1;
#X connect 11 0 7 0;
#X connect 12 0 9 1;
#X connect 13 0 22 0;
#X connect 14 0 13 0;
#X connect 14 1 15 0;
#X connect 15 0 13 0;
#X connect 16 0 11 0;
#X connect 16 1 20 1;
#X connect 17 0 24 0;
#X connect 18 0 17 0;
#X connect 19 0 18 0;
#X connect 20 0 21 0;
#X connect 21 0 19 0;
#X connect 22 0 19 0;
#X connect 22 1 20 0;
#X connect 23 0 8 0;
#X connect 23 1 12 0;
#X connect 23 2 7 1;
#X connect 23 3 17 1;
#X connect 24 0 3 0;
#X restore 85 70 pd tosymbol;
#X connect 1 0 6 0;
#X connect 2 0 6 0;
#X connect 3 0 2 0;
#X connect 4 1 5 0;
#X connect 5 0 1 0;
#X connect 7 0 8 0;
#X connect 8 0 4 0;
#X restore 40 115 pd gui.displaying_filename;
#N canvas 0 80 268 245 global_stop_message 0;
#X obj 76 31 r \$2-stop;
#X obj 79 178 s \$0-mode;
#X obj 83 71 v \$0-mode;
#X obj 83 96 select 0 1 2;
#X msg 110 129 2;
#X connect 0 0 2 0;
#X connect 2 0 3 0;
#X connect 3 1 4 0;
#X connect 4 0 1 0;
#X restore 691 867 pd global_stop_message;
#X obj 1151 425 r BPM;
#X obj 1240 416 r \$2-clip\$1_bpm;
#X obj 1242 441 t b f;
#X obj 1204 496 / 120;
#X obj 1219 468 v BPM;
#X obj 1171 554 s \$2-speed\$1;
#X msg 1280 529 set \$1;
#X obj 1279 560 s \$2-speed\$1-rcv;
#X obj 859 683 s \$2-duration\$1_ms;
#X obj 643 575 r \$2-duration\$1_ms;
#X obj 838 721 s \$2-duration\$1_smpl;
#X obj 711 735 r \$2-duration\$1_smpl;
#X text 545 479 loop length;
#N canvas 0 50 450 300 switch_mode 0;
#X obj 142 99 delay 10;
#X msg 142 122 0;
#X msg 105 121 1;
#X obj 106 20 r \$0-mode;
#X obj 106 45 == 1;
#X obj 107 72 select 1 0;
#X obj 134 160 s \$0-switch;
#X obj 81 177 outlet;
#X connect 0 0 1 0;
#X connect 1 0 6 0;
#X connect 1 0 7 0;
#X connect 2 0 6 0;
#X connect 2 0 7 0;
#X connect 3 0 4 0;
#X connect 3 0 5 0;
#X connect 5 0 2 0;
#X connect 5 1 0 0;
#X restore 334 42 pd switch_mode;
#N canvas 0 50 450 300 gui.cursor 0;
#X obj 70 27 inlet~;
#X msg 127 191 set \$1;
#X obj 128 217 s \$2-hsl\$1-rcv;
#X obj 130 139 snapshot~;
#X obj 156 57 r \$0-switch;
#X obj 147 105 metro 100;
#X obj 130 164 /;
#X obj 196 136 r \$2-duration\$1_smpl;
#X obj 226 84 select 0;
#X msg 226 109 set 0;
#X connect 0 0 3 0;
#X connect 1 0 2 0;
#X connect 3 0 6 0;
#X connect 4 0 5 0;
#X connect 4 0 8 0;
#X connect 5 0 3 0;
#X connect 6 0 1 0;
#X connect 7 0 6 1;
#X connect 8 0 9 0;
#X connect 9 0 2 0;
#X restore 34 580 pd gui.cursor;
#X obj 552 507 - 120;
#X connect 0 0 66 0;
#X connect 6 0 8 0;
#X connect 8 0 7 0;
#X connect 12 0 14 0;
#X connect 13 0 51 1;
#X connect 14 0 22 0;
#X connect 14 0 62 0;
#X connect 15 0 26 0;
#X connect 16 0 14 0;
#X connect 17 0 15 0;
#X connect 18 0 17 0;
#X connect 22 0 21 0;
#X connect 22 1 20 0;
#X connect 22 1 79 0;
#X connect 22 2 19 0;
#X connect 22 2 81 0;
#X connect 22 3 23 0;
#X connect 24 0 12 0;
#X connect 25 0 16 0;
#X connect 27 0 25 0;
#X connect 28 0 35 0;
#X connect 32 0 33 0;
#X connect 33 0 51 0;
#X connect 33 0 85 0;
#X connect 34 0 32 0;
#X connect 34 0 38 0;
#X connect 34 0 48 0;
#X connect 34 0 63 0;
#X connect 35 0 39 0;
#X connect 35 0 47 0;
#X connect 35 1 34 0;
#X connect 35 2 34 0;
#X connect 36 0 30 0;
#X connect 37 0 31 0;
#X connect 38 0 37 1;
#X connect 38 0 36 1;
#X connect 39 0 38 0;
#X connect 41 0 46 0;
#X connect 42 0 43 0;
#X connect 42 0 86 0;
#X connect 43 0 61 1;
#X connect 44 0 14 0;
#X connect 46 0 42 0;
#X connect 46 1 42 1;
#X connect 47 0 49 0;
#X connect 47 0 61 0;
#X connect 47 1 60 0;
#X connect 48 0 60 0;
#X connect 50 0 33 0;
#X connect 51 0 36 0;
#X connect 51 1 37 0;
#X connect 52 0 62 0;
#X connect 53 0 54 0;
#X connect 54 0 55 0;
#X connect 55 0 56 0;
#X connect 55 0 59 0;
#X connect 56 0 51 1;
#X connect 57 0 56 0;
#X connect 57 0 58 0;
#X connect 60 0 64 0;
#X connect 61 0 50 0;
#X connect 62 0 13 0;
#X connect 64 0 65 0;
#X connect 67 0 1 0;
#X connect 71 0 74 0;
#X connect 72 0 73 0;
#X connect 73 0 75 0;
#X connect 73 1 74 1;
#X connect 74 0 76 0;
#X connect 74 0 77 0;
#X connect 75 0 74 0;
#X connect 77 0 78 0;
#X connect 80 0 42 0;
#X connect 82 0 43 1;
#X connect 84 0 40 0;
#X connect 86 0 60 1;
