#N canvas 645 135 1379 462 16;
#X obj 100 100 tgl 23 0 \$2-clip\$1 \$2-clip\$1-rcv |> 3 12 0 14 -228992
-228992 -1 0 1;
#X obj 493 26 loadbang;
#X obj 124 100 hsl 112 23 0 1 0 0 \$2-hsl\$1 \$2-hsl\$1-rcv empty 2
12 0 12 -262131 -1 -1 0 1;
#X obj 487 234 s \$2-hsl\$1-rcv;
#X floatatom 238 100 3 0 0 0 - #2-clip#1_quant-rcv #2-clip#1_quant
;
#X obj 489 97 f \$1;
#X obj 489 122 select 1 2 3;
#X obj 493 51 delay 2000;
#X obj 332 25 r \$2-hsl\$1-rcv;
#X msg 353 117 stop;
#X obj 333 56 route color;
#X obj 333 81 t b;
#X msg 522 160 5;
#X msg 485 157 4;
#X msg 570 167 6;
#X obj 267 100 bng 23 250 50 0 empty empty empty 17 7 0 10 -262144
-1 -1;
#X obj 361 227 r \$2-hsl\$1;
#X obj 351 274 t b;
#X obj 331 392 s pd-\$2-clip-\$1_edit;
#X msg 346 363 vis 1;
#X msg 484 198 color \$1 -1 -1;
#X msg 131 44 label;
#X obj 52 382 s \$2-open\$1;
#X obj 274 130 t b b;
#X obj 194 220 r \$2-clip\$1_file;
#X obj 77 260 list append;
#X obj 77 289 route bang;
#X obj 35 317 t b;
#X obj 175 195 delay 300;
#X obj 108 157 r \$2-\$1-openpanel;
#X obj 456 338 bng 15 250 50 0 empty empty empty 17 7 0 10 -262144
-1 -1;
#N canvas 696 149 561 762 tosymbol 0;
#X text 65 454 symbol out with correct spaces;
#X text 81 12 string in;
#X obj 91 31 inlet;
#X obj 91 431 outlet;
#X obj 85 31 cnv 5 5 17 empty empty empty 20 12 0 14 -118750 -66577
0;
#X obj 85 431 cnv 5 5 17 empty empty empty 20 12 0 14 -102336 -66577
0;
#X obj 91 55 list;
#X obj 91 193 list store, f 13;
#X obj 91 102 until;
#X obj 91 128 f, f 7;
#X obj 153 128 + 1;
#X msg 91 171 get \$1 1;
#X obj 134 103 0;
#X obj 91 263 list fromsymbol;
#X obj 91 215 route symbol float;
#X obj 109 239 makefilename %s;
#X obj 91 150 t f f;
#X obj 91 380 list store, f 19;
#X obj 90 357 list trim;
#X obj 90 331 list prepend append;
#X obj 157 286 spigot;
#X msg 157 308 32;
#X obj 91 286 t l b, f 9;
#X obj 91 77 t b b a b, f 19;
#X obj 91 404 list tosymbol;
#X connect 2 0 6 0;
#X connect 6 0 23 0;
#X connect 7 0 14 0;
#X connect 7 1 8 1;
#X connect 7 1 17 0;
#X connect 8 0 9 0;
#X connect 9 0 10 0;
#X connect 9 0 16 0;
#X connect 10 0 9 1;
#X connect 11 0 7 0;
#X connect 12 0 9 1;
#X connect 13 0 22 0;
#X connect 14 0 13 0;
#X connect 14 1 15 0;
#X connect 15 0 13 0;
#X connect 16 0 11 0;
#X connect 16 1 20 1;
#X connect 17 0 24 0;
#X connect 18 0 17 0;
#X connect 19 0 18 0;
#X connect 20 0 21 0;
#X connect 21 0 19 0;
#X connect 22 0 19 0;
#X connect 22 1 20 0;
#X connect 23 0 8 0;
#X connect 23 1 12 0;
#X connect 23 2 7 1;
#X connect 23 3 17 1;
#X connect 24 0 3 0;
#X restore 200 247 pd tosymbol;
#X obj 81 335 iemlib/splitfilename /;
#X obj 346 313 delay 200;
#X connect 1 0 7 0;
#X connect 5 0 6 0;
#X connect 6 0 13 0;
#X connect 6 1 12 0;
#X connect 6 2 14 0;
#X connect 7 0 5 0;
#X connect 8 0 10 0;
#X connect 9 0 7 0;
#X connect 10 0 11 0;
#X connect 11 0 9 0;
#X connect 12 0 20 0;
#X connect 13 0 20 0;
#X connect 14 0 20 0;
#X connect 15 0 23 0;
#X connect 16 0 17 0;
#X connect 17 0 33 0;
#X connect 19 0 18 0;
#X connect 20 0 3 0;
#X connect 21 0 2 0;
#X connect 23 0 28 0;
#X connect 23 1 17 0;
#X connect 25 0 26 0;
#X connect 26 0 27 0;
#X connect 26 1 32 0;
#X connect 27 0 22 0;
#X connect 28 0 25 0;
#X connect 29 0 25 0;
#X connect 31 0 25 1;
#X connect 32 0 22 0;
#X connect 33 0 19 0;
#X coords 0 -1 1 1 190 23 2 100 100;
