#N canvas 0 57 1920 1023 12;
#X obj 41 18 inlet;
#X obj 531 899 outlet;
#X text 889 484 2 croche;
#X text 885 459 1 double;
#X text 891 506 4 noire;
#X text 889 526 8 blanche;
#X obj 1137 302 loadbang;
#X msg 1137 327 16;
#X text 1000 267 mode;
#X text 981 312 0 stop;
#X text 979 333 1 play;
#X msg 641 286 sr 44100;
#X msg 394 464 table-stereo \$1 \, sr \$4;
#X obj 614 148 openpanel;
#X msg 615 247 open \$1;
#X obj 614 95 r \$2-open\$1;
#X floatatom 677 408 8 0 0 1 duration_in_samples - -, f 8;
#X floatatom 650 428 8 0 0 1 duration_in_ms - -, f 8;
#X symbolatom 623 448 12 0 0 1 table_name - -, f 12;
#X obj 620 365 unpack s f f f;
#X floatatom 704 388 6 0 0 1 samplerate - -, f 6;
#X obj 711 243 loadbang;
#N canvas 696 149 561 762 tosymbol 0;
#X text 65 454 symbol out with correct spaces;
#X text 81 12 string in;
#X obj 91 31 inlet;
#X obj 91 431 outlet;
#X obj 85 31 cnv 5 5 17 empty empty empty 20 12 0 14 -118750 -66577
0;
#X obj 85 431 cnv 5 5 17 empty empty empty 20 12 0 14 -102336 -66577
0;
#X obj 91 55 list;
#X obj 91 193 list store, f 13;
#X obj 91 102 until;
#X obj 91 128 f, f 7;
#X obj 153 128 + 1;
#X msg 91 171 get \$1 1;
#X obj 134 103 0;
#X obj 91 263 list fromsymbol;
#X obj 91 215 route symbol float;
#X obj 109 239 makefilename %s;
#X obj 91 150 t f f;
#X obj 91 380 list store, f 19;
#X obj 90 357 list trim;
#X obj 90 331 list prepend append;
#X obj 157 286 spigot;
#X msg 157 308 32;
#X obj 91 286 t l b, f 9;
#X obj 91 77 t b b a b, f 19;
#X obj 91 404 list tosymbol;
#X connect 2 0 6 0;
#X connect 6 0 23 0;
#X connect 7 0 14 0;
#X connect 7 1 8 1;
#X connect 7 1 17 0;
#X connect 8 0 9 0;
#X connect 9 0 10 0;
#X connect 9 0 16 0;
#X connect 10 0 9 1;
#X connect 11 0 7 0;
#X connect 12 0 9 1;
#X connect 13 0 22 0;
#X connect 14 0 13 0;
#X connect 14 1 15 0;
#X connect 15 0 13 0;
#X connect 16 0 11 0;
#X connect 16 1 20 1;
#X connect 17 0 24 0;
#X connect 18 0 17 0;
#X connect 19 0 18 0;
#X connect 20 0 21 0;
#X connect 21 0 19 0;
#X connect 22 0 19 0;
#X connect 22 1 20 0;
#X connect 23 0 8 0;
#X connect 23 1 12 0;
#X connect 23 2 7 1;
#X connect 23 3 17 1;
#X connect 24 0 3 0;
#X restore 345 204 pd tosymbol;
#X text 983 357 2 arm (preload);
#X obj 69 900 outlet~;
#X obj 278 905 outlet~;
#X obj 73 837 *~;
#X obj 277 837 *~;
#X obj 335 73 switch~;
#X msg 801 249 info;
#X obj 396 417 bng 15 250 50 0 empty empty empty 17 7 0 10 -262144
-1 -1;
#X obj 394 440 list append <none> 44100;
#N canvas 578 92 450 300 status_control 0;
#X obj 28 17 inlet;
#X msg 29 148 0;
#X obj 223 17 r \$2-clip\$1;
#X msg 103 116 2;
#X obj 53 204 s \$0-mode;
#X obj 219 57 select 0 1;
#X obj 29 60 route stop launch prestop;
#X obj 188 94 t b;
#X obj 188 119 v \$0-mode;
#X obj 188 144 select 2;
#X text 310 117 mode;
#X text 291 162 0 stop;
#X text 289 183 1 play;
#X text 293 207 2 arm (preload);
#X text 41 249 prestop message cancels preload mode if settled;
#X connect 0 0 6 0;
#X connect 1 0 4 0;
#X connect 2 0 5 0;
#X connect 3 0 4 0;
#X connect 5 0 1 0;
#X connect 5 1 3 0;
#X connect 6 0 1 0;
#X connect 6 1 3 0;
#X connect 6 2 7 0;
#X connect 7 0 8 0;
#X connect 8 0 9 0;
#X connect 9 0 1 0;
#X restore 39 50 pd status_control;
#N canvas 0 50 481 536 sync-start_stuff 0;
#X obj 41 495 outlet;
#X msg 138 427 stop;
#X obj 108 6 r \$2-clock;
#X obj 142 157 mod 24;
#X obj 138 249 spigot;
#X obj 151 354 select 0;
#X msg 332 285 0;
#X msg 261 182 1;
#X obj 248 95 t b b b;
#X obj 284 143 s \$0-preload;
#X obj 266 242 * 6;
#X obj 151 381 t b b b b;
#X obj 304 26 r \$0-mode;
#X obj 304 53 select 2 0;
#X msg 189 437 1;
#X obj 192 471 s \$0-mode;
#X obj 26 379 r \$0-mode;
#X obj 36 402 select 2;
#X msg 39 435 prestop;
#X obj 38 139 div 6;
#X obj 38 195 - 16;
#X floatatom 58 341 5 0 0 0 - - -, f 5;
#X obj 27 296 s \$2-clip\$1-rcv;
#X obj 37 245 * -1;
#X obj 38 164 change;
#X obj 34 217 select 0;
#X msg 25 271 label \$1';
#X obj 138 274 t f f;
#X obj 266 217 r \$2-clip\$1_quant;
#X obj 156 59 * 6;
#X obj 156 34 r \$2-clip\$1_preroll;
#X obj 130 104 +;
#X connect 1 0 0 0;
#X connect 2 0 31 0;
#X connect 3 0 4 0;
#X connect 4 0 27 0;
#X connect 5 0 11 0;
#X connect 6 0 4 1;
#X connect 7 0 4 1;
#X connect 8 1 7 0;
#X connect 8 2 9 0;
#X connect 10 0 3 1;
#X connect 11 0 1 0;
#X connect 11 2 14 0;
#X connect 11 3 6 0;
#X connect 12 0 13 0;
#X connect 13 0 8 0;
#X connect 13 1 6 0;
#X connect 14 0 15 0;
#X connect 16 0 17 0;
#X connect 17 0 18 0;
#X connect 18 0 0 0;
#X connect 19 0 24 0;
#X connect 20 0 25 0;
#X connect 23 0 26 0;
#X connect 24 0 20 0;
#X connect 25 1 23 0;
#X connect 26 0 22 0;
#X connect 27 0 5 0;
#X connect 27 1 19 0;
#X connect 28 0 10 0;
#X connect 28 0 20 1;
#X connect 29 0 31 1;
#X connect 30 0 29 0;
#X connect 31 0 3 0;
#X restore 531 868 pd sync-start_stuff;
#N canvas 0 50 450 300 gui.play/stop_button 0;
#X obj 120 246 s \$2-clip\$1-rcv;
#X obj 117 25 r \$0-mode;
#X obj 117 50 select 0 1 2;
#X msg 87 192 set 0 \, label |> \, color 8 8 -1;
#X msg 125 154 set 1 \, label || \, color 16 16 -1;
#X msg 153 97 set 1 \, label >. \, color 15 15 -1;
#X connect 1 0 2 0;
#X connect 2 0 3 0;
#X connect 2 1 4 0;
#X connect 2 2 5 0;
#X connect 3 0 0 0;
#X connect 4 0 0 0;
#X connect 5 0 0 0;
#X restore 45 85 pd gui.play/stop_button;
#N canvas 0 50 450 300 gui.displaying_filename 0;
#X text 179 76 vanilla version of splitfilename;
#X msg 134 215 label \$1;
#X msg 208 216 label;
#X obj 198 183 loadbang;
#X obj 130 260 s \$2-hsl\$1-rcv;
#N canvas 696 149 561 762 tosymbol 0;
#X text 65 454 symbol out with correct spaces;
#X text 81 12 string in;
#X obj 91 31 inlet;
#X obj 91 431 outlet;
#X obj 85 31 cnv 5 5 17 empty empty empty 20 12 0 14 -118750 -66577
0;
#X obj 85 431 cnv 5 5 17 empty empty empty 20 12 0 14 -102336 -66577
0;
#X obj 91 55 list;
#X obj 91 193 list store, f 13;
#X obj 91 102 until;
#X obj 91 128 f, f 7;
#X obj 153 128 + 1;
#X msg 91 171 get \$1 1;
#X obj 134 103 0;
#X obj 91 263 list fromsymbol;
#X obj 91 215 route symbol float;
#X obj 109 239 makefilename %s;
#X obj 91 150 t f f;
#X obj 91 380 list store, f 19;
#X obj 91 355 list trim;
#X obj 91 332 list prepend append;
#X obj 157 286 spigot;
#X msg 157 308 32;
#X obj 91 286 t l b, f 9;
#X obj 91 77 t b b a b, f 19;
#X obj 91 404 list tosymbol;
#X connect 2 0 6 0;
#X connect 6 0 23 0;
#X connect 7 0 14 0;
#X connect 7 1 8 1;
#X connect 7 1 17 0;
#X connect 8 0 9 0;
#X connect 9 0 10 0;
#X connect 9 0 16 0;
#X connect 10 0 9 1;
#X connect 11 0 7 0;
#X connect 12 0 9 1;
#X connect 13 0 22 0;
#X connect 14 0 13 0;
#X connect 14 1 15 0;
#X connect 15 0 13 0;
#X connect 16 0 11 0;
#X connect 16 1 20 1;
#X connect 17 0 24 0;
#X connect 18 0 17 0;
#X connect 19 0 18 0;
#X connect 20 0 21 0;
#X connect 21 0 19 0;
#X connect 22 0 19 0;
#X connect 22 1 20 0;
#X connect 23 0 8 0;
#X connect 23 1 12 0;
#X connect 23 2 7 1;
#X connect 23 3 17 1;
#X connect 24 0 3 0;
#X restore 85 70 pd tosymbol;
#X obj 106 32 r \$2-clip\$1_file;
#X obj 84 96 splitfilename /;
#X obj 87 135 splitfilename .;
#X connect 1 0 4 0;
#X connect 2 0 4 0;
#X connect 3 0 2 0;
#X connect 5 0 7 0;
#X connect 6 0 5 0;
#X connect 7 1 8 0;
#X connect 8 0 1 0;
#X restore 40 115 pd gui.displaying_filename;
#N canvas 0 110 268 245 global_stop_message 0;
#X obj 76 31 r \$2-stop;
#X obj 79 178 s \$0-mode;
#X obj 83 71 v \$0-mode;
#X obj 83 96 select 0 1 2;
#X msg 110 129 2;
#X connect 0 0 2 0;
#X connect 2 0 3 0;
#X connect 3 1 4 0;
#X connect 4 0 1 0;
#X restore 691 867 pd global_stop_message;
#X obj 645 488 s \$2-duration\$1_ms;
#X obj 678 467 s \$2-duration\$1_smpl;
#X obj 69 446 r \$2-duration\$1_smpl;
#N canvas 0 50 450 300 switch_mode 0;
#X obj 142 99 delay 10;
#X msg 142 122 0;
#X msg 105 121 1;
#X obj 106 20 r \$0-mode;
#X obj 106 45 == 1;
#X obj 107 72 select 1 0;
#X obj 134 160 s \$0-switch;
#X obj 81 177 outlet;
#X connect 0 0 1 0;
#X connect 1 0 6 0;
#X connect 1 0 7 0;
#X connect 2 0 6 0;
#X connect 2 0 7 0;
#X connect 3 0 4 0;
#X connect 3 0 5 0;
#X connect 5 0 2 0;
#X connect 5 1 0 0;
#X restore 334 42 pd switch_mode;
#N canvas 0 50 450 300 gui.cursor 0;
#X obj 70 27 inlet~;
#X obj 128 217 s \$2-hsl\$1-rcv;
#X obj 130 139 snapshot~;
#X obj 156 57 r \$0-switch;
#X obj 147 105 metro 100;
#X obj 226 84 select 0;
#X msg 226 109 set 0;
#X msg 99 180 set \$1;
#X floatatom 218 174 10 0 0 0 - - -, f 10;
#X connect 0 0 2 0;
#X connect 2 0 7 0;
#X connect 2 0 8 0;
#X connect 3 0 4 0;
#X connect 3 0 5 0;
#X connect 4 0 2 0;
#X connect 5 0 6 0;
#X connect 6 0 1 0;
#X connect 7 0 1 0;
#X restore 91 390 pd gui.cursor;
#N canvas 0 50 784 495 stretch_speed 0;
#X obj 57 50 r BPM;
#X obj 146 41 r \$2-clip\$1_bpm;
#X obj 148 66 t b f;
#X obj 110 121 / 120;
#X obj 125 93 v BPM;
#X obj 51 256 s \$2-speed\$1;
#X msg 181 222 set \$1;
#X obj 180 253 s \$2-speed\$1-rcv;
#X obj 278 50 r \$2-clip\$1_algorithm;
#X obj 91 157 f;
#X obj 91 182 spigot;
#X obj 91 207 t f f;
#X obj 281 121 select 0;
#X obj 268 74 t f f;
#X msg 281 146 1;
#X obj 338 147 t b;
#X obj 340 225 s \$2-clip\$1_loop;
#X msg 338 200 0;
#X obj 285 175 delay 1;
#X connect 0 0 3 0;
#X connect 1 0 2 0;
#X connect 2 0 4 0;
#X connect 2 1 3 1;
#X connect 3 0 9 0;
#X connect 4 0 3 0;
#X connect 6 0 7 0;
#X connect 8 0 13 0;
#X connect 9 0 10 0;
#X connect 10 0 11 0;
#X connect 11 0 5 0;
#X connect 11 1 6 0;
#X connect 12 0 14 0;
#X connect 12 0 18 0;
#X connect 12 1 15 0;
#X connect 13 0 12 0;
#X connect 13 1 10 1;
#X connect 14 0 11 0;
#X connect 15 0 9 0;
#X connect 17 0 16 0;
#X connect 18 0 17 0;
#X restore 897 868 pd stretch_speed;
#X obj 37 556 *~;
#X floatatom 69 471 10 0 0 0 - - -, f 10;
#X obj 615 174 s \$2-clip\$1_file;
#X obj 617 198 r \$2-clip\$1_file;
#X obj 164 524 r \$2-clip\$1_algorithm;
#N canvas 0 57 1920 1023 playolap 0;
#X obj 36 47 inlet~;
#X obj 223 47 inlet;
#X obj 37 334 outlet~;
#X obj 343 49 inlet switch;
#X obj 181 336 outlet~;
#X obj 356 92 switch~;
#X obj 259 106 r \$2-speed\$1;
#X msg 262 130 5 \$1;
#X msg 243 228 chunk-size \$1;
#X obj 182 45 vsl 15 128 1 200 0 0 empty empty empty 0 -9 0 10 -262144
-1 -1 0 1;
#X floatatom 182 195 5 0 0 0 - - -, f 5;
#X obj 259 156 /;
#X obj 23 286 ../audio_clip/pdr_playolap2 \$0-sampler;
#X connect 0 0 12 0;
#X connect 1 0 12 1;
#X connect 3 0 5 0;
#X connect 6 0 7 0;
#X connect 7 0 11 0;
#X connect 8 0 12 1;
#X connect 9 0 8 0;
#X connect 9 0 10 0;
#X connect 11 0 8 0;
#X connect 12 0 2 0;
#X connect 12 1 4 0;
#X restore 181 650 pd playolap;
#N canvas 0 50 450 300 play_varispeed 0;
#X obj 38 65 inlet~;
#X obj 329 34 inlet;
#X obj 43 169 outlet~;
#X obj 224 170 outlet~;
#X obj 38 128 tabread4~ \$0-mytable-1;
#X obj 209 127 tabread4~ \$0-mytable-2;
#X obj 330 106 switch~;
#X obj 228 10 loadbang;
#X obj 228 62 delay 100;
#X obj 329 59 t b;
#X msg 258 36 stop;
#X msg 228 87 1;
#X connect 0 0 4 0;
#X connect 0 0 5 0;
#X connect 1 0 6 0;
#X connect 1 0 9 0;
#X connect 4 0 2 0;
#X connect 5 0 3 0;
#X connect 7 0 8 0;
#X connect 8 0 11 0;
#X connect 9 0 10 0;
#X connect 10 0 8 0;
#X connect 11 0 6 0;
#X restore 33 644 pd play_varispeed;
#N canvas 0 50 450 300 fade_in/out 0;
#X obj 117 231 outlet~;
#X obj 173 73 r \$0-mode;
#X msg 241 138 0 10;
#X obj 173 98 select 1 0 2;
#X obj 115 182 line~;
#X msg 152 133 1 10;
#X connect 1 0 3 0;
#X connect 2 0 4 0;
#X connect 3 0 5 0;
#X connect 3 1 2 0;
#X connect 3 2 2 0;
#X connect 4 0 0 0;
#X connect 5 0 4 0;
#X restore 162 787 pd fade_in/out;
#X obj 177 231 makefilename %c;
#X msg 178 196 32;
#X msg 201 261 separator \$1;
#X obj 317 347 float;
#N canvas 0 50 1032 997 splitfilename 0;
#X obj 54 39 inlet;
#X obj 67 77 list fromsymbol;
#X obj 63 122 t l b l;
#X obj 63 147 list length;
#X obj 63 172 until;
#X obj 95 207 + 1;
#X obj 57 279 list split;
#X obj 61 231 t b f;
#X obj 59 255 list append;
#X obj 60 208 f 1;
#X msg 112 171 1;
#X obj 95 313 list split 1;
#X obj 64 341 select 32;
#X obj 92 377 list append;
#X obj 18 96 t b l;
#X obj 37 404 list append;
#X obj 37 428 list tosymbol;
#X obj 37 452 outlet;
#X connect 0 0 1 0;
#X connect 1 0 14 0;
#X connect 2 0 3 0;
#X connect 2 1 10 0;
#X connect 2 2 8 1;
#X connect 3 0 4 0;
#X connect 4 0 9 0;
#X connect 5 0 9 1;
#X connect 6 1 11 0;
#X connect 7 0 8 0;
#X connect 7 1 6 1;
#X connect 8 0 6 0;
#X connect 9 0 5 0;
#X connect 9 0 7 0;
#X connect 10 0 9 1;
#X connect 11 0 12 0;
#X connect 11 1 13 1;
#X connect 12 0 13 0;
#X connect 13 0 15 1;
#X connect 14 0 15 0;
#X connect 14 1 2 0;
#X connect 15 0 16 0;
#X connect 16 0 17 0;
#X restore 326 286 pd splitfilename <space>;
#X obj 315 374 s \$2-clip\$1_bpm;
#N canvas 814 132 739 579 pvoc 0;
#X obj 38 65 inlet~;
#X obj 329 34 inlet;
#X obj 46 431 outlet~;
#X obj 227 432 outlet~;
#X obj 330 106 switch~;
#X obj 228 10 loadbang;
#X obj 228 62 delay 100;
#X obj 329 59 t b;
#X msg 258 36 stop;
#X msg 228 87 1;
#X obj 142 223 snapshot~;
#X obj 129 185 bang~;
#X msg 159 271 location_ms \$1;
#X obj 48 213 /~ 44.1;
#X msg 518 253 locking \$1;
#X obj 554 222 tgl 15 0 empty empty empty 17 7 0 10 -262144 -1 -1 1
1;
#X obj 526 171 loadbang;
#X msg 526 196 1;
#X obj 138 326 pvoc2~ \$0-mytable-1 1024 2;
#X obj 163 371 pvoc2~ \$0-mytable-2 1024 2;
#X connect 0 0 13 0;
#X connect 1 0 4 0;
#X connect 1 0 7 0;
#X connect 5 0 6 0;
#X connect 6 0 9 0;
#X connect 7 0 8 0;
#X connect 8 0 6 0;
#X connect 9 0 4 0;
#X connect 10 0 12 0;
#X connect 11 0 10 0;
#X connect 12 0 18 0;
#X connect 12 0 19 0;
#X connect 13 0 10 0;
#X connect 14 0 18 0;
#X connect 14 0 19 0;
#X connect 15 0 14 0;
#X connect 16 0 17 0;
#X connect 17 0 15 0;
#X connect 18 0 2 0;
#X connect 19 0 3 0;
#X restore 290 647 pd pvoc;
#X obj 211 591 == 2;
#X obj 250 595 == 3;
#X obj 148 576 <= 1;
#N canvas 0 50 946 871 cooked_phasor+sync_loop 0;
#X obj 80 689 outlet~;
#X obj 45 359 r \$2-speed\$1;
#X obj 59 438 / 1;
#X floatatom 106 398 5 0 0 0 - - -, f 5;
#X obj 60 398 t b f;
#X obj 24 326 r \$2-duration\$1_ms;
#X obj 190 466 phasor~;
#X msg 234 428 0;
#X obj 59 488 /;
#X obj 233 345 r \$0-mode;
#X msg 59 463 1000 \$1;
#X obj 180 426 f;
#X obj 187 380 select 1 0 2;
#X msg 613 389 1;
#X obj 480 326 r \$2-clock;
#X obj 483 366 mod 6;
#X obj 483 391 select 0;
#X obj 483 445 spigot;
#X obj 483 470 t b b;
#X msg 572 444 0;
#X obj 484 569 select 1 0;
#X text 377 529 reset phase;
#X msg 517 613 0;
#X obj 517 638 s \$0-mode;
#X msg 445 605 0;
#X obj 456 662 bng 15 250 50 0 empty empty empty 17 7 0 10 -262144
-1 -1;
#X obj 583 283 bng 15 250 50 0 empty empty empty 17 7 0 10 -262144
-1 -1;
#X obj 701 275 bng 15 250 50 0 empty empty empty 17 7 0 10 -262144
-1 -1;
#X obj 533 240 threshold~ 0.99 10 0.1 10;
#X obj 552 495 r \$2-clip\$1_loop;
#X text 724 239 synchro loop;
#X obj 484 544 f 0;
#X connect 1 0 4 0;
#X connect 2 0 10 0;
#X connect 4 0 2 0;
#X connect 4 1 2 1;
#X connect 5 0 2 0;
#X connect 6 0 28 0;
#X connect 6 0 0 0;
#X connect 7 0 6 1;
#X connect 7 0 6 0;
#X connect 8 0 11 0;
#X connect 9 0 12 0;
#X connect 10 0 8 0;
#X connect 11 0 6 0;
#X connect 12 0 11 0;
#X connect 12 1 7 0;
#X connect 12 2 7 0;
#X connect 13 0 17 1;
#X connect 14 0 15 0;
#X connect 15 0 16 0;
#X connect 16 0 17 0;
#X connect 17 0 18 0;
#X connect 18 0 31 0;
#X connect 18 1 19 0;
#X connect 19 0 17 1;
#X connect 20 0 24 0;
#X connect 20 0 25 0;
#X connect 20 1 22 0;
#X connect 22 0 23 0;
#X connect 24 0 6 1;
#X connect 28 0 13 0;
#X connect 28 0 26 0;
#X connect 28 1 27 0;
#X connect 29 0 31 1;
#X connect 31 0 20 0;
#X restore 28 351 pd cooked_phasor+sync_loop;
#X obj 1123 376 s \$2-clip\$1_quant-rcv;
#X obj 713 135 print;
#X obj 317 322 splitfilename .;
#X obj 616 324 u_samplebank2 \$0-mytable;
#X connect 0 0 32 0;
#X connect 6 0 7 0;
#X connect 7 0 62 0;
#X connect 11 0 65 0;
#X connect 12 0 48 1;
#X connect 13 0 45 0;
#X connect 14 0 65 0;
#X connect 15 0 13 0;
#X connect 15 0 63 0;
#X connect 19 0 18 0;
#X connect 19 1 17 0;
#X connect 19 1 37 0;
#X connect 19 2 16 0;
#X connect 19 2 38 0;
#X connect 19 3 20 0;
#X connect 21 0 11 0;
#X connect 22 0 14 0;
#X connect 22 0 55 0;
#X connect 26 0 24 0;
#X connect 27 0 25 0;
#X connect 29 0 65 0;
#X connect 30 0 31 0;
#X connect 31 0 12 0;
#X connect 33 0 1 0;
#X connect 39 0 43 1;
#X connect 39 0 44 0;
#X connect 40 0 28 0;
#X connect 43 0 48 0;
#X connect 43 0 49 0;
#X connect 43 0 57 0;
#X connect 46 0 22 0;
#X connect 47 0 58 0;
#X connect 47 0 59 0;
#X connect 47 0 60 0;
#X connect 48 0 26 0;
#X connect 48 1 27 0;
#X connect 49 0 26 0;
#X connect 49 1 27 0;
#X connect 50 0 26 1;
#X connect 50 0 27 1;
#X connect 51 0 53 0;
#X connect 52 0 51 0;
#X connect 54 0 56 0;
#X connect 55 0 64 0;
#X connect 57 0 26 0;
#X connect 57 1 27 0;
#X connect 58 0 48 2;
#X connect 59 0 57 1;
#X connect 60 0 49 1;
#X connect 61 0 41 0;
#X connect 61 0 43 0;
#X connect 64 0 54 0;
#X connect 65 0 19 0;
#X connect 65 0 31 0;
