#N canvas 0 23 1920 955 8;
#X declare -path ../../../core;
#X declare -path ../../../core/stuff;
#X declare -path ../../../core/rj;
#N canvas 172 83 586 377 LICENSE-GPL 0;
#X text 57 88 This program is free software: you can redistribute it
and/or modify it under the terms of the GNU General Public License
as published by the Free Software Foundation \, either version 3 of
the License \, or (at your option) any later version.;
#X text 58 168 This program is distributed in the hope that it will
be useful \, but WITHOUT ANY WARRANTY \; without even the implied warranty
of MERCHANTABILITY or FITNESS FOR A PARTICULAR PURPOSE. See the GNU
General Public License for more details.;
#X text 57 261 You should have received a copy of the GNU General Public
License along with this program. If not \, see <http://www.gnu.org/licenses/>.
;
#X text 61 54 Copyright (C) 2009 \, Reality Jockey Ltd.;
#X text 60 325 See the file LICENSE.txt for the full license text.
;
#X restore 298 15 pd LICENSE-GPL;
#X obj 156 482 list prepend wintablet;
#X obj 202 571 list trim;
#X obj 488 299 t f f;
#X obj 597 322 & 1;
#X obj 490 327 & 6;
#X obj 475 351 +;
#X obj 465 319 * 8;
#X obj 473 376 - 8;
#X obj 473 398 / 2;
#X msg 506 484 0;
#X msg 540 483 1;
#X msg 578 482 2;
#X msg 613 480 3;
#X obj 404 354 spigot;
#X obj 403 303 / 8;
#X obj 426 302 / 8;
#X obj 449 302 / 8;
#X obj 402 330 pack f f f;
#X obj 379 564 unpack f f f, f 33;
#X obj 412 611 r \$0-ccx;
#X obj 372 676 pack f f 1;
#X obj 454 674 pack f f 1;
#X obj 497 610 r \$0-ccy;
#X obj 544 672 pack f f 1;
#X obj 580 606 r \$0-ccz;
#X obj 502 458 select 0 1 2 4 5;
#X msg 641 480 4;
#X obj 323 622 t b;
#X msg 381 655 1;
#X obj 375 696 t b l;
#X msg 461 654 1;
#X msg 550 652 1;
#X obj 383 636 r \$0-testx;
#X obj 466 632 r \$0-testy;
#X obj 550 630 r \$0-testz;
#X obj 377 612 spigot;
#X obj 404 584 r \$0-ccx_enable;
#X obj 459 611 spigot;
#X obj 489 586 r \$0-ccy_enable;
#X obj 543 605 spigot;
#X obj 571 580 r \$0-ccz_enable;
#X obj 101 101 cnv 15 188 68 \$0-background \$0-background-rcv data_wintablet-0
0 7 0 14 -262144 -1 0;
#X obj 100 140 bng 30 250 50 0 empty empty start 1 15 0 9 -204786 -1
-1;
#X obj 193 22 vsl 70 17 1 0 0 0 \$0-presets \$0-presets-rcv PRESETS
4 5 0 10 -232576 -232576 -1 0 1;
#X obj 214 118 cnv 10 75 50 empty \$0-color empty 20 12 0 14 -228992
-66577 0;
#X obj 229 119 bng 8 50 10 0 empty empty empty 17 7 0 10 -262144 -1
-1;
#X obj 276 128 tgl 14 0 \$0-ccx_enable \$0-ccx_enable-rcv empty 0 6
0 10 -203904 -1 -1 0 1;
#X obj 215 128 bng 14 250 50 0 \$0-testx empty empty 17 7 0 10 -262144
-1 -1;
#X obj 215 142 bng 14 250 50 0 \$0-testy empty empty 17 7 0 10 -262144
-1 -1;
#X obj 215 156 bng 14 250 50 0 \$0-testz empty empty 17 7 0 10 -262144
-1 -1;
#X obj 276 142 tgl 14 0 \$0-ccy_enable \$0-ccy_enable-rcv empty 0 6
0 10 -203904 -1 -1 0 1;
#X obj 276 156 tgl 14 0 \$0-ccz_enable \$0-ccz_enable-rcv empty 0 6
0 10 -203904 -1 -1 0 1;
#X floatatom 229 128 5 0 127 1 ccx #0-ccx-rcv #0-ccx, f 5;
#X floatatom 229 142 5 0 127 1 ccy #0-ccy-rcv #0-ccy, f 5;
#X floatatom 229 155 5 0 127 1 ccz #0-ccz-rcv #0-ccz, f 5;
#X obj 19 400 inlet~;
#X obj 19 446 outlet~;
#X obj 79 400 inlet~;
#X obj 79 446 outlet~;
#X obj 399 4 inlet data;
#X obj 236 725 outlet data;
#X obj 404 85 module_loader data_wintablet \$0 \$1;
#X obj 666 583 pack f f;
#X msg 669 429 stop;
#X obj 664 560 +;
#X obj 522 362 r \$0-noteout;
#X msg 666 603 note \$1 \$2;
#X obj 602 377 select 0;
#X obj 522 384 + 1;
#X obj 498 438 spigot;
#X obj 564 511 change;
#X obj 605 357 change;
#X msg 605 421 set -1;
#X obj 602 399 t b b;
#X obj 563 552 poly 1 1;
#X obj 491 418 spigot;
#X obj 560 532 list append 100;
#X obj 534 282 tgl 15 0 empty empty empty 17 7 0 10 -262144 -1 -1 0
1;
#X obj 862 331 data_wintablet/analyserotation 5;
#X obj 827 58 namecanvas \$0-multitab;
#X obj 825 38 ui_multitab \$0;
#X obj 101 201 cnv 15 188 68 \$0-background \$0-background-rcv data_wintablet-0
0 7 0 14 -262144 -1 0;
#X obj 245 200 hradio 15 1 0 3 \$0-guitab \$0-guitab-rcv empty 32 7
0 16 -191407 -1 -4160 0;
#X floatatom 134 155 5 -1 127 2 note_out #0-noteout-rcv #0-noteout
, f 5;
#X obj 889 355 r \$0-wintabmode;
#X obj 861 379 spigot;
#X obj 861 466 *;
#X obj 900 447 r \$0-velocity_out;
#X msg 861 487 scratch_speed \$1;
#X obj 101 301 cnv 15 188 68 \$0-background \$0-background-rcv data_wintablet-0
0 7 0 14 -262144 -1 0;
#X obj 205 240 bng 14 250 50 0 \$0-test_btn1 empty empty 17 7 0 10
-262144 -1 -1;
#X floatatom 219 240 5 0 127 1 btn1 #0-btn1-rcv #0-btn1, f 5;
#X obj 790 622 pack f f 1, f 11;
#X obj 801 571 spigot;
#X obj 836 545 r \$0-btn1_enable;
#X obj 840 592 r \$0-btn1;
#X obj 799 507 & 2;
#X obj 799 529 != 0;
#X obj 799 551 * 100;
#X obj 245 300 hradio 15 1 0 3 \$0-guitab \$0-guitab-rcv empty 32 7
0 16 -191407 -1 -4160 0;
#X obj 843 570 r \$0-test_btn1;
#X msg 805 592 100;
#X obj 861 423 +;
#X obj 861 445 t f f;
#X obj 861 401 * 0.08;
#X obj 897 428 * 0.92;
#N canvas 0 57 1920 1023 speed_lim 0;
#X obj 91 12 inlet;
#X obj 87 105 t b b a;
#X obj 83 278 list append;
#X obj 83 307 list trim;
#X msg 129 200 1;
#X msg 57 177 0;
#X obj 83 332 outlet;
#X obj 33 226 change;
#X obj 83 249 metro 10;
#X obj 55 145 delay 15;
#X connect 0 0 1 0;
#X connect 1 0 9 0;
#X connect 1 1 4 0;
#X connect 1 2 2 1;
#X connect 2 0 3 0;
#X connect 3 0 6 0;
#X connect 4 0 7 0;
#X connect 5 0 7 0;
#X connect 7 0 8 0;
#X connect 8 0 2 0;
#X connect 9 0 5 0;
#X restore 402 252 pd speed_lim;
#X obj 402 275 unpack f f f f f;
#X obj 392 215 pack f f f f f;
#N canvas 0 57 1920 1023 u_parameters 0;
#X obj 127 50 u_parameter \$0 ccx;
#X obj 122 73 u_parameter \$0 ccy;
#X obj 123 93 u_parameter \$0 ccz;
#X obj 123 116 u_parameter \$0 ccx_enable;
#X obj 123 136 u_parameter \$0 ccy_enable;
#X obj 123 156 u_parameter \$0 ccz_enable;
#X obj 123 178 u_parameter \$0 noteout;
#X obj 123 223 u_parameter \$0 wintabmode;
#X obj 123 243 u_parameter \$0 velocity_out;
#X obj 123 273 u_parameter \$0 btn1;
#X obj 123 296 u_parameter \$0 btn1_enable;
#X obj 118 15 inlet;
#X obj 123 316 u_dispatch \$0 device_id;
#X obj 123 336 u_parameter \$0 hysteresis;
#X connect 0 0 1 0;
#X connect 1 0 2 0;
#X connect 2 0 3 0;
#X connect 3 0 4 0;
#X connect 4 0 5 0;
#X connect 5 0 6 0;
#X connect 6 0 7 0;
#X connect 7 0 8 0;
#X connect 8 0 9 0;
#X connect 9 0 10 0;
#X connect 10 0 12 0;
#X connect 11 0 0 0;
#X connect 12 0 13 0;
#X restore 405 113 pd u_parameters;
#X obj 1120 153 r \$0-velocity_out;
#X obj 1120 175 * 100;
#X obj 1120 197 int;
#X obj 1120 219 / 100;
#X msg 1120 241 label vel.out=\$1;
#X obj 1120 263 s \$0-velocity_out-rcv;
#X obj 628 26 savestate;
#X obj 654 409 delay 1;
#X obj 397 724 glocal/glocal.send CTLIN;
#X obj 205 255 bng 14 250 50 0 \$0-test_btn2 empty empty 17 7 0 10
-262144 -1 -1;
#X floatatom 219 254 5 0 127 1 btn2 #0-btn2-rcv #0-btn2, f 5;
#X obj 1211 94 namecanvas \$0-this;
#X obj 1209 71 triggered_loadbang \$0-this;
#X text 1204 21 manually trigger loadbang if the instance of abstraction
is created dynamically, f 29;
#X obj 386 165 wintablet \$0;
#X obj 488 143 & 1;
#X obj 488 161 change;
#X obj 488 179 select 0 1;
#X obj 495 231 s \$0-color;
#X msg 496 213 color 38 38;
#X msg 562 188 color 65 65;
#X obj 274 101 bng 15 250 50 0 \$0-refresh_devices \$0-select_device-rcv
.1. 0 7 0 10 -1 -1 -24198;
#X obj 164 671 r \$0-pad_data;
#X obj 102 240 bng 14 250 50 0 \$0-test_btn1 empty empty 17 7 0 10
-262144 -1 -1;
#X floatatom 116 240 5 0 127 1 padL #0-padl-rcv #0-padl, f 5;
#X obj 102 255 bng 14 250 50 0 \$0-test_btn2 empty empty 17 7 0 10
-262144 -1 -1;
#X floatatom 116 254 5 0 127 1 padR #0-padr-rcv #0-padr, f 5;
#X obj 245 100 bng 15 250 50 0 empty empty ... 2 6 0 6 -191407 -1 -1
;
#X obj 285 72 s \$0-guitab;
#X msg 284 54 1;
#X obj 171 239 tgl 14 0 \$0-btn1_enable \$0-btn1_enable-rcv empty 0
6 0 10 -203904 -1 -1 0 1;
#X obj 171 254 tgl 14 0 \$0-btn2_enable \$0-btn2_enable-rcv empty 0
6 0 10 -203904 -1 -1 0 1;
#X obj 145 353 hsl 75 15 0.01 10 1 0 \$0-velocity_out \$0-velocity_out-rcv
vel.out=0.01 1 7 0 10 -261234 -1 -1 0 1;
#X obj 276 239 tgl 14 0 \$0-btn1_enable \$0-btn1_enable-rcv empty 0
6 0 10 -203904 -1 -1 0 1;
#X obj 276 254 tgl 14 0 \$0-btn2_enable \$0-btn2_enable-rcv empty 0
6 0 10 -203904 -1 -1 0 1;
#X text 102 214 BUTTONS -> CTL CHANGE;
#X text 102 114 STYLUS -> CTL CHANGE;
#X text 131 132 OnClick;
#X obj 208 327 bng 14 250 50 0 \$0-test_btn1 empty empty 17 7 0 10
-262144 -1 -1;
#X floatatom 222 327 5 0 127 2 wheel #0-wheel-rcv #0-wheel, f 5;
#X obj 249 329 vradio 13 1 0 3 empty empty empty 0 -8 0 10 -203904
-1 -1 0;
#X text 262 327 off;
#X obj 103 342 vradio 13 1 0 2 empty empty WinTabMode_off 16 7 0 9
-261234 -1 -1 0;
#X text 117 354 on->;
#X text 262 342 on;
#X text 263 355 sum;
#X text 102 313 WHEEL & ROTATION;
#X obj 176 133 ui_xy \$0 x 0 1 lin y 0 1 lin;
#X obj 793 89 r \$0-x-y-click;
#X obj 652 111 r \$0-x;
#X obj 703 119 r \$0-y;
#X obj 652 129 * 1024;
#X obj 703 137 * 1024;
#X obj 655 211 pack f f 1024 1 0;
#X obj 399 24 route pen pad;
#X obj 394 47 s \$0-hidio_pen;
#X obj 483 38 s \$0-hidio_pad;
#X obj 744 159 select 0;
#X obj 649 185 f;
#X obj 797 122 t f f;
#X obj 652 259 / 1024;
#X msg 652 277 set \$1;
#X obj 652 295 s \$0-x-rcv;
#X floatatom 171 327 5 0 255 0 z-Hysteresis #0-hysteresis-rcv #0-hysteresis
, f 5;
#X obj 960 22 declare -path ../../../core;
#X obj 960 42 declare -path ../../../core/stuff;
#X obj 960 62 declare -path ../../../core/rj;
#X connect 1 0 2 0;
#X connect 2 0 61 0;
#X connect 3 0 5 0;
#X connect 3 1 4 0;
#X connect 4 0 14 1;
#X connect 4 0 70 1;
#X connect 4 0 72 0;
#X connect 5 0 6 1;
#X connect 6 0 8 0;
#X connect 7 0 6 0;
#X connect 8 0 9 0;
#X connect 9 0 76 0;
#X connect 10 0 71 0;
#X connect 11 0 71 0;
#X connect 12 0 71 0;
#X connect 13 0 71 0;
#X connect 14 0 19 0;
#X connect 15 0 18 0;
#X connect 16 0 18 1;
#X connect 17 0 18 2;
#X connect 18 0 14 0;
#X connect 19 0 36 0;
#X connect 19 1 38 0;
#X connect 19 2 40 0;
#X connect 20 0 21 1;
#X connect 21 0 30 0;
#X connect 22 0 30 0;
#X connect 23 0 22 1;
#X connect 24 0 30 0;
#X connect 25 0 24 1;
#X connect 26 0 10 0;
#X connect 26 1 11 0;
#X connect 26 2 12 0;
#X connect 26 3 13 0;
#X connect 26 4 27 0;
#X connect 27 0 71 0;
#X connect 28 0 46 0;
#X connect 29 0 21 0;
#X connect 30 0 28 0;
#X connect 30 1 119 0;
#X connect 31 0 22 0;
#X connect 32 0 24 0;
#X connect 33 0 29 0;
#X connect 34 0 31 0;
#X connect 35 0 32 0;
#X connect 36 0 21 0;
#X connect 37 0 36 1;
#X connect 38 0 22 0;
#X connect 39 0 38 1;
#X connect 40 0 24 0;
#X connect 41 0 40 1;
#X connect 43 0 125 0;
#X connect 56 0 57 0;
#X connect 58 0 59 0;
#X connect 60 0 165 0;
#X connect 62 0 110 0;
#X connect 62 1 117 0;
#X connect 63 0 67 0;
#X connect 64 0 75 0;
#X connect 65 0 63 0;
#X connect 66 0 65 1;
#X connect 66 0 69 0;
#X connect 67 0 61 0;
#X connect 68 0 74 0;
#X connect 69 0 76 1;
#X connect 70 0 26 0;
#X connect 71 0 77 0;
#X connect 72 0 68 0;
#X connect 73 0 71 0;
#X connect 74 0 73 0;
#X connect 74 1 118 0;
#X connect 75 1 65 0;
#X connect 75 2 63 1;
#X connect 76 0 70 0;
#X connect 77 0 75 0;
#X connect 79 0 86 0;
#X connect 85 0 86 1;
#X connect 86 0 105 0;
#X connect 87 0 89 0;
#X connect 88 0 87 1;
#X connect 89 0 61 0;
#X connect 93 0 119 0;
#X connect 94 0 93 0;
#X connect 95 0 94 1;
#X connect 96 0 93 1;
#X connect 97 0 98 0;
#X connect 98 0 99 0;
#X connect 99 0 94 0;
#X connect 101 0 102 0;
#X connect 102 0 93 0;
#X connect 103 0 104 0;
#X connect 104 0 87 0;
#X connect 104 1 106 0;
#X connect 105 0 103 0;
#X connect 106 0 103 1;
#X connect 107 0 108 0;
#X connect 107 0 1 0;
#X connect 108 0 15 0;
#X connect 108 0 79 0;
#X connect 108 1 16 0;
#X connect 108 1 79 1;
#X connect 108 2 17 0;
#X connect 108 3 7 0;
#X connect 108 4 3 0;
#X connect 108 4 97 0;
#X connect 109 0 107 0;
#X connect 111 0 112 0;
#X connect 112 0 113 0;
#X connect 113 0 114 0;
#X connect 114 0 115 0;
#X connect 115 0 116 0;
#X connect 117 0 62 1;
#X connect 117 1 62 2;
#X connect 118 0 64 0;
#X connect 125 0 109 0;
#X connect 125 1 109 1;
#X connect 125 2 109 2;
#X connect 125 3 109 3;
#X connect 125 4 109 4;
#X connect 125 4 126 0;
#X connect 126 0 127 0;
#X connect 127 0 128 0;
#X connect 128 0 130 0;
#X connect 128 1 131 0;
#X connect 130 0 129 0;
#X connect 131 0 129 0;
#X connect 133 0 61 0;
#X connect 138 0 140 0;
#X connect 140 0 139 0;
#X connect 159 0 170 0;
#X connect 160 0 162 0;
#X connect 161 0 163 0;
#X connect 162 0 169 0;
#X connect 163 0 164 1;
#X connect 164 0 107 0;
#X connect 165 0 166 0;
#X connect 165 1 167 0;
#X connect 165 2 62 0;
#X connect 168 0 169 0;
#X connect 169 0 164 0;
#X connect 170 0 168 0;
#X connect 170 1 164 4;
#X connect 171 0 172 0;
#X connect 172 0 173 0;
#X coords 0 0 1 1 190 70 1 100 100;
