#N canvas 0 50 577 453 12;
#X obj 110 61 inlet;
#N canvas 0 57 1920 1023 vd_line 1;
#X obj 114 380 *~;
#X obj 185 248 line~;
#X obj 295 120 == 0;
#X obj 255 122 f;
#X obj 206 164 select 1 0;
#X msg 229 198 1 20;
#X msg 200 199 0;
#X msg 270 199 0 20;
#X obj 262 379 *~;
#X obj 333 247 line~;
#X obj 343 164 select 1 0;
#X msg 366 198 1 20;
#X msg 337 199 0;
#X msg 407 199 0 20;
#X obj 111 221 phasor~;
#X obj 259 222 phasor~;
#X obj -18 46 inlet delay(ms);
#X obj 113 415 +~;
#X obj 208 442 *~;
#X obj 356 441 *~;
#X obj 207 477 +~;
#X obj 70 501 outlet~;
#X obj 206 509 outlet~;
#X obj 206 415 vd~ \$1-ligne-r;
#X obj 348 414 vd~ \$1-ligne-r;
#X obj 259 352 vd~ \$1-ligne-l;
#X obj 111 353 vd~ \$1-ligne-l;
#X obj 300 81 r \$1-resync;
#X obj -8 172 line~;
#X obj 111 325 +~;
#X obj 258 324 +~;
#X obj 111 171 line~;
#X obj 34 82 r \$1-smooth;
#X obj -20 116 pack f 300;
#X obj 140 126 pack f 300;
#X obj 194 33 inlet speed;
#X obj 174 62 - 1;
#X obj 157 94 * -0.1;
#X obj 110 300 *~ 10000;
#X obj 258 299 *~ 10000;
#X connect 0 0 17 0;
#X connect 1 0 0 1;
#X connect 1 0 18 1;
#X connect 2 0 3 1;
#X connect 2 0 10 0;
#X connect 3 0 2 0;
#X connect 3 0 4 0;
#X connect 4 0 5 0;
#X connect 4 0 6 0;
#X connect 4 1 7 0;
#X connect 5 0 1 0;
#X connect 6 0 14 1;
#X connect 7 0 1 0;
#X connect 8 0 17 1;
#X connect 9 0 8 1;
#X connect 9 0 19 1;
#X connect 10 0 11 0;
#X connect 10 0 12 0;
#X connect 10 1 13 0;
#X connect 11 0 9 0;
#X connect 12 0 15 1;
#X connect 13 0 9 0;
#X connect 14 0 38 0;
#X connect 15 0 39 0;
#X connect 16 0 33 0;
#X connect 17 0 21 0;
#X connect 18 0 20 0;
#X connect 19 0 20 1;
#X connect 20 0 22 0;
#X connect 23 0 18 0;
#X connect 24 0 19 0;
#X connect 25 0 8 0;
#X connect 26 0 0 0;
#X connect 27 0 3 0;
#X connect 28 0 29 1;
#X connect 28 0 30 1;
#X connect 29 0 23 0;
#X connect 29 0 26 0;
#X connect 30 0 24 0;
#X connect 30 0 25 0;
#X connect 31 0 14 0;
#X connect 31 0 15 0;
#X connect 32 0 33 1;
#X connect 32 0 34 1;
#X connect 33 0 28 0;
#X connect 34 0 31 0;
#X connect 35 0 36 0;
#X connect 36 0 37 0;
#X connect 37 0 34 0;
#X connect 38 0 29 0;
#X connect 39 0 30 0;
#X restore 198 238 pd vd_line;
#N canvas 0 50 494 446 volpan 0;
#X obj 132 163 * -1;
#X obj 150 96 / 127;
#X obj 132 135 - 1;
#X obj -3 -16 inlet~;
#X obj 318 -11 inlet;
#X obj 79 335 outlet~;
#X obj 155 332 outlet~;
#X obj 184 -12 inlet;
#X obj 69 29 dbtorms;
#X text 159 13 Vol (0-127);
#X text 304 19 Pan (0-127);
#X obj 80 98 line~;
#X obj 34 139 *~;
#X obj 217 254 line~;
#X obj 153 293 *~;
#X obj 147 249 line~;
#X obj 38 297 *~;
#X msg 146 216 \$1 40;
#X msg 217 222 \$1 40;
#X msg 80 66 \$1 100;
#X obj 50 -14 inlet~;
#X obj 74 147 *~;
#X obj 402 -9 inlet fadeout;
#X msg 365 66 0 100;
#X connect 0 0 17 0;
#X connect 1 0 2 0;
#X connect 1 0 18 0;
#X connect 2 0 0 0;
#X connect 3 0 12 0;
#X connect 4 0 1 0;
#X connect 7 0 8 0;
#X connect 8 0 19 0;
#X connect 11 0 12 1;
#X connect 11 0 21 1;
#X connect 12 0 16 0;
#X connect 13 0 14 1;
#X connect 14 0 6 0;
#X connect 15 0 16 1;
#X connect 16 0 5 0;
#X connect 17 0 15 0;
#X connect 18 0 13 0;
#X connect 19 0 11 0;
#X connect 20 0 21 0;
#X connect 21 0 14 0;
#X connect 22 0 23 0;
#X connect 23 0 11 0;
#X restore 207 271 pd volpan;
#X obj 70 219 switch~;
#X msg 80 179 1;
#X msg 212 169 0;
#X obj 147 341 throw~ \$1-l;
#X obj 266 350 throw~ \$1-r;
#X obj 336 238 delay 100;
#X obj 353 177 t b;
#X obj 171 283 hip~ 5;
#X obj 248 310 hip~ 5;
#X obj 23 254 tgl 15 0 empty empty empty 17 7 0 10 -262144 -1 -1 1
1;
#X obj 119 123 route add delay speed vol pan remove;
#X connect 0 0 13 0;
#X connect 1 0 2 0;
#X connect 1 1 2 1;
#X connect 2 0 10 0;
#X connect 2 1 11 0;
#X connect 4 0 3 0;
#X connect 4 0 12 0;
#X connect 5 0 3 0;
#X connect 5 0 12 0;
#X connect 8 0 5 0;
#X connect 9 0 8 0;
#X connect 9 0 2 4;
#X connect 10 0 6 0;
#X connect 11 0 7 0;
#X connect 13 0 4 0;
#X connect 13 1 1 0;
#X connect 13 2 1 1;
#X connect 13 3 2 2;
#X connect 13 4 2 3;
#X connect 13 5 9 0;
