#N canvas 448 85 894 552 10;
#X text 174 95 + --> Out;
#X text 124 107 2->1--/;
#X text 5 93 Algorithm 5 is : 4->3--;
#X text 6 62 4-op FM Rhodey piano based on algorithm 5:;
#X text 6 133 Clone of the STK Rhodey;
#X obj 16 202 inst_rhodey;
#A saved SID 0;
#X obj 320 182 makenote 100 100;
#N canvas 145 50 577 652 random 0;
#X obj 100 99 select 1;
#X obj 100 35 inlet;
#X obj 174 203 * 200;
#X obj 174 231 t a a;
#X obj 449 409 outlet;
#X obj 174 144 random 4;
#X obj 174 169 + 1;
#X obj 174 268 delay;
#X obj 100 60 t a a;
#X obj 340 192 spigot 1;
#X obj 100 479 outlet;
#X obj 259 473 outlet;
#X obj 100 332 t b b b;
#X obj 269 39 inlet;
#X obj 449 380 - 1;
#X obj 259 367 random 40;
#X obj 259 387 + 40;
#X obj 100 375 random 16;
#X obj 100 451 ../../../core/rj/m_majorscale 48;
#X connect 0 0 5 0;
#X connect 1 0 8 0;
#X connect 2 0 3 0;
#X connect 3 0 7 0;
#X connect 3 0 12 0;
#X connect 3 1 14 0;
#X connect 5 0 6 0;
#X connect 6 0 2 0;
#X connect 7 0 9 0;
#X connect 8 0 0 0;
#X connect 8 1 9 1;
#X connect 9 0 5 0;
#X connect 12 0 17 0;
#X connect 12 2 15 0;
#X connect 13 0 2 1;
#X connect 14 0 4 0;
#X connect 15 0 16 0;
#X connect 16 0 11 0;
#X connect 17 0 18 0;
#X connect 18 0 10 0;
#X restore 343 142 pd random notes;
#X obj 320 205 pack f f;
#X msg 320 228 note \$1 \$2;
#X obj 16 277 dac~;
#X obj 341 110 tgl 15 0 empty empty empty 17 7 0 10 -262144 -1 -1 0
1;
#X connect 5 0 10 0;
#X connect 5 1 10 1;
#X connect 6 0 8 0;
#X connect 6 1 8 1;
#X connect 7 0 6 0;
#X connect 7 1 6 1;
#X connect 7 2 6 2;
#X connect 8 0 9 0;
#X connect 9 0 5 2;
#X connect 11 0 7 0;
#X coords 0 552 1 551 190 70 0;
