#N canvas 0 57 1920 1023 12;
#X obj 124 48 inlet;
#X obj 234 202 list fromsymbol;
#X obj 129 95 route separator;
#X obj 231 142 symbol;
#X obj 234 227 t l l;
#X obj 235 262 list length;
#X obj 278 350 until;
#X obj 244 444 f;
#X obj 143 488 list split;
#X obj 234 296 moses 1;
#X obj 250 380 t b b;
#X obj 147 443 list append;
#X obj 183 522 list split 1;
#X msg 314 89 abcdef;
#X obj 62 247 list fromsymbol;
#X obj 62 272 list split 1;
#X obj 134 580 select;
#X obj 126 644 list append;
#X obj 232 644 list append;
#X obj 77 709 list tosymbol;
#X obj 225 708 list tosymbol;
#X obj 77 734 outlet;
#X obj 225 733 outlet;
#X obj 26 113 list append \$1;
#X obj 8 74 loadbang;
#X obj 107 221 symbol;
#X obj 140 172 route space backslash leftbrace rightbrace dollar comma
semi;
#X msg 142 332 32;
#X msg 299 399 0;
#X obj 281 443 + 1;
#X obj 137 555 f;
#X obj 134 527 t b l;
#X obj 138 605 t b b;
#X obj 77 679 list append;
#X obj 215 678 list append;
#X obj 263 320 t b f b;
#X obj 83 622 t b b;
#X obj 32 137 list trim;
#X connect 0 0 2 0;
#X connect 1 0 4 0;
#X connect 2 0 26 0;
#X connect 2 1 3 0;
#X connect 3 0 1 0;
#X connect 4 0 5 0;
#X connect 4 1 11 1;
#X connect 5 0 9 0;
#X connect 6 0 10 0;
#X connect 7 0 8 1;
#X connect 7 0 29 0;
#X connect 8 0 31 0;
#X connect 8 1 12 0;
#X connect 9 1 35 0;
#X connect 10 0 11 0;
#X connect 10 1 7 0;
#X connect 11 0 8 0;
#X connect 12 0 30 1;
#X connect 12 1 18 1;
#X connect 13 0 3 0;
#X connect 14 0 15 0;
#X connect 15 0 16 1;
#X connect 16 0 32 0;
#X connect 17 0 33 1;
#X connect 18 0 34 1;
#X connect 19 0 21 0;
#X connect 20 0 22 0;
#X connect 23 0 37 0;
#X connect 24 0 23 0;
#X connect 25 0 14 0;
#X connect 26 0 27 0;
#X connect 26 7 25 0;
#X connect 27 0 16 1;
#X connect 28 0 7 1;
#X connect 29 0 7 1;
#X connect 30 0 16 0;
#X connect 31 0 30 0;
#X connect 31 1 17 1;
#X connect 32 0 17 0;
#X connect 32 1 18 0;
#X connect 33 0 19 0;
#X connect 34 0 20 0;
#X connect 35 0 36 0;
#X connect 35 1 6 0;
#X connect 35 2 28 0;
#X connect 36 0 33 0;
#X connect 36 1 34 0;
#X connect 37 0 26 0;
