#N canvas 1 56 1362 685 10;
#X declare -path ../../../core;
#X declare -path ../../../core/stuff;
#X declare -path ../../../core/rj;
#N canvas 125 279 1102 474 audio_stuff 0;
#X obj 198 52 inlet~;
#X obj 311 291 outlet~;
#X obj 406 291 outlet~;
#X obj 359 48 inlet~;
#X obj 598 98 r \$0-wet;
#X obj 491 212 *;
#X obj 499 188 t f f;
#X text 498 10 in;
#X text 547 10 predelay;
#X text 621 9 bandwidth;
#X text 700 8 damping;
#X text 804 7 gain;
#X obj 408 72 r \$0-predel;
#X obj 553 45 r \$0-bandwidth;
#X obj 715 46 r \$0-damping;
#X obj 720 73 r \$0-fbgain;
#X obj 311 264 c_cpfade;
#X obj 405 266 c_cpfade;
#X obj 451 234 f;
#X obj 310 119 fx_dattorroverb/dattorroplate;
#X connect 0 0 16 0;
#X connect 0 0 19 0;
#X connect 3 0 17 0;
#X connect 3 0 19 0;
#X connect 4 0 6 0;
#X connect 5 0 18 0;
#X connect 6 0 5 0;
#X connect 6 1 5 1;
#X connect 12 0 19 1;
#X connect 13 0 19 2;
#X connect 14 0 19 3;
#X connect 15 0 19 4;
#X connect 16 0 1 0;
#X connect 17 0 2 0;
#X connect 18 0 16 2;
#X connect 18 0 17 2;
#X connect 19 0 16 1;
#X connect 19 1 17 1;
#X restore 110 298 pd audio_stuff;
#X obj 456 480 loadbang;
#N canvas 228 198 627 317 LICENSE-BSD 0;
#X text 121 56 This software is copyrighted by Miller Puckette \, Reality
Jockey Ltd. and others. The terms (the "Standard Improved BSD License")
apply to all files associated with the software unless explicitly disclaimed
in individual files.;
#X text 123 148 See the file LICENSE.txt for the full license text.
;
#X restore 563 420 pd LICENSE-BSD;
#X obj 249 537 u_dispatch \$0 wet;
#X obj 108 264 inlet~;
#X obj 205 265 inlet~;
#X obj 112 340 outlet~;
#X obj 205 344 outlet~;
#X obj 308 265 inlet data;
#X obj 308 287 outlet data;
#X obj 249 448 u_dispatch \$0 predel;
#X obj 249 471 u_dispatch \$0 bandwidth;
#X obj 249 493 u_dispatch \$0 damping;
#X obj 249 514 u_dispatch \$0 fbgain;
#X msg 456 500 predel 30 \, bandwidth 0.6 \, damping 0.25 \, fbgain
0.8 \, wet 0.5;
#X text 57 43 dattorro algorithm : http://tre.ucsd.edu/wordpress/?p=625
;
#X text 58 20 high quality vanilia reverb using;
#X obj 101 101 cnv 15 188 68 \$0-background \$0-background-rcv fx_dattorroverb-0
0 7 0 14 -262144 -1 0;
#X obj 100 115 ui_vs \$0 predel 0 200;
#X obj 138 115 ui_vs \$0 bandwidth 0 1;
#X obj 176 115 ui_vs \$0 damping 0 1;
#X obj 214 115 ui_vs \$0 fbgain 0 1;
#X obj 252 115 ui_vs \$0 wet 0 1;
#X obj 261 396 module_loader fx_dattorroverb \$0 \$1;
#X obj 1231 279 namecanvas \$0-this;
#X obj 1229 256 triggered_loadbang \$0-this;
#X text 1224 206 manually trigger loadbang if the instance of abstraction
is created dynamically, f 29;
#X obj 491 350 savestate;
#X obj 804 33 declare -path ../../../core;
#X obj 804 53 declare -path ../../../core/stuff;
#X obj 804 73 declare -path ../../../core/rj;
#X connect 0 0 6 0;
#X connect 0 1 7 0;
#X connect 1 0 14 0;
#X connect 4 0 0 0;
#X connect 5 0 0 1;
#X connect 8 0 9 0;
#X connect 8 0 23 0;
#X connect 10 0 11 0;
#X connect 11 0 12 0;
#X connect 12 0 13 0;
#X connect 13 0 3 0;
#X connect 14 0 10 0;
#X connect 23 0 10 0;
#X connect 23 1 27 0;
#X connect 27 0 23 1;
#X connect 27 1 23 2;
#X coords 0 -1 1 1 190 70 1 100 100;
