#N canvas 0 57 1920 1023 10;
#X msg 38 100 set \$1;
#X text 232 279 Xunits/pixel Yunits/px gop xfrom yfrom xto yto width
heught xmargin ymargin;
#X obj 199 90 t f b;
#X obj 76 188 * 100;
#X obj 78 209 + 100;
#X msg 218 314 donecanvasdialog 1 -1 1 0 0 1 1 190 70 100 \$1 \, dirty
0;
#X msg 225 154 donecanvasdialog 1 -1 0 0 0 1 1 190 70 100 \$1;
#X obj 227 128 f 100;
#X obj 168 40 r \$1-guitab;
#X obj 37 138 s \$1-guitab-rcv;
#X obj 272 443 s \$1-multitab;
#X text 524 144 momentary disable Graph on Parent to force redrawing
in parent canvas;
#X text 582 313 re-enable graph on parent with new values;
#X obj 73 245 pipe 10;
#X text 535 399 https://github.com/pure-data/pure-data/pull/753;
#X text 474 446 A workaround is to use coords messages and send map
messages to displayed parent. but it is very difficult to use a 100%
vanilla solution without iemguts/sendcanvas;
#X text 474 419 that prevents from using donecanvasdialog message with
earler pd versions;
#X text 478 378 There is a Bug with pd < 0.5-1 and zoom = 2;
#X connect 0 0 9 0;
#X connect 2 0 3 0;
#X connect 2 1 7 0;
#X connect 3 0 4 0;
#X connect 4 0 7 1;
#X connect 4 0 13 0;
#X connect 5 0 10 0;
#X connect 6 0 10 0;
#X connect 7 0 6 0;
#X connect 8 0 0 0;
#X connect 8 0 2 0;
#X connect 13 0 5 0;
