#N canvas 713 56 671 498 10;
#X obj 68 130 fx_resonator;
#A saved lpfreq 20000;
#A saved fdback 0.99;
#A saved wet 1;
#A saved SID 0;
#X text 15 49 de type karpus strong je crois (piqué dans integralive)
;
#X text 11 325 les note on/off sont reçues sur le data_inlet ou bien
par l'objet [notein] en mode midi_omni;
#X text 46 24 effet de résonateur 8 circuits (commandé par notes
midi);
#X msg 24 399 aftertouch <noteid> pitchshift <value>;
#X text 19 371 Messages Aftertouch pris en charge :;
#X text 22 435 TODO : Aftertouch pour varier feedback;
#N canvas 0 50 450 300 noise~ 0;
#X obj 90 102 noise~;
#X obj 150 102 noise~;
#X obj 92 134 *~ 0.2;
#X obj 82 193 outlet~;
#X obj 152 203 outlet~;
#X obj 152 134 *~ 0.2;
#X connect 0 0 2 0;
#X connect 1 0 5 0;
#X connect 2 0 3 0;
#X connect 5 0 4 0;
#X restore 66 82 pd noise~;
#X obj 65 280 dac~;
#N canvas 0 50 450 300 vol 0;
#X obj 103 125 hsl 128 15 0 100 0 0 empty empty -100_dB 50 -8 0 10
-204800 -1 -1 0 1;
#X obj 99 145 dbtorms;
#X obj 99 168 lop~ 1;
#X obj 44 53 inlet~;
#X obj 94 53 inlet~;
#X obj 49 257 outlet~;
#X obj 114 257 outlet~;
#X obj 39 209 *~;
#X obj 69 209 *~;
#X obj 184 175 - 100;
#X msg 184 198 label \$1_dB;
#X connect 0 0 1 0;
#X connect 0 0 9 0;
#X connect 1 0 2 0;
#X connect 2 0 8 1;
#X connect 2 0 7 1;
#X connect 3 0 7 0;
#X connect 4 0 8 0;
#X connect 7 0 5 0;
#X connect 8 0 6 0;
#X connect 9 0 10 0;
#X connect 10 0 0 0;
#X coords 0 -1 1 1 133 40 1 100 100;
#X restore 64 223 pd vol;
#X msg 468 29 note 64 100;
#X msg 466 64 note 67 100;
#X msg 467 95 note 70 100;
#X msg 562 24 note 64 0;
#X msg 560 59 note 67 0;
#X msg 561 90 note 70 0;
#X msg 433 237 \; pd dsp 1;
#X msg 435 364 aftertouch 67 pitchshift \$1;
#X obj 460 315 hsl 128 15 -12 12 0 0 empty empty pitchshift -2 -8 0
10 -262144 -1 -1 3500 1;
#X floatatom 457 335 5 0 0 0 - - -;
#X connect 0 0 9 0;
#X connect 0 1 9 1;
#X connect 7 0 0 0;
#X connect 7 1 0 1;
#X connect 9 0 8 0;
#X connect 9 1 8 1;
#X connect 10 0 0 2;
#X connect 11 0 0 2;
#X connect 12 0 0 2;
#X connect 13 0 0 2;
#X connect 14 0 0 2;
#X connect 15 0 0 2;
#X connect 17 0 0 2;
#X connect 18 0 17 0;
#X connect 18 0 19 0;
