#N canvas 60 56 678 587 10;
#X declare -path ../../../core;
#X declare -path ../../../core/stuff;
#X declare -path ../../../core/rj;
#X obj 191 51 makenote 100 100;
#N canvas 145 50 577 652 random 0;
#X obj 100 99 select 1;
#X obj 100 35 inlet;
#X obj 174 203 * 200;
#X obj 174 231 t a a;
#X obj 449 409 outlet;
#X obj 174 144 random 4;
#X obj 174 169 + 1;
#X obj 174 268 delay;
#X obj 100 60 t a a;
#X obj 340 192 spigot 1;
#X obj 100 479 outlet;
#X obj 259 473 outlet;
#X obj 100 332 t b b b;
#X obj 269 39 inlet;
#X obj 449 380 - 1;
#X obj 259 367 random 40;
#X obj 259 387 + 40;
#X obj 100 451 m_majorscale 48;
#X obj 100 375 random 16;
#X connect 0 0 5 0;
#X connect 1 0 8 0;
#X connect 2 0 3 0;
#X connect 3 0 7 0;
#X connect 3 0 12 0;
#X connect 3 1 14 0;
#X connect 5 0 6 0;
#X connect 6 0 2 0;
#X connect 7 0 9 0;
#X connect 8 0 0 0;
#X connect 8 1 9 1;
#X connect 9 0 5 0;
#X connect 12 0 18 0;
#X connect 12 2 15 0;
#X connect 13 0 2 1;
#X connect 14 0 4 0;
#X connect 15 0 16 0;
#X connect 16 0 11 0;
#X connect 17 0 10 0;
#X connect 18 0 17 0;
#X restore 214 11 pd random notes;
#X obj 376 10 notein;
#X obj 368 78 pack f f;
#N canvas 0 50 926 929 pool 0;
#X obj 90 412 inlet~;
#X obj 238 410 inlet~;
#X obj 160 766 outlet~;
#X obj 230 766 outlet~;
#X obj 246 18 inlet;
#X obj 566 96 s \$0-channel;
#X obj 570 60 param_bridge \$0 fdback;
#X obj 570 40 param_bridge \$0 lpfreq;
#X obj 580 10 r \$0-hold;
#N canvas 970 183 798 692 poly_messages[8][1] 0;
#X obj 185 253 route add remove;
#X msg 177 369 \$1 1;
#X obj 179 328 select 0;
#X obj 181 277 t f f;
#X obj 179 350 f;
#X obj 283 393 select 0;
#X obj 285 342 t f f;
#X obj 285 441 f;
#X msg 283 468 \$1 0;
#X obj 282 414 t b;
#X obj 177 481 *;
#X obj 194 442 != 0;
#X obj 149 432 t f f;
#X obj 108 480 pack f f;
#X obj 109 523 route 0;
#X msg 97 559 \$1 remove;
#X msg 167 558 \$2 add;
#X msg 110 501 \$2 \$1;
#X obj 177 38 list split 2;
#X obj 179 63 list split 1;
#X obj 182 212 list prepend;
#X obj 182 234 list trim;
#X obj 514 460 list append;
#X obj 429 355 list split 1;
#X obj 551 359 t f f;
#X obj 466 410 list prepend;
#X obj 470 432 route 0;
#X obj 105 577 outlet;
#X obj 466 496 f;
#X obj 466 454 t b a;
#X obj 465 522 t f f;
#X obj 460 603 list prepend;
#X obj 85 -11 inlet;
#X obj 83 11 route stop clear;
#X msg 82 36 stop;
#X msg 130 33 clear;
#X obj 175 187 mod 100000;
#X obj 370 111 table \$0-poly_mapping 100000;
#X obj 180 308 tabread \$0-poly_mapping;
#X obj 176 521 tabwrite \$0-poly_mapping;
#X obj 551 384 tabread \$0-poly_mapping;
#X obj 148 404 poly 8 1;
#X obj 284 373 tabread \$0-poly_mapping;
#X text 371 69 from fid_abs/fid_multiplex;
#X text 89 404 \$1 ->;
#X obj 179 86 * 100;
#X obj 179 109 int;
#X obj 475 563 / 100;
#X connect 0 0 3 0;
#X connect 0 1 6 0;
#X connect 0 2 23 0;
#X connect 1 0 41 0;
#X connect 2 0 4 0;
#X connect 3 0 38 0;
#X connect 3 1 4 1;
#X connect 4 0 1 0;
#X connect 5 1 9 0;
#X connect 6 0 42 0;
#X connect 6 1 7 1;
#X connect 7 0 8 0;
#X connect 8 0 41 0;
#X connect 9 0 7 0;
#X connect 10 0 39 0;
#X connect 11 0 10 1;
#X connect 12 0 13 0;
#X connect 12 1 10 0;
#X connect 13 0 17 0;
#X connect 14 0 15 0;
#X connect 14 1 16 0;
#X connect 15 0 27 0;
#X connect 16 0 27 0;
#X connect 17 0 14 0;
#X connect 18 0 19 0;
#X connect 18 1 22 1;
#X connect 19 0 45 0;
#X connect 19 1 20 1;
#X connect 20 0 21 0;
#X connect 21 0 0 0;
#X connect 22 0 27 0;
#X connect 23 0 25 0;
#X connect 23 1 24 0;
#X connect 24 0 40 0;
#X connect 24 1 28 1;
#X connect 25 0 26 0;
#X connect 26 0 29 0;
#X connect 26 1 22 0;
#X connect 28 0 30 0;
#X connect 29 0 28 0;
#X connect 29 1 31 1;
#X connect 30 0 47 0;
#X connect 30 1 1 0;
#X connect 31 0 23 0;
#X connect 32 0 33 0;
#X connect 33 0 34 0;
#X connect 33 1 35 0;
#X connect 33 2 18 0;
#X connect 34 0 41 0;
#X connect 35 0 41 0;
#X connect 36 0 20 0;
#X connect 38 0 2 0;
#X connect 40 0 25 1;
#X connect 41 0 12 0;
#X connect 41 1 39 1;
#X connect 41 2 11 0;
#X connect 41 2 13 1;
#X connect 42 0 5 0;
#X connect 45 0 46 0;
#X connect 46 0 36 0;
#X connect 47 0 31 0;
#X restore 376 377 pd poly_messages[8][1];
#X obj 92 445 clone -x -s 1 fx_resonator/resonator 8 \$0-channel;
#X msg 332 90 \$2 \$1;
#X obj 363 112 route 0;
#X msg 330 147 \$1 \$1 0 \, \$1 remove;
#X msg 443 148 \$2 add \, \$2 add \, \$2 \$2 \$1;
#X obj 443 242 list split 1;
#X obj 445 270 list append aftertouch;
#X obj 445 293 list append;
#X obj 445 316 list trim;
#X obj 775 35 inlet aftertouch;
#X msg 513 347 stop;
#X msg 430 422 all stop;
#X obj 557 403 r \$0-stop;
#X connect 0 0 10 0;
#X connect 1 0 10 1;
#X connect 4 0 11 0;
#X connect 6 0 5 0;
#X connect 7 0 6 0;
#X connect 9 0 10 2;
#X connect 10 0 2 0;
#X connect 10 1 3 0;
#X connect 11 0 12 0;
#X connect 12 0 13 0;
#X connect 12 1 14 0;
#X connect 13 0 9 0;
#X connect 14 0 9 0;
#X connect 15 0 16 0;
#X connect 15 1 17 1;
#X connect 16 0 17 0;
#X connect 17 0 18 0;
#X connect 18 0 9 0;
#X connect 19 0 15 0;
#X connect 20 0 9 0;
#X connect 21 0 10 2;
#X connect 22 0 21 0;
#X restore 95 322 pd pool;
#X obj 68 366 c_xfade;
#X obj 141 365 c_xfade;
#X obj 253 377 r \$0-wet;
#X obj 441 373 u_dispatch \$0 wet;
#X obj 417 411 u_dispatch \$0 fdback;
#X obj 417 431 u_dispatch \$0 lpfreq;
#X obj 243 202 tgl 40 0 \$0-hold \$0-hold-rcv HOLD 5 7 0 10 -261234
-1 -1 0 1;
#X obj 419 453 u_parameter \$0 hold;
#X obj 398 137 spigot;
#X text 301 216 <- ?;
#X obj 374 41 spigot;
#X obj 419 483 u_parameter \$0 midiNoteIn;
#X obj 440 8 r \$0-midiNoteIn;
#X obj 114 231 inlet~;
#X obj 22 229 inlet~;
#X obj 54 401 outlet~;
#X obj 141 387 outlet~;
#X obj 515 37 inlet data;
#X obj 515 120 outlet data;
#X obj 101 101 cnv 15 188 68 \$0-background \$0-background-rcv fx_resonator-0
0 7 0 14 -262144 -1 0;
#X obj 420 345 module_loader fx_resonator \$0 \$1;
#X obj 138 115 ui_vsl \$0 lpfreq 100 20000;
#X obj 176 115 ui_vs \$0 wet 0 1;
#X obj 100 115 ui_vs \$0 fdback 0.6 0.99;
#X obj 218 116 bng 15 50 30 0 empty empty midi 17 7 0 10 -262144 -1
-1;
#X obj 214 101 tgl 15 0 \$0-midiNoteIn \$0-midiNoteIn-rcv midiNoteIn
17 7 0 10 -262144 -1 -1 0 1;
#X obj 384 109 unpack f f;
#X obj 651 279 namecanvas \$0-this;
#X obj 649 256 triggered_loadbang \$0-this;
#X text 644 206 manually trigger loadbang if the instance of abstraction
is created dynamically, f 29;
#X obj 551 289 savestate;
#X obj 488 75 route note aftertouch;
#X obj 309 286 list prepend aftertouch;
#X obj 309 309 list trim;
#X obj 245 128 bng 40 250 50 0 \$0-stop empty STOP 2 20 0 15 -258113
-1 -1;
#X obj 804 33 declare -path ../../../core;
#X obj 804 53 declare -path ../../../core/stuff;
#X obj 804 73 declare -path ../../../core/rj;
#X connect 1 0 0 0;
#X connect 1 1 0 1;
#X connect 1 2 0 2;
#X connect 2 0 15 0;
#X connect 2 1 3 1;
#X connect 3 0 31 0;
#X connect 3 0 4 2;
#X connect 4 0 5 1;
#X connect 4 1 6 1;
#X connect 5 0 20 0;
#X connect 6 0 21 0;
#X connect 7 0 6 2;
#X connect 7 0 5 2;
#X connect 8 0 9 0;
#X connect 9 0 10 0;
#X connect 10 0 12 0;
#X connect 12 0 16 0;
#X connect 13 0 29 0;
#X connect 15 0 3 0;
#X connect 17 0 15 1;
#X connect 18 0 4 1;
#X connect 18 0 6 0;
#X connect 19 0 4 0;
#X connect 19 0 5 0;
#X connect 22 0 23 0;
#X connect 22 0 25 0;
#X connect 22 0 36 0;
#X connect 25 0 8 0;
#X connect 25 1 35 0;
#X connect 31 0 13 0;
#X connect 31 1 13 1;
#X connect 35 0 25 1;
#X connect 35 1 25 2;
#X connect 36 0 31 0;
#X connect 36 0 4 2;
#X connect 36 1 4 3;
#X connect 37 0 38 0;
#X coords 0 -1 1 1 190 70 1 100 100;
