#N canvas 0 57 1920 1023 10;
#N canvas 292 56 987 586 del 0;
#X obj 164 87 inlet~;
#X obj 290 86 inlet~;
#X obj 291 117 vd~ \$0-del1;
#X obj 399 86 inlet;
#X obj 189 187 outlet~;
#X obj 583 82 inlet;
#X msg 411 291 0.998849;
#X obj 290 186 lop~ 10000;
#X obj 399 123 clip -1 1;
#X obj 164 261 delwrite~ \$0-del1 500;
#X obj 484 100 block~ 8;
#X obj 290 148 *~ 0.85;
#X msg 665 106 clear;
#X obj 673 77 inlet;
#X connect 0 0 9 0;
#X connect 0 0 4 0;
#X connect 1 0 2 0;
#X connect 2 0 11 0;
#X connect 3 0 8 0;
#X connect 5 0 7 1;
#X connect 7 0 9 0;
#X connect 8 0 11 1;
#X connect 11 0 4 0;
#X connect 11 0 7 0;
#X connect 12 0 9 0;
#X connect 13 0 12 0;
#X restore 156 465 pd del;
#X obj 302 272 r \$0-delay;
#N canvas 0 50 586 367 conversions 0;
#X obj 50 85 swap 1000;
#X obj 50 115 /;
#X text 133 84 delay time can be set as frequency as well.;
#X obj 50 144 s \$0-delay;
#X obj 50 56 r \$0-freq;
#X obj 46 195 r \$0-pitch;
#X obj 46 221 mtof;
#X obj 46 246 s \$0-freq;
#X connect 0 0 1 0;
#X connect 0 1 1 1;
#X connect 1 0 3 0;
#X connect 4 0 0 0;
#X connect 5 0 6 0;
#X connect 6 0 7 0;
#X restore 583 619 pd conversions;
#X obj 322 356 vline~;
#X msg 322 333 \$1 5;
#X obj 190 411 s \$0-freq;
#X obj 192 331 unpack f f;
#X obj 324 485 line~;
#X obj 165 581 *~;
#X msg 377 478 \$1 200;
#X obj 225 601 *~;
#X obj 366 419 select 0;
#X msg 372 447 0;
#N canvas 0 50 987 586 del 0;
#X obj 164 87 inlet~;
#X obj 290 86 inlet~;
#X obj 399 86 inlet;
#X obj 189 187 outlet~;
#X obj 583 82 inlet;
#X msg 411 291 0.998849;
#X obj 290 186 lop~ 10000;
#X obj 399 123 clip -1 1;
#X obj 484 100 block~ 8;
#X obj 290 148 *~ 0.85;
#X obj 291 117 vd~ \$0-del2;
#X obj 164 261 delwrite~ \$0-del2 500;
#X msg 665 106 clear;
#X obj 673 77 inlet;
#X connect 0 0 3 0;
#X connect 0 0 11 0;
#X connect 1 0 10 0;
#X connect 2 0 7 0;
#X connect 4 0 6 1;
#X connect 6 0 11 0;
#X connect 7 0 9 1;
#X connect 9 0 6 0;
#X connect 9 0 3 0;
#X connect 10 0 9 0;
#X connect 12 0 11 0;
#X connect 13 0 12 0;
#X restore 226 465 pd del;
#X obj 382 356 vline~;
#X msg 382 333 \$1 5;
#X obj 391 307 * 1.01;
#X obj 179 386 mtof;
#X obj 324 383 t f;
#X obj 429 384 t f;
#X obj 100 643 outlet~;
#X obj 210 643 outlet~;
#X obj 28 133 inlet~;
#X obj 88 123 inlet~;
#X obj 559 25 r \$1;
#X obj 157 24 inlet;
#X msg 414 451 0.1;
#X obj 580 334 route fdback lpfreq;
#X obj 465 495 delay 200;
#X obj 466 578 switch~;
#X msg 420 562 0;
#X obj 485 435 t b b b;
#X msg 474 465 stop;
#X msg 526 518 1;
#X obj 259 282 +;
#X obj 236 86 route pitchshift;
#X obj 428 521 t b b;
#X obj 157 47 route list aftertouch stop;
#X msg 301 159 0;
#X connect 0 0 8 0;
#X connect 1 0 4 0;
#X connect 1 0 16 0;
#X connect 3 0 0 1;
#X connect 4 0 3 0;
#X connect 6 0 17 0;
#X connect 6 0 34 1;
#X connect 6 1 11 0;
#X connect 7 0 8 1;
#X connect 7 0 10 1;
#X connect 8 0 20 0;
#X connect 9 0 7 0;
#X connect 10 0 21 0;
#X connect 11 0 12 0;
#X connect 11 0 28 0;
#X connect 11 1 31 0;
#X connect 12 0 9 0;
#X connect 13 0 10 0;
#X connect 14 0 13 1;
#X connect 15 0 14 0;
#X connect 16 0 15 0;
#X connect 17 0 5 0;
#X connect 18 0 0 2;
#X connect 18 0 13 2;
#X connect 19 0 0 3;
#X connect 19 0 13 3;
#X connect 22 0 0 0;
#X connect 23 0 13 0;
#X connect 24 0 27 0;
#X connect 25 0 37 0;
#X connect 26 0 9 0;
#X connect 27 0 18 0;
#X connect 27 1 19 0;
#X connect 28 0 36 0;
#X connect 30 0 29 0;
#X connect 31 0 26 0;
#X connect 31 1 32 0;
#X connect 31 2 33 0;
#X connect 32 0 28 0;
#X connect 33 0 29 0;
#X connect 34 0 17 0;
#X connect 35 0 34 0;
#X connect 36 0 30 0;
#X connect 36 1 13 4;
#X connect 36 1 0 4;
#X connect 37 0 6 0;
#X connect 37 1 35 0;
#X connect 37 2 38 0;
#X connect 38 0 11 0;
