#N canvas 22 601 450 300 12;
#X obj 52 36 inlet;
#X obj 66 223 outlet;
#X obj 136 223 outlet;
#X obj 206 223 outlet;
#X obj 276 223 outlet;
#X obj 348 223 outlet;
#N canvas 0 23 1920 955 \$0-hidio_wacom 1;
#X obj 46 120 hidio;
#X obj 48 520 outlet;
#N canvas 88 160 1920 955 mapping 1;
#X obj 15 526 outlet;
#X obj 72 25 inlet;
#X obj 74 58 route absolute button;
#X obj 62 131 route x y pressure;
#X msg 93 184 \$2;
#X msg 59 153 \$2;
#X msg 123 213 \$2;
#X floatatom 123 231 5 0 0 0 - - -;
#X floatatom 63 178 5 0 0 0 - - -;
#X floatatom 93 202 5 0 0 0 - - -;
#X text 153 173 10208;
#X text 160 197 7424;
#X text 162 233 512;
#X text 155 152 max;
#X obj 5 209 * 0.100313;
#X obj 35 238 * 0.137931;
#X obj 151 491 * 2;
#X obj 125 106 route button_0 button_1 button_10 button_11 button_12
;
#X text 207 133 stylet / gomme / contact / button1 / button2;
#X obj 136 307 f;
#X msg 557 246 \$2;
#X msg 307 232 \$2;
#X obj 307 250 * 2;
#X msg 345 233 \$2;
#X obj 345 251 * 4;
#X obj 325 266 t b f;
#X obj 304 287 +;
#X obj 199 309 +;
#X obj 198 281 t b f;
#X obj 13 492 f;
#X obj 136 325 t b f;
#X obj 194 336 t b f;
#X msg 207 191 1;
#X msg 242 192 2;
#X obj 86 524 outlet;
#X obj 146 524 outlet;
#X obj 216 524 outlet;
#X obj 286 524 outlet;
#X obj 678 41 inlet absolute_x;
#X obj 806 38 inlet absolute_y;
#X obj 678 66 t b f;
#X obj 678 116 /;
#X obj 809 69 t b f;
#X obj 809 119 /;
#X msg 678 91 1023;
#X msg 809 94 1023;
#X obj 540 324 *;
#X obj 557 271 t b f;
#X obj 508 272 change;
#X text 734 185 correction stylet defectueux;
#X obj 258 375 -;
#X obj 324 375 - 512;
#X obj 252 480 max 0;
#X obj 256 434 * 2;
#X floatatom 281 354 5 0 0 0 - - -;
#X obj 324 400 / -512;
#X obj 256 409 * 1;
#X obj 578 191 r \$1-hysteresis;
#X obj 281 329 r \$1-hysteresis;
#X obj 508 247 > 0;
#X connect 1 0 2 0;
#X connect 2 0 3 0;
#X connect 2 1 17 0;
#X connect 3 0 5 0;
#X connect 3 1 4 0;
#X connect 3 2 6 0;
#X connect 4 0 9 0;
#X connect 4 0 15 0;
#X connect 5 0 8 0;
#X connect 5 0 14 0;
#X connect 6 0 7 0;
#X connect 6 0 50 0;
#X connect 6 0 59 0;
#X connect 14 0 29 0;
#X connect 15 0 34 0;
#X connect 16 0 35 0;
#X connect 17 0 32 0;
#X connect 17 1 33 0;
#X connect 17 2 20 0;
#X connect 17 3 21 0;
#X connect 17 4 23 0;
#X connect 19 0 30 0;
#X connect 20 0 47 0;
#X connect 21 0 22 0;
#X connect 22 0 26 0;
#X connect 23 0 24 0;
#X connect 24 0 25 0;
#X connect 25 0 26 0;
#X connect 25 1 26 1;
#X connect 26 0 28 0;
#X connect 27 0 31 0;
#X connect 28 0 27 0;
#X connect 28 1 27 1;
#X connect 29 0 0 0;
#X connect 30 0 29 0;
#X connect 30 1 36 0;
#X connect 31 0 29 0;
#X connect 31 1 37 0;
#X connect 32 0 19 0;
#X connect 33 0 19 0;
#X connect 38 0 40 0;
#X connect 39 0 42 0;
#X connect 39 0 43 0;
#X connect 39 0 45 0;
#X connect 40 0 44 0;
#X connect 40 1 41 1;
#X connect 41 0 14 1;
#X connect 42 0 45 0;
#X connect 42 1 43 1;
#X connect 43 0 15 1;
#X connect 44 0 41 0;
#X connect 45 0 43 0;
#X connect 46 0 27 0;
#X connect 47 0 46 0;
#X connect 47 1 46 1;
#X connect 48 0 46 0;
#X connect 50 0 56 0;
#X connect 51 0 55 0;
#X connect 52 0 16 0;
#X connect 53 0 52 0;
#X connect 55 0 56 1;
#X connect 56 0 53 0;
#X connect 57 0 59 1;
#X connect 58 0 50 1;
#X connect 58 0 51 0;
#X connect 58 0 54 0;
#X connect 59 0 48 0;
#X restore 50 473 pd mapping;
#X text 111 107 name of vendor + device;
#X obj 118 520 outlet;
#X obj 178 520 outlet;
#X obj 248 520 outlet;
#X obj 318 520 outlet;
#X text 47 12 linux mapper for wintablet behaviour;
#X obj 74 80 cnv 15 150 30 empty empty empty 20 12 0 14 -257985 -66577
0;
#X obj 401 253 ggee/shell;
#N canvas 0 50 450 300 commandes_terminal 0;
#X text 82 180 xinput float 16;
#X text 82 200 xinput float 17;
#X text 65 86 xinput -list;
#X text 85 245 xinput reattach 16 2;
#X text 83 264 xinput reattach 17 2;
#X text 176 118 Wacom Graphire4 4x5 Pen stylus;
#X text 176 138 Wacom Graphire4 4x5 Pen eraser;
#X text 36 70 1) lister peripheriques;
#X text 48 114 2) rechercher;
#X text 42 162 3) desactiver;
#X text 45 224 4) reactiver;
#X text 9 13 source : https://www.security-helpzone.com/2016/05/23/gnu-linux-debian-desactiver-un-composant-hardware-clavier-souris-sous-linux/
, f 62;
#X restore 588 622 pd commandes_terminal;
#X text 522 220 Disable wacom as mouse device;
#X msg 89 382 device not found;
#X msg 109 351 info;
#X msg 13 50 devices;
#X msg 400 227 xinput -list;
#X obj 401 285 list split 2;
#X obj 440 315 list trim;
#X obj 440 374 list split 3;
#X obj 457 415 list trim;
#X obj 88 182 select 0 1;
#X obj 217 222 route absolute;
#X obj 217 247 route x y;
#X msg 217 272 \$2;
#X msg 244 297 \$2;
#X obj 110 274 delay 1;
#X msg 81 51 info;
#X obj 128 240 spigot 1;
#X msg 142 325 0;
#X obj 176 322 delay 1000;
#X msg 176 347 1;
#X obj 110 301 t b b b;
#X obj 414 339 cnv 15 150 30 empty empty empty 20 12 0 14 -257985 -66577
0;
#X obj 440 344 route Wacom;
#X obj 87 414 print data_wintablet;
#X msg 311 137 close;
#X text 19 650 https://forum.pdpatchrepo.info/topic/10570/receive-pd-console-data
;
#X obj 784 172 tgl 50 0 empty empty device_opened 17 7 0 10 -262144
-1 -1 1 1;
#X obj 215 189 route range device product;
#X obj 309 303 list prepend set;
#X obj 314 334 list trim;
#X obj 509 82 cnv 15 150 30 empty empty empty 20 12 0 14 -257985 -66577
0;
#X msg 694 120 Wacom Graphire4 4x5 Pen;
#X obj 725 386 ggee/shell;
#X msg 724 360 xinput -list;
#X obj 725 411 print;
#X obj 448 458 route eraser stylus cursor pad;
#N canvas 0 50 450 300 shell(xinput_float_\$1) 0;
#X obj 132 25 inlet;
#X obj 139 147 list fromsymbol;
#X obj 130 72 list split 1;
#X obj 140 177 list split 3;
#X obj 178 204 list tosymbol;
#X msg 184 296 xinput float \$1;
#X obj 180 329 ggee/shell;
#X connect 0 0 2 0;
#X connect 1 0 3 0;
#X connect 2 0 1 0;
#X connect 3 1 4 0;
#X connect 4 0 5 0;
#X connect 5 0 6 0;
#X restore 447 495 pd shell(xinput_float_\$1);
#N canvas 0 50 450 300 shell(xinput_float_\$1) 0;
#X obj 132 25 inlet;
#X obj 139 147 list fromsymbol;
#X obj 130 72 list split 1;
#X obj 140 177 list split 3;
#X obj 178 204 list tosymbol;
#X msg 184 296 xinput float \$1;
#X obj 180 329 ggee/shell;
#X connect 0 0 2 0;
#X connect 1 0 3 0;
#X connect 2 0 1 0;
#X connect 3 1 4 0;
#X connect 4 0 5 0;
#X connect 5 0 6 0;
#X restore 495 520 pd shell(xinput_float_\$1);
#N canvas 0 50 450 300 shell(xinput_float_\$1) 0;
#X obj 132 25 inlet;
#X obj 139 147 list fromsymbol;
#X obj 130 72 list split 1;
#X obj 140 177 list split 3;
#X obj 178 204 list tosymbol;
#X msg 184 296 xinput float \$1;
#X obj 180 329 ggee/shell;
#X connect 0 0 2 0;
#X connect 1 0 3 0;
#X connect 2 0 1 0;
#X connect 3 1 4 0;
#X connect 4 0 5 0;
#X connect 5 0 6 0;
#X restore 543 547 pd shell(xinput_float_\$1);
#N canvas 0 50 450 300 shell(xinput_float_\$1) 0;
#X obj 132 25 inlet;
#X obj 139 147 list fromsymbol;
#X obj 130 72 list split 1;
#X obj 140 177 list split 3;
#X obj 178 204 list tosymbol;
#X msg 184 296 xinput float \$1;
#X obj 180 329 ggee/shell;
#X connect 0 0 2 0;
#X connect 1 0 3 0;
#X connect 2 0 1 0;
#X connect 3 1 4 0;
#X connect 4 0 5 0;
#X connect 5 0 6 0;
#X restore 608 576 pd shell(xinput_float_\$1);
#X text 464 435 disable tablet in OS;
#X obj 331 3 r \$1-busy;
#X msg 218 84 devices;
#X obj 329 31 select 1 0;
#X obj 89 152 route open devices;
#X text 507 727 Wacom Graphire4 4x5 Pen /dev/input/event19;
#X msg 302 77 clear;
#N canvas 0 50 450 300 fill_wacom_pens_&_pads_list 0;
#X obj 34 21 inlet;
#X obj 80 67 list split 1;
#X obj 125 105 list fromsymbol;
#X obj 134 273 list tosymbol;
#X obj 128 134 list split 5;
#X obj 173 181 list split 15;
#X obj 212 214 list split 3;
#X obj 132 243 list append;
#X obj 54 306 list prepend;
#X obj 54 331 list trim;
#X obj 54 356 route WacomPen WacomPad;
#X obj 49 387 t f b;
#X msg 92 404 1e+09;
#X obj 206 389 t f b;
#X msg 249 406 1e+09;
#X obj 40 428 text insert \$1-pens;
#X obj 196 429 text insert \$1-pads;
#X connect 0 0 1 0;
#X connect 1 0 8 0;
#X connect 1 1 2 0;
#X connect 2 0 4 0;
#X connect 3 0 8 1;
#X connect 4 0 7 0;
#X connect 4 1 5 0;
#X connect 5 1 6 0;
#X connect 6 0 7 1;
#X connect 7 0 3 0;
#X connect 8 0 9 0;
#X connect 9 0 10 0;
#X connect 10 0 11 0;
#X connect 10 1 13 0;
#X connect 11 0 15 0;
#X connect 11 1 12 0;
#X connect 12 0 15 1;
#X connect 13 0 16 0;
#X connect 13 1 14 0;
#X connect 14 0 16 1;
#X restore 130 598 pd fill_wacom_pens_&_pads_list;
#X obj 354 74 text define \$1-pads;
#X obj 300 97 text define \$1-pens;
#X obj 902 189 r \$1-device_id;
#X obj 921 296 text get \$1-pens;
#X msg 789 307 open \$1 \, 1;
#X obj 273 439 s \$1-select_device-rcv;
#X obj 902 214 pipe f 100;
#X msg 871 409 open \$1 \, 1;
#X obj 870 357 text get \$1-pads;
#X obj 871 434 hidio;
#X msg 279 403 color -1 -1 16;
#X msg 265 367 color -1 -1 13;
#X obj 871 484 route wheel;
#X obj 958 486 route button_5 button_6;
#X obj 871 459 route relative button;
#X msg 1016 253 22;
#X obj 921 321 route bang;
#X obj 863 383 route bang;
#X obj 875 566 s \$1-pad_data;
#X obj 1142 90 t f b;
#X obj 1145 64 pipe f 100;
#X obj 1112 165 +;
#X obj 1112 185 mod;
#X msg 1106 141 1;
#X floatatom 1168 130 5 0 0 0 - - -;
#X obj 1152 183 + 1;
#X msg 1179 153 label .\$1.;
#X obj 1032 27 r \$1-select_device;
#X obj 1145 46 r \$1-device_id;
#X obj 1168 113 text size \$1-pens;
#X obj 1193 174 s \$1-select_device-rcv;
#X obj 1101 211 s \$1-device_id;
#X obj 176 213 bng 15 250 50 0 empty empty empty 17 7 0 10 -262144
-1 -1;
#X obj 131 33 r \$1-refresh_devices;
#X obj 268 40 t b b;
#X obj 508 41 print wintablet;
#X msg 483 11 refreshing devices list... \, done.;
#X msg 279 472 label;
#X msg 858 518 pad_wheel \$2;
#X msg 959 517 pad_button_r \$2;
#X msg 1039 540 pad_button_l \$2;
#X obj 759 50 r \$1-hidio_pen;
#X obj 819 80 r \$1-hidio_pad;
#X connect 0 0 2 0;
#X connect 0 1 56 0;
#X connect 2 0 1 0;
#X connect 2 1 4 0;
#X connect 2 2 5 0;
#X connect 2 3 6 0;
#X connect 2 4 7 0;
#X connect 10 0 17 0;
#X connect 13 0 35 0;
#X connect 14 0 0 0;
#X connect 15 0 0 0;
#X connect 16 0 10 0;
#X connect 17 1 18 0;
#X connect 18 0 34 0;
#X connect 19 1 20 0;
#X connect 20 0 47 0;
#X connect 21 0 13 0;
#X connect 21 0 71 0;
#X connect 21 0 92 0;
#X connect 21 1 28 0;
#X connect 21 1 70 0;
#X connect 22 0 23 0;
#X connect 23 0 24 0;
#X connect 23 1 25 0;
#X connect 24 0 2 1;
#X connect 25 0 2 2;
#X connect 26 0 32 0;
#X connect 27 0 0 0;
#X connect 28 0 26 0;
#X connect 29 0 28 1;
#X connect 30 0 31 0;
#X connect 31 0 28 1;
#X connect 32 0 14 0;
#X connect 32 1 29 0;
#X connect 32 1 30 0;
#X connect 32 2 16 0;
#X connect 34 0 19 0;
#X connect 36 0 0 0;
#X connect 39 0 22 0;
#X connect 39 2 40 0;
#X connect 40 0 41 0;
#X connect 41 0 43 0;
#X connect 44 0 46 0;
#X connect 45 0 44 0;
#X connect 47 0 48 0;
#X connect 47 1 49 0;
#X connect 47 2 50 0;
#X connect 47 3 51 0;
#X connect 53 0 55 0;
#X connect 54 0 0 0;
#X connect 55 0 94 0;
#X connect 55 1 36 0;
#X connect 56 0 21 0;
#X connect 56 0 38 0;
#X connect 56 1 59 0;
#X connect 56 2 39 0;
#X connect 58 0 60 0;
#X connect 58 0 61 0;
#X connect 62 0 66 0;
#X connect 63 0 76 0;
#X connect 64 0 0 0;
#X connect 66 0 63 0;
#X connect 66 0 68 0;
#X connect 67 0 69 0;
#X connect 68 0 77 0;
#X connect 69 0 74 0;
#X connect 70 0 65 0;
#X connect 71 0 65 0;
#X connect 72 0 98 0;
#X connect 73 0 99 0;
#X connect 73 1 100 0;
#X connect 74 0 72 0;
#X connect 74 1 73 0;
#X connect 75 0 63 0;
#X connect 76 1 64 0;
#X connect 77 1 67 0;
#X connect 79 0 81 1;
#X connect 79 0 85 0;
#X connect 79 1 89 0;
#X connect 80 0 79 0;
#X connect 81 0 82 0;
#X connect 82 0 91 0;
#X connect 83 0 81 0;
#X connect 85 0 86 0;
#X connect 86 0 90 0;
#X connect 87 0 83 0;
#X connect 88 0 80 0;
#X connect 89 0 82 1;
#X connect 89 0 84 0;
#X connect 93 0 94 0;
#X connect 94 0 54 0;
#X connect 94 1 58 0;
#X connect 94 1 96 0;
#X connect 96 0 95 0;
#X connect 97 0 65 0;
#X connect 98 0 78 0;
#X connect 99 0 78 0;
#X connect 100 0 78 0;
#X connect 101 0 2 0;
#X connect 102 0 74 0;
#X restore 166 149 pd \$0-hidio_wacom;
#X obj 37 120 s \$1-select_device;
#X connect 0 0 7 0;
#X connect 6 0 1 0;
#X connect 6 1 2 0;
#X connect 6 2 3 0;
#X connect 6 3 4 0;
#X connect 6 4 5 0;
