#N struct 6109-symarray float x array symbols 6109-sym;
#N struct 6109-sym symbol name float on;
#N struct text-help-struct float x float y text z;
#N canvas 518 181 1055 621 16;
#X declare -stdpath extra/zexy/;
#X declare -stdpath extra/hcs/;
#X declare -lib iemlib/iemlib1;
#X declare -lib iemlib/iemlib2;
#X declare -lib zexy;
#X declare -lib iemlib;
#X declare -path iemlib;
#X declare -path iemguts;
#X declare -path ../ressources/modules/;
#X declare -path ../ressources/core/;
#X declare -path ../ressources/rj/;
#X declare -path ../ressources/core/fid_abs_vanilia-0.4/;
#X declare -path pdr/modules/basic;
#X obj 42 261 PdRacks.settings;
#X obj 42 88 audio_in;
#X obj 42 178 fx_ring;
#X obj 239 88 data_azerty2midi;
#X obj 239 178 inst_8bits;
#X obj 601 177 inst_euclidrums;
#X obj 601 257 audio_out;
#X obj 795 97 audio_in;
#X obj 795 177 fx_compressor;
#X obj 795 257 audio_out;
#X scalar text-help-struct 40 380 \; audio_out-3 slot 13 \\\; audio_out-3
pan 0 \\\; audio_out-3 mute 0 \\\; audio_out-3 vol 110.931 \\\; audio_out-3
out OUT(1/2) \\\; data_azerty2midi-0 az-qw 1 \\\; data_azerty2midi-0
slot 12 \\\; data_azerty2midi-0 enable 1 \\\; data_azerty2midi-0 oct
4 \\\; data_azerty2midi-0 velo 100 \\\; \;;
#X scalar text-help-struct 40 420 \; audio_out-3 slot 14 \\\; audio_out-3
pan 0 \\\; audio_out-3 mute 0 \\\; audio_out-3 vol 110.931 \\\; audio_out-3
out OUT(1/2) \\\; inst_rhodey-0 slot 13 \\\; inst_rhodey-0 vol 95.3796
\\\; inst_rhodey-0 tone 0.432653 \\\; inst_rhodey-0 decay 2449.16 \\\;
data_azerty2midi-0 az-qw 1 \\\; data_azerty2midi-0 slot 12 \\\; data_azerty2midi-0
enable 1 \\\; data_azerty2midi-0 oct 4 \\\; data_azerty2midi-0 velo
100 \\\; \;;
#X scalar text-help-struct 40 460 \; audio_out-3 slot 13 \\\; audio_out-3
pan 0 \\\; audio_out-3 mute 0 \\\; audio_out-3 vol 110.931 \\\; audio_out-3
out OUT(1/2) \\\; data_azerty2midi-0 az-qw 1 \\\; data_azerty2midi-0
slot 12 \\\; data_azerty2midi-0 enable 1 \\\; data_azerty2midi-0 oct
4 \\\; data_azerty2midi-0 velo 100 \\\; \;;
#X scalar text-help-struct 40 500 \; audio_out-3 slot 14 \\\; audio_out-3
pan 0 \\\; audio_out-3 mute 0 \\\; audio_out-3 vol 110.931 \\\; audio_out-3
out OUT(1/2) \\\; inst_rhodey-0 slot 13 \\\; inst_rhodey-0 vol 95.3796
\\\; inst_rhodey-0 tone 0.432653 \\\; inst_rhodey-0 decay 2449.16 \\\;
data_azerty2midi-0 az-qw 1 \\\; data_azerty2midi-0 slot 12 \\\; data_azerty2midi-0
enable 1 \\\; data_azerty2midi-0 oct 4 \\\; data_azerty2midi-0 velo
100 \\\; \;;
#X scalar text-help-struct 40 540 \; audio_out-3 slot 14 \\\; audio_out-3
pan 0 \\\; audio_out-3 mute 0 \\\; audio_out-3 vol 110.931 \\\; audio_out-3
out OUT(1/2) \\\; inst_rhodey-0 slot 13 \\\; inst_rhodey-0 vol 95.3796
\\\; inst_rhodey-0 tone 0.432653 \\\; inst_rhodey-0 decay 2449.16 \\\;
data_azerty2midi-0 az-qw 1 \\\; data_azerty2midi-0 slot 12 \\\; data_azerty2midi-0
enable 1 \\\; data_azerty2midi-0 oct 4 \\\; data_azerty2midi-0 velo
100 \\\; \;;
#X scalar text-help-struct 80 380 \; audio_out-3 slot 13 \\\; audio_out-3
pan 0 \\\; audio_out-3 mute 0 \\\; audio_out-3 vol 110.931 \\\; audio_out-3
out OUT(1/2) \\\; data_azerty2midi-0 az-qw 1 \\\; data_azerty2midi-0
slot 12 \\\; data_azerty2midi-0 enable 1 \\\; data_azerty2midi-0 oct
4 \\\; data_azerty2midi-0 velo 100 \\\; \;;
#X scalar text-help-struct 80 460 \; audio_out-3 slot 13 \\\; audio_out-3
pan 0 \\\; audio_out-3 mute 0 \\\; audio_out-3 vol 110.931 \\\; audio_out-3
out OUT(1/2) \\\; data_azerty2midi-0 az-qw 1 \\\; data_azerty2midi-0
slot 12 \\\; data_azerty2midi-0 enable 1 \\\; data_azerty2midi-0 oct
4 \\\; data_azerty2midi-0 velo 100 \\\; \;;
#X scalar text-help-struct 120 380 \; audio_out-3 slot 13 \\\; audio_out-3
pan 0 \\\; audio_out-3 mute 0 \\\; audio_out-3 vol 110.931 \\\; audio_out-3
out OUT(1/2) \\\; data_azerty2midi-0 az-qw 1 \\\; data_azerty2midi-0
slot 12 \\\; data_azerty2midi-0 enable 1 \\\; data_azerty2midi-0 oct
4 \\\; data_azerty2midi-0 velo 100 \\\; \;;
#X scalar text-help-struct 120 500 \; audio_out-3 slot 13 \\\; audio_out-3
pan 0 \\\; audio_out-3 mute 0 \\\; audio_out-3 vol 110.931 \\\; audio_out-3
out OUT(1/2) \\\; data_azerty2midi-0 az-qw 1 \\\; data_azerty2midi-0
slot 12 \\\; data_azerty2midi-0 enable 1 \\\; data_azerty2midi-0 oct
4 \\\; data_azerty2midi-0 velo 100 \\\; \;;
#X scalar text-help-struct 160 420 \; audio_out-3 slot 13 \\\; audio_out-3
pan 0 \\\; audio_out-3 mute 0 \\\; audio_out-3 vol 110.931 \\\; audio_out-3
out OUT(1/2) \\\; data_azerty2midi-0 az-qw 1 \\\; data_azerty2midi-0
slot 12 \\\; data_azerty2midi-0 enable 1 \\\; data_azerty2midi-0 oct
4 \\\; data_azerty2midi-0 velo 100 \\\; \;;
#X scalar text-help-struct 160 540 \; audio_out-3 slot 13 \\\; audio_out-3
pan 0 \\\; audio_out-3 mute 0 \\\; audio_out-3 vol 110.931 \\\; audio_out-3
out OUT(1/2) \\\; data_azerty2midi-0 az-qw 1 \\\; data_azerty2midi-0
slot 12 \\\; data_azerty2midi-0 enable 1 \\\; data_azerty2midi-0 oct
4 \\\; data_azerty2midi-0 velo 100 \\\; \;;
#X scalar text-help-struct 240 420 \; audio_out-3 slot 14 \\\; audio_out-3
pan 0 \\\; audio_out-3 mute 0 \\\; audio_out-3 vol 110.931 \\\; audio_out-3
out OUT(1/2) \\\; inst_rhodey-0 slot 13 \\\; inst_rhodey-0 vol 95.3796
\\\; inst_rhodey-0 tone 0.432653 \\\; inst_rhodey-0 decay 2449.16 \\\;
data_azerty2midi-0 az-qw 1 \\\; data_azerty2midi-0 slot 12 \\\; data_azerty2midi-0
enable 1 \\\; data_azerty2midi-0 oct 4 \\\; data_azerty2midi-0 velo
100 \\\; \;;
#X scalar text-help-struct 240 460 \; audio_out-3 slot 13 \\\; audio_out-3
pan 0 \\\; audio_out-3 mute 0 \\\; audio_out-3 vol 110.931 \\\; audio_out-3
out OUT(1/2) \\\; data_azerty2midi-0 az-qw 1 \\\; data_azerty2midi-0
slot 12 \\\; data_azerty2midi-0 enable 1 \\\; data_azerty2midi-0 oct
4 \\\; data_azerty2midi-0 velo 100 \\\; \;;
#X scalar text-help-struct 240 500 \; audio_out-3 slot 14 \\\; audio_out-3
pan 0 \\\; audio_out-3 mute 0 \\\; audio_out-3 vol 110.931 \\\; audio_out-3
out OUT(1/2) \\\; inst_rhodey-0 slot 13 \\\; inst_rhodey-0 vol 95.3796
\\\; inst_rhodey-0 tone 0.432653 \\\; inst_rhodey-0 decay 2449.16 \\\;
data_azerty2midi-0 az-qw 1 \\\; data_azerty2midi-0 slot 12 \\\; data_azerty2midi-0
enable 1 \\\; data_azerty2midi-0 oct 4 \\\; data_azerty2midi-0 velo
100 \\\; \;;
#X scalar text-help-struct 240 540 \; audio_out-3 slot 14 \\\; audio_out-3
pan 0 \\\; audio_out-3 mute 0 \\\; audio_out-3 vol 110.931 \\\; audio_out-3
out OUT(1/2) \\\; inst_rhodey-0 slot 13 \\\; inst_rhodey-0 vol 95.3796
\\\; inst_rhodey-0 tone 0.432653 \\\; inst_rhodey-0 decay 2449.16 \\\;
data_azerty2midi-0 az-qw 1 \\\; data_azerty2midi-0 slot 12 \\\; data_azerty2midi-0
enable 1 \\\; data_azerty2midi-0 oct 4 \\\; data_azerty2midi-0 velo
100 \\\; \;;
#X scalar text-help-struct 280 380 \; audio_out-3 slot 13 \\\; audio_out-3
pan 0 \\\; audio_out-3 mute 0 \\\; audio_out-3 vol 110.931 \\\; audio_out-3
out OUT(1/2) \\\; data_azerty2midi-0 az-qw 1 \\\; data_azerty2midi-0
slot 12 \\\; data_azerty2midi-0 enable 1 \\\; data_azerty2midi-0 oct
4 \\\; data_azerty2midi-0 velo 100 \\\; \;;
#X scalar text-help-struct 280 460 \; audio_out-3 slot 13 \\\; audio_out-3
pan 0 \\\; audio_out-3 mute 0 \\\; audio_out-3 vol 110.931 \\\; audio_out-3
out OUT(1/2) \\\; data_azerty2midi-0 az-qw 1 \\\; data_azerty2midi-0
slot 12 \\\; data_azerty2midi-0 enable 1 \\\; data_azerty2midi-0 oct
4 \\\; data_azerty2midi-0 velo 100 \\\; \;;
#X scalar text-help-struct 320 380 \; audio_out-3 slot 13 \\\; audio_out-3
pan 0 \\\; audio_out-3 mute 0 \\\; audio_out-3 vol 110.931 \\\; audio_out-3
out OUT(1/2) \\\; data_azerty2midi-0 az-qw 1 \\\; data_azerty2midi-0
slot 12 \\\; data_azerty2midi-0 enable 1 \\\; data_azerty2midi-0 oct
4 \\\; data_azerty2midi-0 velo 100 \\\; \;;
#X scalar text-help-struct 320 460 \; audio_out-3 slot 13 \\\; audio_out-3
pan 0 \\\; audio_out-3 mute 0 \\\; audio_out-3 vol 110.931 \\\; audio_out-3
out OUT(1/2) \\\; data_azerty2midi-0 az-qw 1 \\\; data_azerty2midi-0
slot 12 \\\; data_azerty2midi-0 enable 1 \\\; data_azerty2midi-0 oct
4 \\\; data_azerty2midi-0 velo 100 \\\; \;;
#X scalar text-help-struct 360 420 \; audio_out-3 slot 14 \\\; audio_out-3
pan 0 \\\; audio_out-3 mute 0 \\\; audio_out-3 vol 110.931 \\\; audio_out-3
out OUT(1/2) \\\; inst_rhodey-0 slot 13 \\\; inst_rhodey-0 vol 95.3796
\\\; inst_rhodey-0 tone 0.432653 \\\; inst_rhodey-0 decay 2449.16 \\\;
data_azerty2midi-0 az-qw 1 \\\; data_azerty2midi-0 slot 12 \\\; data_azerty2midi-0
enable 1 \\\; data_azerty2midi-0 oct 4 \\\; data_azerty2midi-0 velo
100 \\\; \;;
#X scalar text-help-struct 360 460 \; audio_out-3 slot 13 \\\; audio_out-3
pan 0 \\\; audio_out-3 mute 0 \\\; audio_out-3 vol 110.931 \\\; audio_out-3
out OUT(1/2) \\\; data_azerty2midi-0 az-qw 1 \\\; data_azerty2midi-0
slot 12 \\\; data_azerty2midi-0 enable 1 \\\; data_azerty2midi-0 oct
4 \\\; data_azerty2midi-0 velo 100 \\\; \;;
#X scalar text-help-struct 360 500 \; audio_out-3 slot 14 \\\; audio_out-3
pan 0 \\\; audio_out-3 mute 0 \\\; audio_out-3 vol 110.931 \\\; audio_out-3
out OUT(1/2) \\\; inst_rhodey-0 slot 13 \\\; inst_rhodey-0 vol 95.3796
\\\; inst_rhodey-0 tone 0.432653 \\\; inst_rhodey-0 decay 2449.16 \\\;
data_azerty2midi-0 az-qw 1 \\\; data_azerty2midi-0 slot 12 \\\; data_azerty2midi-0
enable 1 \\\; data_azerty2midi-0 oct 4 \\\; data_azerty2midi-0 velo
100 \\\; \;;
#X scalar text-help-struct 360 540 \; audio_out-3 slot 14 \\\; audio_out-3
pan 0 \\\; audio_out-3 mute 0 \\\; audio_out-3 vol 110.931 \\\; audio_out-3
out OUT(1/2) \\\; inst_rhodey-0 slot 13 \\\; inst_rhodey-0 vol 95.3796
\\\; inst_rhodey-0 tone 0.432653 \\\; inst_rhodey-0 decay 2449.16 \\\;
data_azerty2midi-0 az-qw 1 \\\; data_azerty2midi-0 slot 12 \\\; data_azerty2midi-0
enable 1 \\\; data_azerty2midi-0 oct 4 \\\; data_azerty2midi-0 velo
100 \\\; \;;
#X scalar text-help-struct 440 420 \; audio_out-3 slot 14 \\\; audio_out-3
pan 0 \\\; audio_out-3 mute 0 \\\; audio_out-3 vol 110.931 \\\; audio_out-3
out OUT(1/2) \\\; inst_rhodey-0 slot 13 \\\; inst_rhodey-0 vol 95.3796
\\\; inst_rhodey-0 tone 0.432653 \\\; inst_rhodey-0 decay 2449.16 \\\;
data_azerty2midi-0 az-qw 1 \\\; data_azerty2midi-0 slot 12 \\\; data_azerty2midi-0
enable 1 \\\; data_azerty2midi-0 oct 4 \\\; data_azerty2midi-0 velo
100 \\\; \;;
#X scalar text-help-struct 440 460 \; audio_out-3 slot 13 \\\; audio_out-3
pan 0 \\\; audio_out-3 mute 0 \\\; audio_out-3 vol 110.931 \\\; audio_out-3
out OUT(1/2) \\\; data_azerty2midi-0 az-qw 1 \\\; data_azerty2midi-0
slot 12 \\\; data_azerty2midi-0 enable 1 \\\; data_azerty2midi-0 oct
4 \\\; data_azerty2midi-0 velo 100 \\\; \;;
#X scalar text-help-struct 440 500 \; audio_out-3 slot 14 \\\; audio_out-3
pan 0 \\\; audio_out-3 mute 0 \\\; audio_out-3 vol 110.931 \\\; audio_out-3
out OUT(1/2) \\\; inst_rhodey-0 slot 13 \\\; inst_rhodey-0 vol 95.3796
\\\; inst_rhodey-0 tone 0.432653 \\\; inst_rhodey-0 decay 2449.16 \\\;
data_azerty2midi-0 az-qw 1 \\\; data_azerty2midi-0 slot 12 \\\; data_azerty2midi-0
enable 1 \\\; data_azerty2midi-0 oct 4 \\\; data_azerty2midi-0 velo
100 \\\; \;;
#X scalar text-help-struct 480 380 \; audio_out-3 slot 13 \\\; audio_out-3
pan 0 \\\; audio_out-3 mute 0 \\\; audio_out-3 vol 110.931 \\\; audio_out-3
out OUT(1/2) \\\; data_azerty2midi-0 az-qw 1 \\\; data_azerty2midi-0
slot 12 \\\; data_azerty2midi-0 enable 1 \\\; data_azerty2midi-0 oct
4 \\\; data_azerty2midi-0 velo 100 \\\; \;;
#X scalar text-help-struct 520 380 \; audio_out-3 slot 13 \\\; audio_out-3
pan 0 \\\; audio_out-3 mute 0 \\\; audio_out-3 vol 110.931 \\\; audio_out-3
out OUT(1/2) \\\; data_azerty2midi-0 az-qw 1 \\\; data_azerty2midi-0
slot 12 \\\; data_azerty2midi-0 enable 1 \\\; data_azerty2midi-0 oct
4 \\\; data_azerty2midi-0 velo 100 \\\; \;;
#X scalar text-help-struct 480 540 \; audio_out-3 slot 13 \\\; audio_out-3
pan 0 \\\; audio_out-3 mute 0 \\\; audio_out-3 vol 110.931 \\\; audio_out-3
out OUT(1/2) \\\; data_azerty2midi-0 az-qw 1 \\\; data_azerty2midi-0
slot 12 \\\; data_azerty2midi-0 enable 1 \\\; data_azerty2midi-0 oct
4 \\\; data_azerty2midi-0 velo 100 \\\; \;;
#X scalar text-help-struct 520 540 \; audio_out-3 slot 13 \\\; audio_out-3
pan 0 \\\; audio_out-3 mute 0 \\\; audio_out-3 vol 110.931 \\\; audio_out-3
out OUT(1/2) \\\; data_azerty2midi-0 az-qw 1 \\\; data_azerty2midi-0
slot 12 \\\; data_azerty2midi-0 enable 1 \\\; data_azerty2midi-0 oct
4 \\\; data_azerty2midi-0 velo 100 \\\; \;;
#X scalar text-help-struct 560 380 \; audio_out-3 slot 13 \\\; audio_out-3
pan 0 \\\; audio_out-3 mute 0 \\\; audio_out-3 vol 110.931 \\\; audio_out-3
out OUT(1/2) \\\; data_azerty2midi-0 az-qw 1 \\\; data_azerty2midi-0
slot 12 \\\; data_azerty2midi-0 enable 1 \\\; data_azerty2midi-0 oct
4 \\\; data_azerty2midi-0 velo 100 \\\; \;;
#X scalar text-help-struct 560 540 \; audio_out-3 slot 13 \\\; audio_out-3
pan 0 \\\; audio_out-3 mute 0 \\\; audio_out-3 vol 110.931 \\\; audio_out-3
out OUT(1/2) \\\; data_azerty2midi-0 az-qw 1 \\\; data_azerty2midi-0
slot 12 \\\; data_azerty2midi-0 enable 1 \\\; data_azerty2midi-0 oct
4 \\\; data_azerty2midi-0 velo 100 \\\; \;;
#X scalar text-help-struct 640 380 \; audio_out-3 slot 13 \\\; audio_out-3
pan 0 \\\; audio_out-3 mute 0 \\\; audio_out-3 vol 110.931 \\\; audio_out-3
out OUT(1/2) \\\; data_azerty2midi-0 az-qw 1 \\\; data_azerty2midi-0
slot 12 \\\; data_azerty2midi-0 enable 1 \\\; data_azerty2midi-0 oct
4 \\\; data_azerty2midi-0 velo 100 \\\; \;;
#X scalar text-help-struct 640 420 \; audio_out-3 slot 14 \\\; audio_out-3
pan 0 \\\; audio_out-3 mute 0 \\\; audio_out-3 vol 110.931 \\\; audio_out-3
out OUT(1/2) \\\; inst_rhodey-0 slot 13 \\\; inst_rhodey-0 vol 95.3796
\\\; inst_rhodey-0 tone 0.432653 \\\; inst_rhodey-0 decay 2449.16 \\\;
data_azerty2midi-0 az-qw 1 \\\; data_azerty2midi-0 slot 12 \\\; data_azerty2midi-0
enable 1 \\\; data_azerty2midi-0 oct 4 \\\; data_azerty2midi-0 velo
100 \\\; \;;
#X scalar text-help-struct 640 460 \; audio_out-3 slot 13 \\\; audio_out-3
pan 0 \\\; audio_out-3 mute 0 \\\; audio_out-3 vol 110.931 \\\; audio_out-3
out OUT(1/2) \\\; data_azerty2midi-0 az-qw 1 \\\; data_azerty2midi-0
slot 12 \\\; data_azerty2midi-0 enable 1 \\\; data_azerty2midi-0 oct
4 \\\; data_azerty2midi-0 velo 100 \\\; \;;
#X scalar text-help-struct 640 500 \; audio_out-3 slot 14 \\\; audio_out-3
pan 0 \\\; audio_out-3 mute 0 \\\; audio_out-3 vol 110.931 \\\; audio_out-3
out OUT(1/2) \\\; inst_rhodey-0 slot 13 \\\; inst_rhodey-0 vol 95.3796
\\\; inst_rhodey-0 tone 0.432653 \\\; inst_rhodey-0 decay 2449.16 \\\;
data_azerty2midi-0 az-qw 1 \\\; data_azerty2midi-0 slot 12 \\\; data_azerty2midi-0
enable 1 \\\; data_azerty2midi-0 oct 4 \\\; data_azerty2midi-0 velo
100 \\\; \;;
#X scalar text-help-struct 640 540 \; audio_out-3 slot 14 \\\; audio_out-3
pan 0 \\\; audio_out-3 mute 0 \\\; audio_out-3 vol 110.931 \\\; audio_out-3
out OUT(1/2) \\\; inst_rhodey-0 slot 13 \\\; inst_rhodey-0 vol 95.3796
\\\; inst_rhodey-0 tone 0.432653 \\\; inst_rhodey-0 decay 2449.16 \\\;
data_azerty2midi-0 az-qw 1 \\\; data_azerty2midi-0 slot 12 \\\; data_azerty2midi-0
enable 1 \\\; data_azerty2midi-0 oct 4 \\\; data_azerty2midi-0 velo
100 \\\; \;;
#X scalar text-help-struct 720 500 \; audio_out-3 slot 13 \\\; audio_out-3
pan 0 \\\; audio_out-3 mute 0 \\\; audio_out-3 vol 110.931 \\\; audio_out-3
out OUT(1/2) \\\; data_azerty2midi-0 az-qw 1 \\\; data_azerty2midi-0
slot 12 \\\; data_azerty2midi-0 enable 1 \\\; data_azerty2midi-0 oct
4 \\\; data_azerty2midi-0 velo 100 \\\; \;;
#X scalar text-help-struct 760 540 \; audio_out-3 slot 13 \\\; audio_out-3
pan 0 \\\; audio_out-3 mute 0 \\\; audio_out-3 vol 110.931 \\\; audio_out-3
out OUT(1/2) \\\; data_azerty2midi-0 az-qw 1 \\\; data_azerty2midi-0
slot 12 \\\; data_azerty2midi-0 enable 1 \\\; data_azerty2midi-0 oct
4 \\\; data_azerty2midi-0 velo 100 \\\; \;;
#X scalar text-help-struct 720 420 \; audio_out-3 slot 13 \\\; audio_out-3
pan 0 \\\; audio_out-3 mute 0 \\\; audio_out-3 vol 110.931 \\\; audio_out-3
out OUT(1/2) \\\; data_azerty2midi-0 az-qw 1 \\\; data_azerty2midi-0
slot 12 \\\; data_azerty2midi-0 enable 1 \\\; data_azerty2midi-0 oct
4 \\\; data_azerty2midi-0 velo 100 \\\; \;;
#X scalar text-help-struct 760 380 \; audio_out-3 slot 13 \\\; audio_out-3
pan 0 \\\; audio_out-3 mute 0 \\\; audio_out-3 vol 110.931 \\\; audio_out-3
out OUT(1/2) \\\; data_azerty2midi-0 az-qw 1 \\\; data_azerty2midi-0
slot 12 \\\; data_azerty2midi-0 enable 1 \\\; data_azerty2midi-0 oct
4 \\\; data_azerty2midi-0 velo 100 \\\; \;;
#X scalar text-help-struct 680 460 \; audio_out-3 slot 13 \\\; audio_out-3
pan 0 \\\; audio_out-3 mute 0 \\\; audio_out-3 vol 110.931 \\\; audio_out-3
out OUT(1/2) \\\; data_azerty2midi-0 az-qw 1 \\\; data_azerty2midi-0
slot 12 \\\; data_azerty2midi-0 enable 1 \\\; data_azerty2midi-0 oct
4 \\\; data_azerty2midi-0 velo 100 \\\; \;;
#X scalar text-help-struct 120 460 \; audio_out-3 slot 13 \\\; audio_out-3
pan 0 \\\; audio_out-3 mute 0 \\\; audio_out-3 vol 110.931 \\\; audio_out-3
out OUT(1/2) \\\; data_azerty2midi-0 az-qw 1 \\\; data_azerty2midi-0
slot 12 \\\; data_azerty2midi-0 enable 1 \\\; data_azerty2midi-0 oct
4 \\\; data_azerty2midi-0 velo 100 \\\; \;;
#X scalar text-help-struct 840 420 \; audio_out-3 slot 14 \\\; audio_out-3
pan 0 \\\; audio_out-3 mute 0 \\\; audio_out-3 vol 110.931 \\\; audio_out-3
out OUT(1/2) \\\; inst_rhodey-0 slot 13 \\\; inst_rhodey-0 vol 95.3796
\\\; inst_rhodey-0 tone 0.432653 \\\; inst_rhodey-0 decay 2449.16 \\\;
data_azerty2midi-0 az-qw 1 \\\; data_azerty2midi-0 slot 12 \\\; data_azerty2midi-0
enable 1 \\\; data_azerty2midi-0 oct 4 \\\; data_azerty2midi-0 velo
100 \\\; \;;
#X scalar text-help-struct 960 500 \; audio_out-3 slot 14 \\\; audio_out-3
pan 0 \\\; audio_out-3 mute 0 \\\; audio_out-3 vol 110.931 \\\; audio_out-3
out OUT(1/2) \\\; inst_rhodey-0 slot 13 \\\; inst_rhodey-0 vol 95.3796
\\\; inst_rhodey-0 tone 0.432653 \\\; inst_rhodey-0 decay 2449.16 \\\;
data_azerty2midi-0 az-qw 1 \\\; data_azerty2midi-0 slot 12 \\\; data_azerty2midi-0
enable 1 \\\; data_azerty2midi-0 oct 4 \\\; data_azerty2midi-0 velo
100 \\\; \;;
#X scalar text-help-struct 880 380 \; audio_out-3 slot 13 \\\; audio_out-3
pan 0 \\\; audio_out-3 mute 0 \\\; audio_out-3 vol 110.931 \\\; audio_out-3
out OUT(1/2) \\\; data_azerty2midi-0 az-qw 1 \\\; data_azerty2midi-0
slot 12 \\\; data_azerty2midi-0 enable 1 \\\; data_azerty2midi-0 oct
4 \\\; data_azerty2midi-0 velo 100 \\\; \;;
#X scalar text-help-struct 920 380 \; audio_out-3 slot 13 \\\; audio_out-3
pan 0 \\\; audio_out-3 mute 0 \\\; audio_out-3 vol 110.931 \\\; audio_out-3
out OUT(1/2) \\\; data_azerty2midi-0 az-qw 1 \\\; data_azerty2midi-0
slot 12 \\\; data_azerty2midi-0 enable 1 \\\; data_azerty2midi-0 oct
4 \\\; data_azerty2midi-0 velo 100 \\\; \;;
#X scalar text-help-struct 840 540 \; audio_out-3 slot 13 \\\; audio_out-3
pan 0 \\\; audio_out-3 mute 0 \\\; audio_out-3 vol 110.931 \\\; audio_out-3
out OUT(1/2) \\\; data_azerty2midi-0 az-qw 1 \\\; data_azerty2midi-0
slot 12 \\\; data_azerty2midi-0 enable 1 \\\; data_azerty2midi-0 oct
4 \\\; data_azerty2midi-0 velo 100 \\\; \;;
#X scalar text-help-struct 880 540 \; audio_out-3 slot 13 \\\; audio_out-3
pan 0 \\\; audio_out-3 mute 0 \\\; audio_out-3 vol 110.931 \\\; audio_out-3
out OUT(1/2) \\\; data_azerty2midi-0 az-qw 1 \\\; data_azerty2midi-0
slot 12 \\\; data_azerty2midi-0 enable 1 \\\; data_azerty2midi-0 oct
4 \\\; data_azerty2midi-0 velo 100 \\\; \;;
#X scalar text-help-struct 960 380 \; audio_out-3 slot 13 \\\; audio_out-3
pan 0 \\\; audio_out-3 mute 0 \\\; audio_out-3 vol 110.931 \\\; audio_out-3
out OUT(1/2) \\\; data_azerty2midi-0 az-qw 1 \\\; data_azerty2midi-0
slot 12 \\\; data_azerty2midi-0 enable 1 \\\; data_azerty2midi-0 oct
4 \\\; data_azerty2midi-0 velo 100 \\\; \;;
#X scalar text-help-struct 920 540 \; audio_out-3 slot 13 \\\; audio_out-3
pan 0 \\\; audio_out-3 mute 0 \\\; audio_out-3 vol 110.931 \\\; audio_out-3
out OUT(1/2) \\\; data_azerty2midi-0 az-qw 1 \\\; data_azerty2midi-0
slot 12 \\\; data_azerty2midi-0 enable 1 \\\; data_azerty2midi-0 oct
4 \\\; data_azerty2midi-0 velo 100 \\\; \;;
#X scalar text-help-struct 880 460 \; audio_out-3 slot 13 \\\; audio_out-3
pan 0 \\\; audio_out-3 mute 0 \\\; audio_out-3 vol 110.931 \\\; audio_out-3
out OUT(1/2) \\\; data_azerty2midi-0 az-qw 1 \\\; data_azerty2midi-0
slot 12 \\\; data_azerty2midi-0 enable 1 \\\; data_azerty2midi-0 oct
4 \\\; data_azerty2midi-0 velo 100 \\\; \;;
#X scalar text-help-struct 920 460 \; audio_out-3 slot 13 \\\; audio_out-3
pan 0 \\\; audio_out-3 mute 0 \\\; audio_out-3 vol 110.931 \\\; audio_out-3
out OUT(1/2) \\\; data_azerty2midi-0 az-qw 1 \\\; data_azerty2midi-0
slot 12 \\\; data_azerty2midi-0 enable 1 \\\; data_azerty2midi-0 oct
4 \\\; data_azerty2midi-0 velo 100 \\\; \;;
#N canvas 0 50 450 300 racks 0;
#X obj 8 25 pdr;
#N canvas 1 58 1382 809 stuff 0;
#N canvas 350 56 607 453 declare 0;
#X obj 64 293 declare -stdpath extra/zexy/;
#X obj 60 318 declare -stdpath extra/hcs/;
#X obj 272 346 declare -lib iemlib/iemlib1;
#X obj 262 371 declare -lib iemlib/iemlib2;
#X obj 267 399 declare -lib zexy;
#X obj 65 268 declare -lib iemlib;
#X obj 285 239 declare -path iemlib;
#X obj 65 228 declare -path iemguts;
#X obj 386 287 iemlib/iem_receive;
#X obj 66 131 declare -path ../ressources/modules/;
#X obj 66 111 declare -path ../ressources/core/;
#X obj 65 153 declare -path ../ressources/rj/;
#X obj 64 175 declare -path ../ressources/core/fid_abs_vanilia-0.4/
;
#X restore 472 113 pd declare;
#N canvas 251 56 1097 554 mecanisme_sauvegarde_presets_dans_data_structures
0;
#N canvas 327 232 571 382 text-help-struct 0;
#X scalar text-help-struct 20 20 \; a b c d \;;
#X obj 79 230 pointer;
#X obj 22 257 append text-help-struct x y;
#X msg 23 172 20 20;
#X obj 161 24 struct text-help-struct float x float y text z;
#X obj 15 120 drawtext z 16 -3 0;
#X obj 254 142 tgl 15 1 empty empty empty 17 7 0 10 -262144 -1 -1 0
1;
#X obj 13 83 filledpolygon 0 0 0 0 0 0 30 30 30 30 0 0 0;
#X obj 475 124 outlet;
#X msg 79 172 traverse pd-ConduitePresets \, bang;
#X connect 1 0 2 2;
#X connect 3 0 2 0;
#X connect 4 0 8 0;
#X connect 6 0 5 0;
#X connect 9 0 1 0;
#X restore 348 131 pd text-help-struct;
#X text 88 466 bug - saving multi-line texts inside structures;
#N canvas 217 207 1366 685 gestion_conduite 0;
#X msg 476 248 bang;
#X msg 428 248 step;
#X obj 43 20 inlet from data-struct-template;
#X obj 715 365 text set -s text-help-struct z, f 18;
#X obj 878 10 r RJ_SCENE;
#X msg 943 250 0;
#X obj 916 286 f;
#X obj 975 284 + 1;
#X obj 75 361 delay 100;
#X obj 56 419 f;
#X obj 97 300 t b f;
#X obj 73 386 t b b;
#X obj 106 219 f;
#X obj 70 148 t b;
#X obj 70 121 r \$0-save;
#X obj 179 553 pointer;
#X obj 10 586 append text-help-struct x y;
#X obj 54 448 - 15;
#X obj 701 539 delay 100;
#X obj 10 622 t b a;
#X msg 47 509 40 \$1;
#X msg 230 364 editmode 1 \, mouse 40 \$1 0 0 \, mouseup 50 \$1 0;
#X msg 590 318 set \$1;
#X text 148 121 gros bouton rouge;
#X text 746 647 variable globale pour communiquer avec le module rj_808
;
#X text 731 671 a terme il faudra integrer tout ça dans un seul module
;
#X msg 184 422 cut \, editmode 0;
#X text 577 298 voir "creation_dynamique_d'objets";
#X obj 945 194 textfile;
#X obj 739 625 outlet;
#X obj 879 76 list prepend add;
#X obj 915 150 list trim;
#X msg 896 533 clear;
#X obj 736 570 t b b b;
#X obj 817 103 t b;
#X obj 802 141 delay 200;
#X msg 799 165 rewind \, bang;
#X obj 825 268 t b l b;
#X obj 773 211 delay 0;
#X obj 879 233 list;
#X msg 232 242 pos 0 \$1;
#X obj 229 213 f;
#X obj 230 268 s ducon;
#X msg 576 0 \; RJ_SCENE_PRELOAD bang \; RJ_SCENE_RELOAD bang \; RJ_SCENE_LOAD
bang \; RJ_SCENE_POSTLOAD bang \; REFRESH_CONNEXIONS bang;
#X obj 219 154 r SCENE-pos-rcv;
#X obj 215 180 route set;
#X msg 113 512 traverse pd-conduite \, bang;
#X obj 221 463 s pd-conduite;
#X text 404 301 done;
#N canvas 0 50 1089 575 load_scene_frome_datastructures 0;
#X obj 99 11 inlet;
#X obj 107 51 route click;
#X obj 107 76 list split 1;
#X obj 203 106 + 15;
#X obj 116 284 text sequence -s text-help-struct z;
#X text 187 244 rewind;
#X obj 102 101 list trim;
#X obj 100 125 t b a a b;
#X obj 224 517 s RJ_SCENE_LOAD;
#X obj 93 158 t b b;
#X obj 152 213 s RJ_SCENE_RELOAD;
#X msg 202 131 set \$1;
#X msg 115 247 line 0;
#X text 438 526 cf module_declare;
#X obj 152 190 s RJ_SCENE_PRELOAD;
#X obj 426 504 s RJ_SCENE_POSTLOAD;
#X obj 37 223 t b b b b;
#X obj 384 553 s REFRESH_CONNEXIONS;
#X obj 46 196 delay 10;
#X msg 71 260 step;
#X obj 126 312 t b a;
#X obj 21 298 delay 0;
#X obj 416 374 delay 1;
#X obj 397 470 t b b;
#X obj 202 157 s SCENE-pos-rcv;
#X obj 190 411 textfile;
#X obj 194 355 list prepend add;
#X obj 194 380 list trim;
#X msg 336 379 clear;
#X msg 416 399 rewind \, bang;
#X obj 134 497 delay 0;
#X text 472 466 done;
#X text 39 331 ---------------------- découplage dans un textfile
pour éviter crashes avec datastructures------------, f 105;
#X obj 190 436 list;
#X obj 180 466 t b l;
#X connect 0 0 1 0;
#X connect 1 0 2 0;
#X connect 2 0 6 0;
#X connect 2 1 3 0;
#X connect 3 0 11 0;
#X connect 4 0 20 0;
#X connect 4 1 22 0;
#X connect 6 0 7 0;
#X connect 7 0 9 0;
#X connect 7 1 4 1;
#X connect 7 3 28 0;
#X connect 9 0 18 0;
#X connect 9 1 10 0;
#X connect 9 1 14 0;
#X connect 11 0 24 0;
#X connect 12 0 4 0;
#X connect 16 2 19 0;
#X connect 16 3 12 0;
#X connect 18 0 16 0;
#X connect 19 0 4 0;
#X connect 20 0 21 0;
#X connect 20 1 26 0;
#X connect 21 0 19 0;
#X connect 22 0 29 0;
#X connect 23 0 17 0;
#X connect 23 1 15 0;
#X connect 25 0 33 0;
#X connect 25 1 23 0;
#X connect 26 0 27 0;
#X connect 27 0 25 0;
#X connect 28 0 25 0;
#X connect 29 0 25 0;
#X connect 30 0 25 0;
#X connect 33 0 34 0;
#X connect 34 0 30 0;
#X connect 34 1 8 0;
#X restore 44 49 pd load_scene_frome_datastructures;
#X text 296 271 <- le trait horizontal du curseur;
#X obj 66 479 t f b;
#X text 350 463 suppression de l'ancien bloc de scène;
#X text 257 573 création d'un nouveau bloc de scène à la place de
l'ancien;
#X text 1056 198 tous les modules "crachent" les valeurs de leurs paramètres
\, qui sont stockées dans le textfile ci-dessous. à la fin \, celui-ci
est purgé et son contenu est recopié à l'intérieur du champ texte
du bloc de scène nouvellement créé., f 35;
#X obj 547 187 t f b b;
#X obj 878 35 spigot;
#X msg 611 215 1;
#X obj 555 222 delay 2000;
#X msg 555 247 0;
#X connect 2 0 49 0;
#X connect 4 0 56 0;
#X connect 5 0 6 1;
#X connect 6 0 7 0;
#X connect 6 0 3 1;
#X connect 7 0 6 1;
#X connect 8 0 11 0;
#X connect 9 0 17 0;
#X connect 10 0 8 0;
#X connect 10 1 21 0;
#X connect 10 1 9 1;
#X connect 11 0 9 0;
#X connect 11 1 26 0;
#X connect 12 0 55 0;
#X connect 13 0 12 0;
#X connect 14 0 13 0;
#X connect 15 0 16 2;
#X connect 16 0 19 0;
#X connect 17 0 51 0;
#X connect 18 0 33 0;
#X connect 19 0 18 0;
#X connect 19 1 3 3;
#X connect 20 0 16 0;
#X connect 21 0 47 0;
#X connect 26 0 47 0;
#X connect 28 0 39 0;
#X connect 30 0 31 0;
#X connect 30 0 34 0;
#X connect 31 0 28 0;
#X connect 32 0 28 0;
#X connect 33 0 29 0;
#X connect 33 1 5 0;
#X connect 33 2 32 0;
#X connect 34 0 35 0;
#X connect 35 0 36 0;
#X connect 36 0 28 0;
#X connect 37 0 38 0;
#X connect 37 1 3 0;
#X connect 37 2 6 0;
#X connect 38 0 28 0;
#X connect 39 0 37 0;
#X connect 40 0 42 0;
#X connect 41 0 40 0;
#X connect 44 0 45 0;
#X connect 45 0 12 1;
#X connect 45 0 41 0;
#X connect 46 0 15 0;
#X connect 51 0 20 0;
#X connect 51 1 46 0;
#X connect 55 0 10 0;
#X connect 55 1 58 0;
#X connect 55 2 57 0;
#X connect 56 0 30 0;
#X connect 57 0 56 1;
#X connect 58 0 59 0;
#X connect 59 0 56 1;
#X restore 354 172 pd gestion_conduite;
#X obj 546 85 r \$0-load;
#X text 701 152 if the load button is pressed;
#X obj 802 301 r SSSAD_ADMIN;
#X obj 802 356 route persist;
#X obj 802 326 list trim;
#X obj 802 412 list trim;
#X msg 456 219 save;
#X obj 478 424 s SSSAD_ADMIN;
#X obj 802 388 list prepend add SSSAD;
#X msg 500 384 set \, addsemi;
#X msg 456 452 add SSSAD_ADMIN set;
#X obj 528 267 s SSSAD_SAVE;
#X text 540 12 original patch by frank barknecht (sssad);
#X obj 592 491 outlet;
#X obj 514 332 s RJ_SCENE_SAVE;
#X obj 771 198 r RJ_SCENE;
#X obj 771 248 list trim;
#X obj 771 226 list prepend add RJ_SCENE_LOAD;
#X msg 661 281 dirty 1;
#X obj 456 242 t b a b b b b;
#X obj 421 266 t b b;
#X msg 379 321 menusave;
#X obj 377 299 delay 1000;
#X obj 735 125 s RJ_SCENE_RELOAD;
#X obj 550 112 t b b, f 27;
#X obj 621 226 bng 15 250 50 0 empty empty empty 17 7 0 10 -262144
-1 -1;
#X obj 248 428 s pd-conduite;
#X connect 0 0 2 0;
#X connect 2 0 9 0;
#X connect 3 0 27 0;
#X connect 5 0 7 0;
#X connect 6 0 11 0;
#X connect 7 0 6 0;
#X connect 8 0 16 0;
#X connect 9 0 22 0;
#X connect 11 0 8 0;
#X connect 12 0 16 0;
#X connect 13 0 16 0;
#X connect 18 0 20 0;
#X connect 19 0 16 0;
#X connect 20 0 19 0;
#X connect 21 0 29 0;
#X connect 22 0 23 0;
#X connect 22 1 10 0;
#X connect 22 1 17 0;
#X connect 22 2 12 0;
#X connect 22 4 14 0;
#X connect 22 5 21 0;
#X connect 23 0 25 0;
#X connect 23 1 13 0;
#X connect 24 0 29 0;
#X connect 25 0 24 0;
#X connect 27 0 16 0;
#X connect 27 1 26 0;
#X connect 28 0 14 0;
#X restore 473 207 pd mecanisme_sauvegarde_presets_dans_data_structures
;
#N canvas 0 50 681 300 ctlin 0;
#X obj 163 219 s CTLIN;
#X obj 243 81 - 1;
#X obj 243 106 * 128;
#X obj 221 131 +;
#X obj 160 154 pack f f;
#X obj 160 36 ctlin;
#X connect 1 0 2 0;
#X connect 2 0 3 1;
#X connect 3 0 4 1;
#X connect 4 0 0 0;
#X connect 5 0 4 0;
#X connect 5 1 3 0;
#X connect 5 2 1 0;
#X restore 472 14 pd ctlin;
#N canvas 1 56 723 477 midi-setting-saving_with_presets 0;
#X obj 37 188 s pd;
#X msg 41 167 midi-dialog 1 0 0 0 0 0 0 0 0 0 0 0 0 0 0 0 0 0 2 3;
#X obj 536 75 r pd;
#X obj 535 106 route midi-dialog;
#X obj 73 219 r RJ_SCENE_LOAD;
#X obj 68 286 list trim;
#X obj 73 318 route midi-dialog;
#X obj 87 365 list prepend midi-dialog;
#X obj 78 405 list trim;
#X obj 81 434 s pd;
#X obj 509 224 list append;
#X obj 538 146 t b l;
#X obj 470 202 spigot;
#X msg 528 172 1;
#X obj 401 85 r RJ_SCENE_SAVE;
#X obj 471 294 s RJ_SCENE;
#X obj 494 266 list prepend midi-dialog;
#X obj 414 108 t b;
#X obj 333 222 inlet;
#X obj 83 251 spigot;
#X obj 439 143 spigot;
#X connect 1 0 0 0;
#X connect 2 0 3 0;
#X connect 3 0 11 0;
#X connect 4 0 19 0;
#X connect 5 0 6 0;
#X connect 6 0 7 0;
#X connect 7 0 8 0;
#X connect 8 0 9 0;
#X connect 10 0 16 0;
#X connect 11 0 13 0;
#X connect 11 1 10 1;
#X connect 12 0 10 0;
#X connect 13 0 12 1;
#X connect 14 0 17 0;
#X connect 16 0 15 0;
#X connect 17 0 20 0;
#X connect 18 0 19 1;
#X connect 18 0 20 1;
#X connect 19 0 5 0;
#X connect 20 0 12 0;
#X restore 538 174 pd midi-setting-saving_with_presets;
#X obj 589 100 tgl 40 1 empty empty empty 17 7 0 10 -262144 -1 -1 0
1;
#X text 589 146 ENABLE;
#N canvas 1 56 904 300 release_notes 0;
#X text 56 46 26/05 : les affectations de parametres midi sont désormais
dynamiques et sans glitch \, et sont associées à chaque scène.;
#X text 69 123 TO do : cablage dynamique des data_inlet / data_outlet
sans utiliser iem_receive;
#X text 77 173 mode de reprise (comme dans live);
#X restore 581 245 pd release_notes;
#N canvas 323 80 1150 566 remote 0;
#X floatatom 134 75 5 0 0 0 - - -;
#X msg 58 154 \; fx_freeverb-1 remote amp \$1;
#X text 217 37 systématiser l'utilisation du message remote;
#X floatatom 376 76 5 0 0 0 - - -;
#X msg 108 114 \; fx_freeverb-1 remote hall \$1;
#X msg 372 117 \; RJ_SCENE_LOAD fx_freeverb-1 hall \$1;
#X floatatom 379 149 5 0 0 0 - - -;
#X msg 383 169 \; audio_out-0 remote pan \$1;
#X msg 27 251 \; fx_ring-1 midi freq \$1;
#X obj 29 231 hsl 128 15 0 127 0 0 empty empty empty -2 -8 0 10 -262144
-1 -1 0 1;
#X text 54 213 commande midi sans passer par midimappings (ctlassign3)
;
#X obj 41 304 hsl 128 15 0 127 0 0 empty empty empty -2 -8 0 10 -262144
-1 -1 0 1;
#X msg 37 321 \; fx_ring-1 midi-ctl freq \$1;
#X text 277 334 module_loader -> midi_colors;
#X msg 47 421 \; audio_out-3 midi-ctl mute \$1;
#X obj 53 397 tgl 15 0 empty empty empty 17 7 0 10 -262144 -1 -1 0
1;
#X obj 343 397 tgl 15 0 empty empty empty 17 7 0 10 -262144 -1 -1 0
1;
#X msg 337 421 \; audio_out-3 remote mute \$1;
#X text 320 374 modifier directement la valeur dans u_dispatch;
#X text 804 250 OBSOLETE;
#X obj 303 447 tgl 15 0 empty empty empty 17 7 0 10 -262144 -1 -1 0
1;
#X msg 297 471 \; RJ_SCENE_LOAD audio_out-3 mute \$1;
#X text 287 254 module_loader -> ui_vs (tous les ui_vs reçoivent ce
message);
#X text 582 481 tous les modules reçoivent ce message ?;
#X msg 720 42 \; fx_ring-1 get_params foufou;
#X obj 716 69 r foufou;
#X obj 716 99 print foufou;
#X text 715 11 obtenir les range de tous les params d'un module;
#X text 858 85 (implémenté dans ui_vs \, devrat être implémenté
dans midi_colors);
#X connect 0 0 4 0;
#X connect 3 0 5 0;
#X connect 6 0 7 0;
#X connect 9 0 8 0;
#X connect 11 0 12 0;
#X connect 15 0 14 0;
#X connect 16 0 17 0;
#X connect 20 0 21 0;
#X connect 25 0 26 0;
#X restore 717 51 pd remote;
#X msg 684 527 \; RJ_SCENE_PRELOAD bang \; RJ_SCENE_RELOAD bang \;
RJ_SCENE_LOAD bang \; RJ_SCENE_POSTLOAD bang \; REFRESH_CONNEXIONS
bang;
#X obj 731 501 r RESET;
#X obj 640 462 loadbang;
#X obj 640 488 delay 1000;
#X obj 947 443 module_loader main \$0;
#X connect 4 0 3 0;
#X connect 9 0 8 0;
#X connect 10 0 11 0;
#X connect 11 0 8 0;
#X coords 0 809 1 808 360 300 0;
#X restore 6 99 pd stuff;
#N canvas 0 50 450 300 \$0-PdRacks.declare 0;
#X obj 10 10 declare -path pdr/modules/basic;
#X obj 10 60 pdr/core/stuff/u_glocal.enable \$0;
#A saved modules_set # List of modules to load;
#A saved modules_set # you can add new sets of modules here;
#A saved modules_set # (ctrl/cmd + s to save and close);
#A saved modules_set basic;
#X restore 206 3 pd \$0-PdRacks.declare;
#X obj 4 138 PdRacks.savestate;
#A saved scene_name ;
#X coords 0 -1 1 1 1000 550 1 100 100;
#X restore 18 44 pd racks;
#X f 95;
#X connect 1 0 2 0;
#X connect 1 1 2 1;
#X connect 1 2 2 2;
#X connect 3 0 4 0;
#X connect 3 1 4 1;
#X connect 3 2 4 2;
#X connect 5 0 6 0;
#X connect 5 1 6 1;
#X connect 5 2 6 2;
#X connect 7 0 8 0;
#X connect 7 1 8 1;
#X connect 7 2 8 2;
#X connect 8 0 9 0;
#X connect 8 1 9 1;
#X connect 8 2 9 2;
