#N canvas 182 111 1017 762 16;
#X text 44 54 [pdr] is an autocompletion tool that helps you to choose
pdracks modules quickly from a menu list \, sorted by categories,
f 63;
#X obj 274 465 hradio 20 1 1 3 empty empty empty 0 -8 0 10 -4032 -4160
-1 1;
#X text 116 588 * the base categories are effects \, instruments \,
midi \, utils.;
#X text 78 706 For further information \, right-click on pdr and choose
help., f 64;
#X text 49 7 Instead of manually adding declare objects and other modules
in your patch \, you can use the [pdr] helper.;
#X text 40 395 To enter modules using autocompletion mode :;
#X text 152 131 1) turn edit-mode on (ctrl + e);
#X text 44 295 With pdr \, you don't need to turn dsp on \, and to
add [declare] objects. pdr automatically adds the necessary stuff !
, f 64;
#X text 43 220 When created \, pdr automatically adds the needed dependancies
-->, f 64;
#X text 75 250 and adds a new module : PdRacks.savestate ------------------>
, f 61;
#X text 151 165 2) type "pdr" in this box -------------------------->
;
#X obj 685 165;
#X text 73 442 3) enable autocomplete mode for [pdr] by clicking on
second cell of blue hradio;
#X text 77 495 4) move the cursor to a blanck zone in the window and
press [Insert] key or Ctrl/Cmd + i. You get a popup menu.;
#X text 75 539 5) Use <PgUp> and <PgDown> to change category* \, use
vertical arrows to select objects.;
#X text 77 621 6) When you found your object in the menu \, press <Enter>.
The object is created.;
#X text 354 463 in [pdr] box;
#N canvas 428 467 449 247 autoconnect_to_previously_selected_object
0;
#X text 23 37 If you select the just created object and press [Insert]
again \, the new object you are creating will be automatically connected
to the former. (But you can also use the new connect functionnalities
of pd-0.49 : ctrl/cmd + k), f 37;
#X restore 151 674 pd autoconnect_to_previously_selected_object;
#X text 82 242 _____________________________________________________________
, f 61;
