#N canvas 0 58 1920 1023 16;
#X declare -path ./Multisample/utils;
#X declare -path ./Multisample/rj;
#X obj 782 349 route key;
#X msg 427 685 \$2 \$1;
#X obj 59 845 spigot;
#X obj 55 890 unpack f f f f;
#X obj 400 141 vsl 50 395 0 1 0 1 empty \$0-my_speed-rcv SPEED 0 20
0 17 -262144 -1 -1 19700 1;
#X obj 185 960 +;
#X msg 1285 747 \; fromSystem list /tilts 0 0;
#X obj 401 613 s fromGUI;
#X obj 276 557 tgl 15 0 empty empty empty 17 7 0 10 -262144 -1 -1 1
1;
#X obj 148 563 tgl 15 0 empty empty empty 17 7 0 10 -262144 -1 -1 1
1;
#X msg 400 578 /speed1 \$1;
#N canvas 0 50 450 300 || 0;
#X obj 159 64 inlet;
#X obj 276 63 inlet;
#X obj 203 114 t b f;
#X obj 177 149 ||;
#X obj 180 187 outlet;
#X obj 145 106 change;
#X obj 285 103 change;
#X connect 0 0 5 0;
#X connect 1 0 6 0;
#X connect 2 0 3 0;
#X connect 2 1 3 1;
#X connect 3 0 4 0;
#X connect 5 0 3 0;
#X connect 6 0 2 0;
#X restore 471 782 pd ||;
#N canvas 0 50 450 300 || 0;
#X obj 159 64 inlet;
#X obj 276 63 inlet;
#X obj 203 114 t b f;
#X obj 177 149 ||;
#X obj 172 213 outlet;
#X obj 145 106 change;
#X obj 285 103 change;
#X obj 178 183 change;
#X connect 0 0 5 0;
#X connect 1 0 6 0;
#X connect 2 0 3 0;
#X connect 2 1 3 1;
#X connect 3 0 7 0;
#X connect 5 0 3 0;
#X connect 6 0 2 0;
#X connect 7 0 4 0;
#X restore 474 817 pd ||;
#X obj 101 50 hradio 30 1 0 10 empty empty empty 0 -8 0 10 -262144
-4034 -1 7;
#X symbolatom 0 29 40 0 0 0 - - -;
#N canvas 128 75 734 466 gestion_fichiers 0;
#X obj 60 9 receive filemenu;
#X obj 208 46 t b f b f;
#X obj 118 400 s fromGUI;
#X msg 108 355 list /menu1 \$2 \$1;
#X obj 109 313 pack s f;
#X obj 241 9 inlet;
#X obj 402 305 soundfiler;
#X obj 60 128 list split;
#X obj 65 177 list split 1;
#X obj 45 87 list append;
#X obj 111 231 t s s s;
#X obj 527 105 table temp;
#X msg 436 271 read -resize \$1 temp;
#X obj 501 345 outlet;
#X obj 394 215 makefilename inst_multisample/sounds/%s.wav;
#X connect 0 0 9 1;
#X connect 1 0 9 0;
#X connect 1 1 7 1;
#X connect 1 3 4 1;
#X connect 3 0 2 0;
#X connect 4 0 3 0;
#X connect 5 0 1 0;
#X connect 6 0 13 0;
#X connect 7 1 8 0;
#X connect 8 0 10 0;
#X connect 9 0 7 0;
#X connect 10 0 4 0;
#X connect 10 2 14 0;
#X connect 12 0 6 0;
#X connect 14 0 12 0;
#X restore -248 352 pd gestion_fichiers;
#N canvas 0 50 873 668 position 0;
#X obj 83 19 inlet;
#X obj 256 24 inlet key;
#X obj 307 159 select 1 0;
#X msg 203 316 /position1 touch 0 1 \$1 \$2;
#X msg 531 317 /position1 touch 0 0 \$1 \$2;
#X obj 131 493 s fromGUI;
#X obj 208 268 list append 0 0;
#X obj 527 268 list append 0 0;
#X obj 77 121 spigot;
#X msg 78 377 /position1 touch 0 2 \$1 \$2;
#X connect 0 0 8 0;
#X connect 0 0 6 1;
#X connect 0 0 7 1;
#X connect 1 0 8 1;
#X connect 1 0 2 0;
#X connect 2 0 6 0;
#X connect 2 1 7 0;
#X connect 3 0 5 0;
#X connect 4 0 5 0;
#X connect 6 0 3 0;
#X connect 7 0 4 0;
#X connect 8 0 9 0;
#X connect 9 0 5 0;
#X restore -112 964 pd position;
#X obj 3 80 hsl 395 60 0 1 0 0 range-slider empty empty -2 -8 0 10
-262144 -262144 -262144 33700 0;
#X obj 49 80 cnv 5 292 60 empty sel-cnv empty 20 12 0 14 -228856 -228856
0;
#X obj 418 743 route 115 97 113 119 122;
#X obj 189 924 * 2;
#N canvas 0 50 814 410 raccourcis_selection_sample 0;
#X obj 59 22 inlet;
#X obj 60 240 outlet;
#X obj 94 183 moses 10;
#X obj 105 122 - 49;
#X obj 84 150 moses 0;
#X obj 225 149 select 38 233 34 39 40 45 232 95 231 224 48;
#X msg 219 184 0;
#X msg 252 182 1;
#X msg 289 186 2;
#X msg 328 186 3;
#X msg 370 186 4;
#X msg 403 184 5;
#X msg 440 188 6;
#X msg 479 188 7;
#X msg 445 233 8;
#X msg 484 234 9;
#X obj 152 257 f;
#X obj 114 55 list split 1;
#X obj 665 189 route float;
#X obj 664 221 list;
#X connect 0 0 17 0;
#X connect 2 0 16 0;
#X connect 3 0 4 0;
#X connect 4 1 2 0;
#X connect 5 0 6 0;
#X connect 5 1 7 0;
#X connect 5 2 8 0;
#X connect 5 3 9 0;
#X connect 5 4 10 0;
#X connect 5 5 11 0;
#X connect 5 6 12 0;
#X connect 5 7 13 0;
#X connect 5 8 14 0;
#X connect 5 9 15 0;
#X connect 5 10 15 0;
#X connect 5 11 18 0;
#X connect 6 0 16 0;
#X connect 7 0 16 0;
#X connect 8 0 16 0;
#X connect 9 0 16 0;
#X connect 10 0 16 0;
#X connect 11 0 16 0;
#X connect 12 0 16 0;
#X connect 13 0 16 0;
#X connect 14 0 16 0;
#X connect 15 0 16 0;
#X connect 16 0 1 0;
#X connect 17 0 5 0;
#X connect 18 0 19 0;
#X connect 19 0 3 0;
#X restore 649 807 pd raccourcis_selection_sample;
#X obj 1283 714 loadbang;
#N canvas 0 50 450 300 || 0;
#X obj 159 64 inlet;
#X obj 276 63 inlet;
#X obj 203 114 t b f;
#X obj 177 149 ||;
#X obj 172 213 outlet;
#X obj 145 106 change;
#X obj 285 103 change;
#X obj 178 183 change;
#X connect 0 0 5 0;
#X connect 1 0 6 0;
#X connect 2 0 3 0;
#X connect 2 1 3 1;
#X connect 3 0 7 0;
#X connect 5 0 3 0;
#X connect 6 0 2 0;
#X connect 7 0 4 0;
#X restore 475 854 pd ||;
#X obj 109 80 cnv 1 180 60 empty pos-cnv empty 20 12 0 14 -258113 -258113
0;
#N canvas 1276 108 600 598 selection 0;
#X obj 94 52 inlet;
#X obj 396 -17 inlet key;
#X obj 141 98 spigot;
#X obj 90 130 unpack f f f f;
#X obj 99 244 moses;
#X obj 120 188 spigot 1;
#X msg 226 196 0;
#X obj 73 165 t f f;
#X obj 364 114 change;
#X msg 229 168 1;
#X obj 288 172 r 1-sample-duration-ms;
#X obj 293 221 * 44.1;
#X obj 205 329 *;
#X obj 125 331 *;
#X obj 137 388 pack f f;
#X obj 136 441 s fromGUI;
#X obj 135 415 list prepend /sample1-1 range;
#X obj 353 144 select 0;
#X obj 236 144 bng 15 250 50 0 empty empty empty 17 7 0 10 -262144
-1 -1;
#X obj 149 216 t f f b;
#X obj 92 306 f;
#X obj 133 279 t b f;
#X obj 28 436 pack f f;
#X obj 54 373 -;
#X obj 54 399 * -1;
#X obj 25 348 t f f;
#X obj 22 316 * 400;
#X obj 79 337 * 400;
#X obj 28 17 r range-slider;
#X obj 177 31 inlet button;
#X obj 177 56 change;
#X obj 9 570 s sel-cnv;
#X msg 10 540 pos \$1 80 \, vis_size \$2 60;
#N canvas 0 50 450 300 antirebond 0;
#X obj 121 26 inlet;
#X obj 125 260 outlet;
#X obj 128 73 select 1 0;
#X msg 107 143 1;
#X obj 124 108 t f b;
#X msg 185 138 stop;
#X obj 185 167 delay 100;
#X msg 185 196 0;
#X connect 0 0 2 0;
#X connect 2 0 4 0;
#X connect 2 1 6 0;
#X connect 3 0 1 0;
#X connect 4 0 3 0;
#X connect 4 1 5 0;
#X connect 5 0 6 0;
#X connect 6 0 7 0;
#X connect 7 0 1 0;
#X restore 372 60 pd antirebond;
#X connect 0 0 2 0;
#X connect 1 0 33 0;
#X connect 2 0 3 0;
#X connect 3 0 7 0;
#X connect 4 0 20 0;
#X connect 4 1 21 0;
#X connect 5 0 19 0;
#X connect 6 0 5 1;
#X connect 7 0 4 0;
#X connect 7 1 5 0;
#X connect 8 0 2 1;
#X connect 8 0 17 0;
#X connect 9 0 5 1;
#X connect 10 0 11 0;
#X connect 11 0 12 1;
#X connect 11 0 13 1;
#X connect 12 0 14 1;
#X connect 13 0 14 0;
#X connect 14 0 16 0;
#X connect 16 0 15 0;
#X connect 17 0 9 0;
#X connect 17 0 18 0;
#X connect 19 0 4 1;
#X connect 19 1 20 0;
#X connect 19 2 6 0;
#X connect 20 0 13 0;
#X connect 20 0 26 0;
#X connect 21 0 20 0;
#X connect 21 1 12 0;
#X connect 21 1 27 0;
#X connect 22 0 32 0;
#X connect 23 0 24 0;
#X connect 24 0 22 1;
#X connect 25 0 22 0;
#X connect 25 1 23 0;
#X connect 26 0 25 0;
#X connect 27 0 23 1;
#X connect 28 0 3 0;
#X connect 29 0 30 0;
#X connect 30 0 17 0;
#X connect 32 0 31 0;
#X connect 33 0 8 0;
#X restore -118 672 pd selection;
#N canvas 0 50 450 300 affichage_position 1;
#X obj 48 31 r toGUI;
#X obj 52 62 list trim;
#X obj 49 94 route /myLCD-1;
#X obj 49 121 route paintrect;
#X obj 54 154 unpack f f f;
#X obj 103 189 -;
#X obj 54 191 t f f;
#X obj 105 214 * -1;
#X obj 107 236 * 400;
#X obj 45 239 * 400;
#X obj 69 275 pack f f;
#X obj 302 62 inlet;
#X obj 293 96 select 0;
#X obj 127 338 s pos-cnv;
#X msg 71 303 pos \$1 80 \, vis_size \$2 60;
#X msg 223 221 pos 0 80 \, vis_size 0 0;
#X obj 258 158 delay 100;
#X obj 188 170 t b;
#X msg 188 199 stop;
#X connect 0 0 1 0;
#X connect 1 0 2 0;
#X connect 2 0 3 0;
#X connect 3 0 4 0;
#X connect 4 0 6 0;
#X connect 4 2 5 1;
#X connect 4 2 17 0;
#X connect 5 0 7 0;
#X connect 6 0 9 0;
#X connect 6 1 5 0;
#X connect 7 0 8 0;
#X connect 8 0 10 1;
#X connect 9 0 10 0;
#X connect 10 0 14 0;
#X connect 11 0 12 0;
#X connect 12 0 16 0;
#X connect 14 0 13 0;
#X connect 15 0 13 0;
#X connect 16 0 15 0;
#X connect 17 0 18 0;
#X connect 18 0 16 0;
#X restore 449 891 pd affichage_position;
#X text 1015 807 simuler l'accélérometre qui n'existe pas sous OsX
/ win, f 17;
#X obj 805 389 route 1;
#X obj 1040 782 s fromSystem;
#X obj 1040 753 list prepend /tilts;
#X obj 1042 692 line;
#X msg 1043 647 0 200;
#X msg 1042 722 \$1 0;
#X msg 1201 620 0.9 200;
#X msg 1112 650 0.6 200;
#X obj 400 82 vsl 50 55 0 1 0 0 \$0-inv.snd \$0-inv.rcv INV. 2 20 0
20 -250685 -250685 -1 0 0;
#N canvas 850 86 599 384 toogle_invert 0;
#X obj 141 325 s \$0-inv.rcv;
#X obj 201 71 r \$0-inv.snd;
#X msg 143 283 color 10 10 11;
#X msg 346 236 color 19 19 -1;
#X obj 214 158 v \$0-inv;
#X obj 211 124 t b;
#X obj 209 192 == 0;
#X obj 30 229 v \$0-inv;
#X obj 149 244 select 0 1;
#X obj 360 393 s fromGUI;
#X obj 311 341 list prepend /invert1;
#X obj 94 200 t f f f;
#X connect 1 0 5 0;
#X connect 2 0 0 0;
#X connect 3 0 0 0;
#X connect 4 0 6 0;
#X connect 5 0 4 0;
#X connect 6 0 11 0;
#X connect 8 0 2 0;
#X connect 8 1 3 0;
#X connect 10 0 9 0;
#X connect 11 0 7 0;
#X connect 11 1 8 0;
#X connect 11 2 10 0;
#X restore 633 125 pd toogle_invert;
#X obj 1314 623 t b;
#X obj 1287 659 s \$0-inv.snd;
#X text 405 114 (x);
#X text 405 170 (s);
#X text 81 117 ZONE DE TRAVAIL (touche z);
#X text 644 95 Inversion de Marche;
#X obj 1432 620 t b;
#X msg 1428 651 0.5;
#X text 408 326 (c);
#X text 99 53 (1)(2)(3)(4)(5)(6)(7)(8)(9)(0);
#X msg 1284 805 \; pd dsp 1;
#X obj 1032 542 makefilename %c;
#X obj 1050 583 select a q w x c, f 45;
#X obj 802 422 route Control_L Shift_L Shift_R Control_R Win_L ?? Caps_Lock
;
#X obj 400 2 vsl 50 75 1 0 0 1 \$0-vol \$0-vol-rcv VOL 0 20 0 17 -262144
-1 -1 4736 0;
#X msg 901 722 set \$1;
#X msg 946 585 \$1 40;
#X obj 899 642 t f f;
#X obj 919 678 *;
#X obj 920 549 sqrt;
#X text 435 0 a;
#X text 436 24 q;
#X text 436 48 w;
#X obj -257 183 route /menuLabel1;
#X obj -241 224 symbol;
#X obj -227 9 r toGUI;
#X obj -231 43 list trim;
#X obj 0 140 cnv 15 400 400 empty empty empty 20 12 0 14 -204786 -66577
0;
#X floatatom -111 63 5 0 0 0 - - -;
#X obj 901 515 r \$0-vol;
#X obj 901 751 s \$0-vol-rcv;
#X obj 185 989 s \$0-my_speed-rcv;
#X obj 1428 680 s \$0-my_speed-rcv;
#X text 590 770 z;
#N canvas 0 50 450 250 (subpatch) 0;
#X array sample_ 545 float 0;
#X coords 0 1 544 -1 400 60 1 0 0;
#X restore 0 80 graph;
#N canvas 0 50 450 250 (subpatch) 0;
#X array sample 545 float 0;
#X coords 0 1 544 -1 400 60 1 0 0;
#X restore 0 80 graph;
#N canvas 0 50 450 300 affichage_formeonde 0;
#N canvas 0 50 1242 732 compute_enveloppe 0;
#X obj 75 30 inlet;
#X obj 161 103 list;
#X obj 246 119 unpack s s s;
#X obj 112 236 / 1024;
#X msg 101 307 1;
#X obj 39 290 t b b;
#X obj 340 695 f;
#X obj 22 477 tabplay~;
#X msg 181 328 set \$1;
#X obj 104 520 env~;
#X obj 102 448 tabplay~;
#X msg 238 328 set \$1;
#X obj 35 825 array set;
#X obj 30 756 t f b;
#X obj 61 790 f;
#X obj 114 792 + 1;
#X obj 342 792 outlet done;
#X msg 185 679 0;
#X obj 427 562 log;
#X floatatom 427 587 5 0 0 0 - - -;
#X msg 426 460 1;
#X msg 472 461 0.1;
#X obj 102 417 switch~ 1024 1 16;
#X obj 75 133 symbol;
#X obj 98 670 max 0;
#X msg 379 192 symbol \$1_;
#X obj 168 820 array set;
#X obj 163 751 t f b;
#X obj 194 785 f;
#X obj 247 787 + 1;
#X obj 98 695 * -1;
#X obj 95 556 dbtorms;
#X obj 97 641 min 1;
#X msg 520 208 \; sample resize 10;
#X obj 437 272 list append;
#X msg 437 297 \; \$2 resize \$1 \; \$2_ resize \$1;
#X floatatom 106 272 5 0 0 0 - - -;
#X obj 210 168 bng 15 250 50 0 empty empty empty 17 7 0 10 -262144
-1 -1;
#X obj 618 679 list append;
#X obj 340 724 t f b;
#X msg 627 736 \; \$1 normalize \; \$1_ normalize;
#X obj 88 74 route float set;
#X obj 88 99 t b f;
#X obj 69 168 t b s b;
#X connect 0 0 41 0;
#X connect 1 0 2 0;
#X connect 2 0 23 1;
#X connect 2 1 11 0;
#X connect 2 2 12 2;
#X connect 2 2 25 0;
#X connect 2 2 34 1;
#X connect 2 2 38 1;
#X connect 3 0 6 1;
#X connect 3 0 34 0;
#X connect 3 0 36 0;
#X connect 4 0 22 0;
#X connect 5 0 7 0;
#X connect 5 0 10 0;
#X connect 5 1 4 0;
#X connect 6 0 39 0;
#X connect 7 0 9 0;
#X connect 7 1 6 0;
#X connect 8 0 7 0;
#X connect 9 0 31 0;
#X connect 10 0 9 0;
#X connect 11 0 10 0;
#X connect 13 0 12 0;
#X connect 13 1 14 0;
#X connect 14 0 15 0;
#X connect 14 0 12 1;
#X connect 15 0 14 1;
#X connect 17 0 14 1;
#X connect 17 0 28 1;
#X connect 18 0 19 0;
#X connect 20 0 18 0;
#X connect 21 0 18 0;
#X connect 23 0 43 0;
#X connect 24 0 13 0;
#X connect 24 0 30 0;
#X connect 25 0 26 2;
#X connect 27 0 26 0;
#X connect 27 1 28 0;
#X connect 28 0 29 0;
#X connect 28 0 26 1;
#X connect 29 0 28 1;
#X connect 30 0 27 0;
#X connect 31 0 32 0;
#X connect 32 0 24 0;
#X connect 34 0 35 0;
#X connect 38 0 40 0;
#X connect 39 0 16 0;
#X connect 39 1 38 0;
#X connect 41 0 42 0;
#X connect 41 1 1 0;
#X connect 42 0 23 0;
#X connect 42 1 3 0;
#X connect 43 0 5 0;
#X connect 43 1 8 0;
#X connect 43 2 17 0;
#X restore 155 163 pd compute_enveloppe;
#X obj 155 28 loadbang;
#X obj 157 290 s toGUI;
#X obj 155 222 delay 10;
#X msg 156 257 list sample refresh \, list sample_ refresh;
#X msg 193 99 set /sample1-1 /sample1-2 sample;
#X obj 56 96 inlet;
#X connect 0 0 3 0;
#X connect 1 0 5 0;
#X connect 3 0 4 0;
#X connect 4 0 2 0;
#X connect 5 0 0 0;
#X connect 6 0 0 0;
#X restore -242 419 pd affichage_formeonde;
#N canvas 492 239 1308 669 stuff 0;
#X obj 762 235 s RJLIB;
#X msg 762 214 sf-samplerate 44100;
#X obj 757 184 loadbang;
#X obj 213 271 *~;
#X obj 251 271 *~;
#X obj 312 223 line~;
#X obj 251 416 clip~ -1 1;
#X obj 383 421 clip~ -1 1;
#X obj 660 621 s filemenu;
#X obj 696 269 loadbang;
#X obj 694 298 delay 1000;
#X obj 973 66 receive fromSystem;
#X obj 974 159 unpack 0 0;
#X obj 974 185 + 1;
#X obj 1005 185 + 1;
#X obj 1005 210 / 2;
#X obj 974 210 / 2;
#X obj 974 122 route /tilts /shake;
#X obj 973 98 list trim;
#X obj 982 239 pack f f;
#X obj 984 259 list prepend /mixageXY;
#X obj 985 283 s fromGUI;
#X obj 529 54 route /position1;
#X obj 528 73 route touch;
#X obj 530 33 list trim;
#X obj 531 13 r fromGUI;
#X obj 393 101 route 0;
#X obj 408 140 select 0 1 2;
#X msg 564 188 0.9 10;
#X msg 387 268 0 10;
#X obj 529 129 > 0;
#X obj 526 154 select 0 1;
#N canvas 0 50 480 410 mixagelooper1 0;
#X obj 275 18 r fromGUI;
#X obj 273 44 list trim;
#X obj 281 88 route /mixageXY;
#X obj 271 119 unpack f f;
#X obj 328 185 t f f;
#X obj 269 185 t f f;
#X obj 273 214 *;
#X obj 326 212 *;
#X obj 283 244 +;
#X obj 285 277 - 1;
#X obj 284 297 * -100;
#X obj 276 349 line~;
#X msg 284 324 \$1 20;
#X obj 50 388 outlet~;
#X obj 273 159 - 0.5;
#X obj 346 159 - 0.5;
#X obj 123 387 outlet~;
#X obj 39 34 inlet~;
#X obj 116 34 inlet~;
#X obj 102 224 *~;
#X obj 140 224 *~;
#X obj 177 115 dbtorms~;
#X connect 0 0 1 0;
#X connect 1 0 2 0;
#X connect 2 0 3 0;
#X connect 3 0 14 0;
#X connect 3 1 15 0;
#X connect 4 0 7 0;
#X connect 4 1 7 1;
#X connect 5 0 6 0;
#X connect 5 1 6 1;
#X connect 6 0 8 0;
#X connect 7 0 8 1;
#X connect 8 0 9 0;
#X connect 9 0 10 0;
#X connect 10 0 12 0;
#X connect 11 0 21 0;
#X connect 12 0 11 0;
#X connect 14 0 5 0;
#X connect 15 0 4 0;
#X connect 17 0 19 0;
#X connect 18 0 20 0;
#X connect 19 0 13 0;
#X connect 20 0 16 0;
#X connect 21 0 19 1;
#X connect 21 0 20 1;
#X restore 90 94 pd mixagelooper1;
#X msg 451 255 list /myLCD-1 clear;
#X obj 469 298 s toGUI;
#X obj 638 139 s looper1_touch;
#X obj 856 451 textfile;
#X obj 963 538 list;
#X obj 940 355 loadbang;
#X obj 938 384 delay 1000;
#X obj 788 517 delay 1;
#X obj 787 608 list trim;
#X obj 856 485 t b a;
#X obj 785 580 list append;
#X obj 855 538 list prepend;
#X obj 514 446 declare -path ./Multisample/utils;
#X obj 517 466 declare -path ./Multisample/rj;
#X obj 321 29 inlet;
#X obj 309 154 spigot 1;
#X obj 397 24 inlet;
#X floatatom 758 109 5 0 0 0 - - -;
#N canvas 0 50 450 300 compter_nb_events_touch 0;
#X obj 79 27 inlet;
#X obj 84 265 outlet;
#X obj 77 60 list split 2;
#X obj 77 82 unpack f f;
#X obj 147 116 select 0 1;
#X obj 163 229 max 0;
#X msg 134 140 -1;
#X msg 179 138 1;
#X floatatom 121 223 5 0 0 0 - - -;
#X obj 144 199 f;
#X obj 144 174 +;
#X connect 0 0 2 0;
#X connect 2 0 3 0;
#X connect 3 1 4 0;
#X connect 4 0 6 0;
#X connect 4 1 7 0;
#X connect 5 0 1 0;
#X connect 5 0 10 1;
#X connect 6 0 10 0;
#X connect 7 0 10 0;
#X connect 9 0 5 0;
#X connect 9 0 8 0;
#X connect 10 0 9 0;
#X restore 529 102 pd compter_nb_events_touch;
#X obj 67 17 inst_multisample/looper1 1 Speech;
#X msg 945 409 clear \, read inst_multisample/sounds/index.txt cr \,
rewind \, bang;
#X obj 241 474 outlet~;
#X obj 383 450 outlet~;
#X connect 1 0 0 0;
#X connect 2 0 1 0;
#X connect 3 0 6 0;
#X connect 4 0 7 0;
#X connect 5 0 3 1;
#X connect 5 0 4 1;
#X connect 6 0 54 0;
#X connect 7 0 55 0;
#X connect 9 0 10 0;
#X connect 11 0 18 0;
#X connect 12 0 13 0;
#X connect 12 1 14 0;
#X connect 13 0 16 0;
#X connect 14 0 15 0;
#X connect 15 0 19 1;
#X connect 16 0 19 0;
#X connect 17 0 12 0;
#X connect 18 0 17 0;
#X connect 19 0 20 0;
#X connect 20 0 21 0;
#X connect 22 0 23 0;
#X connect 23 0 51 0;
#X connect 24 0 22 0;
#X connect 25 0 24 0;
#X connect 26 0 27 0;
#X connect 27 0 29 0;
#X connect 27 1 28 0;
#X connect 27 2 28 0;
#X connect 28 0 5 0;
#X connect 29 0 48 0;
#X connect 30 0 31 0;
#X connect 31 0 29 0;
#X connect 31 0 33 0;
#X connect 31 1 28 0;
#X connect 32 0 3 0;
#X connect 32 1 4 0;
#X connect 33 0 34 0;
#X connect 36 0 42 0;
#X connect 36 1 43 0;
#X connect 37 0 44 1;
#X connect 38 0 39 0;
#X connect 39 0 53 0;
#X connect 40 0 36 0;
#X connect 41 0 8 0;
#X connect 42 0 40 0;
#X connect 42 1 44 0;
#X connect 43 0 41 0;
#X connect 44 0 37 0;
#X connect 44 0 43 1;
#X connect 47 0 52 0;
#X connect 48 0 5 0;
#X connect 49 0 48 1;
#X connect 51 0 30 0;
#X connect 51 0 35 0;
#X connect 51 0 50 0;
#X connect 52 0 32 0;
#X connect 52 1 32 1;
#X connect 53 0 36 0;
#X restore 974 156 pd stuff;
#X obj 955 205 outlet~;
#X obj 1045 204 outlet~;
#X obj 0 140 inst_multisample/utils/mcnv1 400 400;
#X obj 1519 296 tabwrite~ /sampleExt-1;
#X obj 1561 336 tabwrite~ /sampleExt-2;
#X obj 1622 249 metro 2000;
#X obj 1657 222 bng 15 250 50 0 empty empty empty 17 7 0 10 -262144
-1 -1;
#X obj 1546 99 table /sampleExt-1 88100;
#X obj 1544 131 table /sampleExt-2 81000;
#X obj 1662 197 tgl 15 0 empty empty empty 17 7 0 10 -262144 -1 -1
0 1;
#X msg 1553 66 2000;
#X obj 1517 205 inlet~;
#X obj 1543 234 inlet~;
#X text 1537 25 external recording;
#X connect 0 0 1 0;
#X connect 0 0 28 0;
#X connect 1 0 19 0;
#X connect 2 0 3 0;
#X connect 3 3 20 0;
#X connect 4 0 5 1;
#X connect 4 0 10 0;
#X connect 5 0 69 0;
#X connect 10 0 7 0;
#X connect 11 0 12 0;
#X connect 12 0 23 0;
#X connect 13 0 15 0;
#X connect 13 0 66 0;
#X connect 15 0 74 0;
#X connect 19 0 2 1;
#X connect 19 1 11 0;
#X connect 19 2 11 1;
#X connect 19 3 12 1;
#X connect 19 4 25 2;
#X connect 19 5 21 0;
#X connect 20 0 5 0;
#X connect 21 0 13 0;
#X connect 22 0 6 0;
#X connect 22 0 48 0;
#X connect 23 0 16 1;
#X connect 23 0 26 0;
#X connect 28 0 51 0;
#X connect 30 0 29 0;
#X connect 31 0 33 0;
#X connect 31 0 55 0;
#X connect 32 0 31 0;
#X connect 33 0 30 0;
#X connect 34 0 31 0;
#X connect 35 0 31 0;
#X connect 38 0 39 0;
#X connect 44 0 45 0;
#X connect 45 0 70 0;
#X connect 49 0 50 0;
#X connect 50 0 32 0;
#X connect 50 1 35 0;
#X connect 50 2 34 0;
#X connect 50 3 38 0;
#X connect 50 4 44 0;
#X connect 51 7 49 0;
#X connect 53 0 68 0;
#X connect 54 0 31 0;
#X connect 55 0 56 0;
#X connect 55 1 56 1;
#X connect 56 0 53 0;
#X connect 57 0 54 0;
#X connect 61 0 62 0;
#X connect 62 0 14 0;
#X connect 63 0 64 0;
#X connect 64 0 61 0;
#X connect 67 0 57 0;
#X connect 75 0 76 0;
#X connect 75 1 77 0;
#X connect 78 0 2 0;
#X connect 78 0 16 0;
#X connect 78 0 25 0;
#X connect 78 1 9 0;
#X connect 78 2 8 0;
#X connect 78 2 25 1;
#X connect 78 2 23 1;
#X connect 78 3 0 0;
#X connect 81 0 79 0;
#X connect 81 0 80 0;
#X connect 82 0 81 0;
#X connect 85 0 81 0;
#X connect 86 0 75 0;
#X connect 87 0 79 0;
#X connect 88 0 80 0;
#X coords 0 -1 1 1 450 540 1 0 0;
