#N canvas 0 57 1920 1023 10;
#X declare -path ../../../core;
#X declare -path ../../../core/stuff;
#X declare -path ../../../core/rj;
#X obj 183 396 c_tobus no-out;
#X obj 301 396 c_tobus no-out;
#X obj 585 363 u_dispatch \$0 out;
#X obj 586 342 u_dispatch \$0 vol;
#X obj 586 384 u_parameter \$0 mute;
#X obj 292 607 s \$0-mute;
#X obj 354 517 midi-colors \$0 mute \$0-mute-rcv;
#X obj 412 555 r \$0-mute;
#X obj 316 563 select 1;
#X obj 387 576 f;
#X obj 424 593 == 0;
#X obj 354 544 > 0;
#X obj 588 403 u_parameter \$0 pan;
#X obj 744 132 loadbang;
#X obj 101 101 cnv 15 188 68 \$0-background \$0-background-rcv audio_out-0
0 7 0 14 -262144 -1 0;
#X obj 100 115 ui_vs \$0 vol 0 127;
#X obj 189 124 cnv 2 1 2 empty \$0-vu -100db 20 5 0 10 -24198 -1 0
;
#X text 191 106 dest;
#X obj 138 145 tgl 25 0 \$0-mute \$0-mute-rcv MUTE 2 7 0 10 -261682
-1 -1 0 1;
#X obj 163 145 tgl 25 0 \$0-mono \$0-mono-rcv MONO 2 7 0 10 -262130
-1 -1 0 1;
#X obj 141 125 hsl 45 20 -0.5 0.5 0 0 \$0-pan \$0-pan-rcv PAN 4 10
0 10 -260097 -1 -1 0 1;
#X obj 220 100 u_rollmenu bus_out 0;
#X obj 79 194 list split 1;
#X obj 177 284 unpack s s;
#X obj 26 226 t b s b;
#X obj 28 371 symbol;
#X msg 32 288 1;
#X msg 71 285 0;
#X obj 28 343 spigot 1;
#X obj 14 424 text search bus_out;
#X obj 45 251 s \$0-out;
#X obj 18 313 r \$0-out;
#X obj 476 21 inlet~;
#X obj 476 43 outlet~;
#X obj 323 17 inlet~;
#X obj 338 41 outlet~;
#X obj 586 277 inlet data;
#X obj 582 311 module_loader audio_out \$0 \$1;
#X obj 737 600 outlet data;
#X obj 307 490 midi-colors \$0 pan \$0-pan-rcv -0.5 0.5 lin;
#N canvas 0 57 1920 1023 check_glocal_mode 0;
#X obj 87 17 inlet;
#X obj 93 263 outlet;
#X obj 87 100 t a b;
#X msg 120 223 list \$1-\$2 \$1-\$3;
#X obj 86 182 route 0;
#X obj 86 162 list prepend 0;
#X obj 60 225 list;
#X text 26 299 if glocal.dollarzero == 0 \, we are in global mode \,
else in local mode;
#X obj 87 39 list trim;
#X obj 270 227 list;
#X obj 86 66 route GLOCAL;
#X text 287 127 get dollarzero from (gran)parent patch;
#X text 284 142 if glocal mode is active;
#X obj 105 131 glocal/glocal.dollarzero;
#X connect 0 0 8 0;
#X connect 2 0 5 0;
#X connect 2 1 13 0;
#X connect 3 0 1 0;
#X connect 4 0 6 0;
#X connect 4 1 3 0;
#X connect 5 0 4 0;
#X connect 6 0 1 0;
#X connect 8 0 10 0;
#X connect 9 0 1 0;
#X connect 10 0 2 0;
#X connect 10 1 9 0;
#X connect 13 0 5 1;
#X restore 118 232 pd check_glocal_mode;
#X obj 1231 279 namecanvas \$0-this;
#X obj 1229 256 triggered_loadbang \$0-this;
#X text 1224 206 manually trigger loadbang if the instance of abstraction
is created dynamically, f 29;
#X obj 785 273 savestate;
#X msg 692 192 0;
#X obj 692 215 s \$0-pan;
#X obj 586 448 u_parameter \$0 l1;
#X obj 586 468 u_parameter \$0 l2;
#X obj 588 488 u_parameter \$0 l3;
#X obj 586 508 u_parameter \$0 l4;
#X obj 586 528 u_parameter \$0 r1;
#X obj 586 548 u_parameter \$0 r2;
#X obj 586 568 u_parameter \$0 r3;
#X obj 586 588 u_parameter \$0 r4;
#N canvas 0 57 1920 1023 (subpatch) 0;
#X obj 200 200 tgl 15 0 \$0-l1 \$0-l1-rcv 1| 1 7 0 15 -233017 -233017
-1 0 1;
#X obj 94 132 inlet~;
#X obj 96 412 outlet~;
#X obj 392 412 switch~;
#X obj 335 243 select 0 1;
#X obj 92 369 *~;
#X obj 184 311 lop~ 10;
#X msg 186 275 0;
#X msg 231 271 1;
#X msg 356 384 0;
#X msg 270 314 stop;
#X msg 389 289 1;
#X obj 257 354 delay 200;
#X text 249 61 no-plop switcher;
#X floatatom 303 87 5 0 0 0 - - -, f 5;
#X msg 283 120 color 10 10 -1;
#X msg 384 133 color 16 16 -1;
#X msg 458 164 label du;
#X obj 351 207 r \$0-l1;
#X msg 117 216 CUSTOM;
#X obj 128 264 s \$0-out;
#X connect 0 0 19 0;
#X connect 1 0 5 0;
#X connect 4 0 7 0;
#X connect 4 0 15 0;
#X connect 4 1 8 0;
#X connect 4 1 10 0;
#X connect 4 1 11 0;
#X connect 4 1 16 0;
#X connect 5 0 2 0;
#X connect 6 0 5 1;
#X connect 7 0 6 0;
#X connect 8 0 6 0;
#X connect 9 0 3 0;
#X connect 10 0 12 0;
#X connect 11 0 3 0;
#X connect 12 0 9 0;
#X connect 14 0 15 0;
#X connect 15 0 0 0;
#X connect 16 0 0 0;
#X connect 17 0 0 0;
#X connect 18 0 4 0;
#X connect 19 0 20 0;
#X coords 0 -1 1 1 15 15 2 200 200;
#X restore 230 140 pd;
#N canvas 0 57 1920 1023 (subpatch) 0;
#X obj 200 200 tgl 15 0 \$0-l2 \$0-l2-rcv 2| 1 7 0 15 -233017 -233017
-1 0 1;
#X obj 94 132 inlet~;
#X obj 96 412 outlet~;
#X obj 392 412 switch~;
#X obj 252 240 select 0 1;
#X obj 92 369 *~;
#X obj 184 311 lop~ 10;
#X msg 186 275 0;
#X msg 231 271 1;
#X msg 356 384 0;
#X msg 270 314 stop;
#X msg 389 289 1;
#X obj 257 354 delay 200;
#X text 249 61 no-plop switcher;
#X floatatom 303 137 5 0 0 0 - - -, f 5;
#X msg 283 170 color 10 10 -1;
#X msg 384 183 color 16 16 -1;
#X msg 458 214 label du;
#X obj 351 207 r \$0-l2;
#X msg 117 216 CUSTOM;
#X obj 128 264 s \$0-out;
#X connect 0 0 19 0;
#X connect 1 0 5 0;
#X connect 4 0 7 0;
#X connect 4 0 15 0;
#X connect 4 1 8 0;
#X connect 4 1 10 0;
#X connect 4 1 11 0;
#X connect 4 1 16 0;
#X connect 5 0 2 0;
#X connect 6 0 5 1;
#X connect 7 0 6 0;
#X connect 8 0 6 0;
#X connect 9 0 3 0;
#X connect 10 0 12 0;
#X connect 11 0 3 0;
#X connect 12 0 9 0;
#X connect 14 0 15 0;
#X connect 15 0 0 0;
#X connect 16 0 0 0;
#X connect 17 0 0 0;
#X connect 18 0 4 0;
#X connect 19 0 20 0;
#X coords 0 -1 1 1 15 15 2 200 200;
#X restore 245 140 pd;
#N canvas 0 57 1920 1023 (subpatch) 0;
#X obj 200 200 tgl 15 0 \$0-l3 \$0-l3-rcv 3| 1 7 0 15 -233017 -233017
-1 0 1;
#X obj 94 132 inlet~;
#X obj 96 412 outlet~;
#X obj 392 412 switch~;
#X obj 252 240 select 0 1;
#X obj 92 369 *~;
#X obj 184 311 lop~ 10;
#X msg 186 275 0;
#X msg 231 271 1;
#X msg 356 384 0;
#X msg 270 314 stop;
#X msg 389 289 1;
#X obj 257 354 delay 200;
#X text 249 61 no-plop switcher;
#X floatatom 303 137 5 0 0 0 - - -, f 5;
#X msg 283 170 color 10 10 -1;
#X msg 384 183 color 16 16 -1;
#X msg 458 214 label du;
#X obj 250 211 r \$0-l3;
#X msg 117 216 CUSTOM;
#X obj 128 263 s \$0-out;
#X connect 0 0 19 0;
#X connect 1 0 5 0;
#X connect 4 0 7 0;
#X connect 4 0 15 0;
#X connect 4 1 8 0;
#X connect 4 1 10 0;
#X connect 4 1 11 0;
#X connect 4 1 16 0;
#X connect 5 0 2 0;
#X connect 6 0 5 1;
#X connect 7 0 6 0;
#X connect 8 0 6 0;
#X connect 9 0 3 0;
#X connect 10 0 12 0;
#X connect 11 0 3 0;
#X connect 12 0 9 0;
#X connect 14 0 15 0;
#X connect 15 0 0 0;
#X connect 16 0 0 0;
#X connect 17 0 0 0;
#X connect 18 0 4 0;
#X connect 19 0 20 0;
#X coords 0 -1 1 1 15 15 2 200 200;
#X restore 260 140 pd;
#N canvas 0 57 1920 1023 (subpatch) 0;
#X obj 200 200 tgl 15 0 \$0-l4 \$0-l4-rcv 4| 1 7 0 15 -233017 -233017
-1 0 1;
#X obj 94 132 inlet~;
#X obj 96 412 outlet~;
#X obj 392 412 switch~;
#X obj 252 240 select 0 1;
#X obj 92 369 *~;
#X obj 184 311 lop~ 10;
#X msg 186 275 0;
#X msg 231 271 1;
#X msg 356 384 0;
#X msg 270 314 stop;
#X msg 389 289 1;
#X obj 257 354 delay 200;
#X text 249 61 no-plop switcher;
#X floatatom 303 137 5 0 0 0 - - -, f 5;
#X msg 283 170 color 10 10 -1;
#X msg 384 183 color 16 16 -1;
#X msg 458 214 label du;
#X obj 351 207 r \$0-l4;
#X msg 117 216 CUSTOM;
#X obj 128 264 s \$0-out;
#X connect 0 0 19 0;
#X connect 1 0 5 0;
#X connect 4 0 7 0;
#X connect 4 0 15 0;
#X connect 4 1 8 0;
#X connect 4 1 10 0;
#X connect 4 1 11 0;
#X connect 4 1 16 0;
#X connect 5 0 2 0;
#X connect 6 0 5 1;
#X connect 7 0 6 0;
#X connect 8 0 6 0;
#X connect 9 0 3 0;
#X connect 10 0 12 0;
#X connect 11 0 3 0;
#X connect 12 0 9 0;
#X connect 14 0 15 0;
#X connect 15 0 0 0;
#X connect 16 0 0 0;
#X connect 17 0 0 0;
#X connect 18 0 4 0;
#X connect 19 0 20 0;
#X coords 0 -1 1 1 15 15 2 200 200;
#X restore 275 140 pd;
#N canvas 0 57 1920 1023 (subpatch) 0;
#X obj 200 200 tgl 15 0 \$0-r1 \$0-r1-rcv 1| 1 7 0 15 -233017 -233017
-1 0 1;
#X obj 94 132 inlet~;
#X obj 96 412 outlet~;
#X obj 392 412 switch~;
#X obj 252 240 select 0 1;
#X obj 92 369 *~;
#X obj 184 311 lop~ 10;
#X msg 186 275 0;
#X msg 231 271 1;
#X msg 356 384 0;
#X msg 270 314 stop;
#X msg 389 289 1;
#X obj 257 354 delay 200;
#X text 249 61 no-plop switcher;
#X floatatom 303 137 5 0 0 0 - - -, f 5;
#X msg 283 170 color 10 10 -1;
#X msg 384 183 color 16 16 -1;
#X msg 458 214 label du;
#X obj 351 207 r \$0-r1;
#X msg 117 216 CUSTOM;
#X obj 128 264 s \$0-out;
#X connect 0 0 19 0;
#X connect 1 0 5 0;
#X connect 4 0 7 0;
#X connect 4 0 15 0;
#X connect 4 1 8 0;
#X connect 4 1 10 0;
#X connect 4 1 11 0;
#X connect 4 1 16 0;
#X connect 5 0 2 0;
#X connect 6 0 5 1;
#X connect 7 0 6 0;
#X connect 8 0 6 0;
#X connect 9 0 3 0;
#X connect 10 0 12 0;
#X connect 11 0 3 0;
#X connect 12 0 9 0;
#X connect 14 0 15 0;
#X connect 15 0 0 0;
#X connect 16 0 0 0;
#X connect 17 0 0 0;
#X connect 18 0 4 0;
#X connect 19 0 20 0;
#X coords 0 -1 1 1 15 15 2 200 200;
#X restore 230 155 pd;
#N canvas 0 57 1920 1023 (subpatch) 0;
#X obj 200 200 tgl 15 0 \$0-r2 \$0-r2-rcv 2| 1 7 0 15 -233017 -233017
-1 0 1;
#X obj 94 132 inlet~;
#X obj 96 412 outlet~;
#X obj 392 412 switch~;
#X obj 252 240 select 0 1;
#X obj 92 369 *~;
#X obj 184 311 lop~ 10;
#X msg 186 275 0;
#X msg 231 271 1;
#X msg 356 384 0;
#X msg 270 314 stop;
#X msg 389 289 1;
#X obj 257 354 delay 200;
#X text 249 61 no-plop switcher;
#X floatatom 303 137 5 0 0 0 - - -, f 5;
#X msg 283 170 color 10 10 -1;
#X msg 384 183 color 16 16 -1;
#X msg 458 214 label du;
#X obj 351 207 r \$0-r2;
#X msg 117 216 CUSTOM;
#X obj 128 264 s \$0-out;
#X connect 0 0 19 0;
#X connect 1 0 5 0;
#X connect 4 0 7 0;
#X connect 4 0 15 0;
#X connect 4 1 8 0;
#X connect 4 1 10 0;
#X connect 4 1 11 0;
#X connect 4 1 16 0;
#X connect 5 0 2 0;
#X connect 6 0 5 1;
#X connect 7 0 6 0;
#X connect 8 0 6 0;
#X connect 9 0 3 0;
#X connect 10 0 12 0;
#X connect 11 0 3 0;
#X connect 12 0 9 0;
#X connect 14 0 15 0;
#X connect 15 0 0 0;
#X connect 16 0 0 0;
#X connect 17 0 0 0;
#X connect 18 0 4 0;
#X connect 19 0 20 0;
#X coords 0 -1 1 1 15 15 2 200 200;
#X restore 245 155 pd;
#N canvas 0 57 1920 1023 (subpatch) 0;
#X obj 200 200 tgl 15 0 \$0-r3 \$0-r3-rcv 3| 1 7 0 15 -233017 -233017
-1 0 1;
#X obj 94 132 inlet~;
#X obj 96 412 outlet~;
#X obj 392 412 switch~;
#X obj 252 240 select 0 1;
#X obj 92 369 *~;
#X obj 184 311 lop~ 10;
#X msg 186 275 0;
#X msg 231 271 1;
#X msg 356 384 0;
#X msg 270 314 stop;
#X msg 389 289 1;
#X obj 257 354 delay 200;
#X text 249 61 no-plop switcher;
#X floatatom 303 137 5 0 0 0 - - -, f 5;
#X msg 283 170 color 10 10 -1;
#X msg 384 183 color 16 16 -1;
#X msg 458 214 label du;
#X obj 351 207 r \$0-r3;
#X msg 117 216 CUSTOM;
#X obj 128 264 s \$0-out;
#X connect 0 0 19 0;
#X connect 1 0 5 0;
#X connect 4 0 7 0;
#X connect 4 0 15 0;
#X connect 4 1 8 0;
#X connect 4 1 10 0;
#X connect 4 1 11 0;
#X connect 4 1 16 0;
#X connect 5 0 2 0;
#X connect 6 0 5 1;
#X connect 7 0 6 0;
#X connect 8 0 6 0;
#X connect 9 0 3 0;
#X connect 10 0 12 0;
#X connect 11 0 3 0;
#X connect 12 0 9 0;
#X connect 14 0 15 0;
#X connect 15 0 0 0;
#X connect 16 0 0 0;
#X connect 17 0 0 0;
#X connect 18 0 4 0;
#X connect 19 0 20 0;
#X coords 0 -1 1 1 15 15 2 200 200;
#X restore 260 155 pd;
#N canvas 0 57 1920 1023 (subpatch) 0;
#X obj 200 200 tgl 15 0 \$0-r4 \$0-r4-rcv 4| 1 7 0 15 -233017 -233017
-1 0 1;
#X obj 94 132 inlet~;
#X obj 96 412 outlet~;
#X obj 392 412 switch~;
#X obj 252 240 select 0 1;
#X obj 92 369 *~;
#X obj 184 311 lop~ 10;
#X msg 186 275 0;
#X msg 231 271 1;
#X msg 356 384 0;
#X msg 270 314 stop;
#X msg 389 289 1;
#X obj 257 354 delay 200;
#X text 249 61 no-plop switcher;
#X floatatom 303 137 5 0 0 0 - - -, f 5;
#X msg 283 170 color 10 10 -1;
#X msg 384 183 color 16 16 -1;
#X msg 458 214 label du;
#X obj 351 207 r \$0-r4;
#X msg 117 216 CUSTOM;
#X obj 128 264 s \$0-out;
#X connect 0 0 19 0;
#X connect 1 0 5 0;
#X connect 4 0 7 0;
#X connect 4 0 15 0;
#X connect 4 1 8 0;
#X connect 4 1 10 0;
#X connect 4 1 11 0;
#X connect 4 1 16 0;
#X connect 5 0 2 0;
#X connect 6 0 5 1;
#X connect 7 0 6 0;
#X connect 8 0 6 0;
#X connect 9 0 3 0;
#X connect 10 0 12 0;
#X connect 11 0 3 0;
#X connect 12 0 9 0;
#X connect 14 0 15 0;
#X connect 15 0 0 0;
#X connect 16 0 0 0;
#X connect 17 0 0 0;
#X connect 18 0 4 0;
#X connect 19 0 20 0;
#X coords 0 -1 1 1 15 15 2 200 200;
#X restore 275 155 pd;
#X text 219 139 L;
#X text 219 152 R;
#N canvas 1160 183 886 530 patchbay-l 0;
#X obj 69 20 inlet;
#X obj 52 348 outlet;
#X obj 187 347 s \$0-l1;
#X obj 247 347 s \$0-l2;
#X obj 297 346 s \$0-l3;
#X obj 357 346 s \$0-l4;
#X msg 51 310 symbol no-out;
#X obj 70 46 select OUT1 OUT2 OUT3 OUT4 custom;
#X obj 185 316 unpack f f f f;
#X obj 50 246 t b l;
#X msg 43 84 1 0 0 0;
#X msg 66 114 0 1 0 0;
#X msg 91 144 0 0 1 0;
#X msg 107 171 0 0 0 1;
#X msg 242 225 0 0 0 0;
#X obj 207 182 t s b;
#X connect 0 0 7 0;
#X connect 6 0 1 0;
#X connect 7 0 10 0;
#X connect 7 1 11 0;
#X connect 7 2 12 0;
#X connect 7 3 13 0;
#X connect 7 4 6 0;
#X connect 7 5 15 0;
#X connect 8 0 2 0;
#X connect 8 1 3 0;
#X connect 8 2 4 0;
#X connect 8 3 5 0;
#X connect 9 0 6 0;
#X connect 9 1 8 0;
#X connect 10 0 9 0;
#X connect 11 0 9 0;
#X connect 12 0 9 0;
#X connect 13 0 9 0;
#X connect 14 0 8 0;
#X connect 15 0 1 0;
#X connect 15 1 14 0;
#X restore 146 347 pd patchbay-l;
#N canvas 245 343 595 579 patchbay-r 0;
#X obj 69 20 inlet;
#X obj 56 360 outlet;
#X obj 175 357 s \$0-r1;
#X obj 234 357 s \$0-r2;
#X obj 285 356 s \$0-r3;
#X obj 345 356 s \$0-r4;
#X msg 51 310 symbol no-out;
#X obj 70 46 select OUT1 OUT2 OUT3 OUT4 custom;
#X obj 185 316 unpack f f f f;
#X obj 50 246 t b l;
#X msg 43 84 1 0 0 0;
#X msg 66 114 0 1 0 0;
#X msg 91 144 0 0 1 0;
#X msg 107 171 0 0 0 1;
#X msg 242 225 0 0 0 0;
#X obj 207 182 t s b;
#X connect 0 0 7 0;
#X connect 6 0 1 0;
#X connect 7 0 10 0;
#X connect 7 1 11 0;
#X connect 7 2 12 0;
#X connect 7 3 13 0;
#X connect 7 4 6 0;
#X connect 7 5 15 0;
#X connect 8 0 2 0;
#X connect 8 1 3 0;
#X connect 8 2 4 0;
#X connect 8 3 5 0;
#X connect 9 0 6 0;
#X connect 9 1 8 0;
#X connect 10 0 9 0;
#X connect 11 0 9 0;
#X connect 12 0 9 0;
#X connect 13 0 9 0;
#X connect 14 0 8 0;
#X connect 15 0 1 0;
#X connect 15 1 14 0;
#X restore 246 351 pd patchbay-r;
#X obj 588 423 u_parameter \$0 mono;
#N canvas 191 64 1187 781 mute/pan/mono_stuff 0;
#X obj 189 425 *~;
#X obj 91 424 *~;
#X obj 226 392 line~;
#X obj 92 96 hip~ 3;
#X obj 187 96 hip~ 3;
#X obj 91 49 inlet~;
#X obj 196 62 inlet~;
#X obj 178 704 outlet~;
#X obj 271 711 outlet~;
#X obj 335 279 dbtorms;
#X msg 284 349 \$1 20;
#X obj 385 228 f;
#X obj 302 196 select 1 0;
#X msg 318 225 0;
#X obj 314 166 t f f;
#X obj 421 204 == 0;
#X obj 368 251 spigot 1;
#X obj 316 74 r \$0-mute;
#X obj 380 168 r \$0-vol;
#X obj 486 66 r \$0-pan;
#X obj 286 392 line~;
#X obj 324 308 f;
#X msg 536 496 \$1 20;
#X obj 438 300 t b f;
#X obj 474 345 t f f;
#X obj 471 412 abs;
#X obj 565 411 abs;
#X obj 468 451 * 0.5;
#X obj 558 451 * 0.5;
#X obj 459 384 - 0.5;
#X obj 561 385 + 0.5;
#X obj 87 511 meter \$0;
#X obj 254 473 *~ 0;
#X obj 304 473 *~ 0;
#X obj 368 475 r \$0-mono;
#X obj 158 642 clip~ -1 1;
#X obj 283 633 clip~ -1 1;
#X obj 158 617 hip~ 10;
#X obj 282 608 hip~ 10;
#X connect 0 0 31 1;
#X connect 0 0 33 0;
#X connect 0 0 38 0;
#X connect 1 0 31 0;
#X connect 1 0 32 0;
#X connect 1 0 37 0;
#X connect 2 0 1 1;
#X connect 3 0 1 0;
#X connect 4 0 0 0;
#X connect 5 0 3 0;
#X connect 6 0 4 0;
#X connect 9 0 21 0;
#X connect 10 0 2 0;
#X connect 11 0 16 0;
#X connect 12 0 13 0;
#X connect 12 1 11 0;
#X connect 13 0 21 0;
#X connect 14 0 12 0;
#X connect 14 1 15 0;
#X connect 15 0 16 1;
#X connect 16 0 9 0;
#X connect 17 0 14 0;
#X connect 18 0 11 0;
#X connect 19 0 23 0;
#X connect 20 0 0 1;
#X connect 21 0 27 0;
#X connect 21 0 28 0;
#X connect 22 0 20 0;
#X connect 23 0 21 0;
#X connect 23 1 24 0;
#X connect 24 0 29 0;
#X connect 24 1 30 0;
#X connect 25 0 27 1;
#X connect 26 0 28 1;
#X connect 27 0 10 0;
#X connect 28 0 22 0;
#X connect 29 0 25 0;
#X connect 30 0 26 0;
#X connect 32 0 38 0;
#X connect 33 0 37 0;
#X connect 34 0 33 1;
#X connect 34 0 32 1;
#X connect 35 0 7 0;
#X connect 36 0 8 0;
#X connect 37 0 35 0;
#X connect 38 0 36 0;
#X restore 323 95 pd mute/pan/mono_stuff;
#X obj 419 356 dac~ 1 2 3 4;
#X obj 276 320 c_tobus OUT1;
#X obj 289 300 c_tobus OUT2;
#X obj 299 281 c_tobus OUT3;
#X obj 311 260 c_tobus OUT4;
#X obj 736 458 u_parameter \$0 M1;
#X obj 736 478 u_parameter \$0 M2;
#X obj 736 538 u_parameter \$0 A1;
#X obj 736 558 u_parameter \$0 A2;
#N canvas 0 57 1920 1023 (subpatch) 0;
#X obj 200 200 tgl 15 0 \$0-M1 \$0-M1-rcv M1 1 7 0 10 -233017 -233017
-1 0 1;
#X obj 94 132 inlet~;
#X obj 96 412 outlet~;
#X obj 392 412 switch~;
#X obj 252 240 select 0 1;
#X obj 92 369 *~;
#X obj 184 311 lop~ 10;
#X msg 186 275 0;
#X msg 231 271 1;
#X msg 356 384 0;
#X msg 270 314 stop;
#X msg 389 289 1;
#X obj 257 354 delay 200;
#X text 249 61 no-plop switcher;
#X floatatom 303 137 5 0 0 0 - - -, f 5;
#X msg 283 170 color 10 10 -1;
#X msg 458 214 label du;
#X msg 117 216 CUSTOM;
#X obj 128 263 s \$0-out;
#X obj 249 210 r \$0-M1;
#X obj 144 132 inlet~;
#X obj 146 412 outlet~;
#X obj 142 369 *~;
#X msg 384 183 color 14 14 -1;
#X connect 0 0 17 0;
#X connect 1 0 5 0;
#X connect 4 0 7 0;
#X connect 4 0 15 0;
#X connect 4 1 8 0;
#X connect 4 1 10 0;
#X connect 4 1 11 0;
#X connect 4 1 23 0;
#X connect 5 0 2 0;
#X connect 6 0 5 1;
#X connect 6 0 22 1;
#X connect 7 0 6 0;
#X connect 8 0 6 0;
#X connect 9 0 3 0;
#X connect 10 0 12 0;
#X connect 11 0 3 0;
#X connect 12 0 9 0;
#X connect 14 0 15 0;
#X connect 15 0 0 0;
#X connect 16 0 0 0;
#X connect 17 0 18 0;
#X connect 19 0 4 0;
#X connect 20 0 22 0;
#X connect 22 0 21 0;
#X connect 23 0 0 0;
#X coords 0 -1 1 1 15 15 2 200 200;
#X restore 518 138 pd;
#N canvas 0 57 1920 1023 (subpatch) 0;
#X obj 200 200 tgl 15 0 \$0-M2 \$0-M2-rcv M2 1 7 0 10 -233017 -233017
-1 0 1;
#X obj 94 132 inlet~;
#X obj 96 412 outlet~;
#X obj 392 412 switch~;
#X obj 252 240 select 0 1;
#X obj 92 369 *~;
#X obj 184 311 lop~ 10;
#X msg 186 275 0;
#X msg 231 271 1;
#X msg 356 384 0;
#X msg 270 314 stop;
#X msg 389 289 1;
#X obj 257 354 delay 200;
#X text 249 61 no-plop switcher;
#X floatatom 303 137 5 0 0 0 - - -, f 5;
#X msg 283 170 color 10 10 -1;
#X msg 458 214 label du;
#X msg 117 216 CUSTOM;
#X obj 128 263 s \$0-out;
#X obj 250 211 r \$0-M2;
#X obj 144 132 inlet~;
#X obj 146 412 outlet~;
#X obj 147 362 *~;
#X msg 384 183 color 14 14 -1;
#X connect 0 0 17 0;
#X connect 1 0 5 0;
#X connect 4 0 7 0;
#X connect 4 0 15 0;
#X connect 4 1 8 0;
#X connect 4 1 10 0;
#X connect 4 1 11 0;
#X connect 4 1 23 0;
#X connect 5 0 2 0;
#X connect 6 0 5 1;
#X connect 6 0 22 1;
#X connect 7 0 6 0;
#X connect 8 0 6 0;
#X connect 9 0 3 0;
#X connect 10 0 12 0;
#X connect 11 0 3 0;
#X connect 12 0 9 0;
#X connect 14 0 15 0;
#X connect 15 0 0 0;
#X connect 16 0 0 0;
#X connect 17 0 18 0;
#X connect 19 0 4 0;
#X connect 20 0 22 0;
#X connect 22 0 21 0;
#X connect 23 0 0 0;
#X coords 0 -1 1 1 15 15 2 200 200;
#X restore 535 138 pd;
#N canvas 0 57 1920 1023 (subpatch) 0;
#X obj 200 200 tgl 15 0 \$0-A1 \$0-A1-rcv A1 1 7 0 10 -233017 -233017
-1 0 1;
#X obj 94 132 inlet~;
#X obj 96 412 outlet~;
#X obj 392 412 switch~;
#X obj 252 240 select 0 1;
#X obj 92 369 *~;
#X obj 184 311 lop~ 10;
#X msg 186 275 0;
#X msg 231 271 1;
#X msg 356 384 0;
#X msg 270 314 stop;
#X msg 389 289 1;
#X obj 257 354 delay 200;
#X text 249 61 no-plop switcher;
#X floatatom 303 137 5 0 0 0 - - -, f 5;
#X msg 283 170 color 10 10 -1;
#X msg 458 214 label du;
#X msg 117 216 CUSTOM;
#X obj 128 263 s \$0-out;
#X obj 250 211 r \$0-A1;
#X msg 384 183 color 19 19 -1;
#X obj 148 133 inlet~;
#X obj 150 413 outlet~;
#X obj 146 370 *~;
#X connect 0 0 17 0;
#X connect 1 0 5 0;
#X connect 4 0 7 0;
#X connect 4 0 15 0;
#X connect 4 1 8 0;
#X connect 4 1 10 0;
#X connect 4 1 11 0;
#X connect 4 1 20 0;
#X connect 5 0 2 0;
#X connect 6 0 5 1;
#X connect 6 0 23 1;
#X connect 7 0 6 0;
#X connect 8 0 6 0;
#X connect 9 0 3 0;
#X connect 10 0 12 0;
#X connect 11 0 3 0;
#X connect 12 0 9 0;
#X connect 14 0 15 0;
#X connect 15 0 0 0;
#X connect 16 0 0 0;
#X connect 17 0 18 0;
#X connect 19 0 4 0;
#X connect 20 0 0 0;
#X connect 21 0 23 0;
#X connect 23 0 22 0;
#X coords 0 -1 1 1 15 15 2 200 200;
#X restore 518 155 pd;
#N canvas 0 57 1920 1023 (subpatch) 0;
#X obj 200 200 tgl 15 0 \$0-A2 \$0-A2-rcv A2 1 7 0 10 -233017 -233017
-1 0 1;
#X obj 94 132 inlet~;
#X obj 96 412 outlet~;
#X obj 392 412 switch~;
#X obj 252 240 select 0 1;
#X obj 92 369 *~;
#X obj 184 311 lop~ 10;
#X msg 186 275 0;
#X msg 231 271 1;
#X msg 356 384 0;
#X msg 270 314 stop;
#X msg 389 289 1;
#X obj 257 354 delay 200;
#X text 249 61 no-plop switcher;
#X floatatom 303 137 5 0 0 0 - - -, f 5;
#X msg 283 170 color 10 10 -1;
#X msg 458 214 label du;
#X msg 117 216 CUSTOM;
#X obj 128 263 s \$0-out;
#X obj 250 211 r \$0-A2;
#X msg 384 183 color 19 19 -1;
#X obj 144 132 inlet~;
#X obj 146 412 outlet~;
#X obj 142 369 *~;
#X connect 0 0 17 0;
#X connect 1 0 5 0;
#X connect 4 0 7 0;
#X connect 4 0 15 0;
#X connect 4 1 8 0;
#X connect 4 1 10 0;
#X connect 4 1 11 0;
#X connect 4 1 20 0;
#X connect 5 0 2 0;
#X connect 6 0 5 1;
#X connect 6 0 23 1;
#X connect 7 0 6 0;
#X connect 8 0 6 0;
#X connect 9 0 3 0;
#X connect 10 0 12 0;
#X connect 11 0 3 0;
#X connect 12 0 9 0;
#X connect 14 0 15 0;
#X connect 15 0 0 0;
#X connect 16 0 0 0;
#X connect 17 0 18 0;
#X connect 19 0 4 0;
#X connect 20 0 0 0;
#X connect 21 0 23 0;
#X connect 23 0 22 0;
#X coords 0 -1 1 1 15 15 2 200 200;
#X restore 535 155 pd;
#X obj 452 222 c_tobus M1-r;
#X obj 440 199 c_tobus M1-l;
#X obj 452 248 c_tobus M2-l;
#X obj 464 271 c_tobus M2-r;
#X obj 804 33 declare -path ../../../core;
#X obj 804 53 declare -path ../../../core/stuff;
#X obj 804 73 declare -path ../../../core/rj;
#X connect 2 0 4 0;
#X connect 3 0 2 0;
#X connect 4 0 12 0;
#X connect 6 0 11 0;
#X connect 7 0 9 1;
#X connect 8 0 9 0;
#X connect 9 0 10 0;
#X connect 10 0 5 0;
#X connect 11 0 8 0;
#X connect 12 0 67 0;
#X connect 13 0 45 0;
#X connect 21 0 22 0;
#X connect 22 0 24 0;
#X connect 22 1 40 0;
#X connect 23 0 65 0;
#X connect 23 1 66 0;
#X connect 24 0 26 0;
#X connect 24 1 30 0;
#X connect 24 2 27 0;
#X connect 25 0 29 0;
#X connect 26 0 28 1;
#X connect 27 0 28 1;
#X connect 28 0 25 0;
#X connect 29 0 21 0;
#X connect 31 0 28 0;
#X connect 32 0 68 1;
#X connect 32 0 33 0;
#X connect 34 0 68 0;
#X connect 34 0 35 0;
#X connect 36 0 37 0;
#X connect 37 0 3 0;
#X connect 37 1 44 0;
#X connect 40 0 23 0;
#X connect 44 0 37 1;
#X connect 44 1 37 2;
#X connect 45 0 46 0;
#X connect 47 0 48 0;
#X connect 48 0 49 0;
#X connect 49 0 50 0;
#X connect 50 0 51 0;
#X connect 51 0 52 0;
#X connect 52 0 53 0;
#X connect 53 0 54 0;
#X connect 54 0 74 0;
#X connect 55 0 69 0;
#X connect 55 0 70 0;
#X connect 56 0 69 1;
#X connect 56 0 71 0;
#X connect 57 0 69 2;
#X connect 57 0 72 0;
#X connect 58 0 69 3;
#X connect 58 0 73 0;
#X connect 59 0 69 0;
#X connect 59 0 70 0;
#X connect 60 0 69 1;
#X connect 60 0 71 0;
#X connect 61 0 69 2;
#X connect 61 0 72 0;
#X connect 62 0 69 3;
#X connect 62 0 73 0;
#X connect 65 0 0 1;
#X connect 66 0 1 1;
#X connect 67 0 47 0;
#X connect 68 0 0 0;
#X connect 68 0 55 0;
#X connect 68 0 58 0;
#X connect 68 0 57 0;
#X connect 68 0 56 0;
#X connect 68 1 1 0;
#X connect 68 1 62 0;
#X connect 68 1 61 0;
#X connect 68 1 60 0;
#X connect 68 1 59 0;
#X connect 74 0 75 0;
#X connect 75 0 76 0;
#X connect 76 0 77 0;
#X connect 77 0 38 0;
#X connect 78 0 83 0;
#X connect 78 1 82 0;
#X connect 79 0 84 0;
#X connect 79 1 85 0;
#X coords 0 -1 1 1 190 70 1 100 100;
