#N canvas 0 57 1920 1023 10;
#X obj 233 193 t a b;
#X obj 155 282 unpack f f;
#X obj 163 316 -;
#X obj 223 320 -;
#X obj 260 284 unpack f f;
#X obj 112 563 route 1;
#X obj 108 598 outlet;
#X obj 184 35 loadbang;
#X obj 273 99 list append \$1 \$2;
#X obj 322 45 namecanvas \$0-ducon;
#X obj 298 143 s \$0-ducon;
#X msg 294 121 donecanvasdialog 1 -1 1 0 -1 1 1 \$1 \$2 0 0 \, dirty
0;
#X obj 134 343 / \$1;
#X obj 222 345 / \$2;
#X obj 566 492 outlet others;
#X obj 88 470 expr ($f1>=0)&&($f1<=1)&&($f2>=0)&&($f2<=1);
#X obj 100 541 pack f f f f f;
#X obj 140 368 t f f f f;
#X obj 176 411 -;
#X obj 224 416 t f f f f;
#X obj 262 441 -;
#X obj 208 259 t l b;
#X obj 285 261 t l b;
#X obj 335 261 t l b;
#X obj 223 370 * -1;
#X obj 228 392 + 1;
#X msg 377 380 1;
#X msg 413 381 0;
#X obj 402 424 change;
#X obj 97 501 t f f;
#X obj 267 597 outlet over;
#X obj 372 595 outlet button;
#X obj 241 550 change;
#X obj 232 169 iemguts/receivecanvas 2;
#X obj 291 211 iemguts/canvasposition 0;
#X obj 220 233 route motion mouse mouseup zoom;
#X obj 159 299 / 1;
#X obj 217 301 / 1;
#X connect 0 0 35 0;
#X connect 0 1 34 0;
#X connect 1 0 36 0;
#X connect 1 1 37 0;
#X connect 2 0 12 0;
#X connect 3 0 13 0;
#X connect 4 0 2 1;
#X connect 4 1 3 1;
#X connect 5 0 6 0;
#X connect 7 0 8 0;
#X connect 8 0 11 0;
#X connect 11 0 10 0;
#X connect 12 0 17 0;
#X connect 13 0 24 0;
#X connect 15 0 29 0;
#X connect 16 0 5 0;
#X connect 17 0 15 0;
#X connect 17 1 16 1;
#X connect 17 2 18 1;
#X connect 17 3 18 0;
#X connect 18 0 16 3;
#X connect 19 0 15 1;
#X connect 19 1 16 2;
#X connect 19 2 20 1;
#X connect 19 3 20 0;
#X connect 20 0 16 4;
#X connect 21 0 1 0;
#X connect 22 0 1 0;
#X connect 22 1 26 0;
#X connect 23 0 1 0;
#X connect 23 1 27 0;
#X connect 24 0 25 0;
#X connect 25 0 19 0;
#X connect 26 0 28 0;
#X connect 27 0 28 0;
#X connect 28 0 31 0;
#X connect 29 0 16 0;
#X connect 29 1 32 0;
#X connect 32 0 30 0;
#X connect 33 0 0 0;
#X connect 34 0 4 0;
#X connect 35 0 21 0;
#X connect 35 1 22 0;
#X connect 35 2 23 0;
#X connect 35 3 37 1;
#X connect 35 3 36 1;
#X connect 35 4 14 0;
#X connect 36 0 2 0;
#X connect 37 0 3 0;
#X coords 0 -1 1 1 400 400 2 0 0;
