#N canvas 0 50 535 530 12;
#X obj 101 39 inlet;
#X obj 108 422 outlet;
#X msg 197 84 \$2 \$1;
#X obj 189 111 route 0;
#X obj 250 232 timer;
#X obj 283 153 t b l l;
#X obj 258 289 list append;
#X obj 189 136 t b;
#X msg 268 319 \$3 \$2 \$1;
#X obj 268 344 makenote;
#X obj 268 369 pack f f;
#X connect 0 0 2 0;
#X connect 2 0 3 0;
#X connect 3 0 7 0;
#X connect 3 1 5 0;
#X connect 4 0 6 0;
#X connect 5 0 4 0;
#X connect 5 1 6 1;
#X connect 6 0 8 0;
#X connect 7 0 4 1;
#X connect 8 0 9 0;
#X connect 9 0 10 0;
#X connect 9 1 10 1;
#X connect 10 0 1 0;
