#N canvas 0 50 801 377 10;
#X obj 60 40 inlet~;
#X obj 64 178 outlet~;
#X obj 255 174 outlet;
#X obj 171 39 inlet;
#X obj 241 39 inlet;
#X obj 291 39 inlet;
#X obj 361 39 inlet;
#X obj 337 134 loadbang;
#X text 463 61 to bypass filter~ when iemlib not found;
#X obj 337 157 v ___iemlib/filter_warning;
#X obj 337 180 select 0;
#X obj 337 203 t b b;
#X msg 414 218 1;
#X obj 336 281 print pdr;
#X msg 344 244 warning : missing iemlib... using placebo filter~ abstraction
;
#X connect 0 0 1 0;
#X connect 7 0 9 0;
#X connect 9 0 10 0;
#X connect 10 0 11 0;
#X connect 11 0 14 0;
#X connect 11 1 12 0;
#X connect 12 0 9 0;
#X connect 14 0 13 0;
