#N canvas 713 56 998 471 10;
#N canvas 0 50 450 300 noise~ 0;
#X obj 90 102 noise~;
#X obj 150 102 noise~;
#X obj 92 134 *~ 0.2;
#X obj 82 193 outlet~;
#X obj 152 203 outlet~;
#X obj 152 134 *~ 0.2;
#X connect 0 0 2 0;
#X connect 1 0 5 0;
#X connect 2 0 3 0;
#X connect 5 0 4 0;
#X restore 61 37 pd noise~;
#X obj 65 280 dac~;
#N canvas 0 50 450 300 vol 0;
#X obj 103 125 hsl 128 15 0 100 0 0 empty empty -100_dB 50 -8 0 10 #c4fcfc #000000 #000000 0 1;
#X obj 99 145 dbtorms;
#X obj 99 168 lop~ 1;
#X obj 44 53 inlet~;
#X obj 94 53 inlet~;
#X obj 49 257 outlet~;
#X obj 114 257 outlet~;
#X obj 39 209 *~;
#X obj 69 209 *~;
#X obj 184 175 - 100;
#X msg 184 198 label \$1_dB;
#X connect 0 0 1 0;
#X connect 0 0 9 0;
#X connect 1 0 2 0;
#X connect 2 0 8 1;
#X connect 2 0 7 1;
#X connect 3 0 7 0;
#X connect 4 0 8 0;
#X connect 7 0 5 0;
#X connect 8 0 6 0;
#X connect 9 0 10 0;
#X connect 10 0 0 0;
#X coords 0 -1 1 1 133 40 1 100 100;
#X restore 64 223 pd vol;
#X obj 58 118 attack_route;
#A saved SID 1;
#X text 291 26 Entrée monophonique;
#X text 351 135 signal doux -> sortie 1;
#X text 351 165 signal avec attaque -> sortie 2;
#X text 317 65 route l'entrée (mono) sur la sortie 1 ou 2 en fonction de l'attaque;
#X text 310 202 "sens" règle la sensibilité du déclenchement en cas d'attaque, f 71;
#X connect 2 0 1 0;
#X connect 2 1 1 1;
