#N canvas 219 90 810 553 10;
#X declare -path ../../../core;
#X declare -path ../../../core/stuff;
#X declare -path ../../../core/rj;
#X obj 455 451 u_dispatch \$0 sens;
#X obj 101 101 cnv 15 188 68 \$0-background \$0-background-rcv attack_route-1 0 7 0 14 #fcfcfc #000000 0;
#X obj 137 115 ui_vs \$0 sens 0 100;
#X obj 228 100 bng 15 250 50 0 empty empty trigger 17 7 0 10 #fcfcfc #000000 #000000;
#X obj 16 186 inlet~;
#X obj 63 522 outlet~;
#X obj 151 521 outlet~;
#X obj 380 287 outlet data;
#X obj 380 231 inlet data;
#X obj 110 190 inlet~;
#X obj 1231 279 namecanvas \$0-this;
#X obj 1229 256 triggered_loadbang \$0-this;
#X text 1224 206 manually trigger loadbang if the instance of abstraction is created dynamically, f 29;
#X obj 606 295 savestate;
#X obj 654 33 declare -path ../../../core;
#X obj 654 53 declare -path ../../../core/stuff;
#X obj 654 73 declare -path ../../../core/rj;
#N canvas 1468 87 450 300 wet 0;
#X obj 84 180 c_xfade;
#X obj 178 182 c_xfade;
#X obj 224 150 pack 0 10;
#X obj 275 75 r \$0-wet;
#X obj 264 128 *;
#X obj 272 104 t f f;
#X obj 39 69 inlet~;
#X obj 99 69 inlet~;
#X obj 80 230 outlet~;
#X obj 190 230 outlet~;
#X obj 153 67 inlet~;
#X obj 213 67 inlet~;
#X connect 0 0 8 0;
#X connect 1 0 9 0;
#X connect 2 0 1 2;
#X connect 2 0 0 2;
#X connect 3 0 5 0;
#X connect 4 0 2 0;
#X connect 5 0 4 0;
#X connect 5 1 4 1;
#X connect 6 0 0 0;
#X connect 7 0 0 1;
#X connect 10 0 1 0;
#X connect 11 0 1 1;
#X restore 40 460 pd wet;
#X obj 451 496 u_dispatch \$0 wet;
#X obj 325 97 ui_vs \$0 wet 0 1;
#X obj 451 397 module_loader attack_route \$0 \$1;
#X obj 523 194 fiddle~;
#X obj 516 159 *~ 1;
#X obj 464 106 dbtorms;
#X obj 528 230 t b b;
#X obj 432 28 r \$0-sens;
#X obj 153 221 delwrite~ \$0-ligne-r 20000;
#X obj 97 253 delwrite~ \$0-ligne-l 20000;
#X floatatom 588 218 5 0 0 0 - - - 0;
#X obj 263 370 *~;
#X obj 263 347 vline~;
#X obj 126 412 *~;
#X obj 87 350 delread~ \$0-ligne-r 200;
#X obj 86 412 *~;
#X msg 293 314 1 5 \, 0 2000 5;
#X obj 48 324 delread~ \$0-ligne-l 30;
#X obj 333 370 *~;
#X obj 333 347 vline~;
#X msg 310 418 0 5 \, 1 2000 500;
#X connect 0 0 18 0;
#X connect 4 0 27 0;
#X connect 4 0 22 0;
#X connect 9 0 22 0;
#X connect 9 0 27 0;
#X connect 13 0 20 1;
#X connect 13 1 20 2;
#X connect 17 0 5 0;
#X connect 17 1 6 0;
#X connect 20 0 0 0;
#X connect 20 1 13 0;
#X connect 21 1 24 0;
#X connect 21 3 28 0;
#X connect 22 0 21 0;
#X connect 23 0 22 1;
#X connect 24 1 3 0;
#X connect 24 1 34 0;
#X connect 24 1 38 0;
#X connect 25 0 23 0;
#X connect 29 0 31 1;
#X connect 30 0 29 0;
#X connect 30 0 29 1;
#X connect 31 0 6 0;
#X connect 33 0 5 0;
#X connect 34 0 30 0;
#X connect 35 0 31 0;
#X connect 35 0 33 0;
#X connect 36 0 33 1;
#X connect 37 0 36 0;
#X connect 37 0 36 1;
#X connect 38 0 37 0;
#X coords 0 -1 1 1 190 70 1 100 100;
