#N canvas 0 57 1920 1023 10;
#X declare -path ../../../core;
#X declare -path ../../../core/stuff;
#X declare -path ../../../core/rj;
#X obj 200 359 c_frombus no-in;
#X obj 325 361 c_frombus no-in;
#X obj 846 310 u_dispatch \$0 in;
#X obj 178 418 +~;
#X obj 321 413 +~;
#X obj 180 458 *~;
#X obj 315 459 *~;
#X obj 407 459 line~;
#X obj 473 389 dbtorms;
#X obj 530 298 r \$0-gain;
#X obj 846 336 u_dispatch \$0 gain;
#X obj 534 321 + 100;
#X msg 467 419 \$1 20;
#X obj 535 358 f;
#X obj 452 326 select 1 0;
#X msg 468 355 0;
#X obj 846 364 u_parameter \$0 mute;
#X obj 464 296 t f f;
#X obj 607 375 == 0;
#X obj 569 406 spigot 1;
#X obj 645 552 s \$0-mute;
#X obj 462 262 r \$0-mute;
#X obj 669 490 r \$0-mute;
#X obj 586 483 select 1;
#X obj 644 511 f;
#X obj 681 528 == 0;
#X obj 624 464 > 0;
#X obj 101 101 cnv 15 188 68 \$0-background \$0-background-rcv audio_in-0
0 7 0 14 -262144 -1 0;
#X obj 189 124 cnv 2 58 2 empty \$0-vu -42db 20 5 0 10 -24198 -1 0
;
#X text 197 99 src;
#X obj 139 130 tgl 40 0 \$0-mute \$0-mute-rcv MUTE 4 7 0 10 -262144
-1 -1 0 1;
#X obj 624 437 midi-colors \$0 mute \$0-mute-rcv;
#X obj 101 115 ui_vs \$0 gain -100 27;
#X obj 220 100 u_rollmenu bus_in 0;
#X obj 145 185 list split 1;
#X obj 229 223 unpack s s;
#X obj 29 252 s \$0-in;
#X obj 26 226 t b s b;
#X obj 18 313 r \$0-in;
#X obj 26 391 text search bus_in;
#X obj 28 371 symbol;
#X msg 32 288 1;
#X msg 71 285 0;
#X obj 28 343 spigot 1;
#X obj 123 579 select MODULE;
#X obj 253 135 bng 18 250 50 0 empty empty Module 0 10 0 10 -261682
-1 -1;
#X obj 319 643 s \$0-module-slot;
#X obj 363 278 r \$0-module-slot;
#X obj 265 654 f;
#X obj 354 493 delay 100;
#X msg 468 516 select_module \$1;
#X obj 414 599 list append \$0-module-slot;
#X floatatom 253 153 5 0 0 0 - #0-module-slot-rcv #0-module-slot,
f 5;
#X msg 316 617 0;
#N canvas 663 241 1130 609 get_audio_from_module 0;
#X obj 331 208 select 0;
#X obj 241 304 f;
#X obj 242 128 t f f;
#X msg 72 337 error - slot \$1 non affecté;
#X obj 459 462 outlet~;
#X obj 584 468 outlet~;
#X obj 143 5 inlet slot.name;
#X obj 427 263 list prepend 0;
#X obj 499 233 f;
#X obj 540 233 == 0;
#X obj 427 218 t f b;
#X obj 455 294 route 0 1;
#N canvas 0 50 450 300 receive~ 0;
#X obj 92 29 inlet;
#X obj 122 72 select 0;
#X obj 105 223 line~;
#X msg 97 200 0 20;
#X msg 197 124 set \$1-send-0;
#X msg 307 124 set \$1-send-1;
#X obj 197 157 receive~ 0-send-0;
#X obj 339 157 receive~ 0-send-1;
#X msg 150 193 1 20;
#X obj 31 151 switch~;
#X msg 98 126 1;
#X obj 40 96 delay 20;
#X msg 29 127 0;
#X msg 44 67 stop;
#X obj 130 318 outlet~;
#X obj 261 319 outlet~;
#X obj 161 283 *~;
#X obj 251 283 *~;
#X connect 0 0 1 0;
#X connect 1 0 3 0;
#X connect 1 0 11 0;
#X connect 1 1 4 0;
#X connect 1 1 5 0;
#X connect 1 1 10 0;
#X connect 1 1 13 0;
#X connect 1 1 8 0;
#X connect 2 0 16 1;
#X connect 2 0 17 1;
#X connect 3 0 2 0;
#X connect 4 0 6 0;
#X connect 5 0 7 0;
#X connect 6 0 16 0;
#X connect 7 0 17 0;
#X connect 8 0 2 0;
#X connect 10 0 9 0;
#X connect 11 0 12 0;
#X connect 12 0 9 0;
#X connect 13 0 11 0;
#X connect 16 0 14 0;
#X connect 17 0 15 0;
#X restore 455 360 pd receive~;
#N canvas 0 50 450 300 receive~ 0;
#X obj 92 29 inlet;
#X obj 122 72 select 0;
#X obj 105 223 line~;
#X msg 97 200 0 20;
#X msg 197 124 set \$1-send-0;
#X msg 307 124 set \$1-send-1;
#X obj 197 157 receive~ 0-send-0;
#X obj 339 157 receive~ 0-send-1;
#X msg 150 193 1 20;
#X obj 31 151 switch~;
#X msg 98 126 1;
#X obj 40 96 delay 20;
#X msg 29 127 0;
#X msg 44 67 stop;
#X obj 130 318 outlet~;
#X obj 261 319 outlet~;
#X obj 161 283 *~;
#X obj 251 283 *~;
#X connect 0 0 1 0;
#X connect 1 0 3 0;
#X connect 1 0 11 0;
#X connect 1 1 4 0;
#X connect 1 1 5 0;
#X connect 1 1 10 0;
#X connect 1 1 13 0;
#X connect 1 1 8 0;
#X connect 2 0 16 1;
#X connect 2 0 17 1;
#X connect 3 0 2 0;
#X connect 4 0 6 0;
#X connect 5 0 7 0;
#X connect 6 0 16 0;
#X connect 7 0 17 0;
#X connect 8 0 2 0;
#X connect 10 0 9 0;
#X connect 11 0 12 0;
#X connect 12 0 9 0;
#X connect 13 0 11 0;
#X connect 16 0 14 0;
#X connect 17 0 15 0;
#X restore 573 359 pd receive~;
#X msg 461 337 0;
#X msg 578 339 0;
#X text 612 390 assure un crossefade entre deux branchements successifs
;
#X msg 323 265 0;
#X obj 178 99 select 0;
#X obj 287 175 tabread SLOTS_MAP;
#X obj 413 179 tabread SLOTS_MAP;
#X obj 571 154 f;
#X msg 638 277 0;
#X obj 593 181 select 0;
#N canvas 416 113 718 686 glocal.dollarzero 0;
#X obj 379 7 loadbang;
#X obj 379 66 v GLOCAL.current;
#X obj 379 95 select 0;
#X obj 155 66 spigot 1;
#X msg 456 146 0;
#X text 501 28 hot plug;
#X obj 380 36 delay 1;
#X obj 155 37 r GLOCAL.base;
#X obj 155 101 moses \$0;
#X obj 155 150 max;
#X obj 155 179 t f f;
#X obj 234 229 outlet;
#X connect 0 0 6 0;
#X connect 1 0 2 0;
#X connect 2 1 4 0;
#X connect 2 1 11 0;
#X connect 3 0 8 0;
#X connect 4 0 3 1;
#X connect 6 0 1 0;
#X connect 7 0 3 0;
#X connect 8 0 9 0;
#X connect 9 0 10 0;
#X connect 10 0 11 0;
#X connect 10 1 9 1;
#X restore 402 9 pd glocal.dollarzero;
#X obj 666 25 glocal/glocal.receive REFRESH_CONNEXIONS;
#X msg 398 70 set \$1-SLOTS_MAP;
#X obj 383 35 t b f;
#X obj 70 362 print audio_in;
#X connect 0 0 1 0;
#X connect 0 0 17 0;
#X connect 0 1 10 0;
#X connect 1 0 3 0;
#X connect 2 0 19 0;
#X connect 2 1 1 1;
#X connect 3 0 28 0;
#X connect 6 0 18 0;
#X connect 6 0 21 1;
#X connect 7 0 11 0;
#X connect 8 0 9 0;
#X connect 8 0 7 1;
#X connect 9 0 8 1;
#X connect 10 0 7 0;
#X connect 10 1 8 0;
#X connect 11 0 12 0;
#X connect 11 0 15 0;
#X connect 11 1 13 0;
#X connect 11 1 14 0;
#X connect 12 0 4 0;
#X connect 12 1 5 0;
#X connect 13 0 4 0;
#X connect 13 1 5 0;
#X connect 14 0 12 0;
#X connect 15 0 13 0;
#X connect 17 0 10 0;
#X connect 18 0 17 0;
#X connect 18 1 2 0;
#X connect 19 0 0 0;
#X connect 20 0 10 0;
#X connect 21 0 23 0;
#X connect 22 0 10 0;
#X connect 23 0 22 0;
#X connect 23 1 20 0;
#X connect 24 0 27 0;
#X connect 25 0 21 0;
#X connect 26 0 20 0;
#X connect 26 0 19 0;
#X connect 27 0 21 0;
#X connect 27 1 26 0;
#X restore 359 316 pd get_audio_from_module;
#X obj 126 629 delay 100;
#X obj 311 586 r \$0-module-slot;
#X obj 218 617 t b b;
#X obj 762 573 tgl 15 0 empty empty empty 17 7 0 10 -262144 -1 -1 0
1;
#X obj 770 528 * 127;
#X obj 846 386 u_parameter \$0 module-slot;
#X obj 145 542 outlet~ left;
#X obj 250 542 outlet~ right;
#X obj 845 283 module_loader audio_in \$0 \$1;
#X obj 840 245 inlet data;
#X obj 848 573 outlet data;
#X obj 166 253 inlet~;
#X obj 226 253 inlet~;
#X obj 196 505 meter \$0;
#N canvas 0 57 1920 1023 check_glocal_bus 0;
#X obj 87 17 inlet;
#X obj 93 263 outlet;
#X obj 105 131 glocal/glocal.dollarzero;
#X obj 87 100 t a b;
#X msg 120 223 list \$1-\$2 \$1-\$3;
#X obj 86 182 route 0;
#X obj 86 162 list prepend 0;
#X obj 60 225 list;
#X text 26 299 if glocal.dollarzero == 0 \, we are in global mode \,
else in local mode;
#X obj 87 39 list trim;
#X obj 270 227 list;
#X obj 86 66 route GLOCAL;
#X text 287 127 get dollarzero from (gran)parent patch;
#X text 284 142 if glocal mode is active;
#X connect 0 0 9 0;
#X connect 2 0 6 1;
#X connect 3 0 6 0;
#X connect 3 1 2 0;
#X connect 4 0 1 0;
#X connect 5 0 7 0;
#X connect 5 1 4 0;
#X connect 6 0 5 0;
#X connect 7 0 1 0;
#X connect 9 0 11 0;
#X connect 10 0 1 0;
#X connect 11 0 3 0;
#X connect 11 1 10 0;
#X restore 201 202 pd check_glocal_bus;
#X obj 479 558 glocal/glocal.send ACTION;
#X obj 353 120 r \$0-module-slot;
#X obj 353 143 select 0;
#X obj 403 168 t b;
#X msg 345 192 symbol MODULE;
#X obj 1231 279 namecanvas \$0-this;
#X obj 1229 256 triggered_loadbang \$0-this;
#X text 1224 206 manually trigger loadbang if the instance of abstraction
is created dynamically, f 29;
#X obj 985 237 savestate;
#X obj 227 21 adc~ 1 2 3 4;
#N canvas 0 57 1920 1023 (subpatch) 0;
#X obj 200 200 tgl 15 0 \$0-l1 \$0-l1-rcv 1| 1 7 0 15 -233017 -233017
-1 0 1;
#X obj 94 132 inlet~;
#X obj 96 412 outlet~;
#X obj 392 412 switch~;
#X obj 335 243 select 0 1;
#X obj 92 369 *~;
#X obj 184 311 lop~ 10;
#X msg 186 275 0;
#X msg 231 271 1;
#X msg 356 384 0;
#X msg 270 314 stop;
#X msg 389 289 1;
#X obj 257 354 delay 200;
#X text 249 61 no-plop switcher;
#X floatatom 303 87 5 0 0 0 - - -, f 5;
#X msg 283 120 color 10 10 -1;
#X msg 384 133 color 16 16 -1;
#X msg 458 164 label du;
#X obj 351 207 r \$0-l1;
#X obj 128 264 s \$0-in;
#X msg 117 216 CUSTOM;
#X connect 0 0 20 0;
#X connect 1 0 5 0;
#X connect 4 0 7 0;
#X connect 4 0 15 0;
#X connect 4 1 8 0;
#X connect 4 1 10 0;
#X connect 4 1 11 0;
#X connect 4 1 16 0;
#X connect 5 0 2 0;
#X connect 6 0 5 1;
#X connect 7 0 6 0;
#X connect 8 0 6 0;
#X connect 9 0 3 0;
#X connect 10 0 12 0;
#X connect 11 0 3 0;
#X connect 12 0 9 0;
#X connect 14 0 15 0;
#X connect 15 0 0 0;
#X connect 16 0 0 0;
#X connect 17 0 0 0;
#X connect 18 0 4 0;
#X connect 20 0 19 0;
#X coords 0 -1 1 1 15 15 2 200 200;
#X restore 189 140 pd;
#N canvas 0 57 1920 1023 (subpatch) 0;
#X obj 200 200 tgl 15 0 \$0-l2 \$0-l2-rcv 2| 1 7 0 15 -233017 -233017
-1 0 1;
#X obj 94 132 inlet~;
#X obj 96 412 outlet~;
#X obj 392 412 switch~;
#X obj 252 240 select 0 1;
#X obj 92 369 *~;
#X obj 184 311 lop~ 10;
#X msg 186 275 0;
#X msg 231 271 1;
#X msg 356 384 0;
#X msg 270 314 stop;
#X msg 389 289 1;
#X obj 257 354 delay 200;
#X text 249 61 no-plop switcher;
#X floatatom 303 137 5 0 0 0 - - -, f 5;
#X msg 283 170 color 10 10 -1;
#X msg 384 183 color 16 16 -1;
#X msg 458 214 label du;
#X obj 351 207 r \$0-l2;
#X obj 128 264 s \$0-in;
#X msg 117 216 CUSTOM;
#X connect 0 0 20 0;
#X connect 1 0 5 0;
#X connect 4 0 7 0;
#X connect 4 0 15 0;
#X connect 4 1 8 0;
#X connect 4 1 10 0;
#X connect 4 1 11 0;
#X connect 4 1 16 0;
#X connect 5 0 2 0;
#X connect 6 0 5 1;
#X connect 7 0 6 0;
#X connect 8 0 6 0;
#X connect 9 0 3 0;
#X connect 10 0 12 0;
#X connect 11 0 3 0;
#X connect 12 0 9 0;
#X connect 14 0 15 0;
#X connect 15 0 0 0;
#X connect 16 0 0 0;
#X connect 17 0 0 0;
#X connect 18 0 4 0;
#X connect 20 0 19 0;
#X coords 0 -1 1 1 15 15 2 200 200;
#X restore 204 140 pd;
#N canvas 0 57 1920 1023 (subpatch) 0;
#X obj 200 200 tgl 15 0 \$0-l3 \$0-l3-rcv 3| 1 7 0 15 -233017 -233017
-1 0 1;
#X obj 94 132 inlet~;
#X obj 96 412 outlet~;
#X obj 392 412 switch~;
#X obj 252 240 select 0 1;
#X obj 92 369 *~;
#X obj 184 311 lop~ 10;
#X msg 186 275 0;
#X msg 231 271 1;
#X msg 356 384 0;
#X msg 270 314 stop;
#X msg 389 289 1;
#X obj 257 354 delay 200;
#X text 249 61 no-plop switcher;
#X floatatom 303 137 5 0 0 0 - - -, f 5;
#X msg 283 170 color 10 10 -1;
#X msg 384 183 color 16 16 -1;
#X msg 458 214 label du;
#X obj 250 211 r \$0-l3;
#X obj 128 264 s \$0-in;
#X msg 117 216 CUSTOM;
#X connect 0 0 20 0;
#X connect 1 0 5 0;
#X connect 4 0 7 0;
#X connect 4 0 15 0;
#X connect 4 1 8 0;
#X connect 4 1 10 0;
#X connect 4 1 11 0;
#X connect 4 1 16 0;
#X connect 5 0 2 0;
#X connect 6 0 5 1;
#X connect 7 0 6 0;
#X connect 8 0 6 0;
#X connect 9 0 3 0;
#X connect 10 0 12 0;
#X connect 11 0 3 0;
#X connect 12 0 9 0;
#X connect 14 0 15 0;
#X connect 15 0 0 0;
#X connect 16 0 0 0;
#X connect 17 0 0 0;
#X connect 18 0 4 0;
#X connect 20 0 19 0;
#X coords 0 -1 1 1 15 15 2 200 200;
#X restore 219 140 pd;
#N canvas 0 57 1920 1023 (subpatch) 0;
#X obj 200 200 tgl 15 0 \$0-l4 \$0-l4-rcv 4| 1 7 0 15 -233017 -233017
-1 0 1;
#X obj 94 132 inlet~;
#X obj 96 412 outlet~;
#X obj 392 412 switch~;
#X obj 252 240 select 0 1;
#X obj 92 369 *~;
#X obj 184 311 lop~ 10;
#X msg 186 275 0;
#X msg 231 271 1;
#X msg 356 384 0;
#X msg 270 314 stop;
#X msg 389 289 1;
#X obj 257 354 delay 200;
#X text 249 61 no-plop switcher;
#X floatatom 303 137 5 0 0 0 - - -, f 5;
#X msg 283 170 color 10 10 -1;
#X msg 384 183 color 16 16 -1;
#X msg 458 214 label du;
#X obj 351 207 r \$0-l4;
#X obj 128 264 s \$0-in;
#X msg 117 216 CUSTOM;
#X connect 0 0 20 0;
#X connect 1 0 5 0;
#X connect 4 0 7 0;
#X connect 4 0 15 0;
#X connect 4 1 8 0;
#X connect 4 1 10 0;
#X connect 4 1 11 0;
#X connect 4 1 16 0;
#X connect 5 0 2 0;
#X connect 6 0 5 1;
#X connect 7 0 6 0;
#X connect 8 0 6 0;
#X connect 9 0 3 0;
#X connect 10 0 12 0;
#X connect 11 0 3 0;
#X connect 12 0 9 0;
#X connect 14 0 15 0;
#X connect 15 0 0 0;
#X connect 16 0 0 0;
#X connect 17 0 0 0;
#X connect 18 0 4 0;
#X connect 20 0 19 0;
#X coords 0 -1 1 1 15 15 2 200 200;
#X restore 234 140 pd;
#N canvas 0 57 1920 1023 (subpatch) 0;
#X obj 200 200 tgl 15 0 \$0-r1 \$0-r1-rcv 1| 1 7 0 15 -233017 -233017
-1 0 1;
#X obj 94 132 inlet~;
#X obj 96 412 outlet~;
#X obj 392 412 switch~;
#X obj 252 240 select 0 1;
#X obj 92 369 *~;
#X obj 184 311 lop~ 10;
#X msg 186 275 0;
#X msg 231 271 1;
#X msg 356 384 0;
#X msg 270 314 stop;
#X msg 389 289 1;
#X obj 257 354 delay 200;
#X text 249 61 no-plop switcher;
#X floatatom 303 137 5 0 0 0 - - -, f 5;
#X msg 283 170 color 10 10 -1;
#X msg 384 183 color 16 16 -1;
#X msg 458 214 label du;
#X obj 351 207 r \$0-r1;
#X obj 128 264 s \$0-in;
#X msg 117 216 CUSTOM;
#X connect 0 0 20 0;
#X connect 1 0 5 0;
#X connect 4 0 7 0;
#X connect 4 0 15 0;
#X connect 4 1 8 0;
#X connect 4 1 10 0;
#X connect 4 1 11 0;
#X connect 4 1 16 0;
#X connect 5 0 2 0;
#X connect 6 0 5 1;
#X connect 7 0 6 0;
#X connect 8 0 6 0;
#X connect 9 0 3 0;
#X connect 10 0 12 0;
#X connect 11 0 3 0;
#X connect 12 0 9 0;
#X connect 14 0 15 0;
#X connect 15 0 0 0;
#X connect 16 0 0 0;
#X connect 17 0 0 0;
#X connect 18 0 4 0;
#X connect 20 0 19 0;
#X coords 0 -1 1 1 15 15 2 200 200;
#X restore 189 155 pd;
#N canvas 0 57 1920 1023 (subpatch) 0;
#X obj 200 200 tgl 15 0 \$0-r2 \$0-r2-rcv 2| 1 7 0 15 -233017 -233017
-1 0 1;
#X obj 94 132 inlet~;
#X obj 96 412 outlet~;
#X obj 392 412 switch~;
#X obj 252 240 select 0 1;
#X obj 92 369 *~;
#X obj 184 311 lop~ 10;
#X msg 186 275 0;
#X msg 231 271 1;
#X msg 356 384 0;
#X msg 270 314 stop;
#X msg 389 289 1;
#X obj 257 354 delay 200;
#X text 249 61 no-plop switcher;
#X floatatom 303 137 5 0 0 0 - - -, f 5;
#X msg 283 170 color 10 10 -1;
#X msg 384 183 color 16 16 -1;
#X msg 458 214 label du;
#X obj 351 207 r \$0-r2;
#X obj 128 264 s \$0-in;
#X msg 117 216 CUSTOM;
#X connect 0 0 20 0;
#X connect 1 0 5 0;
#X connect 4 0 7 0;
#X connect 4 0 15 0;
#X connect 4 1 8 0;
#X connect 4 1 10 0;
#X connect 4 1 11 0;
#X connect 4 1 16 0;
#X connect 5 0 2 0;
#X connect 6 0 5 1;
#X connect 7 0 6 0;
#X connect 8 0 6 0;
#X connect 9 0 3 0;
#X connect 10 0 12 0;
#X connect 11 0 3 0;
#X connect 12 0 9 0;
#X connect 14 0 15 0;
#X connect 15 0 0 0;
#X connect 16 0 0 0;
#X connect 17 0 0 0;
#X connect 18 0 4 0;
#X connect 20 0 19 0;
#X coords 0 -1 1 1 15 15 2 200 200;
#X restore 204 155 pd;
#N canvas 0 57 1920 1023 (subpatch) 0;
#X obj 200 200 tgl 15 0 \$0-r3 \$0-r3-rcv 3| 1 7 0 15 -233017 -233017
-1 0 1;
#X obj 94 132 inlet~;
#X obj 96 412 outlet~;
#X obj 392 412 switch~;
#X obj 252 240 select 0 1;
#X obj 92 369 *~;
#X obj 184 311 lop~ 10;
#X msg 186 275 0;
#X msg 231 271 1;
#X msg 356 384 0;
#X msg 270 314 stop;
#X msg 389 289 1;
#X obj 257 354 delay 200;
#X text 249 61 no-plop switcher;
#X floatatom 303 137 5 0 0 0 - - -, f 5;
#X msg 283 170 color 10 10 -1;
#X msg 384 183 color 16 16 -1;
#X msg 458 214 label du;
#X obj 351 207 r \$0-r3;
#X obj 128 264 s \$0-in;
#X msg 117 216 CUSTOM;
#X connect 0 0 20 0;
#X connect 1 0 5 0;
#X connect 4 0 7 0;
#X connect 4 0 15 0;
#X connect 4 1 8 0;
#X connect 4 1 10 0;
#X connect 4 1 11 0;
#X connect 4 1 16 0;
#X connect 5 0 2 0;
#X connect 6 0 5 1;
#X connect 7 0 6 0;
#X connect 8 0 6 0;
#X connect 9 0 3 0;
#X connect 10 0 12 0;
#X connect 11 0 3 0;
#X connect 12 0 9 0;
#X connect 14 0 15 0;
#X connect 15 0 0 0;
#X connect 16 0 0 0;
#X connect 17 0 0 0;
#X connect 18 0 4 0;
#X connect 20 0 19 0;
#X coords 0 -1 1 1 15 15 2 200 200;
#X restore 219 155 pd;
#N canvas 0 57 1920 1023 (subpatch) 0;
#X obj 200 200 tgl 15 0 \$0-r4 \$0-r4-rcv 4| 1 7 0 15 -233017 -233017
-1 0 1;
#X obj 94 132 inlet~;
#X obj 96 412 outlet~;
#X obj 392 412 switch~;
#X obj 252 240 select 0 1;
#X obj 92 369 *~;
#X obj 184 311 lop~ 10;
#X msg 186 275 0;
#X msg 231 271 1;
#X msg 356 384 0;
#X msg 270 314 stop;
#X msg 389 289 1;
#X obj 257 354 delay 200;
#X text 249 61 no-plop switcher;
#X floatatom 303 137 5 0 0 0 - - -, f 5;
#X msg 283 170 color 10 10 -1;
#X msg 384 183 color 16 16 -1;
#X msg 458 214 label du;
#X obj 351 207 r \$0-r4;
#X obj 128 264 s \$0-in;
#X msg 117 216 CUSTOM;
#X connect 0 0 20 0;
#X connect 1 0 5 0;
#X connect 4 0 7 0;
#X connect 4 0 15 0;
#X connect 4 1 8 0;
#X connect 4 1 10 0;
#X connect 4 1 11 0;
#X connect 4 1 16 0;
#X connect 5 0 2 0;
#X connect 6 0 5 1;
#X connect 7 0 6 0;
#X connect 8 0 6 0;
#X connect 9 0 3 0;
#X connect 10 0 12 0;
#X connect 11 0 3 0;
#X connect 12 0 9 0;
#X connect 14 0 15 0;
#X connect 15 0 0 0;
#X connect 16 0 0 0;
#X connect 17 0 0 0;
#X connect 18 0 4 0;
#X connect 20 0 19 0;
#X coords 0 -1 1 1 15 15 2 200 200;
#X restore 234 155 pd;
#X text 178 139 L;
#X text 178 152 R;
#N canvas 964 302 886 530 patchbay-l 0;
#X obj 69 20 inlet;
#X obj 66 129 outlet;
#X msg 97 98 symbol no-in;
#X obj 205 209 s \$0-l1;
#X obj 265 209 s \$0-l2;
#X obj 315 208 s \$0-l3;
#X obj 375 208 s \$0-l4;
#X msg 216 94 1 0 0 0;
#X obj 215 167 unpack f f f f;
#X msg 276 94 0 1 0 0;
#X msg 336 93 0 0 1 0;
#X msg 396 93 0 0 0 1;
#X msg 319 69 0 0 0 0;
#X obj 70 46 select IN1 IN2 IN3 IN4 custom;
#X connect 0 0 13 0;
#X connect 2 0 1 0;
#X connect 7 0 8 0;
#X connect 8 0 3 0;
#X connect 8 1 4 0;
#X connect 8 2 5 0;
#X connect 8 3 6 0;
#X connect 9 0 8 0;
#X connect 10 0 8 0;
#X connect 11 0 8 0;
#X connect 12 0 8 0;
#X connect 13 0 2 0;
#X connect 13 0 7 0;
#X connect 13 1 2 0;
#X connect 13 1 9 0;
#X connect 13 2 2 0;
#X connect 13 2 10 0;
#X connect 13 3 2 0;
#X connect 13 3 11 0;
#X connect 13 5 12 0;
#X connect 13 5 1 0;
#X restore 205 321 pd patchbay-l;
#N canvas 0 50 886 530 patchbay-r 0;
#X obj 69 20 inlet;
#X obj 66 129 outlet;
#X msg 97 98 symbol no-in;
#X msg 216 94 1 0 0 0;
#X obj 222 147 unpack f f f f;
#X msg 276 94 0 1 0 0;
#X msg 336 93 0 0 1 0;
#X msg 396 93 0 0 0 1;
#X obj 205 209 s \$0-r1;
#X obj 264 209 s \$0-r2;
#X obj 315 208 s \$0-r3;
#X obj 375 208 s \$0-r4;
#X msg 181 125 0 0 0 0;
#X obj 70 46 select IN1 IN2 IN3 IN4 custom;
#X connect 0 0 13 0;
#X connect 2 0 1 0;
#X connect 3 0 4 0;
#X connect 4 0 8 0;
#X connect 4 1 9 0;
#X connect 4 2 10 0;
#X connect 4 3 11 0;
#X connect 5 0 4 0;
#X connect 6 0 4 0;
#X connect 7 0 4 0;
#X connect 12 0 4 0;
#X connect 13 0 2 0;
#X connect 13 0 3 0;
#X connect 13 1 2 0;
#X connect 13 1 5 0;
#X connect 13 2 2 0;
#X connect 13 2 6 0;
#X connect 13 3 2 0;
#X connect 13 3 7 0;
#X connect 13 5 12 0;
#X connect 13 5 1 0;
#X restore 296 292 pd patchbay-r;
#X obj 846 408 u_parameter \$0 l1;
#X obj 846 428 u_parameter \$0 l2;
#X obj 848 448 u_parameter \$0 l3;
#X obj 846 468 u_parameter \$0 l4;
#X obj 846 488 u_parameter \$0 r1;
#X obj 846 508 u_parameter \$0 r2;
#X obj 846 528 u_parameter \$0 r3;
#X obj 846 548 u_parameter \$0 r4;
#X obj 804 33 declare -path ../../../core;
#X obj 804 53 declare -path ../../../core/stuff;
#X obj 804 73 declare -path ../../../core/rj;
#X connect 0 0 3 0;
#X connect 1 0 4 0;
#X connect 2 0 10 0;
#X connect 3 0 5 0;
#X connect 4 0 6 0;
#X connect 5 0 61 0;
#X connect 5 0 68 0;
#X connect 6 0 62 0;
#X connect 6 0 68 1;
#X connect 7 0 6 1;
#X connect 7 0 5 1;
#X connect 8 0 12 0;
#X connect 9 0 11 0;
#X connect 10 0 16 0;
#X connect 11 0 13 0;
#X connect 12 0 7 0;
#X connect 13 0 19 0;
#X connect 14 0 15 0;
#X connect 14 1 13 0;
#X connect 15 0 12 0;
#X connect 16 0 60 0;
#X connect 17 0 14 0;
#X connect 17 1 18 0;
#X connect 18 0 19 1;
#X connect 19 0 8 0;
#X connect 21 0 17 0;
#X connect 22 0 24 1;
#X connect 22 0 59 0;
#X connect 23 0 24 0;
#X connect 24 0 25 0;
#X connect 25 0 20 0;
#X connect 25 0 58 0;
#X connect 26 0 23 0;
#X connect 31 0 26 0;
#X connect 33 0 34 0;
#X connect 34 0 37 0;
#X connect 34 0 44 0;
#X connect 34 1 69 0;
#X connect 35 0 90 0;
#X connect 35 1 91 0;
#X connect 37 0 41 0;
#X connect 37 1 36 0;
#X connect 37 2 42 0;
#X connect 38 0 43 0;
#X connect 39 0 33 0;
#X connect 40 0 39 0;
#X connect 41 0 43 1;
#X connect 42 0 43 1;
#X connect 43 0 40 0;
#X connect 44 0 55 0;
#X connect 44 1 57 0;
#X connect 45 0 49 0;
#X connect 45 0 74 0;
#X connect 47 0 54 0;
#X connect 48 0 54 0;
#X connect 49 0 51 0;
#X connect 50 0 70 0;
#X connect 51 0 50 0;
#X connect 53 0 46 0;
#X connect 54 0 3 1;
#X connect 54 1 4 1;
#X connect 55 0 48 0;
#X connect 56 0 48 1;
#X connect 57 0 55 0;
#X connect 57 1 53 0;
#X connect 59 0 31 0;
#X connect 60 0 92 0;
#X connect 63 0 2 0;
#X connect 63 1 78 0;
#X connect 64 0 63 0;
#X connect 66 0 3 0;
#X connect 67 0 4 0;
#X connect 69 0 35 0;
#X connect 71 0 72 0;
#X connect 72 1 73 0;
#X connect 73 0 74 0;
#X connect 74 0 39 0;
#X connect 78 0 63 1;
#X connect 78 1 63 2;
#X connect 79 0 80 0;
#X connect 79 0 84 0;
#X connect 79 1 81 0;
#X connect 79 1 85 0;
#X connect 79 2 82 0;
#X connect 79 2 86 0;
#X connect 79 3 83 0;
#X connect 79 3 87 0;
#X connect 80 0 3 0;
#X connect 81 0 3 0;
#X connect 82 0 3 0;
#X connect 83 0 3 0;
#X connect 84 0 4 0;
#X connect 85 0 4 0;
#X connect 86 0 4 0;
#X connect 87 0 4 0;
#X connect 90 0 0 0;
#X connect 91 0 1 0;
#X connect 92 0 93 0;
#X connect 93 0 94 0;
#X connect 94 0 95 0;
#X connect 95 0 96 0;
#X connect 96 0 97 0;
#X connect 97 0 98 0;
#X connect 98 0 99 0;
#X connect 99 0 65 0;
#X coords 0 -1 1 1 190 70 1 100 100;
