#N canvas 56 177 1414 766 12;
#X declare -path ../../../core;
#X declare -path ../../../core/rj;
#X declare -path ../../../core/stuff;
#X obj 278 100 tgl 23 0 \$0-scene_previous \$0-scene_previous-rcv ↑
2 10 0 30 -233017 -1 -1 0 1;
#X obj 301 100 tgl 23 0 \$0-scene_next \$0-scene_next-rcv ↓ 2 10
0 30 -233017 -1 -1 0 1;
#X obj 200 100 tgl 23 0 \$0-scene_stop \$0-scene_stop-rcv ■ 6 10
0 20 -257472 -1 -1 0 1;
#X obj 205 498 outlet;
#X msg 603 603 launch \$1;
#X msg 523 600 stop all;
#X obj 20 502 outlet~;
#X obj 79 504 outlet~;
#X obj 19 34 inlet~;
#X obj 79 34 inlet~;
#X obj 200 34 inlet;
#X obj 202 266 t a a;
#X obj 226 529 route clipmaster;
#X obj 435 729 s;
#X obj 487 654 symbol;
#X obj 550 97 hradio 15 1 0 5 \$0-guitab \$0-guitab-rcv empty 0 -8
0 10 -191407 -1 -1 0;
#X obj 534 65 namecanvas \$0-multitab;
#X text 552 13 gui interaction;
#N canvas 756 244 1065 605 ui_multitab 0;
#X msg 38 100 set \$1;
#X text 221 263 Xunits/pixel Yunits/px gop xfrom yfrom xto yto width
heught xmargin ymargin;
#X obj 199 90 t f b;
#X obj 76 188 * 100;
#X obj 78 209 + 100;
#X obj 72 272 t b f;
#X obj 227 128 f 100;
#X text 574 189 momentary disable Graph on Parent to force redrawing
in parent canvas;
#X text 627 312 re-enable graph on parent with new values;
#X obj 73 245 pipe 10;
#X obj 168 40 r \$0-guitab;
#X obj 37 138 s \$0-guitab-rcv;
#X obj 272 443 s \$0-multitab;
#X msg 230 202 donecanvasdialog 1 -1 0 0 0 1 1 190 23 200 \$1;
#X msg 218 314 donecanvasdialog 1 -1 3 0 0 1 1 190 23 200 \$1 \, dirty
0;
#X text 426 385 pd >= 0.51;
#X connect 0 0 11 0;
#X connect 2 0 3 0;
#X connect 2 1 6 0;
#X connect 3 0 4 0;
#X connect 4 0 6 1;
#X connect 4 0 9 0;
#X connect 5 1 14 0;
#X connect 6 0 13 0;
#X connect 9 0 5 0;
#X connect 10 0 0 0;
#X connect 10 0 2 0;
#X connect 13 0 12 0;
#X connect 14 0 12 0;
#X restore 533 35 pd ui_multitab \$0;
#X text 258 61 MASTER;
#X text 207 201 TRACK;
#X msg 245 621 1;
#X obj 230 563 t a b b;
#X msg 276 617 0;
#X obj 244 683 s \$0-guitab;
#X obj 227 650 change;
#X obj 275 590 delay 3000;
#X obj 938 387 r PdRacks.CLIP_HEAD;
#X obj 934 487 spigot;
#X obj 973 454 r \$0-slave_mode;
#X obj 217 709 s \$0-slave_mode;
#X obj 667 706 s PdRacks.CLIP_HEAD;
#X obj 927 567 list prepend launch;
#X obj 937 597 list prepend stop;
#X obj 857 629 list trim;
#X obj 397 503 t b;
#X msg 403 557 launch \$1;
#X obj 401 530 f 1;
#X obj 257 200 tgl 23 0 \$0-clip_stop \$0-clip_stop-rcv ■ 6 10 0
20 -257472 -1 -1 0 1;
#X msg 427 608 stop all;
#X obj 606 572 f 1;
#X obj 255 100 tgl 23 0 \$0-scene_launch \$0-scene_launch-rcv ► 1
10 0 28 -233017 -1 -1 0 1;
#X text 264 101 |;
#X text 265 101 |;
#X text 269 101 |;
#X text 270 101 |;
#X obj 286 200 tgl 23 0 \$0-clip_launch \$0-clip_launch-rcv ► 1 10
0 28 -233017 -1 -1 0 1;
#X text 295 201 |;
#X text 296 201 |;
#X text 300 201 |;
#X text 301 201 |;
#X obj 819 24 declare -path ../../../core;
#X obj 819 54 declare -path ../../../core/rj;
#X obj 819 84 declare -path ../../../core/stuff;
#N canvas 538 47 1287 808 midi_mapping 0;
#X obj 75 17 pdr/core/stuff/midi-colors \$0 scene_previous \$0-scene_previous-rcv
, f 76;
#X obj 279 45 pdr/core/stuff/midi-colors \$0 scene_next \$0-scene_next-rcv
, f 73;
#X obj 42 272 pdr/core/stuff/midi-colors \$0 scene_launch \$0-scene_launch-rcv
, f 71;
#X obj 967 716 text define -k \$0-PdRacks.colors;
#A set scene_previous 10 10 \; scene_next 10 10 \; scene_launch 10
10 \; scene_stop 9 9 \; scene 65 65 \; clip_launch 10 10 \; clip_stop
9 9 \;;
#X obj 966 639 loadbang;
#X msg 966 664 1;
#X obj 969 688 v \$0-PdRacks.colors;
#X obj 961 30 r \$0-scene_previous;
#X msg 961 55 set 0;
#X obj 961 85 s \$0-scene_previous-rcv;
#X msg 955 148 set 0;
#X obj 955 123 r \$0-scene_next;
#X obj 955 178 s \$0-scene_next-rcv;
#X msg 965 238 set 0;
#X obj 965 213 r \$0-scene_launch;
#X obj 965 268 s \$0-scene_launch-rcv;
#X obj 70 451 pdr/core/stuff/midi-colors \$0 scene \$0-scene-rcv,
f 71;
#X obj 70 535 s \$0-scene;
#X obj 42 322 change;
#X obj 42 347 select 1;
#X obj 42 372 s \$0-scene_launch;
#X msg 1125 238 set 0;
#X obj 1125 213 r \$0-scene_stop;
#X obj 1125 268 s \$0-scene_stop-rcv;
#X obj 361 318 pdr/core/stuff/midi-colors \$0 scene_stop \$0-scene_stop-rcv
, f 71;
#X obj 360 371 change;
#X obj 360 396 select 1;
#X obj 360 421 s \$0-scene_stop;
#X obj 71 78 change;
#X obj 71 103 select 1;
#X obj 285 98 change;
#X obj 285 123 select 1;
#X obj 71 128 s \$0-scene_previous;
#X obj 285 148 s \$0-scene_next;
#X obj 71 53 > 20;
#X obj 285 73 > 20;
#X obj 42 297 > 20;
#X obj 360 346 > 20;
#X obj 52 612 change;
#X obj 52 637 select 1;
#X obj 370 661 change;
#X obj 370 686 select 1;
#X obj 52 587 > 20;
#X obj 370 636 > 20;
#X obj 52 562 pdr/core/stuff/midi-colors \$0 clip_launch \$0-clip_launch-rcv
, f 71;
#X obj 371 608 pdr/core/stuff/midi-colors \$0 clip_stop \$0-clip_stop-rcv
, f 71;
#X msg 944 463 set 0;
#X msg 1104 463 set 0;
#X obj 944 438 r \$0-clip_launch;
#X obj 1104 438 r \$0-clip_stop;
#X obj 944 493 s \$0-clip_launch-rcv;
#X obj 1104 493 s \$0-clip_stop-rcv;
#X obj 52 662 s \$0-clip_launch;
#X obj 370 711 s \$0-clip_stop;
#X obj 70 470 int;
#X obj 70 512 change;
#X obj 70 491 max 1;
#X connect 0 0 34 0;
#X connect 1 0 35 0;
#X connect 2 0 36 0;
#X connect 4 0 5 0;
#X connect 5 0 6 0;
#X connect 7 0 8 0;
#X connect 8 0 9 0;
#X connect 10 0 12 0;
#X connect 11 0 10 0;
#X connect 13 0 15 0;
#X connect 14 0 13 0;
#X connect 16 0 54 0;
#X connect 18 0 19 0;
#X connect 19 0 20 0;
#X connect 21 0 23 0;
#X connect 22 0 21 0;
#X connect 24 0 37 0;
#X connect 25 0 26 0;
#X connect 26 0 27 0;
#X connect 28 0 29 0;
#X connect 29 0 32 0;
#X connect 30 0 31 0;
#X connect 31 0 33 0;
#X connect 34 0 28 0;
#X connect 35 0 30 0;
#X connect 36 0 18 0;
#X connect 37 0 25 0;
#X connect 38 0 39 0;
#X connect 39 0 52 0;
#X connect 40 0 41 0;
#X connect 41 0 53 0;
#X connect 42 0 38 0;
#X connect 43 0 40 0;
#X connect 44 0 42 0;
#X connect 45 0 43 0;
#X connect 46 0 50 0;
#X connect 47 0 51 0;
#X connect 48 0 46 0;
#X connect 49 0 47 0;
#X connect 54 0 56 0;
#X connect 55 0 17 0;
#X connect 56 0 55 0;
#X restore 604 335 pd midi_mapping;
#X obj 768 221 pdr/core/stuff/module_loader clip_control \$0;
#X obj 324 100 nbx 3 23 1 9999 0 0 \$0-scene \$0-scene-rcv empty 0
-8 0 20 -262131 -1 -1 1 256;
#X obj 768 246 u_parameter \$0 scene;
#X obj 940 184 savestate;
#N canvas 0 50 450 300 load_defaults 0;
#X obj 117 50 loadbang;
#X msg 117 75 scene 1;
#X obj 123 201 outlet;
#X connect 0 0 1 0;
#X connect 1 0 2 0;
#X restore 768 150 pd load_defaults;
#X obj 339 201 cnv 15 50 21 empty \$0-scene_cnv-rcv [1] 1 12 0 14 -204786
-66577 0;
#X obj 1157 599 s \$0-scene_cnv-rcv;
#N canvas 0 50 755 569 scene_select 0;
#X obj 137 94 t b b;
#X obj 213 184 +;
#X msg 172 131 1;
#X obj 68 110 t b b;
#X msg 93 140 -1;
#X obj 175 225 max 1;
#X obj 123 199 f 1;
#X obj 101 29 r \$0-scene_previous;
#X obj 135 65 r \$0-scene_next;
#X msg 282 189 scene_select \$1;
#X obj 255 119 r \$0-scene;
#X obj 179 397 s \$0-scene;
#X obj 265 149 t f f;
#X obj 282 214 outlet;
#X obj 461 163 route showLastUsed;
#X obj 463 138 glocal/glocal.receive RACK_ADMIN;
#X obj 382 305 == 0;
#X obj 177 311 spigot 1;
#X connect 0 0 6 0;
#X connect 0 1 2 0;
#X connect 1 0 6 1;
#X connect 2 0 1 0;
#X connect 3 0 6 0;
#X connect 3 1 4 0;
#X connect 4 0 1 0;
#X connect 5 0 17 0;
#X connect 6 0 5 0;
#X connect 7 0 3 0;
#X connect 8 0 0 0;
#X connect 9 0 13 0;
#X connect 10 0 12 0;
#X connect 12 0 9 0;
#X connect 12 1 1 1;
#X connect 14 0 16 0;
#X connect 15 0 14 0;
#X connect 16 0 17 1;
#X connect 17 0 11 0;
#X restore 670 639 pd scene_select;
#X obj 627 532 r \$0-scene;
#X obj 593 495 r \$0-scene_launch;
#X obj 593 520 t b;
#X obj 519 440 r \$0-scene_stop;
#X obj 393 476 r \$0-clip_launch;
#X obj 426 587 r \$0-clip_stop;
#X msg 1145 561 label [\$1];
#X obj 933 512 route launch stop scene_select;
#X obj 230 397 route clip;
#X msg 1110 640 highlight \$1;
#X connect 4 0 31 0;
#X connect 5 0 31 0;
#X connect 8 0 6 0;
#X connect 9 0 7 0;
#X connect 10 0 11 0;
#X connect 11 0 3 0;
#X connect 11 1 71 0;
#X connect 12 0 22 0;
#X connect 14 0 13 1;
#X connect 21 0 25 0;
#X connect 22 0 14 0;
#X connect 22 1 21 0;
#X connect 22 2 26 0;
#X connect 23 0 25 0;
#X connect 25 0 24 0;
#X connect 25 0 30 0;
#X connect 26 0 23 0;
#X connect 27 0 28 0;
#X connect 28 0 70 0;
#X connect 29 0 28 1;
#X connect 32 0 34 0;
#X connect 33 0 34 0;
#X connect 34 0 13 0;
#X connect 35 0 37 0;
#X connect 36 0 13 0;
#X connect 37 0 36 0;
#X connect 39 0 13 0;
#X connect 40 0 4 0;
#X connect 55 0 57 0;
#X connect 55 1 58 0;
#X connect 58 0 55 1;
#X connect 58 1 55 2;
#X connect 59 0 55 0;
#X connect 62 0 31 0;
#X connect 63 0 40 1;
#X connect 64 0 65 0;
#X connect 65 0 40 0;
#X connect 66 0 5 0;
#X connect 67 0 35 0;
#X connect 68 0 39 0;
#X connect 69 0 61 0;
#X connect 70 0 32 0;
#X connect 70 1 33 0;
#X connect 70 2 69 0;
#X connect 70 2 37 1;
#X connect 70 2 72 0;
#X connect 71 0 12 0;
#X connect 72 0 13 0;
#X coords 0 0 1 1 190 23 2 200 100;
