#N canvas 462 56 1375 532 10;
#X declare -path ../../../core;
#X declare -path ../../../core/stuff;
#X declare -path ../../../core/rj;
#X obj 1 1 cnv 15 188 68 \$0-background \$0-background-rcv fx_repeat-0
0 7 0 14 -262144 -1 0;
#X obj 43 208 inlet~;
#X obj 36 364 outlet~;
#X obj 113 208 inlet~;
#X obj 106 364 outlet~;
#X obj 224 216 inlet data;
#X obj 228 369 outlet data;
#X obj 782 265 namecanvas \$0-this;
#X obj 780 242 triggered_loadbang \$0-this;
#X text 775 192 manually trigger loadbang if the instance of abstraction
is created dynamically, f 29;
#X obj 522 141 module_loader fx_repeat \$0 \$1;
#X obj 338 241 table \$0-table-l 44100;
#X obj 338 271 table \$0-table-r 44100;
#N canvas 0 57 1920 1023 repeat 0;
#X obj 92 461 outlet~;
#X obj 103 20 inlet~;
#X obj 82 425 *~;
#X obj 364 380 *~;
#X obj 170 331 lop~ 100;
#X obj 512 363 lop~ 100;
#X obj 471 115 change;
#X msg 356 305 stop;
#X obj 445 243 select 1 0;
#X obj 416 311 metro 100;
#X msg 430 284 1;
#X msg 487 282 0;
#X obj 271 108 == 0;
#X obj 367 23 inlet~;
#X obj 151 160 tabwrite~ \$0-table-l;
#X obj 331 160 tabwrite~ \$0-table-r;
#X obj 282 425 *~;
#X obj 282 447 outlet~;
#X obj 361 333 tabplay~ \$0-table-l;
#X obj 424 470 *~;
#X obj 421 423 tabplay~ \$0-table-r;
#X obj 131 200 loadbang;
#X msg 148 276 1;
#X obj 191 110 spigot 1;
#X obj 219 194 r \$0-repeat;
#X obj 475 39 r \$0-repeat;
#X obj 512 336 r \$0-repeat;
#X obj 241 248 r \$0-rep-att;
#X obj 198 221 select 0 1;
#X obj 241 271 - 1;
#X obj 241 294 * -1;
#X obj 203 293 f 1;
#X obj 576 279 r \$0-time;
#X obj 385 100 bng 15 250 50 0 empty empty empty 17 7 0 10 -262144
-1 -1;
#X obj 633 76 env~;
#X obj 621 131 f;
#X obj 604 184 <;
#X msg 699 243 0;
#X msg 659 240 1;
#X obj 683 278 change;
#X obj 696 203 select 1;
#X floatatom 633 99 5 0 0 0 - - -;
#X obj 621 154 - 3;
#X obj 191 53 threshold~ 0.2 100 0.05 1000;
#X obj 674 336 timer;
#X obj 683 301 select 1 0;
#X obj 674 359 t b f;
#X obj 696 398 s \$0-time;
#X obj 619 432 s \$0-repeat;
#X msg 644 383 1;
#X obj 685 42 r \$0-auto;
#X obj 521 91 spigot;
#X obj 521 114 t b b;
#X obj 198 131 t b b;
#X obj 190 81 t b b;
#X connect 1 0 2 0;
#X connect 1 0 14 0;
#X connect 1 0 34 0;
#X connect 1 0 43 0;
#X connect 2 0 0 0;
#X connect 3 0 0 0;
#X connect 4 0 2 1;
#X connect 4 0 16 1;
#X connect 5 0 3 1;
#X connect 5 0 19 1;
#X connect 6 0 8 0;
#X connect 6 0 12 0;
#X connect 7 0 18 0;
#X connect 7 0 20 0;
#X connect 8 0 10 0;
#X connect 8 1 7 0;
#X connect 8 1 11 0;
#X connect 9 0 18 0;
#X connect 9 0 20 0;
#X connect 10 0 9 0;
#X connect 11 0 9 0;
#X connect 12 0 23 1;
#X connect 13 0 15 0;
#X connect 13 0 16 0;
#X connect 16 0 17 0;
#X connect 18 0 3 0;
#X connect 19 0 17 0;
#X connect 20 0 19 0;
#X connect 21 0 22 0;
#X connect 22 0 4 0;
#X connect 23 0 53 0;
#X connect 24 0 28 0;
#X connect 25 0 6 0;
#X connect 26 0 5 0;
#X connect 27 0 29 0;
#X connect 28 0 22 0;
#X connect 28 1 31 0;
#X connect 29 0 30 0;
#X connect 30 0 31 1;
#X connect 31 0 4 0;
#X connect 32 0 9 1;
#X connect 34 0 35 1;
#X connect 34 0 36 0;
#X connect 34 0 41 0;
#X connect 35 0 42 0;
#X connect 36 0 40 0;
#X connect 37 0 39 0;
#X connect 38 0 39 0;
#X connect 39 0 45 0;
#X connect 40 0 37 0;
#X connect 42 0 36 1;
#X connect 43 0 54 0;
#X connect 43 1 33 0;
#X connect 44 0 46 0;
#X connect 45 0 44 0;
#X connect 45 1 44 1;
#X connect 46 0 49 0;
#X connect 46 0 53 0;
#X connect 46 1 47 0;
#X connect 49 0 48 0;
#X connect 50 0 51 1;
#X connect 51 0 52 0;
#X connect 52 0 38 0;
#X connect 52 1 35 0;
#X connect 53 0 14 0;
#X connect 53 1 15 0;
#X connect 54 0 23 0;
#X connect 54 1 51 0;
#X restore 66 276 pd repeat;
#X obj 0 30 tgl 40 0 \$0-repeat \$0-repeat-rcv REPEAT 2 7 0 10 -262144
-1 -1 0 1;
#X obj 681 88 savestate;
#X obj 522 164 u_parameter \$0 repeat;
#X obj 305 31 ui_vs \$0 speed 0 1;
#X obj 625 426 > 0;
#X obj 623 377 * 127;
#X obj 623 355 r \$0-repeat;
#X obj 624 403 midi-colors \$0 repeat \$0-repeat-rcv;
#X obj 620 448 s \$0-repeat;
#X obj 113 15 ui_vs \$0 rep-att 0 1;
#X obj 152 15 ui_vsl \$0 time 20 155;
#N canvas 0 50 450 300 duration 0;
#X obj 215 183 mtof;
#X obj 213 164 * 35;
#X obj 218 205 * 2.5;
#X obj 217 103 - 1;
#X obj 217 140 * -1;
#X obj 221 43 r \$0-speed;
#X obj 218 228 s \$0-time;
#X connect 0 0 2 0;
#X connect 1 0 0 0;
#X connect 2 0 6 0;
#X connect 3 0 4 0;
#X connect 4 0 1 0;
#X connect 5 0 3 0;
#X restore 397 339 pd duration;
#X obj 522 187 u_dispatch \$0 speed;
#X obj 522 207 u_dispatch \$0 rep-att;
#X obj 49 26 tgl 40 0 \$0-auto \$0-auto-rcv AUTO 2 7 0 10 -262144 -1
-1 0 1;
#X obj 522 230 u_dispatch \$0 time;
#X obj 522 254 u_parameter \$0 auto;
#X text 616 331 midi support for repeat & auto buttons;
#X obj 855 426 > 0;
#X obj 853 377 * 127;
#X obj 853 355 r \$0-auto;
#X obj 854 403 midi-colors \$0 auto \$0-auto-rcv;
#X obj 850 448 s \$0-auto;
#N canvas 0 57 1920 1023 repeat 0;
#X obj 86 41 inlet~;
#X floatatom 253 61 5 0 0 0 - - -;
#X obj 148 186 *~;
#X obj 166 162 vline~;
#X msg 167 139 1 10 \, 0 10 \$1;
#X msg 254 37 250;
#X obj 254 348 *~;
#X obj 272 323 vline~;
#X obj 285 36 r \$0-float;
#X obj 339 79 r \$0-feedback;
#X obj 273 162 pack 200 1;
#X obj 254 375 delwrite~ \$0-del 1000;
#X obj 252 195 delread~ \$0-del;
#X msg 273 299 0 \, \$2 10 \$1;
#X obj 339 98 min 1;
#X obj 340 118 max 0;
#X msg 450 371 0 10;
#X obj 405 258 * 0;
#X obj 423 217 r \$0-num;
#X obj 450 351 del;
#X obj 450 329 t b f;
#X obj 405 278 moses 1;
#X obj 264 87 t f f;
#X obj 422 237 - 1;
#N canvas 172 83 586 377 LICENSE-GPL 0;
#X text 57 88 This program is free software: you can redistribute it
and/or modify it under the terms of the GNU General Public License
as published by the Free Software Foundation \, either version 3 of
the License \, or (at your option) any later version.;
#X text 58 168 This program is distributed in the hope that it will
be useful \, but WITHOUT ANY WARRANTY \; without even the implied warranty
of MERCHANTABILITY or FITNESS FOR A PARTICULAR PURPOSE. See the GNU
General Public License for more details.;
#X text 57 261 You should have received a copy of the GNU General Public
License along with this program. If not \, see <http://www.gnu.org/licenses/>.
;
#X text 61 54 Copyright (C) 2009 \, Reality Jockey Ltd.;
#X text 60 325 See the file LICENSE.txt for the full license text.
;
#X restore 532 19 pd LICENSE-GPL;
#X obj 70 390 outlet~;
#X connect 0 0 2 0;
#X connect 1 0 4 0;
#X connect 1 0 12 0;
#X connect 1 0 22 0;
#X connect 2 0 11 0;
#X connect 2 0 25 0;
#X connect 3 0 2 1;
#X connect 4 0 3 0;
#X connect 5 0 1 0;
#X connect 6 0 11 0;
#X connect 7 0 6 1;
#X connect 8 0 1 0;
#X connect 9 0 14 0;
#X connect 10 0 13 0;
#X connect 12 0 6 0;
#X connect 12 0 25 0;
#X connect 13 0 7 0;
#X connect 14 0 15 0;
#X connect 15 0 10 1;
#X connect 16 0 7 0;
#X connect 17 0 21 0;
#X connect 18 0 23 0;
#X connect 19 0 16 0;
#X connect 20 0 19 0;
#X connect 20 1 19 1;
#X connect 21 1 20 0;
#X connect 22 0 17 0;
#X connect 22 1 10 0;
#X connect 23 0 17 1;
#X restore 1068 143 pd repeat;
#X obj 804 33 declare -path ../../../core;
#X obj 804 53 declare -path ../../../core/stuff;
#X obj 804 73 declare -path ../../../core/rj;
#X connect 1 0 13 0;
#X connect 3 0 13 1;
#X connect 5 0 6 0;
#X connect 5 0 10 0;
#X connect 10 0 16 0;
#X connect 10 1 15 0;
#X connect 13 0 2 0;
#X connect 13 1 4 0;
#X connect 15 0 10 1;
#X connect 15 1 10 2;
#X connect 16 0 26 0;
#X connect 18 0 22 0;
#X connect 19 0 21 0;
#X connect 20 0 19 0;
#X connect 21 0 18 0;
#X connect 26 0 27 0;
#X connect 27 0 29 0;
#X connect 29 0 30 0;
#X connect 32 0 36 0;
#X connect 33 0 35 0;
#X connect 34 0 33 0;
#X connect 35 0 32 0;
#X coords 0 -1 1 1 190 70 1 0 0;
