#N canvas 981 231 645 391 10;
#X declare -path pdr/modules/basic;
#X declare -path ../../../core/rj;
#X obj 71 169 fx_repeat;
#A saved auto 0;
#A saved time 74.2607;
#A saved rep-att 0.790053;
#A saved repeat 0;
#A saved SID 0;
#X text 36 17 Freeze loop (repeat) sur attaque;
#X obj 488 44 pdr;
#N canvas 0 50 450 300 \$0-PdRacks.declare 0;
#X obj 10 10 declare -path pdr/modules/basic;
#X obj 10 60 pdr/core/stuff/u_glocal.enable \$0;
#A saved modules_set # List of modules to load;
#A saved modules_set # you can add new sets of modules here;
#A saved modules_set # (ctrl/cmd + s to save and close);
#A saved modules_set basic;
#X restore 488 89 pd \$0-PdRacks.declare;
#X obj 75 310 dac~;
#N canvas 0 50 450 300 vol 0;
#X obj 103 125 hsl 128 15 0 100 0 0 empty empty 0_dB 50 -8 0 10 -204800
-1 -1 12700 1;
#X obj 99 145 dbtorms;
#X obj 99 168 lop~ 1;
#X obj 44 53 inlet~;
#X obj 94 53 inlet~;
#X obj 49 257 outlet~;
#X obj 114 257 outlet~;
#X obj 39 209 *~;
#X obj 69 209 *~;
#X obj 184 175 - 100;
#X msg 184 198 label \$1_dB;
#X connect 0 0 1 0;
#X connect 0 0 9 0;
#X connect 1 0 2 0;
#X connect 2 0 8 1;
#X connect 2 0 7 1;
#X connect 3 0 7 0;
#X connect 4 0 8 0;
#X connect 7 0 5 0;
#X connect 8 0 6 0;
#X connect 9 0 10 0;
#X connect 10 0 0 0;
#X coords 0 -1 1 1 133 40 1 100 100;
#X restore 74 253 pd vol;
#N canvas 0 0 793 336 song 0;
#X floatatom 163 194 5 0 0 0 - - -;
#X floatatom 155 106 5 0 0 0 - - -;
#X obj 155 250 pack 0 0;
#X obj 155 171 m_majorscale 60;
#X obj 155 271 u_makepoly 8 1 s_rhodey \$0-piano;
#X obj 155 220 makenote 20 1000;
#X obj 212 104 tgl 15 0 empty empty empty 17 7 0 10 -262144 -1 -1 1
1;
#N canvas 359 223 592 507 play-a-little-song-for-me 0;
#X msg 133 301 0 \, 2 \, 3 \, 5 \, 8 \, 9;
#X msg 100 326 0 \, 2 \, 4 \, 6 \, 8;
#X obj 238 223 random 7;
#X obj 139 237 ==;
#X obj 100 237 f;
#X obj 100 266 select 0 1;
#X obj 100 390 outlet;
#X obj 206 52 inlet;
#X obj 272 55 tgl 15 0 empty empty empty 17 7 0 10 -262144 -1 -1 0
1;
#X obj 330 244 f;
#X obj 364 244 + 1;
#X obj 329 411 outlet;
#X msg 329 384 60;
#X msg 365 384 58;
#X obj 330 363 select 0 1;
#X obj 330 221 b;
#X obj 330 336 f;
#X obj 363 336 ==;
#X floatatom 396 273 5 0 0 0 - - -;
#X obj 203 171 t b b b;
#X obj 330 305 select 0;
#X obj 330 274 mod 16;
#X obj 329 37 loadbang;
#X msg 329 59 220 180;
#X obj 206 149 select 0 2 4 5;
#X obj 206 86 c_multimetro 6 200;
#X connect 0 0 6 0;
#X connect 1 0 6 0;
#X connect 2 0 6 0;
#X connect 3 0 4 1;
#X connect 4 0 3 0;
#X connect 4 0 5 0;
#X connect 5 0 1 0;
#X connect 5 1 0 0;
#X connect 7 0 25 0;
#X connect 8 0 25 0;
#X connect 9 0 18 0;
#X connect 9 0 21 0;
#X connect 10 0 9 1;
#X connect 12 0 11 0;
#X connect 13 0 11 0;
#X connect 14 0 12 0;
#X connect 14 1 13 0;
#X connect 15 0 9 0;
#X connect 16 0 14 0;
#X connect 16 0 17 0;
#X connect 17 0 16 1;
#X connect 19 0 4 0;
#X connect 19 1 2 0;
#X connect 19 2 15 0;
#X connect 20 0 16 0;
#X connect 21 0 10 0;
#X connect 21 0 20 0;
#X connect 22 0 23 0;
#X connect 23 0 25 2;
#X connect 24 0 19 0;
#X connect 24 1 2 0;
#X connect 24 2 2 0;
#X connect 24 3 2 0;
#X connect 25 0 24 0;
#X restore 212 122 pd play-a-little-song-for-me;
#X floatatom 257 152 5 0 0 0 - - -;
#X obj 155 309 outlet~;
#X obj 212 64 inlet;
#X obj 470 93 switch~;
#X obj 490 49 loadbang;
#X msg 490 70 0;
#X obj 640 122 declare -path ../../../core/rj;
#X connect 1 0 3 0;
#X connect 2 0 4 0;
#X connect 3 0 0 0;
#X connect 3 0 5 0;
#X connect 4 0 9 0;
#X connect 4 1 9 0;
#X connect 5 0 2 0;
#X connect 5 1 2 1;
#X connect 6 0 7 0;
#X connect 6 0 11 0;
#X connect 7 0 3 0;
#X connect 7 1 8 0;
#X connect 8 0 3 1;
#X connect 10 0 6 0;
#X connect 12 0 13 0;
#X connect 13 0 11 0;
#X restore 69 99 pd song;
#X obj 69 78 tgl 15 0 empty empty empty 17 7 0 10 -262144 -1 -1 1 1
;
#X msg 177 55 \; pd dsp 1;
#X connect 0 0 5 0;
#X connect 0 1 5 1;
#X connect 5 0 4 0;
#X connect 5 1 4 1;
#X connect 6 0 0 0;
#X connect 6 0 0 1;
#X connect 7 0 6 0;
