#N canvas 0 57 1920 1023 12;
#X obj 38 389 route bang;
#X obj 200 200 dnd/gui 100 20 2;
#X obj 200 224 dnd/gui 100 20 2;
#X obj 200 247 dnd/gui 100 20 2;
#X obj 38 449 route bang;
#X obj 38 509 route bang;
#X obj 315 545 s PDR_LASTEST_FILENAME;
#X msg 305 79 audio_clip dump audio_clip-\$1 clip1_;
#X msg 345 159 audio_clip dump audio_clip-\$1 clip3_;
#X msg 325 119 audio_clip dump audio_clip-\$1 clip2_;
#X text 362 188 source_type command target unit;
#N canvas 0 50 768 747 dump_to_unit1 0;
#X obj 74 36 inlet;
#X obj 74 73 list trim;
#X obj 74 234 t b s b;
#X obj 73 268 symbol \$0-dump1;
#X obj 238 287 list fromsymbol;
#X obj 240 319 list split 6;
#X obj 164 382 list tosymbol;
#X obj 300 374 list tosymbol;
#X obj 78 333 s;
#X msg 73 293 dump \$1;
#X obj 244 220 r \$0-dump1;
#X obj 74 209 symbol;
#X obj 74 104 route audio_clip;
#X obj 74 136 route dump;
#X text 209 104 source type;
#X obj 74 172 list split 1;
#X obj 168 413 list append;
#X obj 244 245 list split 1;
#X text -44 293 dump <callback>;
#X text 250 198 callback;
#X obj 209 588 list append;
#X text 210 136 command;
#X obj 305 428 symbol;
#X obj 194 459 route bla;
#X obj 181 436 list trim;
#X text 432 216 r \$0-dump2;
#X text 573 219 r \$0-dump3;
#X msg 443 514 clip2_\$1;
#X msg 577 515 clip3_\$1;
#X text 415 22 dump_to_unit2;
#X text 566 20 dump_to_unit3;
#X text 349 218 -->;
#X text 349 518 -->;
#X obj 200 551 t b s;
#X msg 192 514 symbol \$2-clip1_\$1;
#X obj 199 634 s;
#X obj 193 486 list append \$2;
#X connect 0 0 1 0;
#X connect 1 0 12 0;
#X connect 2 0 3 0;
#X connect 2 1 8 1;
#X connect 3 0 9 0;
#X connect 4 0 5 0;
#X connect 5 0 6 0;
#X connect 5 1 7 0;
#X connect 6 0 16 0;
#X connect 7 0 16 1;
#X connect 9 0 8 0;
#X connect 10 0 17 0;
#X connect 11 0 2 0;
#X connect 12 0 13 0;
#X connect 13 0 15 0;
#X connect 15 0 11 0;
#X connect 15 1 22 0;
#X connect 16 0 24 0;
#X connect 17 0 4 0;
#X connect 17 1 20 1;
#X connect 20 0 35 0;
#X connect 22 0 23 1;
#X connect 23 0 36 0;
#X connect 24 0 23 0;
#X connect 33 0 20 0;
#X connect 33 1 35 1;
#X connect 34 0 33 0;
#X connect 36 0 34 0;
#X restore 483 265 pd dump_to_unit1;
#N canvas 427 45 768 747 dump_to_unit2 0;
#X obj 74 36 inlet;
#X obj 74 73 list trim;
#X obj 74 234 t b s b;
#X obj 238 287 list fromsymbol;
#X obj 240 319 list split 6;
#X obj 164 382 list tosymbol;
#X obj 300 374 list tosymbol;
#X obj 78 333 s;
#X msg 73 293 dump \$1;
#X obj 74 209 symbol;
#X obj 74 104 route audio_clip;
#X obj 74 136 route dump;
#X text 209 104 source type;
#X obj 74 172 list split 1;
#X obj 168 413 list append;
#X obj 244 245 list split 1;
#X text -44 293 dump <callback>;
#X text 250 198 callback;
#X obj 195 587 list append;
#X text 210 136 command;
#X obj 305 428 symbol;
#X obj 194 459 route bla;
#X obj 181 436 list trim;
#X obj 244 220 r \$0-dump2;
#X obj 73 268 symbol \$0-dump2;
#X msg 192 514 symbol \$2-clip2_\$1;
#X obj 197 619 s;
#X obj 193 550 t b s;
#X obj 193 486 list append \$2;
#X connect 0 0 1 0;
#X connect 1 0 10 0;
#X connect 2 0 24 0;
#X connect 2 1 7 1;
#X connect 3 0 4 0;
#X connect 4 0 5 0;
#X connect 4 1 6 0;
#X connect 5 0 14 0;
#X connect 6 0 14 1;
#X connect 8 0 7 0;
#X connect 9 0 2 0;
#X connect 10 0 11 0;
#X connect 11 0 13 0;
#X connect 13 0 9 0;
#X connect 13 1 20 0;
#X connect 14 0 22 0;
#X connect 15 0 3 0;
#X connect 15 1 18 1;
#X connect 18 0 26 0;
#X connect 20 0 21 1;
#X connect 21 0 28 0;
#X connect 22 0 21 0;
#X connect 23 0 15 0;
#X connect 24 0 8 0;
#X connect 25 0 27 0;
#X connect 27 0 18 0;
#X connect 27 1 26 1;
#X connect 28 0 25 0;
#X restore 483 295 pd dump_to_unit2;
#N canvas 921 58 768 747 dump_to_unit3 0;
#X obj 74 36 inlet;
#X obj 74 73 list trim;
#X obj 74 234 t b s b;
#X obj 238 287 list fromsymbol;
#X obj 240 319 list split 6;
#X obj 164 382 list tosymbol;
#X obj 300 374 list tosymbol;
#X obj 78 333 s;
#X msg 73 293 dump \$1;
#X obj 74 209 symbol;
#X obj 74 104 route audio_clip;
#X obj 74 136 route dump;
#X text 209 104 source type;
#X obj 74 172 list split 1;
#X obj 168 413 list append;
#X obj 244 245 list split 1;
#X text -44 293 dump <callback>;
#X text 250 198 callback;
#X obj 195 576 list append;
#X text 210 136 command;
#X obj 305 428 symbol;
#X obj 194 459 route bla;
#X obj 181 436 list trim;
#X obj 244 220 r \$0-dump3;
#X obj 73 268 symbol \$0-dump3;
#X msg 192 514 symbol \$2-clip3_\$1;
#X obj 197 609 s;
#X obj 193 545 t b s;
#X obj 193 486 list append \$2;
#X connect 0 0 1 0;
#X connect 1 0 10 0;
#X connect 2 0 24 0;
#X connect 2 1 7 1;
#X connect 3 0 4 0;
#X connect 4 0 5 0;
#X connect 4 1 6 0;
#X connect 5 0 14 0;
#X connect 6 0 14 1;
#X connect 8 0 7 0;
#X connect 9 0 2 0;
#X connect 10 0 11 0;
#X connect 11 0 13 0;
#X connect 13 0 9 0;
#X connect 13 1 20 0;
#X connect 14 0 22 0;
#X connect 15 0 3 0;
#X connect 15 1 18 1;
#X connect 18 0 26 0;
#X connect 20 0 21 1;
#X connect 21 0 28 0;
#X connect 22 0 21 0;
#X connect 23 0 15 0;
#X connect 24 0 8 0;
#X connect 25 0 27 0;
#X connect 27 0 18 0;
#X connect 27 1 26 1;
#X connect 28 0 25 0;
#X restore 483 325 pd dump_to_unit3;
#X obj 307 478 iemlib/splitfilename /;
#X obj 17 40 r \$2-clip1_file;
#X obj 17 100 r \$2-clip2_file;
#X obj 17 160 r \$2-clip3_file;
#X obj 307 39 r \$2-ID;
#X obj 34 414 s \$2-hsl1-rcv;
#X obj 136 416 s \$2-clip1_file;
#X obj 34 474 s \$2-hsl2-rcv;
#X obj 136 476 s \$2-clip2_file;
#X obj 34 534 s \$2-hsl3-rcv;
#X obj 136 536 s \$2-clip3_file;
#X connect 0 0 19 0;
#X connect 0 1 14 0;
#X connect 0 1 20 0;
#X connect 1 0 0 0;
#X connect 1 1 11 0;
#X connect 2 0 4 0;
#X connect 2 1 12 0;
#X connect 2 2 3 0;
#X connect 3 0 5 0;
#X connect 3 1 13 0;
#X connect 4 0 21 0;
#X connect 4 1 14 0;
#X connect 4 1 22 0;
#X connect 5 0 23 0;
#X connect 5 1 14 0;
#X connect 5 1 24 0;
#X connect 7 0 1 1;
#X connect 8 0 3 1;
#X connect 9 0 2 1;
#X connect 14 0 6 0;
#X connect 15 0 1 0;
#X connect 16 0 2 0;
#X connect 17 0 3 0;
#X connect 18 0 7 0;
#X connect 18 0 8 0;
#X connect 18 0 9 0;
#X coords 0 -1 1 1 100 67 2 200 200;
