#N canvas 0 57 1920 1023 12;
#X obj 398 1100 s dnd-dropped;
#X obj 399 970 symbol;
#X obj 576 514 route mouseup;
#X obj 581 476 spigot;
#X msg 732 413 1;
#X msg 788 411 0;
#X msg 322 1030 -done;
#X msg 400 1052 -drop list \$2 \$3 \$1;
#X msg 534 980 mouse \$1 \$2 1 0 \, mouseup \$1 \$2 1;
#X obj 416 856 list append;
#X obj 358 772 t b b b b;
#X text 179 121 debounce;
#X obj 884 825 iemguts/sendcanvas 1;
#X obj 634 476 spigot;
#X obj 680 515 route motion;
#X obj 316 545 s \$0-mousepad-rcv;
#X obj 840 513 unpack f f;
#X obj 907 469 unpack f f;
#X obj 844 551 -;
#X obj 912 546 -;
#X obj 907 431 route mouse zoom;
#X obj 857 583 / 1;
#X obj 1066 579 / 1;
#X obj 480 72 cnv 1 1 1 empty \$0-filepath-rcv empty 0 5 0 10 -262130
-66577 0;
#X obj 400 1005 list append 0 0;
#X obj 612 351 t a a a;
#X obj 691 441 t f f;
#N canvas 0 57 1920 1023 tosymbol 0;
#X text 65 454 symbol out with correct spaces;
#X text 81 12 string in;
#X obj 91 31 inlet;
#X obj 91 431 outlet;
#X obj 85 31 cnv 5 5 17 empty empty empty 20 12 0 14 -118750 -66577
0;
#X obj 85 431 cnv 5 5 17 empty empty empty 20 12 0 14 -102336 -66577
0;
#X obj 91 55 list;
#X obj 91 193 list store, f 13;
#X obj 91 102 until;
#X obj 91 128 f, f 7;
#X obj 153 128 + 1;
#X msg 91 171 get \$1 1;
#X obj 134 103 0;
#X obj 91 263 list fromsymbol;
#X obj 91 215 route symbol float;
#X obj 109 239 makefilename %s;
#X obj 91 150 t f f;
#X obj 91 380 list store, f 19;
#X obj 91 355 list trim;
#X obj 91 332 list prepend append;
#X obj 157 286 spigot;
#X msg 157 308 32;
#X obj 91 286 t l b, f 9;
#X obj 91 77 t b b a b, f 19;
#X obj 91 404 list tosymbol;
#X connect 2 0 6 0;
#X connect 6 0 23 0;
#X connect 7 0 14 0;
#X connect 7 1 8 1;
#X connect 7 1 17 0;
#X connect 8 0 9 0;
#X connect 9 0 10 0;
#X connect 9 0 16 0;
#X connect 10 0 9 1;
#X connect 11 0 7 0;
#X connect 12 0 9 1;
#X connect 13 0 22 0;
#X connect 14 0 13 0;
#X connect 14 1 15 0;
#X connect 15 0 13 0;
#X connect 16 0 11 0;
#X connect 16 1 20 1;
#X connect 17 0 24 0;
#X connect 18 0 17 0;
#X connect 19 0 18 0;
#X connect 20 0 21 0;
#X connect 21 0 19 0;
#X connect 22 0 19 0;
#X connect 22 1 20 0;
#X connect 23 0 8 0;
#X connect 23 1 12 0;
#X connect 23 2 7 1;
#X connect 23 3 17 1;
#X connect 24 0 3 0;
#X restore 65 778 pd tosymbol;
#N canvas 0 50 923 636 dnd-dropped 0;
#X obj 167 231 r dnd-dropped;
#X obj 46 332 list append;
#X msg 356 135 1;
#X obj 82 212 spigot;
#X msg 433 143 0;
#X obj 44 416 list split 2;
#X obj 101 94 inlet;
#X text 191 342 <- avoid white space problems;
#X obj 86 534 outlet;
#X obj 500 272 == 0;
#X obj 471 301 spigot 1;
#X text 37 34 by jyg https://github.com/jyg;
#X obj 476 436 outlet;
#X obj 421 176 t f f;
#X obj 101 120 t a a;
#X obj 165 259 route -drop -path -name -ext -done -custom;
#X obj 85 475 spigot;
#X obj 164 290 t l b b;
#X msg 158 456 1;
#X obj 85 504 t a b;
#X msg 150 494 0;
#X obj 245 403 list append;
#X obj 244 532 outlet;
#X obj 243 473 spigot;
#X msg 316 454 1;
#X obj 243 502 t a b;
#X msg 308 492 0;
#X obj 58 290 t b b;
#X obj 372 309 t a b b;
#X obj 412 108 t b b b;
#X connect 0 0 15 0;
#X connect 1 0 5 0;
#X connect 2 0 13 0;
#X connect 3 0 27 0;
#X connect 4 0 13 0;
#X connect 5 1 16 0;
#X connect 6 0 14 0;
#X connect 9 0 10 1;
#X connect 10 0 12 0;
#X connect 13 0 3 1;
#X connect 13 1 9 0;
#X connect 14 0 3 0;
#X connect 14 1 10 0;
#X connect 15 0 17 0;
#X connect 15 4 29 0;
#X connect 15 5 28 0;
#X connect 16 0 19 0;
#X connect 17 0 1 1;
#X connect 17 1 18 0;
#X connect 17 2 2 0;
#X connect 18 0 16 1;
#X connect 19 0 8 0;
#X connect 19 1 20 0;
#X connect 20 0 16 1;
#X connect 21 0 23 0;
#X connect 23 0 25 0;
#X connect 24 0 23 1;
#X connect 25 0 22 0;
#X connect 25 1 26 0;
#X connect 26 0 23 1;
#X connect 27 0 1 0;
#X connect 27 1 21 0;
#X connect 28 0 21 1;
#X connect 28 1 24 0;
#X connect 28 2 2 0;
#X connect 29 0 4 0;
#X connect 29 1 1 1;
#X connect 29 2 21 1;
#X restore 95 501 pd dnd-dropped listener;
#X obj 318 66 inlet;
#N canvas 0 57 1920 1023 tosymbol 0;
#X text 65 454 symbol out with correct spaces;
#X text 81 12 string in;
#X obj 91 31 inlet;
#X obj 91 431 outlet;
#X obj 85 31 cnv 5 5 17 empty empty empty 20 12 0 14 -118750 -66577
0;
#X obj 85 431 cnv 5 5 17 empty empty empty 20 12 0 14 -102336 -66577
0;
#X obj 91 55 list;
#X obj 91 193 list store, f 13;
#X obj 91 102 until;
#X obj 91 128 f, f 7;
#X obj 153 128 + 1;
#X msg 91 171 get \$1 1;
#X obj 134 103 0;
#X obj 91 263 list fromsymbol;
#X obj 91 215 route symbol float;
#X obj 109 239 makefilename %s;
#X obj 91 150 t f f;
#X obj 91 380 list store, f 19;
#X obj 91 355 list trim;
#X obj 91 332 list prepend append;
#X obj 157 286 spigot;
#X msg 157 308 32;
#X obj 91 286 t l b, f 9;
#X obj 91 77 t b b a b, f 19;
#X obj 91 404 list tosymbol;
#X connect 2 0 6 0;
#X connect 6 0 23 0;
#X connect 7 0 14 0;
#X connect 7 1 8 1;
#X connect 7 1 17 0;
#X connect 8 0 9 0;
#X connect 9 0 10 0;
#X connect 9 0 16 0;
#X connect 10 0 9 1;
#X connect 11 0 7 0;
#X connect 12 0 9 1;
#X connect 13 0 22 0;
#X connect 14 0 13 0;
#X connect 14 1 15 0;
#X connect 15 0 13 0;
#X connect 16 0 11 0;
#X connect 16 1 20 1;
#X connect 17 0 24 0;
#X connect 18 0 17 0;
#X connect 19 0 18 0;
#X connect 20 0 21 0;
#X connect 21 0 19 0;
#X connect 22 0 19 0;
#X connect 22 1 20 0;
#X connect 23 0 8 0;
#X connect 23 1 12 0;
#X connect 23 2 7 1;
#X connect 23 3 17 1;
#X connect 24 0 3 0;
#X restore 494 151 pd tosymbol;
#X obj 538 791 list append;
#X obj 582 1000 list prepend -custom;
#X obj 582 1025 list trim;
#X obj 430 708 t b l b b l b b b;
#X obj 193 677 t a a;
#X obj 81 816 t s s;
#X obj 1267 395 pointer;
#X obj 1196 607 pointer;
#X msg 1184 572 delete;
#X obj 1103 740 pack f f;
#X obj 1215 519 list prepend 0 0;
#X msg 1244 462 100 20;
#X obj 330 290 t b b b;
#N canvas 0 50 450 300 resize 0;
#X restore 663 40 pd resize;
#X obj 318 92 route label color;
#X obj 677 181 inlet;
#X obj 551 826 t l l;
#X obj 584 854 list length;
#X obj 584 879 > 0;
#X obj 548 908 spigot;
#X obj 355 377 t b l;
#X msg 325 347 color \$2 \$2 \$3;
#X msg 345 466 color \$1 \$1 \$3;
#X obj 242 131 list prepend label;
#X obj 242 156 list trim;
#X obj 327 328 list append 5 15 -1;
#X obj 334 437 list append 5 15 -1;
#X obj 195 882 outlet custom;
#X msg 450 819 0;
#X msg 369 827 1;
#X obj 102 545 spigot 1;
#X obj 86 349 t a b;
#X obj 121 382 timer;
#X obj 121 407 < 100;
#X obj 121 432 select 1;
#X obj 329 156 t b;
#X msg 328 180 1;
#X obj 328 206 change;
#X obj 328 258 select 1;
#X msg 380 175 0;
#X obj 440 635 t a b b b;
#X obj 327 232 t f f;
#X obj 319 884 outlet mouse_down;
#X obj 37 879 outlet symbol/click;
#X obj 17 196 t b b;
#X obj 77 200 delay 400;
#X msg 77 229 0;
#X msg 130 235 1;
#X obj 87 282 change;
#X obj 87 311 select 1;
#X obj 3 0 hsl 95 20 0 127 0 0 empty \$0-mousepad-rcv empty 0 10 0
16 -262131 -262131 -1 0 0;
#X msg 93 159 set 64;
#N canvas 0 50 450 300 \$0-struct 0;
#X obj 38 111 drawpolygon 444 4 0 0 0 height width height width 0 0
0;
#X obj 11 49 struct \$0-rectangle float x float y float width float
height;
#X restore 662 12 pd \$0-struct;
#X obj 1261 557 append \$0-rectangle x y width height;
#X obj 1273 762 set \$0-rectangle x y;
#X obj 940 115 iemguts/receivecanvas 1;
#X obj 941 144 iemguts/receivecanvas 2;
#X obj 942 172 iemguts/receivecanvas 3;
#X obj 942 199 iemguts/receivecanvas 4;
#X obj 883 790 route 1 2 3 4;
#X obj 781 176 t a b;
#X obj 828 208 t a b;
#X obj 888 235 t a b;
#X obj 940 258 t a b;
#X msg 819 361 1;
#X msg 861 335 2;
#X msg 918 314 3;
#X obj 880 754 list prepend 0;
#X msg 975 287 4;
#X obj 888 853 iemguts/sendcanvas 2;
#X obj 889 888 iemguts/sendcanvas 3;
#X obj 893 916 iemguts/sendcanvas 4;
#X obj 978 386 t f f;
#X obj 1371 336 namecanvas \$0-this;
#X obj 1231 304 t b;
#X obj 1244 335 symbol \$0-this;
#X msg 1258 367 traverse \$1 \, bang;
#X obj 1282 421 t b a;
#X connect 1 0 24 0;
#X connect 2 0 71 0;
#X connect 3 0 2 0;
#X connect 4 0 26 0;
#X connect 5 0 26 0;
#X connect 6 0 0 0;
#X connect 7 0 0 0;
#X connect 8 0 98 0;
#X connect 9 0 8 0;
#X connect 10 0 6 0;
#X connect 10 1 60 0;
#X connect 10 2 9 0;
#X connect 10 3 59 0;
#X connect 13 0 14 0;
#X connect 14 0 16 0;
#X connect 16 0 18 0;
#X connect 16 1 19 0;
#X connect 17 0 18 1;
#X connect 17 1 19 1;
#X connect 18 0 21 0;
#X connect 19 0 22 0;
#X connect 20 0 17 0;
#X connect 20 1 21 1;
#X connect 20 1 22 1;
#X connect 21 0 40 0;
#X connect 22 0 40 1;
#X connect 24 0 7 0;
#X connect 25 0 3 0;
#X connect 25 1 13 0;
#X connect 25 2 20 0;
#X connect 26 0 3 1;
#X connect 26 1 13 1;
#X connect 27 0 36 0;
#X connect 28 0 61 0;
#X connect 28 1 35 0;
#X connect 28 2 66 0;
#X connect 29 0 45 0;
#X connect 30 0 1 1;
#X connect 31 0 47 0;
#X connect 32 0 33 0;
#X connect 33 0 0 0;
#X connect 34 0 10 0;
#X connect 34 1 9 1;
#X connect 34 2 31 0;
#X connect 34 3 1 0;
#X connect 34 4 24 1;
#X connect 34 6 57 0;
#X connect 34 7 5 0;
#X connect 35 0 58 0;
#X connect 35 1 31 1;
#X connect 36 0 74 0;
#X connect 36 1 1 1;
#X connect 37 0 108 0;
#X connect 39 0 38 0;
#X connect 40 0 85 0;
#X connect 41 0 84 0;
#X connect 42 0 41 0;
#X connect 43 0 56 0;
#X connect 43 1 4 0;
#X connect 43 2 105 0;
#X connect 45 0 54 0;
#X connect 45 1 51 0;
#X connect 45 1 56 1;
#X connect 45 2 30 0;
#X connect 46 0 31 1;
#X connect 47 0 50 0;
#X connect 47 1 48 0;
#X connect 48 0 49 0;
#X connect 49 0 50 1;
#X connect 50 0 32 0;
#X connect 51 0 57 0;
#X connect 51 1 57 1;
#X connect 52 0 15 0;
#X connect 53 0 15 0;
#X connect 54 0 55 0;
#X connect 55 0 15 0;
#X connect 56 0 52 0;
#X connect 57 0 53 0;
#X connect 59 0 61 1;
#X connect 60 0 61 1;
#X connect 61 0 27 0;
#X connect 62 0 28 0;
#X connect 62 1 63 0;
#X connect 63 0 64 0;
#X connect 64 0 65 0;
#X connect 65 0 74 0;
#X connect 66 0 67 0;
#X connect 67 0 68 0;
#X connect 68 0 72 0;
#X connect 69 0 43 0;
#X connect 70 0 68 0;
#X connect 71 0 34 0;
#X connect 71 1 63 1;
#X connect 71 2 70 0;
#X connect 71 3 39 0;
#X connect 72 0 69 0;
#X connect 72 1 73 0;
#X connect 75 0 76 0;
#X connect 75 1 78 0;
#X connect 75 1 82 0;
#X connect 76 0 77 0;
#X connect 77 0 79 0;
#X connect 78 0 79 0;
#X connect 79 0 80 0;
#X connect 80 0 62 0;
#X connect 81 0 75 0;
#X connect 82 0 81 0;
#X connect 84 0 38 1;
#X connect 84 0 85 2;
#X connect 86 0 91 0;
#X connect 87 0 92 0;
#X connect 88 0 93 0;
#X connect 89 0 94 0;
#X connect 90 0 12 0;
#X connect 90 1 100 0;
#X connect 90 2 101 0;
#X connect 90 3 102 0;
#X connect 91 0 25 0;
#X connect 91 1 95 0;
#X connect 92 0 25 0;
#X connect 92 1 96 0;
#X connect 93 0 25 0;
#X connect 93 1 97 0;
#X connect 94 0 25 0;
#X connect 94 1 99 0;
#X connect 95 0 103 0;
#X connect 96 0 103 0;
#X connect 97 0 103 0;
#X connect 98 0 90 0;
#X connect 99 0 103 0;
#X connect 103 0 98 1;
#X connect 105 0 106 0;
#X connect 106 0 107 0;
#X connect 107 0 37 0;
#X connect 108 0 42 0;
#X connect 108 1 84 4;
#X coords 0 0 100 20 100 20 2 0 0;
