#N canvas 713 50 613 297 10;
#X text 10 50 mise en oeuvre de l'abstraction rjdj e_beequad;
#X obj 80 157 fx_lowhip;
#A saved f.freq 0.543026;
#A saved SID 0;
#X text 20 10 effet de filtre (passe bas / passe haut avec passage
continu de l'un à l'autre);
#N canvas 0 50 450 300 noise~ 0;
#X obj 90 102 noise~;
#X obj 150 102 noise~;
#X obj 92 134 *~ 0.2;
#X obj 82 193 outlet~;
#X obj 152 203 outlet~;
#X obj 152 134 *~ 0.2;
#X connect 0 0 2 0;
#X connect 1 0 5 0;
#X connect 2 0 3 0;
#X connect 5 0 4 0;
#X restore 79 105 pd noise~;
#X msg 190 109 \; pd dsp 1;
#X obj 80 303 dac~;
#N canvas 0 50 450 300 vol 0;
#X obj 103 125 hsl 128 15 0 100 0 0 empty empty -100_dB 50 -8 0 10
-204800 -1 -1 0 1;
#X obj 99 145 dbtorms;
#X obj 99 168 lop~ 1;
#X obj 44 53 inlet~;
#X obj 94 53 inlet~;
#X obj 49 257 outlet~;
#X obj 114 257 outlet~;
#X obj 39 209 *~;
#X obj 69 209 *~;
#X obj 184 175 - 100;
#X msg 184 198 label \$1_dB;
#X connect 0 0 1 0;
#X connect 0 0 9 0;
#X connect 1 0 2 0;
#X connect 2 0 8 1;
#X connect 2 0 7 1;
#X connect 3 0 7 0;
#X connect 4 0 8 0;
#X connect 7 0 5 0;
#X connect 8 0 6 0;
#X connect 9 0 10 0;
#X connect 10 0 0 0;
#X coords 0 -1 1 1 133 40 1 100 100;
#X restore 79 246 pd vol;
#X connect 1 0 6 0;
#X connect 1 1 6 1;
#X connect 3 0 1 0;
#X connect 3 1 1 1;
#X connect 6 0 5 0;
#X connect 6 1 5 1;
