#N canvas 0 57 1920 1023 12;
#X obj 41 1 inlet;
#X obj 159 252 symbol;
#X obj 382 334 switch~;
#X msg 374 202 1;
#X msg 394 307 0;
#X obj 42 510 *~;
#X obj 177 413 line~;
#X obj 42 566 outlet~;
#X obj 171 568 outlet~;
#X obj 43 538 hip~ 5;
#X obj 173 296 unpack f f;
#X obj 115 358 pack f f;
#X obj 100 332 *;
#X obj 168 500 *~;
#X obj 170 532 hip~ 5;
#X obj 394 279 delay 20;
#X obj 350 239 t b;
#X msg 398 254 stop;
#X obj 247 97 t b b;
#X msg 185 360 0 20;
#X msg 189 391 setarray \$1-1;
#X msg 669 349 setarray \$1-2;
#X obj 436 141 bng 15 250 50 0 empty empty empty 17 7 0 10 -262144
-1 -1;
#X obj 60 217 *;
#X obj 154 102 +;
#X obj 161 72 t b f;
#X obj 467 97 mtof;
#X obj 467 122 / 8.175;
#X obj 448 233 * 1;
#X obj 471 188 t b f;
#X obj 118 298 t b f;
#X obj 55 101 t f f;
#X obj 100 121 int;
#X obj 58 142 -;
#X obj 58 165 moses 0;
#X obj 48 191 + 1;
#X msg 427 82 1;
#X obj 47 460 pvoc2~ \$1-nop 2048 4;
#X msg 1 390 location_ms \$1;
#X obj 60 241 / 44.1;
#X msg 297 315 pitch \$1;
#X msg 466 519 transpo \$1;
#X msg 595 95 locking \$1;
#X obj 255 460 pvoc2~ \$1-nop 2048 4;
#X obj 151 13 route playAtPos setArray gain switchOff switchOn pitch
vol rearm sampleLength pos pitchbend locking offset;
#X obj 475 152 change;
#X msg 567 170 \$1 30;
#X obj 567 194 line 0 5;
#X connect 0 0 44 0;
#X connect 1 0 20 0;
#X connect 1 0 21 0;
#X connect 3 0 2 0;
#X connect 4 0 2 0;
#X connect 4 0 24 1;
#X connect 5 0 9 0;
#X connect 6 0 5 1;
#X connect 6 0 13 1;
#X connect 9 0 7 0;
#X connect 10 0 12 0;
#X connect 10 1 11 1;
#X connect 11 0 6 0;
#X connect 12 0 11 0;
#X connect 13 0 14 0;
#X connect 14 0 8 0;
#X connect 15 0 4 0;
#X connect 15 0 36 0;
#X connect 16 0 17 0;
#X connect 17 0 15 0;
#X connect 18 0 15 0;
#X connect 18 1 19 0;
#X connect 19 0 6 0;
#X connect 20 0 37 0;
#X connect 21 0 43 0;
#X connect 23 0 39 0;
#X connect 24 0 31 0;
#X connect 25 0 24 0;
#X connect 25 1 24 1;
#X connect 26 0 27 0;
#X connect 27 0 45 0;
#X connect 28 0 40 0;
#X connect 29 0 28 0;
#X connect 29 1 28 1;
#X connect 30 0 12 0;
#X connect 30 1 12 1;
#X connect 31 0 33 0;
#X connect 31 1 32 0;
#X connect 32 0 33 1;
#X connect 33 0 34 0;
#X connect 34 0 35 0;
#X connect 34 1 23 0;
#X connect 35 0 23 0;
#X connect 37 0 5 0;
#X connect 38 0 37 0;
#X connect 38 0 43 0;
#X connect 39 0 38 0;
#X connect 40 0 37 0;
#X connect 40 0 43 0;
#X connect 41 0 37 0;
#X connect 42 0 37 0;
#X connect 42 0 43 0;
#X connect 43 0 13 0;
#X connect 44 0 24 0;
#X connect 44 1 1 0;
#X connect 44 2 10 0;
#X connect 44 3 18 0;
#X connect 44 4 3 0;
#X connect 44 4 16 0;
#X connect 44 5 28 0;
#X connect 44 5 40 0;
#X connect 44 6 30 0;
#X connect 44 7 22 0;
#X connect 44 8 23 1;
#X connect 44 9 25 0;
#X connect 44 10 26 0;
#X connect 44 11 42 0;
#X connect 44 12 25 0;
#X connect 45 0 46 0;
#X connect 46 0 47 0;
#X connect 47 0 29 0;
