#N canvas 124 56 1011 579 12;
#X obj 197 184 -;
#X obj 27 180 -;
#X obj 292 182 -;
#X obj 119 181 -;
#X obj 240 117 t f f;
#X obj 76 124 t f f;
#X obj 112 273 *;
#X obj 56 214 *;
#X obj 76 301 -;
#X obj 64 366 moses 0;
#X msg 106 398 1;
#X obj 246 304 *;
#X obj 236 278 t f f;
#X obj 314 308 *;
#X obj 310 271 t f f;
#X text 115 310 sens de rotation;
#X obj 261 373 sqrt;
#X obj 261 348 +;
#X obj 44 623 outlet;
#X msg 29 402 -1;
#X obj 97 42 t f b b;
#X obj 123 80 f;
#X obj 160 84 f;
#X obj 74 79 f;
#X obj 244 43 t f b b;
#X obj 272 84 f;
#X obj 307 85 f;
#X obj 233 84 f;
#X obj 106 14 inlet;
#X text 74 62 n;
#X text 119 64 n-1;
#X text 161 60 n-2;
#X obj 54 484 *;
#X obj 50 525 change;
#X obj 71 323 t f f;
#X text 158 652 vitesse;
#X text 19 156 Xn;
#X text 48 156 Xn-2;
#X text 102 159 Xn;
#X text 131 159 Xn-1;
#X text 188 159 Yn;
#X text 216 158 Yn-2;
#X text 276 165 Yn;
#X text 312 163 Yn-1;
#X text 22 249 XV2*YV1-XV1*YV2;
#X text 240 254 XV1^2+YV1^2;
#X obj 118 208 t f f f;
#X obj 281 219 t f f f;
#X obj 246 14 inlet;
#X obj 461 636 outlet;
#X obj 249 627 outlet;
#X obj 468 503 *;
#X obj 229 475 select 0;
#X obj 51 440 t f f;
#X obj 50 270 t f f;
#X msg 241 508 0;
#X msg 275 510 1;
#X obj 276 588 *;
#X obj 411 18 inlet;
#X obj 201 441 - \$1;
#X obj 228 404 max \$1;
#X obj 158 539 median_3;
#X obj 52 567 median_3;
#X connect 0 0 6 1;
#X connect 1 0 7 0;
#X connect 2 0 47 0;
#X connect 3 0 46 0;
#X connect 4 0 0 0;
#X connect 4 1 2 0;
#X connect 5 0 1 0;
#X connect 5 1 3 0;
#X connect 6 0 8 1;
#X connect 6 0 51 1;
#X connect 7 0 54 0;
#X connect 8 0 34 0;
#X connect 9 0 19 0;
#X connect 9 1 10 0;
#X connect 10 0 53 0;
#X connect 11 0 17 0;
#X connect 12 0 11 0;
#X connect 12 1 11 1;
#X connect 13 0 17 1;
#X connect 14 0 13 0;
#X connect 14 1 13 1;
#X connect 16 0 60 0;
#X connect 17 0 16 0;
#X connect 19 0 53 0;
#X connect 20 0 23 0;
#X connect 20 1 21 0;
#X connect 20 2 22 0;
#X connect 21 0 22 1;
#X connect 21 0 3 1;
#X connect 22 0 1 1;
#X connect 23 0 21 1;
#X connect 23 0 5 0;
#X connect 24 0 27 0;
#X connect 24 1 25 0;
#X connect 24 2 26 0;
#X connect 25 0 26 1;
#X connect 25 0 2 1;
#X connect 26 0 0 1;
#X connect 27 0 25 1;
#X connect 27 0 4 0;
#X connect 28 0 20 0;
#X connect 32 0 33 0;
#X connect 33 0 62 0;
#X connect 34 0 9 0;
#X connect 46 0 6 0;
#X connect 46 1 12 0;
#X connect 47 0 7 1;
#X connect 47 1 14 0;
#X connect 48 0 24 0;
#X connect 51 0 49 0;
#X connect 52 0 55 0;
#X connect 52 1 56 0;
#X connect 53 0 32 0;
#X connect 53 1 61 0;
#X connect 54 0 8 0;
#X connect 54 1 51 0;
#X connect 55 0 57 1;
#X connect 56 0 57 1;
#X connect 57 0 50 0;
#X connect 58 0 59 1;
#X connect 58 0 60 1;
#X connect 59 0 32 1;
#X connect 59 0 52 0;
#X connect 60 0 59 0;
#X connect 61 0 57 0;
#X connect 62 0 18 0;
