#N canvas 278 373 1379 462 16;
#X obj 100 100 tgl 23 0 \$2-clip\$1 \$2-clip\$1-rcv |> 3 12 0 14 -228992
-228992 -1 0 1;
#X obj 493 26 loadbang;
#X obj 487 234 s \$2-hsl\$1-rcv;
#X floatatom 238 100 3 0 0 0 - #2-clip#1_quant-rcv #2-clip#1_quant
, f 3;
#X obj 489 97 f \$1;
#X obj 489 122 select 1 2 3;
#X obj 493 51 delay 2000;
#X obj 332 25 r \$2-hsl\$1-rcv;
#X msg 353 117 stop;
#X obj 333 56 route color;
#X obj 333 81 t b;
#X msg 522 160 5;
#X msg 485 157 4;
#X msg 570 167 6;
#X obj 267 100 bng 23 250 50 0 \$2-open\$1 empty empty 17 7 0 10 -262144
-1 -1;
#X obj 361 227 r \$2-hsl\$1;
#X obj 351 274 t b;
#X obj 331 392 s pd-\$2-clip-\$1_edit;
#X msg 346 363 vis 1;
#X msg 485 198 color \$1 -1 -1;
#X obj 346 313 delay 200;
#X obj 124 100 hsl 112 23 0 1 0 0 \$2-hsl\$1 \$2-hsl\$1-rcv empty 2
12 0 12 -262131 -1 -1 0 1;
#X msg 131 44 label;
#X connect 1 0 6 0;
#X connect 4 0 5 0;
#X connect 5 0 12 0;
#X connect 5 1 11 0;
#X connect 5 2 13 0;
#X connect 6 0 4 0;
#X connect 7 0 9 0;
#X connect 8 0 6 0;
#X connect 9 0 10 0;
#X connect 10 0 8 0;
#X connect 11 0 19 0;
#X connect 12 0 19 0;
#X connect 13 0 19 0;
#X connect 15 0 16 0;
#X connect 16 0 20 0;
#X connect 18 0 17 0;
#X connect 19 0 2 0;
#X connect 20 0 18 0;
#X connect 22 0 21 0;
#X coords 0 -1 1 1 190 23 2 100 100;
