#N canvas 732 198 1280 711 12;
#X obj 41 18 inlet;
#X obj 531 899 outlet;
#X text 1000 267 mode;
#X text 981 312 0 stop;
#X text 979 333 1 play;
#X msg 641 286 sr 44100;
#X msg 394 464 table-stereo \$1 \, sr \$4;
#X msg 563 258 open \$1;
#X floatatom 677 408 8 0 0 1 duration_in_samples - -;
#X floatatom 650 428 8 0 0 1 duration_in_ms - -;
#X symbolatom 623 448 12 0 0 1 table_name - -;
#X obj 620 365 unpack s f f f;
#X floatatom 704 388 6 0 0 1 samplerate - -;
#X obj 645 260 loadbang;
#N canvas 696 149 561 762 tosymbol 0;
#X text 65 454 symbol out with correct spaces;
#X text 81 12 string in;
#X obj 91 31 inlet;
#X obj 91 431 outlet;
#X obj 85 31 cnv 5 5 17 empty empty empty 20 12 0 14 -118750 -66577
0;
#X obj 85 431 cnv 5 5 17 empty empty empty 20 12 0 14 -102336 -66577
0;
#X obj 91 55 list;
#X obj 91 193 list store, f 13;
#X obj 91 102 until;
#X obj 91 128 f, f 7;
#X obj 153 128 + 1;
#X msg 91 171 get \$1 1;
#X obj 134 103 0;
#X obj 91 263 list fromsymbol;
#X obj 91 215 route symbol float;
#X obj 109 239 makefilename %s;
#X obj 91 150 t f f;
#X obj 91 380 list store, f 19;
#X obj 90 357 list trim;
#X obj 90 331 list prepend append;
#X obj 157 286 spigot;
#X msg 157 308 32;
#X obj 91 286 t l b, f 9;
#X obj 91 77 t b b a b, f 19;
#X obj 91 404 list tosymbol;
#X connect 2 0 6 0;
#X connect 6 0 23 0;
#X connect 7 0 14 0;
#X connect 7 1 8 1;
#X connect 7 1 17 0;
#X connect 8 0 9 0;
#X connect 9 0 10 0;
#X connect 9 0 16 0;
#X connect 10 0 9 1;
#X connect 11 0 7 0;
#X connect 12 0 9 1;
#X connect 13 0 22 0;
#X connect 14 0 13 0;
#X connect 14 1 15 0;
#X connect 15 0 13 0;
#X connect 16 0 11 0;
#X connect 16 1 20 1;
#X connect 17 0 24 0;
#X connect 18 0 17 0;
#X connect 19 0 18 0;
#X connect 20 0 21 0;
#X connect 21 0 19 0;
#X connect 22 0 19 0;
#X connect 22 1 20 0;
#X connect 23 0 8 0;
#X connect 23 1 12 0;
#X connect 23 2 7 1;
#X connect 23 3 17 1;
#X connect 24 0 3 0;
#X restore 463 192 pd tosymbol;
#X text 983 357 2 arm (preload);
#X obj 69 900 outlet~;
#X obj 278 905 outlet~;
#X obj 73 837 *~;
#X obj 277 837 *~;
#X obj 335 73 switch~;
#X msg 801 249 info;
#X obj 396 417 bng 15 250 50 0 empty empty empty 17 7 0 10 -262144
-1 -1;
#X obj 394 440 list append <none> 44100;
#N canvas 578 92 450 300 status_control 0;
#X obj 28 17 inlet;
#X msg 41 190 0;
#X obj 223 17 r \$2-clip\$1;
#X msg 146 191 2;
#X obj 51 218 s \$0-mode;
#X obj 219 57 select 0 1;
#X obj 29 60 route stop launch prestop;
#X obj 188 94 t b;
#X obj 188 119 v \$0-mode;
#X obj 188 144 select 2;
#X text 310 117 mode;
#X text 291 162 0 stop;
#X text 289 183 1 play;
#X text 293 207 2 arm (preload);
#X text 41 249 prestop message cancels preload mode if settled;
#X obj 95 115 v \$0-mode;
#X obj 73 82 t b;
#X obj 86 141 select 0 1 2;
#X connect 0 0 6 0;
#X connect 1 0 4 0;
#X connect 2 0 5 0;
#X connect 3 0 4 0;
#X connect 5 0 1 0;
#X connect 5 1 3 0;
#X connect 6 0 1 0;
#X connect 6 1 16 0;
#X connect 6 2 7 0;
#X connect 7 0 8 0;
#X connect 8 0 9 0;
#X connect 9 0 1 0;
#X connect 15 0 17 0;
#X connect 16 0 15 0;
#X connect 17 0 3 0;
#X connect 17 1 1 0;
#X connect 17 2 1 0;
#X restore 39 50 pd status_control;
#N canvas 0 50 481 536 sync-start_stuff 0;
#X obj 41 495 outlet;
#X msg 138 427 stop;
#X obj 108 6 r \$2-clock;
#X obj 142 157 mod 24;
#X obj 138 249 spigot;
#X obj 151 354 select 0;
#X msg 332 285 0;
#X msg 261 182 1;
#X obj 248 95 t b b b;
#X obj 284 143 s \$0-preload;
#X obj 266 242 * 6;
#X obj 151 381 t b b b b;
#X obj 304 26 r \$0-mode;
#X obj 304 53 select 2 0;
#X msg 189 437 1;
#X obj 192 471 s \$0-mode;
#X obj 26 379 r \$0-mode;
#X obj 36 402 select 2;
#X msg 39 435 prestop;
#X obj 38 139 div 6;
#X obj 38 195 - 16;
#X floatatom 58 341 5 0 0 0 - - -;
#X obj 27 296 s \$2-clip\$1-rcv;
#X obj 37 245 * -1;
#X obj 38 164 change;
#X obj 34 217 select 0;
#X msg 25 271 label \$1';
#X obj 138 274 t f f;
#X obj 266 217 r \$2-clip\$1_quant;
#X obj 156 59 * 6;
#X obj 156 34 r \$2-clip\$1_preroll;
#X obj 130 104 +;
#X connect 1 0 0 0;
#X connect 2 0 31 0;
#X connect 3 0 4 0;
#X connect 4 0 27 0;
#X connect 5 0 11 0;
#X connect 6 0 4 1;
#X connect 7 0 4 1;
#X connect 8 1 7 0;
#X connect 8 2 9 0;
#X connect 10 0 3 1;
#X connect 11 0 1 0;
#X connect 11 2 14 0;
#X connect 11 3 6 0;
#X connect 12 0 13 0;
#X connect 13 0 8 0;
#X connect 13 1 6 0;
#X connect 14 0 15 0;
#X connect 16 0 17 0;
#X connect 17 0 18 0;
#X connect 18 0 0 0;
#X connect 19 0 24 0;
#X connect 20 0 25 0;
#X connect 23 0 26 0;
#X connect 24 0 20 0;
#X connect 25 1 23 0;
#X connect 26 0 22 0;
#X connect 27 0 5 0;
#X connect 27 1 19 0;
#X connect 28 0 10 0;
#X connect 28 0 20 1;
#X connect 29 0 31 1;
#X connect 30 0 29 0;
#X connect 31 0 3 0;
#X restore 531 868 pd sync-start_stuff;
#N canvas 0 50 450 300 gui.play/stop_button 0;
#X obj 120 246 s \$2-clip\$1-rcv;
#X obj 117 25 r \$0-mode;
#X obj 117 50 select 0 1 2;
#X msg 87 192 set 0 \, label |> \, color 8 8 -1;
#X msg 125 154 set 1 \, label || \, color 16 16 -1;
#X msg 153 97 set 1 \, label >. \, color 15 15 -1;
#X connect 1 0 2 0;
#X connect 2 0 3 0;
#X connect 2 1 4 0;
#X connect 2 2 5 0;
#X connect 3 0 0 0;
#X connect 4 0 0 0;
#X connect 5 0 0 0;
#X restore 39 126 pd gui.play/stop_button;
#N canvas 0 50 450 300 gui.displaying_filename 0;
#X text 179 76 vanilla version of splitfilename;
#X msg 134 215 label \$1;
#X msg 208 216 label;
#X obj 198 183 loadbang;
#X obj 130 260 s \$2-hsl\$1-rcv;
#N canvas 696 149 561 762 tosymbol 0;
#X text 65 454 symbol out with correct spaces;
#X text 81 12 string in;
#X obj 91 31 inlet;
#X obj 91 431 outlet;
#X obj 85 31 cnv 5 5 17 empty empty empty 20 12 0 14 -118750 -66577
0;
#X obj 85 431 cnv 5 5 17 empty empty empty 20 12 0 14 -102336 -66577
0;
#X obj 91 55 list;
#X obj 91 193 list store, f 13;
#X obj 91 102 until;
#X obj 91 128 f, f 7;
#X obj 153 128 + 1;
#X msg 91 171 get \$1 1;
#X obj 134 103 0;
#X obj 91 263 list fromsymbol;
#X obj 91 215 route symbol float;
#X obj 109 239 makefilename %s;
#X obj 91 150 t f f;
#X obj 91 380 list store, f 19;
#X obj 91 355 list trim;
#X obj 91 332 list prepend append;
#X obj 157 286 spigot;
#X msg 157 308 32;
#X obj 91 286 t l b, f 9;
#X obj 91 77 t b b a b, f 19;
#X obj 91 404 list tosymbol;
#X connect 2 0 6 0;
#X connect 6 0 23 0;
#X connect 7 0 14 0;
#X connect 7 1 8 1;
#X connect 7 1 17 0;
#X connect 8 0 9 0;
#X connect 9 0 10 0;
#X connect 9 0 16 0;
#X connect 10 0 9 1;
#X connect 11 0 7 0;
#X connect 12 0 9 1;
#X connect 13 0 22 0;
#X connect 14 0 13 0;
#X connect 14 1 15 0;
#X connect 15 0 13 0;
#X connect 16 0 11 0;
#X connect 16 1 20 1;
#X connect 17 0 24 0;
#X connect 18 0 17 0;
#X connect 19 0 18 0;
#X connect 20 0 21 0;
#X connect 21 0 19 0;
#X connect 22 0 19 0;
#X connect 22 1 20 0;
#X connect 23 0 8 0;
#X connect 23 1 12 0;
#X connect 23 2 7 1;
#X connect 23 3 17 1;
#X connect 24 0 3 0;
#X restore 85 70 pd tosymbol;
#X obj 106 32 r \$2-clip\$1_file;
#X obj 84 96 splitfilename /;
#X obj 87 135 splitfilename .;
#X obj 278 127 r \$2-duration\$1_smpl;
#X obj 278 151 select 0;
#X obj 274 180 delay 20;
#X connect 1 0 4 0;
#X connect 2 0 4 0;
#X connect 3 0 2 0;
#X connect 5 0 7 0;
#X connect 6 0 5 0;
#X connect 7 1 8 0;
#X connect 8 0 1 0;
#X connect 9 0 10 0;
#X connect 10 0 11 0;
#X connect 11 0 2 0;
#X restore 34 156 pd gui.displaying_filename;
#N canvas 0 290 268 245 global_stop_message 0;
#X obj 76 31 r \$2-stop;
#X obj 79 178 s \$0-mode;
#X obj 83 71 v \$0-mode;
#X obj 83 96 select 0 1 2;
#X msg 110 129 2;
#X connect 0 0 2 0;
#X connect 2 0 3 0;
#X connect 3 1 4 0;
#X connect 4 0 1 0;
#X restore 529 840 pd global_stop_message;
#X obj 645 488 s \$2-duration\$1_ms;
#X obj 678 467 s \$2-duration\$1_smpl;
#X obj 69 446 r \$2-duration\$1_smpl;
#N canvas 0 50 450 300 switch_mode 0;
#X obj 142 99 delay 10;
#X msg 142 122 0;
#X msg 105 121 1;
#X obj 106 20 r \$0-mode;
#X obj 106 45 == 1;
#X obj 107 72 select 1 0;
#X obj 134 160 s \$0-switch;
#X obj 81 177 outlet;
#X connect 0 0 1 0;
#X connect 1 0 6 0;
#X connect 1 0 7 0;
#X connect 2 0 6 0;
#X connect 2 0 7 0;
#X connect 3 0 4 0;
#X connect 3 0 5 0;
#X connect 5 0 2 0;
#X connect 5 1 0 0;
#X restore 334 42 pd switch_mode;
#N canvas 0 50 450 300 gui.cursor 0;
#X obj 70 27 inlet~;
#X obj 128 217 s \$2-hsl\$1-rcv;
#X obj 130 139 snapshot~;
#X obj 156 57 r \$0-switch;
#X obj 147 105 metro 100;
#X obj 226 84 select 0;
#X msg 226 109 set 0;
#X msg 99 180 set \$1;
#X connect 0 0 2 0;
#X connect 2 0 7 0;
#X connect 3 0 4 0;
#X connect 3 0 5 0;
#X connect 4 0 2 0;
#X connect 5 0 6 0;
#X connect 6 0 1 0;
#X connect 7 0 1 0;
#X restore 91 390 pd gui.cursor;
#N canvas 0 50 784 495 stretch_speed 0;
#X obj 57 50 r BPM;
#X obj 146 41 r \$2-clip\$1_bpm;
#X obj 148 66 t b f;
#X obj 110 121 / 120;
#X obj 125 93 v BPM;
#X obj 51 256 s \$2-speed\$1;
#X msg 181 222 set \$1;
#X obj 180 253 s \$2-speed\$1-rcv;
#X obj 278 50 r \$2-clip\$1_algorithm;
#X obj 91 157 f;
#X obj 91 182 spigot;
#X obj 91 207 t f f;
#X obj 281 121 select 0;
#X obj 268 74 t f f;
#X msg 281 146 1;
#X obj 338 147 t b;
#X obj 340 225 s \$2-clip\$1_loop;
#X msg 338 200 0;
#X obj 285 175 delay 1;
#X connect 0 0 3 0;
#X connect 1 0 2 0;
#X connect 2 0 4 0;
#X connect 2 1 3 1;
#X connect 3 0 9 0;
#X connect 4 0 3 0;
#X connect 6 0 7 0;
#X connect 8 0 13 0;
#X connect 9 0 10 0;
#X connect 10 0 11 0;
#X connect 11 0 5 0;
#X connect 11 1 6 0;
#X connect 12 0 14 0;
#X connect 12 0 18 0;
#X connect 12 1 15 0;
#X connect 13 0 12 0;
#X connect 13 1 10 1;
#X connect 14 0 11 0;
#X connect 15 0 9 0;
#X connect 17 0 16 0;
#X connect 18 0 17 0;
#X restore 31 326 pd stretch_speed;
#X obj 37 556 *~;
#X floatatom 69 471 10 0 0 0 - - -;
#X obj 464 167 r \$2-clip\$1_file;
#X obj 164 524 r \$2-clip\$1_algorithm;
#N canvas 0 57 1920 1023 playolap 0;
#X obj 36 47 inlet~;
#X obj 223 47 inlet;
#X obj 37 334 outlet~;
#X obj 343 49 inlet switch;
#X obj 181 336 outlet~;
#X obj 356 92 switch~;
#X obj 259 106 r \$2-speed\$1;
#X msg 262 130 5 \$1;
#X msg 243 228 chunk-size \$1;
#X obj 182 45 vsl 15 128 1 200 0 0 empty empty empty 0 -9 0 10 -262144
-1 -1 0 1;
#X floatatom 182 195 5 0 0 0 - - -;
#X obj 259 156 /;
#X obj 23 286 pdr_playolap2 \$0-sampler;
#X connect 0 0 12 0;
#X connect 1 0 12 1;
#X connect 3 0 5 0;
#X connect 6 0 7 0;
#X connect 7 0 11 0;
#X connect 8 0 12 1;
#X connect 9 0 8 0;
#X connect 9 0 10 0;
#X connect 11 0 8 0;
#X connect 12 0 2 0;
#X connect 12 1 4 0;
#X restore 181 650 pd playolap;
#N canvas 0 50 450 300 play_varispeed 0;
#X obj 38 65 inlet~;
#X obj 329 34 inlet;
#X obj 43 169 outlet~;
#X obj 224 170 outlet~;
#X obj 330 106 switch~;
#X obj 228 10 loadbang;
#X obj 228 62 delay 100;
#X obj 329 59 t b;
#X msg 258 36 stop;
#X msg 228 87 1;
#X obj 38 128 tabread4~ \$2-mytable_clip\$1-1;
#X obj 265 127 tabread4~ \$2-mytable_clip\$1-2;
#X connect 0 0 10 0;
#X connect 0 0 11 0;
#X connect 1 0 4 0;
#X connect 1 0 7 0;
#X connect 5 0 6 0;
#X connect 6 0 9 0;
#X connect 7 0 8 0;
#X connect 8 0 6 0;
#X connect 9 0 4 0;
#X connect 10 0 2 0;
#X connect 11 0 3 0;
#X restore 33 644 pd play_varispeed;
#N canvas 0 50 450 300 fade_in/out 0;
#X obj 110 258 outlet~;
#X obj 173 73 r \$0-mode;
#X msg 241 138 0 10;
#X obj 173 98 select 1 0 2;
#X obj 115 182 line~;
#X msg 152 133 1 10;
#X obj 237 163 r \$2-clip\$1_gain;
#X obj 236 220 lop~ 1;
#X obj 112 220 *~;
#X obj 236 191 dbtorms;
#X connect 1 0 3 0;
#X connect 2 0 4 0;
#X connect 3 0 5 0;
#X connect 3 1 2 0;
#X connect 3 2 2 0;
#X connect 4 0 8 0;
#X connect 5 0 4 0;
#X connect 6 0 9 0;
#X connect 7 0 8 1;
#X connect 8 0 0 0;
#X connect 9 0 7 0;
#X restore 162 787 pd fade_in/out;
#X obj 976 80 makefilename %c;
#X msg 977 45 32;
#X msg 974 106 separator \$1;
#X obj 211 591 == 2;
#X obj 250 595 == 3;
#X obj 148 576 <= 1;
#N canvas 0 50 946 871 cooked_phasor+sync_loop 0;
#X obj 80 689 outlet~;
#X obj 42 64 r \$2-speed\$1;
#X obj 56 143 / 1;
#X floatatom 103 103 5 0 0 0 - - -;
#X obj 57 103 t b f;
#X obj 21 31 r \$2-duration\$1_ms;
#X obj 189 283 phasor~;
#X msg 234 238 0;
#X obj 52 198 /;
#X obj 233 155 r \$0-mode;
#X msg 52 173 1000 \$1;
#X obj 176 219 f;
#X obj 187 190 select 1 0 2;
#X msg 613 389 1;
#X obj 480 326 r \$2-clock;
#X obj 483 391 select 0;
#X obj 483 445 spigot;
#X obj 483 470 t b b;
#X msg 572 444 0;
#X obj 484 569 select 1 0;
#X text 377 529 reset phase;
#X msg 517 613 0;
#X obj 517 638 s \$0-mode;
#X msg 445 605 0;
#X obj 583 283 bng 15 250 50 0 empty empty empty 17 7 0 10 -262144
-1 -1;
#X obj 701 275 bng 15 250 50 0 empty empty empty 17 7 0 10 -262144
-1 -1;
#X obj 533 240 threshold~ 0.99 10 0.1 10;
#X obj 552 495 r \$2-clip\$1_loop;
#X text 724 239 synchro loop;
#X obj 484 544 f 0;
#X obj 347 20 r \$2-clip\$1_from;
#X obj 215 20 r \$2-clip\$1_to;
#X obj 323 76 -;
#X obj 346 44 t b f;
#X msg 342 165 1 \$1;
#X obj 342 190 /;
#X obj 198 346 *~ 1;
#X obj 282 268 abs;
#X obj 116 279 > 0;
#X obj 105 304 select 0;
#X msg 111 335 -1;
#X obj 164 400 *~ 1;
#X obj 213 124 t f f;
#X obj 255 95 f;
#X obj 376 105 f;
#X obj 139 517 +~ 0;
#X obj 455 680 s \$0-refresh;
#X obj 483 52 r \$0-refresh;
#X obj 483 77 t b b;
#X obj 483 366 mod 12;
#X connect 1 0 4 0;
#X connect 2 0 10 0;
#X connect 4 0 2 0;
#X connect 4 1 2 1;
#X connect 5 0 2 0;
#X connect 6 0 36 0;
#X connect 6 0 41 0;
#X connect 7 0 6 1;
#X connect 7 0 6 0;
#X connect 8 0 11 0;
#X connect 9 0 12 0;
#X connect 10 0 8 0;
#X connect 11 0 6 0;
#X connect 12 0 11 0;
#X connect 12 1 7 0;
#X connect 12 2 7 0;
#X connect 13 0 16 1;
#X connect 14 0 49 0;
#X connect 15 0 16 0;
#X connect 16 0 17 0;
#X connect 17 0 29 0;
#X connect 17 1 18 0;
#X connect 17 1 46 0;
#X connect 18 0 16 1;
#X connect 19 0 23 0;
#X connect 19 1 21 0;
#X connect 21 0 22 0;
#X connect 23 0 6 1;
#X connect 26 0 13 0;
#X connect 26 0 24 0;
#X connect 26 1 25 0;
#X connect 27 0 29 1;
#X connect 29 0 19 0;
#X connect 30 0 33 0;
#X connect 31 0 32 0;
#X connect 32 0 43 1;
#X connect 32 0 34 0;
#X connect 33 0 32 0;
#X connect 33 1 32 1;
#X connect 33 1 44 1;
#X connect 34 0 35 0;
#X connect 35 0 37 0;
#X connect 36 0 26 0;
#X connect 37 0 36 1;
#X connect 38 0 39 0;
#X connect 39 0 40 0;
#X connect 39 1 41 1;
#X connect 40 0 41 1;
#X connect 41 0 45 0;
#X connect 42 0 38 0;
#X connect 43 0 42 0;
#X connect 44 0 45 1;
#X connect 45 0 0 0;
#X connect 47 0 48 0;
#X connect 48 0 43 0;
#X connect 48 1 44 0;
#X connect 49 0 15 0;
#X restore 28 351 pd cooked_phasor+sync_loop;
#X obj 616 324 u_samplebank2 \$2-mytable_clip\$1;
#X obj 596 562 s \$2-\$1-refresh;
#X obj 581 521 t b;
#X obj 445 266 loadbang;
#N canvas 824 209 450 300 random_bounds 0;
#X obj 183 118 r \$2-randomize_clip\$1;
#X obj 28 4 r \$2-clip\$1_bpm;
#X obj 147 6 r \$2-duration\$1_ms;
#X obj 29 77 *;
#X obj 29 102 / 60000;
#X obj 29 127 * 2;
#X text 73 132 nb of 8 th;
#X obj 29 206 int;
#X obj 59 301 random;
#X obj 118 302 random;
#X obj 185 181 t b b;
#X obj 89 357 s \$2-clip\$1_to;
#X obj 254 349 s \$2-clip\$1_from;
#X obj 59 326 /;
#X obj 118 327 /;
#X obj 23 243 t f f;
#X obj 19 152 t a a a;
#X obj 66 34 t b f;
#X connect 0 0 10 0;
#X connect 1 0 3 0;
#X connect 2 0 17 0;
#X connect 3 0 4 0;
#X connect 4 0 5 0;
#X connect 5 0 16 0;
#X connect 7 0 15 0;
#X connect 8 0 13 0;
#X connect 9 0 14 0;
#X connect 10 0 8 0;
#X connect 10 1 9 0;
#X connect 13 0 11 0;
#X connect 14 0 12 0;
#X connect 15 0 8 1;
#X connect 15 1 9 1;
#X connect 16 0 7 0;
#X connect 16 1 13 1;
#X connect 16 2 14 1;
#X connect 17 0 3 0;
#X connect 17 1 3 1;
#X restore 32 301 pd random_bounds;
#X obj 560 231 t s s;
#N canvas 492 87 933 678 openpanel_stuff 1;
#X obj 177 26 inlet;
#X obj 412 503 outlet;
#X obj 130 301 openpanel;
#X obj 104 408 s \$2-clip\$1_file;
#N canvas 0 50 871 730 extracting_bpm 0;
#X obj 285 27 inlet;
#X obj 342 620 s \$2-clip\$1_bpm;
#N canvas 696 149 561 762 tosymbol 0;
#X text 65 454 symbol out with correct spaces;
#X text 81 12 string in;
#X obj 91 31 inlet;
#X obj 91 431 outlet;
#X obj 85 31 cnv 5 5 17 empty empty empty 20 12 0 14 -118750 -66577
0;
#X obj 85 431 cnv 5 5 17 empty empty empty 20 12 0 14 -102336 -66577
0;
#X obj 91 55 list;
#X obj 91 193 list store, f 13;
#X obj 91 102 until;
#X obj 91 128 f, f 7;
#X obj 153 128 + 1;
#X msg 91 171 get \$1 1;
#X obj 134 103 0;
#X obj 91 263 list fromsymbol;
#X obj 91 215 route symbol float;
#X obj 109 239 makefilename %s;
#X obj 91 150 t f f;
#X obj 91 380 list store, f 19;
#X obj 90 357 list trim;
#X obj 90 331 list prepend append;
#X obj 157 286 spigot;
#X msg 157 308 32;
#X obj 91 286 t l b, f 9;
#X obj 91 77 t b b a b, f 19;
#X obj 91 404 list tosymbol;
#X connect 2 0 6 0;
#X connect 6 0 23 0;
#X connect 7 0 14 0;
#X connect 7 1 8 1;
#X connect 7 1 17 0;
#X connect 8 0 9 0;
#X connect 9 0 10 0;
#X connect 9 0 16 0;
#X connect 10 0 9 1;
#X connect 11 0 7 0;
#X connect 12 0 9 1;
#X connect 13 0 22 0;
#X connect 14 0 13 0;
#X connect 14 1 15 0;
#X connect 15 0 13 0;
#X connect 16 0 11 0;
#X connect 16 1 20 1;
#X connect 17 0 24 0;
#X connect 18 0 17 0;
#X connect 19 0 18 0;
#X connect 20 0 21 0;
#X connect 21 0 19 0;
#X connect 22 0 19 0;
#X connect 22 1 20 0;
#X connect 23 0 8 0;
#X connect 23 1 12 0;
#X connect 23 2 7 1;
#X connect 23 3 17 1;
#X connect 24 0 3 0;
#X restore 287 76 pd tosymbol;
#X obj 287 101 iemlib/splitfilename .;
#X obj 324 197 list length;
#X obj 260 305 list split;
#X obj 324 222 - 3;
#X obj 287 133 list fromsymbol;
#X obj 294 337 list tosymbol;
#X obj 294 362 select bpm BPM;
#X msg 234 376 1;
#X obj 287 166 t l l l b;
#X msg 193 371 0;
#X obj 188 527 route bang;
#X obj 81 465 list tosymbol;
#X obj 252 455 list tosymbol;
#X obj 257 429 spigot;
#X obj 108 428 spigot;
#X obj 170 399 == 0;
#X obj 249 485 iemlib/splitfilename -;
#X obj 340 594 float;
#X text 525 147 live;
#X text 516 243 usine;
#X obj 20 491 iemlib/splitfilename space;
#X obj 253 560 select symbol;
#X msg 429 517 symbol;
#X obj 426 485 loadbang;
#X text 554 173 <file name>-###bpm.wav;
#X text 556 267 <file name> bpm.wav;
#X text 554 193 <file name>-###bpm.aif;
#X text 556 287 <file name> bpm.aif;
#X connect 0 0 2 0;
#X connect 2 0 3 0;
#X connect 3 0 7 0;
#X connect 4 0 6 0;
#X connect 5 0 16 0;
#X connect 5 1 8 0;
#X connect 6 0 5 1;
#X connect 7 0 11 0;
#X connect 8 0 9 0;
#X connect 9 0 10 0;
#X connect 9 1 10 0;
#X connect 10 0 18 0;
#X connect 10 0 16 1;
#X connect 11 0 17 0;
#X connect 11 1 5 0;
#X connect 11 2 4 0;
#X connect 11 3 12 0;
#X connect 12 0 18 0;
#X connect 12 0 16 1;
#X connect 13 1 24 0;
#X connect 14 0 23 0;
#X connect 15 0 19 0;
#X connect 16 0 15 0;
#X connect 17 0 14 0;
#X connect 18 0 17 1;
#X connect 19 1 24 0;
#X connect 20 0 1 0;
#X connect 23 1 13 0;
#X connect 24 1 20 0;
#X connect 25 0 24 1;
#X connect 26 0 25 0;
#X restore 168 381 pd extracting_bpm;
#N canvas 696 149 561 762 tosymbol 0;
#X text 65 454 symbol out with correct spaces;
#X text 81 12 string in;
#X obj 91 31 inlet;
#X obj 91 431 outlet;
#X obj 85 31 cnv 5 5 17 empty empty empty 20 12 0 14 -118750 -66577
0;
#X obj 85 431 cnv 5 5 17 empty empty empty 20 12 0 14 -102336 -66577
0;
#X obj 91 55 list;
#X obj 91 193 list store, f 13;
#X obj 91 102 until;
#X obj 91 128 f, f 7;
#X obj 153 128 + 1;
#X msg 91 171 get \$1 1;
#X obj 134 103 0;
#X obj 91 263 list fromsymbol;
#X obj 91 215 route symbol float;
#X obj 109 239 makefilename %s;
#X obj 91 150 t f f;
#X obj 91 380 list store, f 19;
#X obj 90 357 list trim;
#X obj 90 331 list prepend append;
#X obj 157 286 spigot;
#X msg 157 308 32;
#X obj 91 286 t l b, f 9;
#X obj 91 77 t b b a b, f 19;
#X obj 91 404 list tosymbol;
#X connect 2 0 6 0;
#X connect 6 0 23 0;
#X connect 7 0 14 0;
#X connect 7 1 8 1;
#X connect 7 1 17 0;
#X connect 8 0 9 0;
#X connect 9 0 10 0;
#X connect 9 0 16 0;
#X connect 10 0 9 1;
#X connect 11 0 7 0;
#X connect 12 0 9 1;
#X connect 13 0 22 0;
#X connect 14 0 13 0;
#X connect 14 1 15 0;
#X connect 15 0 13 0;
#X connect 16 0 11 0;
#X connect 16 1 20 1;
#X connect 17 0 24 0;
#X connect 18 0 17 0;
#X connect 19 0 18 0;
#X connect 20 0 21 0;
#X connect 21 0 19 0;
#X connect 22 0 19 0;
#X connect 22 1 20 0;
#X connect 23 0 8 0;
#X connect 23 1 12 0;
#X connect 23 2 7 1;
#X connect 23 3 17 1;
#X connect 24 0 3 0;
#X restore 150 356 pd tosymbol;
#X obj 106 265 pdcontrol;
#X msg 104 240 dir 2;
#X obj 136 150 r PDR_LASTEST_FILENAME;
#X text 438 117 PDR global;
#X obj 130 329 t a a b s b;
#X obj 18 33 inlet;
#X obj 104 214 select symbol;
#X obj 102 179 symbol;
#X msg 281 87 symbol;
#X obj 103 111 select symbol;
#X obj 103 88 symbol;
#X obj 275 51 loadbang;
#X connect 0 0 16 1;
#X connect 2 0 10 0;
#X connect 5 0 4 0;
#X connect 6 0 2 0;
#X connect 7 0 6 0;
#X connect 8 0 13 1;
#X connect 10 0 3 0;
#X connect 10 1 5 0;
#X connect 10 2 1 0;
#X connect 11 0 16 0;
#X connect 12 0 7 0;
#X connect 12 1 2 0;
#X connect 13 0 12 0;
#X connect 14 0 12 1;
#X connect 14 0 15 1;
#X connect 15 0 13 0;
#X connect 15 1 2 0;
#X connect 16 0 15 0;
#X connect 17 0 14 0;
#X restore 446 82 pd openpanel_stuff;
#N canvas 0 50 450 300 load_defaults 0;
#X obj 82 30 inlet;
#X msg 77 187 16;
#X obj 63 236 s \$2-clip\$1_quant-rcv;
#X msg 68 273 1;
#X msg 184 276 0;
#X obj 67 315 s \$2-clip\$1_to-rcv;
#X obj 211 317 s \$2-clip\$1_from-rcv;
#X obj 240 215 s \$2-clip\$1_bpm;
#X msg 236 183 120;
#X obj 149 413 s \$2-clip\$1_gain;
#X msg 140 363 100;
#X obj 45 483 s \$2-clip\$1_pvoclock;
#X msg 203 144 1, f 8;
#X obj 88 106 t b b b b b b;
#X connect 0 0 13 0;
#X connect 1 0 2 0;
#X connect 3 0 5 0;
#X connect 4 0 6 0;
#X connect 8 0 7 0;
#X connect 10 0 9 0;
#X connect 12 0 11 0;
#X connect 13 0 8 0;
#X connect 13 1 3 0;
#X connect 13 2 4 0;
#X connect 13 3 12 0;
#X connect 13 4 10 0;
#X connect 13 5 1 0;
#X restore 432 295 pd load_defaults;
#N canvas 814 132 739 579 pvoc(FTT) 0;
#X obj 38 65 inlet~;
#X obj 329 34 inlet;
#X obj 46 431 outlet~;
#X obj 227 432 outlet~;
#X obj 330 106 switch~;
#X obj 228 10 loadbang;
#X obj 228 62 delay 100;
#X obj 329 59 t b;
#X msg 258 36 stop;
#X msg 228 87 1;
#X obj 142 223 snapshot~;
#X obj 129 185 bang~;
#X msg 159 271 location_ms \$1;
#X obj 48 213 /~ 44.1;
#X msg 518 253 locking \$1;
#X obj 138 326 pvoc2~ \$2-mytable_clip\$1-1 1024 2;
#X obj 163 371 pvoc2~ \$2-mytable_clip\$1-2 1024 2;
#X obj 299 198 r \$2-clip\$1_pvoclock;
#X connect 0 0 13 0;
#X connect 1 0 4 0;
#X connect 1 0 7 0;
#X connect 5 0 6 0;
#X connect 6 0 9 0;
#X connect 7 0 8 0;
#X connect 8 0 6 0;
#X connect 9 0 4 0;
#X connect 10 0 12 0;
#X connect 11 0 10 0;
#X connect 12 0 15 0;
#X connect 12 0 16 0;
#X connect 13 0 10 0;
#X connect 14 0 15 0;
#X connect 14 0 16 0;
#X connect 15 0 2 0;
#X connect 16 0 3 0;
#X connect 17 0 14 0;
#X restore 290 647 pd pvoc(FTT);
#X text 885 459 1 double sixteenth;
#X text 891 506 4 noire quarter;
#X text 889 484 2 croche eigthth;
#X text 889 526 8 blanche half;
#X obj 656 6 r \$2-open\$1;
#X obj 501 9 r \$2-\$1-openpanel;
#X obj 654 197 s \$2-hsl\$1;
#X obj 656 32 t b b;
#X obj 655 147 spigot;
#X msg 742 117 1;
#X obj 654 173 t b b;
#X msg 737 155 0;
#X msg 696 116 0;
#X obj 503 36 t b b;
#X obj 445 106 t s s b;
#X obj 467 142 s \$2-clip\$1_file;
#X obj 586 80 iemlib/splitfilename /;
#X connect 0 0 24 0;
#X connect 5 0 49 0;
#X connect 6 0 39 1;
#X connect 7 0 49 0;
#X connect 11 0 10 0;
#X connect 11 1 9 0;
#X connect 11 1 29 0;
#X connect 11 2 8 0;
#X connect 11 2 30 0;
#X connect 11 3 12 0;
#X connect 13 0 5 0;
#X connect 14 0 54 0;
#X connect 18 0 16 0;
#X connect 19 0 17 0;
#X connect 21 0 49 0;
#X connect 22 0 23 0;
#X connect 23 0 6 0;
#X connect 25 0 1 0;
#X connect 31 0 35 1;
#X connect 31 0 36 0;
#X connect 32 0 20 0;
#X connect 35 0 39 0;
#X connect 35 0 40 0;
#X connect 35 0 57 0;
#X connect 37 0 14 0;
#X connect 38 0 45 0;
#X connect 38 0 46 0;
#X connect 38 0 47 0;
#X connect 39 0 18 0;
#X connect 39 1 19 0;
#X connect 40 0 18 0;
#X connect 40 1 19 0;
#X connect 41 0 18 1;
#X connect 41 0 19 1;
#X connect 42 0 44 0;
#X connect 43 0 42 0;
#X connect 45 0 39 2;
#X connect 46 0 57 1;
#X connect 47 0 40 1;
#X connect 48 0 33 0;
#X connect 48 0 35 0;
#X connect 49 0 11 0;
#X connect 49 0 23 0;
#X connect 49 0 51 0;
#X connect 51 0 50 0;
#X connect 52 0 56 0;
#X connect 54 0 7 0;
#X connect 54 1 74 0;
#X connect 55 0 72 0;
#X connect 57 0 18 0;
#X connect 57 1 19 0;
#X connect 62 0 65 0;
#X connect 63 0 71 0;
#X connect 65 0 55 0;
#X connect 65 1 67 0;
#X connect 66 0 68 0;
#X connect 67 0 66 1;
#X connect 68 0 64 0;
#X connect 68 1 69 0;
#X connect 69 0 66 1;
#X connect 70 0 66 1;
#X connect 71 0 55 0;
#X connect 71 1 70 0;
#X connect 72 0 56 0;
#X connect 72 1 73 0;
#X connect 72 2 66 0;
#X connect 74 0 55 1;
