#N canvas 407 114 1487 918 12;
#X obj 0 1 cnv 15 500 420 empty empty empty 20 12 0 14 -128992 -66577
0;
#X text 18 6 LAUNCH;
#X obj 89 11 bng 60 250 50 0 \$2-\$1-openpanel empty empty 17 7 0 10
-262144 -1 -1;
#X text 100 39 file;
#X obj 20 30 tgl 40 0 \$2-clip\$1 \$2-clip\$1-rcv ► 5 18 0 28 -228992
-228992 -1 0 1;
#X obj 279 64 cnv 15 220 220 empty empty empty 20 12 0 14 -262130 -66577
0;
#X obj 416 119 tgl 20 0 \$2-clip\$1_loop \$2-clip\$1_loop-rcv Loop
22 7 0 14 -262144 -1 -1 1 1;
#X obj 292 87 vradio 17 1 0 4 \$2-clip\$1_algorithm \$2-clip\$1_algorithm-rcv
empty 0 -8 0 10 -262144 -1 -1 3;
#X text 314 119 playolap;
#X obj 535 125 s pd-\$2-clip-\$1_edit;
#X msg 538 86 vis 0;
#X obj 437 4 bng 60 250 50 0 empty empty X 12 32 0 60 -262144 -1 -1
;
#X text 314 102 varispeed;
#X text 313 136 pvoc (FFT);
#X text 314 86 OFF;
#X text 397 100 |;
#X text 397 112 |;
#X text 397 124 |;
#X text 397 136 |;
#X text 387 88 __;
#X text 387 137 __;
#X text 400 112 __;
#X text 290 63 WRAP MODE;
#X obj 2 81 cnv 15 160 80 empty empty empty 20 12 0 14 -203904 -66577
0;
#X text 31 79 Quantization;
#X text 59 101 <-custom / global, f 9;
#X obj 99 394 hsl 395 20 0 1 0 0 empty \$2-clip\$1_to-rcv TO 105 10
0 14 -261681 -1 -1 39400 0;
#X text 376 264 Position;
#N canvas 430 162 1242 711 compute_enveloppe 0;
#X obj 75 30 inlet;
#X obj 161 103 list;
#X obj 246 119 unpack s s s;
#X obj 112 236 / 1024;
#X msg 101 307 1;
#X obj 39 290 t b b;
#X obj 340 695 f;
#X obj 34 480 tabplay~;
#X msg 174 328 set \$1;
#X obj 104 520 env~;
#X obj 123 483 tabplay~;
#X msg 238 328 set \$1;
#X obj 35 825 array set;
#X obj 30 756 t f b;
#X obj 61 790 f;
#X obj 114 792 + 1;
#X obj 342 792 outlet done;
#X msg 185 679 0;
#X obj 427 562 log;
#X floatatom 427 587 5 0 0 0 - - -;
#X msg 426 460 1;
#X msg 472 461 0.1;
#X obj 102 417 switch~ 1024 1 16;
#X obj 75 133 symbol;
#X obj 98 670 max 0;
#X msg 379 192 symbol \$1_;
#X obj 168 820 array set;
#X obj 163 751 t f b;
#X obj 194 785 f;
#X obj 247 787 + 1;
#X obj 98 695 * -1;
#X obj 95 556 dbtorms;
#X obj 97 641 min 1;
#X msg 520 208 \; sample resize 10;
#X obj 437 272 list append;
#X msg 437 297 \; \$2 resize \$1 \; \$2_ resize \$1;
#X floatatom 106 272 5 0 0 0 - - -;
#X obj 210 168 bng 15 250 50 0 empty empty empty 17 7 0 10 -262144
-1 -1;
#X obj 618 679 list append;
#X obj 340 724 t f b;
#X msg 627 736 \; \$1 normalize \; \$1_ normalize;
#X obj 88 74 route float set;
#X obj 88 99 t b f;
#X obj 69 168 t b s b;
#X obj 951 772 outlet;
#X obj 36 385 f;
#X obj 675 45 inlet;
#X connect 0 0 41 0;
#X connect 1 0 2 0;
#X connect 2 0 23 1;
#X connect 2 1 11 0;
#X connect 2 2 12 2;
#X connect 2 2 25 0;
#X connect 2 2 34 1;
#X connect 2 2 38 1;
#X connect 3 0 6 1;
#X connect 3 0 34 0;
#X connect 3 0 36 0;
#X connect 3 0 44 0;
#X connect 4 0 22 0;
#X connect 5 0 45 0;
#X connect 5 1 4 0;
#X connect 6 0 39 0;
#X connect 7 0 9 0;
#X connect 7 1 6 0;
#X connect 8 0 7 0;
#X connect 9 0 31 0;
#X connect 10 0 9 0;
#X connect 11 0 10 0;
#X connect 13 0 12 0;
#X connect 13 1 14 0;
#X connect 14 0 15 0;
#X connect 14 0 12 1;
#X connect 15 0 14 1;
#X connect 17 0 14 1;
#X connect 17 0 28 1;
#X connect 18 0 19 0;
#X connect 20 0 18 0;
#X connect 21 0 18 0;
#X connect 23 0 43 0;
#X connect 24 0 13 0;
#X connect 24 0 30 0;
#X connect 25 0 26 2;
#X connect 27 0 26 0;
#X connect 27 1 28 0;
#X connect 28 0 29 0;
#X connect 28 0 26 1;
#X connect 29 0 28 1;
#X connect 30 0 27 0;
#X connect 31 0 32 0;
#X connect 32 0 24 0;
#X connect 34 0 35 0;
#X connect 38 0 40 0;
#X connect 39 0 16 0;
#X connect 39 1 38 0;
#X connect 41 0 42 0;
#X connect 41 1 1 0;
#X connect 42 0 23 0;
#X connect 42 1 3 0;
#X connect 43 0 5 0;
#X connect 43 1 8 0;
#X connect 43 2 17 0;
#X connect 45 0 7 0;
#X connect 45 0 10 0;
#X connect 46 0 45 1;
#X restore 839 667 pd compute_enveloppe;
#X text 721 99 source arrays to visualize : audio-l & audio-r, f 29
;
#X text 720 151 destination arrays : sample & sample_, f 21;
#X obj 550 306 spigot;
#X obj 99 314 hsl 395 80 0 1 0 0 empty empty konkrete_g4\ 120 10 30
0 20 -262130 -1 -1 33227 1;
#N canvas 0 50 450 250 (subpatch) 0;
#X array \$0-sample 172 float 0;
#X coords 0 1.1 171 -1.1 400 80 1 0 0;
#X restore 96 314 graph;
#N canvas 0 50 450 250 (subpatch) 0;
#X array \$0-sample_ 172 float 0;
#X coords 0 1.1 171 -1.1 400 80 1 0 0;
#X restore 96 314 graph;
#N canvas 761 28 761 733 todo 0;
#X obj 0 1 cnv 15 500 420 empty empty empty 20 12 0 14 -128992 -66577
0;
#X text 55 40 launch mode;
#X obj 177 39 vradio 15 1 0 3 empty empty empty 0 -8 0 10 -128992 -1
-1 0;
#X text 199 34 trigger;
#X text 201 50 gate;
#X text 199 68 toggle;
#X obj 64 94 tgl 15 0 empty empty empty 17 7 0 10 -128992 -1 -1 0 1
;
#X text 85 90 legato;
#X text 334 200 Follow Action;
#X text 338 175 Vel;
#X floatatom 379 174 5 0 0 0 - - -;
#X floatatom 337 237 5 0 0 2 mes - -;
#X floatatom 394 238 2 0 0 2 beat - -;
#X floatatom 438 240 2 0 0 2 16th - -;
#X obj 355 267 vradio 15 1 0 8 empty empty empty 0 -8 0 10 -128992
-1 -1 0;
#X text 379 261 stop;
#X text 378 278 play again;
#X text 378 294 previous;
#X text 379 308 next;
#X text 378 322 first;
#X text 378 337 last;
#X text 375 350 any;
#X floatatom 326 55 5 0 0 2 mes - -;
#X floatatom 379 55 2 0 0 2 beat - -;
#X floatatom 426 54 2 0 0 2 16th - -;
#X floatatom 326 127 5 0 0 2 mes - -;
#X floatatom 379 127 2 0 0 2 beat - -;
#X floatatom 426 126 2 0 0 2 16th - -;
#X text 326 86 Length;
#X obj 14 351 hsl 50 15 -1 1 0 0 empty empty CENTER 2 8 0 10 -232576
-1 -1 0 1;
#X obj 14 371 hsl 50 15 0 1 0 0 \$2-var_clip\$1 \$2-var_clip\$1-rcv
RANGE 2 8 0 10 -232576 -1 -1 0 1;
#X restore 618 16 pd todo;
#X obj 598 238 route vis;
#X obj 754 262 list append \$2-mytable_clip\$1 \$0-sample;
#X obj 754 237 loadbang;
#X obj 609 307 select 1;
#X obj 648 355 v \$2-duration\$1_smpl;
#X msg 754 287 set \$1-1 \$1-2 \$2;
#X obj 542 178 r \$2-hsl\$1-rcv;
#X obj 582 661 v \$2-duration\$1_ms;
#X obj 597 367 bng 15 250 50 0 empty empty empty 17 7 0 10 -262144
-1 -1;
#X obj 480 852 s \$0-sample;
#X msg 496 677 60000 \$1;
#X obj 496 702 /;
#X obj 496 727 /;
#X obj 496 752 *;
#X obj 624 509 t b b f;
#X obj 550 434 r \$2-clip\$1_bpm;
#X obj 534 521 f;
#X obj 697 419 pipe f 10;
#X floatatom 584 711 5 0 0 0 - - -;
#X floatatom 588 751 5 0 0 0 - - -;
#X obj 864 188 r \$2-\$1-refresh;
#X obj 610 277 f;
#X msg 48 482 label;
#X obj 645 383 select 0;
#X obj 496 780 / 2;
#X obj 446 560 bng 15 250 50 0 empty empty empty 17 7 0 10 -262144
-1 -1;
#X msg 481 831 xticks 0 \$1 2;
#X obj 531 557 pipe 20;
#X obj 491 605 select 0;
#X obj 570 204 r pd-\$2-clip-\$1_edit;
#X obj 536 463 spigot;
#X obj 980 383 r \$2-clip\$1_file;
#X obj 938 471 select symbol;
#X obj 934 436 symbol;
#X msg 1084 438 symbol;
#X obj 1084 409 loadbang;
#N canvas 696 149 561 762 tosymbol 0;
#X text 65 454 symbol out with correct spaces;
#X text 81 12 string in;
#X obj 91 31 inlet;
#X obj 91 431 outlet;
#X obj 85 31 cnv 5 5 17 empty empty empty 20 12 0 14 -118750 -66577
0;
#X obj 85 431 cnv 5 5 17 empty empty empty 20 12 0 14 -102336 -66577
0;
#X obj 91 55 list;
#X obj 91 193 list store, f 13;
#X obj 91 102 until;
#X obj 91 128 f, f 7;
#X obj 153 128 + 1;
#X msg 91 171 get \$1 1;
#X obj 134 103 0;
#X obj 91 263 list fromsymbol;
#X obj 91 215 route symbol float;
#X obj 109 239 makefilename %s;
#X obj 91 150 t f f;
#X obj 91 380 list store, f 19;
#X obj 90 357 list trim;
#X obj 90 331 list prepend append;
#X obj 157 286 spigot;
#X msg 157 308 32;
#X obj 91 286 t l b, f 9;
#X obj 91 77 t b b a b, f 19;
#X obj 91 404 list tosymbol;
#X connect 2 0 6 0;
#X connect 6 0 23 0;
#X connect 7 0 14 0;
#X connect 7 1 8 1;
#X connect 7 1 17 0;
#X connect 8 0 9 0;
#X connect 9 0 10 0;
#X connect 9 0 16 0;
#X connect 10 0 9 1;
#X connect 11 0 7 0;
#X connect 12 0 9 1;
#X connect 13 0 22 0;
#X connect 14 0 13 0;
#X connect 14 1 15 0;
#X connect 15 0 13 0;
#X connect 16 0 11 0;
#X connect 16 1 20 1;
#X connect 17 0 24 0;
#X connect 18 0 17 0;
#X connect 19 0 18 0;
#X connect 20 0 21 0;
#X connect 21 0 19 0;
#X connect 22 0 19 0;
#X connect 22 1 20 0;
#X connect 23 0 8 0;
#X connect 23 1 12 0;
#X connect 23 2 7 1;
#X connect 23 3 17 1;
#X connect 24 0 3 0;
#X restore 990 414 pd tosymbol;
#X obj 1024 521 t b s;
#X obj 488 805 select 0;
#X obj 508 222 route label;
#X obj 508 246 symbol;
#X msg 508 270 label \$1;
#X obj 73 294 tgl 20 0 \$2-clip\$1_snap_from \$2-clip\$1_snap_from-rcv
SNAP -5 -10 0 10 -203904 -1 -262144 0 1;
#X obj 99 294 hsl 395 20 0 1 0 0 empty \$2-clip\$1_from-rcv FROM 100
10 0 14 -257472 -1 -1 0 0;
#X obj 73 394 tgl 20 0 \$2-clip\$1_snap_to \$2-clip\$1_snap_to-rcv
SNAP -5 -10 0 10 -203904 -1 -262144 0 1;
#X obj 290 721 r \$2-randomize_clip\$1;
#X text 238 785 nb of 8 th;
#X obj 59 831 random;
#X obj 118 832 random;
#X obj 292 744 t b b;
#X obj 89 887 s \$2-clip\$1_to;
#X obj 254 879 s \$2-clip\$1_from;
#X obj 59 856 /;
#X obj 118 857 /;
#N canvas 1321 143 496 505 snap_to_ticks 0;
#X obj 68 31 inlet;
#X obj 132 118 r \$2-clip\$1_bpm;
#X obj 147 145 r \$2-duration\$1_ms;
#X obj 132 199 *;
#X obj 132 225 / 60000;
#X obj 132 249 * 2;
#X obj 148 172 t b f;
#X obj 134 273 t f f;
#X obj 132 324 int;
#X obj 77 471 outlet;
#X obj 71 91 route 0 1;
#X obj 145 30 r \$2-clip\$1_snap_from;
#X obj 71 67 list prepend 0;
#X obj 111 354 * 1;
#X obj 111 429 / 1;
#X obj 134 295 + 1;
#X obj 111 405 int;
#X connect 0 0 12 0;
#X connect 1 0 3 0;
#X connect 2 0 6 0;
#X connect 3 0 4 0;
#X connect 4 0 5 0;
#X connect 5 0 7 0;
#X connect 6 0 3 0;
#X connect 6 1 3 1;
#X connect 7 0 15 0;
#X connect 7 1 14 1;
#X connect 8 0 13 1;
#X connect 10 0 9 0;
#X connect 10 1 13 0;
#X connect 11 0 12 1;
#X connect 12 0 10 0;
#X connect 13 0 16 0;
#X connect 14 0 9 0;
#X connect 15 0 8 0;
#X connect 16 0 14 0;
#X restore 164 461 pd snap_to_ticks;
#X obj 159 486 s \$2-clip\$1_from;
#N canvas 824 153 496 505 snap_to_ticks 0;
#X obj 68 31 inlet;
#X obj 92 469 outlet;
#X obj 145 30 r \$2-clip\$1_snap_to;
#X obj 132 118 r \$2-clip\$1_bpm;
#X obj 147 145 r \$2-duration\$1_ms;
#X obj 132 199 *;
#X obj 132 225 / 60000;
#X obj 132 249 * 2;
#X obj 148 172 t b f;
#X obj 134 273 t f f;
#X obj 132 324 int;
#X obj 71 91 route 0 1;
#X obj 71 67 list prepend 0;
#X obj 111 354 * 1;
#X obj 111 429 / 1;
#X obj 134 295 + 1;
#X obj 111 405 int;
#X connect 0 0 12 0;
#X connect 2 0 12 1;
#X connect 3 0 5 0;
#X connect 4 0 8 0;
#X connect 5 0 6 0;
#X connect 6 0 7 0;
#X connect 7 0 9 0;
#X connect 8 0 5 0;
#X connect 8 1 5 1;
#X connect 9 0 15 0;
#X connect 9 1 14 1;
#X connect 10 0 13 1;
#X connect 11 0 1 0;
#X connect 11 1 13 0;
#X connect 12 0 11 0;
#X connect 13 0 16 0;
#X connect 14 0 1 0;
#X connect 15 0 10 0;
#X connect 16 0 14 0;
#X restore 131 527 pd snap_to_ticks;
#X obj 136 554 s \$2-clip\$1_to;
#X obj 24 337 bng 30 250 50 0 \$2-randomize_clip\$1 empty RANDOM -10
-15 0 12 -232576 -1 -262144;
#X obj 301 174 hradio 15 1 0 2 \$2-clip\$1_pvoclock \$2-clip\$1_pvoclock-rcv
FFT_lock_phase 0 -8 0 10 -261234 -1 -1 1;
#X text 332 170 on;
#X obj 293 214 vsl 30 50 60 106 0 0 \$2-clip\$1_gain \$2-clip\$1_gain-rcv
gain 0 -9 0 10 -204786 -1 -1 4261 1;
#X text 327 202 +6dB;
#X text 322 253 -20dB;
#X text 284 204 ______;
#X text 335 216 0;
#X obj 348 221 bng 10 250 50 0 empty empty empty 17 7 0 10 -257985
-1 -1;
#X msg 391 219 100;
#X obj 9 102 nbx 4 20 -1e+37 1e+37 0 0 \$2-clip\$1_quantId \$2-clip\$1_quantId-rcv
empty 0 -8 0 10 -262144 -1 -1 40 256;
#X obj 8 101 cnv 20 50 21 empty \$2-quant\$1_label-rcv 1/8 0 14 0 14
-204800 -66577 0;
#X obj 7 135 nbx 3 20 0 9999 0 0 \$2-clip\$1_preroll \$2-clip\$1_preroll-rcv
preroll(ticks) 54 10 0 12 -262144 -1 -1 0 256;
#X obj 417 176 nbx 5 20 10 300 0 0 \$2-clip\$1_bpm \$2-clip\$1_bpm-rcv
Seg.BPM 0 -8 0 14 -262144 -1 -1 120 256;
#X obj 303 483 midi-colors \$2 clip\$1_from \$2-clip\$1_from-rcv,
f 19;
#X obj 290 445 / 127;
#X obj 111 596 / 127;
#X obj 124 634 midi-colors \$2 clip\$1_to \$2-clip\$1_to-rcv, f 19
;
#X floatatom 431 450 5 0 0 0 - - -;
#X floatatom 272 596 5 0 0 0 - - -;
#X floatatom 220 268 5 0 0 0 offset - #2-clip#1_offset;
#X obj 1171 286 r \$2-clip\$1_offset;
#X obj 1204 356 delay 100;
#X obj 1187 321 t b;
#X obj 1090 566 r \$2-clip\$1_offset;
#X obj 1092 672 * 44.1;
#X obj 1126 622 samplerate~;
#X obj 1092 599 t f b;
#X obj 1126 647 / 1000;
#X obj 173 5 cnv 15 100 120 empty empty empty 20 12 0 14 -204800 -66577
0;
#X text 182 7 launch mode;
#X obj 187 31 vradio 15 1 0 4 \$2-clip\$1_launch \$2-clip\$1_launch-rcv
empty 0 -8 0 10 -262144 -1 -1 2;
#X text 209 26 trigger;
#X text 211 42 gate;
#X text 209 60 toggle;
#X text 211 73 repeat;
#X obj 188 106 tgl 15 0 \$2-clip\$1_legato \$2-clip\$1_legato-rcv LEGATO
17 7 0 10 -262144 -1 -1 1 1;
#X obj 18 197 nbx 4 20 -1e+37 1e+37 0 0 \$2-clip\$1_quantFollowId \$2-clip\$1_quantFollowId-rcv
empty 0 -8 0 10 -262144 -1 -1 0 256;
#X obj 18 196 cnv 20 50 21 empty \$2-quant\$1_FollowLabel-rcv 2_bars
0 14 0 14 -204800 -66577 0;
#X obj 144 164 vradio 13 1 0 8 empty empty empty 0 -8 0 10 -262144
-1 -1 0;
#X text 168 159 stop;
#X text 171 172 play again;
#X text 171 182 previous;
#X text 173 196 next;
#X text 172 212 first;
#X text 172 227 last;
#X text 173 238 any;
#X text 176 248 other;
#X text 70 197 ?;
#X text 11 175 What to do after;
#X text 209 72 xxxxxx;
#X obj 8 165 cnv 15 240 105 empty empty empty 20 12 0 14 -66577 -66577
0;
#X text 101 22 open;
#X connect 10 0 9 0;
#X connect 11 0 10 0;
#X connect 26 0 92 0;
#X connect 28 1 50 0;
#X connect 31 0 32 0;
#X connect 36 0 31 1;
#X connect 36 0 57 0;
#X connect 37 0 41 0;
#X connect 38 0 37 0;
#X connect 39 0 69 0;
#X connect 40 0 59 0;
#X connect 41 0 28 0;
#X connect 42 0 75 0;
#X connect 43 0 48 1;
#X connect 46 0 47 0;
#X connect 47 0 48 0;
#X connect 47 0 54 0;
#X connect 48 0 49 0;
#X connect 48 0 55 0;
#X connect 49 0 60 0;
#X connect 50 0 52 0;
#X connect 50 1 43 0;
#X connect 50 2 49 1;
#X connect 51 0 52 1;
#X connect 51 0 66 0;
#X connect 52 0 63 0;
#X connect 53 0 28 0;
#X connect 56 0 57 0;
#X connect 57 0 39 0;
#X connect 57 0 66 1;
#X connect 58 0 32 0;
#X connect 59 1 53 0;
#X connect 60 0 74 0;
#X connect 61 0 60 0;
#X connect 62 0 45 0;
#X connect 63 0 64 0;
#X connect 64 1 46 0;
#X connect 65 0 36 0;
#X connect 66 0 52 0;
#X connect 67 0 72 0;
#X connect 68 1 73 0;
#X connect 69 0 68 0;
#X connect 70 0 68 1;
#X connect 71 0 70 0;
#X connect 72 0 69 1;
#X connect 73 0 40 0;
#X connect 73 1 68 1;
#X connect 74 1 62 0;
#X connect 75 0 76 0;
#X connect 75 1 31 0;
#X connect 76 0 77 0;
#X connect 77 0 32 0;
#X connect 79 0 90 0;
#X connect 81 0 85 0;
#X connect 83 0 88 0;
#X connect 84 0 89 0;
#X connect 85 0 83 0;
#X connect 85 1 84 0;
#X connect 88 0 86 0;
#X connect 89 0 87 0;
#X connect 90 0 91 0;
#X connect 92 0 93 0;
#X connect 102 0 103 0;
#X connect 103 0 97 0;
#X connect 108 0 109 0;
#X connect 109 0 90 0;
#X connect 110 0 92 0;
#X connect 111 0 110 0;
#X connect 112 0 108 1;
#X connect 113 0 111 1;
#X connect 115 0 117 0;
#X connect 116 0 40 0;
#X connect 117 0 116 0;
#X connect 118 0 121 0;
#X connect 119 0 28 1;
#X connect 120 0 122 0;
#X connect 121 0 119 0;
#X connect 121 1 120 0;
#X connect 122 0 119 1;
#X coords 0 -1 1 1 500 420 2 0 0;
