#N canvas 278 373 1379 462 16;
#X obj 100 100 tgl 23 0 \$2-clip\$1 \$2-clip\$1-rcv ■ 3 10 0 20 -228992
-1 -1 0 1;
#X obj 493 26 loadbang;
#X obj 487 234 s \$2-hsl\$1-rcv;
#X obj 489 97 f \$1;
#X obj 489 122 select 1 2 3;
#X obj 493 51 delay 2000;
#X obj 332 25 r \$2-hsl\$1-rcv;
#X msg 353 117 stop;
#X obj 333 56 route color;
#X obj 333 81 t b;
#X msg 522 160 5;
#X msg 485 157 4;
#X msg 570 167 6;
#X obj 26 164 bng 23 250 50 0 \$2-open\$1 empty load_file 17 7 0 10
-262144 -1 -1;
#X obj 361 227 r \$2-hsl\$1;
#X obj 356 338 t b;
#X obj 331 432 s pd-\$2-clip-\$1_edit;
#X msg 346 403 vis 1;
#X msg 485 198 color \$1 -1 -1;
#X obj 346 370 delay 200;
#X obj 124 100 hsl 112 23 0 1 0 0 \$2-hsl\$1 \$2-hsl\$1-rcv duu 2 12
0 12 -262131 -1 -1 0 1;
#X obj 894 162 keyname;
#X obj 892 188 list prepend;
#X obj 896 216 list trim;
#X obj 896 241 route Control_L Control_R;
#X text 991 172 CTRL + click to open file;
#X obj 359 270 list prepend 0;
#X obj 357 302 route 0 1;
#X obj 480 338 t b;
#X obj 485 369 s \$2-open\$1;
#N canvas 0 50 860 551 displaying 0;
#X obj 414 248 text get \$2-quantiz;
#X obj 414 277 unpack f s;
#X obj 328 324 s \$2-clip\$1_quant;
#X obj 64 205 text search \$2-quantiz;
#X obj 326 37 r \$2-clip\$1_quantId;
#X msg 51 396 set \$1;
#X obj 24 431 s \$2-clip\$1_quantId-rcv;
#X obj 324 163 int;
#X obj 369 205 change;
#X obj 66 343 * 10;
#X obj 325 128 / 10;
#X floatatom 99 95 5 0 0 0 - - -;
#X floatatom 423 125 5 0 0 0 - - -;
#X obj 582 230 s \$2-clip\$1_quantId-rcv;
#X obj 522 69 max 0;
#X obj 635 55 text size \$2-quantiz;
#X obj 622 23 loadbang;
#X obj 718 25 bng 15 250 50 0 empty empty empty 17 7 0 10 -262144 -1
-1;
#X msg 643 200 set \$1;
#X obj 667 113 * 10;
#X obj 643 171 min 150;
#X obj 70 44 r \$2-clip\$1_quant;
#X obj 65 274 t f f;
#X obj 384 398 text get \$2-quantiz;
#X obj 384 427 unpack f s;
#X msg 481 457 label \$1;
#X obj 480 486 s \$2-quant\$1_label-rcv;
#X obj 67 124 change;
#X connect 0 0 1 0;
#X connect 1 0 2 0;
#X connect 1 1 25 0;
#X connect 3 0 22 0;
#X connect 4 0 10 0;
#X connect 4 0 12 0;
#X connect 4 0 14 0;
#X connect 5 0 6 0;
#X connect 7 0 8 0;
#X connect 8 0 0 0;
#X connect 9 0 5 0;
#X connect 10 0 7 0;
#X connect 14 0 20 0;
#X connect 15 0 19 0;
#X connect 16 0 15 0;
#X connect 17 0 15 0;
#X connect 18 0 13 0;
#X connect 19 0 20 1;
#X connect 20 0 18 0;
#X connect 21 0 11 0;
#X connect 21 0 27 0;
#X connect 22 0 9 0;
#X connect 22 1 23 0;
#X connect 23 0 24 0;
#X connect 24 1 25 0;
#X connect 25 0 26 0;
#X connect 27 0 3 0;
#X restore 46 225 pd displaying quant;
#X obj 240 102 nbx 4 20 -1e+37 1e+37 0 0 \$2-clip\$1_quantId \$2-clip\$1_quantId-rcv
empty 0 -8 0 10 -262144 -1 -1 100 256;
#X obj 239 101 cnv 20 50 21 empty \$2-quant\$1_label-rcv 1_bar 0 14
0 14 -204800 -66577 0;
#X obj 698 160 select 0 1;
#X obj 704 110 change;
#X text 713 27 couleur pour indiquer selection de la scene;
#X obj 710 61 r \$2-highlight\$1;
#X msg 131 44 label duu;
#X floatatom 636 101 5 0 0 0 - - -;
#X msg 682 230 color 19 -1 15;
#X connect 1 0 5 0;
#X connect 3 0 4 0;
#X connect 4 0 11 0;
#X connect 4 1 10 0;
#X connect 4 2 12 0;
#X connect 5 0 3 0;
#X connect 6 0 8 0;
#X connect 7 0 5 0;
#X connect 8 0 9 0;
#X connect 9 0 7 0;
#X connect 10 0 18 0;
#X connect 11 0 18 0;
#X connect 12 0 18 0;
#X connect 14 0 26 0;
#X connect 15 0 19 0;
#X connect 17 0 16 0;
#X connect 18 0 2 0;
#X connect 19 0 17 0;
#X connect 21 0 22 0;
#X connect 21 1 22 1;
#X connect 22 0 23 0;
#X connect 23 0 24 0;
#X connect 24 0 26 1;
#X connect 24 1 26 1;
#X connect 26 0 27 0;
#X connect 27 0 15 0;
#X connect 27 1 28 0;
#X connect 28 0 29 0;
#X connect 33 0 3 0;
#X connect 33 1 39 0;
#X connect 34 0 33 0;
#X connect 36 0 34 0;
#X connect 37 0 20 0;
#X connect 38 0 18 0;
#X connect 39 0 2 0;
#X coords 0 -1 1 1 190 23 2 100 100;
