#N canvas 104 58 958 1018 10;
#X declare -path ../../../core;
#X declare -path ../../../core/stuff;
#X declare -path ../../../core/rj;
#X declare -lib aoo;
#X declare -path audio_oo/pdr_light;
#X declare -lib aoo -path lib;
#X declare -path audio_oo;
#N canvas 172 83 586 377 LICENSE-GPL 0;
#X text 57 88 This program is free software: you can redistribute it
and/or modify it under the terms of the GNU General Public License
as published by the Free Software Foundation \, either version 3 of
the License \, or (at your option) any later version.;
#X text 58 168 This program is distributed in the hope that it will
be useful \, but WITHOUT ANY WARRANTY \; without even the implied warranty
of MERCHANTABILITY or FITNESS FOR A PARTICULAR PURPOSE. See the GNU
General Public License for more details.;
#X text 57 261 You should have received a copy of the GNU General Public
License along with this program. If not \, see <http://www.gnu.org/licenses/>.
;
#X text 61 54 Copyright (C) 2009 \, Reality Jockey Ltd.;
#X text 60 325 See the file LICENSE.txt for the full license text.
;
#X restore 298 15 pd LICENSE-GPL;
#X obj 318 94 inlet~;
#X obj 416 93 inlet~;
#X obj 395 471 outlet~;
#X obj 493 470 outlet~;
#X obj 613 163 inlet data;
#X obj 612 304 outlet data;
#X obj 733 85 namecanvas \$0-this;
#X obj 731 62 triggered_loadbang \$0-this;
#X text 726 12 manually trigger loadbang if the instance of abstraction
is created dynamically, f 29;
#X obj 808 185 savestate;
#X obj 434 33 declare -path ../../../core;
#X obj 434 53 declare -path ../../../core/stuff;
#X obj 434 73 declare -path ../../../core/rj;
#X obj 727 234 u_parameter \$0 player_name;
#X obj 727 257 u_parameter \$0 group_name;
#N canvas 0 22 763 508 default_values 0;
#X obj 84 19 loadbang;
#X obj 59 218 outlet;
#X msg 52 145 player_name symbol <your_name> \, group_name symbol <your_group>
\, bufsize 20 \, vol 100 \, listen 1 \, server 0 \, port 7077 \, ip
localhost;
#X connect 0 0 2 0;
#X connect 2 0 1 0;
#X restore 728 153 pd default_values;
#X obj 503 193 r \$0-vol;
#X obj 503 215 dbtorms;
#X obj 419 310 *~;
#X obj 459 310 *~;
#X obj 503 237 lop~ 10;
#X obj 727 279 u_dispatch \$0 vol;
#N canvas 543 76 912 688 gui_stuff 0;
#X obj 15 19 r \$0-status-rcv;
#X obj 15 41 sel 0 1;
#X obj 133 17 r \$0-action;
#X obj 210 17 r \$0-status-rcv;
#X obj 134 44 f;
#X obj 178 77 select 0 1;
#X obj 181 113 s \$0-connect;
#X obj 204 90 s \$0-disconnect;
#X obj 36 129 s \$0-action-rcv;
#X msg 16 101 label connect;
#X msg 41 79 label disconnect;
#X obj 94 189 r \$0-bufsize;
#X obj 94 211 int;
#X msg 94 233 label bufsize=\$1;
#X obj 94 255 s \$0-bufsize-rcv;
#X obj 328 115 r \$0-onoff;
#X obj 328 138 select 0 1;
#X obj 327 213 s \$0-onoff-rcv;
#X msg 263 172 color 0 0 -1;
#X obj 277 272 select 0 1;
#X obj 277 249 r \$0-listen;
#X obj 276 347 s \$0-listen-rcv;
#X msg 115 305 color 2 2 -1 \, label muted;
#X msg 302 306 color 16 16 -1 \, label listening;
#X msg 353 172 color 13 13 13;
#X connect 0 0 1 0;
#X connect 1 0 9 0;
#X connect 1 1 10 0;
#X connect 2 0 4 0;
#X connect 3 0 4 1;
#X connect 4 0 5 0;
#X connect 5 0 6 0;
#X connect 5 1 7 0;
#X connect 9 0 8 0;
#X connect 10 0 8 0;
#X connect 11 0 12 0;
#X connect 12 0 13 0;
#X connect 13 0 14 0;
#X connect 15 0 16 0;
#X connect 16 0 18 0;
#X connect 16 1 24 0;
#X connect 18 0 17 0;
#X connect 19 0 22 0;
#X connect 19 1 23 0;
#X connect 20 0 19 0;
#X connect 22 0 21 0;
#X connect 23 0 21 0;
#X connect 24 0 17 0;
#X restore 525 163 pd gui_stuff;
#X obj 497 137 declare -lib aoo;
#X obj 727 301 u_parameter \$0 bufsize;
#X obj 727 211 module_loader audio_oo \$0 \$1;
#X obj 600 109 declare -path audio_oo/pdr_light;
#X obj 101 101 cnv 15 188 68 \$0-background \$0-background-rcv audio_oo-2
15 7 0 14 -262144 -1 0;
#X obj 198 100 bng 15 250 50 0 \$0-action \$0-action-rcv connect 17
7 0 10 -232576 -1 -1;
#X symbolatom 157 124 15 0 0 2 group #0-group_name-rcv #0-group_name
;
#X obj 104 115 hsl 50 8 20 200 0 0 \$0-bufsize \$0-bufsize-rcv bufsize=20
-2 4 0 6 -260097 -1 -262144 0 1;
#X obj 481 495 env~;
#X text 246 60 JOUEURS;
#X text 241 69 DISTANTS;
#X text 269 51 MIX;
#X obj 155 152 cnv 15 92 15 empty empty empty 20 12 0 14 -262130 -66577
0;
#X symbolatom 157 153 15 0 0 2 player #0-player_name-rcv #0-player_name
;
#N canvas -4 2 1920 1036 antiplop~ 0;
#X obj 141 69 inlet~;
#X obj 242 70 inlet~;
#X obj 182 763 outlet~;
#X obj 322 763 outlet~;
#X obj 303 162 env~;
#X obj 282 237 select 0;
#X msg 296 303 0;
#X msg 343 306 1;
#X obj 293 369 change;
#X obj 379 364 r \$0-onoff;
#X obj 323 399 spigot;
#X obj 320 531 s \$0-aoo_send;
#X msg 302 494 start;
#X msg 377 498 stop;
#X obj 323 421 select 1 0;
#X obj 442 116 r vstTimeInfo.flags;
#X obj 442 140 select 12034;
#X obj 299 193 change;
#X obj 397 472 delay 40;
#X msg 333 461 stop;
#X obj 121 632 *~;
#X obj 189 621 *~;
#X obj 175 539 line~;
#X msg 226 491 0 5;
#X obj 199 432 delay 30;
#X msg 177 488 1 30;
#X msg 356 262 stop;
#X obj 243 278 delay 400;
#X text 559 135 play button;
#X text 263 582 smooth fadein when send on;
#X obj 70 455 loadbang;
#X connect 0 0 20 0;
#X connect 0 0 4 0;
#X connect 1 0 21 0;
#X connect 1 0 4 0;
#X connect 4 0 17 0;
#X connect 5 0 27 0;
#X connect 5 1 7 0;
#X connect 5 1 26 0;
#X connect 6 0 8 0;
#X connect 7 0 8 0;
#X connect 8 0 10 0;
#X connect 9 0 10 1;
#X connect 10 0 14 0;
#X connect 12 0 11 0;
#X connect 13 0 11 0;
#X connect 14 0 12 0;
#X connect 14 0 19 0;
#X connect 14 0 24 0;
#X connect 14 1 18 0;
#X connect 14 1 23 0;
#X connect 15 0 16 0;
#X connect 16 0 7 0;
#X connect 17 0 5 0;
#X connect 18 0 13 0;
#X connect 19 0 18 0;
#X connect 20 0 2 0;
#X connect 21 0 3 0;
#X connect 22 0 21 1;
#X connect 22 0 20 1;
#X connect 23 0 22 0;
#X connect 24 0 25 0;
#X connect 25 0 22 0;
#X connect 26 0 27 0;
#X connect 27 0 6 0;
#X connect 30 0 25 0;
#X restore 320 121 pd antiplop~;
#X obj 248 114 ui_vs \$0 vol 0 100;
#X obj 274 114 cnv 4 15 55 empty empty empty 20 12 0 14 -1 -66577 0
;
#X obj 276 116 cnv 6 11 51 empty empty empty 20 12 0 14 -4034 -66577
0;
#X obj 276 116 cnv 4 11 51 empty \$0-meter-rcv empty 20 12 0 14 -128992
-66577 0;
#N canvas 965 149 1920 1023 vu 0;
#X obj 101 42 inlet;
#X obj 114 231 / 100;
#X obj 98 127 - 4;
#X msg 237 295 color \$1 \$1;
#X text 270 218 13 14 15 41;
#X msg 161 237 88;
#X obj 73 277 int;
#X obj 94 298 change;
#X obj 234 276 change;
#X msg 216 251 41;
#X msg 326 282 14;
#X msg 256 236 13;
#X obj 114 253 * -51;
#X obj 114 275 + 51;
#X msg 116 319 vis_size 11 \$1;
#X obj 98 150 moses 0;
#N canvas 0 50 568 507 speed_lim 0;
#X obj 91 12 inlet;
#X obj 212 338 list append;
#X obj 212 367 list trim;
#X msg 167 182 1;
#X obj 80 391 outlet;
#X obj 140 224 change;
#X obj 133 150 delay 150;
#X obj 166 254 metro 150;
#X obj 194 103 t b b b a;
#X obj 204 286 spigot;
#X obj 204 308 t a b;
#X msg 293 275 0;
#X msg 252 263 1;
#X msg 133 175 0;
#X connect 0 0 8 0;
#X connect 1 0 2 0;
#X connect 2 0 4 0;
#X connect 3 0 5 0;
#X connect 5 0 7 0;
#X connect 6 0 13 0;
#X connect 7 0 9 0;
#X connect 8 0 6 0;
#X connect 8 1 3 0;
#X connect 8 2 12 0;
#X connect 8 3 1 1;
#X connect 9 0 10 0;
#X connect 10 0 1 0;
#X connect 10 1 11 0;
#X connect 11 0 9 1;
#X connect 12 0 9 1;
#X connect 13 0 5 0;
#X restore 95 73 pd speed_lim;
#X msg 98 176 0;
#X obj 147 193 moses 85;
#X obj 217 191 moses 90;
#X obj 141 343 s \$0-meter-rcv;
#X connect 0 0 16 0;
#X connect 1 0 12 0;
#X connect 2 0 15 0;
#X connect 3 0 20 0;
#X connect 5 0 1 0;
#X connect 6 0 7 0;
#X connect 7 0 14 0;
#X connect 8 0 3 0;
#X connect 9 0 8 0;
#X connect 10 0 8 0;
#X connect 11 0 8 0;
#X connect 12 0 13 0;
#X connect 13 0 6 0;
#X connect 14 0 20 0;
#X connect 15 0 17 0;
#X connect 15 1 18 0;
#X connect 16 0 2 0;
#X connect 17 0 18 0;
#X connect 18 0 1 0;
#X connect 18 0 9 0;
#X connect 18 1 5 0;
#X connect 18 1 19 0;
#X connect 19 0 9 0;
#X connect 19 1 11 0;
#X restore 485 524 pd vu;
#X obj -4 162 s \$0-guitab-rcv;
#X msg 17 135 1;
#X obj 392 683 namecanvas \$0-multitab;
#X obj 404 644 ui_multitab \$0;
#X obj 100 100 tgl 15 0 empty empty MIX 1 7 0 7 -191407 -191407 -1
0 1;
#X obj 101 201 cnv 15 188 68 \$0-background \$0-background-rcv audio_oo-2
15 7 0 14 -262144 -1 0;
#X obj 100 200 hradio 15 1 0 1 \$0-guitab \$0-guitab-rcv ^ 5 10 0 10
-191407 -191407 -1 0;
#X obj 100 214 audio_oo/aoo_submixer_gui \$0 1;
#X obj 136 214 audio_oo/aoo_submixer_gui \$0 2;
#X obj 39 302 audio_oo/aoo_submixer_gui \$0 5;
#X obj 101 124 cnv 15 55 45 empty empty empty 20 12 0 14 -232576 -66577
0;
#X obj 100 154 tgl 15 0 \$0-onoff \$0-onoff-rcv ON_AIR 17 7 0 9 -262144
-262144 -1 0 1;
#X obj 100 124 tgl 15 0 empty \$0-status-rcv status 17 7 0 9 -232576
-1 -1 0 1;
#X obj 100 139 tgl 15 0 \$0-verbose \$0-verbose-rcv debug 17 7 0 9
-262144 -1 -1 0 1;
#X obj 920 234 u_parameter \$0 vol1;
#X obj 919 253 u_parameter \$0 vol2;
#X obj 918 272 u_parameter \$0 vol3;
#X obj 919 291 u_parameter \$0 vol4;
#X obj 920 310 u_parameter \$0 vol5;
#X obj 921 331 u_parameter \$0 pan1;
#X obj 920 350 u_parameter \$0 pan2;
#X obj 919 369 u_parameter \$0 pan3;
#X obj 920 388 u_parameter \$0 pan4;
#X obj 921 407 u_parameter \$0 pan5;
#X msg 924 162 vol1 100 \, vol2 100 \, vol3 100 \, vol4 100 \, vol5
100 \, pan1 0 \, pan2 0 \, pan3 0 \, pan4 0 \, pan5 0, f 22;
#X obj 917 136 loadbang;
#N canvas 1172 134 1346 821 guts 0;
#X obj 156 446 spigot;
#X msg 13 114 disconnect;
#X obj 87 50 symbol;
#X obj 249 21 declare -lib aoo -path lib;
#X obj 746 335 inlet~;
#X obj 834 335 inlet~;
#X obj 322 467 outlet~;
#X obj 394 469 outlet~;
#X obj 300 330 s \$0-status-rcv;
#X obj 198 360 r \$0-onoff;
#X obj 188 424 r \$0-verbose;
#X obj 135 11 r \$0-player_name;
#X obj 41 11 r \$0-connect;
#X obj 12 91 r \$0-disconnect;
#X obj 126 144 list append testgroup;
#X obj 288 63 r \$0-group_name;
#X msg 111 250 connect vrr.iem.at 7077 \$1 \$2;
#X obj 127 30 symbol;
#X obj 472 463 outlet~;
#X obj 552 464 outlet~;
#X obj 626 466 outlet~;
#X obj 710 467 outlet~;
#X obj 799 471 outlet~;
#X obj 884 480 outlet~;
#X obj 99 596 print;
#X obj 204 479 r \$0-ID;
#X obj 147 541 list prepend;
#X msg 204 502 audio_oo-\$1;
#X obj 123 569 list trim;
#X obj 447 16 r \$0-verbose;
#X msg 447 39 verbose \$1;
#X obj 176 394 _octo_direct 10000, f 116;
#X obj 118 310 _client 10000;
#X obj 299 536 unpack f s s s;
#X obj 290 585 t b f;
#X obj 307 633 symbol;
#X obj 321 759 s;
#X obj 411 634 makefilename \$0-user%d-rcv;
#X obj 307 656 list fromsymbol;
#X obj 308 680 list split 6;
#X obj 309 711 list tosymbol;
#X msg 303 736 label \$1;
#X obj 551 11 r \$0-listen;
#X msg 551 34 listen \$1;
#X obj 584 79 r \$0-server;
#X obj 926 26 r \$0-ip;
#X obj 1035 22 r \$0-port;
#X obj 584 138 select 0 1 2;
#X msg 427 195 set connect vrr.iem.at 7077 \, adddollar 1 \, adddollar
2;
#X msg 477 228 set connect vrr.ffddcchh.com.ar 9098 \, adddollar 1
\, adddollar 2;
#X obj 889 210 list append;
#X obj 926 49 symbol;
#X msg 892 247 set connect \$1 \$2 \, adddollar 1 \, adddollar 2;
#X obj 862 86 r \$0-server;
#X obj 876 158 == 2;
#X obj 871 127 f;
#X obj 976 139 t b l;
#X obj 876 181 select 1;
#X obj 983 78 t b f;
#X obj 975 117 pack s f;
#X connect 0 0 26 0;
#X connect 1 0 32 0;
#X connect 2 0 14 0;
#X connect 4 0 31 2;
#X connect 5 0 31 3;
#X connect 9 0 31 0;
#X connect 10 0 0 1;
#X connect 11 0 17 0;
#X connect 12 0 2 0;
#X connect 13 0 1 0;
#X connect 14 0 16 0;
#X connect 15 0 14 1;
#X connect 16 0 32 0;
#X connect 17 0 2 1;
#X connect 25 0 27 0;
#X connect 26 0 28 0;
#X connect 27 0 26 1;
#X connect 28 0 24 0;
#X connect 29 0 30 0;
#X connect 30 0 31 0;
#X connect 31 0 0 0;
#X connect 31 1 33 0;
#X connect 31 2 6 0;
#X connect 31 3 7 0;
#X connect 31 4 18 0;
#X connect 31 5 19 0;
#X connect 31 6 20 0;
#X connect 31 7 21 0;
#X connect 31 8 22 0;
#X connect 31 9 23 0;
#X connect 32 0 31 0;
#X connect 32 1 8 0;
#X connect 32 1 31 1;
#X connect 33 0 34 0;
#X connect 33 3 35 1;
#X connect 34 0 35 0;
#X connect 34 1 37 0;
#X connect 35 0 38 0;
#X connect 37 0 36 1;
#X connect 38 0 39 0;
#X connect 39 0 40 0;
#X connect 39 2 40 0;
#X connect 40 0 41 0;
#X connect 41 0 36 0;
#X connect 42 0 43 0;
#X connect 43 0 31 0;
#X connect 44 0 47 0;
#X connect 45 0 51 0;
#X connect 46 0 58 0;
#X connect 47 0 48 0;
#X connect 47 1 49 0;
#X connect 47 2 50 0;
#X connect 48 0 16 0;
#X connect 49 0 16 0;
#X connect 50 0 52 0;
#X connect 51 0 59 0;
#X connect 52 0 16 0;
#X connect 53 0 55 1;
#X connect 54 0 57 0;
#X connect 55 0 54 0;
#X connect 56 0 55 0;
#X connect 56 1 50 1;
#X connect 57 0 50 0;
#X connect 58 0 59 0;
#X connect 58 1 59 1;
#X connect 59 0 56 0;
#X restore 318 144 pd guts;
#X f 25;
#X obj 248 214 ui_vs \$0 vol 0 100;
#X obj 274 214 cnv 4 15 55 empty empty empty 20 12 0 14 -1 -66577 0
;
#X obj 276 216 cnv 6 11 51 empty empty empty 20 12 0 14 -4034 -66577
0;
#X obj 276 216 cnv 4 11 51 empty \$0-meter-rcv empty 20 12 0 14 -128992
-66577 0;
#X text 721 652 todo : assign source to a free sink (if available)
;
#X obj 1228 487 declare -path audio_oo;
#X obj 172 214 audio_oo/aoo_submixer_gui \$0 3;
#X obj 208 214 audio_oo/aoo_submixer_gui \$0 4;
#X obj 217 200 tgl 14 0 \$0-listen \$0-listen-rcv listening 17 7 0
9 -24198 -24198 -1 1 1;
#X obj 727 321 u_parameter \$0 listen;
#X obj 275 100 tgl 14 0 empty empty ... 1 5 0 7 -232576 -232576 -1
1 1;
#X obj 355 250 s \$0-guitab-rcv;
#X obj 101 301 cnv 15 188 68 empty empty empty 15 7 0 14 -262144 -1
0;
#X obj 274 301 hradio 15 1 0 1 \$0-guitab \$0-guitab-rcv OK 2 8 0 10
-232576 -191407 -1 0;
#X msg 355 224 2;
#X obj 115 324 cnv 15 130 45 empty empty empty 20 12 0 14 -232576 -66577
0;
#X obj 100 325 vradio 15 1 0 3 \$0-server \$0-server-rcv empty 0 -8
0 10 -262144 -1 -1 0;
#X symbolatom 115 353 21 0 0 0 - #0-ip-rcv #0-ip;
#X obj 244 325 cnv 15 45 45 empty empty empty 20 12 0 14 -232896 -66577
0;
#X floatatom 248 353 6 1000 10000 0 - #0-port-rcv #0-port;
#X text 257 323 7077;
#X text 119 324 vrr.iem.at;
#X text 119 337 vrr.ffddcchh.com.ar;
#X text 257 336 9098;
#X obj 252 309 tgl 15 0 \$0-local_server \$0-local_server-rcv OFF 0
8 0 8 -166441 -166441 -1 0 1;
#X text 209 300 local server, f 6;
#X obj 727 343 u_parameter \$0 ip;
#X obj 727 365 u_parameter \$0 port;
#X obj 727 387 u_parameter \$0 server;
#N canvas 0 50 881 766 local_server 0;
#X obj 146 116 select 0;
#X msg 69 162 label OFF \, color 1 1 -1;
#X msg 66 236 label \$1. \, color 15 15 -1;
#X obj 66 267 s \$0-local_server-rcv;
#N canvas 0 50 851 615 aoo_server 0;
#X obj 83 208 r \$0-serverout;
#X obj 83 230 outlet;
#X obj 77 20 r \$0-local_server;
#X obj 77 64 pack \$0 f;
#X obj 199 42 r \$0-port;
#N canvas 0 50 450 300 \$0-local_server 0;
#X restore 84 162 pd \$0-local_server;
#X obj 84 125 s pd-\$0-local_server;
#X msg 75 85 clear \, obj 100 100 aoo_server \$2 \, obj 100 200 s \$1-serverout
\, connect 0 0 1 0 \, loadbang;
#X obj 38 40 select 0 1;
#X msg 27 89 clear;
#X connect 0 0 1 0;
#X connect 2 0 8 0;
#X connect 3 0 7 0;
#X connect 4 0 3 1;
#X connect 7 0 6 0;
#X connect 8 0 9 0;
#X connect 8 1 3 0;
#X connect 9 0 6 0;
#X restore 155 91 pd aoo_server;
#X obj 100 24 r \$0-local_server;
#X obj 69 119 select 0 1;
#X msg 237 159 label ON \, color 16 16 -1;
#X obj 84 72 f;
#X connect 0 0 8 0;
#X connect 0 1 2 0;
#X connect 1 0 3 0;
#X connect 2 0 3 0;
#X connect 4 0 0 0;
#X connect 5 0 8 0;
#X connect 6 0 1 0;
#X connect 6 1 7 0;
#X connect 7 0 3 0;
#X connect 8 0 6 0;
#X restore 113 422 pd local_server;
#X text 101 308 CONNECT TO;
#X connect 1 0 38 0;
#X connect 2 0 38 1;
#X connect 5 0 6 0;
#X connect 5 0 26 0;
#X connect 10 0 26 1;
#X connect 10 1 26 2;
#X connect 14 0 15 0;
#X connect 15 0 22 0;
#X connect 16 0 26 0;
#X connect 17 0 18 0;
#X connect 18 0 21 0;
#X connect 19 0 3 0;
#X connect 19 0 32 0;
#X connect 20 0 4 0;
#X connect 20 0 32 0;
#X connect 21 0 20 1;
#X connect 21 0 19 1;
#X connect 22 0 25 0;
#X connect 25 0 80 0;
#X connect 26 0 14 0;
#X connect 26 1 10 0;
#X connect 32 0 43 0;
#X connect 38 0 70 0;
#X connect 38 1 70 1;
#X connect 45 0 44 0;
#X connect 48 0 45 0;
#X connect 51 0 19 0;
#X connect 51 1 20 0;
#X connect 52 0 19 0;
#X connect 52 1 20 0;
#X connect 58 0 59 0;
#X connect 59 0 60 0;
#X connect 60 0 61 0;
#X connect 61 0 62 0;
#X connect 62 0 63 0;
#X connect 63 0 64 0;
#X connect 64 0 65 0;
#X connect 65 0 66 0;
#X connect 66 0 67 0;
#X connect 68 0 58 0;
#X connect 69 0 68 0;
#X connect 70 0 51 0;
#X connect 70 1 51 1;
#X connect 70 2 52 0;
#X connect 70 3 52 1;
#X connect 70 4 77 0;
#X connect 70 5 77 1;
#X connect 70 6 78 0;
#X connect 70 7 78 1;
#X connect 77 0 19 0;
#X connect 77 1 20 0;
#X connect 78 0 19 0;
#X connect 78 1 20 0;
#X connect 80 0 97 0;
#X connect 81 0 85 0;
#X connect 85 0 82 0;
#X connect 97 0 98 0;
#X connect 98 0 99 0;
#X coords 0 0 1 1 190 70 1 100 100;
