#N struct comment float x float y float color text FR text EN text IT text EOF;
#N canvas 526 103 863 654 16;
#X scalar comment 27 57.866 200 \; Audio via OSC \; Audio Over OSC \; Audio via OSC \; \;;
#X scalar comment 27 91.866 200 \; Jouer en groupe via internet \; Jamming via internet \; Suonare insieme via internet \; \;;
#X obj 0 2 cnv 15 800 50 empty empty audio_oo 20 14 0 20 #e0c4fc #404040 0;
#N canvas 840 176 1301 769 lang 0;
#X obj 676 203 drawtext IT 0 0 color;
#X obj 429 243 drawtext EN 0 0 color;
#X obj 157 132 route click;
#X msg 95 249 0;
#X obj 140 315 text get -s comment FR;
#X msg 14 300 click;
#X obj 211 462 route updated;
#X obj 37 623 text set -s comment FR;
#X msg 136 521 0;
#X msg 357 508 close;
#X obj 25 569 text get \$0-popup;
#X obj 20 479 text set \$0-popup;
#X obj 14 415 text define \$0-popup;
#X obj 293 631 text set -s comment EN;
#X obj 546 622 text set -s comment IT;
#X msg 165 258 clear;
#X obj 81 206 t b b p b p p;
#X obj 97 346 text get -s comment EN;
#X obj 52 376 text get -s comment IT;
#X obj 281 561 text get \$0-popup;
#X obj 540 556 text get \$0-popup;
#X msg 285 529 1;
#X msg 544 524 2;
#X msg 206 587 0;
#X msg 362 598 0;
#X msg 616 590 0;
#X msg 70 445 10;
#X obj 76 280 t f f f;
#X msg 278 28 set \$1;
#X obj 165 62 spigot;
#X obj 1 1 cnv 15 198 48 empty empty empty 20 12 0 14 #c48cc8 #404040 0;
#X obj 74 3 vradio 15 1 1 3 \$0-lang \$0-lang-rcv empty 0 -8 0 10 #fcfcfc #000000 #000000 0;
#X text 90 -1 FR;
#X scalar comment 0.0134478 -0.952926 0 \; LANGUE \; LANGUAGE \; LINGUA \; \;;
#X text 90 28 IT;
#X text 90 13 EN;
#X obj 4 30 tgl 15 0 \$0-COMMENT_EDIT empty Edit 17 7 0 10 #fcfcfc #000000 #000000 0 1;
#X obj 274 0 r \$0-COMMENT_EDIT;
#X obj 465 49 r \$0-lang;
#X obj 361 151 == 0;
#X obj 466 145 == 1;
#X obj 593 143 == 2;
#X obj 532 -10 struct comment float x float y float color text FR text EN text IT text EOF;
#X obj 455 393 t b b b b b b b b b;
#X obj 818 619 text set -s comment EOF;
#X msg 814 574 symbol;
#X msg 901 584 0;
#X obj 655 159 tgl 24 0 empty empty empty 0 -12 0 16 #fcfcfc #000000 #000000 0 1;
#X obj 358 186 drawtext FR 0 0 color;
#X connect 2 0 16 0;
#X connect 3 0 27 0;
#X connect 4 0 11 0;
#X connect 5 0 12 0;
#X connect 6 0 43 0;
#X connect 8 0 10 0;
#X connect 9 0 12 0;
#X connect 10 0 7 0;
#X connect 12 1 6 0;
#X connect 15 0 12 0;
#X connect 16 0 5 0;
#X connect 16 2 3 0;
#X connect 16 3 15 0;
#X connect 16 3 26 0;
#X connect 16 4 4 3;
#X connect 16 4 17 3;
#X connect 16 4 18 3;
#X connect 16 5 7 3;
#X connect 16 5 13 3;
#X connect 16 5 14 3;
#X connect 16 5 44 3;
#X connect 17 0 11 0;
#X connect 18 0 11 0;
#X connect 19 0 13 0;
#X connect 20 0 14 0;
#X connect 21 0 19 0;
#X connect 22 0 20 0;
#X connect 23 0 7 1;
#X connect 24 0 13 1;
#X connect 25 0 14 1;
#X connect 26 0 11 1;
#X connect 27 0 18 0;
#X connect 27 1 17 0;
#X connect 27 2 4 0;
#X connect 28 0 36 0;
#X connect 29 0 2 0;
#X connect 37 0 28 0;
#X connect 37 0 29 1;
#X connect 38 0 39 0;
#X connect 38 0 40 0;
#X connect 38 0 41 0;
#X connect 39 0 48 0;
#X connect 40 0 1 0;
#X connect 41 0 0 0;
#X connect 42 0 29 0;
#X connect 43 0 9 0;
#X connect 43 1 8 0;
#X connect 43 2 21 0;
#X connect 43 3 22 0;
#X connect 43 4 23 0;
#X connect 43 5 24 0;
#X connect 43 6 25 0;
#X connect 43 7 45 0;
#X connect 43 8 46 0;
#X connect 45 0 44 0;
#X connect 46 0 44 1;
#X connect 47 0 0 0;
#X coords 0 -1 1 1 200 50 2 0 0;
#X restore 599 2 pd lang;
#N canvas 736 300 567 288 credits 0;
#X text 16 14 credits :, f 48;
#X text 41 121 * audio_oo is part of pdracks project maintained by jean-Yves Gratius https://github.com/jyg, f 49;
#X text 40 59 * aoo https://git.iem.at/cm/aoo, f 48;
#X text 40 86 * ezaoo https://github.com/fdch/AccadAoo/releases;
#X restore 638 77 pd credits;
#X scalar comment 70 294.866 200 \; 1) Renseigner le nom de groupe commun puis cliquer sur Enter \; 1) Type the shared groupname then press Enter \; 1) Digitare il nome di gruppo condiviso e poi premi Enter \; \;;
#X scalar comment 69 318.866 200 \; 2) Renseigner le nom d'utilisateur puis cliquer sur Enter \; 2) Type username then press Enter \; 2) Digitare il tuo username e poi premi Enter \; \;;
#X scalar comment 70 343.866 200 \; 3) Cliquer sur Connect \; 3) Click "Connect" \; 3) Premi il pulsante "Connect" \; \;;
#X scalar comment 69 371.866 200 \; 4) La case ON AIR permet d'activer le flux sortant \; 4) The ON AIR checkbox enables streaming out \; 4) La casella di controllo ON AIR avvia la tua trasmissione \; \\\; \;;
#X scalar comment 68 401.866 200 \; 5) Accès à l'onglet de contrôle de mixage des pairs \; 5) Click to show mix-control panel for peers \; 5) Accesso ai controlli del volume dei altri utenti \; \;;
#X obj 372 138 audio_oo;
#A saved server 0;
#A saved port 7077;
#A saved ip localhost;
#A saved listen 1;
#A saved pan5 0;
#A saved pan4 0;
#A saved pan3 0;
#A saved pan2 0;
#A saved pan1 0;
#A saved vol5 100;
#A saved vol4 100;
#A saved vol3 100;
#A saved vol2 100;
#A saved vol1 100;
#A saved bufsize 100;
#A saved vol 100;
#A saved group_name TAPJAM;
#A saved player_name <your_name>;
#A saved SID 2;
#X obj 396 223 dac~;
#X obj 395 99 adc~;
#X text 480 116 V;
#X text 480 100 |;
#X text 470 82 (3);
#X text 276 188 (4)----->;
#X text 277 136 (5)----->;
#X scalar comment 18 262.866 200 \; Sur chaque ordinateur relié à Internet (une seule instance de [audio_oo]) : \; On each Internet-connected computer (only one [audio_oo] instance) : \; Su ognuno computer collegato ad'internet (solo un ogetto [audio_oo]) : \; \;;
#N canvas 236 627 848 445 mix_panel 0;
#X obj 64 87 audio_oo/aoo_submixer_gui \$0 5;
#X scalar comment 46 155.866 200 \; ^- réglages de mute / vol / pan pour chacun des pairs distants \; ^- mute / vol / pan controls for each remote peers \; ^- impostazioni mute / vol / pan per ciascuno dei peer remoti \; \;;
#X obj 151 69 tgl 14 0 \$0-listen \$0-listen-rcv listening 17 7 0 9 #14e814 #14e814 #000000 0 1;
#X obj 187 88 audio_oo/pdr_light/ui_vs \$0 vol 0 100;
#X obj 209 88 cnv 4 15 55 empty empty empty 20 12 0 14 #000000 #404040 0;
#X obj 211 90 cnv 6 11 51 empty empty empty 20 12 0 14 #00fc04 #404040 0;
#X obj 211 90 cnv 4 11 51 empty \$0-meter-rcv empty 20 12 0 14 #7c7c7c #404040 0;
#X text 238 104 <- master volume;
#X scalar comment 233 67.866 200 \; <- activation / désactivation de l'écoute des pairs distants \; <- enabling / disabling remote pairs listening \; <- abilitare / disabilitare l'ascolto dei peer remoti \; \;;
#X obj 26 87 audio_oo/aoo_submixer_gui \$0 5;
#X obj 140 87 audio_oo/aoo_submixer_gui \$0 5;
#X obj 102 87 audio_oo/aoo_submixer_gui \$0 5;
#X text 29 28 mix panel;
#X restore 646 403 pd mix_panel;
#X scalar comment 68 471.866 200 \; 6) Accès à l'onglet de réglage du serveur \; 6) Click to show server settings panel \; 6) Accesso ai controlli del server utilizzato per la connezione \; \;;
#X text 567 131 <---(6);
#N canvas 1069 425 850 412 server_panel 0;
#X obj 41 61 cnv 15 188 68 empty empty empty 15 7 0 14 #fcfcfc #000000 0;
#X obj 286 40 hradio 15 1 0 1 \$0-guitab \$0-guitab-rcv ESC. 0 8 0 8 #e0c4fc #b8b8b8 #000000 0;
#X obj 55 84 cnv 15 150 65 empty empty empty 20 12 0 14 #e0c4fc #404040 0;
#X obj 33 90 vradio 20 1 0 3 \$0-server \$0-server-rcv empty 0 -8 0 10 #fcfcfc #000000 #000000 0;
#X symbolatom 57 127 16 0 0 0 - \$0-ip-rcv \$0-ip 0;
#X obj 184 85 cnv 15 45 65 empty empty empty 20 12 0 14 #e0d8fc #404040 0;
#X floatatom 254 128 5 1000 10000 0 - \$0-port-rcv \$0-port 0;
#X text 255 82 7077;
#X text 59 82 vrr.iem.at;
#X text 56 103 vrr.ffddcchh.com.ar;
#X text 253 104 9098;
#X obj 223 53 tgl 15 0 \$0-local_server \$0-local_server-rcv OFF 0 8 0 8 #a0a0a0 #a0a0a0 #000000 0 1;
#X text 34 57 CONNECT TO;
#X scalar comment 19 173.866 200 \; Par défaut le serveur permettant de récupérer les adresses IP \; The default server used to get IP adresses of \; Il nome del server utilizzato per ottenere gli \; \\\; \;;
#X scalar comment 21 193.866 200 \; de tous les pairs est vrr.iem.at \; every peer is vrr.iem.at \; "adress-IP" dei pari è usualmente vrr.iem.at \; \\\; \;;
#X scalar comment 19 223.866 200 \; Il est possible de définir un autre serveur. \; You can specify another server. \; Si può pure definire un altro server. \; \\\; \;;
#X scalar comment 19 263.866 200 \; Pour démarrer un serveur en local sur cette machine: activer Local Server "ON" \; To start a local server on this computer: press Local Server "ON" \; Per avviare un local server su questo computer: premere Local Server "ON" \; \\\; \;;
#X text 157 44 Local Server, f 6;
#X restore 623 495 pd server_panel;
#X scalar comment 68 451.866 900 \; Réglages avancés : \; Advanced settings : \; Impostazioni avanzate : \; \;;
#X text 567 170 <---(2);
#X text 567 152 <---(1);
#X text 644 226 comment;
#X connect 10 0 11 0;
#X connect 10 1 11 1;
#X connect 12 0 10 0;
#X connect 12 1 10 1;
