#N canvas 0 50 450 300 12;
#X obj 151 455 tgl 30 0 empty empty empty 17 7 0 10 -262144 -1 -1 0
1;
#X msg 395 317 group_leave \$1 \, disconnect;
#X text 191 507 <-- this must be (automatically) set on;
#X text 306 527 otherwise we are not connected...;
#X msg 232 316 group_join \$1 foo;
#X text 334 379 <- note client num \$2;
#X obj 23 378 sel 1;
#X text 341 27 1) connect to server:port with input for username;
#X obj 201 62 route connect disconnect;
#X obj 227 355 t a a;
#X obj 225 284 symbol;
#X obj 397 283 symbol;
#X obj 310 457 t a a;
#X obj 200 29 inlet;
#X obj 197 610 outlet;
#X msg 151 490 status \$1;
#X obj 201 88 list split 3;
#X msg 181 161 connect \$1 \$2 \$3 foo;
#X obj 280 204 symbol;
#X obj 280 230 t a a;
#X obj 615 492 outlet;
#X obj 207 414 aoo_client \$1;
#X obj 393 449 print aoo_client-\$1;
#X connect 0 0 15 0;
#X connect 0 0 6 0;
#X connect 0 0 20 0;
#X connect 1 0 9 0;
#X connect 4 0 9 0;
#X connect 6 0 10 0;
#X connect 8 0 16 0;
#X connect 8 1 11 0;
#X connect 9 0 21 0;
#X connect 9 1 22 0;
#X connect 10 0 4 0;
#X connect 11 0 1 0;
#X connect 12 0 14 0;
#X connect 12 1 22 0;
#X connect 13 0 8 0;
#X connect 15 0 22 0;
#X connect 16 0 17 0;
#X connect 16 1 18 0;
#X connect 17 0 9 0;
#X connect 18 0 19 0;
#X connect 19 0 10 1;
#X connect 19 1 11 1;
#X connect 21 0 0 0;
#X connect 21 1 12 0;
