#N canvas 0 32 1920 994 12;
#X obj 151 455 tgl 30 0 empty empty empty 17 7 0 10 #fcfcfc #000000 #000000 0 1;
#X text 191 507 <-- this must be (automatically) set on;
#X text 306 527 otherwise we are not connected...;
#X text 334 379 <- note client num \$2;
#X obj 23 378 sel 1;
#X text 341 27 1) connect to server:port with input for username;
#X obj 201 62 route connect disconnect;
#X obj 227 355 t a a;
#X obj 310 457 t a a;
#X obj 200 29 inlet;
#X obj 197 610 outlet;
#X msg 151 490 status \$1;
#X obj 280 230 t a a;
#X obj 615 492 outlet;
#X obj 207 414 aoo_client \$1;
#X obj 393 449 print aoo_client-\$1;
#X msg 181 161 connect \$1 \$2;
#X obj 280 204 list;
#X obj 225 284 list append;
#X obj 397 283 list append;
#X msg 232 316 group_join \$3 \$4 \$1 \$2;
#X msg 407 316 group_leave \$3 \, disconnect;
#X obj 201 88 list split 2;
#X connect 0 0 11 0;
#X connect 0 0 4 0;
#X connect 0 0 13 0;
#X connect 4 0 18 0;
#X connect 6 0 22 0;
#X connect 6 1 19 0;
#X connect 7 0 14 0;
#X connect 7 1 15 0;
#X connect 8 0 10 0;
#X connect 8 1 15 0;
#X connect 9 0 6 0;
#X connect 11 0 15 0;
#X connect 12 0 18 1;
#X connect 12 1 19 1;
#X connect 14 0 0 0;
#X connect 14 1 8 0;
#X connect 16 0 7 0;
#X connect 17 0 12 0;
#X connect 18 0 20 0;
#X connect 19 0 21 0;
#X connect 20 0 7 0;
#X connect 21 0 7 0;
#X connect 22 0 16 0;
#X connect 22 1 17 0;
