#N canvas 0 32 956 991 12;
#X obj 291 206 t a a;
#X obj 447 311 t a a;
#X obj 444 394 list prepend;
#X obj 616 43 loadbang;
#X obj 616 95 t a a;
#X obj 616 121 makefilename snd-%s;
#X obj 626 151 makefilename rcv-%s;
#X obj 410 482 list prepend;
#X obj 616 69 f \$1;
#X obj 140 20 inlet;
#X obj 276 56 route float;
#X msg 248 160 start \, ping 0;
#X obj 407 545 outlet;
#X obj 371 14 inlet;
#X obj 972 282 inlet~;
#X obj 1032 282 inlet~;
#X obj 840 597 outlet~;
#X obj 910 597 outlet~;
#X obj 1025 161 loadbang;
#X obj 1000 596 outlet~;
#X obj 1070 596 outlet~;
#X obj 1160 596 outlet~;
#X obj 1230 596 outlet~;
#X obj 1320 595 outlet~;
#X obj 1390 595 outlet~;
#X obj 1086 321 route 1 2 3 4;
#N canvas 1 58 958 1018 assign_peers_to_sinks 0;
#X obj 32 393 outlet;
#X obj 379 394 outlet;
#X msg 116 262 port \$1;
#X obj 106 288 t a a;
#X obj 141 33 inlet;
#X text 47 421 to aoo_send;
#X text 417 421 to aoo_receive;
#X text 32 349 |;
#X text 32 360 |;
#X text 32 371 |;
#X obj 457 346 outlet;
#X obj 152 62 route port group_leave;
#N canvas 1 58 958 1018 dispatch_&_assign_peers 0;
#X obj 60 33 inlet;
#X obj 665 86 text define \$0-peers;
#X obj 60 142 t l l;
#X msg 60 176 list \$1 \$2;
#X obj 62 231 select -1;
#X obj 60 400 list append;
#X obj 79 434 text insert \$0-peers;
#X msg 152 400 1e+09;
#X obj 172 367 loadbang;
#X msg 242 185 list \$1 \$2;
#X obj 244 240 select -1;
#X obj 59 113 list;
#X obj 181 134 list;
#X obj 277 298 text delete \$0-peers;
#X obj 62 208 text search \$0-peers 1 2;
#X obj 244 217 text search \$0-peers 1 2;
#X obj 303 323 text get \$0-peers;
#X obj 58 371 t f f f;
#X obj 142 467 list append;
#X obj 314 599 outlet;
#X msg 142 563 \$1 invite \$2 \$3 1;
#X msg 304 394 \$1 uninvite \$2 \$3 1;
#X obj 57 344 + 1;
#X obj 476 466 + 1;
#X obj 479 411 t f f;
#X obj 479 386 - 1;
#X obj 647 378 t f f;
#X obj 644 433 - 1;
#X obj 664 116 array define \$0-sinks 4;
#X obj 476 444 tabread \$0-sinks;
#X obj 476 493 tabwrite \$0-sinks;
#X obj 644 411 tabread \$0-sinks;
#X obj 644 460 tabwrite \$0-sinks;
#X obj 59 274 array min \$0-sinks;
#X text 41 297 find free sink;
#X floatatom 174 311 5 0 0 0 - - - 0;
#X obj 303 359 t l l;
#X obj 485 320 - 1;
#X msg 477 281 \$1;
#X obj 285 262 t f f;
#X obj 497 207 s \$0-peers;
#X msg 493 171 click;
#X msg 547 169 close;
#X obj 525 122 select 1 0;
#X obj 112 70 route peer_join peer_leave verbose listen;
#X obj 142 516 spigot 1;
#X obj 361 142 select 0 1;
#X msg 347 445 all uninvite;
#X obj 541 330 text sequence \$0-peers;
#X msg 539 298 line 0 \, bang;
#X obj 516 245 text size \$0-peers;
#X obj 516 270 select 0;
#X connect 0 0 44 0;
#X connect 2 0 3 0;
#X connect 2 1 5 1;
#X connect 2 1 18 1;
#X connect 3 0 14 0;
#X connect 4 0 33 0;
#X connect 5 0 6 0;
#X connect 7 0 6 1;
#X connect 8 0 7 0;
#X connect 9 0 15 0;
#X connect 10 1 39 0;
#X connect 11 0 2 0;
#X connect 12 0 9 0;
#X connect 14 0 4 0;
#X connect 15 0 10 0;
#X connect 16 0 36 0;
#X connect 17 0 5 0;
#X connect 17 1 18 0;
#X connect 17 2 25 0;
#X connect 18 0 45 0;
#X connect 20 0 19 0;
#X connect 21 0 19 0;
#X connect 22 0 17 0;
#X connect 23 0 30 0;
#X connect 24 0 29 0;
#X connect 24 1 30 1;
#X connect 25 0 24 0;
#X connect 26 0 31 0;
#X connect 26 1 32 1;
#X connect 27 0 32 0;
#X connect 29 0 23 0;
#X connect 31 0 27 0;
#X connect 33 1 22 0;
#X connect 33 1 35 0;
#X connect 36 0 21 0;
#X connect 36 1 38 0;
#X connect 37 0 26 0;
#X connect 38 0 37 0;
#X connect 39 0 13 0;
#X connect 39 1 16 0;
#X connect 41 0 40 0;
#X connect 42 0 40 0;
#X connect 43 0 41 0;
#X connect 43 1 42 0;
#X connect 44 0 11 0;
#X connect 44 1 12 0;
#X connect 44 2 43 0;
#X connect 44 3 45 1;
#X connect 44 3 46 0;
#X connect 45 0 20 0;
#X connect 46 0 47 0;
#X connect 46 1 50 0;
#X connect 47 0 19 0;
#X connect 48 0 20 0;
#X connect 49 0 48 0;
#X connect 50 0 51 0;
#X connect 51 1 49 0;
#X restore 254 171 pd dispatch_&_assign_peers;
#X msg 188 293 remove;
#X connect 2 0 3 0;
#X connect 3 0 0 0;
#X connect 3 1 1 0;
#X connect 4 0 11 0;
#X connect 11 0 2 0;
#X connect 11 1 13 0;
#X connect 11 2 12 0;
#X connect 12 0 10 0;
#X connect 13 0 0 0;
#X restore 492 191 pd assign_peers_to_sinks;
#X obj 238 98 sel 0 1;
#X msg 431 160 uninvite;
#X msg 238 124 stop;
#X obj 365 121 select 0 1;
#X msg 365 163 remove;
#X obj 242 308 s \$0-peers;
#X msg 242 274 clear;
#X obj 190 346 s \$0-sinks;
#X msg 126 281 const 0;
#X obj 642 802 outlet;
#X obj 1197 337 route all;
#N canvas 961 58 958 1018 displaying_users 0;
#X obj 325 96 inlet;
#X obj 385 588 outlet;
#X obj 371 365 symbol;
#X obj 371 388 list fromsymbol;
#X obj 372 412 list split 6;
#X obj 373 443 list tosymbol;
#X obj 343 296 symbol;
#X obj 278 326 select uninvite invite;
#X obj 344 267 t b f;
#X obj 280 361 f;
#X obj 335 150 route all;
#X msg 337 182 1 \, 2 \, 3 \, 4;
#X msg 46 497 label user\$1 \, color 6 6 10;
#X msg 363 496 label \$1 \, color 36 36 -1;
#X obj 363 533 list prepend;
#X obj 475 346 makefilename user%d-rcv;
#X obj 181 418 text get \$0-peers;
#X obj 60 373 text search \$0-peers 0;
#X obj 60 397 select -1;
#X obj 56 422 f;
#X obj 62 343 t f f;
#X obj 346 234 unpack f s s s f;
#X msg 338 210 \$1 uninvite <group> <name> 1;
#X msg 185 451 symbol \$3;
#X obj 92 254 pipe f 1;
#X connect 0 0 10 0;
#X connect 2 0 3 0;
#X connect 3 0 4 0;
#X connect 4 0 5 0;
#X connect 4 2 5 0;
#X connect 5 0 13 0;
#X connect 6 0 7 0;
#X connect 7 0 9 0;
#X connect 7 1 2 0;
#X connect 8 0 6 0;
#X connect 8 1 9 1;
#X connect 8 1 15 0;
#X connect 9 0 24 0;
#X connect 10 0 11 0;
#X connect 10 1 21 0;
#X connect 11 0 22 0;
#X connect 12 0 14 0;
#X connect 13 0 14 0;
#X connect 14 0 1 0;
#X connect 15 0 14 1;
#X connect 16 0 23 0;
#X connect 17 0 18 0;
#X connect 18 0 19 0;
#X connect 18 1 16 0;
#X connect 19 0 12 0;
#X connect 20 0 17 0;
#X connect 20 1 19 1;
#X connect 21 0 8 0;
#X connect 21 1 6 1;
#X connect 21 3 2 1;
#X connect 22 0 21 0;
#X connect 23 0 3 0;
#X connect 24 0 20 0;
#X restore 654 699 pd displaying_users;
#X msg 1030 51 2000;
#X obj 852 11 inlet;
#X obj 726 335 aoo_send~ 2 \$1 1, f 45;
#X msg 833 182 buffersize \$1;
#X obj 741 438 aoo_receive~ 2 \$1 1;
#X obj 939 437 aoo_receive~ 2 \$1 2;
#X obj 1091 433 aoo_receive~ 2 \$1 3;
#X obj 1265 436 aoo_receive~ 2 \$1 4;
#X msg 1021 213 format opus 2 256 44100 audio;
#X obj 845 36 int;
#X obj 847 65 t b f;
#X obj 842 122 f;
#X obj 844 95 delay 100;
#X msg 840 150 buffersize \$1;
#X msg 1277 363 reset \, list_sources;
#X obj 672 249 print peers_to_sinks;
#X connect 0 0 41 0;
#X connect 0 1 7 0;
#X connect 1 0 43 0;
#X connect 1 0 44 0;
#X connect 1 0 45 0;
#X connect 1 0 46 0;
#X connect 1 1 2 0;
#X connect 2 0 12 0;
#X connect 3 0 8 0;
#X connect 4 0 5 0;
#X connect 4 1 6 0;
#X connect 5 0 7 1;
#X connect 6 0 2 1;
#X connect 7 0 12 0;
#X connect 8 0 4 0;
#X connect 9 0 10 0;
#X connect 10 0 27 0;
#X connect 10 1 26 0;
#X connect 11 0 41 0;
#X connect 13 0 30 0;
#X connect 14 0 41 0;
#X connect 15 0 41 1;
#X connect 18 0 47 0;
#X connect 25 0 43 0;
#X connect 25 1 44 0;
#X connect 25 2 45 0;
#X connect 25 3 46 0;
#X connect 25 4 37 0;
#X connect 26 0 0 0;
#X connect 26 1 1 0;
#X connect 26 2 25 0;
#X connect 26 2 38 0;
#X connect 26 2 54 0;
#X connect 27 0 29 0;
#X connect 27 1 11 0;
#X connect 28 0 1 0;
#X connect 29 0 41 0;
#X connect 30 0 28 0;
#X connect 30 0 31 0;
#X connect 30 0 33 0;
#X connect 30 0 35 0;
#X connect 31 0 41 0;
#X connect 33 0 32 0;
#X connect 35 0 34 0;
#X connect 37 0 43 0;
#X connect 37 0 44 0;
#X connect 37 0 45 0;
#X connect 37 0 46 0;
#X connect 38 0 36 0;
#X connect 39 0 42 0;
#X connect 40 0 48 0;
#X connect 41 0 7 0;
#X connect 42 0 43 0;
#X connect 42 0 44 0;
#X connect 42 0 45 0;
#X connect 42 0 46 0;
#X connect 42 0 41 0;
#X connect 43 0 16 0;
#X connect 43 1 17 0;
#X connect 44 0 19 0;
#X connect 44 1 20 0;
#X connect 45 0 21 0;
#X connect 45 1 22 0;
#X connect 46 0 23 0;
#X connect 46 1 24 0;
#X connect 47 0 41 0;
#X connect 48 0 49 0;
#X connect 49 0 51 0;
#X connect 49 1 50 1;
#X connect 50 0 52 0;
#X connect 51 0 50 0;
#X connect 52 0 42 0;
#X connect 53 0 43 0;
#X connect 53 0 44 0;
#X connect 53 0 45 0;
#X connect 53 0 46 0;
