#N canvas 0 50 1094 928 12;
#X obj 103 145 hsl 15 10 -0.5 0.5 0 0 \$1-pan\$2 \$1-pan\$2-rcv PAN
-1 5 0 8 -4032 -260097 -33289 1400 1;
#X obj 100 117 vsl 20 25 0 100 0 0 \$1-vol\$2 \$1-vol\$2-rcv empty
0 -9 0 10 -204786 -1 -1 4800 1;
#X obj 103 100 hsl 30 15 -1 1 0 0 \$1-user\$2 \$1-user\$2-rcv user\$2
0 8 0 10 -225271 -225271 -233017 0 1;
#X obj 120 115 cnv 4 15 40 empty empty empty 20 12 0 14 -1 -66577 0
;
#X obj 122 117 cnv 6 11 36 empty empty empty 20 12 0 14 -4034 -66577
0;
#X obj 122 117 cnv 4 11 36 empty \$1-meter\$2-rcv empty 20 12 0 14
-128992 -66577 0;
#N canvas 0 57 1920 1023 vu\$2 0;
#X obj 101 42 inlet;
#X obj 114 231 / 100;
#X obj 98 127 - 4;
#X obj 141 343 s \$1-meter\$2-rcv;
#X msg 237 295 color \$1 \$1;
#X text 270 218 13 14 15 41;
#X msg 161 237 88;
#X obj 73 277 int;
#X obj 94 298 change;
#X obj 234 276 change;
#X msg 216 251 41;
#X msg 326 282 14;
#X msg 256 236 13;
#X msg 116 319 vis_size 11 \$1;
#X obj 98 150 moses 0;
#N canvas 0 50 568 507 speed_lim 0;
#X obj 91 12 inlet;
#X obj 212 338 list append;
#X obj 212 367 list trim;
#X msg 167 182 1;
#X obj 80 391 outlet;
#X obj 140 224 change;
#X obj 133 150 delay 150;
#X obj 166 254 metro 150;
#X obj 194 103 t b b b a;
#X obj 204 286 spigot;
#X obj 204 308 t a b;
#X msg 293 275 0;
#X msg 252 263 1;
#X msg 133 175 0;
#X connect 0 0 8 0;
#X connect 1 0 2 0;
#X connect 2 0 4 0;
#X connect 3 0 5 0;
#X connect 5 0 7 0;
#X connect 6 0 13 0;
#X connect 7 0 9 0;
#X connect 8 0 6 0;
#X connect 8 1 3 0;
#X connect 8 2 12 0;
#X connect 8 3 1 1;
#X connect 9 0 10 0;
#X connect 10 0 1 0;
#X connect 10 1 11 0;
#X connect 11 0 9 1;
#X connect 12 0 9 1;
#X connect 13 0 5 0;
#X restore 95 73 pd speed_lim;
#X msg 98 176 0;
#X obj 147 193 moses 85;
#X obj 217 191 moses 90;
#X obj 114 253 * -36;
#X obj 114 275 + 36;
#X connect 0 0 15 0;
#X connect 1 0 19 0;
#X connect 2 0 14 0;
#X connect 4 0 3 0;
#X connect 6 0 1 0;
#X connect 7 0 8 0;
#X connect 8 0 13 0;
#X connect 9 0 4 0;
#X connect 10 0 9 0;
#X connect 11 0 9 0;
#X connect 12 0 9 0;
#X connect 13 0 3 0;
#X connect 14 0 16 0;
#X connect 14 1 17 0;
#X connect 15 0 2 0;
#X connect 16 0 17 0;
#X connect 17 0 1 0;
#X connect 17 0 10 0;
#X connect 17 1 6 0;
#X connect 17 1 18 0;
#X connect 18 0 10 0;
#X connect 18 1 12 0;
#X connect 19 0 20 0;
#X connect 20 0 7 0;
#X restore 379 186 pd vu\$2;
#X obj 138 145 tgl 25 0 \$1-mute\$2 \$1-mute\$2-rcv MUTE 2 7 0 10 -261682
-1 -1 0 1;
#X obj 163 145 tgl 25 0 \$0-mono \$0-mono-rcv MONO 2 7 0 10 -262130
-1 -1 0 1;
#N canvas 191 64 1187 781 mute/pan/mono_stuff 0;
#X obj 189 425 *~;
#X obj 91 424 *~;
#X obj 226 392 line~;
#X obj 356 312 dbtorms;
#X msg 284 349 \$1 20;
#X obj 385 228 f;
#X obj 302 196 select 1 0;
#X msg 318 225 0;
#X obj 314 166 t f f;
#X obj 421 204 == 0;
#X obj 368 251 spigot 1;
#X obj 286 392 line~;
#X obj 324 308 f;
#X msg 536 496 \$1 20;
#X obj 438 300 t b f;
#X obj 474 345 t f f;
#X obj 471 412 abs;
#X obj 565 411 abs;
#X obj 468 451 * 0.5;
#X obj 558 451 * 0.5;
#X obj 459 384 - 0.5;
#X obj 561 385 + 0.5;
#X obj 254 473 *~ 0;
#X obj 304 473 *~ 0;
#X obj 158 617 outlet~;
#X obj 282 608 outlet~;
#X obj 92 96 inlet~;
#X obj 187 96 inlet~;
#X obj 316 74 r \$1-mute\$2;
#X obj 486 66 r \$1-pan\$2;
#X obj 386 114 r \$1-vol\$2;
#X obj 368 475 r \$1-mono\$2;
#X obj 385 172 / 4;
#X obj 362 282 + 75;
#X connect 0 0 23 0;
#X connect 0 0 25 0;
#X connect 1 0 22 0;
#X connect 1 0 24 0;
#X connect 2 0 1 1;
#X connect 3 0 12 0;
#X connect 4 0 2 0;
#X connect 5 0 10 0;
#X connect 6 0 7 0;
#X connect 6 1 5 0;
#X connect 7 0 12 0;
#X connect 8 0 6 0;
#X connect 8 1 9 0;
#X connect 9 0 10 1;
#X connect 10 0 33 0;
#X connect 11 0 0 1;
#X connect 12 0 18 0;
#X connect 12 0 19 0;
#X connect 13 0 11 0;
#X connect 14 0 12 0;
#X connect 14 1 15 0;
#X connect 15 0 20 0;
#X connect 15 1 21 0;
#X connect 16 0 18 1;
#X connect 17 0 19 1;
#X connect 18 0 4 0;
#X connect 19 0 13 0;
#X connect 20 0 16 0;
#X connect 21 0 17 0;
#X connect 22 0 25 0;
#X connect 23 0 24 0;
#X connect 26 0 1 0;
#X connect 27 0 0 0;
#X connect 28 0 8 0;
#X connect 29 0 14 0;
#X connect 30 0 32 0;
#X connect 31 0 23 1;
#X connect 31 0 22 1;
#X connect 32 0 5 0;
#X connect 33 0 3 0;
#X restore 323 95 pd mute/pan/mono_stuff;
#X obj 319 65 inlet~;
#X obj 379 65 inlet~;
#X obj 323 119 outlet~;
#X obj 426 120 outlet~;
#X obj 377 164 env~;
#X obj 376 485 s \$1-user\$2-rcv;
#X msg 398 257 36;
#X msg 441 257 51;
#X obj 252 152 r \$1-user\$2;
#X obj 237 288 spigot 1;
#X msg 242 239 0;
#X obj 283 237 delay 200;
#X obj 245 205 t b b b;
#X msg 283 261 1;
#X obj 234 321 s \$1-mute\$2-rcv;
#X obj 567 56 r \$1-mute\$2;
#X obj 564 135 select 0 1;
#X msg 440 468 color 36 36 10;
#X obj 390 339 pack f 10;
#X msg 381 397 color \$1 \$1 \$2;
#X obj 565 96 f;
#X obj 741 25 r \$1-user\$2-rcv;
#X obj 741 50 route label color;
#X msg 798 86 \$3;
#X obj 653 73 t b;
#X connect 9 0 12 0;
#X connect 9 0 14 0;
#X connect 9 1 13 0;
#X connect 9 1 14 0;
#X connect 10 0 9 0;
#X connect 11 0 9 1;
#X connect 14 0 6 0;
#X connect 16 0 28 0;
#X connect 17 0 28 0;
#X connect 18 0 22 0;
#X connect 19 0 24 0;
#X connect 20 0 19 1;
#X connect 21 0 23 0;
#X connect 22 0 20 0;
#X connect 22 1 19 0;
#X connect 22 2 21 0;
#X connect 23 0 19 1;
#X connect 25 0 30 0;
#X connect 26 0 16 0;
#X connect 26 1 17 0;
#X connect 27 0 15 0;
#X connect 28 0 29 0;
#X connect 29 0 15 0;
#X connect 30 0 26 0;
#X connect 31 0 32 0;
#X connect 32 0 34 0;
#X connect 32 1 33 0;
#X connect 33 0 28 1;
#X connect 34 0 30 0;
#X coords 0 -1 1 1 35 55 2 100 100;
