#N canvas 365 317 973 330 10;
#X obj 131 28 inlet;
#X obj 182 185 outlet;
#X obj 131 122 route \$2;
#X obj 48 181 s \$1-\$2;
#X obj 131 98 list trim;
#X obj 273 121 select help;
#X obj 273 158 list append \$2;
#X obj 273 182 list trim;
#X obj 273 205 print dispatcher;
#X obj 273 94 route symbol;
#X obj 273 70 list;
#X obj 455 237 s \$1-\$2;
#X obj 557 63 r \$1-\$2;
#X text 447 73 state saves:;
#N canvas 228 198 627 317 LICENSE-BSD 0;
#X text 121 56 This software is copyrighted by Miller Puckette \, Reality
Jockey Ltd. and others. The terms (the "Standard Improved BSD License")
apply to all files associated with the software unless explicitly disclaimed
in individual files.;
#X text 123 148 See the file LICENSE.txt for the full license text.
;
#X restore 553 30 pd LICENSE-BSD;
#X obj 50 144 list trim;
#X obj 469 127 list trim;
#N canvas 0 57 1920 1023 u_sssad 1;
#X obj 159 26 inlet;
#X obj 233 160 list trim;
#X obj 233 25 inlet;
#X obj 22 308 b;
#X obj 159 53 b;
#X obj 543 358 b;
#X obj 543 250 spigot;
#X obj 669 72 loadbang;
#X obj 669 250 tgl 15 0 empty empty empty 17 7 0 10 -262144 -1 -1 1
1;
#X obj 669 194 select 0;
#X obj 701 141 + 1;
#X obj 669 120 t a a;
#X obj 669 216 f 1;
#X obj 226 476 outlet;
#X obj 159 450 route bang;
#X text 243 449 filter out empty lists;
#X obj 159 361 list append;
#X text 692 249 <- only the first instance responds to "save";
#X text 165 540 2007/2008 fbar;
#X text 829 95 Enhancement by Enrique Erne;
#X obj 543 425 list append;
#X obj 543 448 route bang;
#X text 627 447 filter out empty lists here \, too.;
#X obj 22 226 route set setonly;
#X obj 80 273 route \$1;
#X obj 80 251 list trim;
#X obj 608 302 list trim;
#X obj 610 498 list trim;
#N canvas 228 198 627 317 LICENSE-BSD 0;
#X text 121 56 This software is copyrighted by Miller Puckette \, Reality
Jockey Ltd. and others. The terms (the "Standard Improved BSD License")
apply to all files associated with the software unless explicitly disclaimed
in individual files.;
#X text 123 148 See the file LICENSE.txt for the full license text.
;
#X restore 833 30 pd LICENSE-BSD;
#X obj 713 382 list append;
#X obj 813 418 route bang;
#X text 897 417 filter out empty lists here \, too.;
#X obj 703 336 t b s;
#X obj 719 308 list append;
#X obj 857 475 list prepend <dest>;
#X obj 543 277 route save saveonly getValuesInto saveTo;
#X obj 818 310 list prepend target;
#X obj 873 372 list append;
#N canvas 0 50 717 568 morphing 0;
#X obj 117 25 inlet;
#X obj 116 404 outlet;
#X obj 168 117 route float;
#X obj 78 91 spigot 1;
#X obj 168 89 spigot;
#X obj 137 61 == 0;
#X obj 287 96 r MORPH.TIME;
#X obj 148 147 pack f 0;
#X obj 210 289 line;
#X obj 282 123 r MORPH.STOP;
#X msg 282 145 stop;
#X obj 377 41 inlet;
#X obj 377 132 route float;
#X msg 332 243 set \$1;
#X obj 335 208 f;
#X obj 210 312 t b f b;
#X obj 164 177 t l b;
#X obj 377 183 f;
#X obj 377 155 t f b;
#X text 419 184 previous;
#X obj 215 31 r \$1-\$2-morph_enable;
#X connect 0 0 3 0;
#X connect 0 0 4 0;
#X connect 2 0 7 0;
#X connect 2 1 1 0;
#X connect 3 0 1 0;
#X connect 4 0 2 0;
#X connect 5 0 3 1;
#X connect 6 0 7 1;
#X connect 7 0 16 0;
#X connect 8 0 15 0;
#X connect 9 0 10 0;
#X connect 10 0 8 0;
#X connect 11 0 12 0;
#X connect 12 0 18 0;
#X connect 13 0 8 0;
#X connect 14 0 13 0;
#X connect 15 1 1 0;
#X connect 16 0 8 0;
#X connect 16 1 14 0;
#X connect 17 0 14 1;
#X connect 18 0 17 1;
#X connect 18 1 17 0;
#X connect 20 0 4 1;
#X connect 20 0 5 0;
#X restore 180 397 pd morphing;
#X obj 233 55 list prepend \$2;
#X obj 233 84 s \$1-SSSAD;
#X obj 231 108 r \$1-SSSAD;
#X obj 22 187 r \$1-SSSAD_ADMIN;
#X obj 233 223 route \$2;
#X obj 669 95 value \$2.\$1.SSSAD.req;
#X obj 701 164 value \$2.\$1.SSSAD.req;
#X obj 543 190 r \$1-SSSAD_ADMIN;
#X obj 921 341 list append \$2;
#X obj 880 444 list prepend \$2;
#X obj 610 474 list prepend persist \$2;
#X obj 612 325 route \$2;
#X obj 610 522 s \$1-SSSAD_ADMIN;
#X connect 0 0 4 0;
#X connect 1 0 43 0;
#X connect 2 0 39 0;
#X connect 3 0 16 0;
#X connect 4 0 16 0;
#X connect 5 0 20 0;
#X connect 6 0 35 0;
#X connect 7 0 44 0;
#X connect 9 0 12 0;
#X connect 10 0 45 0;
#X connect 11 0 9 0;
#X connect 11 1 10 0;
#X connect 12 0 6 1;
#X connect 12 0 8 0;
#X connect 14 1 13 0;
#X connect 16 0 38 0;
#X connect 20 0 21 0;
#X connect 21 1 49 0;
#X connect 23 0 3 0;
#X connect 23 1 25 0;
#X connect 24 0 3 0;
#X connect 25 0 24 0;
#X connect 26 0 50 0;
#X connect 27 0 51 0;
#X connect 29 0 30 0;
#X connect 30 1 48 0;
#X connect 32 0 29 0;
#X connect 32 1 34 1;
#X connect 33 0 32 0;
#X connect 34 0 27 0;
#X connect 35 0 5 0;
#X connect 35 1 26 0;
#X connect 35 2 33 0;
#X connect 35 3 36 0;
#X connect 36 0 47 0;
#X connect 37 0 27 0;
#X connect 38 0 14 0;
#X connect 39 0 40 0;
#X connect 41 0 1 0;
#X connect 42 0 23 0;
#X connect 43 0 16 1;
#X connect 43 0 20 1;
#X connect 43 0 29 1;
#X connect 43 0 37 1;
#X connect 43 0 38 1;
#X connect 44 0 11 0;
#X connect 46 0 6 0;
#X connect 47 0 37 0;
#X connect 48 0 34 0;
#X connect 49 0 27 0;
#X connect 50 0 5 0;
#X restore 470 104 pd u_sssad \$2 \$1;
#X connect 0 0 4 0;
#X connect 0 0 10 0;
#X connect 2 0 15 0;
#X connect 2 1 1 0;
#X connect 4 0 2 0;
#X connect 5 0 6 0;
#X connect 6 0 7 0;
#X connect 7 0 8 0;
#X connect 9 0 5 0;
#X connect 10 0 9 0;
#X connect 12 0 17 1;
#X connect 15 0 3 0;
#X connect 16 0 11 0;
#X connect 17 0 16 0;
