#N canvas 0 58 1920 1023 10;
#X declare -path ../../../core;
#X declare -path ../../../core/stuff;
#X declare -path ../../../core/rj;
#N canvas 172 83 586 377 LICENSE-GPL 0;
#X text 57 88 This program is free software: you can redistribute it
and/or modify it under the terms of the GNU General Public License
as published by the Free Software Foundation \, either version 3 of
the License \, or (at your option) any later version.;
#X text 58 168 This program is distributed in the hope that it will
be useful \, but WITHOUT ANY WARRANTY \; without even the implied warranty
of MERCHANTABILITY or FITNESS FOR A PARTICULAR PURPOSE. See the GNU
General Public License for more details.;
#X text 57 261 You should have received a copy of the GNU General Public
License along with this program. If not \, see <http://www.gnu.org/licenses/>.
;
#X text 61 54 Copyright (C) 2009 \, Reality Jockey Ltd.;
#X text 60 325 See the file LICENSE.txt for the full license text.
;
#X restore 298 15 pd LICENSE-GPL;
#X obj 806 28 r \$0-index;
#X msg 801 55 set \$1;
#X obj 801 77 s \$0-index-rcv;
#X text 1014 418 au chargement de la scène / du préset : précharger
tous les samples dans des samplebank (à réception de lfilename);
#X obj 101 101 cnv 15 188 68 \$0-background \$0-background-rcv inst_pcm-0
0 7 0 14 -262144 -1 0;
#X obj 640 239 inlet~;
#X obj 696 241 inlet~;
#X obj 644 949 outlet~;
#X obj 702 950 outlet~;
#X obj 783 236 inlet data;
#X obj 788 901 outlet data;
#X obj 1287 275 module_loader inst_pcm \$0 \$1;
#X obj 166 129 vsl 70 17 1 0 0 0 \$0-presets \$0-presets-rcv GrandPiano
2 5 0 10 -232576 -232576 -1 0 1;
#X obj 101 301 cnv 15 188 68 \$0-background \$0-background-rcv inst_pcm-0
0 7 0 14 -262144 -1 0;
#X floatatom 166 338 10 0 127 0 root_key #0-root_key-rcv #0-root_key
, f 10;
#X symbolatom 190 338 6 0 0 0 - #0-root_key_display-rcv -, f 6;
#X floatatom 166 353 10 0 127 0 low_key #0-low_key-rcv #0-low_key,
f 10;
#X symbolatom 190 353 6 0 0 0 - #0-low_key_display-rcv -, f 6;
#X floatatom 166 322 10 0 127 0 high_key #0-high_key-rcv #0-high_key
, f 10;
#X symbolatom 190 322 6 0 0 0 - #0-high_key_display-rcv -, f 6;
#X obj 101 401 cnv 15 188 68 \$0-background \$0-background-rcv inst_pcm-0
0 7 0 14 -262144 -1 0;
#X obj 103 438 hsl 100 15 0 1 0 0 \$0-start \$0-start-rcv START 4 8
0 10 -262144 -1 -1 0 1;
#X obj 103 452 hsl 100 15 0 1 0 0 \$0-end \$0-end-rcv END 4 8 0 10
-262144 -1 -1 0 1;
#X obj 101 201 cnv 15 188 68 \$0-background \$0-background-rcv inst_pcm-0
0 7 0 14 -262144 -1 0;
#X obj 170 200 hradio 15 1 0 5 \$0-guitab \$0-guitab-rcv empty 0 -8
0 10 -191407 -1 -1 0;
#X obj 102 240 cnv 12 1 1 empty \$0-samplename-rcv PantinFluteSlap.wav
2 6 0 10 -262144 -66577 0;
#X obj 211 217 bng 20 250 50 0 \$0-load_sample empty CHANGE 0 10 0
8 -203904 -203904 -4160;
#X obj 244 114 ui_vs \$0 vol 0 127;
#X obj 190 100 bng 15 250 50 0 empty empty EDIT 17 7 0 10 -191407 -1
-1;
#X obj 149 62 s \$0-guitab-rcv;
#X msg 170 35 1;
#X obj 101 501 cnv 15 188 68 \$0-background \$0-background-rcv inst_pcm-0
0 7 0 14 -262144 -1 0;
#X obj 170 300 hradio 15 1 0 5 \$0-guitab \$0-guitab-rcv empty 0 -8
0 10 -191407 -1 -1 0;
#X obj 170 400 hradio 15 1 0 5 \$0-guitab \$0-guitab-rcv empty 0 -8
0 10 -191407 -1 -1 0;
#X obj 170 500 hradio 15 1 0 5 \$0-guitab \$0-guitab-rcv empty 0 -8
0 10 -191407 -1 -1 0;
#X obj 363 423 r \$0-load_sample;
#X obj 363 475 openpanel;
#X obj 363 559 s \$0-path;
#X obj 460 517 s \$0-filename;
#X msg 363 667 label \$1;
#X obj 364 623 r \$0-filename;
#X obj 363 689 s \$0-samplename-rcv;
#X obj 108 518 cnv 12 1 1 empty \$0-samplename-rcv PantinFluteSlap.wav
2 6 0 10 -262144 -66577 0;
#X obj 120 537 bng 15 250 50 0 \$0-append empty append 17 7 0 10 -262144
-1 -1;
#X obj 185 554 bng 15 250 50 0 \$0-reset empty reset_all 17 7 0 10
-262144 -1 -1;
#X obj 120 552 bng 15 250 50 0 \$0-update empty update 17 7 0 10 -262144
-1 -1;
#X obj 307 234 bng 15 250 50 0 \$0-update empty update 2 7 0 10 -258113
-1 -1;
#X obj 273 200 bng 15 250 50 0 \$0-next_file \$0-next_file-rcv > 5
7 0 10 -262144 -1 -1;
#X obj 259 200 bng 15 250 50 0 \$0-prev_file \$0-prev_file-rcv < 5
7 0 10 -262144 -1 -1;
#X floatatom 259 215 4 0 0 0 - #0-index-rcv -, f 4;
#X obj 273 300 bng 15 250 50 0 \$0-next_file \$0-next_file-rcv > 5
7 0 10 -262144 -1 -1;
#X obj 259 300 bng 15 250 50 0 \$0-prev_file \$0-prev_file-rcv < 5
7 0 10 -262144 -1 -1;
#X floatatom 259 315 4 0 0 0 - #0-index-rcv -, f 4;
#X obj 273 400 bng 15 250 50 0 \$0-next_file \$0-next_file-rcv > 5
7 0 10 -262144 -1 -1;
#X obj 259 400 bng 15 250 50 0 \$0-prev_file \$0-prev_file-rcv < 5
7 0 10 -262144 -1 -1;
#X floatatom 259 415 4 0 0 0 - #0-index-rcv -, f 4;
#X obj 302 323 bng 15 250 50 0 \$0-update empty update 2 7 0 10 -258113
-1 -1;
#X obj 302 407 bng 15 250 50 0 \$0-update empty update 2 7 0 10 -258113
-1 -1;
#X obj 271 500 bng 15 250 50 0 \$0-next_file \$0-next_file-rcv > 5
7 0 10 -262144 -1 -1;
#X obj 257 500 bng 15 250 50 0 \$0-prev_file \$0-prev_file-rcv < 5
7 0 10 -262144 -1 -1;
#X floatatom 257 515 4 0 0 0 - #0-index-rcv -, f 4;
#X obj 185 538 bng 15 250 50 0 \$0-delete empty delete 17 7 0 10 -262144
-1 -1;
#N canvas 458 61 643 448 midi2notename 0;
#N canvas 473 338 450 300 count 0;
#X obj 131 154 f 0;
#X obj 156 153 + 1;
#X msg 147 133 0;
#X obj 131 183 outlet;
#X obj 131 59 inlet;
#X obj 131 96 b;
#X obj 178 61 inlet;
#X obj 178 98 b;
#X connect 0 0 1 0;
#X connect 0 0 3 0;
#X connect 1 0 0 1;
#X connect 2 0 0 1;
#X connect 4 0 5 0;
#X connect 5 0 0 0;
#X connect 6 0 7 0;
#X connect 7 0 2 0;
#X restore 330 219 pd count;
#X msg 249 169 c \, c# \, d \, d# \, e \, f \, f# \, g \, g# \, a \,
a# \, b;
#X obj 249 194 t a b;
#X obj 249 243 list prepend;
#X msg 173 243 reset;
#X obj 249 144 t b b b;
#X text -2 162 Notes example:;
#X msg 114 244 print;
#X msg 114 219 dump;
#X obj 161 268 m_symbolarray;
#X obj 252 117 loadbang;
#X obj 165 163 mod 12;
#X obj 229 113 bng 15 250 50 0 empty empty empty 17 7 0 10 -262144
-1 -1;
#X obj 166 127 t f f;
#X obj 159 297 list append;
#X obj 166 104 - 24;
#X floatatom 177 215 5 0 0 0 - - -, f 5;
#X obj 188 192 div 12;
#X obj 171 76 t f f;
#X obj 164 321 list append;
#X obj 161 50 route set;
#X msg 150 363 symbol (\$1\$2);
#X obj 147 27 r \$0-root_key-rcv;
#X obj 152 385 s \$0-root_key_display-rcv;
#X connect 0 0 3 1;
#X connect 1 0 2 0;
#X connect 2 0 3 0;
#X connect 2 1 0 0;
#X connect 3 0 9 1;
#X connect 4 0 9 0;
#X connect 5 0 1 0;
#X connect 5 1 4 0;
#X connect 5 2 0 1;
#X connect 7 0 9 0;
#X connect 8 0 9 0;
#X connect 9 0 14 0;
#X connect 10 0 5 0;
#X connect 11 0 9 0;
#X connect 12 0 5 0;
#X connect 13 0 11 0;
#X connect 13 1 17 0;
#X connect 14 0 19 0;
#X connect 15 0 13 0;
#X connect 17 0 16 0;
#X connect 17 0 14 1;
#X connect 18 0 15 0;
#X connect 18 1 19 1;
#X connect 19 0 21 0;
#X connect 20 0 18 0;
#X connect 21 0 23 0;
#X connect 22 0 20 0;
#X restore 381 323 pd midi2notename;
#N canvas 458 61 643 448 midi2notename 0;
#N canvas 473 338 450 300 count 0;
#X obj 131 154 f 0;
#X obj 156 153 + 1;
#X msg 147 133 0;
#X obj 131 183 outlet;
#X obj 131 59 inlet;
#X obj 131 96 b;
#X obj 178 61 inlet;
#X obj 178 98 b;
#X connect 0 0 1 0;
#X connect 0 0 3 0;
#X connect 1 0 0 1;
#X connect 2 0 0 1;
#X connect 4 0 5 0;
#X connect 5 0 0 0;
#X connect 6 0 7 0;
#X connect 7 0 2 0;
#X restore 330 219 pd count;
#X msg 249 169 c \, c# \, d \, d# \, e \, f \, f# \, g \, g# \, a \,
a# \, b;
#X obj 249 194 t a b;
#X obj 249 243 list prepend;
#X msg 173 243 reset;
#X obj 249 144 t b b b;
#X text -2 162 Notes example:;
#X msg 114 244 print;
#X msg 114 219 dump;
#X obj 161 268 m_symbolarray;
#X obj 252 117 loadbang;
#X obj 165 163 mod 12;
#X obj 229 113 bng 15 250 50 0 empty empty empty 17 7 0 10 -262144
-1 -1;
#X obj 166 127 t f f;
#X obj 159 297 list append;
#X obj 166 104 - 24;
#X floatatom 177 215 5 0 0 0 - - -, f 5;
#X obj 188 192 div 12;
#X obj 171 76 t f f;
#X obj 164 321 list append;
#X obj 161 50 route set;
#X msg 150 363 symbol (\$1\$2);
#X obj 147 27 r \$0-low_key-rcv;
#X obj 152 385 s \$0-low_key_display-rcv;
#X connect 0 0 3 1;
#X connect 1 0 2 0;
#X connect 2 0 3 0;
#X connect 2 1 0 0;
#X connect 3 0 9 1;
#X connect 4 0 9 0;
#X connect 5 0 1 0;
#X connect 5 1 4 0;
#X connect 5 2 0 1;
#X connect 7 0 9 0;
#X connect 8 0 9 0;
#X connect 9 0 14 0;
#X connect 10 0 5 0;
#X connect 11 0 9 0;
#X connect 12 0 5 0;
#X connect 13 0 11 0;
#X connect 13 1 17 0;
#X connect 14 0 19 0;
#X connect 15 0 13 0;
#X connect 17 0 16 0;
#X connect 17 0 14 1;
#X connect 18 0 15 0;
#X connect 18 1 19 1;
#X connect 19 0 21 0;
#X connect 20 0 18 0;
#X connect 21 0 23 0;
#X connect 22 0 20 0;
#X restore 381 343 pd midi2notename;
#N canvas 458 61 643 448 midi2notename 0;
#N canvas 473 338 450 300 count 0;
#X obj 131 154 f 0;
#X obj 156 153 + 1;
#X msg 147 133 0;
#X obj 131 183 outlet;
#X obj 131 59 inlet;
#X obj 131 96 b;
#X obj 178 61 inlet;
#X obj 178 98 b;
#X connect 0 0 1 0;
#X connect 0 0 3 0;
#X connect 1 0 0 1;
#X connect 2 0 0 1;
#X connect 4 0 5 0;
#X connect 5 0 0 0;
#X connect 6 0 7 0;
#X connect 7 0 2 0;
#X restore 330 219 pd count;
#X msg 249 169 c \, c# \, d \, d# \, e \, f \, f# \, g \, g# \, a \,
a# \, b;
#X obj 249 194 t a b;
#X obj 249 243 list prepend;
#X msg 173 243 reset;
#X obj 249 144 t b b b;
#X text -2 162 Notes example:;
#X msg 114 244 print;
#X msg 114 219 dump;
#X obj 161 268 m_symbolarray;
#X obj 252 117 loadbang;
#X obj 165 163 mod 12;
#X obj 229 113 bng 15 250 50 0 empty empty empty 17 7 0 10 -262144
-1 -1;
#X obj 166 127 t f f;
#X obj 159 297 list append;
#X obj 166 104 - 24;
#X floatatom 177 215 5 0 0 0 - - -, f 5;
#X obj 188 192 div 12;
#X obj 171 76 t f f;
#X obj 164 321 list append;
#X obj 161 50 route set;
#X msg 150 363 symbol (\$1\$2);
#X obj 147 27 r \$0-high_key-rcv;
#X obj 152 385 s \$0-high_key_display-rcv;
#X connect 0 0 3 1;
#X connect 1 0 2 0;
#X connect 2 0 3 0;
#X connect 2 1 0 0;
#X connect 3 0 9 1;
#X connect 4 0 9 0;
#X connect 5 0 1 0;
#X connect 5 1 4 0;
#X connect 5 2 0 1;
#X connect 7 0 9 0;
#X connect 8 0 9 0;
#X connect 9 0 14 0;
#X connect 10 0 5 0;
#X connect 11 0 9 0;
#X connect 12 0 5 0;
#X connect 13 0 11 0;
#X connect 13 1 17 0;
#X connect 14 0 19 0;
#X connect 15 0 13 0;
#X connect 17 0 16 0;
#X connect 17 0 14 1;
#X connect 18 0 15 0;
#X connect 18 1 19 1;
#X connect 19 0 21 0;
#X connect 20 0 18 0;
#X connect 21 0 23 0;
#X connect 22 0 20 0;
#X restore 381 363 pd midi2notename;
#N canvas 586 75 1288 620 mapped_sample_bank 0;
#X obj 98 82 list trim;
#X obj 98 104 route <subset>;
#X obj 86 53 r \$0-llow_key;
#X obj 283 68 list trim;
#X obj 285 91 route <subset>;
#X obj 281 47 r \$0-lhigh_key;
#X obj 104 143 list prepend low_key;
#X obj 285 113 list prepend high_key;
#X obj 503 68 list trim;
#X obj 505 91 route <subset>;
#X obj 501 47 r \$0-lfilename;
#X obj 505 113 list prepend filename;
#X obj 663 68 list trim;
#X obj 665 91 route <subset>;
#X obj 661 47 r \$0-lroot_key;
#X obj 665 113 list prepend root_key;
#X obj 292 212 inlet;
#X obj 873 68 list trim;
#X obj 875 91 route <subset>;
#X obj 871 47 r \$0-lsr;
#X obj 875 113 list prepend sr;
#X obj 214 589 outlet;
#X obj 217 551 r \$0-u_mapped_samplebank_output;
#X msg 562 283 EOM;
#X obj 651 236 r \$0-reset;
#X obj 29 380 u_mapped_samplebank \$0;
#X obj 29 358 u_mapped_samplebank \$0;
#X obj 29 402 u_mapped_samplebank \$0;
#X obj 29 424 u_mapped_samplebank \$0;
#X obj 29 448 u_mapped_samplebank \$0;
#X obj 29 470 u_mapped_samplebank \$0;
#X obj 29 492 u_mapped_samplebank \$0;
#X obj 29 514 u_mapped_samplebank \$0;
#X obj 339 358 u_mapped_samplebank \$0;
#X obj 339 380 u_mapped_samplebank \$0;
#X obj 339 402 u_mapped_samplebank \$0;
#X obj 339 424 u_mapped_samplebank \$0;
#X obj 339 448 u_mapped_samplebank \$0;
#X obj 339 470 u_mapped_samplebank \$0;
#X obj 339 492 u_mapped_samplebank \$0;
#X obj 339 514 u_mapped_samplebank \$0;
#X obj 649 358 u_mapped_samplebank \$0;
#X obj 649 380 u_mapped_samplebank \$0;
#X obj 649 402 u_mapped_samplebank \$0;
#X obj 649 424 u_mapped_samplebank \$0;
#X obj 649 448 u_mapped_samplebank \$0;
#X obj 649 470 u_mapped_samplebank \$0;
#X obj 649 492 u_mapped_samplebank \$0;
#X obj 649 514 u_mapped_samplebank \$0;
#X obj 959 358 u_mapped_samplebank \$0;
#X obj 959 380 u_mapped_samplebank \$0;
#X obj 959 402 u_mapped_samplebank \$0;
#X obj 959 424 u_mapped_samplebank \$0;
#X obj 959 448 u_mapped_samplebank \$0;
#X obj 959 470 u_mapped_samplebank \$0;
#X obj 959 492 u_mapped_samplebank \$0;
#X obj 959 514 u_mapped_samplebank \$0;
#X obj 649 548 u_mapped_samplebank \$0;
#X obj 649 570 u_mapped_samplebank \$0;
#X obj 649 592 u_mapped_samplebank \$0;
#X obj 649 614 u_mapped_samplebank \$0;
#X obj 649 638 u_mapped_samplebank \$0;
#X obj 649 660 u_mapped_samplebank \$0;
#X obj 649 682 u_mapped_samplebank \$0;
#X obj 648 705 u_mapped_samplebank \$0;
#X obj 959 548 u_mapped_samplebank \$0;
#X obj 959 570 u_mapped_samplebank \$0;
#X obj 959 592 u_mapped_samplebank \$0;
#X obj 959 614 u_mapped_samplebank \$0;
#X obj 959 638 u_mapped_samplebank \$0;
#X obj 959 660 u_mapped_samplebank \$0;
#X obj 959 682 u_mapped_samplebank \$0;
#X obj 959 704 u_mapped_samplebank \$0;
#X obj 1001 56 list trim;
#X obj 1003 79 route <subset>;
#X obj 1110 52 list trim;
#X obj 1112 75 route <subset>;
#X obj 999 35 r \$0-lstart;
#X obj 1108 31 r \$0-lend;
#X obj 1003 101 list prepend start;
#X obj 1112 97 list prepend end;
#X obj 891 176 list trim;
#X obj 893 199 route <subset>;
#X obj 1030 172 list trim;
#X obj 1032 195 route <subset>;
#X obj 889 155 r \$0-lplaymode;
#X obj 1028 151 r \$0-lreverse;
#X obj 1170 172 list trim;
#X obj 1172 195 route <subset>;
#X obj 1168 151 r \$0-lgain;
#X obj 893 221 list prepend playmode;
#X obj 1032 217 list prepend reverse;
#X obj 1172 217 list prepend gain;
#X obj 400 182 list trim;
#X obj 402 205 route <subset>;
#X obj 398 161 r \$0-lpath;
#X obj 402 227 list prepend path;
#X connect 0 0 1 0;
#X connect 1 0 6 0;
#X connect 1 1 6 0;
#X connect 2 0 0 0;
#X connect 3 0 4 0;
#X connect 4 0 7 0;
#X connect 4 1 7 0;
#X connect 5 0 3 0;
#X connect 6 0 26 0;
#X connect 7 0 26 0;
#X connect 8 0 9 0;
#X connect 9 0 11 0;
#X connect 9 1 11 0;
#X connect 10 0 8 0;
#X connect 11 0 26 0;
#X connect 12 0 13 0;
#X connect 13 0 15 0;
#X connect 13 1 15 0;
#X connect 14 0 12 0;
#X connect 15 0 26 0;
#X connect 16 0 26 0;
#X connect 17 0 18 0;
#X connect 18 0 20 0;
#X connect 18 1 20 0;
#X connect 19 0 17 0;
#X connect 20 0 26 0;
#X connect 22 0 21 0;
#X connect 23 0 26 0;
#X connect 24 0 23 0;
#X connect 25 0 27 0;
#X connect 26 0 25 0;
#X connect 27 0 28 0;
#X connect 28 0 29 0;
#X connect 29 0 30 0;
#X connect 30 0 31 0;
#X connect 31 0 32 0;
#X connect 32 0 33 0;
#X connect 33 0 34 0;
#X connect 34 0 35 0;
#X connect 35 0 36 0;
#X connect 36 0 37 0;
#X connect 37 0 38 0;
#X connect 38 0 39 0;
#X connect 39 0 40 0;
#X connect 40 0 41 0;
#X connect 41 0 42 0;
#X connect 42 0 43 0;
#X connect 43 0 44 0;
#X connect 44 0 45 0;
#X connect 45 0 46 0;
#X connect 46 0 47 0;
#X connect 47 0 48 0;
#X connect 48 0 49 0;
#X connect 49 0 50 0;
#X connect 50 0 51 0;
#X connect 51 0 52 0;
#X connect 52 0 53 0;
#X connect 53 0 54 0;
#X connect 54 0 55 0;
#X connect 55 0 56 0;
#X connect 56 0 57 0;
#X connect 57 0 58 0;
#X connect 58 0 59 0;
#X connect 59 0 60 0;
#X connect 60 0 61 0;
#X connect 61 0 62 0;
#X connect 62 0 63 0;
#X connect 63 0 64 0;
#X connect 64 0 65 0;
#X connect 65 0 66 0;
#X connect 66 0 67 0;
#X connect 67 0 68 0;
#X connect 68 0 69 0;
#X connect 69 0 70 0;
#X connect 70 0 71 0;
#X connect 71 0 72 0;
#X connect 73 0 74 0;
#X connect 74 0 79 0;
#X connect 74 1 79 0;
#X connect 75 0 76 0;
#X connect 76 0 80 0;
#X connect 76 1 80 0;
#X connect 77 0 73 0;
#X connect 78 0 75 0;
#X connect 79 0 26 0;
#X connect 80 0 26 0;
#X connect 81 0 82 0;
#X connect 82 0 90 0;
#X connect 82 1 90 0;
#X connect 83 0 84 0;
#X connect 84 0 91 0;
#X connect 84 1 91 0;
#X connect 85 0 81 0;
#X connect 86 0 83 0;
#X connect 87 0 88 0;
#X connect 88 0 92 0;
#X connect 88 1 92 0;
#X connect 89 0 87 0;
#X connect 90 0 26 0;
#X connect 91 0 26 0;
#X connect 92 0 26 0;
#X connect 93 0 94 0;
#X connect 94 0 96 0;
#X connect 94 1 96 0;
#X connect 95 0 93 0;
#X connect 96 0 26 0;
#X restore 803 309 pd mapped_sample_bank;
#X obj 808 523 list split 2;
#X msg 811 552 \$2 \$1;
#X obj 811 574 list append;
#X obj 811 596 list trim;
#X obj 1025 304 loadbang;
#X obj 809 835 *~;
#X obj 831 802 lop~ 1;
#X obj 836 758 r \$0-vol;
#X obj 836 780 dbtorms;
#X obj 926 833 *~;
#X obj 363 497 splitfilename /;
#X floatatom 182 252 7 9000 196000 0 SampleRate #0-sr-rcv #0-sr, f
7;
#X obj 158 217 bng 20 250 50 0 \$0-add_sample empty ADD 3 10 0 8 -4032
-4032 -4160;
#X text 111 222 SAMPLE;
#X obj 328 765 openpanel;
#X obj 446 912 s \$0-path;
#X obj 469 838 s \$0-filename;
#X obj 368 817 splitfilename /;
#X obj 328 743 r \$0-add_sample;
#X obj 328 787 t b s;
#X obj 278 839 s \$0-append;
#X obj 364 645 symbol;
#X obj 1026 349 s \$0-sr;
#X msg 1026 326 44100;
#X obj 368 847 splitfilename /;
#X obj 482 881 print splitpath;
#X obj 943 220 print path;
#X obj 942 197 r \$0-path;
#N canvas 0 50 832 944 parameters_saving 0;
#X obj 79 33 inlet;
#X msg 291 139 set \$1;
#X obj 276 164 s \$0-index-rcv;
#N canvas 569 71 886 552 gestion 0;
#X msg 386 150 append;
#X obj 342 93 delay 1;
#X obj 327 57 r \$0-append;
#X obj 419 63 r \$0-reset;
#X msg 426 104 reset;
#X obj 283 189 s \$0-subset;
#X obj 520 46 r \$0-update;
#X msg 523 88 update;
#X msg 142 115 next;
#X msg 94 85 prev;
#X obj 93 62 r \$0-prev_file;
#X obj 141 92 r \$0-next_file;
#X obj 62 151 inlet current_index;
#X obj 27 37 r \$0-delete;
#X obj 41 187 f;
#X msg 41 209 delete \$1;
#X obj 488 249 list length;
#X obj 522 197 list trim;
#X obj 522 219 route <subset>;
#X obj 510 168 r \$0-lfilename;
#X obj 342 115 t b b;
#X obj 472 276 f;
#X obj 472 298 - 1;
#X obj 472 320 s \$0-index;
#X text 417 354 placement automatique au dernier élément de la liste
après message append;
#X connect 0 0 5 0;
#X connect 1 0 20 0;
#X connect 2 0 1 0;
#X connect 3 0 4 0;
#X connect 4 0 5 0;
#X connect 6 0 7 0;
#X connect 7 0 5 0;
#X connect 8 0 5 0;
#X connect 9 0 5 0;
#X connect 10 0 9 0;
#X connect 11 0 8 0;
#X connect 12 0 14 1;
#X connect 13 0 14 0;
#X connect 14 0 15 0;
#X connect 15 0 5 0;
#X connect 16 0 21 1;
#X connect 17 0 18 0;
#X connect 18 0 16 0;
#X connect 18 1 16 0;
#X connect 19 0 17 0;
#X connect 20 0 21 0;
#X connect 20 1 0 0;
#X connect 21 0 22 0;
#X connect 22 0 23 0;
#X restore 296 119 pd gestion subset;
#X obj 76 92 u_dispatch \$0 path;
#X obj 76 67 u_dispatch \$0 vol;
#X floatatom 287 195 5 0 0 0 - - -, f 5;
#X obj 77 184 u_parameter_subset \$0 start 0;
#X obj 77 212 u_parameter_subset \$0 end 1;
#X obj 83 331 u_parameter_subset \$0 gain 1;
#X obj 83 301 u_parameter_subset \$0 reverse 0;
#X obj 81 275 u_parameter_subset \$0 playmode 0;
#X obj 77 253 u_parameter_subset \$0 sr 44100;
#X obj 81 363 u_parameter_subset \$0 root_key 0;
#X obj 81 383 u_parameter_subset \$0 low_key 1;
#X obj 78 403 u_parameter_subset \$0 high_key 0;
#X obj 76 116 u_subset \$0 filename <no_file>;
#X connect 0 0 5 0;
#X connect 1 0 2 0;
#X connect 4 0 16 0;
#X connect 5 0 4 0;
#X connect 7 0 8 0;
#X connect 7 1 6 0;
#X connect 8 0 12 0;
#X connect 9 0 13 0;
#X connect 10 0 9 0;
#X connect 11 0 10 0;
#X connect 12 0 11 0;
#X connect 13 0 14 0;
#X connect 14 0 15 0;
#X connect 16 0 7 0;
#X connect 16 1 1 0;
#X connect 16 1 3 0;
#X restore 1287 302 pd parameters_saving;
#X obj 390 173 ui_multitab \$0;
#X obj 234 355 tgl 14 0 \$0-learn_low \$0-learn_low-rcv empty 17 7
0 10 -262144 -1 -1 0 1;
#X obj 234 340 tgl 14 0 \$0-learn_root \$0-learn_root-rcv empty -10
-6 0 10 -262144 -1 -1 0 1;
#X obj 234 325 tgl 14 0 \$0-learn_high \$0-learn_high-rcv learn -10
-6 0 10 -262144 -1 -1 0 1;
#N canvas 512 50 776 443 learn_keys 0;
#X obj 51 15 inlet;
#X obj 62 161 spigot;
#X obj 101 135 r \$0-learn_root;
#X obj 51 37 unpack f f;
#X obj 51 59 spigot;
#X obj 63 181 t f b;
#X msg 93 207 0;
#X obj 93 229 s \$0-learn_root-rcv;
#X obj 59 266 s \$0-root_key-rcv;
#X obj 272 161 spigot;
#X obj 273 181 t f b;
#X msg 303 207 0;
#X obj 532 161 spigot;
#X obj 533 181 t f b;
#X msg 563 207 0;
#X obj 311 135 r \$0-learn_low;
#X obj 571 135 r \$0-learn_high;
#X obj 303 229 s \$0-learn_low-rcv;
#X obj 269 266 s \$0-low_key-rcv;
#X obj 529 266 s \$0-high_key-rcv;
#X obj 563 229 s \$0-learn_high-rcv;
#X obj 36 341 spigot;
#X obj 36 363 t b b;
#X msg 106 381 0;
#X obj 53 84 t b f f f, f 30;
#X msg 129 312 1;
#X obj 36 385 delay 10;
#X obj 36 407 s \$0-update;
#X connect 0 0 3 0;
#X connect 1 0 5 0;
#X connect 2 0 1 1;
#X connect 3 0 4 0;
#X connect 3 1 4 1;
#X connect 4 0 24 0;
#X connect 5 0 8 0;
#X connect 5 1 6 0;
#X connect 5 1 25 0;
#X connect 6 0 7 0;
#X connect 9 0 10 0;
#X connect 10 0 18 0;
#X connect 10 1 11 0;
#X connect 10 1 25 0;
#X connect 11 0 17 0;
#X connect 12 0 13 0;
#X connect 13 0 19 0;
#X connect 13 1 14 0;
#X connect 13 1 25 0;
#X connect 14 0 20 0;
#X connect 15 0 9 1;
#X connect 16 0 12 1;
#X connect 21 0 22 0;
#X connect 22 0 26 0;
#X connect 22 1 23 0;
#X connect 23 0 21 1;
#X connect 24 0 21 0;
#X connect 24 1 1 0;
#X connect 24 2 9 0;
#X connect 24 3 12 0;
#X connect 25 0 21 1;
#X connect 26 0 27 0;
#X restore 674 299 pd learn_keys;
#X obj 180 217 bng 20 250 50 0 empty empty &MAP 0 10 0 8 -4160 -4160
-204800;
#X obj 103 313 cnv 12 1 1 empty \$0-samplename-rcv PantinFluteSlap.wav
2 6 0 10 -262144 -66577 0;
#X obj 100 416 cnv 12 1 1 empty \$0-samplename-rcv PantinFluteSlap.wav
2 6 0 10 -262144 -66577 0;
#N canvas 1 56 450 300 enable_micro_intervals 0;
#X obj 46 43 inlet;
#X obj 49 232 outlet;
#X obj 39 95 list split 1;
#X obj 39 117 * 100;
#X obj 39 139 int;
#X obj 39 161 list append;
#X connect 0 0 2 0;
#X connect 2 0 3 0;
#X connect 2 1 5 1;
#X connect 3 0 4 0;
#X connect 4 0 5 0;
#X connect 5 0 1 0;
#X restore 803 471 pd enable_micro_intervals;
#X msg 980 682 \$1 stop;
#X obj 809 622 route remove add;
#X obj 810 728 clone -x -s 1 16 inst_pcm/pcm_player \$0;
#X obj 1027 786 s \$1-inst_pcm_noteoff;
#X obj 1027 761 delay 1;
#X obj 808 494 fid_abs_vanilia-0.4/fid_multiplex 16 1;
#X obj 392 193 namecanvas \$0-multitab;
#X obj 341 526 splitfilename /;
#X obj 1321 99 namecanvas \$0-this;
#X obj 1319 76 triggered_loadbang \$0-this;
#X text 1314 26 manually trigger loadbang if the instance of abstraction
is created dynamically, f 29;
#X obj 1403 239 savestate;
#X obj 138 692 s \$0-update;
#X obj 142 670 delay 100;
#X obj 141 641 t b;
#X text 217 423 1-shot;
#X text 218 435 loop;
#X obj 213 448 cnv 12 40 22 empty empty empty 20 12 0 14 -4032 -66577
0;
#X obj 205 415 vradio 11 1 0 5 \$0-playmode \$0-playmode-rcv empty
0 -8 0 10 -262144 -1 -1 1;
#X text 218 444 .sync;
#X text 218 454 .fill;
#X text 217 413 normal;
#X obj 253 442 tgl 15 0 \$0-reverse \$0-reverse-rcv REVERSE 1 7 0 8
-262130 -1 -1 0 1;
#X text 127 423 play_mode ->;
#X obj 234 236 vsl 25 30 0.01 10 1 0 \$0-gain \$0-gain-rcv empty 0
-9 0 10 -262144 -1 -1 0 1;
#X msg 260 252 1;
#X obj 260 253 bng 15 250 50 0 empty empty '1 -2 7 0 10 -232576 -232576
-1;
#X text 258 236 gain;
#N canvas 0 50 1200 1022 compute_parameters 0;
#X obj 298 446 pack f f;
#X msg 298 469 \$1 sr \$2;
#X obj 101 320 dbtorms;
#X obj 102 296 / 1.27;
#X obj 95 144 unpack f f f s f f f f f f f, f 35;
#X obj 101 342 *;
#X obj 347 26 r \$0-pitch_bend;
#X obj 348 53 mtof;
#X obj 348 75 / 8.175;
#X obj 149 278 * 1;
#X text 364 5 -12 : 12;
#X obj 149 336 * 1;
#X obj 281 270 * -2;
#X obj 281 292 + 1;
#X obj 244 308 /;
#X obj 244 330 * 1000;
#X obj 235 285 swap;
#X obj 182 391 *;
#X obj 182 370 /;
#X obj 182 416 * 1;
#X obj 215 373 -;
#X text 286 329 <-duree totale sample ms;
#X msg 182 351 1 \$1;
#X text 319 147 \$1 velocity(0-127) \; \$2 nom_midi_note \; \$3 pitch(normal=1)
\; \$4 wavtable_name \; \$5 sample_rate \; \$6 samplelength(samples)
\; \$7 startpoint(0-1) \; \$8 endpoint(0-1) \; \$9 play_mode \; \$10
reverse \; \$11 gain;
#X obj 215 395 * -1;
#X text 17 417 duree reelle de jeu(ms) ->;
#X obj 491 333 == 0;
#X obj 444 360 spigot 1;
#X obj 508 362 spigot;
#X obj 490 310 t f f;
#X text 551 360 reversemode;
#X obj 293 396 *;
#X text 324 416 <- point de depart de lecture;
#X obj 104 456 pack f f f s f f f;
#X msg 104 480 \$2 \$4 \$1 \$3 \$5 \$6 \$7;
#X obj 93 92 inlet;
#X obj 104 500 outlet;
#X obj 299 499 outlet;
#X floatatom 182 279 7 0 0 0 - - -, f 7;
#X floatatom 303 353 5 0 0 0 - - -, f 5;
#X floatatom 293 418 5 0 0 0 - - -, f 5;
#X floatatom 182 438 5 0 0 0 - - -, f 5;
#X floatatom 215 417 5 0 0 0 - - -, f 5;
#X floatatom 348 97 5 0 0 0 - - -, f 5;
#X obj 336 116 r \$0-reverse;
#X obj 282 178 +;
#X obj 283 225 mod 2;
#X connect 0 0 1 0;
#X connect 1 0 37 0;
#X connect 2 0 5 0;
#X connect 3 0 2 0;
#X connect 4 0 3 0;
#X connect 4 1 0 0;
#X connect 4 1 33 1;
#X connect 4 2 9 0;
#X connect 4 3 33 3;
#X connect 4 4 0 1;
#X connect 4 4 16 0;
#X connect 4 4 38 0;
#X connect 4 5 16 1;
#X connect 4 6 20 0;
#X connect 4 6 27 0;
#X connect 4 7 20 1;
#X connect 4 7 28 0;
#X connect 4 8 33 6;
#X connect 4 9 45 0;
#X connect 4 10 5 1;
#X connect 5 0 33 0;
#X connect 6 0 7 0;
#X connect 7 0 8 0;
#X connect 8 0 9 1;
#X connect 8 0 43 0;
#X connect 9 0 11 0;
#X connect 9 0 22 0;
#X connect 11 0 33 2;
#X connect 12 0 13 0;
#X connect 13 0 11 1;
#X connect 14 0 15 0;
#X connect 15 0 17 1;
#X connect 15 0 31 0;
#X connect 15 0 39 0;
#X connect 16 0 14 0;
#X connect 16 1 14 1;
#X connect 17 0 19 0;
#X connect 18 0 17 0;
#X connect 19 0 33 5;
#X connect 19 0 41 0;
#X connect 20 0 24 0;
#X connect 22 0 18 0;
#X connect 24 0 19 1;
#X connect 24 0 42 0;
#X connect 26 0 27 1;
#X connect 27 0 31 1;
#X connect 28 0 31 1;
#X connect 29 0 26 0;
#X connect 29 1 28 1;
#X connect 31 0 33 4;
#X connect 31 0 40 0;
#X connect 33 0 34 0;
#X connect 34 0 36 0;
#X connect 35 0 4 0;
#X connect 44 0 45 1;
#X connect 45 0 46 0;
#X connect 46 0 12 0;
#X connect 46 0 29 0;
#X restore 808 673 pd compute_parameters;
#X text 1181 785 <- ajout pour une installation;
#N canvas 965 730 450 300 Add_sample_and_keymap 0;
#X obj 74 10 inlet;
#X obj 248 225 s \$0-learn_root-rcv;
#X obj 238 245 s \$0-learn_high-rcv;
#X obj 276 65 t b b b;
#X msg 184 264 2;
#X obj 97 313 s \$0-guitab-rcv;
#X msg 131 145 1;
#X obj 59 182 r \$0-update;
#X obj 59 204 delay 10;
#X msg 59 226 1;
#X obj 140 73 r \$0-append;
#X obj 141 97 spigot;
#X msg 276 112 1;
#X obj 141 119 t b b b;
#X msg 316 124 0;
#X obj 99 267 spigot;
#X obj 276 90 s \$0-add_sample;
#X obj 99 289 t f b;
#X msg 153 268 0;
#X obj 313 156 delay 20000;
#X msg 260 180 stop;
#X obj 228 265 s \$0-learn_low-rcv;
#X connect 0 0 3 0;
#X connect 3 0 12 0;
#X connect 3 1 19 0;
#X connect 3 2 16 0;
#X connect 4 0 5 0;
#X connect 6 0 15 1;
#X connect 6 0 1 0;
#X connect 6 0 2 0;
#X connect 6 0 21 0;
#X connect 7 0 8 0;
#X connect 8 0 9 0;
#X connect 9 0 15 0;
#X connect 10 0 11 0;
#X connect 11 0 13 0;
#X connect 12 0 11 1;
#X connect 13 0 6 0;
#X connect 13 1 4 0;
#X connect 13 2 14 0;
#X connect 13 2 20 0;
#X connect 14 0 11 1;
#X connect 15 0 17 0;
#X connect 17 0 5 0;
#X connect 17 1 18 0;
#X connect 18 0 15 1;
#X connect 19 0 14 0;
#X connect 20 0 19 0;
#X restore 375 270 pd Add_sample_and_keymap;
#X text 396 303 gui;
#X text 383 402 gui interaction;
#X text 397 247 gui interaction;
#X text 409 151 gui interaction;
#X text 373 604 gui_interaction;
#X obj 133 770 r \$0-end;
#X obj 106 792 moses;
#X obj 132 812 s \$0-end-rcv;
#X obj 90 874 moses;
#X obj 120 851 r \$0-start;
#X obj 90 897 s \$0-start-rcv;
#X obj 832 286 s \$0-pitch_bend;
#X msg 1040 676 all fade 5;
#X obj 1042 629 loadbang;
#X obj 965 286 s \$0-loop_factor;
#X obj 1116 316 s \$0-reverse;
#X obj 803 364 list prepend 0;
#X obj 803 390 route 0 1;
#X obj 1109 280 list split 2;
#X obj 838 444 s;
#X msg 904 334 0;
#X obj 970 371 t b s;
#X msg 970 393 1;
#X obj 835 416 t a b;
#X obj 755 257 route note pitch_bend aftertouch loop_factor reverse
get_mapping, f 71;
#X text 1088 186 get_mapping <note> <velocity> <target>;
#X text 483 417 CHANGE button;
#X text 520 250 (add)&MAP button;
#X obj 568 65 symbol;
#X msg 569 113 \$1/\$2;
#X obj 569 89 list prepend ../../medias/sounds/soundfonts;
#X obj 580 375 pdcontrol;
#X msg 577 355 dir 999;
#X msg 504 436 symbol \$1/../externals/pdr/medias/sounds/soundfonts
;
#X msg 517 485 symbol ../externals/pdr/medias/sounds/soundfonts;
#X obj 954 8 declare -path ../../../core;
#X obj 954 28 declare -path ../../../core/stuff;
#X obj 954 48 declare -path ../../../core/rj;
#X connect 1 0 2 0;
#X connect 2 0 3 0;
#X connect 6 0 8 0;
#X connect 7 0 9 0;
#X connect 10 0 11 0;
#X connect 10 0 160 0;
#X connect 12 0 95 0;
#X connect 12 1 116 0;
#X connect 22 0 119 0;
#X connect 22 0 142 0;
#X connect 23 0 119 0;
#X connect 23 0 144 0;
#X connect 29 0 31 0;
#X connect 31 0 30 0;
#X connect 36 0 170 0;
#X connect 37 0 77 0;
#X connect 40 0 42 0;
#X connect 41 0 88 0;
#X connect 66 0 152 0;
#X connect 67 0 68 0;
#X connect 67 1 69 1;
#X connect 68 0 69 0;
#X connect 69 0 70 0;
#X connect 70 0 106 0;
#X connect 71 0 90 0;
#X connect 72 0 8 0;
#X connect 73 0 72 1;
#X connect 73 0 76 1;
#X connect 74 0 75 0;
#X connect 75 0 73 0;
#X connect 76 0 9 0;
#X connect 77 0 112 0;
#X connect 77 1 39 0;
#X connect 81 0 86 0;
#X connect 84 0 91 0;
#X connect 84 1 83 0;
#X connect 85 0 81 0;
#X connect 86 0 87 0;
#X connect 86 1 84 0;
#X connect 88 0 40 0;
#X connect 90 0 89 0;
#X connect 91 1 82 0;
#X connect 91 1 92 0;
#X connect 94 0 93 0;
#X connect 101 0 135 0;
#X connect 104 0 110 0;
#X connect 105 0 107 1;
#X connect 106 0 105 0;
#X connect 106 2 133 0;
#X connect 107 0 72 0;
#X connect 107 1 76 0;
#X connect 107 2 109 0;
#X connect 109 0 108 0;
#X connect 110 0 67 0;
#X connect 112 1 38 0;
#X connect 116 0 12 1;
#X connect 116 1 12 2;
#X connect 118 0 117 0;
#X connect 119 0 118 0;
#X connect 123 0 119 0;
#X connect 127 0 119 0;
#X connect 129 0 119 0;
#X connect 130 0 129 0;
#X connect 131 0 130 0;
#X connect 133 0 107 0;
#X connect 133 1 107 1;
#X connect 141 0 142 1;
#X connect 142 1 143 0;
#X connect 144 0 146 0;
#X connect 145 0 144 1;
#X connect 148 0 107 1;
#X connect 149 0 148 0;
#X connect 152 0 153 0;
#X connect 153 0 104 0;
#X connect 153 1 159 0;
#X connect 154 0 66 0;
#X connect 154 1 157 0;
#X connect 156 0 152 1;
#X connect 157 0 158 0;
#X connect 157 1 155 1;
#X connect 158 0 152 1;
#X connect 159 0 155 0;
#X connect 159 1 156 0;
#X connect 160 0 100 0;
#X connect 160 0 66 0;
#X connect 160 1 147 0;
#X connect 160 3 150 0;
#X connect 160 4 151 0;
#X connect 160 5 154 0;
#X connect 164 0 166 0;
#X connect 166 0 165 0;
#X connect 167 0 169 0;
#X connect 168 0 167 0;
#X connect 169 0 37 0;
#X connect 170 0 37 0;
#X coords 0 0 190 70 190 70 2 100 100;
