#N canvas 0 57 1920 1023 10;
#X obj 135 42 inlet;
#X obj 275 42 inlet;
#X obj 135 490 outlet~;
#X obj 205 491 outlet~;
#X obj 276 491 outlet;
#X msg 351 271 0;
#X obj 394 321 switch~;
#X msg 394 223 1;
#X msg 347 225 stop;
#X obj 347 248 delay 2;
#X obj 135 360 pdr/core/rj/s_playtable2;
#X obj 169 242 unpack f;
#X text 180 264 playmode;
#X obj 487 138 list prepend 0;
#X obj 487 161 route 0 2 3 4;
#X obj 487 184 t b b;
#X msg 275 139 fade \$1;
#X msg 307 337 stop;
#X obj 169 285 s \$0-playmode;
#X obj 566 104 r \$0-playmode;
#X obj 308 371 r \$0-playmode;
#X obj 276 399 f;
#X obj 38 123 r \$0-loop;
#X obj 322 470 s \$0-loop;
#X obj 276 423 select 0 1 2;
#X floatatom 264 253 5 0 0 0 - - -;
#X obj 135 212 list split 5;
#X obj 322 446 delay 1;
#X obj 367 199 t b b;
#X obj 276 455 t b b;
#X obj 53 249 list append;
#X obj 45 287 list split 4;
#X obj 84 318 * 1;
#X obj 619 327 r \$1-loop_factor;
#X obj 47 354 list append;
#X obj 275 89 route fade stop sr;
#X msg 343 141 sr \$1;
#X connect 0 0 26 0;
#X connect 0 0 28 0;
#X connect 1 0 35 0;
#X connect 5 0 6 0;
#X connect 7 0 6 0;
#X connect 8 0 9 0;
#X connect 9 0 5 0;
#X connect 10 0 2 0;
#X connect 10 1 3 0;
#X connect 10 2 21 0;
#X connect 11 0 18 0;
#X connect 11 0 25 0;
#X connect 13 0 14 0;
#X connect 14 0 15 0;
#X connect 14 1 15 0;
#X connect 15 0 9 0;
#X connect 15 1 17 0;
#X connect 16 0 10 1;
#X connect 17 0 10 1;
#X connect 19 0 13 1;
#X connect 20 0 21 1;
#X connect 21 0 24 0;
#X connect 22 0 30 0;
#X connect 24 0 29 0;
#X connect 24 1 29 0;
#X connect 24 2 27 0;
#X connect 26 0 10 0;
#X connect 26 0 30 1;
#X connect 26 1 11 0;
#X connect 27 0 23 0;
#X connect 28 0 8 0;
#X connect 28 1 7 0;
#X connect 29 0 4 0;
#X connect 29 1 9 0;
#X connect 30 0 31 0;
#X connect 31 0 34 0;
#X connect 31 1 32 0;
#X connect 32 0 34 1;
#X connect 33 0 32 1;
#X connect 34 0 10 0;
#X connect 35 0 9 1;
#X connect 35 0 16 0;
#X connect 35 1 13 0;
#X connect 35 2 36 0;
#X connect 36 0 10 1;
