#N struct rectangle float x float y float width float height;
#N canvas 0 58 1920 1023 12;
#X declare -path ../../../core;
#X declare -path ../../../core/rj;
#X declare -path ../../../core/stuff;
#X declare -path ./audio_clip;
#X declare -path ./audio_clip/pdr_light;
#N canvas 172 83 586 377 LICENSE-GPL 0;
#X text 57 88 This program is free software: you can redistribute it
and/or modify it under the terms of the GNU General Public License
as published by the Free Software Foundation \, either version 3 of
the License \, or (at your option) any later version.;
#X text 58 168 This program is distributed in the hope that it will
be useful \, but WITHOUT ANY WARRANTY \; without even the implied warranty
of MERCHANTABILITY or FITNESS FOR A PARTICULAR PURPOSE. See the GNU
General Public License for more details.;
#X text 57 261 You should have received a copy of the GNU General Public
License along with this program. If not \, see <http://www.gnu.org/licenses/>.
;
#X text 61 54 Copyright (C) 2009 \, Reality Jockey Ltd.;
#X text 60 325 See the file LICENSE.txt for the full license text.
;
#X restore 298 15 pd LICENSE-GPL;
#X obj 315 236 inlet~;
#X obj 371 237 inlet~;
#X obj 370 577 outlet~;
#X obj 316 576 outlet~;
#X obj 589 215 inlet data;
#X obj 1320 789 outlet data;
#X obj 1041 279 namecanvas \$0-this;
#X obj 1039 256 triggered_loadbang \$0-this;
#X text 1034 206 manually trigger loadbang if the instance of abstraction
is created dynamically, f 29;
#X obj 718 396 savestate;
#X obj 592 418 module_loader audio_clip \$0 \$1;
#X obj 922 75 s \$0-clip1-rcv;
#X msg 812 93 label [];
#X obj 932 95 s \$0-clip2-rcv;
#X obj 942 115 s \$0-clip3-rcv;
#X msg 808 60 label [>;
#X obj 592 398 tgl 15 0 empty empty empty 17 7 0 10 -262144 -1 -1 1
1;
#X text 614 387 MASTER;
#N canvas 0 57 1920 1023 slave_send/receive 0;
#X obj 75 23 inlet send;
#X obj 72 667 outlet receive;
#X obj 892 866 outlet data;
#X obj 223 38 inlet data;
#X obj 442 376 r \$0-clipmaster;
#X obj 225 95 route clipmaster;
#X obj 225 126 symbol;
#X msg 225 349 clipmaster \$1;
#X obj 257 313 symbol \$0-clipmaster;
#X obj 257 217 loadbang;
#X obj 257 256 delay 2000;
#X obj 257 279 t b b;
#X obj 62 275 s;
#X obj 225 152 t s s b;
#X msg 328 205 4000;
#X msg 331 281 2000;
#X msg 525 177 1, f 15;
#X msg 300 127 0;
#X obj 59 135 list prepend \$0;
#X obj 539 240 outlet status;
#X obj 121 612 list prepend all;
#X obj 121 635 list trim;
#X obj 96 324 route 1 2 3;
#X obj 23 88 list split 1;
#X obj 75 46 t l l;
#X obj 95 409 list prepend 1;
#X obj 33 358 list prepend 2;
#X obj 55 385 list prepend 3;
#X obj 42 169 list prepend to_clip_units;
#X obj 42 192 list trim;
#X obj 132 496 route \$0;
#X obj 160 566 list split 1;
#X obj 293 725 - 3;
#X obj 223 694 moses 4;
#X msg 293 748 launch \$1;
#X msg 203 738 \$1 launch;
#X obj 142 461 route to_clip_units launch stop;
#X obj 275 536 route all;
#X msg 251 586 stop;
#X msg 296 575 stop all;
#X obj 300 633 moses 4;
#X msg 287 673 \$1 stop;
#X obj 357 671 - 1;
#X msg 357 694 stop \$1;
#X obj 172 531 t a a;
#X obj 50 793 list prepend to_clip_units;
#X obj 50 818 list trim;
#X obj 63 226 t a a;
#X obj 440 882 outlet module_loader;
#X connect 0 0 24 0;
#X connect 3 0 5 0;
#X connect 4 0 2 0;
#X connect 4 0 36 0;
#X connect 5 0 6 0;
#X connect 5 1 36 0;
#X connect 6 0 13 0;
#X connect 7 0 2 0;
#X connect 8 0 7 0;
#X connect 8 0 12 1;
#X connect 9 0 10 0;
#X connect 10 0 11 0;
#X connect 11 0 8 0;
#X connect 11 1 15 0;
#X connect 11 1 16 0;
#X connect 13 0 7 0;
#X connect 13 1 12 1;
#X connect 13 2 14 0;
#X connect 13 2 17 0;
#X connect 14 0 10 0;
#X connect 15 0 10 0;
#X connect 16 0 19 0;
#X connect 17 0 19 0;
#X connect 18 0 28 0;
#X connect 20 0 21 0;
#X connect 21 0 1 0;
#X connect 22 0 26 0;
#X connect 22 0 27 0;
#X connect 22 1 27 0;
#X connect 22 1 25 0;
#X connect 22 2 26 0;
#X connect 22 2 25 0;
#X connect 23 1 18 0;
#X connect 24 0 23 0;
#X connect 24 1 22 0;
#X connect 25 0 1 0;
#X connect 26 0 1 0;
#X connect 27 0 1 0;
#X connect 28 0 29 0;
#X connect 29 0 47 0;
#X connect 30 1 44 0;
#X connect 31 1 20 0;
#X connect 32 0 34 0;
#X connect 33 0 35 0;
#X connect 33 1 32 0;
#X connect 34 0 2 0;
#X connect 35 0 1 0;
#X connect 36 0 30 0;
#X connect 36 1 33 0;
#X connect 36 2 37 0;
#X connect 36 3 48 0;
#X connect 37 0 38 0;
#X connect 37 0 39 0;
#X connect 37 1 40 0;
#X connect 38 0 20 0;
#X connect 39 0 2 0;
#X connect 40 0 41 0;
#X connect 40 1 42 0;
#X connect 41 0 1 0;
#X connect 42 0 43 0;
#X connect 43 0 2 0;
#X connect 44 0 45 0;
#X connect 44 1 31 0;
#X connect 45 0 46 0;
#X connect 46 0 2 0;
#X connect 47 0 12 0;
#X connect 47 1 2 0;
#X restore 452 324 pd slave_send/receive;
#X msg 895 19 label ||;
#X obj 743 193 r CLOCK;
#X obj 743 216 s \$0-clock;
#X obj 833 198 r STOP;
#X obj 833 221 s \$0-stop;
#X floatatom -274 28 5 0 0 0 - - -;
#X floatatom -274 50 5 0 0 0 - - -;
#X obj 592 510 u_parameter \$0 clip1_bpm;
#X obj 592 530 u_parameter \$0 clip2_bpm;
#X obj 592 550 u_parameter \$0 clip3_bpm;
#X obj 593 570 u_parameter \$0 clip1_loop;
#X obj 592 590 u_parameter \$0 clip2_loop;
#X obj 592 610 u_parameter \$0 clip3_loop;
#X obj 590 446 u_dispatch \$0 clip1_file;
#X obj 590 467 u_dispatch \$0 clip2_file;
#X obj 590 488 u_dispatch \$0 clip3_file;
#X obj 594 631 u_parameter \$0 clip1_algorithm;
#X obj 593 651 u_parameter \$0 clip2_algorithm;
#X obj 593 671 u_parameter \$0 clip3_algorithm;
#X obj 787 522 u_parameter \$0 clip1_loop;
#X obj 786 542 u_parameter \$0 clip2_loop;
#X obj 787 560 u_parameter \$0 clip3_loop;
#X text 29 192 popup editing windows;
#X msg 257 271 vis 2 1;
#X obj 797 602 u_parameter \$0 clip1_preroll;
#X obj 798 622 u_parameter \$0 clip2_preroll;
#X obj 819 653 u_parameter \$0 clip3_preroll;
#X obj 784 456 u_parameter \$0 clip1_quant;
#X obj 783 476 u_parameter \$0 clip2_quant;
#X obj 784 494 u_parameter \$0 clip3_quant;
#X obj 424 34 declare -path ../../../core;
#X obj 424 64 declare -path ../../../core/rj;
#X obj 424 94 declare -path ../../../core/stuff;
#X obj 424 125 declare -path ./audio_clip;
#X obj 423 150 declare -path ./audio_clip/pdr_light;
#N canvas 235 333 533 448 \$0-clip-1_edit 0;
#X obj 2 2 clip_settings_gui 1 \$0;
#X obj 400 73 help;
#X restore 39 225 pd \$0-clip-1_edit;
#N canvas 274 351 520 436 \$0-clip-2_edit 0;
#X obj 2 3 clip_settings_gui 2 \$0;
#X obj 400 73 help;
#X restore 39 245 pd \$0-clip-2_edit;
#N canvas 312 396 516 436 \$0-clip-3_edit 0;
#X obj 3 3 clip_settings_gui 3 \$0;
#X obj 400 73 help;
#X restore 39 265 pd \$0-clip-3_edit;
#X obj 1000 453 u_parameter \$0 clip1_from;
#X obj 1000 483 u_parameter \$0 clip2_from;
#X obj 1000 513 u_parameter \$0 clip3_from;
#X obj 1000 543 u_parameter \$0 clip1_to;
#X obj 1000 573 u_parameter \$0 clip2_to;
#X obj 1000 603 u_parameter \$0 clip3_to;
#X obj 1019 663 u_parameter \$0 clip1_snap_from;
#X obj 1019 723 u_parameter \$0 clip2_snap_from;
#X obj 1019 783 u_parameter \$0 clip3_snap_from;
#X obj 1019 693 u_parameter \$0 clip1_snap_to;
#X obj 1019 753 u_parameter \$0 clip2_snap_to;
#X obj 1019 813 u_parameter \$0 clip3_snap_to;
#X obj 1019 838 u_parameter \$0 clip1_pvoclock;
#X obj 1019 868 u_parameter \$0 clip2_pvoclock;
#X obj 1025 893 u_parameter \$0 clip3_pvoclock;
#X obj 1296 672 u_parameter \$0 clip1_gain;
#X obj 1296 702 u_parameter \$0 clip2_gain;
#X obj 1296 732 u_parameter \$0 clip3_gain;
#N canvas 0 50 840 531 clone 0;
#X obj 109 31 inlet;
#X obj 69 392 outlet~;
#X obj 175 387 outlet~;
#X obj 311 392 outlet;
#X obj 123 149 clip_unit2 1 \$0;
#X obj 133 179 clip_unit2 2 \$0;
#X obj 164 217 clip_unit2 3 \$0;
#X obj 365 260 list prepend 1;
#X obj 385 291 list prepend 2;
#X obj 405 320 list prepend 3;
#X text 398 79 workaround because pdcontrol [dir \$1( msg doesn't work
properly within clone;
#X obj 111 67 route all;
#X obj 114 103 route 1 2 3;
#X connect 0 0 11 0;
#X connect 4 0 1 0;
#X connect 4 1 2 0;
#X connect 4 2 7 0;
#X connect 5 0 1 0;
#X connect 5 1 2 0;
#X connect 5 2 8 0;
#X connect 6 0 1 0;
#X connect 6 1 2 0;
#X connect 6 2 9 0;
#X connect 7 0 3 0;
#X connect 8 0 3 0;
#X connect 9 0 3 0;
#X connect 11 0 4 0;
#X connect 11 0 6 0;
#X connect 11 0 5 0;
#X connect 11 1 12 0;
#X connect 12 0 4 0;
#X connect 12 1 5 0;
#X connect 12 2 6 0;
#X restore 340 390 pd clone -s 1 clip_unit2 3 \$0;
#X msg 210 367 all stop;
#N canvas 786 194 969 856 dnd 0;
#X obj 38 389 route bang;
#X obj 136 416 s \$0-clip1_file;
#X obj 34 414 s \$0-hsl1-rcv;
#X obj 200 200 dnd/gui 100 20 2;
#X obj 200 224 dnd/gui 100 20 2;
#X obj 200 247 dnd/gui 100 20 2;
#X obj 38 449 route bang;
#X obj 38 509 route bang;
#X obj 34 474 s \$0-hsl2-rcv;
#X obj 136 476 s \$0-clip2_file;
#X obj 34 534 s \$0-hsl3-rcv;
#X obj 136 536 s \$0-clip3_file;
#X obj 315 545 s PDR_LASTEST_FILENAME;
#X obj 17 40 r \$0-clip1_file;
#X obj 17 100 r \$0-clip2_file;
#X obj 17 160 r \$0-clip3_file;
#X obj 307 39 r \$0-ID;
#X msg 305 79 audio_clip dump audio_clip-\$1 clip1_;
#X msg 345 159 audio_clip dump audio_clip-\$1 clip3_;
#X msg 325 119 audio_clip dump audio_clip-\$1 clip2_;
#X text 362 188 source_type command target unit;
#N canvas 0 50 768 747 dump_to_unit1 0;
#X obj 74 36 inlet;
#X obj 74 73 list trim;
#X obj 74 234 t b s b;
#X obj 73 268 symbol \$0-dump1;
#X obj 238 287 list fromsymbol;
#X obj 240 319 list split 6;
#X obj 164 382 list tosymbol;
#X obj 300 374 list tosymbol;
#X obj 78 333 s;
#X msg 73 293 dump \$1;
#X obj 244 220 r \$0-dump1;
#X obj 74 209 symbol;
#X obj 74 104 route audio_clip;
#X obj 74 136 route dump;
#X text 209 104 source type;
#X obj 74 172 list split 1;
#X obj 168 413 list append;
#X obj 244 245 list split 1;
#X text -44 293 dump <callback>;
#X text 250 198 callback;
#X obj 209 588 list append;
#X text 210 136 command;
#X obj 305 428 symbol;
#X obj 194 459 route bla;
#X obj 181 436 list trim;
#X text 432 216 r \$0-dump2;
#X text 573 219 r \$0-dump3;
#X msg 443 514 clip2_\$1;
#X msg 577 515 clip3_\$1;
#X text 415 22 dump_to_unit2;
#X text 566 20 dump_to_unit3;
#X text 349 218 -->;
#X text 349 518 -->;
#X obj 200 551 t b s;
#X obj 193 486 list append \$0;
#X msg 192 514 symbol \$2-clip1_\$1;
#X obj 199 634 s;
#X connect 0 0 1 0;
#X connect 1 0 12 0;
#X connect 2 0 3 0;
#X connect 2 1 8 1;
#X connect 3 0 9 0;
#X connect 4 0 5 0;
#X connect 5 0 6 0;
#X connect 5 1 7 0;
#X connect 6 0 16 0;
#X connect 7 0 16 1;
#X connect 9 0 8 0;
#X connect 10 0 17 0;
#X connect 11 0 2 0;
#X connect 12 0 13 0;
#X connect 13 0 15 0;
#X connect 15 0 11 0;
#X connect 15 1 22 0;
#X connect 16 0 24 0;
#X connect 17 0 4 0;
#X connect 17 1 20 1;
#X connect 20 0 36 0;
#X connect 22 0 23 1;
#X connect 23 0 34 0;
#X connect 24 0 23 0;
#X connect 33 0 20 0;
#X connect 33 1 36 1;
#X connect 34 0 35 0;
#X connect 35 0 33 0;
#X restore 483 265 pd dump_to_unit1;
#X obj 594 574 outlet;
#N canvas 427 45 768 747 dump_to_unit2 0;
#X obj 74 36 inlet;
#X obj 74 73 list trim;
#X obj 74 234 t b s b;
#X obj 238 287 list fromsymbol;
#X obj 240 319 list split 6;
#X obj 164 382 list tosymbol;
#X obj 300 374 list tosymbol;
#X obj 78 333 s;
#X msg 73 293 dump \$1;
#X obj 74 209 symbol;
#X obj 74 104 route audio_clip;
#X obj 74 136 route dump;
#X text 209 104 source type;
#X obj 74 172 list split 1;
#X obj 168 413 list append;
#X obj 244 245 list split 1;
#X text -44 293 dump <callback>;
#X text 250 198 callback;
#X obj 195 587 list append;
#X text 210 136 command;
#X obj 305 428 symbol;
#X obj 194 459 route bla;
#X obj 181 436 list trim;
#X obj 244 220 r \$0-dump2;
#X obj 73 268 symbol \$0-dump2;
#X obj 193 486 list append \$0;
#X msg 192 514 symbol \$2-clip2_\$1;
#X obj 197 619 s;
#X obj 193 550 t b s;
#X connect 0 0 1 0;
#X connect 1 0 10 0;
#X connect 2 0 24 0;
#X connect 2 1 7 1;
#X connect 3 0 4 0;
#X connect 4 0 5 0;
#X connect 4 1 6 0;
#X connect 5 0 14 0;
#X connect 6 0 14 1;
#X connect 8 0 7 0;
#X connect 9 0 2 0;
#X connect 10 0 11 0;
#X connect 11 0 13 0;
#X connect 13 0 9 0;
#X connect 13 1 20 0;
#X connect 14 0 22 0;
#X connect 15 0 3 0;
#X connect 15 1 18 1;
#X connect 18 0 27 0;
#X connect 20 0 21 1;
#X connect 21 0 25 0;
#X connect 22 0 21 0;
#X connect 23 0 15 0;
#X connect 24 0 8 0;
#X connect 25 0 26 0;
#X connect 26 0 28 0;
#X connect 28 0 18 0;
#X connect 28 1 27 1;
#X restore 483 295 pd dump_to_unit2;
#N canvas 921 58 768 747 dump_to_unit3 0;
#X obj 74 36 inlet;
#X obj 74 73 list trim;
#X obj 74 234 t b s b;
#X obj 238 287 list fromsymbol;
#X obj 240 319 list split 6;
#X obj 164 382 list tosymbol;
#X obj 300 374 list tosymbol;
#X obj 78 333 s;
#X msg 73 293 dump \$1;
#X obj 74 209 symbol;
#X obj 74 104 route audio_clip;
#X obj 74 136 route dump;
#X text 209 104 source type;
#X obj 74 172 list split 1;
#X obj 168 413 list append;
#X obj 244 245 list split 1;
#X text -44 293 dump <callback>;
#X text 250 198 callback;
#X obj 195 576 list append;
#X text 210 136 command;
#X obj 305 428 symbol;
#X obj 194 459 route bla;
#X obj 181 436 list trim;
#X obj 244 220 r \$0-dump3;
#X obj 73 268 symbol \$0-dump3;
#X obj 193 486 list append \$0;
#X msg 192 514 symbol \$2-clip3_\$1;
#X obj 197 609 s;
#X obj 193 545 t b s;
#X connect 0 0 1 0;
#X connect 1 0 10 0;
#X connect 2 0 24 0;
#X connect 2 1 7 1;
#X connect 3 0 4 0;
#X connect 4 0 5 0;
#X connect 4 1 6 0;
#X connect 5 0 14 0;
#X connect 6 0 14 1;
#X connect 8 0 7 0;
#X connect 9 0 2 0;
#X connect 10 0 11 0;
#X connect 11 0 13 0;
#X connect 13 0 9 0;
#X connect 13 1 20 0;
#X connect 14 0 22 0;
#X connect 15 0 3 0;
#X connect 15 1 18 1;
#X connect 18 0 27 0;
#X connect 20 0 21 1;
#X connect 21 0 25 0;
#X connect 22 0 21 0;
#X connect 23 0 15 0;
#X connect 24 0 8 0;
#X connect 25 0 26 0;
#X connect 26 0 28 0;
#X connect 28 0 18 0;
#X connect 28 1 27 1;
#X restore 483 325 pd dump_to_unit3;
#X obj 307 478 iemlib/splitfilename /;
#X connect 0 0 2 0;
#X connect 0 1 1 0;
#X connect 0 1 25 0;
#X connect 3 0 0 0;
#X connect 3 1 21 0;
#X connect 4 0 6 0;
#X connect 4 1 23 0;
#X connect 4 2 5 0;
#X connect 5 0 7 0;
#X connect 5 1 24 0;
#X connect 6 0 8 0;
#X connect 6 1 9 0;
#X connect 6 1 25 0;
#X connect 7 0 10 0;
#X connect 7 1 11 0;
#X connect 7 1 25 0;
#X connect 13 0 3 0;
#X connect 14 0 4 0;
#X connect 15 0 5 0;
#X connect 16 0 17 0;
#X connect 16 0 18 0;
#X connect 16 0 19 0;
#X connect 17 0 3 1;
#X connect 18 0 5 1;
#X connect 19 0 4 1;
#X connect 25 0 12 0;
#X coords 0 0 100 67 100 67 1 200 200;
#X restore 130 101 pd dnd;
#X text 99 78 clip_unit_gui <i> \$0 background color;
#X obj 100 100 audio_clip/clip_unit_gui 1 \$0 -228856;
#X obj 100 123 audio_clip/clip_unit_gui 2 \$0 -191407;
#X obj 100 146 audio_clip/clip_unit_gui 3 \$0 -162280;
#X connect 1 0 4 0;
#X connect 2 0 3 0;
#X connect 5 0 19 1;
#X connect 10 0 11 1;
#X connect 10 1 11 2;
#X connect 11 0 33 0;
#X connect 11 1 10 0;
#X connect 13 0 12 0;
#X connect 13 0 14 0;
#X connect 13 0 15 0;
#X connect 16 0 12 0;
#X connect 16 0 15 0;
#X connect 16 0 14 0;
#X connect 19 0 76 0;
#X connect 19 1 11 0;
#X connect 19 2 17 0;
#X connect 19 3 6 0;
#X connect 20 0 12 0;
#X connect 20 0 15 0;
#X connect 20 0 14 0;
#X connect 21 0 22 0;
#X connect 23 0 24 0;
#X connect 25 0 26 0;
#X connect 27 0 28 0;
#X connect 28 0 29 0;
#X connect 29 0 30 0;
#X connect 30 0 31 0;
#X connect 31 0 32 0;
#X connect 32 0 36 0;
#X connect 33 0 34 0;
#X connect 34 0 35 0;
#X connect 35 0 27 0;
#X connect 36 0 37 0;
#X connect 37 0 38 0;
#X connect 38 0 47 0;
#X connect 39 0 40 0;
#X connect 40 0 41 0;
#X connect 41 0 44 0;
#X connect 44 0 45 0;
#X connect 45 0 46 0;
#X connect 46 0 58 0;
#X connect 47 0 48 0;
#X connect 48 0 49 0;
#X connect 49 0 39 0;
#X connect 58 0 59 0;
#X connect 59 0 60 0;
#X connect 60 0 61 0;
#X connect 61 0 62 0;
#X connect 62 0 63 0;
#X connect 63 0 64 0;
#X connect 64 0 67 0;
#X connect 65 0 68 0;
#X connect 66 0 69 0;
#X connect 67 0 65 0;
#X connect 68 0 66 0;
#X connect 69 0 70 0;
#X connect 70 0 71 0;
#X connect 71 0 72 0;
#X connect 72 0 73 0;
#X connect 73 0 74 0;
#X connect 74 0 75 0;
#X connect 75 0 6 0;
#X connect 76 0 4 0;
#X connect 76 1 3 0;
#X connect 76 2 19 0;
#X connect 77 0 76 0;
#X connect 78 0 33 0;
#X coords 0 70 150 0 190 70 2 100 100;
