#N canvas 1 58 1475 1018 12;
#X declare -path ../../../core;
#X declare -path ../../../core/rj;
#X declare -path ../../../core/stuff;
#X declare -path ./audio_clip;
#X declare -path ./audio_clip/pdr_light;
#N canvas 172 83 586 377 LICENSE-GPL 0;
#X text 57 88 This program is free software: you can redistribute it
and/or modify it under the terms of the GNU General Public License
as published by the Free Software Foundation \, either version 3 of
the License \, or (at your option) any later version.;
#X text 58 168 This program is distributed in the hope that it will
be useful \, but WITHOUT ANY WARRANTY \; without even the implied warranty
of MERCHANTABILITY or FITNESS FOR A PARTICULAR PURPOSE. See the GNU
General Public License for more details.;
#X text 57 261 You should have received a copy of the GNU General Public
License along with this program. If not \, see <http://www.gnu.org/licenses/>.
;
#X text 61 54 Copyright (C) 2009 \, Reality Jockey Ltd.;
#X text 60 325 See the file LICENSE.txt for the full license text.
;
#X restore 298 15 pd LICENSE-GPL;
#X obj 355 356 inlet~;
#X obj 411 357 inlet~;
#X obj 410 457 outlet~;
#X obj 356 456 outlet~;
#X obj 589 215 inlet data;
#X obj 1286 955 outlet data;
#X obj 1041 279 namecanvas \$0-this;
#X obj 1039 256 triggered_loadbang \$0-this;
#X text 1034 206 manually trigger loadbang if the instance of abstraction
is created dynamically, f 29;
#X obj 718 396 savestate;
#X obj 592 418 module_loader audio_clip \$0 \$1;
#X obj 592 398 tgl 15 0 empty empty empty 17 7 0 10 -262144 -1 -1 0
1;
#X text 614 387 MASTER;
#N canvas 0 57 1920 1023 slave_send/receive 0;
#X obj 75 23 inlet send;
#X obj 72 667 outlet receive;
#X obj 892 866 outlet data;
#X obj 225 17 inlet data;
#X obj 197 424 r \$0-clipmaster;
#X obj 257 313 symbol \$0-clipmaster;
#X obj 257 217 loadbang;
#X obj 257 256 delay 2000;
#X obj 62 275 s;
#X msg 328 205 4000;
#X msg 363 255 2000;
#X msg 670 359 1;
#X msg 670 325 0;
#X obj 59 135 list prepend \$0;
#X obj 670 889 outlet status;
#X obj 121 612 list prepend all;
#X obj 121 635 list trim;
#X obj 96 324 route 1 2 3;
#X obj 23 88 list split 1;
#X obj 75 46 t l l;
#X obj 95 409 list prepend 1;
#X obj 33 358 list prepend 2;
#X obj 55 385 list prepend 3;
#X obj 42 169 list prepend to_clip_units;
#X obj 42 192 list trim;
#X obj 132 496 route \$0;
#X obj 160 566 list split 1;
#X obj 293 725 - 3;
#X obj 223 694 moses 4;
#X msg 203 738 \$1 launch;
#X obj 275 536 route all;
#X msg 251 586 stop;
#X obj 300 633 moses 4;
#X msg 287 673 \$1 stop;
#X obj 357 671 - 1;
#X obj 172 531 t a a;
#X obj 63 226 t a a;
#X obj 440 882 outlet module_loader;
#X obj 225 75 route clipmaster;
#X obj 226 53 route clip;
#X obj 886 810 list prepend clip;
#X obj 888 838 list trim;
#X msg 296 575 stop all;
#X msg 357 694 stop \$1;
#X msg 293 748 launch \$1;
#X obj 50 793 list prepend to_clip_units;
#X obj 225 152 t s s b b;
#X obj 257 279 t b b b;
#X obj 142 461 route to_clip_units launch stop highlight;
#N canvas 0 50 450 300 highlight 0;
#X obj 290 20 inlet;
#X obj 74 261 outlet;
#X obj 330 264 outlet;
#X obj 342 94 - 3;
#X msg 342 119 highlight \$1;
#X obj 205 116 select 1 2 3;
#X obj 309 60 t f f f;
#X msg 328 180 all highlight 0;
#X msg 172 177 1 highlight 1;
#X msg 182 207 2 highlight 1;
#X msg 192 237 3 highlight 1;
#X connect 0 0 6 0;
#X connect 3 0 4 0;
#X connect 4 0 2 0;
#X connect 5 0 8 0;
#X connect 5 1 9 0;
#X connect 5 2 10 0;
#X connect 6 0 5 0;
#X connect 6 1 7 0;
#X connect 6 2 3 0;
#X connect 7 0 1 0;
#X connect 8 0 1 0;
#X connect 9 0 1 0;
#X connect 10 0 1 0;
#X restore 806 596 pd highlight;
#X msg 224 390 clipmaster \$1 \$2;
#X obj 224 357 pack s f;
#X msg 302 342 0;
#X obj 225 104 list split 1;
#X obj 462 124 s \$0-clip_position;
#X obj 364 160 t f f;
#X obj 311 115 + 1;
#X connect 0 0 19 0;
#X connect 3 0 39 0;
#X connect 4 0 48 0;
#X connect 5 0 8 1;
#X connect 5 0 51 0;
#X connect 6 0 7 0;
#X connect 7 0 47 0;
#X connect 9 0 7 0;
#X connect 10 0 7 0;
#X connect 11 0 14 0;
#X connect 12 0 14 0;
#X connect 13 0 23 0;
#X connect 15 0 16 0;
#X connect 16 0 1 0;
#X connect 17 0 21 0;
#X connect 17 0 22 0;
#X connect 17 1 22 0;
#X connect 17 1 20 0;
#X connect 17 2 21 0;
#X connect 17 2 20 0;
#X connect 18 1 13 0;
#X connect 19 0 18 0;
#X connect 19 1 17 0;
#X connect 20 0 1 0;
#X connect 21 0 1 0;
#X connect 22 0 1 0;
#X connect 23 0 24 0;
#X connect 24 0 36 0;
#X connect 25 1 35 0;
#X connect 26 1 15 0;
#X connect 27 0 44 0;
#X connect 28 0 29 0;
#X connect 28 1 27 0;
#X connect 29 0 1 0;
#X connect 30 0 31 0;
#X connect 30 0 42 0;
#X connect 30 1 32 0;
#X connect 31 0 15 0;
#X connect 32 0 33 0;
#X connect 32 1 34 0;
#X connect 33 0 1 0;
#X connect 34 0 43 0;
#X connect 35 0 45 0;
#X connect 35 1 26 0;
#X connect 36 0 8 0;
#X connect 36 1 40 0;
#X connect 38 0 53 0;
#X connect 38 1 48 0;
#X connect 39 0 38 0;
#X connect 39 1 37 0;
#X connect 40 0 41 0;
#X connect 41 0 2 0;
#X connect 42 0 40 0;
#X connect 43 0 40 0;
#X connect 44 0 40 0;
#X connect 45 0 40 0;
#X connect 46 0 51 0;
#X connect 46 1 8 1;
#X connect 46 2 9 0;
#X connect 46 3 12 0;
#X connect 47 0 5 0;
#X connect 47 1 10 0;
#X connect 47 2 11 0;
#X connect 47 2 52 0;
#X connect 48 0 25 0;
#X connect 48 1 28 0;
#X connect 48 2 30 0;
#X connect 48 3 49 0;
#X connect 49 0 1 0;
#X connect 49 1 40 0;
#X connect 50 0 40 0;
#X connect 51 0 50 0;
#X connect 52 0 51 1;
#X connect 52 0 54 0;
#X connect 53 0 46 0;
#X connect 53 1 56 0;
#X connect 55 0 51 1;
#X connect 55 1 54 0;
#X connect 56 0 55 0;
#X restore 492 344 pd slave_send/receive;
#X obj 743 193 r CLOCK;
#X obj 743 216 s \$0-clock;
#X obj 833 198 r STOP;
#X obj 833 221 s \$0-stop;
#X floatatom -274 28 5 0 0 0 - - -;
#X floatatom -274 50 5 0 0 0 - - -;
#X text 49 372 popup editing windows;
#X msg 297 291 vis 2 1;
#X obj 424 34 declare -path ../../../core;
#X obj 424 64 declare -path ../../../core/rj;
#X obj 424 94 declare -path ../../../core/stuff;
#X obj 424 125 declare -path ./audio_clip;
#X obj 423 150 declare -path ./audio_clip/pdr_light;
#N canvas 887 441 533 448 \$0-clip-1_edit 1;
#X obj 2 2 clip_settings_gui 1 \$0;
#N canvas 0 50 651 429 help 0;
#X text 65 165 Seg.BPM : original tempo of sample segment;
#X text 69 274 Quantization (q) : When the sample can be triggered
(in 16ths), f 62;
#X text 71 305 preroll : If the sample starts before a bar (in 16ths)
;
#X text 105 117 - playolap : playing overlapped chunks;
#X text 106 139 -pvoc : using phase vocoder (FFT);
#X text 95 58 1) by changing speed (and pitch);
#X text 104 79 - varispeed;
#X text 92 97 2) by time stretching;
#X text 131 225 <filename>-###bpm.<extension>;
#X text 131 245 <filename> ###.<extension>;
#X text 72 197 Seg.BPM is automatically set for filenames with following
format :, f 66;
#X text 64 34 WRAP MODE : There are several modes to synchronize the
loop;
#X text 355 225 (ex: ableton);
#X text 357 245 (ex: musine);
#X restore 436 72 pd help;
#X restore 59 405 pd \$0-clip-1_edit;
#N canvas 274 351 520 436 \$0-clip-2_edit 0;
#X obj 2 3 clip_settings_gui 2 \$0;
#N canvas 0 50 651 429 help 0;
#X text 65 165 Seg.BPM : original tempo of sample segment;
#X text 69 274 Quantization (q) : When the sample can be triggered
(in 16ths), f 62;
#X text 71 305 preroll : If the sample starts before a bar (in 16ths)
;
#X text 105 117 - playolap : playing overlapped chunks;
#X text 106 139 -pvoc : using phase vocoder (FFT);
#X text 95 58 1) by changing speed (and pitch);
#X text 104 79 - varispeed;
#X text 92 97 2) by time stretching;
#X text 131 225 <filename>-###bpm.<extension>;
#X text 131 245 <filename> ###.<extension>;
#X text 72 197 Seg.BPM is automatically set for filenames with following
format :, f 66;
#X text 64 34 WRAP MODE : There are several modes to synchronize the
loop;
#X text 355 225 (ex: ableton);
#X text 357 245 (ex: musine);
#X restore 436 72 pd help;
#X restore 59 425 pd \$0-clip-2_edit;
#N canvas 312 396 516 436 \$0-clip-3_edit 0;
#X obj 3 3 clip_settings_gui 3 \$0;
#N canvas 0 50 651 429 help 0;
#X text 65 165 Seg.BPM : original tempo of sample segment;
#X text 69 274 Quantization (q) : When the sample can be triggered
(in 16ths), f 62;
#X text 71 305 preroll : If the sample starts before a bar (in 16ths)
;
#X text 105 117 - playolap : playing overlapped chunks;
#X text 106 139 -pvoc : using phase vocoder (FFT);
#X text 95 58 1) by changing speed (and pitch);
#X text 104 79 - varispeed;
#X text 92 97 2) by time stretching;
#X text 131 225 <filename>-###bpm.<extension>;
#X text 131 245 <filename> ###.<extension>;
#X text 72 197 Seg.BPM is automatically set for filenames with following
format :, f 66;
#X text 64 34 WRAP MODE : There are several modes to synchronize the
loop;
#X text 355 225 (ex: ableton);
#X text 357 245 (ex: musine);
#X restore 436 72 pd help;
#X restore 59 445 pd \$0-clip-3_edit;
#N canvas 0 50 840 531 clone 0;
#X obj 109 31 inlet;
#X obj 69 392 outlet~;
#X obj 175 387 outlet~;
#X obj 311 392 outlet;
#X obj 123 149 clip_unit2 1 \$0;
#X obj 133 179 clip_unit2 2 \$0;
#X obj 164 217 clip_unit2 3 \$0;
#X obj 365 260 list prepend 1;
#X obj 385 291 list prepend 2;
#X obj 405 320 list prepend 3;
#X text 398 79 workaround because pdcontrol [dir \$1( msg doesn't work
properly within clone;
#X obj 111 67 route all;
#X obj 114 103 route 1 2 3;
#X connect 0 0 11 0;
#X connect 4 0 1 0;
#X connect 4 1 2 0;
#X connect 4 2 7 0;
#X connect 5 0 1 0;
#X connect 5 1 2 0;
#X connect 5 2 8 0;
#X connect 6 0 1 0;
#X connect 6 1 2 0;
#X connect 6 2 9 0;
#X connect 7 0 3 0;
#X connect 8 0 3 0;
#X connect 9 0 3 0;
#X connect 11 0 4 0;
#X connect 11 0 6 0;
#X connect 11 0 5 0;
#X connect 11 1 12 0;
#X connect 12 0 4 0;
#X connect 12 1 5 0;
#X connect 12 2 6 0;
#X restore 380 410 pd clone -s 1 clip_unit2 3 \$0;
#X msg 250 387 all stop;
#X obj 131 101 dnd/dnd_behaviour \$1 \$0;
#X text 99 78 clip_unit_gui <i> \$0 background color;
#X obj 100 100 audio_clip/clip_unit_gui 1 \$0 -228856;
#X obj 100 123 audio_clip/clip_unit_gui 2 \$0 -191407;
#X obj 100 146 audio_clip/clip_unit_gui 3 \$0 -162280;
#X text 494 748 trigger / gate / toggle, f 12;
#X msg 265 438 1 launch;
#N canvas 519 360 473 385 clip1_trigger/gate/toogle_midi 0;
#X obj 137 28 midi-colors \$0 clip1 \$0-clip1-rcv;
#X obj 188 167 > 0;
#X obj 229 73 r \$0-clip1_launch;
#X obj 137 103 list prepend 0;
#X obj 137 135 route 0 1 2;
#X obj 279 196 r \$0-clip1;
#X obj 187 199 change;
#X obj 187 231 select 1;
#X obj 189 264 f;
#X obj 189 288 == 0;
#X obj 128 177 > 0;
#X obj 127 209 change;
#X obj 57 295 s \$0-clip1;
#X obj 40 162 > 0;
#X obj 39 186 change;
#X obj 39 211 select 1;
#X msg 39 236 1;
#X connect 0 0 3 0;
#X connect 1 0 6 0;
#X connect 2 0 3 1;
#X connect 3 0 4 0;
#X connect 4 0 13 0;
#X connect 4 1 10 0;
#X connect 4 2 1 0;
#X connect 5 0 8 1;
#X connect 6 0 7 0;
#X connect 7 0 8 0;
#X connect 8 0 9 0;
#X connect 9 0 12 0;
#X connect 10 0 11 0;
#X connect 11 0 12 0;
#X connect 13 0 14 0;
#X connect 14 0 15 0;
#X connect 15 0 16 0;
#X connect 16 0 12 0;
#X restore 129 759 pd clip1_trigger/gate/toogle_midi;
#N canvas 0 50 473 385 clip2_trigger/gate/toogle_midi 0;
#X obj 188 167 > 0;
#X obj 137 103 list prepend 0;
#X obj 137 135 route 0 1 2;
#X obj 187 199 change;
#X obj 187 231 select 1;
#X obj 189 264 f;
#X obj 189 288 == 0;
#X obj 128 177 > 0;
#X obj 127 209 change;
#X obj 40 162 > 0;
#X obj 39 186 change;
#X obj 39 211 select 1;
#X msg 39 236 1;
#X obj 137 28 midi-colors \$0 clip2 \$0-clip2-rcv;
#X obj 229 73 r \$0-clip2_launch;
#X obj 57 295 s \$0-clip2;
#X obj 279 196 r \$0-clip2;
#X connect 0 0 3 0;
#X connect 1 0 2 0;
#X connect 2 0 9 0;
#X connect 2 1 7 0;
#X connect 2 2 0 0;
#X connect 3 0 4 0;
#X connect 4 0 5 0;
#X connect 5 0 6 0;
#X connect 6 0 15 0;
#X connect 7 0 8 0;
#X connect 8 0 15 0;
#X connect 9 0 10 0;
#X connect 10 0 11 0;
#X connect 11 0 12 0;
#X connect 12 0 15 0;
#X connect 13 0 1 0;
#X connect 14 0 1 1;
#X connect 16 0 5 1;
#X restore 129 779 pd clip2_trigger/gate/toogle_midi;
#N canvas 0 50 473 385 clip3_trigger/gate/toogle_midi 0;
#X obj 188 167 > 0;
#X obj 137 103 list prepend 0;
#X obj 137 135 route 0 1 2;
#X obj 187 199 change;
#X obj 187 231 select 1;
#X obj 189 264 f;
#X obj 189 288 == 0;
#X obj 128 177 > 0;
#X obj 127 209 change;
#X obj 40 162 > 0;
#X obj 39 186 change;
#X obj 39 211 select 1;
#X msg 39 236 1;
#X obj 137 28 midi-colors \$0 clip3 \$0-clip3-rcv;
#X obj 229 73 r \$0-clip3_launch;
#X obj 279 196 r \$0-clip3;
#X obj 57 295 s \$0-clip3;
#X connect 0 0 3 0;
#X connect 1 0 2 0;
#X connect 2 0 9 0;
#X connect 2 1 7 0;
#X connect 2 2 0 0;
#X connect 3 0 4 0;
#X connect 4 0 5 0;
#X connect 5 0 6 0;
#X connect 6 0 16 0;
#X connect 7 0 8 0;
#X connect 8 0 16 0;
#X connect 9 0 10 0;
#X connect 10 0 11 0;
#X connect 11 0 12 0;
#X connect 12 0 16 0;
#X connect 13 0 1 0;
#X connect 14 0 1 1;
#X connect 15 0 5 1;
#X restore 129 799 pd clip3_trigger/gate/toogle_midi;
#X obj 410 856 text define -k \$0-quantiz;
#A set 3 1/32 \; 4 1/16T \; 6 1/16 \; 8 1/8T \; 12 1/8 \; 16 1/4T \;
24 1/4 \; 32 1/2T \; 48 1/2 \; 72 3x1/4 \; 96 1_bar \; 120 5x1/4 \;
192 2_bars \; 394 4_bars \; 788 8_bars;
#X text 1234 344 8 bars 4 bars 2 bars 1 bar 1/2 1/2T 1/4 1/4T 1/8 1/8T
1/16 1/16T 1/32, f 7;
#X text 1303 435 4;
#X text 1297 462 2;
#X text 1300 492 1;
#X text 1342 435 24;
#X text 1340 465 12;
#X text 1348 492 6;
#X text 1350 522 3;
#X text 1351 507 4;
#X text 1345 481 8;
#X text 1346 451 16;
#X obj 104 905 v \$0-PdRacks.colors, f 27;
#X obj 101 853 loadbang;
#X msg 101 878 1;
#X obj 100 932 text define -k \$0-PdRacks.colors;
#A set clip1_from 9 9 \; clip2_from 9 9 \; clip3_from 9 9 \; clip1_to
64 64 \; clip2_to 64 64 \; clip3_to 64 64 \; clip1 8 8 \; clip2 8 8
\; clip3 8 8 \;;
#X floatatom 192 223 5 0 0 0 - - -;
#X obj 355 211 r \$0-clip_position;
#X obj 355 236 * 3;
#X obj 355 261 + 1;
#X floatatom 192 245 5 0 0 0 - - -;
#X floatatom 192 268 5 0 0 0 - - -;
#X obj 402 264 + 2;
#X obj 453 267 + 3;
#N canvas 0 50 723 825 parameters 0;
#X obj 64 29 inlet;
#X obj 86 889 outlet;
#X obj 32 190 u_parameter \$0 clip1_bpm;
#X obj 32 210 u_parameter \$0 clip2_bpm;
#X obj 32 230 u_parameter \$0 clip3_bpm;
#X obj 33 270 u_parameter \$0 clip1_loop;
#X obj 32 290 u_parameter \$0 clip2_loop;
#X obj 32 310 u_parameter \$0 clip3_loop;
#X obj 30 106 u_dispatch \$0 clip1_file;
#X obj 30 127 u_dispatch \$0 clip2_file;
#X obj 30 148 u_dispatch \$0 clip3_file;
#X obj 34 351 u_parameter \$0 clip1_algorithm;
#X obj 33 371 u_parameter \$0 clip2_algorithm;
#X obj 33 391 u_parameter \$0 clip3_algorithm;
#X obj 39 520 u_parameter \$0 clip1_loop;
#X obj 38 540 u_parameter \$0 clip2_loop;
#X obj 39 558 u_parameter \$0 clip3_loop;
#X obj 39 600 u_parameter \$0 clip1_preroll;
#X obj 40 620 u_parameter \$0 clip2_preroll;
#X obj 43 648 u_parameter \$0 clip3_preroll;
#X obj 36 434 u_parameter \$0 clip1_quant;
#X obj 35 454 u_parameter \$0 clip2_quant;
#X obj 36 472 u_parameter \$0 clip3_quant;
#X obj 298 91 u_parameter \$0 clip1_from;
#X obj 298 121 u_parameter \$0 clip2_from;
#X obj 298 151 u_parameter \$0 clip3_from;
#X obj 298 211 u_parameter \$0 clip1_to;
#X obj 298 241 u_parameter \$0 clip2_to;
#X obj 298 271 u_parameter \$0 clip3_to;
#X obj 298 311 u_parameter \$0 clip1_snap_from;
#X obj 298 371 u_parameter \$0 clip2_snap_from;
#X obj 298 431 u_parameter \$0 clip3_snap_from;
#X obj 298 341 u_parameter \$0 clip1_snap_to;
#X obj 298 401 u_parameter \$0 clip2_snap_to;
#X obj 298 461 u_parameter \$0 clip3_snap_to;
#X obj 298 506 u_parameter \$0 clip1_pvoclock;
#X obj 297 536 u_parameter \$0 clip2_pvoclock;
#X obj 297 560 u_parameter \$0 clip3_pvoclock;
#X obj 294 610 u_parameter \$0 clip1_gain;
#X obj 294 640 u_parameter \$0 clip2_gain;
#X obj 294 670 u_parameter \$0 clip3_gain;
#X obj 293 707 u_parameter \$0 clip1_launch;
#X obj 293 737 u_parameter \$0 clip2_launch;
#X obj 293 767 u_parameter \$0 clip3_launch;
#X obj 299 802 u_parameter \$0 clip1_legato;
#X obj 301 828 u_parameter \$0 clip2_legato;
#X obj 296 854 u_parameter \$0 clip3_legato;
#X connect 0 0 8 0;
#X connect 2 0 3 0;
#X connect 3 0 4 0;
#X connect 4 0 5 0;
#X connect 5 0 6 0;
#X connect 6 0 7 0;
#X connect 7 0 11 0;
#X connect 8 0 9 0;
#X connect 9 0 10 0;
#X connect 10 0 2 0;
#X connect 11 0 12 0;
#X connect 12 0 13 0;
#X connect 13 0 20 0;
#X connect 14 0 15 0;
#X connect 15 0 16 0;
#X connect 16 0 17 0;
#X connect 17 0 18 0;
#X connect 18 0 19 0;
#X connect 19 0 23 0;
#X connect 20 0 21 0;
#X connect 21 0 22 0;
#X connect 22 0 14 0;
#X connect 23 0 24 0;
#X connect 24 0 25 0;
#X connect 25 0 26 0;
#X connect 26 0 27 0;
#X connect 27 0 28 0;
#X connect 28 0 29 0;
#X connect 29 0 32 0;
#X connect 30 0 33 0;
#X connect 31 0 34 0;
#X connect 32 0 30 0;
#X connect 33 0 31 0;
#X connect 34 0 35 0;
#X connect 35 0 36 0;
#X connect 36 0 37 0;
#X connect 37 0 38 0;
#X connect 38 0 39 0;
#X connect 39 0 40 0;
#X connect 40 0 41 0;
#X connect 41 0 42 0;
#X connect 42 0 43 0;
#X connect 43 0 44 0;
#X connect 44 0 45 0;
#X connect 45 0 46 0;
#X connect 46 0 1 0;
#X restore 588 456 pd parameters;
#X connect 1 0 4 0;
#X connect 2 0 3 0;
#X connect 5 0 14 1;
#X connect 10 0 11 1;
#X connect 10 1 11 2;
#X connect 11 0 67 0;
#X connect 11 1 10 0;
#X connect 14 0 31 0;
#X connect 14 1 11 0;
#X connect 14 2 12 0;
#X connect 14 3 6 0;
#X connect 15 0 16 0;
#X connect 17 0 18 0;
#X connect 19 0 20 0;
#X connect 31 0 4 0;
#X connect 31 1 3 0;
#X connect 31 2 14 0;
#X connect 32 0 31 0;
#X connect 39 0 31 0;
#X connect 56 0 57 0;
#X connect 57 0 55 0;
#X connect 60 0 61 0;
#X connect 61 0 62 0;
#X connect 61 0 65 0;
#X connect 61 0 66 0;
#X connect 62 0 59 0;
#X connect 65 0 63 0;
#X connect 66 0 64 0;
#X connect 67 0 6 0;
#X coords 0 0 190 70 190 70 2 100 100;
