#N canvas 0 57 1920 1023 10;
#X msg 381 668 stop;
#X text 604 584 stop playing;
#X obj 124 338 unpack f f;
#X obj 184 421 mtof;
#X obj 181 447 / 261.6;
#X obj 86 557 dbtorms;
#X obj 388 752 loadbang;
#X obj 272 879 s_playtable2;
#X obj 703 549 list prepend \$1;
#X obj 164 39 inlet;
#X obj 221 967 outlet~;
#X obj 291 968 outlet~;
#X obj 475 483 s \$2;
#X obj 445 458 f, f 5;
#X obj 383 413 t b b;
#X obj 799 529 symbol;
#X obj 673 527 pack f f f f;
#X msg 628 656 \$1 \$2 \$3 \$4 \$5;
#X msg 463 581 0, f 4;
#X obj 448 498 t b;
#X msg 438 344 stop;
#X obj 407 632 switch~;
#X obj 295 515 s \$0-speed;
#N canvas 0 50 450 300 sustain 0;
#X obj 101 234 outlet;
#X obj 115 188 / 1;
#X obj 155 160 t b f;
#X obj 192 133 r \$0-speed;
#X obj 78 76 r \$0-global_sustain;
#X obj 108 206 max 1;
#X connect 1 0 5 0;
#X connect 2 0 1 0;
#X connect 2 1 1 1;
#X connect 3 0 2 0;
#X connect 4 0 1 0;
#X connect 5 0 0 0;
#X restore 184 511 pd sustain;
#N canvas 0 50 450 300 sustain 0;
#X obj 101 234 outlet;
#X obj 115 188 / 1;
#X obj 155 160 t b f;
#X obj 192 133 r \$0-speed;
#X obj 78 76 r \$0-global_sustain;
#X connect 1 0 0 0;
#X connect 2 0 1 0;
#X connect 2 1 1 1;
#X connect 3 0 2 0;
#X connect 4 0 1 0;
#X restore 760 483 pd sustain;
#X obj 85 622 min 1.1;
#X obj 85 592 max 0.2;
#X obj 216 307 list append;
#X obj 152 593 list prepend 0;
#X obj 150 623 select 0 1;
#X msg 918 487 stop;
#N canvas 0 50 460 339 pan 0;
#X obj 234 244 * -1;
#X obj 232 220 - 1;
#X obj 213 175 min 0.8;
#X obj 214 197 max 0.2;
#X obj 236 120 * 0.6;
#X obj 236 145 + 0.2;
#X obj 208 30 mod 10;
#X obj 236 95 / 10;
#X obj 169 18 inlet m;
#X obj 110 273 outlet;
#X obj 234 266 outlet;
#X connect 0 0 10 0;
#X connect 1 0 0 0;
#X connect 2 0 3 0;
#X connect 3 0 1 0;
#X connect 3 0 9 0;
#X connect 4 0 5 0;
#X connect 5 0 2 0;
#X connect 6 0 7 0;
#X connect 7 0 4 0;
#X connect 8 0 6 0;
#X restore 257 767 pd pan;
#X obj 227 912 *~ 0.5;
#X obj 287 912 *~ 0.5;
#X msg 362 589 1;
#X obj 193 655 spigot;
#X msg 275 616 0;
#X obj 200 716 select 0 1;
#X msg 946 35 1;
#X obj 912 79 spigot;
#X obj 912 102 t b b;
#X msg 981 35 0;
#X obj 805 506 r \$3-table;
#X msg 362 185 \$2 \$1;
#X obj 738 461 r \$0-global_offset;
#N canvas 536 118 821 581 global_sustain/offset 0;
#X obj 223 129 *;
#X obj 282 153 -;
#X obj 334 234 *;
#X obj 283 176 * -1;
#X obj 280 198 t b f;
#X obj 286 75 t b b f f f;
#X obj 282 37 r \$3-global_duree;
#X obj 78 34 r \$3-sustain;
#X obj 129 127 +;
#X obj 136 64 r \$0-local_sustain;
#X obj 136 86 t b f;
#X obj 129 149 min 1;
#X obj 130 173 max 0;
#X obj 258 344 s \$0-global_sustain;
#X obj 334 305 s \$0-global_offset;
#X obj 396 86 r \$3-offset;
#X obj 519 78 r \$0-local_offset;
#X obj 384 152 +;
#X obj 519 100 t b f;
#X obj 384 174 min 1;
#X obj 384 196 max 0;
#X floatatom 196 86 5 0 0 0 - - -;
#X obj 223 151 max 5;
#X connect 0 0 22 0;
#X connect 1 0 3 0;
#X connect 2 0 14 0;
#X connect 3 0 4 0;
#X connect 4 0 2 0;
#X connect 4 1 2 1;
#X connect 5 0 2 0;
#X connect 5 0 0 0;
#X connect 5 2 0 1;
#X connect 5 3 1 1;
#X connect 6 0 5 0;
#X connect 7 0 8 0;
#X connect 8 0 11 0;
#X connect 9 0 10 0;
#X connect 9 0 21 0;
#X connect 10 0 8 0;
#X connect 10 1 8 1;
#X connect 11 0 12 0;
#X connect 12 0 0 0;
#X connect 15 0 17 0;
#X connect 16 0 18 0;
#X connect 17 0 19 0;
#X connect 18 0 17 0;
#X connect 18 1 17 1;
#X connect 19 0 20 0;
#X connect 20 0 2 0;
#X connect 22 0 1 0;
#X connect 22 0 13 0;
#X restore 437 27 pd global_sustain/offset;
#X obj 185 205 s \$0-local_sustain;
#X obj 237 179 s \$0-local_offset;
#X obj 295 414 mtof;
#X obj 294 437 / 8.175;
#X obj 295 485 * 1;
#X obj 294 456 t b f;
#X obj 246 421 mtof;
#X msg 346 460 1;
#X obj 466 645 s \$0-local_sustain;
#X obj 480 615 s \$0-local_offset;
#X msg 253 399 60;
#X obj 242 378 r \$3-root_key;
#X obj 1080 52 timer;
#X obj 1131 98 t b;
#X obj 1080 98 t b;
#X text 1161 53 bypass sync for small values;
#X obj 463 527 delay 100;
#X obj 162 392 t b f f b;
#X obj 158 556 delay;
#X obj 1080 75 moses 50;
#X floatatom 1224 106 5 0 0 0 - - -;
#X obj 1169 21 r \$3-clock_16th_time;
#X obj 915 0 r \$3-clock_16th;
#X obj 711 823 list append;
#X obj 703 572 t l l;
#X obj 629 712 list prepend 0;
#X obj 670 684 r \$3-reverse;
#X obj 796 629 * -1;
#X obj 832 627 +;
#X obj 748 657 pack s f f f f;
#X obj 928 589 r \$0-global_sustain;
#X obj 748 600 unpack s f f f f;
#X obj 749 714 list prepend 0;
#X obj 783 685 r \$3-reverse;
#X obj 628 778 list;
#X obj 630 738 route 0 1;
#X obj 749 741 route 1 0;
#X obj 1078 20 t b b;
#X obj 900 714 r \$3-synchrofill;
#X obj 855 756 spigot 0;
#X obj 661 471 r \$0-speed;
#X obj 212 278 r \$0-replay;
#X obj 910 126 s \$0-replay;
#X obj 1080 133 s \$0-replay;
#X obj 497 254 s \$0-stop;
#X obj 381 388 r \$0-stop;
#X obj 113 679 s \$0-stop;
#X obj 132 762 s \$0-replay;
#X text 414 197 velocity noteid;
#X text 488 458 noteid;
#X msg 378 779 sr 44100 \, fade 2 2;
#X obj 476 738 r \$3-fade;
#X msg 400 811 fade \$1 \$1;
#X msg 47 460 stop;
#X obj 49 427 r \$0-stop;
#X obj 188 146 route sustain offset pos pitchbend note remove;
#X obj 336 222 t l l b b b;
#X obj 537 162 v \$3-oneshot;
#X obj 496 228 spigot;
#X obj 537 182 == 0;
#X obj 408 243 s \$0-get_mode;
#X obj 537 137 r \$0-get_mode;
#X obj 233 568 v \$3-loop;
#X obj 232 545 r \$0-get_mode;
#X obj 198 691 v \$3-sync;
#X connect 0 0 7 1;
#X connect 2 0 5 0;
#X connect 2 1 31 0;
#X connect 2 1 63 0;
#X connect 3 0 4 0;
#X connect 4 0 50 0;
#X connect 5 0 26 0;
#X connect 6 0 96 0;
#X connect 7 0 32 0;
#X connect 7 1 33 0;
#X connect 8 0 70 0;
#X connect 9 0 101 0;
#X connect 13 0 12 0;
#X connect 13 0 19 0;
#X connect 14 0 0 0;
#X connect 14 1 13 0;
#X connect 15 0 8 1;
#X connect 16 0 8 0;
#X connect 17 0 71 0;
#X connect 18 0 21 0;
#X connect 18 0 55 0;
#X connect 18 0 54 0;
#X connect 19 0 36 0;
#X connect 19 0 62 0;
#X connect 20 0 62 0;
#X connect 23 0 64 1;
#X connect 24 0 16 3;
#X connect 25 0 16 0;
#X connect 26 0 25 0;
#X connect 27 0 2 0;
#X connect 28 0 29 0;
#X connect 29 0 92 0;
#X connect 29 1 35 0;
#X connect 32 0 10 0;
#X connect 33 0 11 0;
#X connect 34 0 21 0;
#X connect 34 0 35 1;
#X connect 35 0 110 0;
#X connect 36 0 35 1;
#X connect 37 0 93 0;
#X connect 37 1 83 0;
#X connect 38 0 39 1;
#X connect 39 0 40 0;
#X connect 40 0 88 0;
#X connect 40 1 41 0;
#X connect 40 1 58 0;
#X connect 41 0 39 1;
#X connect 42 0 15 0;
#X connect 43 0 102 0;
#X connect 44 0 16 2;
#X connect 48 0 49 0;
#X connect 49 0 51 0;
#X connect 50 0 22 0;
#X connect 51 0 50 0;
#X connect 51 1 50 1;
#X connect 52 0 4 1;
#X connect 53 0 50 1;
#X connect 56 0 52 0;
#X connect 57 0 52 0;
#X connect 58 0 65 0;
#X connect 59 0 38 0;
#X connect 59 0 85 0;
#X connect 60 0 89 0;
#X connect 62 0 18 0;
#X connect 62 0 53 0;
#X connect 63 0 64 0;
#X connect 63 1 3 0;
#X connect 63 2 13 1;
#X connect 64 0 28 0;
#X connect 65 0 60 0;
#X connect 65 1 59 0;
#X connect 67 0 65 1;
#X connect 68 0 39 0;
#X connect 69 0 7 0;
#X connect 70 0 17 0;
#X connect 70 1 77 0;
#X connect 71 0 81 0;
#X connect 72 0 71 1;
#X connect 73 0 75 2;
#X connect 74 0 75 3;
#X connect 75 0 78 0;
#X connect 76 0 74 1;
#X connect 77 0 75 0;
#X connect 77 1 75 1;
#X connect 77 2 73 0;
#X connect 77 3 74 0;
#X connect 77 4 75 4;
#X connect 78 0 82 0;
#X connect 79 0 78 1;
#X connect 80 0 7 0;
#X connect 81 0 80 0;
#X connect 81 1 69 1;
#X connect 82 0 80 0;
#X connect 82 1 69 1;
#X connect 83 0 58 0;
#X connect 83 1 58 1;
#X connect 84 0 85 1;
#X connect 85 0 69 0;
#X connect 86 0 16 1;
#X connect 87 0 27 0;
#X connect 91 0 14 0;
#X connect 96 0 7 1;
#X connect 97 0 98 0;
#X connect 98 0 7 1;
#X connect 99 0 64 0;
#X connect 100 0 99 0;
#X connect 101 0 46 0;
#X connect 101 1 47 0;
#X connect 101 2 47 0;
#X connect 101 3 48 0;
#X connect 101 4 43 0;
#X connect 101 5 104 0;
#X connect 102 0 2 0;
#X connect 102 1 27 1;
#X connect 102 2 34 0;
#X connect 102 3 20 0;
#X connect 102 4 106 0;
#X connect 103 0 105 0;
#X connect 104 0 90 0;
#X connect 105 0 104 1;
#X connect 107 0 103 0;
#X connect 108 0 28 1;
#X connect 109 0 108 0;
#X connect 110 0 37 0;
