#N canvas 5 159 591 372 12;
#X obj 144 44 inlet;
#X obj 210 44 inlet;
#X obj 154 204 +;
#X obj 154 331 outlet;
#X text 52 10 Gets a random value between two extremes.;
#X obj 154 179 random;
#X text 209 25 rng;
#X obj 210 141 t b f;
#X obj 28 104 r \$1-grain-on;
#X obj 162 72 * 0.5;
#X text 145 26 ctr;
#X obj 157 139 -;
#X obj 162 95 t b f;
#X obj 152 248 clip \$3 \$2;
#X connect 0 0 11 0;
#X connect 1 0 7 0;
#X connect 1 0 9 0;
#X connect 2 0 13 0;
#X connect 5 0 2 0;
#X connect 7 0 5 0;
#X connect 7 1 5 1;
#X connect 8 0 5 0;
#X connect 9 0 12 0;
#X connect 11 0 2 1;
#X connect 12 0 11 0;
#X connect 12 1 11 1;
#X connect 13 0 3 0;
