#N canvas 662 82 1206 885 10;
#X obj 144 24 inlet;
#X obj 61 409 outlet;
#X obj 272 24 inlet learn;
#X obj 275 81 select 0 1;
#X obj 133 74 route 0 1;
#X obj 135 50 list prepend 0;
#X obj 262 51 t f f;
#X msg 344 113 127;
#X msg 340 180 0;
#X obj 153 135 moses;
#X obj 180 175 moses;
#X obj 185 114 r \$1-\$2-min;
#X obj 212 155 r \$1-\$2-max;
#X obj 213 200 s \$1-\$2-max;
#X obj 149 225 s \$1-\$2-min;
#X obj 222 245 r \$1-\$2-max;
#X obj 133 251 r \$1-\$2-min;
#X obj 343 137 s \$1-\$2-min;
#X obj 338 202 s \$1-\$2-max;
#X obj 439 288 u_parameter \$1 \$2-min;
#X obj 439 318 u_parameter \$1 \$2-max;
#X obj 228 367 s \$1-\$2-min-rcv;
#X obj 333 367 s \$1-\$2-max-rcv;
#X obj 218 315 list append \$2;
#X msg 211 341 label \$2-min:\$1;
#X msg 325 335 label \$2-max:\$1;
#X obj 320 296 list append \$2;
#X obj 474 94 inlet;
#X obj 439 341 outlet;
#X obj 134 288 -;
#X obj 80 280 t f f;
#X obj 59 308 -;
#X obj 68 331 /;
#X obj 134 310 / -127;
#X obj 67 354 clip 0 127;
#X connect 0 0 5 0;
#X connect 2 0 6 0;
#X connect 3 1 7 0;
#X connect 3 1 8 0;
#X connect 4 0 31 0;
#X connect 4 1 9 0;
#X connect 5 0 4 0;
#X connect 6 0 5 1;
#X connect 6 1 3 0;
#X connect 7 0 17 0;
#X connect 8 0 18 0;
#X connect 9 0 14 0;
#X connect 9 1 10 0;
#X connect 10 1 13 0;
#X connect 11 0 9 1;
#X connect 12 0 10 1;
#X connect 15 0 26 0;
#X connect 15 0 29 1;
#X connect 16 0 23 0;
#X connect 16 0 30 0;
#X connect 19 0 20 0;
#X connect 20 0 28 0;
#X connect 23 0 24 0;
#X connect 24 0 21 0;
#X connect 25 0 22 0;
#X connect 26 0 25 0;
#X connect 27 0 19 0;
#X connect 29 0 33 0;
#X connect 30 0 31 1;
#X connect 30 1 29 0;
#X connect 31 0 32 0;
#X connect 32 0 34 0;
#X connect 33 0 32 1;
#X connect 34 0 1 0;
