#N canvas 0 50 863 626 16;
#X obj 150 32 loadbang;
#X obj 569 354 v GLOCAL.current;
#X obj 571 88 iemguts/receivecanvas 1;
#X obj 570 228 route mouse;
#X obj 570 257 t b;
#X obj 570 315 f \$1;
#X obj 570 286 delay 200;
#X obj 152 284 f \$1;
#X obj 152 338 s GLOCAL.base;
#X obj 303 479 v GLOCAL.current;
#X msg 303 430 0;
#X msg 159 148 1;
#X obj 571 185 spigot;
#X obj 363 138 + 1;
#X obj 152 82 v GLOCAL.instances;
#X obj 154 176 v GLOCAL.instances;
#X obj 361 179 s GLOCAL.instances;
#X obj 153 215 r GLOCAL.instances;
#X obj 648 123 r GLOCAL.instances;
#X obj 648 152 > 1;
#X obj 152 114 moses 1;
#X obj 318 268 spigot;
#X obj 152 245 t b b f;
#X obj 318 297 select 2;
#X msg 318 326 switching in LOCAL mode;
#X obj 318 355 print gloacal.space;
#X obj 561 53 iemguts/receivecanvas 2;
#X obj 571 23 iemguts/receivecanvas 3;
#X obj 36 347 f \$1;
#X obj 36 401 s GLOCAL.dollarzero;
#X connect 0 0 14 0;
#X connect 0 0 28 0;
#X connect 2 0 12 0;
#X connect 3 0 4 0;
#X connect 4 0 6 0;
#X connect 5 0 1 0;
#X connect 6 0 5 0;
#X connect 7 0 8 0;
#X connect 10 0 9 0;
#X connect 11 0 15 0;
#X connect 11 0 21 1;
#X connect 12 0 3 0;
#X connect 13 0 16 0;
#X connect 14 0 20 0;
#X connect 17 0 22 0;
#X connect 18 0 19 0;
#X connect 19 0 12 1;
#X connect 20 0 11 0;
#X connect 20 1 13 0;
#X connect 21 0 23 0;
#X connect 22 0 7 0;
#X connect 22 1 10 0;
#X connect 22 2 21 0;
#X connect 23 0 24 0;
#X connect 24 0 25 0;
#X connect 26 0 12 0;
#X connect 27 0 12 0;
#X connect 28 0 29 0;
