#N canvas 168 589 450 300 10;
#X obj 120 253 tabwrite \$1;
#X obj 64 34 inlet;
#X obj 260 40 inlet;
#X obj 85 98 route set;
#N canvas 764 166 718 686 glocal.dollarzero 0;
#X obj 379 7 loadbang;
#X obj 379 66 v GLOCAL.current;
#X obj 379 95 select 0;
#X obj 155 66 spigot 1;
#X msg 456 146 0;
#X text 501 28 hot plug;
#X obj 380 36 delay 1;
#X obj 155 37 r GLOCAL.base;
#X obj 155 101 moses \$0;
#X obj 155 150 max;
#X obj 155 179 t f f;
#X obj 234 229 outlet;
#X connect 0 0 6 0;
#X connect 1 0 2 0;
#X connect 2 1 4 0;
#X connect 2 1 11 0;
#X connect 3 0 8 0;
#X connect 4 0 3 1;
#X connect 6 0 1 0;
#X connect 7 0 3 0;
#X connect 8 0 9 0;
#X connect 9 0 10 0;
#X connect 10 0 11 0;
#X connect 10 1 9 1;
#X restore 246 74 pd glocal.dollarzero;
#X obj 271 134 list append \$1;
#X msg 170 208 set \$1-\$2;
#X obj 39 172 route 0;
#X obj 90 137 list prepend 0;
#X obj 39 195 symbol;
#X msg 39 218 set \$1;
#X connect 1 0 3 0;
#X connect 2 0 0 1;
#X connect 3 0 8 0;
#X connect 3 0 5 1;
#X connect 3 1 0 0;
#X connect 4 0 5 0;
#X connect 4 0 8 1;
#X connect 5 0 6 0;
#X connect 6 0 0 0;
#X connect 7 0 9 0;
#X connect 7 1 6 0;
#X connect 8 0 7 0;
#X connect 9 0 10 0;
#X connect 10 0 0 0;
