#N canvas 720 277 691 589 16;
#X obj 31 180 inlet;
#X obj 48 340 list prepend;
#X obj 48 380 list trim;
#X msg 242 276 list GLOCAL \$1;
#X obj 379 7 loadbang;
#X obj 379 66 v GLOCAL.current;
#X obj 379 95 select 0;
#X obj 155 66 spigot 1;
#X msg 456 146 0;
#X text 501 28 hot plug;
#X obj 380 36 delay 1;
#X obj 155 37 r GLOCAL.base;
#X obj 155 101 moses \$0;
#X obj 155 150 max;
#X obj 155 179 t f f;
#X obj 31 209 route list symbol;
#X obj 31 238 list prepend list;
#X obj 65 289 list prepend symbol;
#X obj 564 193 inlet;
#X obj 65 511 send;
#X obj 112 465 symbol \$1;
#X obj 48 409 t a b;
#X connect 0 0 15 0;
#X connect 1 0 2 0;
#X connect 2 0 21 0;
#X connect 3 0 1 1;
#X connect 4 0 10 0;
#X connect 5 0 6 0;
#X connect 6 1 3 0;
#X connect 6 1 8 0;
#X connect 7 0 12 0;
#X connect 8 0 7 1;
#X connect 10 0 5 0;
#X connect 11 0 7 0;
#X connect 12 0 13 0;
#X connect 13 0 14 0;
#X connect 14 0 3 0;
#X connect 14 1 13 1;
#X connect 15 0 16 0;
#X connect 15 1 17 0;
#X connect 15 2 1 0;
#X connect 16 0 1 0;
#X connect 17 0 1 0;
#X connect 18 0 20 0;
#X connect 20 0 19 1;
#X connect 21 0 19 0;
#X connect 21 1 20 0;
