#N canvas 427 88 853 532 10;
#X declare -path ../../../core;
#X declare -path ../../../core/stuff;
#X declare -path ../../../core/rj;
#N canvas 172 83 586 377 LICENSE-GPL 0;
#X text 57 88 This program is free software: you can redistribute it
and/or modify it under the terms of the GNU General Public License
as published by the Free Software Foundation \, either version 3 of
the License \, or (at your option) any later version.;
#X text 58 168 This program is distributed in the hope that it will
be useful \, but WITHOUT ANY WARRANTY \; without even the implied warranty
of MERCHANTABILITY or FITNESS FOR A PARTICULAR PURPOSE. See the GNU
General Public License for more details.;
#X text 57 261 You should have received a copy of the GNU General Public
License along with this program. If not \, see <http://www.gnu.org/licenses/>.
;
#X text 61 54 Copyright (C) 2009 \, Reality Jockey Ltd.;
#X text 60 325 See the file LICENSE.txt for the full license text.
;
#X restore 298 15 pd LICENSE-GPL;
#N canvas 1 56 1196 706 sub 0;
#X obj 188 70 inlet~;
#X obj 110 514 outlet~;
#N canvas 527 56 710 620 stuff 0;
#X obj 154 72 inlet~;
#X obj 156 490 outlet~;
#X msg 43 212 0;
#X obj 188 282 mtof;
#N canvas 932 168 450 300 sigmund 0;
#X obj 116 93 inlet~;
#X obj 76 246 outlet;
#X floatatom 163 213 5 0 0 0 - - -, f 5;
#X obj 182 129 sigmund~ -hop 256 pitch;
#X floatatom 182 152 5 0 0 0 - - -, f 5;
#X obj 334 168 vsl 15 128 0 127 0 0 empty empty empty 0 -9 0 10 -262144
-1 -1 0 1;
#X obj 119 176 sigmund~ -hop 256 pitch;
#X connect 0 0 3 0;
#X connect 0 0 6 0;
#X connect 3 0 4 0;
#X connect 3 0 5 0;
#X connect 6 0 1 0;
#X connect 6 0 2 0;
#X restore 198 139 pd sigmund;
#X obj 283 262 - 24;
#X obj 146 452 *~;
#X obj 128 322 dbtorms;
#X obj 147 417 line~;
#X msg 127 386 \$1 15;
#X obj 214 341 osc~;
#X obj 249 297 * 2;
#X obj 251 334 osc~;
#X obj 313 330 s \$0-peak;
#X obj 246 490 outlet~;
#X obj 256 452 *~;
#X obj 403 99 inlet;
#X obj 406 122 switch~;
#X obj 233 243 - 12;
#X obj 284 206 moses 44;
#X obj 84 299 f;
#X obj 44 378 pack f f;
#X obj 35 459 s \$0-noteout;
#X obj 35 275 change;
#X msg 5 252 set 1;
#X obj 38 329 min 100;
#X obj 127 354 * 4;
#X obj 86 223 + 18;
#X obj 194 167 moses 32;
#X obj 29 186 moses 30;
#X obj 204 211 + 0.5;
#X obj 204 230 int;
#X obj 30 305 bng 15 250 50 0 empty empty empty 17 7 0 10 -262144 -1
-1;
#X obj 95 112 env~ 64;
#X obj 132 236 t b b f;
#X msg 65 413 \$2 \$1;
#X connect 0 0 4 0;
#X connect 0 0 33 0;
#X connect 2 0 23 0;
#X connect 3 0 10 0;
#X connect 3 0 11 0;
#X connect 4 0 28 0;
#X connect 5 0 3 0;
#X connect 6 0 1 0;
#X connect 7 0 26 0;
#X connect 8 0 6 0;
#X connect 8 0 15 0;
#X connect 9 0 8 0;
#X connect 10 0 6 1;
#X connect 11 0 12 0;
#X connect 12 0 15 1;
#X connect 15 0 14 0;
#X connect 16 0 17 0;
#X connect 18 0 3 0;
#X connect 19 0 18 0;
#X connect 19 1 5 0;
#X connect 20 0 7 0;
#X connect 20 0 25 0;
#X connect 21 0 35 0;
#X connect 23 0 20 0;
#X connect 23 0 32 0;
#X connect 24 0 23 0;
#X connect 25 0 21 0;
#X connect 25 0 7 0;
#X connect 26 0 9 0;
#X connect 27 0 20 1;
#X connect 28 1 30 0;
#X connect 29 0 2 0;
#X connect 29 1 27 0;
#X connect 30 0 31 0;
#X connect 31 0 19 0;
#X connect 31 0 34 0;
#X connect 31 0 13 0;
#X connect 33 0 29 0;
#X connect 34 0 20 0;
#X connect 34 1 24 0;
#X connect 34 2 21 1;
#X connect 35 0 22 0;
#X restore 193 332 pd stuff;
#X obj 350 80 inlet~;
#X obj 320 514 outlet~;
#X obj 115 292 *~;
#X obj 176 252 line~;
#X obj 173 204 dbtorms;
#X msg 171 227 \$1 20;
#X obj 173 181 r \$0-direct;
#X obj 375 292 *~;
#X obj 258 384 *~;
#X obj 433 332 line~;
#X obj 435 289 dbtorms;
#X msg 434 309 \$1 20;
#X obj 435 264 r \$0-oct1;
#X obj 443 212 line~;
#X obj 445 169 dbtorms;
#X msg 444 189 \$1 20;
#X obj 445 144 r \$0-oct2;
#X obj 186 388 *~;
#X obj 562 133 r \$0-bypass;
#X obj 560 212 == 0;
#X obj 177 433 tanh~;
#X obj 297 433 tanh~;
#N canvas 0 57 1920 1023 new_algo 0;
#X obj 66 23 inlet~;
#X obj 582 29 inlet;
#X obj 66 659 outlet~ oct1;
#X obj 216 659 outlet~ oct2;
#X text 683 32 credits https://lists.puredata.info/pipermail/pd-list/2014-04/106747.html
;
#X text 703 83 itensimon@gmail.com;
#X obj 611 144 switch~;
#X obj 148 292 rpole~;
#X obj 163 328 samphold~;
#X obj 148 253 sig~ 1;
#X obj 237 319 samphold~;
#X obj 227 206 biquad~ 0 0 1 -1 0;
#X obj 237 294 rpole~;
#X obj 163 354 -~ 2;
#X obj 237 345 -~ 1;
#X obj 163 385 +~;
#X obj 213 177 expr~ $v1 >= 0;
#X obj 227 231 expr~ $v1 != 1 \; $v1 != -1 \; $v1 == 1;
#X obj 215 151 clip~ -1 1;
#X obj 233 100 vcf~ 4;
#X obj 209 125 *~ 1e+07;
#X obj 318 567 line~;
#X obj 386 253 *;
#X obj 360 344 dbtorms;
#X obj 196 603 *~;
#X obj 156 579 osc~;
#X obj 392 120 env~ 64;
#X obj 414 225 > 35;
#X obj 65 110 lop~ 300;
#X obj 65 140 lop~ 300;
#X obj 170 458 lop~ 20;
#X obj 169 482 lop~ 20;
#X msg 347 495 \$1 5;
#X obj 267 69 delread~ \$0-filter 5;
#X obj 262 511 delwrite~ \$0-filter 5;
#X obj 253 604 *~;
#X obj 213 580 osc~;
#X obj 173 430 /~;
#X obj 57 314 loadbang;
#X obj 58 348 samplerate~;
#X obj 157 539 *~ 0.25;
#X obj 214 540 *~ 0.5;
#X obj 356 213 + 24;
#X obj 65 66 hip~ 20;
#X obj 66 88 hip~ 20;
#X obj 488 536 s \$0-noteout;
#X obj 642 430 s \$0-peak;
#X obj 365 173 t f f f;
#X obj 451 363 snapshot~;
#X obj 486 472 pack f f;
#X obj 558 485 f;
#X obj 558 508 pack f 0;
#X obj 541 206 moses 45;
#X obj 582 241 t b b;
#X msg 626 200 30;
#X obj 525 243 t b b;
#X msg 582 172 45;
#X obj 465 310 bang~;
#X obj 465 333 spigot;
#X msg 581 270 1;
#X obj 443 417 + 0.5;
#X obj 443 440 int;
#X obj 443 463 change;
#X msg 553 349 set -1;
#X msg 525 281 0;
#X obj 451 386 ftom;
#X connect 0 0 26 0;
#X connect 0 0 43 0;
#X connect 1 0 6 0;
#X connect 7 0 8 0;
#X connect 8 0 13 0;
#X connect 9 0 7 0;
#X connect 9 0 12 0;
#X connect 10 0 14 0;
#X connect 11 0 17 0;
#X connect 12 0 10 0;
#X connect 13 0 15 0;
#X connect 14 0 15 1;
#X connect 15 0 37 1;
#X connect 16 0 11 0;
#X connect 16 0 8 1;
#X connect 17 0 7 1;
#X connect 17 1 12 1;
#X connect 17 2 10 1;
#X connect 18 0 16 0;
#X connect 19 0 20 0;
#X connect 20 0 18 0;
#X connect 21 0 24 1;
#X connect 21 0 35 1;
#X connect 22 0 23 0;
#X connect 23 0 32 0;
#X connect 24 0 2 0;
#X connect 25 0 24 0;
#X connect 26 0 47 0;
#X connect 27 0 22 1;
#X connect 28 0 29 0;
#X connect 29 0 20 0;
#X connect 29 0 19 0;
#X connect 30 0 31 0;
#X connect 31 0 34 0;
#X connect 31 0 40 0;
#X connect 31 0 41 0;
#X connect 31 0 48 0;
#X connect 32 0 21 0;
#X connect 33 0 19 1;
#X connect 35 0 3 0;
#X connect 36 0 35 0;
#X connect 37 0 30 0;
#X connect 38 0 39 0;
#X connect 39 0 37 0;
#X connect 40 0 25 0;
#X connect 41 0 36 0;
#X connect 42 0 22 0;
#X connect 43 0 44 0;
#X connect 44 0 28 0;
#X connect 47 0 42 0;
#X connect 47 1 27 0;
#X connect 47 1 52 0;
#X connect 47 2 49 1;
#X connect 48 0 65 0;
#X connect 49 0 45 0;
#X connect 50 0 51 0;
#X connect 51 0 45 0;
#X connect 52 0 55 0;
#X connect 52 1 53 0;
#X connect 53 0 59 0;
#X connect 53 1 54 0;
#X connect 53 1 63 0;
#X connect 54 0 52 1;
#X connect 55 0 64 0;
#X connect 55 1 56 0;
#X connect 55 1 50 0;
#X connect 56 0 52 1;
#X connect 57 0 58 0;
#X connect 58 0 48 0;
#X connect 59 0 58 1;
#X connect 60 0 61 0;
#X connect 61 0 62 0;
#X connect 62 0 49 0;
#X connect 62 0 50 1;
#X connect 62 0 46 0;
#X connect 63 0 62 0;
#X connect 64 0 58 1;
#X connect 65 0 60 0;
#X restore 282 339 pd new_algo;
#X obj 561 253 * 1;
#X obj 610 205 t b f;
#X obj 682 159 == 0;
#X obj 707 241 t b f;
#X obj 635 284 * 0;
#X obj 682 136 r \$0-algo;
#N canvas 829 88 710 620 stuff 0;
#X obj 154 72 inlet~;
#X obj 156 490 outlet~;
#N canvas 932 168 450 300 sigmund 0;
#X obj 116 93 inlet~;
#X obj 76 246 outlet;
#X obj 119 176 sigmund~ -hop 256 pitch;
#X connect 0 0 2 0;
#X connect 2 0 1 0;
#X restore 143 187 pd sigmund;
#X obj 246 490 outlet~;
#X obj 403 99 inlet;
#X obj 406 122 switch~;
#X obj 305 419 line~;
#X obj 292 182 *;
#X obj 294 206 dbtorms;
#X obj 183 455 *~;
#X obj 143 431 osc~;
#X obj 310 98 env~ 64;
#X obj 325 156 > 35;
#X msg 334 347 \$1 5;
#X obj 240 456 *~;
#X obj 200 432 osc~;
#X obj 144 391 *~ 0.25;
#X obj 201 392 *~ 0.5;
#X obj 281 156 + 24;
#X obj 478 586 s \$0-noteout;
#X obj 632 480 s \$0-peak;
#X obj 305 123 t f f f;
#X obj 422 484 pack f f;
#X obj 548 535 f;
#X obj 548 558 pack f 0;
#X obj 162 281 spigot;
#X obj 405 384 + 0.5;
#X obj 405 407 int;
#X obj 405 430 change;
#X msg 543 399 set -1;
#X obj 109 238 moses -10;
#X obj 152 345 mtof;
#X floatatom 231 309 5 0 0 0 - - -, f 5;
#N canvas 0 50 450 300 attack_detect 0;
#X obj 102 252 >;
#X obj 103 278 select 1;
#X obj 103 305 t b b;
#X obj 104 356 spigot;
#X msg 143 334 0;
#X msg 145 425 1;
#X obj 149 403 loadbang;
#X obj 128 379 delay 15;
#X text 165 233 increase if you get too many attacks;
#X text 197 368 debounce \, mandatory!;
#X obj 56 424 bng 15 250 50 0 empty empty empty 17 7 0 10 -262144 -1
-1;
#X obj 138 232 + 10;
#X obj 184 110 delwrite~ \$0-lag 20;
#X obj 159 159 delread~ \$0-lag 15;
#X obj 124 66 inlet~;
#X obj 92 400 outlet;
#X obj 68 221 moses 85;
#X obj 153 207 moses 80;
#X obj 68 133 env~ 128;
#X obj 154 182 env~ 256;
#X connect 0 0 1 0;
#X connect 1 0 2 0;
#X connect 2 0 4 0;
#X connect 2 1 3 0;
#X connect 3 0 7 0;
#X connect 3 0 15 0;
#X connect 4 0 3 1;
#X connect 5 0 3 1;
#X connect 6 0 5 0;
#X connect 7 0 5 0;
#X connect 11 0 0 1;
#X connect 13 0 19 0;
#X connect 14 0 12 0;
#X connect 14 0 18 0;
#X connect 16 1 0 0;
#X connect 17 1 11 0;
#X connect 18 0 16 0;
#X connect 19 0 17 0;
#X restore 527 74 pd attack_detect;
#X floatatom 365 136 5 0 0 0 - - -, f 5;
#X obj 527 97 t b b;
#X obj 542 153 spigot 1;
#X msg 584 127 0;
#X obj 486 126 delay 200;
#X msg 486 149 1;
#X obj 548 198 bng 15 250 50 0 empty empty empty 17 7 0 10 -262144
-1 -1;
#X obj 542 176 print;
#X connect 0 0 2 0;
#X connect 0 0 11 0;
#X connect 0 0 33 0;
#X connect 2 0 30 0;
#X connect 4 0 5 0;
#X connect 6 0 9 1;
#X connect 6 0 14 1;
#X connect 7 0 8 0;
#X connect 8 0 13 0;
#X connect 9 0 1 0;
#X connect 10 0 9 0;
#X connect 11 0 21 0;
#X connect 11 0 34 0;
#X connect 12 0 7 1;
#X connect 13 0 6 0;
#X connect 14 0 3 0;
#X connect 15 0 14 0;
#X connect 16 0 10 0;
#X connect 17 0 15 0;
#X connect 18 0 7 0;
#X connect 21 0 18 0;
#X connect 21 1 12 0;
#X connect 21 2 22 1;
#X connect 22 0 19 0;
#X connect 23 0 24 0;
#X connect 24 0 19 0;
#X connect 25 0 31 0;
#X connect 25 0 26 0;
#X connect 25 0 32 0;
#X connect 26 0 27 0;
#X connect 27 0 28 0;
#X connect 28 0 22 0;
#X connect 28 0 23 1;
#X connect 28 0 20 0;
#X connect 29 0 28 0;
#X connect 30 1 25 0;
#X connect 31 0 16 0;
#X connect 31 0 17 0;
#X connect 33 0 35 0;
#X connect 35 0 37 0;
#X connect 35 0 38 0;
#X connect 35 1 36 0;
#X connect 36 0 40 0;
#X connect 36 0 41 0;
#X connect 37 0 36 1;
#X connect 38 0 39 0;
#X connect 39 0 36 1;
#X restore 463 387 pd stuff;
#X obj 712 209 == 1;
#X obj 787 241 t b f;
#X obj 715 284 * 0;
#X obj 792 209 == 2;
#X connect 0 0 2 0;
#X connect 0 0 5 0;
#X connect 0 0 25 0;
#X connect 0 0 32 0;
#X connect 2 0 20 0;
#X connect 2 1 11 0;
#X connect 3 0 2 0;
#X connect 3 0 10 0;
#X connect 3 0 25 0;
#X connect 3 0 32 0;
#X connect 5 0 23 0;
#X connect 6 0 5 1;
#X connect 6 0 10 1;
#X connect 7 0 8 0;
#X connect 8 0 6 0;
#X connect 9 0 7 0;
#X connect 10 0 24 0;
#X connect 11 0 23 0;
#X connect 11 0 24 0;
#X connect 12 0 11 1;
#X connect 13 0 14 0;
#X connect 14 0 12 0;
#X connect 15 0 13 0;
#X connect 16 0 20 1;
#X connect 17 0 18 0;
#X connect 18 0 16 0;
#X connect 19 0 17 0;
#X connect 20 0 23 0;
#X connect 20 0 24 0;
#X connect 21 0 22 0;
#X connect 22 0 26 0;
#X connect 22 0 30 0;
#X connect 22 0 35 0;
#X connect 23 0 1 0;
#X connect 24 0 4 0;
#X connect 25 0 20 0;
#X connect 25 1 11 0;
#X connect 26 0 2 1;
#X connect 27 0 26 0;
#X connect 27 1 26 1;
#X connect 28 0 27 0;
#X connect 29 0 30 0;
#X connect 29 1 30 1;
#X connect 30 0 25 1;
#X connect 31 0 28 0;
#X connect 31 0 33 0;
#X connect 31 0 36 0;
#X connect 32 0 20 0;
#X connect 32 1 11 0;
#X connect 33 0 29 0;
#X connect 34 0 35 0;
#X connect 34 1 35 1;
#X connect 35 0 32 1;
#X connect 36 0 34 0;
#X restore 79 298 pd sub;
#X obj 321 127 r \$0-peak;
#X obj 347 346 u_dispatch \$0 oct1;
#X obj 347 366 u_dispatch \$0 oct2;
#X obj 347 396 u_dispatch \$0 direct;
#N canvas 0 50 450 300 speed_lim 0;
#X obj 87 20 inlet;
#X obj 87 105 t b b a;
#X obj 83 278 list append;
#X obj 83 307 list trim;
#X msg 129 200 1;
#X msg 57 177 0;
#X obj 83 332 outlet;
#X obj 55 145 delay 100;
#X obj 83 249 metro 100;
#X obj 33 226 change;
#X connect 0 0 1 0;
#X connect 1 0 7 0;
#X connect 1 1 4 0;
#X connect 1 2 2 1;
#X connect 2 0 3 0;
#X connect 3 0 6 0;
#X connect 4 0 9 0;
#X connect 5 0 9 0;
#X connect 7 0 5 0;
#X connect 8 0 2 0;
#X connect 9 0 8 0;
#X restore 323 168 pd speed_lim;
#X obj 347 422 u_parameter \$0 bypass;
#X obj 101 101 cnv 15 188 68 \$0-background \$0-background-rcv fx_sub-0
0 7 0 14 -262144 -1 0;
#X obj 100 115 ui_vs \$0 oct1 0 100;
#X obj 174 115 ui_vs \$0 direct 0 100;
#X obj 136 115 ui_vs \$0 oct2 0 100;
#X obj 212 130 tgl 40 1 \$0-bypass \$0-bypass-rcv BYPASS 1 20 0 10
-262144 -1 -1 0 1;
#N canvas 0 57 1920 1023 midi2notename 0;
#N canvas 473 338 450 300 count 0;
#X obj 131 154 f 0;
#X obj 156 153 + 1;
#X msg 147 133 0;
#X obj 131 183 outlet;
#X obj 131 59 inlet;
#X obj 131 96 b;
#X obj 178 61 inlet;
#X obj 178 98 b;
#X connect 0 0 1 0;
#X connect 0 0 3 0;
#X connect 1 0 0 1;
#X connect 2 0 0 1;
#X connect 4 0 5 0;
#X connect 5 0 0 0;
#X connect 6 0 7 0;
#X connect 7 0 2 0;
#X restore 330 149 pd count;
#X msg 249 99 c \, c# \, d \, d# \, e \, f \, f# \, g \, g# \, a \,
a# \, b;
#X obj 249 124 t a b;
#X obj 249 173 list prepend;
#X msg 173 173 reset;
#X obj 249 74 t b b b;
#X text -2 92 Notes example:;
#X msg 114 174 print;
#X msg 114 149 dump;
#X obj 161 198 m_symbolarray;
#X obj 252 47 loadbang;
#X obj 165 93 mod 12;
#X obj 229 43 bng 15 250 50 0 empty empty empty 17 7 0 10 -262144 -1
-1;
#X obj 166 57 t f f;
#X obj 159 227 list append;
#X obj 166 34 - 24;
#X floatatom 177 145 5 0 0 0 - - -, f 5;
#X obj 188 122 div 12;
#X obj 171 6 t f f;
#X obj 164 251 list append;
#X obj 51 50 inlet;
#X obj 152 315 outlet;
#X msg 150 293 symbol \$1\$2;
#X connect 0 0 3 1;
#X connect 1 0 2 0;
#X connect 2 0 3 0;
#X connect 2 1 0 0;
#X connect 3 0 9 1;
#X connect 4 0 9 0;
#X connect 5 0 1 0;
#X connect 5 1 4 0;
#X connect 5 2 0 1;
#X connect 7 0 9 0;
#X connect 8 0 9 0;
#X connect 9 0 14 0;
#X connect 10 0 5 0;
#X connect 11 0 9 0;
#X connect 12 0 5 0;
#X connect 13 0 11 0;
#X connect 13 1 17 0;
#X connect 14 0 19 0;
#X connect 15 0 13 0;
#X connect 17 0 16 0;
#X connect 17 0 14 1;
#X connect 18 0 15 0;
#X connect 18 1 19 1;
#X connect 19 0 22 0;
#X connect 20 0 18 0;
#X connect 22 0 21 0;
#X restore 327 190 pd midi2notename;
#X symbolatom 183 100 5 0 0 0 - - -, f 5;
#X obj 499 192 r \$0-noteout;
#X obj 504 247 poly 1 1;
#X obj 514 274 pack f f;
#X msg 535 307 note \$1 \$2;
#X obj 586 403 select 1;
#X obj 577 446 f;
#X obj 614 463 == 0;
#X obj 587 382 > 0;
#X obj 584 347 midi-colors \$0 bypass \$0-bypass-rcv;
#X obj 652 414 r \$0-bypass;
#X obj 593 489 s \$0-bypass;
#X obj 252 115 ui_vs \$0 wet 0 1;
#X obj 347 444 u_dispatch \$0 wet;
#X obj 68 426 c_xfade;
#X obj 141 425 c_xfade;
#X obj 239 350 r \$0-wet;
#X obj 59 462 hip~ 20;
#X obj 149 462 hip~ 20;
#X obj 347 310 module_loader fx_sub \$0 \$1;
#X obj 128 226 inlet~;
#X obj 28 200 inlet~;
#X obj 65 500 outlet~;
#X obj 149 484 outlet~;
#X obj 199 268 inlet data;
#X obj 199 290 outlet data;
#X msg 239 372 \$1 10;
#X obj 651 279 namecanvas \$0-this;
#X obj 649 256 triggered_loadbang \$0-this;
#X text 644 206 manually trigger loadbang if the instance of abstraction
is created dynamically, f 29;
#X obj 401 267 savestate;
#X obj 228 100 hradio 15 1 0 3 \$0-algo \$0-algo-rcv Algo 0 8 0 15
-99865 -191407 -257985 2;
#X obj 347 466 u_parameter \$0 algo;
#X obj 804 33 declare -path ../../../core;
#X obj 804 53 declare -path ../../../core/stuff;
#X obj 804 73 declare -path ../../../core/rj;
#X connect 1 0 28 1;
#X connect 1 1 29 1;
#X connect 2 0 6 0;
#X connect 3 0 4 0;
#X connect 4 0 5 0;
#X connect 5 0 7 0;
#X connect 6 0 13 0;
#X connect 7 0 27 0;
#X connect 13 0 14 0;
#X connect 15 0 16 0;
#X connect 16 1 17 0;
#X connect 16 2 17 1;
#X connect 17 0 18 0;
#X connect 18 0 39 0;
#X connect 19 0 20 0;
#X connect 20 0 21 0;
#X connect 21 0 25 0;
#X connect 22 0 19 0;
#X connect 23 0 22 0;
#X connect 24 0 20 1;
#X connect 27 0 46 0;
#X connect 28 0 31 0;
#X connect 29 0 32 0;
#X connect 30 0 40 0;
#X connect 31 0 36 0;
#X connect 32 0 37 0;
#X connect 33 0 3 0;
#X connect 33 1 44 0;
#X connect 34 0 1 1;
#X connect 34 0 29 0;
#X connect 35 0 1 0;
#X connect 35 0 28 0;
#X connect 38 0 39 0;
#X connect 38 0 33 0;
#X connect 40 0 29 2;
#X connect 40 0 28 2;
#X connect 44 0 33 1;
#X connect 44 1 33 2;
#X coords 0 -1 1 1 190 70 1 100 100;
